<?xml version="1.0" encoding="UTF-8"?><svg id="Layer_2" xmlns="http://www.w3.org/2000/svg" viewBox="0 0 927.57 427.37"><g id="Layer_2-2"><path d="M901.73,44.85c-13.66-1.05-25.68-6.57-38.92-9.41-1.86-.4-2.93-1.52-3.36-2.87-16.07-2.35-32.18-4.54-48.25-6.93-26.88-3.99-53.36-9.98-80.19-14.21-26.75-4.21-53.75-6.77-80.79-8.15-9.89-.51-19.79-.85-29.69-1.06l-6.19.26c-.29-.03-.51-.18-.7-.38-26.45-.38-52.91.21-79.34,1.43.1,1.15.18,2.41.07,3.78l-40.23,1.94,6.26-3.83c-3.95.25-7.9.51-11.84.79-33.56,2.32-67.09,5.38-100.62,8.48-.62.26-1.3.44-1.77.41l-3.74.1c-70.45,6.53-140.91,13.13-211.7,13.59-.95,1.37-2.2,2.45-3.86,2.96-3.19.98-5.51-1.25-6.08-3.98-.81-.68-1.33-1.61-1.57-2.63-.51.05-1.02.11-1.54.16.22.09.39.16.49.22,3.56,2.26-5.52,2.15-7.2,2.32-.77.07-1.31.76-1.73.76h-17.89c-1.32.2-2.63.42-3.94.63-.64.34-1.47.64-2.3.41v-.05c-13.8,2.24-27.53,4.95-41.19,8.09-4.06.93-6.61-2.79-6.19-5.91-17.27,1.2-34.77,2.67-52.03,3.83-8.5.58-13.69-.33-22.29,2.01l-1.36,30.33c1.16.65,2.52,1.09,4.05,2.01,5.38,1.4,10.03,3.9,14.85,6.06.58.25.94.83,1.36,1.02l2.69,1.02c.34.13.94-.13,1.36,0,1.38.42,2.23.91,2.69,2.01,1.55.31,2.16.87,2.69,1.02.75.2,2.52-.58,2.76.62l3.78,47.06v82.22c0,18.19-.68,36.55,0,54.73l-.07,5.36c-.33.17-.73.33-1.24.49.42.42.84.73,1.22,1.05l-.08,6.16,1.48-3.72c.16,1.54-.8,2.21-1.31,3.35-.22.47.33.98-.18,1.56l-.35,27.98h4.2c3.18,0,5.77,3.2,4.82,6.33-2.47,8.09-2.05,16.75-4.52,24.85-.77,2.54-2.87,3.58-4.94,3.49l-1.05,82.75h889.33V49.1c-3.52-.15-14.2-2.13-19.6-4.16-1.41.03-2.82.01-4.24-.1ZM38.95,270.58l-.55-3.89c.42,1.76,1.59,2.9.55,3.89ZM670.23,392.24c-26.33-10.26-1.77,10.93-164.33,3.39-17.93-.84-256.56,1.74-272.75-1.69l-164.33,3.39c-2.4-.51-3.78-3.78-4.5-8.49-2.15-14.11,1.65-41.11,1.56-45.13-1.61-80.18,1-161.51-.19-242.14,1.3-12.3,3.42-16.32,20.29-17.85,27.07-2.48,56.69-2.53,84.22-3.96,155.64-8.12,311.39-15.69,467.13-21.4,6.87-.24,14.12-2.39,21.38,0,3.89,1.27,9.22,5.25,10.11,8.46l.3,301.22c-1.35,5.83,10.76,17.62,2.8,17.43-10.23-.24,17.6,14.29-1.69,6.78ZM766.99,235.26h37.76v57.86h-37.76v-57.86ZM804.75,401.77v-.02c-.09,1.02-1.08,2.73-.56,4.43-9.55,5.71-22.12,5.71-33.49,7.86-1.93-4.11-2.54-5.29.07-9.28l-.09-48.69c10,.69,22-3.23,31.93-2.01.68.09,2.14,2.36,2.14,2.5,0,14.6,1.25,30.84,0,45.2ZM804.75,173.6v.02c-10.85-.63-21.73-1.26-32.35-3-.02-17.66-.44-35.64.21-53.13.05-1.2.37-1.54,1.7-2.2,5.87,1.08,29.81,3.04,31.51,7.44l-1.07,50.88ZM850.06,288.99h-33.98v-53.73h33.98v53.73ZM914.24,287.34c-6.01.38-12.95-.52-18.82,0l.02-.02c-.47.05-1.68,1.38-3.24.98-.12-3.72.09-7.47,0-11.19-.28-9.86-1.68-20.42-.91-30.3.23-3.04,1.63-6.16.82-9.42.49-2.34,18.47.26,22.13-.61v50.56ZM914.24,137.61v46.67l-22.03-1.95c-1.44-4.14.23-8.05.07-12.16-.35-8.45-.93-16.91-1.4-25.24-.09-1.75,0-11,2.05-11.26,7.38.05,14.02,3.18,21.31,3.94h0Z" fill="#a374ff" stroke="#ffb235" stroke-miterlimit="10" stroke-width="4"/></g></svg>