<?xml version="1.0" encoding="UTF-8"?><svg id="Layer_2" xmlns="http://www.w3.org/2000/svg" viewBox="0 0 940.06 596.93"><g id="Layer_2-2"><path d="M657.43,9.24,692.02,1.98c22.27,3.13,25.74,76.57,16.01,71.5,7.47,8.2-21.61-58.25-20.52-56.88.62.81,2.16,1.32,2.68,2.08.02.03.05.07.07.1,2.65,3.79,2.53,9.11.06,13.06l-3.61,5.77c-1.58,2.52-4,4.25-6.74,4.82-86.34,17.89-171.98,37.65-258.28,55.9-97.98,20.71-197.63,43.12-296.27,62.02-2.51.48-5.03-.17-7.27-1.5-2.95-1.75-8.01-2.72-10.57-3.87-1.05-.48-1.17-1.82-1.84-2.13-1.82-.86-6.48.27-8.92-3.08-3.22-4.42,1.81-10.25,6.86-13.08,1.54-.86,3.86-.76,4.66-1.24,1.26-.75.64-3.08,2.59-3.89,6.85-2.91,21.89-6.72,30.18-8.91,2.36-.61,5.07.2,4.21-2.51.94.04,1.91-.1,2.82-.05.15,0,.88.91,2.2.98,1.09.05,12.73-3,13.21-3.38.5-.42.16-1.27.15-1.84.86-.14,1.96.09,2.82-.05,1.27-.2,3.11.05,4.78-.17,2.42-.31,7.93-.9,10.03-2.33,1.52-1.03,3.17-1.82,4.95-1.78,2.01.04,3.97.08,4.27-.09l4.22-.07-.03-1.98c.89-.02,1.8-.07,2.66-.05.12,0,.68.9,1.93.89,1.74-.02,5.04-.55,6.01-1.68,1.16-1.36,2.89-1.98,4.56-2.36s3.22-.73,4.8-1.11l2.67.95-.03-1.98c94.32-21.69,189.3-42.17,284.05-62.9,15.42-3.38,68.96-18.05,80.54-17.75,1.3.03,4.41,2.26,7.08-1.12.94-.05,1.91.02,2.82-.05,4.17-.3,9.67-2.04,13.83-2.98,2.49-.56,5.4.68,4.52-2.3,2.03-.46,4.04-.71,5.66-1.09l-.08-.02c5.51,3.1,9.66-.79,13.84-1.95M370.43,86.16c-14.48.78-45.11,9.21-62.77,11.97-1.12.18-.56,1.79-1.8,2.03-6.93,1.33-14.22,2.83-21.28,4.12-49.26,9.14-111.08,23.08-162.67,35.46-2.16.52-13.86,3.16-14.28,3.61-1.2,1.25-.48,7.34,3.51,6.84l290.91-61.86c1.5-.26,2.68-1.44,3.87-1.78,8.58-1.46,17.3-2.97,25.77-4.68,28.69-5.83,56.19-12.27,85.07-17.04,1.07-.18.59-1.65,1.88-1.99,45.68-12.31,98.94-19.38,145.72-31.04,10.58-2.64,15.66-3.49,9.22-12.4l-303.11,66.77-.05-.02Z" fill="#a374ff" stroke="#e92e00" stroke-miterlimit="10" stroke-width="4"/><polygon points="404.14 107.92 540.22 80.44 542.58 86.45 406.5 113.93 404.14 107.92" fill="#a374ff" stroke="#e92e00" stroke-miterlimit="10" stroke-width="4"/><path d="M145.39,119.75c.85,2.71-1.86,1.9-4.22,2.51-8.29,2.17-23.31,5.99-30.2,8.91-1.92.82-1.33,3.14-2.59,3.89-.78.48-3.1.37-4.67,1.24-5.05,2.83-10.09,8.66-6.87,13.08,2.44,3.35,7.11,2.22,8.93,3.08.67.31.76,1.66,1.84,2.13,3.56,1.58,11.96,2.85,12.79,6.33-3.15.61-7.33,2.26-10.93,2.93-3.2.57-17.27,2.84-19.29,2.47-3.62-.69-2.25-6.06-2.41-8.34-.15-1.92,1.42-4.02-2.9-3.39-.16-5.63-1.27-14.17-.27-19.37.14-.82.26-1.54,1.37-2.04l59.44-13.38-.03-.04Z" fill="#a374ff" stroke="#e92e00" stroke-miterlimit="10" stroke-width="4"/><polygon points="232.9 143.47 357.21 117.62 359.6 123.51 235.29 149.36 232.9 143.47" fill="#a374ff" stroke="#e92e00" stroke-miterlimit="10" stroke-width="4"/><path d="M212.53,154.35l-32.51,5.54c.29-1.29-.72-4.03.08-4.87.85-.89,27.15-6.29,29.14-6.39,4.15-.23,3.42,3.86,3.29,5.72Z" fill="#a374ff" stroke="#e92e00" stroke-miterlimit="10" stroke-width="4"/><path d="M583.49,71.63l1.51,5.93c-4.46-.26-24.87,5.79-26.9,4.43.08-1.68-.85-4.51,1.3-5.51.86-.41,17.53-4.27,19.44-4.54,1.55-.22,3.08-.39,4.65-.29v-.02Z" fill="#a374ff" stroke="#e92e00" stroke-miterlimit="10" stroke-width="4"/><path d="M610.54,16.55c.88,2.98-2.04,1.75-4.52,2.3-4.16.94-9.66,2.68-13.83,2.98-.85-2.71,1.83-1.92,4.22-2.51,4.92-1.26,9.6-1.73,14.17-2.75l-.03-.02Z" fill="#a374ff" stroke="#e92e00" stroke-miterlimit="10" stroke-width="4"/><path d="M163.79,116c0,.57.35,1.42-.15,1.84-.45.38-12.1,3.43-13.22,3.38-1.3-.07-2.03-.98-2.2-.98,4.17-1.84,10.59-3.48,15.55-4.24h.03Z" fill="#a374ff" stroke="#e92e00" stroke-miterlimit="10" stroke-width="4"/><path d="M182.15,111.18c1.18,2.74-7.54,3.66-10.76,4.07-1.65.21-3.49-.03-4.78.17,4.05-1.71,10.79-3.66,15.55-4.24Z" fill="#a374ff" stroke="#e92e00" stroke-miterlimit="10" stroke-width="4"/><path d="M204.78,106.82c1.43,2.04-3.95,2.99-6.42,3.01-1.32.02-1.92-.88-2.05-.89l1.01-.78c2.46-.49,5.03-.82,7.47-1.34Z" fill="#a374ff" stroke="#e92e00" stroke-miterlimit="10" stroke-width="4"/><path d="M589.33,21.86c-2.68,3.38-5.79,1.15-7.09,1.12,2.2-2.73,6.53-1.07,7.09-1.12Z" fill="#a374ff" stroke="#e92e00" stroke-miterlimit="10" stroke-width="4"/><path d="M217.37,103.63l.03,1.98-2.84-.95c.15-.04.98-.62,2.81-1.05v.02Z" fill="#a374ff" stroke="#e92e00" stroke-miterlimit="10" stroke-width="4"/><path d="M194.77,109.39l.03,1.98-2.83.05c.81-.46-2.24-1.89,2.8-2.03Z" fill="#a374ff" stroke="#e92e00" stroke-miterlimit="10" stroke-width="4"/><path d="M370.43,86.16c6.84-.37,15.55-2.12,23.02-3.6,5.61-1.11,21.02-5.74,25.64-5.21,1.05.12.73,1.54,1.17,1.76,2.26,1.21,8.02-1.6,6.85,2.13-7.58.79-14.46,3.42-21.21,5.33-1.19.34-2.37,1.52-3.87,1.78l-290.91,61.86c-3.99.5-4.71-5.59-3.51-6.84.43-.44,12.13-3.09,14.28-3.61,51.61-12.39,113.4-26.32,162.67-35.46,7.06-1.31,14.37-2.79,21.28-4.12,1.27-.24.69-1.85,1.8-2.03,17.66-2.74,48.26-11.19,62.77-11.97l.03-.02Z" fill="#a374ff" stroke="#e92e00" stroke-miterlimit="10" stroke-width="4"/><path d="M370.43,86.16L673.54,19.38c6.44,8.93,1.36,9.76-9.22,12.4-46.78,11.67-100.04,18.72-145.72,31.04-1.27.34-.81,1.81-1.88,1.99-28.85,4.77-56.39,11.2-85.07,17.04-8.48,1.73-17.19,3.21-25.77,4.68,6.72-1.91,13.63-4.54,21.21-5.33,1.17-3.71-4.57-.92-6.85-2.13-.44-.22-.1-1.64-1.17-1.76-4.62-.51-20.03,4.1-25.64,5.21-7.46,1.48-16.17,3.23-23.02,3.6l.03.04Z" fill="#a374ff" stroke="#e92e00" stroke-miterlimit="10" stroke-width="4"/><path d="M932.07,582.06c-2.97-8-20.34-50.09-20.04-54.25l-28.74-72.26c-1.44-2.04-2.46-5.26-4.29-6.97-1.69-1.59-8.47-3.5-8.33-4.23l-1.31-343.04c-.49-.23-.82-2.76-2.22-3.18l-75.97-42.92c-.44-.06-1.24.09-1.31,0l-2.6-1.05c-.23.04-2.76-1.03-4.49-1.05-20.07-.3-39.98,6.83-59.36,10.48l-.12-44.27c-.44-1.2-23.49-11.01-24.59-10.07-.16,1.89.26,3.86,0,5.76-1.28,9.88-.61,21.26-.91,31.5-.19,6.36,4.48,7.13-5.9,10.03-6.04,1.69-12.64,1.71-17.91,2.85l.05-.11c-80.71,17.48-160.76,37.11-241.42,55.06-91.6,20.38-184.86,42.59-277.04,60.89-2.87.58-6.74,2.27-10.05,2.89-2.92.56-15.84,2.7-17.7,2.25-3.31-.79-1.96-6.41-2.1-8.81-.12-2.03,1.33-4.18-2.61-3.62.05,4.48-.14,9.02.09,13.5,7.81.64,12.88,5.06,21.04,4.03,14.67-1.86,33.38-9.77,48.49-11.18,1.49-.13,2.96-.15,4.43-.09l-.09,5.16c-60.16,12.77-120.74,24.3-180.52,38.22-18.26,6.09-14.02,14.03-14.3,27.68v2.96s.78,3.48,0,5.22v4.16c.32,45.74,3.04,131.84,3.65,150.68h.94c.39,1.91-.14,3.02-.83,3.36,0,.23.01.35.01.35v12.14c-.07,24.55.31,49.13.07,73.68-.02,2.46-1.5,4.57-1.39,6.94.13,2.88,2.17,6.53,1.57,9.85,2.14,3.78,5.48,6.28,9.46,8.05,7.23-.12,14.46-1.54,21.58-2.09l-12.59,4.87c6.19,1.34,12.87,2.03,18.73,3.37,23.11,5.27,43.38,9.26,64.34,18.4,3.62,1.58,22.84,8.88,22.84,10.68v24.24c1.97.2,3.96.13,5.95-.32,4.37-.99,6.99,3.71,6.06,7.14,7.3-1.53,14.63-2.95,21.97-4.2v-12.39h-.02c.92-.82,6.88,3.2,8.17,3.98,3.02,1.81,5.92,3.8,8.82,5.8,6.14-.85,12.3-1.58,18.47-2.21l-32.89-21.2c-3.63-4.59.86-11.1.07-16.23,5.99,1.33,15.07-3.22,19.54.47l17.42,30.84,1.5,5.59c.75-.07,1.49-.14,2.24-.2,2.42-.2,4.77,2.24,4.99,4.79,10.33-.1,20.66-.34,30.99-.7v-37.53h.02c2.03-.22,3.56.77,5.1,1.63,17.12,9.55,32.73,21.22,49.45,31.18.68.51,1.25,1.09,1.73,1.72,12.17-.85,24.33-1.81,36.48-2.85-.32-.14-.64-.29-1-.44-10.46-4.38-20.87-12.36-31.47-16.95l-8.04-26.93c11.02-1.27,22.08-1.54,33.12-2.08,3.05-.17,9.6-2.6,11.76-.04l-.73,46.12c15.21-1.32,30.41-2.74,45.6-4.22,4.53-.44,9.06-.88,13.59-1.33l25.49-22.32,3.89-1.55v20.96c19.19-1.91,38.4-3.79,57.62-5.53-4.23-2.21-8.55-5-12.31-6.57v-34.94l49.31-3.13c-.56,10.09-1.28,20.11-1.96,30.26l-17.95,12.89c18.16-1.54,36.33-2.9,54.51-3.98l50.12-32.96,68.13,29.77c.5.41.84.94,1.07,1.55,11.43.48,22.87,1.15,34.3,2.09,11.67.96,23.33,2.19,34.96,3.69-.07-.03-.14-.06-.19-.09-3.21-1.74-13.14-18.05-10.43-20.28,3.4-.43,4.64.73,6.29,2.77,1.76,2.18,10.47,15.13,10.75,18.45,7.74,1.07,15.46,2.29,23.17,3.63v-38.29h-.02c2.12-.36,2.66.54,3.89,1.57,4.57,3.78,10.67,10.75,14.84,15.2,5.24,5.56,23.62,24.32,26.02,29.15.12.23.26.62.4,1.08,5.9,1.14,11.8,2.25,17.71,3.33.57-3.86,1.28-7.56-1.69-11.2l-57.93-61.92-.28-11.78,31.05-2v.02s40.11,88.89,40.11,88.89c6.03,1.04,12.08,2.03,18.14,2.96-3.33-8.13-6.84-16.24-10.48-24.27h-.02c-1.12-2.49-1.56-5.04-2.59-7.3-4.52-9.92-9.88-20.35-14.58-30.52-4.26-9.18-12.23-21.78-15-30.71-.35-1.12-.33-2.27-.26-3.43,9.5-1.57,19.22-.36,28.58-2.6,3.91-5.04,6.61-10.62,10.13-15.84,1.42-2.12,3-5.3,5.4-6.59l51.52,129.48c5.23.89,10.45,1.82,15.65,2.8-1.61-4.08-3.27-8.15-4.8-12.24ZM833.38,203.96c3.77-2.15,9.43-3,12.95-6.8,3.54,7.02-3.35,6.42-6.75,10.73-2.66,3.35-3.26,9.36-4.91,13.28l-.02-.02c-5.61-2.32-5.4-14.79-1.26-17.19ZM828.57,332.83c-1.09,2.64-5.85,7.75-9.81,6.2-1.7-1.35,4.87-9.4,6.43-10.8,1.28-1.14,2.35-.6,3.94-.66v-.02c.14,1.8.16,3.54-.56,5.28ZM830.78,357.83c.56.45-.77,7.53-1.54,8.15-.65.52-6.24,1.52-7.57.77-5.24-2.9,3.54-10.64,9.11-8.91ZM557.83,94.37c.77-.39,16.09-4.18,17.84-4.42,1.44-.21,2.82-.34,4.26-.22v-.02l1.3,6.25c-4.1-.36-22.83,5.64-24.67,4.18.12-1.74-.72-4.74,1.26-5.77ZM541.14,98.21l2.07,6.35-124.85,26.44-2.07-6.35,124.85-26.44ZM373.25,134.03l2.12,6.24-114.06,24.94-2.12-6.24,114.06-24.94ZM210.71,170.17c.79-.92,24.92-6.12,26.74-6.2,3.8-.17,3.07,4.12,2.93,6.07l-29.81,5.24c.3-1.37-.58-4.27.14-5.11ZM45.36,518.45c-9.09.65-21.94,3.45-30.73,1.88l.37-27.83c5.1-34.92,2.39-72.52,2.57-108.02.23-40.25,1.11-80.35,0-119.93-.19-6.71-.95-16.61-.05-22.93.26-1.73,3.85-8.78,5.22-10.09,1.02-.99,4.08-2.46,5.59-3.04,9.28-3.52,26.25-6.54,36.78-8.86,31.35-6.88,63.19-12.71,94.62-19.48,198.35-42.77,396.83-85.31,596.1-125.22,7.58-.5,18.2,1.72,18.83,8.86.26,38.11-.42,76.21-.09,114.32.35,40.05,2.06,80.98,1.41,121.51-.32,19.24-.26,38.18-.07,57.59h-.05c.16,16.57,2.06,38.67.02,54.55-.35,2.83-2.02,5.05-2.6,7.77.28-.17,1.6.3,2.32-.17,1.76-1.16,3.04-11.39,2.88-13.83,2.23-1.64,2.48-8.5,4.52-8.84,5.57-.93.9,12.88,8.37,12.45,4.17-5.61,1.69-11.5,3.9-17.65,2.6.07,2.57-.69,2.23,1.34-.56,3.26.6,5.41.44,8.56-.12,2.26-1.23,4.14-1.39,6.19-.81,10.09.51,18.31-7.7,27.03-9.69,10.29-19.55,6.88-32.98,7.76-24.14,1.57-48.21,4.34-72.31,6.26-212.72,16.93-425.38,34.56-638.22,49.81ZM292.31,551.84c-1.98.37-2.79-.64-4.26-1.25-6.03-2.55-16.26-7.51-21.62-10.79-1.77-1.09-4.29-2.6-3.96-4.64l24.69-1.63,5.15,18.31h0ZM364.71,572.7v-44.85c7.36.21,16.54-2.42,23.73-.82.93.21,14.79,7.28,15.86,8.11,1.02.79,2,1.31,2,2.62-.02,2.42-36.69,30.76-41.6,34.94ZM559.61,522.12c-5.96,4.42-13.49,7.92-18.84,13.01l-9.71,5.22c2.26-3.97-.07-21.1,2.52-22.49l29.91-1.5c.63,2.77-1.63,4.1-3.87,5.75ZM678.1,543.48l-59.67-25.04c1.79-2.04,5.45-5.86,8.43-6.25l51.24-3.13v34.42ZM841.16,485.08c-7.08-.24-14.32.32-21.41,0h0c-18.26-.82-32.73-10.04-49.96-14.08-11.83-2.77-17.93-.24-29.19.54l-503.44,34.42c179.96-13.91,359.79-29.88,539.68-42.71,20.66,5.86,40.37,14.16,61.21,19.68,2,.54,3.75-1.03,3.1,2.15ZM844.94,421.45c-5.57,1.07-6.31-1.7-8.73-3.11-6.89-4.01-10.2-5.36-14.63-11.5v.02c-4.4-6.12-6.89-12.58,4.5-13.59,6.57,3.56,16.84,3.99,18.59,11.23.28,1.24.14,4.7.28,6.52.3,3.71,1.14,6.61,0,10.43ZM852.84,381.77l-6.46-8.85c-1.37-2.94-6.5-3.03-7.69-3.73-1.3-.77,1.35-6.59,1.19-8.26,11.12.97,15.53,13.44,12.96,20.84ZM852.2,288.51c-.63,1.42-1.89,2.4-2.66,3.6l.02.04c-3.61,5.75-7.43,10.32-16.96,7.88-6.31-1.61-12.02-12.94-12.79-17.88-.37-2.4.05-4.81-.09-7.23-.19-3.31-2.68-4.1.68-7.77,2.12-2.34,6.8-3.99,5.54.28-1.49,5.02-3.59,7.62-2.1,13.54.72,2.85,6.52,12.13,9.15,14.01,5.66,4.01,9.67-1.97,15.23-2.85.05-6.48,4.54-15.07-.61-20.88-1.47-1.67-4.94-.92-7.17-1.03v5.22c-1.05-.11-3.7.17-3.89,0-.56-.54-.12-12.02,0-14.1.26-4.46,1.84-8.58,1.37-13.59-.47-5.02-1.12-7.19-8.27-5.51-2.1.49-6.03,6.14-7.31,2.36-2.24-6.67,9.2-11.5,16.23-7.85,10.34,5.39.12,26.98,1.86,28.22,17.1-1.25,15.93,14.02,11.74,23.54Z" fill="#a374ff" stroke="#e92e00" stroke-miterlimit="10" stroke-width="4"/><path d="M109.94,522.27l-60.75,4.57c-1.21-.15-1.53-.8-1.91-1.55-2.47-4.69-3.9-13.18-5.4-18.61,4.31-.66,2.2-2.21,1.78-4.09-.51-2.23-3.4-6.96-.13-8.68,1.82-.95,15.94-2.89,19.17-3.28,3.64-.42,8.12-.05,11.31-.39.21,3.57-7.44,7.24-10.39,9.79-.89.76-.59,2.08-1.14,2.57-1.49,1.35-6.28,1.64-7.64,5.55-1.79,5.17,4.73,9.27,10.39,10.5,1.75.37,3.94-.41,4.82-.18,1.43.35,1.54,2.75,3.62,2.97,7.44.78,22.91.04,31.48-.3,2.43-.11,4.79-1.67,4.77,1.17v-.04Z" fill="#a374ff" stroke="#e92e00" stroke-miterlimit="10" stroke-width="4"/><path d="M542.97,440.33c-1.48.56-2.99.84-4.54,1.08-1.9.3-18.97,1.48-19.91,1.34-2.35-.33-2.29-3.31-2.85-4.89,1.55-1.89,22.83-2.07,27.02-3.62l.29,6.11v-.02Z" fill="#a374ff" stroke="#e92e00" stroke-miterlimit="10" stroke-width="4"/><path d="M584.96,485.1c-4.67.36-9.28,1.27-14.35,1.51-2.45.13-4.79,1.67-4.77-1.17,4.08-.93,9.84-.88,14.1-1.19,2.54-.19,4.97-2.23,5,.88l.02-.02Z" fill="#a374ff" stroke="#e92e00" stroke-miterlimit="10" stroke-width="4"/><path d="M128.6,520.54c-4.96.72-11.58,1.02-16.11.49.17-.05.6-1.14,1.82-1.58,1.06-.38,13.08-.86,13.63-.63.6.25.52,1.17.68,1.71h-.02Z" fill="#a374ff" stroke="#e92e00" stroke-miterlimit="10" stroke-width="4"/><path d="M131.49,520.26c1.3-.19,2.98-.95,4.62-1.24,3.21-.55,11.81-2.22,11.48.75-4.71.83-11.73.94-16.11.49Z" fill="#a374ff" stroke="#e92e00" stroke-miterlimit="10" stroke-width="4"/><path d="M162.97,518.23l-1.19-.46c.12-.05.43-1.09,1.7-1.45,2.37-.7,7.79-1.37,7.02,1.01-2.48.21-5.03.65-7.53.9Z" fill="#a374ff" stroke="#e92e00" stroke-miterlimit="10" stroke-width="4"/><path d="M556,487.24c1.23-.41,3.56-3.45,7.1-1-.55.12-4.2,2.97-7.1,1Z" fill="#a374ff" stroke="#e92e00" stroke-miterlimit="10" stroke-width="4"/><path d="M183.48,516.72c-1.87.13-2.84-.19-2.99-.18l2.44-1.74.55,1.9v.02Z" fill="#a374ff" stroke="#e92e00" stroke-miterlimit="10" stroke-width="4"/><path d="M156.92,516.68l2.72-.78.55,1.9c-4.86,1.34-2.36-.92-3.27-1.12Z" fill="#a374ff" stroke="#e92e00" stroke-miterlimit="10" stroke-width="4"/><path d="M603.97,482.07c-4.34.11-9.44-2.39-13.8,2.18l.07-.04c-1.66.11-3.66.46-5.73.61-.03-3.11-2.46-1.07-5-.88-4.25.31-10.02.26-14.09,1.19-.9.2-1.8.55-2.71.78-3.55-2.45-5.87.59-7.1,1-10.99,3.67-66.47,5.29-82.21,6.56-96.67,7.85-193.49,16.01-290.03,22.83l-.55-1.9-2.28,1.69c-1.62.1-3.27.22-4.92.34s-3.54.04-5.05-.92c-1.25-.8-4.56-.34-6.24.15-1.19.36-1.47,1.39-1.58,1.42-.82.27-1.7.49-2.56.73l-.55-1.9-4.05,1.17c-.34-.07-2.19.54-4.11,1.16-1.7.55-3.51.29-5.26-.26-2.43-.76-7.87.29-10.27.7-1.67.28-3.35,1.05-4.62,1.23-.87.12-1.85.66-2.71.78-.16-.55-.08-1.46-.68-1.71-.57-.23-12.59.26-13.62.63-1.25.45-1.67,1.54-1.82,1.58-.86.32-1.82.47-2.71.78.02-2.84-2.33-1.28-4.76-1.17-8.57.33-24.06,1.08-31.46.3-2.1-.21-2.19-2.62-3.62-2.97-.91-.22-3.1.56-4.82.18-5.66-1.23-12.17-5.33-10.38-10.5,1.36-3.91,6.15-4.19,7.64-5.55.55-.49.27-1.8,1.14-2.57,2.11-1.85,6.67-4.25,8.98-6.79,1.76-1.93,3.97-3.28,6.52-3.55,99.86-10.75,201.71-18.43,301.46-27.24,87.87-7.77,175.55-13.88,263.34-22,2.78-.26,5.61.69,7.85,2.64l5.14,4.47c3.51,3.05,5.18,8.11,3.75,12.5-.01.04-.03.08-.04.12-.28.88-1.59,1.81-1.95,2.77-.64,1.63-4.38-27.82-9.13-17.79,7.82-7.69,38.1,20.95,17.72,30.45M335.01,488.67l309.4-24.69c3.56-10.4-1.55-9.74-12.44-9.17-48.15,2.51-101.15,11.31-148.43,12.89-1.34.05-1.31-1.5-2.38-1.36-29.01,3.88-57.2,5.76-86.34,8.56-8.61.84-17.38,1.95-26.02,3.06-1.24.02-2.71-.76-4.22-.57l-296.29,25.83c-3.96.69-2.87,6.72-1.36,7.57.54.31,12.5-.58,14.71-.72,52.95-3.22,116.15-7.96,165.93-13.61,7.13-.82,14.53-1.52,21.55-2.27,1.26-.14,1.2,1.57,2.32,1.41,17.69-2.52,49.45-3.4,63.52-6.89l.04-.03Z" fill="#a374ff" stroke="#e92e00" stroke-miterlimit="10" stroke-width="4"/><polygon points="361.36 451.6 499.52 438.12 499.02 444.56 360.85 458.04 361.36 451.6" fill="#a374ff" stroke="#e92e00" stroke-miterlimit="10" stroke-width="4"/><polygon points="187.26 467.73 313.69 456.14 313.13 462.48 186.69 474.07 187.26 467.73" fill="#a374ff" stroke="#e92e00" stroke-miterlimit="10" stroke-width="4"/><path d="M162.56,476.05c-1.93.48-28.66,3-29.73,2.4-1.01-.56-.85-3.48-1.5-4.63l32.71-4.2c.66,1.74,2.56,5.44-1.47,6.43Z" fill="#a374ff" stroke="#e92e00" stroke-miterlimit="10" stroke-width="4"/><path d="M334.94,488.69c-14.1,3.49-45.84,4.35-63.52,6.89-1.12.16-1.03-1.56-2.32-1.41-6.99.75-14.42,1.47-21.55,2.27-49.78,5.65-112.95,10.38-165.93,13.61-2.21.13-14.18,1.01-14.71.72-1.52-.84-2.6-6.87,1.36-7.57l296.29-25.83c1.51-.19,2.98.59,4.22.57,7.01-.14,14.37.36,21.84-1.1,2.21,3.22-4.13,2.22-5.93,4.04-.35.34.36,1.6-.6,2.03-4.26,1.85-20.35,1.93-26.04,2.51-7.57.76-16.41,1.63-23.06,3.28h-.03Z" fill="#a374ff" stroke="#e92e00" stroke-miterlimit="10" stroke-width="4"/><path d="M334.95,488.74c6.65-1.65,15.49-2.52,23.06-3.28,5.69-.58,21.78-.67,26.04-2.51.99-.43.25-1.69.6-2.03,1.83-1.82,8.13-.83,5.93-4.04-7.48,1.46-14.86.96-21.84,1.1,8.64-1.11,17.4-2.23,26.02-3.06,29.14-2.8,57.35-4.69,86.34-8.56,1.07-.14,1.07,1.4,2.38,1.36,47.29-1.56,100.28-10.37,148.43-12.89,10.89-.57,15.99-1.25,12.44,9.17l-309.4,24.69v.04Z" fill="#a374ff" stroke="#e92e00" stroke-miterlimit="10" stroke-width="4"/><path d="M14.09,512.2c7.77-1.93,18.09-2.99,26.93-3.91,6.64-.7,25.41-.91,30.4-3.04,1.16-.5.31-1.93.72-2.33,2.15-2.1,9.5-1.01,6.95-4.67-8.73,1.72-17.34,1.2-25.49,1.4,10.09-1.33,20.32-2.67,30.38-3.67,34.02-3.4,66.94-5.75,100.79-10.37,1.25-.17,1.24,1.6,2.77,1.54,55.18-2.09,117.07-12.55,173.27-15.74,12.71-.72,18.67-1.54,32.32,8.48l-361.15,30.33-17.88,1.99Z" fill="#a374ff" stroke="#e92e00" stroke-miterlimit="10" stroke-width="4"/></g></svg>