<?xml version="1.0" encoding="UTF-8"?><svg id="Layer_2" xmlns="http://www.w3.org/2000/svg" viewBox="0 0 459.64 163.05"><g id="Layer_2-2"><path d="M457.78,47.15c-.53-9.52-1.51-19.1-2.79-28.55-31.96,6.82-63.98,22.2-96.32,26.26.85,2.75-2,1.75-4.12,2.44-27.06,8.1-53.11,16.54-80.22,24.73-8.66,2.74-18.76,8.19-26.91,10.49-4.17,1.18-.47-1.19-5.51,1.84-1.77,1.07-12.97,5.1-13.84,4.47,2.72-9-.69-7.29,9.88-11.1,11.3-4.44,28.23-10.49,40.13-13.79,9.98-2.77,15.19-1.93,23.65-6.77,5.09-2.91,24.97-6.77,31.93-8.38,8.79-1.88,13.86-5.05,22.2-7.42,2.12-.24,4.81.79,5.39.49,2.44-1.28-.5-1.03,5.76-2.84,1.95-.56,2.59-1.89,2.77-1.95l-2.77-2.93c-76.08,18.22-152.11,42.87-220.85,74.83-4.12,1.97-9.78,6.91-13.99.91,60.97-28.98,123.42-50.02,191.76-67.92l1.4-2.93c-2.12.63-16.04,5.33-16.66,4.88-.84-5.99-1.08-11.93-1.23-17.94-.6-.43-1.21-1.04-1.59-1.65-.96,3.94,2.35,21.31-2.26,21.39-32.81,7.81-64.18,19.06-96.33,27.52-.22-1.25.3-2.75,0-3.91-4.83-11.73-.94-24.24-1.4-36.15-1-10.53-1.48-21.47-1.4-32.24-4.56-2.63-2.5,7.67-2.77,9.77.49,21.58.05,42.5-.17,63.95-40.94,14.46-89.41,36.44-124.83,58.16-2.23,1.86-1.45,3.51-2.65,4.86-1.08,1.21-7.52,3.43-9.56,4.81-2.13,1.45-13.65,12.99-17.03,10.56-1.23-5.32,1.15-10.8,1.42-15.78.64-12.2-.17-24.75-.07-37,.09-4.26-.66-21.92,1.43-25.36-3.73-19.63.45-41.38-1.35-61.45-.18-4.25-3.21-7.85-.07-12.42-4.33-.47-2.32.72-2.78,2.51-2.78,13.22-1.07,27.04-1.48,40.42-14.84-.27-29.14,3.89-44.02,4v20.19l44.26-7.77c-.63,28.69,2.63,60.63,0,88.98-.18,1.88-.92,5.86-1.44,7.63-.26.87-3.97.42-2.87,2.57h193.4l-.05-50.89c7.09-2.81,35.92-19.39,41.95-18.94,23.75,8.12,11.14,36.62,13.29,54.8.15,4.96,2.48,10.21.07,15.03h44.2c.62-2.57-2.88-3.8-2.88-6.28.02-1.71,1.41-3.67,1.56-5.81.42-6.3-2.68-13.51-2.63-19.49.02-2.34,2.28-5.46,1.19-8.27,8.34-.14,21.36.13,29.08,1.41,3.12.73,4.74,3.4,8.21,3.47.57,2.08-4.02,3.02-2.13,4.87,1.09,1.06,9.27,2.93,10.93,2.71,4.31-.58,7.56-6.98,6.22-9.93-.62-1.33-6.52-1.76-3.99-3.49,5.59-.33,19.06.14,25.61-.07,2.43-.02,10.83-3.93,14.43-3.84v19.93c10.22,6.07,8.24,14.85,8.28,24.8l22.06-74.09c-6.68-3.3-7.12.71-11.46-1.69-3.97-2.92-.82-5.76-.82-8.31-4.75-7.75-.73-21.09.15-30.12.69-4.69,3.4-10.2,11.04-10.21-.87,2.7,3.5,5.37,3.82,7.42-2.46,10.09,1.05,21.67.51,32l6.6-22.16c-.13-1.87-1.16-3.4-1.34-5.25ZM44.77,55.54c-10.75.54-20.97,4.05-31.79,3.89-2.84-4.26,31.54-6.92,31.79-6.79v-.02c.27.21-.17,2.13,0,2.91ZM362.54,96.89c-.22,1.79-1.31,3.46-1.51,5.25-9.72.75-19.15.03-28.92.07.42-7.74-2.17-16.01-1.44-23.86.22-3.46,2.16-6.91,1.69-10.47,2.58-2.74,11.94-8.59,16.33-7.02.79.28,8.14,6.48,8.91,7.38,4.79,5.67,5.76,21.82,4.94,28.64ZM408.4,94.34c-.69.47-3.97-.26-5.39.12.07,3.07.5,3.18-4.19,2.86v-3.89h-6.92c1.52-7.17-1.6-14.89,1.39-21.87.3-5.72-1.29-14.35,0-19.46.57-2.22,4.17-2.98,4.17-5.34,15.3,6.61,11.75,14.75,12.41,27.73.1,1.88,1.54,3.7,1.54,5.81,0,1.64-2.28,13.54-3,14.03Z" fill="#00f4c0" stroke="#58005f" stroke-miterlimit="10" stroke-width="1.03"/></g></svg>