<?xml version="1.0" encoding="UTF-8"?>
<svg id="Layer_2" data-name="Layer 2" xmlns="http://www.w3.org/2000/svg" viewBox="0 0 218.92 113.8">
  <defs>
    <style>
      .cls-1 {
        stroke-width: .7px;
      }

      .cls-1, .cls-2, .cls-3 {
        fill: none;
        stroke: #0c8040;
        stroke-miterlimit: 10;
      }

      .cls-2 {
        stroke-width: 1.1px;
      }

      .cls-3 {
        stroke-width: .8px;
      }
    </style>
  </defs>
  <g id="Layer_1-2" data-name="Layer 1">
    <g>
      <path class="cls-1" d="M74.42,51.1c0,.8.7,2,.9,2.1,1.5,1,7.3-1,9.3-1.2"/>
      <path class="cls-1" d="M107.52,37.8v.2c.2,1.7.5,6.3-1,7.9s-7.7,2.1-10.4,2.6h-.3v45.7"/>
      <path class="cls-1" d="M109.72,91.5v-54.9"/>
      <line class="cls-1" x1="88.02" y1="94.6" x2="88.02" y2="50.5"/>
      <path class="cls-1" d="M56.02,101.1v-44.3c-.2-1.9-.5-6,0-7.6s5.5-2.2,7.4-2.2c.9.2.9,3.8.8,4.6-.3,4.8-.3,9.9-.3,15,0,8.4.4,16.9.3,25.3"/>
      <polyline class="cls-1" points="62.12 49.7 62.12 49.8 62.12 92.9 62.12 93"/>
      <path class="cls-1" d="M107.52,37.8h0c-.2-1.7-2.3-.7-4.3-.4-7.8,1.2-15.9,2.7-21.5,4.6-1.1.3-6.4.5-6.4,1.4h0c0,1.9-.2,4.7,0,6.6h0v.6h-.6c-.3,0-.4.3-.3.6h0c.1.8.7,1.8.9,1.8,1.5,1,7.4-1,9.3-1.2v.3l.5,45.8v.1c.1.4.3.5.7.6,1.1.3,7-.4,8.1-1,.2,0,.3-.2.5-.3,1.1-.6,1.5-2.1,1.7-3.5v-45.5c2.7-.5,8.9-1.1,10.3-2.6s1.2-6,1-7.8l.1-.1ZM91.52,93.1l-3.1.9,3.1-1.2v.3ZM103.62,39.7l-13,2.9-12.1,3c-.5.5-1.4,2.8-.6,3.4l7-1.2h.2l-6.9,1.2c-.1,0-.3,0-.3-.1h-.8c-1.4,0-.4-2.7.3-3.4l13.2-3,13-3.2v.4Z"/>
      <path class="cls-1" d="M77.32,91.1h0v.9h0l-.1,3.4h0l-18.7,3.8h-.3v-49.4l4-.5v.4l-3.7.4h0l3.7-.4h.6v43c-.2-.2-.3-.3-.3-.4h0c0,.2-.5.4.3.8v-.4c.3.3.8.7,1,.7,2.2.7,13.1-2.9,13.6-2.3h-.1Z"/>
      <path class="cls-1" d="M129.92,53.4c.1-.3.2-.5.4-.8-.1.3-.2.6-.4.8Z"/>
      <path class="cls-1" d="M129.52,54.2c.1-.2.3-.5.4-.7-.3.6-.5,1.1-.9,1.6h0c-2.1,3.5-5.7,4.4-9.9,4.9v-16.6c.3-1,.4-1.7,6-2.1h.8c5,.3,5.7,7.1,3.9,11.9,0,.1,0,.3-.1.4,0,.2-.2.4-.3.6h.1Z"/>
      <path class="cls-1" d="M130.32,52.6c1.4-3.9,1.1-11.6-3.9-11.9,5,.3,5.7,7.1,3.9,11.9Z"/>
      <line class="cls-1" x1="88.02" y1="94.6" x2="88.02" y2="50.5"/>
      <polyline class="cls-1" points="62.12 92.9 62.12 49.8 62.12 49.7"/>
      <polyline class="cls-1" points="62.12 49.4 62.12 49.3 58.12 49.8 57.72 49.8 57.72 49.9 57.72 99.8"/>
      <path class="cls-1" d="M132.32,44.1c1.1,4,.4,8.5-.8,11.5,1.6-3.7,1.8-8,.8-11.5ZM126.22,60.6c1.7-.6,3.2-1.6,4.5-3.4h0c0-.2.2-.3.3-.5-.9,1.7-2.9,3-4.8,4v-.1ZM126.42,40.7c5,.4,5.3,8.1,3.9,11.9,1.7-4.8,1.1-11.7-3.9-11.9ZM129.52,54.2c-.1.3-.3.5-.4.8.3-.5.6-1,.9-1.6-.1.3-.3.5-.4.7h0l-.1.1ZM130.32,52.6c-.1.3-.2.6-.4.8.1-.3.2-.5.4-.8ZM117.12,60.7c.7,1.7,1.5,1.7,3.3,1.4-1.4.3-2.6.1-3.3-1.4ZM116.82,61.2c.7,1.7,1.5,1.7,3.3,1.4-1.4.3-2.6.1-3.3-1.4Z"/>
      <path class="cls-1" d="M130.02,53.2c0,.1,0,.3-.1.4-.1.3-.3.6-.5.9-.7,1.2-1.6,2.1-2.8,2.9,0,0-.1,0-.2.1-2,1.3-4.6,2.1-7.3,2.4v-16.6c0-.1.2-.3.3-.4,1.1-.8,4.6-1.5,5.7-1.7h.8c5,.4,5.3,8.1,3.9,11.9l.2.1Z"/>
      <polyline class="cls-1" points="62.72 49.8 62.72 49.7 62.42 49.7 62.12 49.7"/>
      <g>
        <path class="cls-3" d="M215.02.7c-2.2.2-9.1,1.8-9.5,4.1v72.4c0,1.3.5,3,2,3.1s7.8-1.1,8.8-1.4,2.1-1.2,2.2-2.3V2.6"/>
        <path class="cls-3" d="M204.52,53v-.6.6Z"/>
        <path class="cls-3" d="M218.52,2.4v74.4c0,1.1-1.2,2-2.1,2.3s-8,1.5-8.8,1.4c-1.5-.2-1.9-1.8-2-3.1V4.6c.4-2.3,7.4-3.9,9.6-4.2"/>
        <polygon class="cls-3" points="214.62 4.4 214.62 4.5 208.52 5.6 208.52 5.5 214.62 4.4"/>
        <polygon class="cls-3" points="214.62 4.5 214.62 75.2 208.52 75.8 208.52 5.6 214.62 4.5"/>
        <polygon class="cls-3" points="214.62 75.2 214.62 75.3 208.52 75.9 208.52 75.8 214.62 75.2"/>
        <g>
          <path class="cls-3" d="M186.92,39.6c-3.1-13.5-3-17.8-5.4-25.8s-1.2-3.9-3.3-3.9-10.5,2.2-11.8,2.8c-1.3.6-2.2,1.5-2.8,2.8l-14.2,71.6.6,1.2c1.1.7,8.8-.5,9.8-1.4,2-1.6,2.8-13.9,4.4-16.8.4-.6,8.6-1.8,10.2-2.1,1.6-.3,1.1.2,1.5,0,1.4-.2,3.5-2.3,4.9.4s2,12.3,3.9,14.2v.2c1.1,1.1,8.4,0,10-.6s1.6-1.2,1.6-2.4c-2.8-13.5-6.3-26.8-9.4-40.3v.1ZM192.72,79.7c-1.1,0-3.1.2-4.5,0-.8,0-1.4-.2-1.5-.6-1.3-3.7-1.4-9.7-3.2-13s-2.3-2.2-4-2h-.1c-3,.2-8,1.1-11.6,1.8-.4,0-.7.1-1,.2h-.3c-1.7.4-3.3.8-4.4,2.1l-.1.1c-.5.6-.9,1.3-1.2,2.1-1,3-1.7,11.4-3.2,13.5-.7,1.1-3.2.2-4.6,1l13.8-68.9c0-.4.2-.5.6-.7.8-.3,8.1-2,10.5-2.2h.7l14.5,66.3h-.3l-.1.3ZM169.72,22.8c-1.5,3.7-1,9.1-2.8,12.8-.3,6.5-3.5,13.7-4,20-.5,6.3,1.1,4.9,4.2,5.2,3.1.3,9-1.1,10.4-1.8,4.2-2.1,3.1-6.8,2.5-10.6-1.6-9.1-4-18.1-6-27.1-1.8-.2-3.5-.4-4.3,1.5h0Z"/>
          <path class="cls-3" d="M192.72,79.7h.3-.3ZM186.62,79.2c-1.3-3.7-1.4-9.7-3.2-13s-2.3-2.2-4-2c2.9-.2,3.1.5,3.9,2,1.8,3.3,1.8,9.3,3.2,13,.2.4.9.5,1.7.6-.8,0-1.4-.2-1.5-.6h-.1ZM180.02,48.4c-1.6-9.1-4-18.1-6-27.1-1.8-.2-3.5-.4-4.3,1.5-1.5,3.7-1,9.1-2.8,12.8-.3,6.5-3.5,13.7-4,20-.5,6.3,1.1,4.9,4.2,5.2,3.1.3,9-1.1,10.4-1.8,4.2-2.1,3.1-6.8,2.5-10.6h0ZM167.32,15.6c.8-.3,8.1-2,10.5-2.2-2.3.2-9.8,1.9-10.6,2.2-1,.4-.5.3-.6.7l-13.8,69h.1l13.8-68.9c0-.4.2-.5.6-.7v-.1ZM162.12,68.4c1.1-1.1,2.5-1.7,4.4-2.1-1.7.4-3.3.8-4.4,2.1Z"/>
          <path class="cls-3" d="M178.52,13.4h0l14.5,66.3h0l-14.5-66.3ZM167.72,66c-.4,0-.7.1-1,.2.4,0,.8-.1,1.1-.2,3.1-.6,8.6-1.6,11.6-1.8h-.1c-3,.2-8,1.1-11.6,1.8ZM178.22,13.3h.4-.4,0ZM157.52,84.2c-.7,1.1-3.2.2-4.6,1h0c1.2-1,3.2,1.1,4.7-1s2-9.8,3.2-13.5c.3-.9.7-1.6,1.1-2.1-.5.6-.9,1.3-1.2,2.1-1,3-1.7,11.4-3.2,13.5Z"/>
          <path class="cls-3" d="M178.42,13.4h-.7c-2.4.2-9.7,1.9-10.5,2.2-.4.2-.6.3-.6.7l-13.8,68.9c1.3-.9,3.9,0,4.6-1,1.5-2.1,2.2-10.5,3.2-13.5.3-.9.7-1.6,1.2-2.1,0,0,0-.1.1-.1,1.1-1.3,2.6-1.8,4.4-2.1h.3c.3,0,.7-.1,1-.2,3.6-.7,8.6-1.6,11.6-1.8h.1c1.7-.2,2.2-1.3,4,2s1.9,9.3,3.2,13c.2.3.8.5,1.5.6,1.4.1,3.4-.1,4.5,0h.3l-14.5-66.3.1-.3ZM177.52,59c-1.4.7-7.3,2.1-10.4,1.8-3.1-.3-4.7,1.1-4.2-5.2s3.7-13.5,4-20c1.8-3.7,1.3-9.1,2.8-12.8.8-1.9,2.5-1.7,4.3-1.5,2,9,4.4,18,6,27.1.6,3.8,1.7,8.5-2.5,10.6h0Z"/>
          <path class="cls-3" d="M172.42,25.7c-1.1.2-1,1.1-1.1,1.9-1.4,7.1-2.1,14.4-3.5,21.6s-3.1,7.9,0,8.2c3,.3,7.6-1.3,8.4-1.7s1.3-.4,1.4-1.4l-5-28.7h-.1l-.1.1Z"/>
          <path class="cls-3" d="M172.42,25.7l5,28.7c0,1-.6,1.1-1.4,1.4s-7.7,1.7-8.4,1.7c-2.9-.3-.3-6.2,0-8.2,1.4-7.1,2.1-14.5,3.5-21.6.2-.8,0-1.7,1.1-1.9h.1l.1-.1Z"/>
        </g>
      </g>
      <path class="cls-1" d="M85.22,48l-6.9,1.2c-.1,0-.3,0-.3-.1l7-1.2h.2v.1Z"/>
      <path class="cls-1" d="M75.32,50.5h-.6c-.3,0-.4.3-.3.6,0-.5,0-.8.4-.9h.5v.3h0Z"/>
      <path class="cls-1" d="M119.12,43.3c.3-1,.4-1.7,6-2.1h.8c5,.3,5.7,7.1,3.9,11.9,0,.1,0,.3-.1.4,0,.2-.2.4-.3.6.1-.2.3-.5.4-.7-.3.6-.5,1.1-.9,1.6h0c-2.1,3.5-5.7,4.4-9.9,4.9v-16.6h.1Z"/>
      <path class="cls-1" d="M130.32,52.6c-.1.3-.2.6-.4.8.1-.3.2-.5.4-.8Z"/>
      <path class="cls-1" d="M130.32,52.6c1.4-3.9,1.1-11.6-3.9-11.9,5,.3,5.7,7.1,3.9,11.9Z"/>
      <path class="cls-1" d="M131.02,56.6c0-.1.2-.2.2-.4-.2.3-.3.6-.5.9h0c-1.3,1.8-2.8,2.8-4.5,3.4,1.9-1,3.9-2.3,4.8-4h0v.1Z"/>
      <path class="cls-1" d="M131.42,55.6c1.2-2.9,1.9-7.5.8-11.5,1,3.5.8,7.7-.8,11.5Z"/>
      <path class="cls-1" d="M131.82,55c1.2-2.9,1.9-7.5.8-11.5,1,3.5.8,7.7-.8,11.5Z"/>
      <line class="cls-1" x1="96.12" y1="48.2" x2="96.12" y2="48"/>
      <path class="cls-1" d="M74.72,50.5v-.3c0-.2.2-.3.4-.3"/>
      <path class="cls-1" d="M136.02,33.5c6.4,4.8,5.2,18.7,1.8,25s-4.3,4.8-4.6,5.6c-.3,1.3.8,1.4,1,1.6v-.2c1.5,2.9,6.1,14.8,6.7,17.8s.3,3.2.3,3.4c-.2.4-1.2,1.1-1.6,1.5l-8.1.4c-2-2.9-5.9-19.2-7.8-20.4s-4.2,0-4.3,1.5c-.6,3.3,1,18.7-.3,20.5s-1,.6-1.6.8c-1,.3-5.7,1.2-6.4.9s-1-1-1-1v-54.9"/>
      <polyline class="cls-1" points="91.82 47.6 91.82 92.8 91.52 92.9"/>
      <path class="cls-1" d="M88.32,94.1v-44.1c0-.9-1.6-2.4-2.5-2.6"/>
      <path class="cls-1" d="M66.32,48.1c.9.2.9,3.8.8,4.6-.3,4.8-.3,9.9-.3,15,0,8.4.4,16.9.3,25.3,1.7.4,1.7-.5,2.4-1s.8-.3,1-.5h0c.4.8,1.8.5,2.6.4,1.8-.2,7.3-1.9,8.5-1.2s1.1,7.9-.2,9l-20.8,3.6-1.6-1v-44.3c-.2-1.9-.5-6,0-7.6"/>
      <polyline class="cls-1" points="62.42 48.9 62.42 49.7 62.42 49.8"/>
      <polyline class="cls-1" points="58.12 49.8 58.12 49.8 58.12 49.3 62.42 48.8"/>
      <line class="cls-1" x1="116.92" y1="60.1" x2="116.92" y2="41.4"/>
      <path class="cls-1" d="M85.32,47.4c1,.2,2.9,1.7,3,2.6v44.1"/>
      <polyline class="cls-1" points="92.72 47.6 92.72 92.8 92.32 92.9"/>
      <polyline class="cls-1" points="62.42 48.7 58.12 49.3 58.12 49.3 58.12 49.8 58.12 49.8"/>
      <polyline class="cls-1" points="62.42 49.8 62.42 49.7 62.42 48.9 62.42 48.8"/>
      <path class="cls-1" d="M134.62,35.8c4.4,3.7,3.9,12.1,2.2,18.2,1.3-6.4,1-15.4-2.2-18.2Z"/>
      <path class="cls-1" d="M131.02,64.8c-.2-2.2,1.8-1.7,4.8-7.5.5-.9.8-2,1.1-3.2-.3,1.2-.7,2.2-1.2,3.1-.3.7-1,1.5-1.8,2.5.4-.6.8-1.3,1.2-2.1,2.9-5.8,1.5-19.2-2.5-22.2s-6.5-.9-11,0c-1.3.3-9.4,1.1-9.7,1.9h0v52.3h.3c2.5-.2,3.6-.2,4.1-.6-.7.1-1.9.2-3.7.3h0c2.2-.3,3.3-.4,4-.7,0,.1-.1.3-.2.3h.3c.5-.6,0-1.7,0-4.2-.2-4.5.2-10.3,0-15.5.1-.6.4-1.1,1-1.6q.4-.33,0,0c.4-.6,1.1-1.1,1.9-1.4-.3.1-.6.2-.9.4,1.8-1.1,4.5-1.5,6.3-.7-1.5-.6-3.7-.4-5.4.3,2-.7,4.4-.6,5.7.6h0s.2.1.2.2c.1.1.3.3.4.4l6.7,18.7c1.1.1,4.8-.1,5.4-.6-1.4.3-4.4.5-4.9.3h0c.7.1,3.8,0,5.1-.4v.1c.5-.1.8-.2.8-.4l-7.6-20.3h-.4ZM112.62,37.2c-.2.1-.3.2-.3.3h0c0-.2.2-.4.4-.5v.2h-.1ZM119.12,59.9v-16.6c.3-1,.4-1.7,6-2.1h.8c5,.3,5.7,7.1,3.9,11.9,0,.1,0,.3-.1.4,0,.2-.2.4-.3.6.1-.2.3-.5.4-.7-.3.6-.5,1.1-.9,1.6h0c-2.1,3.5-5.7,4.4-9.9,4.9h.1ZM120.42,62.1c-1.7.4-2.6.3-3.3-1.4.7,1.5,1.9,1.6,3.3,1.4ZM126.42,40.7c5,.3,5.7,7.1,3.9,11.9,1.4-3.9,1.1-11.6-3.9-11.9ZM131.82,55c1.2-2.9,1.9-7.5.8-11.5,1,3.5.8,7.7-.8,11.5ZM131.42,55.6c1.2-2.9,1.9-7.5.8-11.5,1,3.5.8,7.7-.8,11.5ZM131.62,42.3c-1.4-3.1-3.4-3.8-6.7-3.5,3.3-.3,5.2-.2,6.7,3.5ZM124.12,38.8h0c-.4,0-.8.1-1.3.2.5,0,.9-.1,1.2-.2h.1ZM119.32,39.9c-1.3.5-2.4,1.2-2.7,2.1.3-.9,1.4-1.6,2.7-2.1ZM116.82,61.2c.7,1.5,1.9,1.6,3.3,1.4-1.7.4-2.6.3-3.3-1.4ZM130.72,57.1c-1.3,1.8-2.8,2.8-4.5,3.4,1.9-1,3.9-2.3,4.8-4h0c0-.1.2-.2.2-.4-.2.3-.3.6-.5.9h0v.1Z"/>
      <line class="cls-1" x1="116.92" y1="60.1" x2="116.92" y2="41.4"/>
      <path class="cls-1" d="M129.12,55.1c-.7,1-1.5,1.7-2.5,2.3,0,0-.1,0-.2.1-1.9,1.1-4.3,1.6-6.9,1.9v-16.5h0"/>
      <path class="cls-1" d="M119.52,42.8h0v16.6c4.1-.4,7.9-2,9.9-4.9,0,0,.1-.2.2-.3h0"/>
      <path class="cls-3" d="M208.22,49.3v-.6.6Z"/>
      <g>
        <path class="cls-2" d="M3.92,44.8c.9-1,2.1-1.5,3.5-1.8s3-.3,4.5-.3v2.6"/>
        <path class="cls-2" d="M2.92,46.1v-.8c-1.2,10.5-2,18.1-2.3,29.1h.2v.7h-.2c-1.2,43.8,13.5,41.4,34.7,33.8,1.2-1.3,2.2-2,3-2.6"/>
        <path class="cls-2" d="M33.02,101.7c-4,3.4-9.6,5.2-16.1,4h-.2c-1.8-.4-4.8-3-4.8-4.2v-56.1c1.3-.2,2.8-.3,4.2-.3v54.1c0,1.1,2.9,3.5,4.7,3.9h.2c4.5.8,8.6.2,12-1.3v-.1Z"/>
        <path class="cls-2" d="M46.02,36.1v3.7l-3.4.8v1h-.6c0,.1-.4.2-.4.2v48.3c-.2,2.5-1.2,5-2.8,7.2-1.6,1.7-3.5,3.2-5.8,4.2.8-.6,1.5-1.3,2.1-2.1,1.7-2.4,2.7-5.1,2.9-7.9v-52.5h.4c0-.1.6-.3.6-.3v-1.1l7-1.8v.3Z"/>
        <path class="cls-2" d="M48.62,94.1c-1.7,3.9-2.8,5.6-3.9,6.8-1.7,2.4-3,2.5-5.7,5.1-.2,0-.5.2-.7.2,1-.8,1.9-1.5,2.9-2.9,1.1-1.2,2.3-3.1,4-7.4,2.9-7,1-14.5,1-21.8v-34.4l3.5-.8v35.1c0,6.7,1.9,13.6-.9,20l-.2.1Z"/>
        <path class="cls-2" d="M8.32,47c.9-.9,2.1-1.4,3.4-1.7h.1"/>
        <path class="cls-2" d="M7.32,48.2v-.8c-1.2,9.6-1.9,16.7-2.3,26.8h.2v.7h-.2c-1.2,39.8,12.9,38.2,33.2,31.4"/>
      </g>
    </g>
  </g>
</svg>