<?xml version="1.0" encoding="UTF-8"?>
<svg id="Layer_2" data-name="Layer 2" xmlns="http://www.w3.org/2000/svg" viewBox="0 0 1055 810.92">
  <defs>
    <style>
      .cls-1, .cls-2, .cls-3 {
        stroke: #fff;
        stroke-miterlimit: 10;
        stroke-width: .5px;
      }

      .cls-1, .cls-4 {
        fill: #0e181f;
      }

      .cls-2, .cls-5 {
        fill: #313d58;
      }

      .cls-6 {
        fill: #e59d1f;
      }

      .cls-7 {
        fill: #4520e2;
      }

      .cls-3, .cls-8 {
        fill: #8bedf6;
      }

      .cls-9 {
        fill: #8f535c;
      }

      .cls-10 {
        fill: #192836;
      }

      .cls-11 {
        fill: #3797bf;
      }

      .cls-12 {
        fill: #1f1f1f;
      }

      .cls-13 {
        fill: #203248;
      }
    </style>
  </defs>
  <g id="Layer_1-2" data-name="Layer 1">
    <path d="M981.24,341.48c-23.29-.54-46.82,2.32-70.1,1.96-9.24-.14-18.44-.71-27.63-1.38l-3.98,32.14-30.87-34.53c-1.84-.09-3.67-.18-5.51-.24-22.42-.74-45.05,1.17-67.68,3.03l-3.16,25.5-19.02,20.4c-.72,1.89-2.7,3.32-4.71,3.29-3.49-.05-6.5-1.43-7.75-4.87-.21-.59-.27-1.2-.41-1.81-.02-.11-.05-.21-.08-.32-.04-.07-.08-.15-.12-.22-1.83-2-1.8-4.89-.03-6.91l-1.33-1.67-.42-3.03c.22-1.38,1.17-2.43,1.23-2.87l3.12-25.16c-12.69.66-25.34.91-37.92.23-12.23-.66-24.41-1.54-36.59-2.39-.15,3.04.02,5.55.68,6.23,1.6,1.22,1.39-2.47,2.26-2.7,3.06-.8,9.3,4.12,12.9,3.81,2.03-.17,7.29-5.5,9.84-3.28l-32.28,42.71,5.8-46.83c-5.94-.41-11.88-.8-17.82-1.16-1.36,12.16-2.7,28-4.56,40.43.14.18.28.37.39.57,1.32,2.64,2.49,5.23,2.6,8.22.1,2.8-2.36,4.89-4.99,5.01-2.77.13-4.91-2.38-5.01-4.99,0-.09,0-.16,0-.22-.01-.03-.02-.05-.03-.08-.06-.18-.12-.37-.18-.56l-15.35-22.74c-.8-2.35-1.61-21.47-1.47-26.88-2.22-.05-4.43-.07-6.65-.1l.35,14.07-3.09-4.07,2.01-1.31-.22-8.71c-14.84-.11-29.75.44-44.81,2.16-6.67.76-13.32,1.51-19.97,2.16-.06,2.7-.45,5.57-1.08,8.45-.19.85-.45,1.63-.77,2.32,1.4,8.8,2.64,18.68,3.19,23.8.47,4.41.26,7.31-1.09,7.51.03.13.03.26.05.39,1.44.26,2.79,1.07,3.38,2.36,1.77,3.86,1.78,7.83.02,11.7-.31.68-.79,1.19-1.35,1.58,1.37,1.36,2.39,3.04,3.27,4.78,1.26,2.5.61,5.29-1.78,6.84-2.17,1.4-5.67.56-6.84-1.78-.42-.83-.86-1.64-1.35-2.43-.09-.1-.19-.19-.27-.29-.13-.08-.25-.16-.39-.23-1.73-.92-2.51-2.78-2.4-4.61-.87-.38-1.67-1-2.26-1.93-6.88-10.88-12.5-23.38-22.09-32.21-4.65-4.49,2.34-11.43,7.06-7.08.46.44.93.88,1.4,1.31,1.4-1.64,3.72-2.48,6.15-1.15.08.04.16.1.24.14-.03-.81,0-1.69.09-2.64-2.32-4.19-4.01-7.47-4.05-8.19-.05-.81.08-2.71.32-5.05-.04-.68-.04-1.39,0-2.11-7.14.28-14.26.28-21.35-.21-14.44-.99-29.88-3.42-44.9,2.3,3.53,2.09,6.9,4.28,9.96,6.68,3.28,2.58,20.89,22.5,21.85,26.42.03.14.06.33.08.56,5.96,2.46,10.21,7.82,13.96,13.39,1.23,1.83,1.03,3.61.1,4.96,2.85,1.93,5.56,4.25,7.93,7.17l.08-.66,15.6,26.09c19.77,2.37,39.78,3.38,58.67,8.6,21.84,6.03,44.66,4.11,67.27,3.04,23.06-1.09,45.9.28,68.95-.55,23.02-.83,46.13-2.74,69.29-5.79,9.06-1.19,17.92-.83,26.65.47.79-1.52,2.37-2.54,4.71-2.18,36,5.59,72.19,9.97,108.44,13.63,13.63,1.38,27.06,2.75,40.69,2.82.95-7.66,2.39-15.37,2.89-23.03-.92-7.07-1.64-14.15-2.25-21.25-.18-2.15.66-3.74,1.92-4.72-.73-2.82-1.34-5.68-1.69-8.61-1.45-11.96.6-23.73,3.04-35.42.68-3.27,3.86-4.64,6.54-4.28.09-.76.19-1.52.3-2.29.55-3.85,1.31-7.62,2.17-11.36-2.58-.08-5.16-.15-7.74-.21ZM612.31,410.18c-6.84-1.22-13.78-1.04-20.7-.86-.8,1.73-2.66,2.98-4.58,2.98-2.93,0-5.56-.38-8.23-1.62-2.24-1.04-2.84-3.86-2.14-6.03h-.53s7.76-62.66,7.76-62.66l31.62,50.3c1.17,2.39,1.35,5.67,1.26,8.93,3.85,2.5,1.12,9.95-4.46,8.95ZM709.79,366.73c-.67,12.59-2.2,24.97-4.62,37.35-.97,4.95-3.16,9.17-6.14,8.76-1.76-.25-3.49-2.74-3.93-6.01-.93.38-1.87.82-2.78,1.25-1.16.54-2.26.18-3.15-.76-.16.37-.34.74-.55,1.09-1.28,2.08-3.21,3.56-5.2,4.91-2.31,1.57-5.45.37-6.84-1.78-1.53-2.37-.38-5.38,1.78-6.84.3-.2.59-.42.89-.62.03-.03.05-.06.1-.1.11-.11.22-.21.33-.32h-.83c.22-.85.51-1.4.86-1.78.21-1.99,1.67-3.71,3.62-4.35,0,0,.01,0,.02,0,.56-3.94,2.62-7.15,4.77-8.26.04-.02.07-.04.11-.05.06-.06.12-.12.21-.2.27-.25.55-.49.82-.74.07-.06.11-.1.16-.14.02-.03.03-.05.06-.1.25-.37.52-.68.78-1.04.25-.36.5-.75.74-1.14.09-.16.22-.41.34-.64.2-.41.38-.92.59-1.3.02-.04.03-.05.05-.08.01-.04.02-.06.03-.1.35-1.09.77-2.04,1.23-2.88l-6.19,7.53c3.33-6.97,7.94-12.24,12.44-17.32.14-1.84.26-3.68.36-5.52.27-5.05,3.72-9.1,6.14-8.76,2.94.41,4.09,4.86,3.82,9.96ZM874.97,404.18c-.6.63-10.91-.18-14.41-.85-.71.43-1.59.67-2.66.63-19.17-.77-38.05,2.77-57.02,4.86-3.49.38-5.06-2.42-4.74-5.17l-18.33-.13,9.24-9.23c11.13-16.44,26.99-27.64,39.03-42.62l1.03.73c1.42-2.14,4.39-2.57,6.59-1.45,1.65.84,3.11,2,4.76,2.84.83.43,1.43,1.09,1.83,1.86l.17-.03.6-5.11,33.53,36.81c3.19,1.82,2.97,14.1.36,16.84ZM952.27,409.27c-1.08-.57-2.19-1.06-3.32-1.46-.23,1.08-.47,2.15-.74,3.23-1.37,5.52-9.87,4.28-9.82-1.31,0-.45.02-.92.03-1.38-2.59.15-5.17.18-7.77-.44-5.21-1.23-4.29-8-.02-9.64,2.84-1.09,5.81-1.67,8.81-1.81.09-.56.18-1.11.28-1.66-2.12.61-4.51,0-5.52-2.28-.06.59-.12,1.18-.2,1.77-.85,6.36-10.49,3.65-9.65-2.64,1.55-11.66-1.2-23.39-4.82-34.4-1.95-5.94,7.03-8.59,9.42-3.23-.06-1.59-.1-3.18-.11-4.77-.05-6.45,9.95-6.45,10-.02.08,9.52,1,18.92,2.53,28.26-.17-7.96-.75-15.93-1.19-23.84-.29-5.25,5.56-5.95,8.55-3.14,0-.54,0-1.09,0-1.63-.01-6.45,9.99-6.45,10-.02.01,7.09.03,14.17.11,21.26.96,1.51,1.19,3.47.07,5.23.14,9.87.39,19.73.89,29.59.2,3.96-4.33,6.01-7.52,4.33Z"/>
    <path class="cls-8" d="M864.16,56.22c3.41.08,6.86-.05,10.27,0,.02,57.98-.03,115.99,0,173.97-1.41,17.67-1.42,35.37,0,53.04-.96,31.09-1.23,62.19-.87,93.29l.46.98c.31.27.64.56.98.87V55.65H0v.57c120.73-.02,241.48.03,362.21,0,93.35,1.39,186.71,1.38,280.07,0,20.33,0,40.7-.01,61.03,0l6.18.76c47.41.09,94.87.15,142.31.15,4.14,0,8.26-.43,12.37-.91Z"/>
    <path class="cls-3" d="M874.59,405.98c.05,1.88.08,3.76.13,5.64.23.13.46.27.69.41.03.02.06.03.08.05v-6.13c-.3.01-.6.02-.91.04Z"/>
    <g>
      <path class="cls-10" d="M873.41,4.54l1.85,23.53-361.11,78.73-13.22,1.68c-.79-.74,1.48-7.83-1.91-6.79-.24-3.08-1.57-11.57,1.78-12.45L873.41,4.54Z"/>
      <g>
        <path class="cls-9" d="M852.73,19.41c1.04,2.18,1.37,4.97-.96,6.3-.29,1.1-.79,1.11-1.14.03l-.57.02-2.34,1.16c-28.61,6.35-57.19,12.81-85.74,19.39l-2.63-.2-1.71.05c-.22,1.48-.62,1.3-1.69.62l-1.71.05-.15,1.2c-36.83,7.88-73.66,15.76-110.48,23.66l-.52-.48c-.22,1.67-1.24,1.56-1.71.05-.08.47-.26.66-.55.59-.39,1.46-1.34,1.67-2.83.65-4.79,2.22-10.07,2.95-15.31,3.3-.04,1.66-1.23,1.94-2.26.64-2.25,1.66-5.85,2.16-8.52,1.39.07,1.52-.53,1.55-1.69.62l-1.14.03c.1.43.13,1.13-.14,1.2-29.56,7.15-60.37,13.66-90.08,19.57l-.5-.42c-4.8,1.48-9.04-2.37-3.55-4.46.24-1.52.7-1.49,1.14-.03,1.53-.97,3.42-1.6,5.65-1.88.12-.51.32-.51.57-.02l2.28-.07c-.73-.75-.41-1.07.55-.59l1.71-.05c-.1-1.43.03-1.5,1.12-.6l5.12-.72c.18-.5.37-.5.57-.02.5-1.08,1.79-.93,2.83-.65-.75-.79-.44-1.12.55-.59l1.71-.05c-.18-1.55.67-1.77,1.69-.62l1.71-.05c.61-1.49,1.63-1.73,2.83-.65l.57-.02c-.17-1.56.39-1.76,1.69-.62.19-1.58.59-1.78,1.69-.62l1.71-.05c-.16-1.46-.01-1.57,1.12-.6,1.74-.63,3.45-.87,5.12-.72-.02-1.64,3.11-2.72,3.96-1.26l1.14-.03c.02-1.21,1-1.66,1.69-.62l1.71-.05c.32-1.78,2.68-2.57,3.96-1.26,1.57-.69,3.08-.92,4.54-.7.45-1.73,2.32-2.06,3.4-.67.14-.97.91-.84,1.69-.62.1-1.15.67-1.11,1.14-.03.42-1.06,1.78-.92,2.83-.65-.15-1.56.62-1.73,1.69-.62l.57-.02c.12-1.57.65-1.87,1.69-.62l1.71-.05c-.14-1.46-.01-1.57,1.12-.6,1.74-.63,3.45-.87,5.12-.72.21-1.58.67-1.89,1.69-.62l.57-.02c2.25-.8,4.5-1.57,6.78-2.27s4.55-1.38,6.86-1.91c20.77-4.82,41.57-9.56,62.39-14.17,2.31-.51,4.66-.85,7.02-1.19s4.73-.58,7.1-.8c2.53-1.02,5.18-1.67,7.93-1.94.1-.29.48-.3,1.14-.03,37.35-8.63,74.73-17.2,112.12-25.71l5.25-.55,1.71-.05c-.25-1.08,1.12-1.62,1.69-.62l1.71-.05c.03-1.2.59-1.41,1.69-.62l1.14-.03c-.03-1.49.68-1.62,1.69-.62l1.71-.05c-.74-.75-.42-1.06.55-.59l1.71-.05c.02-1.21.58-1.42,1.69-.62l1.71-.05c-.4-1.4.04-1.49,1.12-.6l1.71-.05c-.03-1.53,3.11-2.1,3.96-1.26,1.57-.69,3.08-.92,4.54-.7.03-1.07,1.78-1.87,2.26-.64.91-.85,2.24-1.08,3.4-.67.44-1.78,4.12-1.93,5.12-.72Z"/>
        <path class="cls-5" d="M851.77,25.71c1.08-.12,1.55.07,2.83-.65-.74,4.52-6.81,2.84-10.66,4.08-1.69.55-1.51,2.23-3.77,2.61-1.98.33-.86-1.62-2.51-1.05-18.19,6.37-41.19,11.33-61.02,15.27-3.59.71-8.25.95-12.34,1.73-.51.1.12-1.32-1.24-1.15-.22.03-2.8,2.4-3.68,2.62-2.35.57-4.07-.23-5.26.04-1.32.3-2.97,1.96-5.14,2.35-.35.06-.11-1.49-1.2-1.12-.46.15-.94,1.56-2.26,1.77-2.23.34-4.23-.64-5.98-.39l-1.74,1.06c-9.1,2.1-18.15,4.12-27.15,6.07-.38,0-.76.05-1.14.03-9.29-.33-18.05,4.23-26.4,6.44-1.19.32-.32-1.39-2.14-1.01-10.22,2.17-20.56,5-30.78,7.1-.38.08-8.93,1.89-7.1-.32l111.14-24.37,1.71-.05c.31-.75,1.06-.55,1.69-.62l1.71-.05c29.53-6.49,61.11-15.57,90.72-20.35l.57-.02c.37-.05.77,0,1.14-.03Z"/>
        <path class="cls-13" d="M736.1,46.07c-3.37,5.13-10.3,4.09-15.39,5.16-6.48,1.37-6.94,2.06-13.5,1.96.4-.94.9-1.1,1.83-1.32,8.25-1.99,18.82-4.6,27.07-5.8Z"/>
        <path class="cls-10" d="M958,35.8c-1.49.33-3,.73-4.54.7,1.19-.39,3.06-2.35,4.54-.7Z"/>
        <path class="cls-10" d="M963.67,34.49c-1.12.27-2.28.43-3.4.67.35-1.36,2.56-1.78,3.4-.67Z"/>
        <path class="cls-10" d="M752.51,41.02l-1.71.05,1.71-.05Z"/>
        <path class="cls-10" d="M946.66,38.41c-.54.1-1.16-.02-1.71.05l1.71-.05Z"/>
        <path class="cls-10" d="M940.99,39.72l-1.71.05c1.6-.44,1.63-.03,1.71-.05Z"/>
        <path class="cls-10" d="M937.59,40.39c-.38.02-.76.01-1.14.03l1.14-.03Z"/>
        <path class="cls-10" d="M943.26,39.08l-1.71.05c1.63-.43,1.63-.03,1.71-.05Z"/>
        <path class="cls-10" d="M934.75,41.05l-1.71.05c1.57-.4,1.63-.03,1.71-.05Z"/>
        <path class="cls-10" d="M949.5,37.76l-1.71.05c1.48-.33,1.63-.03,1.71-.05Z"/>
        <path class="cls-10" d="M755.91,40.35l-1.71.05c.55-.06,1.21.06,1.71-.05Z"/>
        <path class="cls-10" d="M966.11,40.13c.19-.03.38.01.57-.02l-.57.02Z"/>
        <g>
          <path class="cls-13" d="M692.79,47.91l-1.14.03c-.5-.15-.5-.34-.02-.57.82-.11,1.21.07,1.16.54Z"/>
          <path class="cls-13" d="M514.79,94.37l-2.31-1.07c1.82.5,3.27-2.2,3.78-2.37,4.26-1.45,11.81-2.53,16.27-3.46.73-.15.61-1.57,1.18-1.66,1.13-.18,5.74.89,6.15.85,1.94-.18,8.33-1.28,6.55-3.5l15.52-1.15,13.8-5.29c3.91-1.33,8.21-.92,12.56-1.97,2.04-.49,6.22-2.7,6.57-2.71.8-.03,1.57,1.19,2.86,1.08,1.92-.16,10.7-4.51,12.55-4.97.58-.14,5.38.66,6.09.42.59-.19.6-1.7,2.47-2.28,1.14-.34,4.85.38,6.06.1,1.41-.33,4.45-2.16,4.71-2.22,2.07-.48,3.97-.78,6.15-1.29,3.52-.82,8.26-.86,11.27-1.56.67-.16.8-1.59.96-1.63.74-.17,1.83.55,3.38.19,1.71-.4,1.69-1.52,1.92-1.58.61-.14,1.47,1.17,2.2,1,2.15-.51,5.26-2.6,5.98-2.71,3.65-.55,2.37-.02,6.7-1.46,1.04-.34,2.73.6,3,.39.14-.11-.21-1.54-.03-1.69.79-.65,3.59.91,4.76.79,1.99-.2,6.47-1.44,9.06-1.91,13.08-2.38,25.7-6.43,38.34-9.87,8.03-2.18,18.16-3.3,26.69-5.27,22.9-5.3,47.08-12.19,69.65-16.41,2.19-.41,3.84.38,4.82.2.35-.06,3.96-2.03,6.38-2.4,2.07-.32,7.31.49,7.63.28.3-.2.13-2.95,4.83-3.38.95-.09,7.4.13,7.69,1.87-.2,1.02-1.33,1.4-3.39,1.13-1.53-.46-3.26-.4-3.93,1.11-7.89,2.05-16.45,3.22-24.83,4.34-.74,1.07-2.22,1.91-3.51,2.26l-28.33,4.96c-2.07,1.24-4.11,2.23-6.49,2.87-8.57,2.31-18.45,4.76-27.06,5.4l-.3.7c-18.86,4.71-38.73,8.82-58.05,12.62-2.52.89-5.15,1.73-7.92,2.51-30.06,6.65-60.05,13.77-90.15,20.33l-.57.02c-.27.06-.84.44-1.69.62-1.67-.14-3.37.1-5.12.72-.06.02-.44.4-1.12.6l-1.71.05c-.37.1-.82.41-1.69.62l-.57.02c-.27.06-.8.44-1.69.62-1.21-.37-2.15-.15-2.83.65-.37.04-.76,0-1.14.03-.86-.26-1.42-.06-1.69.62-1.1.3-2.29.45-3.4.67-1.47-.2-2.98.03-4.54.7-1.36.44-2.55.87-3.96,1.26l-1.71.05c-.32.08-.85.41-1.69.62l-1.14.03c-1.09.25-2.42.93-3.96,1.26-1.66-.14-3.37.1-5.12.72-.06.02-.45.4-1.12.6l-1.71.05c-.52.14-1.06.46-1.69.62h0c-.35.09-.9.42-1.69.62l-.57.02c-.93.23-1.9.44-2.83.65l-1.71.05c-.21.05-.81.43-1.69.62l-1.71.05c-.15.03-.38.55-.55.59-1.23-.38-2.17-.17-2.83.65-.18.04-.39-.02-.57.02l-5.12.72c-.06.01-.33.44-1.12.6l-1.71.05c-.09.02-.28.53-.55.59l-2.28.07c-.18.03-.39-.02-.57.02-2.22.25-4.1.88-5.65,1.88-.3.11-.85-.08-1.14.03Z"/>
          <g>
            <path class="cls-5" d="M691.63,47.37l.02.57c-1.99,1.86-5.46,1.4-7.93,1.94,1.83-2.52,5.31-1.84,7.92-2.51Z"/>
            <path class="cls-5" d="M847.53,11.99c1.12.09,2.3-.16,3.42-.1l.03,1.14c-2.42-1.17-1.56.58-1.69.62-1.1.34-3.56.35-5.12.72-1.25-.35-2.39-.17-3.4.67-.76.16-1.5.47-2.26.64-1.47-.2-2.99.03-4.54.7-1.41.45-2.44.86-3.96,1.26l-1.71.05c-.12.03-.48.48-1.12.6l-1.71.05c-.04.96-1.09.49-1.69.62l-1.71.05c-.1.03-.28.53-.55.59l-1.71.05c-.37.1-.45.54-1.69.62l-1.14.03c-.04.95-1.08.5-1.69.62l-1.71.05c-.45.11-1.02.44-1.69.62l-1.71.05c-38.77,9.96-78.13,18.16-117.36,26.27l-1.16-.54c16.7-4.33,34.82-7.8,50.71-11.72,1.2-.3,5.81-1.15,6.22-1.32.72-.31.11-1.62.28-1.76.25-.2,2.93,1.18,6.13.22,6.61-1.97,15.05-3.56,21.82-5.14,2.51-.59,6.04-2.86,6.4-2.94,3.91-.9,9.54-1.58,14.24-2.64,4.03-.91,9.85-1.15,13.89-1.85,1.41-.24,3.42-2.63,3.64-2.68,5.61-1.2,12.87-1.65,18.09-2.35,1.59-.21,4.75-.76,6.19-1.23.73-.24.21-1.66.32-1.74.33-.23,7.09-.31,7.98-.23Z"/>
            <path class="cls-10" d="M518.15,86.7c-1.66,1.1-3.73,1.19-5.65,1.88-.44-2.01,4.02-1.56,5.65-1.88Z"/>
            <path class="cls-10" d="M594.74,76.62c-1.68.36-3.37.82-5.12.72,1.35-.4,3.62-2.25,5.12-.72Z"/>
            <path class="cls-10" d="M529.5,84.65l-5.12.72c1.89-.37,4.12-.52,5.12-.72Z"/>
            <path class="cls-10" d="M553.32,79.39c-1.68.36-3.37.82-5.12.72,1.33-.38,3.63-2.26,5.12-.72Z"/>
            <path class="cls-10" d="M570.32,75.47c-1.5.3-2.99.75-4.54.7,1.2-.39,3.07-2.34,4.54-.7Z"/>
            <path class="cls-10" d="M582.83,79.25c-.91.18-2.06.57-2.83.65-.59-1.61,1.72-1.64,2.83-.65Z"/>
            <path class="cls-10" d="M532.91,83.98c-.95.2-1.89.46-2.83.65-.59-1.61,1.72-1.64,2.83-.65Z"/>
            <path class="cls-10" d="M578.85,79.94c-.61.03-1.16.48-1.69.62-.39-2.33,1.37-.6,1.69-.62Z"/>
            <path class="cls-10" d="M521,86.61l-2.28.07c1.5-.27,2.17-.04,2.28-.07Z"/>
            <path class="cls-10" d="M931.35,41.72l-1.71.05c1.54-.39,1.63-.03,1.71-.05Z"/>
            <path class="cls-10" d="M523.26,85.98l-1.71.05c1.41-.29,1.63-.03,1.71-.05Z"/>
            <path class="cls-10" d="M561.82,77.43l-1.71.05c1.59-.42,1.63-.03,1.71-.05Z"/>
            <path class="cls-10" d="M547.08,80.71l-1.71.05c1.57-.43,1.63-.03,1.71-.05Z"/>
            <path class="cls-10" d="M588.5,77.94l-1.71.05c1.61-.45,1.63-.03,1.71-.05Z"/>
            <path class="cls-10" d="M538.57,82.67l-1.71.05c1.47-.33,1.63-.03,1.71-.05Z"/>
            <path class="cls-10" d="M535.17,83.34l-1.71.05c1.47-.32,1.63-.03,1.71-.05Z"/>
            <path class="cls-10" d="M558.41,78.1l-1.14.03c1.15-.27,1.09-.02,1.14-.03Z"/>
            <path class="cls-10" d="M585.09,78.61l-.57.02c.63-.14.54,0,.57-.02Z"/>
            <path class="cls-10" d="M597,75.98l-.57.02c.58-.13.54-.01.57-.02Z"/>
            <path class="cls-10" d="M541.98,82l-.57.02c.44-.11.54,0,.57-.02Z"/>
            <polygon class="cls-10" points="562.64 76.26 562.93 76.54 562.66 76.83 562.64 76.26"/>
            <polygon class="cls-10" points="554.14 78.22 554.43 78.5 554.15 78.79 554.14 78.22"/>
            <polygon class="cls-10" points="543.67 81.38 543.09 81.11 543.37 80.82 543.66 81.1 543.67 81.38"/>
          </g>
        </g>
        <g>
          <path class="cls-13" d="M709.5,58.99c.32,2.16.01,1.37-1.26,1.84-6.72,2.52-15.97,3.69-23.1,5.42-1.34.33-1.3,1.84-1.95,1.98-.95.21-2.65-.96-3.9-.74-2.68.48-5.02,2.39-6.43,2.7-19.1,4.15-38.71,7.02-57.83,10.88-4.64.94-9.32.7-13.5,1.63-3.25.72-8.55,2.01-11.68,2.85-1.62.43-2.83,1.81-3.74,2.08-.64.19-1.39-1.03-2.1-.89-1.73.34-2.44,2.72-2.6,2.82-1.25.82-.93-1.28-1.97-1.13-2.48.37-6.02.97-8.45,1.45-4.58.91-11.77,1.82-17.01,2.9-2.42.5-6.12,3.06-8.13,3.47-1.12.23-.41-1.22-1.57-.99-.81.17-1.62,1.46-2.43,1.62-2.66.54-6.63,1.61-9.06,1.99-.82.13-1.43-1.11-2.19-1-.37.06-.01,1.13-1.08,1.26-3.82.5-8.64.21-12.56.88l1.39-1.19,90.72-20.35,1.14-.03c.52-.32,1.1-.49,1.69-.62,2.71.73,6.23.28,8.52-1.39.6-.13,1.37-.44,2.26-.64,5.73-.59,10.83-1.43,15.27-2.5l.04-.81c.93-.2,1.88-.44,2.83-.65l.55-.59,1.71-.05.72.4c12.09-2.29,25.03-4.95,38.82-7.96l.86.5c8.27-3.07,16.69-5.05,25.26-5.93l.76.78Z"/>
          <g>
            <path class="cls-5" d="M637.99,72.5c3.15,1.25-2.47,1.92-3.35,2.11-3.6.78-8.31,1.91-11.96,1.19,5.09-1.12,10.21-2.19,15.31-3.3Z"/>
            <path class="cls-5" d="M620.41,76.43c.12,2.32-8.1,3.59-8.52,1.39,2.84-.62,5.73-.78,8.52-1.39Z"/>
            <path class="cls-5" d="M641.38,71.25l.03,1.14-.58-.55s.19-.51.55-.59Z"/>
            <path class="cls-10" d="M610.2,78.45l-1.14.03,1.14-.03Z"/>
            <polygon class="cls-5" points="639.98 72.44 640.28 72.71 640 73.01 639.98 72.44"/>
          </g>
        </g>
      </g>
    </g>
    <path class="cls-1" d="M424,628.72c2.59,1.04,6.88-3.18,4.96-4.97"/>
    <path class="cls-1" d="M416,808.15l603.16,2.51c.34-73.58-15.08-288.86-15.66-362.44l-.6-1.28-13.54-2.74c-5.36-13.64-11.66-27-18.89-40.1-.14-.34-.29-.67-.43-1.01-37.91,4.12-76.06,5.26-114.19,5.62-11.5.11-23,.15-34.5.2-1.94.23-3.88.46-5.81.67-1.24.13-2.24-.12-3.01-.63-21.61.1-43.21.27-64.81.97-36.59,1.18-73.09,4.58-109.58,7.46-36.11,2.85-72.24,5.62-108.42,7.49-17.91.92-35.77,1.64-53.63,3.34-10.19.97-50.55,3.79-60.75,4.65"/>
    <path class="cls-2" d="M898.77,407.52l-3.04-.55-.38-1.72c.61-.46,3.88.79,3.42,2.27Z"/>
    <polygon class="cls-2" points="775.5 393.83 775.79 394.12 775.5 394.4 775.5 393.83"/>
    <path d="M799.89,362.8c0-1.62,2.69-5.98-.89-7.65v11.27c.31-.01.61-.03.92-.04-.02-1.24-.03-2.44-.03-3.57Z"/>
    <g>
      <path class="cls-4" d="M989.82,289.78c-.87-.27-1.69-.28-2.38.14-1.09-10.25-.96-21.26-.15-31.83-.43-65.78-.84-131.23-1.22-196.37l-.78-.21c.23-.6.17-1.16-.03-1.75-.86-2.54-36.52-21.82-41.26-24.27-14.86-7.7-17.54-8.71-34.63-5.16-7.17,2.23-14.32,3.79-21.47,4.69.26-9.81.1-19.5-.5-29.08-1.52-1.72-14.42-6.4-16.78-5.9l-.85,1.49-1.13.89,1.03,26.6-369.87,83.16-12.31,1.44c1.43-2.26-1.35-11.32-2.72-7.76-.11.29-.13.62-.12.97-1.93.36-1.33,8.35-.49,9.2,4.87,4.91,19.03,3.34,25.08,1.68,7.93-2.61,15.86-4.32,23.79-5.13-37.88,8.56-76.06,16.69-114.55,24.4-5.52.75-10.28,2.99-14.29,6.72-2.51,3.64-2.55,13.08-2.45,17.88,1.54,19.38,1.67,39.74,1.56,59.45-.29-.65-.49-.36-.62.87-1.14,2.52-1.14,5.1.01,7.61.39.7.28,1.34,0,2.08-.3,1-.58,2.01-.77,3.04-.2,1.02-.38,2.04-.4,3.05-.37,24.99-.7,49.99-.76,74.98-.02,6.9.14,13.92.5,20.67.47,7.99,5.83,11.06,11.86,12.62,12.36,3.19,24.77,5.69,37.32,7.7,13.15,2.45,25.98,6.83,37.68,14.21l2.25-.09-1.16,1.02c-.06.41-.11.93-.16,1.52,9.49-.96,18.96-2.13,28.44-3.22-1.97-4.36,3.63-9.52,7.54-5.61.42.44.85.88,1.29,1.31,1.3-1.63,3.44-2.48,5.69-1.14,1.68.99,3.17,2.17,4.52,3.48.68-.06,1.37-.11,2.05-.17,1.82-2.31,5.37-2.85,7.04-.54,14.03-.99,28.07-1.59,42.1-2.56,73.12-5.07,146.08-15.65,219.33-17.66,32.32-.89,64.69-.69,97.03-1.11.16-.01.32-.01.48,0,13.36-.18,26.72-.45,40.07-.97,1.69-2.42,5.46-2.52,7.32-.3,11.8-.53,23.59-1.25,35.36-2.25-2.44-11.87-.88-24.83.61-36.67.55-4.37,1.22-8.73,1.9-13.11Z"/>
      <g>
        <path class="cls-10" d="M516.87,120.42c.16.06,2.38,2.75,1.9,3.25-3.2.64-6.63,2.11-8.74-1.72-.44-2.06,5.9-1.89,6.84-1.53Z"/>
        <path class="cls-10" d="M509,121.62v4.16s-6.99-2.76-6.99-2.76c1.39-2.33,4.93-1.1,6.99-1.39Z"/>
        <rect class="cls-10" x="407.5" y="253.16" width="4" height="1" transform="translate(156.3 663.43) rotate(-90.06)"/>
        <path class="cls-10" d="M527,310.1c0,.92,0,1.85,0,2.77-1.73.76-1.89-3.4,0-2.77Z"/>
        <rect class="cls-10" x="409" y="262.65" width="1" height="2" transform="translate(-.41 .64) rotate(-.09)"/>
        <path class="cls-10" d="M527,306.64c0,.69,0,1.38,0,2.08-1.74.61-1.86-2.61,0-2.08Z"/>
        <ellipse class="cls-10" cx="409.42" cy="249.86" rx=".72" ry=".85" transform="translate(-.26 .43) rotate(-.06)"/>
        <g>
          <path class="cls-10" d="M928.26,284.73c2.25.1,1.44.59,1.48-1.4.16-6.88-.79-14.04-.38-20.97l3.52-1.17-2.34-3.1,3.23-3.11c2.1-.29-.35,11.87,7.3,8.27l-.59-3.45,2.95,1.13c-1.81,3.28.02,4.49.01,4.77-.04,1.66-1.31,2.69-1.26,4.14.35,11.48,4.58,27.23-6.18,34.95-7.24,5.19-39.6,4.76-50.07,5.66-157.95,13.61-316.11,26.78-474.16,37.18-3.72-1.33-2.88-2.55-3.78-5.6-.09-.31-1-.1-1-.16l-.12-69.22h1.12s.03,16.26.03,16.26c0,.24,1.37,4.43,2.49,3.8l1.08-6.04,1.39-.89v23.79s-1.11-6.06-.93-7.61c-1.87-2.25-3.03,8.96-2.91,10.62.02.27,2.29,1.67,1.19,4.6l2.9-3.46c.54,4.62-.05,3.91-2.31,6.56l2.34,4.5,1.74-1.38c-.03,2.33-1.03,7.62-1.03,7.62v1.82c1.87-.38.91.76,1.17,2.07-.37.9.07,1.47.59,2.08,7.16,5.7,18.01,3.19,26.62,2.74,155.7-8.14,311.23-29.55,466.9-39.07,7.87-.96,19.99-3.93,18.98-15.95Z"/>
          <rect class="cls-4" x="525" y="345.65" width="1" height="8"/>
          <path class="cls-4" d="M527.08,353.71c.14.72.24,1.44.59,2.08-.67-.53-4.04-1.5-.59-2.08Z"/>
          <polygon class="cls-4" points="1055 291.58 1055 293.65 1053.26 293.66 1055 291.58"/>
          <ellipse class="cls-4" cx="1051.27" cy="291.2" rx=".72" ry=".85" transform="translate(-.3 1.1) rotate(-.06)"/>
        </g>
        <path class="cls-5" d="M863.64,59.45c11.14-2.24,52.06-13.13,59.9-7.89.9.6,1.57,2,2.46,2.74l1.02,229.94c1.94.77,1.18,3.67.66,5.53-1.9,6.89-9.1,9.8-14.58,11-104.96,8.19-210.33,17.63-316.13,28.34-55.92,5.36-115.11,9.39-169.24,12.6-4.36.01-8.82-.61-12.67-3.15l-.4-1.92c-1.3-.99-1.49-1.68-.59-2.08-.77-.22-1.16-.92-1.17-2.08-.51-.37-.47-.93,0-1.39-.24-3.05.14-5.59,1.15-7.63.02-1.39-.01-2.78,0-4.16-.97-5.68-.99-11.67-.03-17.35,0-.93,0-2.74,0-2.74,0,0,.04-1.43.98-2.08,0-1.15,0-2.31,0-3.46-.96-.89.02-2.77.02-2.77v-1.38l-1-2.08v-1.38s0-2.34.96-3.46c0-2.53,0-5.08-.01-7.61-.94-.65.06-2.08.06-2.08v-15.23s0-.89,0-1.35c-.98-.25-.96-2.35,0-2.77,1.51-28.49-2-60.8.08-88.85.24-3.3.99-7.75,3.5-9.87,3.82-3.23,21.85-6.45,27.61-7.76,41.08-9.31,82.52-17.26,123.69-26.08,5.7-1.59,11.4-3.15,17.12-4.61s11.44-2.91,17.2-4.15c74.83-16.1,149.7-32.05,224.67-47.15,5.77-1.16,11.56-2.12,17.36-3.05s11.61-1.77,17.43-2.58Z"/>
        <path class="cls-10" d="M418.43,271.5c1.1-2.22,1.37-5,.8-8.32,1.71-5.75,7.57.93,6.84,5.5-.02-1.88.5-3.43,1.58-4.65-2-8.68-2.14-17.66-1.71-26.92l1.06-31.89c-2.04-6.25-1.65-11.23,1.18-14.94,1.35-21.47,25.12-29.18,40.18-24.28.3-2.51,1.91-3.79,4.84-3.84,6-3.39,10.99-4.14,17.37-2.17,1.15-2.23,1.81-3.47,4.46-3.74,19.61-3.41,39.22-7.23,58.83-11.45,4.63-1.08.28-.85-1.87-.49-6.25,3.3-5.2-5.74.94-4.06,1.14-2.21,2.54-3.97,4.22-5.28,13.44-3.76,27.47-6.79,41.43-8.81l.85.79,9.72-3.82c11.71-2.39,23.52-4.26,35.31-5.92,3.03-2.11,5.78-2.27,8.26-.48,5.28-3.73,11.22-5.98,17.82-6.75,16.65-2.81,33.3-5.41,49.96-7.8,42.6-9.13,85.27-18.2,127.98-26.79,4.37-.88,8.79-1.62,13.12-2.22,1.57-.22,8.88,3.93,9.42,5.49.86,2.48-2.33,3.54-3.97,3.65,5.6-.34,9.33,3.68,8.49,10.45,4.08-.64,8.29-.73,12.62-.27l1.18,2.28c3.14,1.66,5.41,3.03,2.56,7.2-5.66,1.11-.02,2.92,2.87,1.34l1.16,1.19c1.21,4.48,2.31,6.01,6.25,6.95,1.3.8,1.56,1.98.65,3.26,1.76,3.14.46,5.89-2.28,6.59,1.75,4.05,2.31,7.88,1.69,11.49,5.53.47,4.84,10.48.67,13.02,4.15-.91,4.15,9.81,2.66,11.68l-4.49,1.64c5.51-.93,7.33.54,5.45,4.41.14,6.86.48,13.62,1.02,20.28l-1.1,1.26c1.9,2.97,1.28,5.67-.11,8.56,1.19,5.63.3,9.43-2.67,11.42,4.4-.16,4.17,2.7-.68,8.57,2.55.07,5.2,2.33,2.13,4.71,1.26,3.75.71,5.39-2.47,6.76,3.17,1.68,1.72,5.04-.3,7.43,1.63,1.57,2.37,3.86,2.22,6.87,2.12,1.48,3.22,4.46.79,6.21.76.32,1.07,1.06,1.62,1.98v26.8l.47-13.62c1.77-1.8,2.44-3.31,2.02-4.52-3.63-4.36-1.99-7.73,4.94-10.12-.09-1.64.41-3.04,1.85-3.54l.75-16.03c.69-.6,1.41-.7,1.98.08v60.46l-.23,2.81c-6.42,5.8-15.35,5.33-23.19,6.23-44.62,5.12-89.87,6.8-134.61,10.69-105.92,9.22-212.22,21.85-318.25,28.31-3.69.23-19.42,1.67-21.47.12-.55-.81-.65-1.88-.96-2.83-.55-.82-1.13-1.74-1.75-2.77-.72-6.93,0-16.89-.04-24.23,1.56-2.89,1.36-8.29-.02-11.77,0-.69,0-1.38,0-2.08,1.51-1.58.98-3.36,0-5.54,0-4.84-.04-9.7-.03-14.54Z"/>
        <path class="cls-10" d="M411.74,251.26c0,4.84.02,9.7.03,14.54-1.76.39-1.12-1.06-1.17-2.38-.11-3.21-.1-6.55-.02-9.76.03-1.33-.6-2.78,1.16-2.39Z"/>
        <path class="cls-10" d="M526.99,301.8c0,1.15,0,2.31,0,3.46-1.72.89-1.91-4.15,0-3.46Z"/>
        <path class="cls-10" d="M412,247.1v2.77c-1.73.76-1.88-3.4,0-2.77Z"/>
        <path class="cls-10" d="M526.97,292.11c0,.69,0,1.38,0,2.08-1.74.61-1.86-2.61,0-2.08Z"/>
        <path class="cls-4" d="M530.49,305.25l1.76.41c-.3,2.66,1.13,5.9-1.75,5.13,0-1.84-.01-3.69,0-5.54Z"/>
        <path class="cls-9" d="M494,280.61l.04,21.46-5.04.76-.03-14.02c-2.03,1.62-6.29,10.84-8.6,10.03l-6.38-9.29v14.66l-4,.7-.04-21.47c6.68-2.57,7.89,3.79,12.02,8.33,4.35-3.66,5.33-13.08,12.01-11.17Z"/>
        <path class="cls-9" d="M712.58,276.21c-.08-.2-1.62-3.54-1.66-3.75-.77-4.59.59-11.84-.05-16.76l5.13-1.11.03,16.49.98,1.72c13.21,5.16,11.04-9.12,10.89-19.58l5.1-.68.03,18.84c0,.39-4.46,4.64-5.15,4.99-3.68,1.88-12.08,2.84-15.31-.17Z"/>
        <path class="cls-9" d="M521,277.64l.03,16.27c0,2.37-6.17,6.04-8.25,6.41-14.03,2.44-11.66-8.96-11.57-20.55l4.79-.71.03,15.57c1.9,2.4,6.38,2.2,8.76.92.15-.08,2.21-2.48,2.21-2.67l-.03-15.23h4.03Z"/>
        <path class="cls-9" d="M662.68,273.97c-.21-.75-8.49-8.92-8.76-11.74,5.71-3.03,8.17,3.14,10.79,8.27,4.42-3.81,4.34-12.87,11.6-11.1l.34,1.74c-4.79,6.93-10.52,12.52-8.71,22.52h-5.25c-.41-2.49.55-7.65-.02-9.68Z"/>
        <path class="cls-9" d="M629.02,287.65l-4.97.05c1.42-10.05-5.3-13.44-9.06-21.12,6.26-3.78,8.02,2.76,10.8,7.93,4.88-4.55,4.32-11.85,11.93-11.09-.44,2.36-8.72,13.31-8.71,14.2l.02,10.04Z"/>
        <polygon class="cls-9" points="607 267.64 607.03 286.33 619 284.92 619.01 289.08 602 290.49 601.96 267.65 607 267.64"/>
        <path class="cls-9" d="M549.44,295.65h-4.75c.65-5.29-1.41-13.22,1.1-17.29l-6.8.7-.05-3.74,17.05-2.52v4.16c-2.06-.03-3.4-.36-5.39.7-.1,1.18-.45,1.87-.61.71l.04,16.83-.6.46Z"/>
        <path class="cls-9" d="M526.12,275.38c1.59-.58,3.2-.9,4.88-.74l.03,18.1,10.97-.75.02,3.92-15.85,1.18c-.33-.11-.63-.24-.85-.49-.31-.35-.38-9.28.83-9.64l-.61-.72c-.93-2.42-.69-8.62.59-10.86Z"/>
        <path class="cls-9" d="M820.97,242.51c.31-1.01.73-.97,1.15,0,.53-.02.88.2.89.77l.31,23.23-.58.48c-1.93,1.02-3.71.69-5.73.7l-.05-25.16c1.22.19,2.89-.28,4.01,0Z"/>
        <polygon class="cls-9" points="567 271.81 567.04 294.65 562 294.66 561.96 272.51 567 271.81"/>
        <path class="cls-4" d="M973.77,313.52l-46.04,4.93c-1.81-1.72,7.84-4.45,9.58-4.13,1.82.34,4.17,4.44,3.83-.04,4.53,3.08,6.91-.5,9.65-.7,1.61-.12,3.52,1.45,5.8,1.41,3.8-.07,8.94-2.33,12.26-2.14,1.63.09,3.23,1.05,4.93.66Z"/>
        <path class="cls-9" d="M835.19,257.49c-.23,2-1.61,1.78-2.55.27-.99-1.59-1.6-14.5-.72-16.32.61-1.26,5.41-1.84,6.18-.61.43.69-.54,15.48-1.17,16.66-.47.05-1.36.11-1.75,0Z"/>
        <path class="cls-13" d="M237,355.24l.04,22.84c-2.25.75-.67-3.48-1.17-4.15-.17-.23-1.85.39-2.24-.13-1.96-2.61-3.24-19.6,3.37-18.56Z"/>
        <path class="cls-9" d="M835.2,260.66c.37,0,.83-.08,1.17,0h1.75s.31,4.84.31,4.84c-4.63,5.11-10.79-2.89-4.98-4.84.52-1.95,1.14-1.88,1.75,0Z"/>
        <path class="cls-4" d="M821.05,242.29l-.59-1.37c2.17-.69,1.6,1.23,1.75,1.37.2.19,1.51-.48,1.79.37l.03,24.12c-.11.85-.92.28-1.19.42l-.63-24.92c-.37-.05-.82.09-1.17,0Z"/>
        <path class="cls-4" d="M562.55,274.36c.69,3.16-.74,7.74-.56,10.38l.58.69c.37,2.91-.25,6.66.02,9.69-2.24,1.83-1.61-.66-1.75-.69.18-5.04-.28-10.2-.03-15.23.08-1.6-.09-3.24,0-4.84.13-.2,1.38.13,1.74,0Z"/>
        <path class="cls-4" d="M833.23,260.45c-3.31-5.65-5.77-25.32,4.77-20.68l-.05,18.55c-.58.27-1.11-.7-1.18-.7l1.16-16.87-6.16.63.86,16.25c.13.18,1.9-.14,2.37,0v2.81c-.52,0-1.37-.13-1.77,0Z"/>
        <path class="cls-4" d="M333,282.19v18.46h-1v-18.02c-.38-.85.42-.31,1-.44Z"/>
        <path class="cls-13" d="M439.11,235.28c1.25-2.99,3.79,1.18,1.17,2.07-2.1-.58-.71,2.15-1.2,2.72-.13.16-3.31.95-3.77.09l-.28-3.49,4.08-1.39Z"/>
        <path class="cls-4" d="M894.55,206.15c.36,2.4-4.52,1.41-5.82,2.08.1-3.36,3.99-1.76,5.82-2.08Z"/>
        <path class="cls-4" d="M875.95,235.64c.44,2.48-7.87,2.34-5.25,0h5.25Z"/>
        <rect class="cls-4" x="643" y="124.65" width="1" height="3" transform="translate(517.59 769.7) rotate(-90.02)"/>
        <polygon class="cls-4" points="902.01 221.65 900.85 221.66 900.26 218.9 902 219.93 902.01 221.65"/>
        <polygon class="cls-4" points="303 331.65 303 333.65 302.17 333.65 301.31 331.65 303 331.65"/>
        <polygon class="cls-4" points="434.74 263.65 433 263.66 433 261.59 434.74 263.65"/>
        <polygon class="cls-4" points="437.74 257.65 436 259.72 436 257.65 437.74 257.65"/>
        <polygon class="cls-4" points="862 249.65 862 250.65 860 250.65 860 249.66 862 249.65"/>
        <ellipse class="cls-4" cx="898.09" cy="219.28" rx=".72" ry=".85" transform="translate(-.23 .94) rotate(-.06)"/>
        <ellipse class="cls-13" cx="700.55" cy="256.37" rx=".72" ry=".85" transform="translate(-.27 .73) rotate(-.06)"/>
        <path class="cls-13" d="M827.38,302.13c.28.33.28.87,0,1.21s-.74.34-1.02,0-.28-.87,0-1.21.74-.34,1.02,0Z"/>
        <path class="cls-4" d="M838.11,260.65c-.56-.08-1.22.12-1.75,0h1.75Z"/>
        <path class="cls-13" d="M698.21,256.39l1.16-.69c.28,1.18-1.13.55-1.16.69Z"/>
        <path class="cls-13" d="M702.87,259.84c0-.69-.02-1.39,0-2.08l4.67,1.38c.5-.95-1.09-4.83.47-4.16l1,17.65v1.72c.26-3.05-4.13.5-4.34-.32,1.84-2.31,1.35-12.66-.15-14.09-.43-.41-1.44.06-1.64-.1Z"/>
        <g>
          <path class="cls-4" d="M418.7,271.5c.14-37.39.91-74.87.38-112.32l4.67-3.62c163.3-34.68,326.51-70.23,490.31-101.78,3.82.16,4.93,1.66,6.75,5.2-.02,32.89.08,65.78.13,98.66-.72.98-.73,1.89-.02,2.74l.13,1.91c-1.14,1.95-1.13,5.28,0,7.27l-.04,1.85c-.49.69-.31,1.39-.04,2.14,0,1.38,0,2.77,0,4.15-1.05,2.78-1.03,6.9.02,9.69,0,.46,0,1.39,0,1.39,0,0-.58,1.52-.86.87.35,9.23-1.14,27.51-1.14,27.51l1,.69-1,45.68v2.77l1,15.23v6.12s-1.59-62.11-1.59-62.11l-.81,17.93c-2.89.2-1.37,2.52-1.94,3.15-1.43,1.59-5.46,2.57-7.03,4.14-1.02,2.96,5.81,5.72,0,9.91l-1.88,22.59-47.97,5.93c.55-2.69,7.73-1,7.13-5.66,2.63,1.03,1.22,3.07,5.07,2.89,6.27-.29,16.43-3,23.14-3.67,3.98-.4,7.12,1.76,10.88-.87l.42-34.97-14.99-.29c-.8-3.43,22.18,1.73,13.07-6.58l-.9-5.91-22.93,2.44,1.87,9.82c1.52,1.23,7.67-2.1,7.66,1.28l-27.14,2.84-.32-2.09,14.49-1.25,1.79-2-1.04-10.62,14.03-1.42c-2.36-6.34-.02-3.12.95-4.79,1.94-3.37-2.52-8.73-2.19-9.04l4.3-.39.65,8.97,1.95,1,3.49-1.99-.08,3.35-2.34,2.18c2.43,1.89,5.84-3.13,5.53-5.15-.11-.7-2.44-.56-1.85-2.76.35-1.3,2.72-1.5,2.92-1.89,1.09-2.16-2.5-5.8,1.31-5.79l-.87-1.64c-8.87.85,2.71-7.01.84-9.08l-4.54.72-1.55-1.74c8.74-2.48,5.28-4.74,5.65-11.69.08-1.47,2.8-3.67.41-7.37-2.77.94-6.58,1.51-9.43,1.44-1.19-.03-2.51.65-2.16-1.41l12.83-2.48c-2-3.32-.71-7.83-.78-11.76-.05-3.44-2.47-7.02.71-11.4-3.88.04-9.09-.84-11.29,3.47l-1.53-4.14,11.32-3.48-.4-8.61-4.85-1.08v-2.59c5.25,2.03,6.22-10.71,2.04-10.23-1.56.18-2.43,2.02-3.48,2.07-.15,0-.37-1.65-2.43-1.89-1.57-.18-3.57,1.01-5.32.51-.17-1.88.04-1.08.86-1.34,3.03-.94,6.9-.07,9.95-2.17l-2.25-9.45-4.82,2.76-3.2-4.1,10.19-.85c1.98-4.08-1.7-3.55.68-6.31-7.13-2.81-4.89-1.62-7.85-8.54-2.67,2.12-6.92.95-6.5-3.36l2.85.37c3.85-5.83-2.81-2.46-3.16-7.86-4.94,2.43-7.47-2.75-13.47,2.06,3.81-19.36-15.92-8.67-24.1-8.12v-2.5s20-4.81,20-4.81v-2.09c-3.69-.06-5.23-4.28-9.64-3.53-46.2,8.28-92.15,19.19-138.1,28.63-16.41,3.37-51.5,6.03-65.08,12.07-1.23.55-2.45,1.05-3.18,2.48l-.08,7.15c-3.2.05-.85-6.02-1.4-6.95-3.38-3.04-5.34.24-7.76.58-11.59,1.63-23.28,3.48-34.8,5.81-2.83.57-7.82,3.47-11.07,4.17-.31.07-.17-1.64-1.13-1.43-6.76,1.47-13.6,2.82-20.34,4.37-3.54.82-17.94,3.72-20.05,4.96-.85.5-2.95,4.52-3.69,4.98s-3.7-.77-4.65,1.38l.87,1.72c2.09-3.78,9.09-.32,13.11-2.79-.06,1.97-5.28,3.34-6.95,3.86-18.35,5.69-38.55,6.86-57.03,11.22-1.74.41-4.69.84-6.14,1.61-.65.35.04,2.3-1.82,2.86-1.71.51-4.82-1.46-8.02-1.21-4.89.38-8.35,4.24-12.91,3.91l-.35,4.24c-8.42-6.3-28.16.13-34.68,7.67-4.52,5.23-4.03,8.48-5.61,14.81-.26,1.04-1.69.66-2.16,3.6-.74,4.62,1.12,8.83,1.08,11.02-.32,15.65-1.51,31.83-1.08,47.76.07,2.54,1.94,11.13,1.83,11.71-.2,1.1-2.96.16-.59,4.55l-4.07,1.4c1.84-2.64-.38-9.54-4.1-8.3-.82.96,1.8,10.1-1.73,9Z"/>
          <g>
            <path class="cls-10" d="M920,217.86l.08,45.68c-.03-15.22-.06-30.47-.08-45.68Z"/>
            <path class="cls-10" d="M920.76,188.79c0,8.62.32,17.38.05,25.99-.04,1.33.6,2.78-1.16,2.39,0-8.62-.32-17.38-.05-25.99.04-1.33-.6-2.78,1.16-2.39Z"/>
            <path class="cls-10" d="M1034.94,291.94c1.76-.39,1.12,1.06,1.17,2.38.12,3.43.11,7.02.02,10.45-.03,1.33.6,2.78-1.16,2.39,0-5.07-.02-10.16-.03-15.23Z"/>
            <path class="cls-10" d="M920.74,177.72c0,3.22.01,6.47.02,9.69-1.89.53-1.91-10.22-.02-9.69Z"/>
            <path class="cls-10" d="M920.71,162.49c0,2.3,0,4.62.01,6.92-1.95.83-1.76-8.12-.01-6.92Z"/>
            <path class="cls-10" d="M1034.97,308.55c1.73-.76,1.89,3.4,0,2.77v-2.77Z"/>
            <path class="cls-10" d="M920.7,157.64c0,.92,0,1.85,0,2.77-1.88.64-1.74-3.52,0-2.77Z"/>
            <path class="cls-10" d="M920.73,171.49c0,.69,0,1.38,0,2.08-1.85.54-1.74-2.68,0-2.08Z"/>
            <ellipse class="cls-10" cx="869.02" cy="72.42" rx=".72" ry=".85" transform="translate(-.08 .91) rotate(-.06)"/>
          </g>
        </g>
        <g>
          <path class="cls-9" d="M698.21,256.39c-.08.36.04.94,0,1.38,1.74-.05,3.3,1.02,4.67,2.07,0,1.89,2.18,3.53,2.26,7.34.01.7-1.45,7.56-1.65,7.89-.18.29-4.63,4.13-4.9,4.28-9.36,5.1-23.54,1.18-19.54-14.05,1.93-7.33,13.61-9.91,19.17-8.91Z"/>
          <rect class="cls-13" x="818.5" y="301.16" width="2" height="1" transform="translate(516.42 1120.63) rotate(-89.9)"/>
          <path class="cls-10" d="M697.49,262.1c.14.1,1.84,2.9,1.88,3.09,2.74,13.75-17.71,17.35-15.47,2.23.85-5.75,9.6-8.34,13.59-5.32Z"/>
        </g>
        <g>
          <path class="cls-9" d="M801.22,245.28l9.26,22.67c-5.19,2.7-5.77,1.21-7.69-4.21l-11.01,1.41c-3.61,2.85-1.15,7.5-7.85,6.28.35-3.08,8.17-25.39,9.25-25.98s7.17-1.32,8.04-.18Z"/>
          <path class="cls-10" d="M797.87,249.65c.05,3.5,2.45,6.47,3.52,9.68l-8.74.71,3.48-10.39h1.74Z"/>
        </g>
        <g>
          <path class="cls-13" d="M439.74,181.29c.28.73.55,1.47.74,2.23s.35,1.48.37,2.22c.2,11.17.27,22.36.15,33.53-.46,2.06-1.67,2.87-2.36.78l-.57,10.38-1.67-1.14c1.87-6.27-.86-12.05-1.17-17.86-.09-1.69,1.06-4.05,1.06-5.51,0-.37-1.22-.47-1.21-.77.05-1.59,1.12-2.47,1.22-4.09.24-3.85-.36-7.82.06-11.67l1.64-1.17.02,13.15c1.77-5.91-.39-13.2.5-19.09.23-1.53,1.18-.89,1.22-.99Z"/>
          <rect class="cls-10" x="438" y="203.65" width="1" height="12"/>
        </g>
        <path class="cls-10" d="M475.16,183.99c-.1,3.91.1,7.86.02,11.77-1.92-.09-1.94-11.67-.02-11.77Z"/>
        <ellipse class="cls-13" cx="467.77" cy="214.99" rx="1.22" ry="1.45" transform="translate(-.22 .49) rotate(-.06)"/>
        <path class="cls-10" d="M494.98,188.1c-.53-.24-.56-.81-.59-1.38-.09-1.75-.47-5.62.56-6.92.04,2.76-.01,5.54.02,8.3Z"/>
        <path class="cls-10" d="M459,179.17c.03-.45-.05-.94,0-1.38v1.38Z"/>
        <g>
          <path class="cls-9" d="M741.96,251.18c7.89.7,18.97-6.22,21.7,6.52-1.81-.01-.74,2.67-1.58,4.23s-3.21,1.03-3.37,2.75l5.04,6.68-.33,1.64c-8.7,2.65-7.95-10.13-16.43-6.6l.02,7.95-5.02.67-.04-23.84Z"/>
          <g>
            <path class="cls-10" d="M757,255.14v5.03s-10,2.19-10,2.19l.02-7.33c2.19-.38,8.4-1.72,9.98.1Z"/>
            <path class="cls-13" d="M756.49,255.72c2.64,4.47-5.68,5.39-7.49,5.47l-.02-5.54,7.51.07Z"/>
          </g>
        </g>
        <g>
          <path class="cls-9" d="M573.96,271.1l1.46-1.04c6.74.42,15-4.29,17.85,5.82-1.32,9.1-8.71,8.91-15.2,9.4l1.18,7.61-5.25.7-.04-22.5Z"/>
          <g>
            <path class="cls-10" d="M587.56,273.6c1.77,7.1-5.58,6.87-9.81,6.84l.33-7.01,9.48.17Z"/>
            <polygon class="cls-13" points="584 274.64 584 278.75 579.35 278.09 580.52 276.38 579.34 274.65 584 274.64"/>
          </g>
        </g>
        <g>
          <g>
            <path class="cls-8" d="M495.01,151.94c6.53-1.83,16.89-7.5,21.92-.16.03,22.58,2.32,45.36,2.12,67.93-.02,2.05-2.16.87-1.66,4.03.07.43,1.65.39,1.64.49-.05,3.42-2.17,1.21-1.51,3.5.26.91,2.22-.54,1.89,3.96-2.73,37.28-65.97,52.16-72.52,17.45-1.42-7.55-4.02-81.62-2.23-85.33,5.93-3.78,16.15-6.49,21.89-2.66l2.55,85.65,1.53,2.5c8.48,4.79,27.13-4.55,26.77-16.71l-2.4-80.64Z"/>
            <path class="cls-11" d="M464.11,249.01c1.98,10.77,23.71,4.79,29.41.54.9-.67,8.02-10.55,8.21-11.43,2.77-12.93-3.81-80.19-1.55-83.38l10.05-2.43c.87,19.18.79,38.47,1.66,57.66.08,1.7,1.7.65,1.93,3.75,1.73,23.12-3.47,40.4-23.98,47.28-56.69,19.03-33.27-54.79-40.01-93.48l11.77-3.17,2.52,84.65Z"/>
          </g>
          <g>
            <path class="cls-8" d="M542.34,180.67l14.26-3.48,1.74,1.35,1.98,66.67,27.25-4.65c3.72,1.38,2.68,11.46.83,13.4-2.15,2.26-38.09,7.7-43.68,6.57l-2.38-79.86Z"/>
            <path class="cls-11" d="M554.7,180.89l1.97,66.3c3.29,4.68,27.32-4.24,28.32-3.01l-.36,7.03-36.3,6.23-2.22-74.73,8.59-1.82Z"/>
          </g>
          <g>
            <path class="cls-10" d="M860.25,222.89c-3.62,5.13-11.31,5.73-17.14,4.26,5.21-.29,12.15-1.87,17.14-4.26Z"/>
            <path class="cls-10" d="M828.66,75.15c-3.53,2.73-2.16,9.41-2.28,14.39-3.42-1.81-1.45-13.24.98-15.27.61-.51,1.22.92,1.3.88Z"/>
            <path class="cls-10" d="M838.35,71.98c-1.47.35-3.03.59-4.47,1.07l4.47-1.07Z"/>
            <path class="cls-10" d="M847.29,69.63c-.74,0-1.5-.05-2.23.02l2.23-.02Z"/>
            <path class="cls-10" d="M841.33,70.65c-.25.04-.5-.03-.74,0h.74Z"/>
            <rect class="cls-13" x="813" y="157.65" width="2" height="3"/>
            <rect class="cls-13" x="828" y="130.65" width="1" height="3"/>
            <path class="cls-13" d="M808.34,153.58l-.92,2.34-2.8.76c.11-.62,3.43-3.53,3.72-3.09Z"/>
            <path class="cls-13" d="M788,106.54c-.07-.31.05-.7,0-1.03v1.03Z"/>
            <g>
              <path class="cls-8" d="M858,84.58l-.4,134.05c-2.63,3.14-25.61,7.66-25.6,2.25l.4-133.04c7.69-3.63,18.2-8.86,25.6-3.25Z"/>
              <polygon class="cls-11" points="852 86.73 851.61 216.56 839 217.7 839.38 89.91 852 86.73"/>
            </g>
          </g>
          <path class="cls-5" d="M582.82,188.22c-2.11.08-4.05.31-5.61-1.77-.17-5.51-1.18-10.85,2.18-15.19l55.82-12.9c4.91,1.59,5.21,7.01,4.58,12.49-.81,6.95-17.17,7.16-22.03,8.59l2.04,69.78c-.92,5.68-17.78,7.84-19.79,5.11-.83-.74-.37-2.01-.49-2.98.14-1.95.71-1.89,1.23-.05.34-.13.56.35.66,1.44l.96-.97c2.26,1.33,13.41-.88,14.31-2.74l-1.79-70.26c.65-1.58,2.05-2.06,3.38-2.47l13.31-2.84c10.31-2.72,4.94-15.64-4.72-10.91-14.85,4.25-29.77,8.02-44.74,11.29l-.56.99c-.92,4.23-1.77,8.9.58,11.95,1.4.11,1.62.59.66,1.44Z"/>
          <path class="cls-11" d="M582.16,186.78l.62-1.49c2.22-.76,15.48-4.48,16.59-3.69,1.49,1.06,1.9,3.18.04,3.73.72,22.07,1.17,44.06,1.34,65.96l-1.23.05c-2.53-20.37.05-45.11-1.97-65.93-4.1,1.32-8.89,1.14-12.91,2l-.6.76c-.39.08-.84.04-1.23.05l-.66-1.44Z"/>
          <path class="cls-5" d="M584.06,188.17c.09-.31.33-.7.6-.76-.1.29-.34.7-.6.76Z"/>
          <g>
            <path class="cls-8" d="M582.16,186.78c-.53-.04-2.81-1.14-2.99-1.5.63-3.58-.13-11.11,2.57-12.78,15.42-1.42,35.85-11.45,50.63-12,7.6-.28,6.89,10.9,2.99,13.23-3.24,1.93-18.54,3.06-19.36,5.51l1.96,70.05c-.44,2.96-14.47,5.91-16.53,3.45-.94-22.42-1.61-44.88-2.01-67.4l-.06-2.2c-1.56-1.36-14.43,3.86-17.19,3.65Z"/>
            <polygon class="cls-13" points="601.42 252.73 600.76 251.29 599.42 185.33 601.42 252.73"/>
            <path class="cls-11" d="M604.27,182.19c-6.41-6.44-14.45.45-21.61.16l1.08-6.59,49.05-11.24-.53,6.14c-7.01,2.63-16.44.61-21.26,8.14l2.05,68.59-6.77,2.21-2.01-67.4Z"/>
          </g>
          <path class="cls-13" d="M704.37,162.63l2.11,8.71c-1.8.2-3.46-6.71-3.32-7.55l1.2-1.17Z"/>
          <polygon class="cls-13" points="784.21 209.2 784.28 211.39 783.05 211.44 782.99 209.25 784.21 209.2"/>
          <path class="cls-8" d="M644.98,159.59l1-1.92c13.44-3.61,41.83-14.7,52.46.31,5.47,7.72,5.89,24.61,1.2,32.9-1.54,2.72-8.74,7.56-8.96,10.05l15.83,31.67-.17,1.67c-1.02,2.39-15.65,4.36-18.1,3.61-.82-1.47-2.6-3.3-3.36-4.6-2.2-3.78-10.15-25.17-12.96-25.88-1.46-.37-7.81.63-8.2,2.16l.68,31.77c-.66,1.35-15.35,4.98-16.95,1.78l-2.48-83.52Z"/>
          <path class="cls-11" d="M649.33,160.51c12.42-2.38,35.97-13.22,45.5.59,3.53,5.12,3.98,17.57,2.74,23.96-1,5.16-12.18,13.9-11.86,16.84l15.79,30.16-11.01,1.48c-2.32-5.14-12.03-28.54-15.86-29.6-2.98-.83-9.8-.02-12.61,1.41-5.17,2.64-.99,26.86-1.37,33.23l-8.95,1.79-2.38-79.86Z"/>
          <g>
            <path class="cls-8" d="M658.18,167.12c6.74-5.44,24.68-9.51,29.63.44,10.01,20.16-15.15,35.23-28.75,28.86l-.87-29.31Z"/>
            <path class="cls-5" d="M662.55,168.77c31.32-14.17,29.03,26.82.76,25.64l-.76-25.64Z"/>
          </g>
          <g>
            <path class="cls-11" d="M776.84,94.01c1.65.03,3.17.35,4.55.96.51-.71,1.05-.7,1.61,0v1.69h.66c.09-.54,1.4-.96,1.5-.71.26.63-.2,2.3,0,2.93.7,2.21-.06,6.35,1.85,5.88v.98c7.43,31.95,15.46,64.1,23.33,95.25,1.2,4.76,5.35,12.28,5.86,18.42.25,3.01.19,3.16-1.55,4.91-.6,1.75-1.99,2.79-4.17,3.12l-11.78.88c-4.47-.08-7.56,1.16-11.37-1.67h-.76c-.48-2.72-1.43-5.74-2.22-8.07l-2.17-1.66-3.26-12.4c-.25-.66-1.36-1.25-1.94-1.34-1.54-.24-25.13,3.41-26.2,4.42-.46,4.97-1.92,8.7-4.36,11.17,1.53.98,1.02,2.5-.03,3.92,1.41,1.69,1.02,2.4-.78,2.95-3.34,13.61-22.87,15.35-30.91,9.69.89-10.81,4.95-23.41,8.25-33.89,3.47-14.58,19.48-94.48,24.27-100.42,1.15-1,2.39-1.88,3.81-1.98,4.52-1.42,12.17-3.32,16.72-4.01,1.82-1.04,3.33-1.04,4.55-.02.63-.07,1.34-.98,1.52-.99.87-.71,1.88-.72,3.03-.02Z"/>
            <path class="cls-8" d="M782.65,99.16c.18.21,2.17,4.82,2.38,5.41,8.6,24.03,16.55,68.61,23.04,95.42,1.7,7.02,5.77,14.66,5.64,22.15-1.27,2.79-20.7,5.01-23.55,3.3l-7.9-25.82c-2.98-4.62-27.44,3.66-33,2.58l-8.8,29.41-21.52,3.55c-2.85-2.64,5.27-24.81,6.22-28.85,5.62-23.7,10.83-47.9,16.42-70.72,2.77-11.31,3.26-30.84,13.01-34.37,4.55-1.64,24.99-5.67,28.06-2.06Z"/>
            <g>
              <path class="cls-5" d="M814.64,224.32c1.19.13,2.5-.54.61,1.27-4.7,4.5-11.14,2.83-16.56,2.74,4.98-2.42,11.42.57,15.96-4Z"/>
              <path class="cls-10" d="M764.73,87.95l3.44-2.01,1.12,1.99c-1.49.17-3.07-.2-4.55.02Z"/>
              <path class="cls-5" d="M775.36,86.65h2.28c.25.03.51-.06.76-.02.66.28.65.6,0,.98-2.06.05-3.78-.94-4.55-.96.49.08,1.02-.05,1.52,0Z"/>
              <path class="cls-10" d="M773.84,86.92c-1-.02-2.03-.04-3.03.02.88-2.47,2.51-.1,3.03-.02Z"/>
              <path class="cls-10" d="M748.01,91.96l-3.81,1.98c2.5-3.11,3.18-1.79,3.81-1.98Z"/>
              <path class="cls-10" d="M778.01,86.9c.74.12,1.53-.11,2.27,0l-.76.97c-.51,0-1.01,0-1.52,0v-.98Z"/>
              <path class="cls-10" d="M777.63,86.64c-.73-.13-1.53.08-2.28.01h2.28Z"/>
              <path class="cls-5" d="M779.9,88.66c.12.16.68-.16.76,0h-.76Z"/>
              <path class="cls-13" d="M746.4,218.77c4.51,1.32.07,3.57-.03,3.92.06-1.3-.06-2.63.03-3.92Z"/>
              <polygon class="cls-11" points="808 203.7 807.99 205.65 804.96 205.66 808 203.7"/>
              <g>
                <path class="cls-11" d="M794.57,219.72c-4.79-9.56-3-26.73-14.22-27.48-4.48-.3-32.56,4.35-36.01,6.78-4.09,2.88-7.08,23.65-9.39,29.8l-9.85,1.05,28.82-121.17,23.94-5.73,29.23,116.68-12.52.06Z"/>
                <g>
                  <path class="cls-8" d="M768.99,116.76l13.31,58.9c-2.05,9.8-27.01,12.12-32.77,9.4-4.73-2.23-3.5-6.19-2.75-11.64,1.09-7.94,6.44-23.1,8.56-31.66,2.48-10,1.58-28.93,13.65-24.99Z"/>
                  <g>
                    <path class="cls-11" d="M765.49,129.09c2.11,7.02,11.32,42.11,10.07,46.69l-21.57,4.54c-2.15-1.23-.84-7.29-.34-9.85,1.15-5.93,4.71-14.98,6.07-21.2,1.16-5.3,2.01-19.01,3.23-23.11.26-.86,1.6-1.17,2.3-1.68-.04,1.62-.24,3.02.24,4.61Z"/>
                    <path class="cls-5" d="M765.39,141.84c3.7,10.28,5.04,21.96,7.86,32.63l-18.22,3.04c3.31-4.46,2.04-8.5,3.2-13.95.16-.77,1.22-.78,1.39-1.55,1.68-7.84,2.54-16.11,4.79-23.79,1.37-.17.42,2.04.98,3.61Z"/>
                  </g>
                </g>
              </g>
            </g>
          </g>
        </g>
        <g>
          <polygon class="cls-13" points="764.54 60.14 765.2 64.52 681.98 82.22 681.31 77.84 764.54 60.14"/>
          <polygon class="cls-13" points="566 110.61 566 114.76 545.61 118.28 545.98 114.77 566 110.61"/>
          <polygon class="cls-13" points="906.66 80.22 907.83 84.36 890.93 87.17 891.26 83.62 906.66 80.22"/>
          <g>
            <path class="cls-10" d="M601.18,107.08c108.89-23.86,218.36-45.31,327.15-69.14l2.57,1.46-1.4,5.4c-.97.39-2.01-1.29-2.91-1.33-4.4-.21-15.34,1.53-19.76,2.78-2.02.57-1.83,2.52-2.13,2.7-.51.33-1.84-.93-2.25-.63-.2.15.86,1.98-1.6,2.62-1.71.44-3.46-.64-3.88-.52-10.13,2.91-20.82,5.44-31.58,7.64-1.09.22-2.33-.74-1.98,1.42-97.98,19.67-195.9,40.56-293.68,61.52l-43.34,8.44-.98-3.47c-.96-.83-4.56,2.34-4.05-.71,26.81-4.71,53.22-12.34,79.83-18.17Z"/>
            <polygon class="cls-4" points="527.16 120.65 526 120.66 526 118.58 527.16 120.65"/>
          </g>
        </g>
      </g>
      <path class="cls-6" d="M989,474.08l.06,33.22-14.58-1.35c-.84-4.19-.63-4.27,0-8.55-2.76-1.64.48-.21-.03-2.52-.04-.19-1.36.64-1.16-1.05.09-.75,1.44.31,1.18-1.38-.1-.68-1.24.37-1.24-2.08s1.11-1.42,1.24-2.08c.28-1.49-1.1-.96-1.19-1.37-.44-1.99,1.3-1.18,1.25-3.47-.04-2.11-1.2-1.75-1.22-2.22-.13-3.76-.43-6.47,1.21-9.74l14.49,2.59Z"/>
      <polygon class="cls-9" points="842.99 672.81 842.74 680.47 836 681.14 835.99 673.52 842.99 672.81"/>
      <path class="cls-9" d="M873,523.64v4.16c-2.35.74-1.98-1.85-2.33-4.15h2.33Z"/>
      <g>
        <rect class="cls-6" x="904.04" y="540.68" width="22.93" height="40.95" transform="translate(-1 1.63) rotate(-.1)"/>
        <polygon class="cls-6" points="897.98 550.41 906.65 551.48 906.01 560.6 898 560.79 897.98 550.41"/>
      </g>
      <g>
        <path class="cls-6" d="M896.42,468.58c.08-.97.38-1.99.26-3.12l1.13-.65,21.22,4.91c1.44,3.63-1.09,7.39-1.03,7.8.13.85,1.15-.33,1.17,1.03,0,.14-1.55-.63-1.17,1.74.84,5.18,1.53,9.71,1.26,15.97-.06,1.4-1.15.71-1.23,1.34-.19,1.56,1.15.96,1.19,1.37.11,1.11-2.33,4.64-1.17,7.28l-21.57-2.04c.72-11.39-1.03-24.46-.06-35.65Z"/>
        <polygon class="cls-9" points="905.52 477.02 906.11 483.94 899.26 483.09 899.07 477.34 905.52 477.02"/>
      </g>
      <g>
        <path class="cls-6" d="M972.31,576.69c-.31,0-1.24,1.08-2.04.69,1.2-3.27-1.14-5.55-1.19-5.88-.22-1.57,1.12-.83,1.18-1.47.28-2.95-1.45-1.93-1.24-4.07.12-1.21,1.67-1.22,1.26-5.62-.2-2.16-1.21-1.49-1.26-2.64-.28-6.4.83-11.01,1.25-16.91l16.58-.75-1.1,35.99c-5.09.61-9.28.69-13.46.66Z"/>
        <path class="cls-6" d="M973.72,549l5.11.85,1.91,8.48c-1.61,2.25-8.32,3.99-10.45,2.01l3.43-11.34Z"/>
      </g>
      <path d="M709.81,350l.5-4.38,17.24-1.38,9.55-2.85c-9.2.47-18.63,1.13-27.75,2.9-2.68.52-.99,4.82.47,5.71Z"/>
      <path class="cls-6" d="M992,611.88l.06,33.22-14.58-1.35c-.84-4.19-.63-4.27,0-8.55-2.76-1.64.48-.21-.03-2.52-.04-.19-1.36.64-1.16-1.05.09-.75,1.44.31,1.18-1.38-.1-.68-1.24.37-1.24-2.08s1.11-1.42,1.24-2.08c.28-1.49-1.1-.96-1.19-1.37-.44-1.99,1.3-1.18,1.25-3.47-.04-2.11-1.2-1.75-1.22-2.22-.13-3.76-.43-6.47,1.21-9.74l14.49,2.59Z"/>
      <g>
        <rect class="cls-6" x="902.04" y="666.68" width="22.93" height="40.95" transform="translate(-1.22 1.62) rotate(-.1)"/>
        <polygon class="cls-6" points="905.98 677.23 914.65 678.3 914.01 687.42 906 687.61 905.98 677.23"/>
      </g>
      <g>
        <path class="cls-6" d="M899.1,606.38c.08-.97.38-1.99.26-3.12l1.13-.65,21.22,4.91c1.44,3.63-1.09,7.39-1.03,7.8.13.85,1.15-.33,1.17,1.03,0,.14-1.55-.63-1.17,1.74.84,5.18,1.53,9.71,1.26,15.97-.06,1.4-1.15.71-1.23,1.34-.19,1.56,1.15.96,1.19,1.37.11,1.11-2.33,4.64-1.17,7.28l-21.57-2.04c.72-11.39-1.03-24.46-.06-35.65Z"/>
        <polygon class="cls-9" points="908.2 614.82 908.79 621.74 901.94 620.89 901.75 615.14 908.2 614.82"/>
      </g>
      <g>
        <path class="cls-6" d="M975.38,706.67c-.31,0-1.24,1.08-2.04.69,1.2-3.27-1.14-5.55-1.19-5.88-.22-1.57,1.12-.83,1.18-1.47.28-2.95-1.45-1.93-1.24-4.07.12-1.21,1.67-1.22,1.26-5.62-.2-2.16-1.21-1.49-1.26-2.64-.28-6.4.83-11.01,1.25-16.91l16.58-.75-1.1,35.99c-5.09.61-9.28.69-13.46.66Z"/>
        <path class="cls-6" d="M976.79,678.98l5.11.85,1.91,8.48c-1.61,2.25-8.32,3.99-10.45,2.01l3.43-11.34Z"/>
      </g>
      <g>
        <rect class="cls-6" x="671.93" y="744.12" width="26.66" height="40.87" transform="translate(1.33 -1.19) rotate(.1)"/>
        <polygon class="cls-7" points="678.02 748.16 695.86 754.98 696.61 764.1 678 758.54 678.02 748.16"/>
      </g>
      <g>
        <rect class="cls-6" x="814.92" y="742.12" width="22.73" height="40.87" transform="translate(1.35 -1.46) rotate(.1)"/>
        <polygon class="cls-7" points="822.02 751.45 834.79 752.53 835.44 761.65 822 761.83 822.02 751.45"/>
      </g>
      <g>
        <rect class="cls-6" x="539.64" y="746.77" width="22.73" height="40.87" transform="translate(1.35 -.97) rotate(.1)"/>
        <polygon class="cls-7" points="551.02 759.79 559.88 757.62 560.52 766.74 551 770.18 551.02 759.79"/>
      </g>
      <g>
        <path class="cls-6" d="M986.6,776.89c.31,0,1.24,1.08,2.04.69-1.2-3.27,1.14-5.55,1.19-5.88.22-1.57-1.12-.83-1.18-1.47-.28-2.95,1.45-1.93,1.24-4.07-.12-1.21-1.67-1.22-1.26-5.62.2-2.16,1.21-1.49,1.26-2.64.28-6.4-.83-11.01-1.25-16.91l-16.58-.75,1.1,35.99c5.09.61,9.28.69,13.46.66Z"/>
        <path class="cls-7" d="M985.2,749.2l-5.11.85-1.91,8.48c1.61,2.25,8.32,3.99,10.45,2.01l-3.43-11.34Z"/>
      </g>
      <g>
        <rect class="cls-6" x="742.01" y="740.42" width="22.73" height="40.87" transform="translate(1.34 -1.33) rotate(.1)"/>
        <polygon class="cls-7" points="751.02 746.71 742.35 747.78 742.99 756.9 751 757.09 751.02 746.71"/>
      </g>
      <g>
        <rect class="cls-6" x="473.77" y="746.25" width="22.73" height="40.87" transform="translate(1.35 -.86) rotate(.1)"/>
        <polygon class="cls-6" points="482.02 749.58 494.05 757.11 494.69 766.23 482 759.96 482.02 749.58"/>
      </g>
      <g>
        <rect class="cls-6" x="905.04" y="741.68" width="22.93" height="40.95" transform="translate(-1.35 1.63) rotate(-.1)"/>
        <path class="cls-7" d="M899.21,751.07l8.67,1.07,6.09,3.53c2.86,1.66,1.65,6.03-1.66,5.98l-5.23-.08-7.88-10.5Z"/>
      </g>
      <g>
        <rect class="cls-6" x="609.45" y="743.07" width="22.73" height="40.87" transform="translate(1.35 -1.09) rotate(.1)"/>
        <polygon class="cls-7" points="622.02 750.01 630.18 753.93 630.83 763.05 622 760.4 622.02 750.01"/>
      </g>
    </g>
    <path d="M871.48,387.71c-.33-.27-.65-.55-.98-.83-1.57.07-2.88.24-3.97.68,1.76.16,3.52.3,5.27.42-.11-.09-.22-.18-.33-.27Z"/>
    <path d="M894.56,389.02c3.47.08,6.94.13,10.41.17-1.61-.99-3.11-1.99-4.24-3.09-1.14-1.1-.55-3.93-1.1-3.55-1.13.99-1.87,4.06-2.86,4.82-.59.46-1.66.72-3.01.84.31.23.58.51.8.81Z"/>
    <path class="cls-12" d="M470.05,731.09c1.36-9.1-3.23-12.77-10.7-13.61-.62-.15-1.29-.74-1.9-1.49.86.78,2.02,1.28,3,1.36l354.18-8.04c4.33-18.39,6.24,17.01,8.3,15.64,4.61-3.07,8.37-7.78,8.41,1.07.04,7.88-2.88-198.96-.79-287.58-1.2-4.68-4.31-8.5-8.41-9.63-85.16,5.99-170.5,11.31-256.04,15.96-31.92,2.18-64.96,5.17-96.01,8.76-2.53.29-4.93,1.01-6.95,2.19,1.61-1.03,3.38-1.86,5.11-2.63,1.21-1.08,1.53-2.5.29-3.59-1.06-.93-23.16.84-26.28,1.28-.48.07-.71,1.19-.84,1.95l-.78.66c.53,69.99.5,139.96-.09,209.88-.33-3.03-.39-6.1-.11-9.21l-.8-.48c-.37-.38-.65-.22-.85.13.19-2.89,0-8.23-.98-8-.24.1-.48.2-.72.3.07,2.17.13,4.31.2,6.41.86,27.47,1.6,53.27,7.49,80.11M458.68,460.22c-.18.33-.35.67-.5,1.03.15-.36.32-.7.5-1.03ZM458.16,461.28c-.17.4-.31.83-.44,1.27.12-.44.27-.87.44-1.27ZM457.68,462.72c-.09.34-.16.7-.23,1.06.06-.37.14-.72.23-1.06ZM457.35,464.44c-.02.12-.03.25-.04.38.01-.13.02-.25.04-.38ZM456,597.7v-130.26c1.25.58,1.31,1.18,2,1.79v129.11c-2.74,15.63-2.22,30.91-.76,45.82-1.49-15.13-2.01-30.61-1.24-46.46ZM455.65,712.57c-.29-1.29-1.16-26.29-.08-26.69.23-.09.53.05.83.25-.47.18-.84.38-.87.63-.77,6.31-.21,18.77.11,25.48,0,.11.33.2.74.29-.2.64-.19,1.23-.03,1.77-.33-.63-.59-1.24-.7-1.73Z"/>
  </g>
</svg>