<?xml version="1.0" encoding="UTF-8"?>
<svg id="Layer_2" data-name="Layer 2" xmlns="http://www.w3.org/2000/svg" viewBox="0 0 410.84 375.33">
  <defs>
    <style>
      .cls-1 {
        fill: #fff;
      }
    </style>
  </defs>
  <g id="Layer_1-2" data-name="Layer 1">
    <g>
      <path d="M391.94,253.66c1.18-13.96,2.23-27.94,2.65-41.94.39-13.31-.32-26.61.56-39.91.3-4.48.72-8.93,1.22-13.38l-39.22,10.57,1.49-2.97c9.47-1.09,18.5-3.9,27.59-6.28,1.47-.38,2.51.62,2.07-1.65l-30.71,7.04-1.34-.03v-7.02s40.91-6.15,40.91-6.15c2.61-19.75,6.72-39.3,9.82-58.97,2.07-13.12,3.61-26.35,3.85-39.64.11-6.08-.38-12.03-1.08-17.94l-5.04-1.06-.39-7.06-1.27,7.05-4.06.73c-.08-7.14.07-14.3.04-21.45-.01-2.13-1.82-3.82.81-5.42.05-2.2-25.95-5.65-29.61-6.63C369.12,1.26,369.99,0,369.16,0l-1.02,1.59c-11.75.04-23.59.73-35,3.13-.14,2.95.06,5.92-.08,8.88-.16,3.2.1,3.71.09,6.23-.01,11.94-.3,23.83,0,35.78l-13.73,1.37-1.34,1.17-.13,36.1-2.04-.98-9.53-11.47c2.68,9,13.72,13.19,10.67,24.14l-6.23-.79c-.39-.3.89-.99.89-1.16v-11.68c0-.14-1.2-1.23-1.78-1.17v14.02l-2.23-3.12-2.22,3.12c-.21-3.23.26-6.54.03-9.76-.85-12.1-.95-24.36-2.82-36.47-.38-2.49-1.07-5.04-1.68-7.49l-.79,6.62c-1.53,2.18-3.1,11.32-1,12.5l2.63-.43c.54,2.14,2.68,5.74-.82,6.61,2.14.09,3.99,4.05,2.22,4.29-3.19.43-1.33-1.33-3.1-1.56l.88,24.92h-2.66v-9.35s-1.76,9.01-1.76,9.01l-10.71-.45v-11.68h-.89v11.68h-1.78v-12.07c0-.49,8.5-6.03,7.12-7.39-1.31-1.29-4.88,5.29-7.11,4.66l-.05-9.69-2.61-5.1-.91,28.8c-1.36-.08-1.77-3.5-1.8-4.32-.07-1.63.07-2.78.92-4.23-3.84-.85,0,5.54-3.11,4.67-.71-.2-.12-.78-1.2-1.5-.93-.62-2.78.83-1.93-3.18-1.75-.24-.49,1.87-.89,2.34-.25.3-4.61-3.08-6.22-2.33,2.42,2.33,1.85,4.83,1.78,7.78h-2.66c.15-3.93-3.32-6.63,1.78-9.34l-3.15-.75-15.1-13.26c-2.19,1.29.28,2.8.47,5.03.27,3.13,1.52,21.27-6.32,16.42l-.84-4.33c-2.27.16-1.52,3.68-1.77,3.9h-8.01c-.15-10.49.49-21.05,0-31.55-.04-.95.67-2.9-.88-2.71l.07,19.14-1.86,1.49c3.79,3.18.71,8.79,1.78,12.85h-3.56s-.01-16.34-.01-16.34l-1.75.37.87,15.98-8.01-.77v-22.19c0-.17-1.52-1.42-1.77-1.17-.48,1.07.88,1.79.88,1.95v21.42h-1.77c.42-.98-.9-2.29-.9-2.73v-20.64h-.89v22.58h-4.46s-3.55-71.64-3.55-71.64c2.65-.4,1.41.61,1.87,1.82,6.22,16.2,21.62,35.13,33.1,47.8.88.97,4.59,2.41,5.54,4.1.66.12.6-.79.43-1.15-1.15-2.47-7.16-7.28-9.28-9.79-10.08-11.91-26.02-33.69-31.17-47.49-.72-1.94.07-4.72-1.38-5.81l-4.45-1.17c-.82.84,2.38,3.19-4.41,4.32-4.15.7-8.34.23-12.51.35l.91-5.05c-1.7-1.66-1.59.59-2.49,1.1-1.43.8-3.91,1.7-5.52,2.41v.76c3.32-.34,1.16,2.55,1.38,4.33.14,1.16.26,2.32.36,3.48-2.84,1.28-2.62,4.71-4.06,6.92-2.12,3.27-6,6.55-7.91,10.1l.44,22.91-5.36,4.05,5.35-2.72v26.48l-2.68-2.33-.89,2.34-6.1-1.27-.19-18.55c2.27-.67,3.38-.64,3.63-3.15l-3.57,1.94v-15.57h-.89v15.96l-8.9,4.28c.69-1.16.89-2.14.94-3.45.04-1.1.66-4.84-.93-5.1l-1.06,10.03c-1.43.41-6.36,2.23-6.96,3.21,6.96-1.31,10.6-4.6,16.92-7.01v17.91l-8.01-.78v-11.68c-3.6,2.33-1.04,8.21-1.79,11.68-1.1,1.27-1.61-.01-1.78-1.15-.41-2.78.3-6.11,0-8.97l-1.69,9.75c-2.25,1.04-5.82.32-7.68-1.14,1.27-1.84-1.56-6.99,1.8-7.06l1.34,7.01c.22-2.82-.7-6,.9-8.56-1.48.28-2.88.91-4.45.77l.73-1.91-1.61-9.76-.91,20.24c-2.26-2.02-4.21-.61-7.11-.78l-.05-3.45,7.17-2.78-7.11,1.56-.88-2.34-2.68,3.89v-11.29c2.56-2.09,10.98-4.82,12.92-6.61,1.02-.94.52-2.04-.89-1.56-3.7,3.37-12.98,5.41-16.45,8.2-.81.65-1.2.79-.92,1.92l4.44-1.56v11.68l-10.68,1.56v17.91l62.77,2.33,1.83.73-1.4,23.41-3.52-.81.66-1.13-2.47-.4,3.55-.77c.13-3.1-2.48-4.47-.9-7.77-6.54-2.8-16.45-4.61-14.3,4.57l-3.49.85c1.98-5.36-.93-10.78,0-16.35-3.99.93-25.88-3.2-26.72-.23l-.92,19.66-6.06-.85c-1-1.41,1.26-6.1-1.46-7.67l-.66,6.03-6.91.97v147.18h279.57c.57-7.86,1.17-15.72,1.83-23.58ZM402.55,56.85l4.45.79-.91,2.32,3.14.78-.9,1.54-6.69-1.54.9-3.89ZM390.97,81.77c-3.03.23-7.68.36-5.78-3.11h5.79s0,3.11,0,3.11ZM391.86,56.08l-.81,3.52-6.32.38v-3.9s7.13,0,7.13,0ZM379.39,142.52h4.46v3.9h-4.46v-3.9ZM132.79,117.6c-2.9-1.91,5.82-1.63,6.72-1.59,1.55.07,5.31-.13,5.75,1.59h-12.46ZM169.26,218.42c-1.39.93-13.02,5.64-15.1,6.25-1.56.46-5.13,1.59-6.23,0-.48-2.27,15.83-8.45,18.47-8.8,1.01-.13,1.99-.42,2.91.23,1.26.93,1.3,1.42-.05,2.32ZM177.3,94.24l-8.5-.28-1.07-.96c.46-8.07-1.28-17.76-.27-25.67.17-1.37.52-2.24,1.83-3.08l-1.86-1.49c.59-5.32-.52-11.22.04-16.45.51-4.81,5.91-8.91,8.18-13.13,1.26-2.35,2.15-4.79,2.52-7.37,1.39,15.73-.42,32.01-.9,47.76-.21,6.88.23,13.8.03,20.67ZM300.16,116.04c1.97,2.86-5.24,8.15-7.5,7.84l-7.63-7.84h15.13ZM284.57,121.49c1.08-1.98,1.28.07,1.71.42,4.79,3.85,5.48,6.32-2.14,7.37-.31-.28.06-7.12.43-7.78ZM269.88,96.59c.03,3.32,5.61.7,4.47,4.65l2.66-1.55v3.11c-2.2-.85-4.32.55-4.46-2.34l-1.44,1.57h-2.99s0-5.07,0-5.07l1.77-.38ZM257.43,89.57l4.91,3.09.43,8.58-3.11-3.9-2.23,3.9v-11.68ZM249.42,82.56l7.12,5.84v11.68c-2.32,1.74-5.14.89-4-1.94l-3.12,2.33v-17.91ZM278.85,114.83c2.2,1.34.36,16.43-1.95,18.64-5.6,5.33-3.3-7.42-4.8-10.39-1.29-2.55-5.45-3.29-6.4-4.14-.58-.51-.43-1.9-1.06-2.55-2.25-2.31-8.51-1.27-11.65-1.12.66,2.91,10.68.74,10.67,2.72l-10.68,1.95-.89,12.45h-6.22c.19-5.41.56-9.08-6.23-10.52-5.33-1.13-19.03-1.04-24.04.4.83-.12,1.81.07,2.67,0l-.89,3.1,3.57,1.56-5.34,1.57-1.81-5.05c.44-.07,1.7-1.17,1.81-1.19-.61.17-1.81-.24-2.6.04l-.08,9.31c-.18.22-1.14-.41-1.34-.77-1.88-3.34.7-14.88-1.32-19.48l68.61,3.45ZM201.34,82.95v13.63c-1.43.09-3.57-.76-4.08-1.93-.4-.92-.28-10.64-.36-12.49-.04-.95.67-2.89-.89-2.71v16.35l-5.84-.27-1.08-1.02c.1-7.29-3.69-17.54,2.92-22.85.61,2.26,9.35,10.47,9.35,11.29ZM193.48,69.05l7.86-10.64v20.25c-2.71-1.46-4.74-4.21-4.46-7.01l-1.63.66-1.78-3.25ZM187.11,68.54c.53,3.21-1.54,5.88-3.12,8.56l-1.35-15.17,1.78-.4,5.36,8.17-2.67-1.16ZM186.22,77.89h.88s0,17.13,0,17.13h-3.56v-12.85c0-.24,3.2-2.81,2.68-4.28ZM184.41,116.83c.27.2,3.79,5.17,3.57,5.43l-5.33,3.13v-8.17s1.75-.39,1.75-.39ZM184.43,110.6c4.99.23,12.2-.96,16.02,2.32l-9.34,4.7-6.69-7.02ZM203.12,116.83l-.44,12.45-7.59-8.16,8.03-4.29ZM200.45,28.82c.17,5.82-.23,11.7,0,17.52,0,.19,1.69,1.04.44,1.17h-1.31c-1.61-3.62-3.63-5.88-2.69-10.12l-.89,3.89c-1.4.07-1.91-2.84-1.83-3.52.2-1.74,2-1.51,2.48-2.14,1.02-1.35.66-5.89,3.81-6.8ZM196.89,27.27c.51.4-4.44,8.87-6.21,7.78l-2.31-7.04,8.52-.74ZM187.98,47.7c.56-.92.34-2.52.95-3.49.57-.89,3.1-1.47,2.63-3.7l7.11,9.34-13.34.79c-.52-1.98,1.95-1.76,2.65-2.93ZM183.55,29.98c.16-1.05.47-2.38,1.76-1.16,2.36,5.46,3.75,11.31-.35,16.45-.75.94-.04,1.9-2.3,1.46.84-5.37.1-11.52.9-16.75ZM184.01,54.51c5.18.09,10.35.08,15.55.02l-7.14,12.45c-.41.33-1.23.1-1.84-.49-2.45-2.35-5.2-8.23-7.93-10.82-.21-1.37-.04-1.19,1.35-1.17ZM185.31,130.84l-2.66,2.34c-.8-4.25,5.1-6.35,8.45-8.59,1.3,0,5.28,3.66,6.34,4.7,1.07,1.06.44,1.95.63,2.17.6.68,3.11,1.03,3.28,2.51h-16.02v-3.12ZM187.99,139.01c-.22-2.39.96-.38,1.33-.38h13.8c-.19,4.29-5.37.66-7.59.7-2.78.05-4.35,3.26-7.54-.32ZM216.73,199.98c-5.33,1.97-12.42,2.72-18.05,4.06-.46-2.01.49-1.36,1.73-1.95,5.9-2.8,12.82-4.92,19.62-5.05.31,1.92-1.76,2.37-3.3,2.94ZM240.51,204.04l-1.32-2.07c1.17-4.48-.61-9.27.12-13.58.14-.85-.19-2.45,1.2-2.26v17.91ZM214.93,189.84c-1.6.34-3.34.03-4.93.36-3.52.74-6.54,3.42-11.33,2.16l4.08-2.22,37.76-7.9v2.33c-8.81.35-17.14,3.46-25.59,5.27ZM243.19,201.7v-6.23c1.24.07,1.35,1.48,2.08,2.06,1,.8,2.44,1.16,3.24,2.22l-5.32,1.94ZM251.2,204.81l.91-3.1c5.25,2.79,6.43-5.42,10.66-.8l-11.57,3.9ZM268.91,193.84l-19.5,5.52.88-5,2.68-.44c.75-3.38-3.55-.14-4.45-.78,1.66-5.12,12.07-2.67,10.68-6.99,3.33-.02,2.53,1.89,1.78,3.88h2.67s-.11-2.75-.11-2.75l3.67-1.13-1.76,2.72c1.21,1.65,1.86.66,3.54.38l-.09,4.6ZM269.9,185.35c-.43-2.16.51-1.31,1.95-1.75,3.2-.99,7.13-1.63,10.5-2.13.57,2.04-1.55,1.84-3.08,2.33-2.94.94-6.21,1.67-9.37,1.56ZM279.71,188.06l-1.79-2.32c2.9-1.99,6.26-.5,5.33-5.05-7.06-1.2-12.9,3.1-19.13,4.67l.43-2.34c-2.53,1.02-8.53,2.96-8.9-.78l8.91-1.16,20.46-5.84-41.83,8.56c-.28-2.16.06-3.73,2.65-4.29l30.28-5.05-.89-3.1h2.68s-.9,1.54-.9,1.54c1.88,1.48,13.64-2.28,16.68-2.93,2.25-.48,5.57.58,6.47-1.73l-1.78-.78c2.69.11,5.51.21,7.57-1.56.76.83.74,3.8.21,4.53-.28.38-1.7-.19-1.57.53,4.29,1.79,1.43,7.07,1.79,10.51-7.03.62-14.19,4.05-20.93,6.22l-.42-1.54h-2.68s.53,2.37.53,2.37l-4.57,1.49c-3.49-.07,1.42-1.46,1.4-1.93ZM305.84,185.26c-1.77.95-5.5,1.95-7.69,2.71-1.29.45-2.73-.23-3.17-.07-.18.07-.85,1.69-2.92,2.42-3.09,1.09-8.64,3.42-11.48,4.01-6.78,1.41-2.03-2.12,2.44-3.37,6.04-1.69,12.88-4.28,20.18-6.44,1.07-.32,2.03-.67,2.74-1.49,1.55,1.1,1.68,1.28-.11,2.23ZM357.15,71.66l-.89-2.34c-.18,1.08,1.01,2.21-1.29,2.36-3.61.24-7.53-.24-11.17-.04,1.41-5.96,11.61-1.53,16.5-3.71l1.3,2.93-4.45.79ZM350.01,87.23h-6.22s0-3.11,0-3.11l5.37.37.86,2.74ZM367.84,86.86l-5.37.37v-3.11s6.23,0,6.23,0l-.86,2.74ZM368.16,67.03c1.94.34,1.24,3.26.41,3.72-4.48,2.49-10.95-4.12-.41-3.72ZM346.09,10.99c2.14-.29,15.77-1.33,16.39-.85-.81,4.74-11.3,3.35-16.04,3.55-4.82.2-5.11-2.05-.34-2.7ZM355.35,167.44l-.61,2.32c-15.72,3.34-30.56,9.04-45.24,14.8l-.3-3c4.05-1.37,8.75-2.4,12.67-3.96.57-.23.51-.8.56-.82-4.42,1.06-8.93,2.03-13.35,3.11v-14.01s1.38,1.59,1.38,1.59l13.75-2.38-6.22-1.54c7.37-.4,14.54-2.39,21.84-3.13,3.4-.34,5.2.3,8.43-.34,5.13-1.01,8.68-2.91,7.09,4.61-.72,3.39-5.74,2.2-8.68,3.01-6.84,1.89-16.96,6.3-24.24,9.09,11.05-2.65,22.52-5.37,32.93-9.34ZM351.57,101.2c-.79-.3-.74-2.65-2.41-1.47-.11.08.23,1.34-.61,1.53-1.34.31-3.29-.17-4.77-.02v-2.33s4.08.7,4.08.7c.58-2.18,5.81-.63,8.39-1.48v3.89c-1.37-.38-3.53-.38-4.67-.82Z"/>
      <g>
        <path d="M205.94,175.34c3.2,1.09,10.38-1.45,14.26-1.19,3.43-.02,1.25.96-.29,1.22-4.02.69-8.35.56-12.22,1.03-1.57.19-2.99.96-4.97,1.19-3.5.42-7.24.85-10.69,1.24-5.87.66-11.92.7-17.72,1.55-.97-3.51,2.25-1.53,5.97-1.75,2.59-.16,5.23-1.09,7.98-1.01l-1.17-2.06c3,.49,7.48-.55,9.89-.37,1.95.14,8.15,2.9,5.22-.31l2.91-.72c.43-.08.52,1.08.81,1.18Z"/>
        <path d="M225.44,176.25c.3.92-2.12,1.08-3.19,1.2-5.82.63-11.88.96-17.72,1.55-.29-.95,2.09-1.04,3.21-1.18,5.77-.71,11.77-1.49,17.7-1.57Z"/>
        <rect x="88.32" y="81.67" width="1.16" height="16.57"/>
        <rect x="92.97" y="85.12" width="1.16" height="13.12"/>
        <rect x="99.94" y="101.69" width="1.16" height="11.74"/>
        <path d="M343.89,371.97l1.3,3.36-3.01-2.81-10.92.04c-.27-1.21,2.63-.64,4.05-.68,1.63-.05,8.07-.19,8.58.09Z"/>
        <rect x="84.83" y="128.61" width="1.16" height="9.66"/>
        <path d="M320.73,170.02c.28.2.07,4.27,0,5.19-.06.84.88,2.56-1.15,2.41-.53-1.92.71-4.74.03-6.47-.32-.82-2.86.03-2.36-1.12h3.48Z"/>
        <path d="M73.21,126.54c.27,1.21-2.64.65-4.05.68-3.28.08-6.61-.05-9.88,0-.27-1.21,2.64-.65,4.05-.68,3.28-.08,6.61.05,9.88,0Z"/>
        <path d="M73.21,163.13l-9.28,2.06c-.23-2.78,6.4-1.75,9.28-2.06Z"/>
        <polygon points="184.96 162.96 194.06 163.81 183.6 163.81 184.19 161.74 184.96 162.96"/>
        <rect x="91.8" y="134.13" width="1.17" height="7.59"/>
        <path d="M202.2,179.01c-.77,1.41-6.1,1.21-8.13,1.37,1.13-1.95,5.27-1.34,8.13-1.37Z"/>
        <rect x="92.96" y="107.21" width="1.17" height="6.9"/>
        <polygon points="323.06 104.44 323.05 107.9 321.9 105.13 316.09 105.13 323.06 104.44"/>
        <path d="M384.68,175.87c-7.67,1.64-17.24,3.57-19.76,4.18-33.01,8-65.56,16.82-98.02,25.3-20.06,5.24-41.46,8.86-59.49,16.44-2.76.66-1.99-2.61-1.18-3.48,1.23-1.32,6.69,1.52,6.42-.99l-5.8-.7c8.45-3.05,19.17-6.58,28.44-8.65,9.76-2.17,9.86-1.18,18.86-4.65,12.21-4.7,41.59-10.25,56.17-13.6,1.53-.35,6.5-.86,6.92-1.07.25-.13-2.82-3.24-3.96-2.77-9.47,2.45-19.6,4.01-29.21,6.2-44.13,10.05-92.11,23.32-133.4,36.73-2.71.88-9.97,4.51-12.01,4.62-1.38.07-4.19-1.24-3.31-1.98,5.07-.95,9.74-5.16,14.54-3.45-3.47-2.09,7.67-5.71,9.79-5.57.95.06,1.84,3.09,4.14,2.12.43-.18,3.69-4.67,4.24-4.89,1.42-.56,4.89-.58,7.04-1.19,36.23-10.28,72.22-20.17,109.59-28.78,10.82-2.49,21.59-5.35,32.58-7.57,17.11-3.45,35.08-5.97,52.25-9.35l-3.79-.53c-35.7,6.83-71.72,12.96-106,21.95-1.04-2.3-2.86-17.34-1.75-17.96.16-.09,2.97.34,4.42.24,8.98-.61,20.35-2.16,29.48-3.22,1.51-.17,5.63-.11,5.6-1.15-13.34.07-26.2,2.88-39.51,3.45v-15.19c-4.52-.55-1.18,3.49-1.1,5.15.12,2.44-.73,4.73-.94,7.12-.08.89.88,1.96.72,2.52-.52,1.72-10.26,1.19-12.91,1.81-1.14.27-.5,1.4-2.57,1.43-2.44.03-5.11-.92-6.86-.8-.76.05-.66,1.08-1.6,1.37-1.31.41-7.89,1.07-8.45.73,3.31-2.92-4.83-.37-6.65-.15-4.48.55-7.79-.97-4.97,2.22l-5.15-1.43c-4.51.2-33.08,4.91-34.35,4.19-.45-.26.15-1.45,1.14-1.73l11.63-1.71c-2.04-.1-4.05-.02-6.08.17-5.08.48-7.86,2.65-7.86-1.91v-14.5c0-.15,2.38-1.34.57-1.73-5.68,1.1-1.84,6.47-1.68,9.29.07,1.19-.57,7.5-1.22,7.98-.27.2-6.7-.51-8.54-.43-1.14.05-4.08,1.16-6.01.99-.71-.06-.41-1.17-1.28-1.28-2.97-.4-51.68,6.53-59.4,7.46-8.33,1-16.46,2.29-24.66,3.3-9.99,1.22-20.36,1.58-30.26,3.08v-28.99c-2.68-.07-2.12-.27-2.29,1.04-.22,1.75-1.01,3.28-1.2,4.83-.94,7.72.69,16.04,0,23.82-3.35-.03-36.03,2.36-36.03,3.45v14.5l36.02-6.21v53.85c-2.4.13-.35-1.76-1.41-2.62-.38-.31-2.02-.33-2.59-.84-.82-.73-.85-3.45-2.39-3.43-.27,0-1.89,1.57-4.58,1.42-.44-.03-5.25-5.22-6.45-2.31-1.03,2.49-2.95,2.42-6.8,3.42-3.56.92-8.41,2.19-11.8.92v20.02s16.26,0,16.26,0c2.73-1.06,5.06-1.06,6.97,0h174.31l2.32-.82.1-34.9c10.77-4.22,21.57-8.39,32.41-12.49,9.99-.31,12.28,20.67,7.58,24.4,2.21,3.59,2.47,7.51.8,11.77,1.62,4.52,1.88,5.43-5.41,7.04-8.32-2.16-26.16,2.45-11.07,5.01h148.92c2.4-33.54,13.07-66.86,11.48-100.47Z"/>
        <path class="cls-1" d="M278.89,235.61c-.86-.51.05-11.73.06-13.5,0-1.49-1.23-2.8-1.23-4.11,0-.91,1.05-6.02,1.41-6.77.65-1.38,10.74-5.56,12.91-5.24,2.75.41,10.26,7.69,10.98,9.42.66,1.59,1.36,6.82,1.5,8.77.18,2.38,1.12,10.52-3.14,11.31-2.17.4-21.68.59-22.48.12Z"/>
        <path class="cls-1" d="M343.87,230.02c-.89.44-5.11-.29-5.66.12-.76.56,1.5,2.56-2.37,2.01l1.16-2.75h-6.97s1.17-29.34,1.17-29.34l3.49-3.8c8.04,3.19,9.73,5.79,10.44,11.39.45,3.54,1.27,9.1,1.27,12.43,0,1.17-1.88,9.62-2.53,9.95Z"/>
        <path class="cls-1" d="M353.27,260.46c-.31.17-7.51-.06-8.4-.12-6.33-.47-4.86-.09-9.35-.05-.94,0-8.45-.46-8.82-.62s-1.7-2.44-1.32-2.67c.66-.39,4.2.6,5.41.65,6.22.22,12.01.19,18.43.04,2.34-.06,2.43-.5,1.72-1.72-1.06-1.8-5.56.46-8.21-.65-1.41-.59-1.03-2.21-1.09-3.15-2.27-.21-.61,1.56-1.17,2.07-.5.45-6.87-.86-8.63-.71-2.91.25-6.11,3.56-6.45-1.36,5.93,1.73,4.74-.89,6.96-1.76,2.35-.92,5.13.35,7.61.41,2.18.05,4.28-.49,5.82-.43,4.62.16,4.72,3.59,5.16-2.02.07-.84-.88-2.57,1.15-2.41l1.17,14.49Z"/>
        <path class="cls-1" d="M346.29,261.84c.69.4-1.38,2.74-2.35,3.12s-2.46-.11-3.53.06c-1.35.21-2.53.83-4.04.92-1.9.12-19.47-.3-20.29-.65-4.24-1.8,2.03-.75,2.13-.82,8.11-5.31,14.47-.93,22.88-1.57,1.07-.08,4.02-1.73,5.2-1.05Z"/>
        <path class="cls-1" d="M130.15,185.22c2.1,1.04-1.42,1.48-2.32,1.69-5.81,1.31-25.5,3.03-32,3.17-2.06.05-3.84.03-5.17-1.07,7.16-1.76,16.29-1.08,23.77-1.75,2.5-.23,14.07-2.86,15.73-2.04Z"/>
        <path class="cls-1" d="M169.66,181.08c.53,1.95-.65,1.17-2.7,1.47-10.53,1.55-21.64,1.76-32.15,3.36-.36-1.38.88-1.81,2.92-2.05,10.21-1.21,21.63-1.47,31.92-2.78Z"/>
        <path class="cls-1" d="M169.67,185.21c-.29.15-5.72-.08-7.45.07-8.59.72-17.48,3-26.26,3.38.36-.86,1.84-1.59,3.19-1.89,8.32-1.88,21.44-1.01,29.94-3.61l.57,2.06Z"/>
        <path class="cls-1" d="M68.56,196.94l-20.64,4.03c-4.6-1.09-9.3,2.49-6.57-1.32,8.31-.47,16.04-2.48,24.03-3.6,1.89-.26,2.37-.6,3.17.89Z"/>
        <path class="cls-1" d="M88.32,193.51c-4.52,2.82-12.87,2.2-18.58,3.45-3.91-2.53,16.06-4.08,18.58-3.45Z"/>
        <polygon class="cls-1" points="116.12 189.63 116.45 191.38 102.36 192.31 102.03 190.56 116.12 189.63"/>
        <path class="cls-1" d="M133.64,187.98c-2.08,1.59-11.21,3.38-13.94,1.72,4.45-.9,9.15-1.85,13.94-1.72Z"/>
        <path class="cls-1" d="M166.91,190.28c.33.22.53,4.86.53,5.87.02,3.02.07,22.21-1.05,23.16-.53.44-13.68,3.84-16.35,4.79-22.17,7.9-50.78,17.51-70.58,26.96-.84.4-.88,1.2-1.05,1.27-.98.37-2.73-.63-3.81-.63-.76,0-.47,1.4-1.38,1.4s-1.73-.7-2.79-.36c-1.28.42.2,1.65-1.1,2.12-1.14.41-3.17-.67-3.49-.37-.28.26.45,1.44-.23,1.91-.21.15-4.29.98-5.97,1.67-3.24,1.34-13.07,5.53-12.46,7.81.11.41,4.05.11,1.83,1.75-1.49,1.1-10.11,3.48-12.22,5.5-.78-1.96-1.62-5.7.29-7.41.44-.39,2.3-.63,3.19-1.18,23.43-14.24,55.16-26.52,83.95-36.48,3.56-1.23,14.06-2.43,14.82-4.98.31-1.04.01-1.21-1.72-1.02-14.74,5.31-31.11,9.67-45.82,14.9s-29.22,11.59-42.67,17.43l-12.06,4.94,1.66-51.13c18.75-2.6,37.45-5.45,56.2-8.05,11.47-1.59,23.08-2.9,34.17-4.54,7.43-1.1,12.3-2.12,18.65-2.65,2.8-.23,18.28-3.43,19.47-2.66Z"/>
        <path d="M76.69,204.55l-9.54,2.27-9.05,1.17c.32-1.14,2.24-1.26,3.73-1.57,4.65-.97,10-2.1,14.86-1.87Z"/>
        <path class="cls-1" d="M256.82,194.53l-83.66,21.05c1.03-9.55-1.48-19.36.1-28.93l81.19-9.45c.86-.38,2.38.56,2.38.76v16.57Z"/>
        <path d="M192.9,205.93c2.47,1.24-9.37,4.01-10.45,3.45-2.55-1.33,9.1-4.12,10.45-3.45Z"/>
        <path d="M219.63,200.41l-9.62,2.91-5.48.53c3.66-2.07,10.14-3.66,15.1-3.44Z"/>
        <path class="cls-1" d="M302.98,252.04c-.75.32-2.69-.02-3.02.18-.36.23-.39,3.07-.02,3.33.27.19,7.57,1.11,8.01,1.46,1.39,1.11-3.87,2.47-3.45,3.72l6.93,2.83c.76,1.78-6.11,2.03-6.87,3.56-.11.22.02,4.42.11,4.65.44,1.21,6.3,1.28,6.76,3.17-4.28.04-8.43-.65-12.64-.98-6.85-.53-4.79-.83-9.11-1.65-3.16-.6-6.48.93-5.1-2.57l-3.37-.32c-.89-2.25,2.33-.8,3.56-1.79,3.78-3.05-3-2.73-4.19-3.69-.69-.56-.8-3.31-.52-3.49s7.42,1.63,5.8-1.72c-.84-1.73-5.04-.38-5.83-.66-1.37-.49-1.51-2.95-1.14-3.14.46-.24,9.92.7,6.98-1.37-.92-.65-5.47-.38-6.96-.01v-5.52s23.65.79,23.65.79c2.63.31,1.79,2.65.43,3.22Z"/>
        <path d="M288.19,265.3c1.54.11,12.76.9,12.76,1.72,0,1.37-3.38.64-4.41.57-2.87-.19-7.1-.46-8.35-2.29Z"/>
        <path class="cls-1" d="M197.55,276.34l-.03-36.11c.47-1.16,15.63-5.91,18.23-6.92.8-.31,1.35-1.41,2.95-2.02,1.92-.74,12.21-4.47,13.33-4.52,3.65-.18,9.03,4.17,10.23,6.11,2.3,3.7,2.61,12.9,1.84,16.94-.26,1.34-2,2.4-2,2.72s1.77,1.37,2,2.72c.56,3.17-.99,6.24-1.03,9.01-.02,1.11,2.08,6.08.95,6.55-.42.17-2.61-.15-3.78.01-1.1.15-.93,1.08-1.67,1.37-3.26,1.29-7.39-.3-11.43-.05-2.89.18-4.61,1.53-7.52,1.44l4.65,2.75h-26.73Z"/>
        <path d="M231.25,252.86c-.95.52-17.5-1.52-20.78-1.66-1.84-.08-3.57.33-5.33.32-7-.06-6.49-2.2-.05-2.15l23.08.95c1.43.08,4.05,2.01,3.08,2.55Z"/>
        <polygon points="217.31 271.51 217.3 274.27 211.51 272.53 217.31 271.51"/>
      </g>
    </g>
  </g>
</svg>