<?xml version="1.0" encoding="UTF-8"?>
<svg id="Layer_2" data-name="Layer 2" xmlns="http://www.w3.org/2000/svg" viewBox="0 0 570.76 541.05">
  <defs>
    <style>
      .cls-1 {
        stroke-width: .73px;
      }

      .cls-1, .cls-2, .cls-3, .cls-4, .cls-5, .cls-6 {
        fill: none;
        stroke: #0c8040;
        stroke-miterlimit: 10;
      }

      .cls-2 {
        stroke-width: .75px;
      }

      .cls-3 {
        stroke-width: .76px;
      }

      .cls-4 {
        stroke-width: .54px;
      }

      .cls-5 {
        stroke-width: .54px;
      }

      .cls-6 {
        stroke-width: .54px;
      }
    </style>
  </defs>
  <g id="Layer_3" data-name="Layer 3">
    <g>
      <path class="cls-2" d="M489.41,230.26c.12-.08.69.16,1-.09.76-.62,1.31-6.11,1.24-7.42.96-.88,1.06-4.56,1.95-4.74,2.4-.5.39,6.91,3.61,6.68,1.8-3.01.73-6.17,1.68-9.47,1.12.04,1.11-.37.96.72-.24,1.75.26,2.91.19,4.59-.05,1.21-.53,2.22-.6,3.32-.35,5.42.22,9.83-3.32,14.5-4.18,5.52-8.43,3.69-14.22,4.16-10.41.84-20.79,2.33-31.18,3.36-91.73,9.08-183.43,18.54-275.21,26.72-3.92.35-9.46,1.85-13.25,1.01-5.04-1.12-3.48-9.97-3.73-13.82l2.78.56.55-.28-.55-.28c.04-.36-.04-.75,0-1.11h1.11c-.05.46-.06,1.22,0,1.67l.56.56c.13.65-.17,1.68,0,2.23.07.88.35,1.74,1.11,2.23.13.2,1.84,1.45,2.23,1.67l.56.56c1.43.55,3.52.42,5.01.56,1.75.16,1.71.12,3.61-.01,2.09-.14,4.58.32,6.41-1.1.37,0,.74,0,1.11,0,.77,0,2.62.66,4.07-.12l.38-.44c.37.03.75-.04,1.11,0,.15.02,1.66,1.09,2.79.56v-1.11c.36.03.75-.04,1.11,0,3.91.42,6.67-.02,10.86-.58,1.04-.14,2.26.71,1.95-1.09,86.41-9.49,172.97-16.8,259.31-26.75,6.69-.77,16.92-.11,22.3-4.44,1.02-.82,1.66-2.2,2.5-2.79Z"/>
      <path class="cls-2" d="M490.32,196.64c-1.69.31-1.07-.85-1.11-1.93s.03-2.06,0-3.08c-2.01-.49-.75,1.81-1.11,2.23-.67.76-1.37-.71-1.67-1.11.18-41.78-.28-83.6-.03-125.12.01-2.19-.63-4.94-.56-7.2.16-5.82,1.23-11.94.61-17.83-.62-5.89-4.68-4.68-9.09-4.03-99.61,25.99-199.77,50.24-299.01,77.57-3.32.91-10.39,2.19-11.96,5.31l-.25,71.61c-.09,2.39-.57,5.15-.58,7.49-.88-1.6-1.32-1.64-2.23,0,.09-21.6.47-43.1,0-64.33-.08-3.59-.42-8.91-.02-12.3.11-.93,1.66-4.71,2.25-5.41.44-.53,1.76-1.32,2.41-1.63,4-1.9,11.32-3.52,15.86-4.75,13.53-3.69,27.25-6.81,40.8-10.45,85.53-22.94,171.11-45.76,257.05-67.17,3.27-.27,7.85.91,8.12,4.75.11,20.44-.19,40.88-.04,61.32.15,21.48.89,43.43.61,65.18-.13,10.33-.1,20.48-.03,30.89Z"/>
      <path class="cls-2" d="M486.34,192.74c.3.4,1,1.88,1.67,1.11.37-.42-.9-2.71,1.11-2.23.03,1.02-.04,2.05,0,3.08.04,1.08-.57,2.24,1.11,1.93.07,8.88.89,20.74.01,29.26-.16,1.51-.87,2.71-1.12,4.17-.85.59-1.49,1.97-2.5,2.79-5.37,4.33-15.6,3.67-22.3,4.44-86.34,9.95-172.89,17.26-259.31,26.75-4.26.47-8.57,1.07-12.81,1.67-.36-.04-.75.03-1.11,0-.96-.07-2.08-.22-2.79.56-.36-.04-.75.03-1.11,0-1.28-.09-3.65-.36-4.46.56-.37,0-.74,0-1.11,0-1.21,0-2.42-.04-3.63,0l-6.4,1.12c-1.5-.14-3.59,0-5.01-.56-.07-.03-.28-.4-.56-.56-.39-.22-2.1-1.47-2.23-1.67-.11-.16-.2-1.03-.42-1.53-.18-.41-.68-.64-.7-.69-.17-.55.13-1.58,0-2.23-.11-.57-.55-.52-.56-.56-.06-.45-.05-1.21,0-1.67,2.2-18.73,1.04-38.9,1.11-57.94.9-1.64,1.34-1.6,2.23,0,0,.37,0,.74,0,1.11l-.5.34c-.14.64-.31,1.76.5,1.88-.12,17.51-1.16,37.68-.03,54.9.07,1.02-.19,2.09,1.14,2.48.21.93.46,2.38,1.47,2.71,1.1.36,5.14.16,6.61.09,9.32-.44,19.57-2.4,28.95-3.36,61.55-6.32,123.38-13.2,184.97-19.48,11.69-1.19,24.03-3.53,35.62-2.76l.63-1.2c2.16.6,6.07.51,8.25.06.43-.09.3-.85.46-.97,1.12-.88,3.83.67,5.13.44.43-.08.23-1.1.66-1.18,1.24-.22,2.89.93,4.34.61.44-.1.25-1.15.66-1.18.69-.06,1.45.52,2.18.53,1.12.02,2.68-.86,3.95-1,5.01-.54,10.02-1.1,15.04-1.67,4.3-.49,9.74-.33,13.8-1.16.42-.09.35-.83.52-.92.72-.39,1.57-.39,2.27-.82,1.9-1.17,2.45-2.45,3.13-4.39.08-.21.4-.4.56-1.11.07-.33-.06-.76,0-1.11,1.47-9.14.52-21.12.56-30.64Z"/>
      <path class="cls-2" d="M520.72,151.67c.02-3.46,1.94-8.05-.26-11.15-.63-.88-2.12-.49-3.08-.55v2.79c-.45-.06-1.59.09-1.67,0-.25-.29-.06-6.42,0-7.53.12-2.38.8-4.53.59-7.26s-.48-3.84-3.55-2.94c-.9.26-2.59,3.28-3.14,1.26-.96-3.55,3.96-6.14,6.97-4.19,4.44,2.88.05,14.42.8,15.07,7.34-.67,6.84,7.49,5.04,12.57-.27.76-.81,1.27-1.14,1.92h-.56Z"/>
      <path class="cls-2" d="M520.88,151.67c-1.55,3.06-3.19,5.51-7.28,4.21-2.71-.86-5.16-6.91-5.49-9.55-.16-1.28.02-2.57-.04-3.86-.08-1.77-1.15-2.19.29-4.15.91-1.24,2.92-2.13,2.38.15-.63,2.68-1.54,4.07-.9,7.23.31,1.52,2.8,6.48,3.93,7.48,2.42,2.15,4.14-1.04,6.54-1.52h.56Z"/>
      <path class="cls-2" d="M158.38,216.7c.62-.73,1.07-.09,1.11.83.16,3.3-.54,8.21,0,11.14.17.91,1.13,1.51,1.13,2.24,0,.79-1.2,1.44-1.2,2.78s1.13,1.91,1.16,2.77c.06,1.44-1.28,4.3-1.12,7.29s1.14,6.75,1.17,9.46c.02,1.64-.67,2.15-2.26,1.94v-38.44Z"/>
      <path class="cls-2" d="M509.18,212.8c-1.89-3.26-2.96-6.71,1.93-7.26,2.82,1.91,7.23,2.14,7.98,6,.13.66.06,2.51.12,3.48-.47.1-1.36-.15-1.67,0,.41-1,.15-3.19-.5-3.96.27.27.7.27.97,0s.27-.7,0-.97-.7-.27-.97,0-.27.7,0,.97c-.16-.04-2.22-.49-2.85-.77-1.21-.55-2.03-1.81-3.56-1.36-1.29.38-1.04,2.38-.33,3.31l-1.11.56Z"/>
      <path class="cls-2" d="M514.75,113.64c-2.41-1.24-2.33-7.91-.54-9.18,1.61-1.15,4.05-1.6,5.56-3.63,1.51,3.75-1.44,3.43-2.9,5.73-1.14,1.78-1.4,4.99-2.11,7.09Z"/>
      <path class="cls-2" d="M517.54,215.03c.31-.15,1.21.1,1.67,0,.13,1.98.49,3.53,0,5.57-2.39.57-2.71-.91-3.75-1.66-2.96-2.14-4.38-2.86-6.28-6.14l1.11-.56c.3.39,4.54,3.53,4.99,3.67,2.03.66,1.86-.7,2.25-.89Z"/>
      <path class="cls-2" d="M522.55,199.43l-2.78-4.74c-.59-1.57-2.78-1.62-3.3-1.99-.56-.41.58-3.52.51-4.41,4.78.52,6.67,7.19,5.56,11.14Z"/>
      <path class="cls-2" d="M513.08,186.62c.24.24-.33,4.02-.66,4.35-.28.28-2.68.81-3.25.41-2.24-1.55,1.52-5.68,3.91-4.76Z"/>
      <path class="cls-2" d="M512.52,170.46c.05.96.06,1.89-.24,2.82-.47,1.41-2.51,4.14-4.21,3.31-.73-.72,2.09-5.03,2.76-5.77.55-.62,1.01-.33,1.69-.35Z"/>
      <path class="cls-2" d="M159.34,213.67c.41,2.48-1.52,2.48-1.11,0h1.11Z"/>
      <path class="cls-2" d="M161.01,260.15c.02-.18-.02-.37,0-.56l.55.28-.55.28Z"/>
      <g>
        <path class="cls-2" d="M419.24,12.09c2.15,1.79,3.79-.35,5.44-.96,2.07-.77,6.44-2.51,8.32-2.86,1.29-.24,1.89.49,2.61.51.37.01.41-1.12,1.24-1.61.55-.32,3.28-.92,3.53-.65v2.79c1.4-.02,5.22.44,6.14,1.38.67.69.43,1.72.85,2.5.24.46.84.76,1.04,1.19.92,1.91,1.11,3.57.75,5.68l-3.21,7.09c-34.55,9.33-68.82,19.79-103.35,29.36-39.22,10.87-79.14,22.71-118.6,32.47-.31-1.96-3.6-2.74-4.99-3.67-.41-.28-.45-1.03-.7-1.21-.71-.5-2.55.09-3.48-1.81-1.24-2.51.77-5.73,2.77-7.27.61-.47,1.52-.39,1.83-.65.5-.41.27-1.72,1.04-2.16,2.71-1.57,8.63-3.56,11.89-4.71.92-.32,1.98.16,1.66-1.37.37.03.75-.04,1.11,0,.06,0,.34.52.86.57.43.04,5.02-1.56,5.2-1.77.2-.23.07-.71.07-1.03.34-.07.77.07,1.11,0,.5-.1,1.22.06,1.87-.05,1.27-.2,4.69-.63,4.25-2.18.75-.11,3.12.17,3.34,0h.57s0-1.11,0-1.11c.39,0,.79-.02,1.18,0,.05,0,.29.51.84.52,1.02.01,3.27-.47,2.69-1.63,1.36-.37,2.77-.73,4.12-1.11l1.17.56v-1.11c37.13-11.27,74.52-21.86,111.81-32.59,6.07-1.75,27.16-9.47,31.7-9.19.5.03,1.72,1.31,2.78-.56.37-.02.75.03,1.11,0,1.64-.13,3.8-1.05,5.44-1.54.98-.29,2.12.43,1.79-1.25.8-.24,1.59-.36,2.22-.56ZM322,49.58c-5.69.3-17.77,4.74-24.72,6.12-.44.09-.23,1-.72,1.12-2.73.68-5.6,1.45-8.38,2.11-19.4,4.66-43.76,11.89-64.09,18.35-.85.27-5.46,1.64-5.63,1.89-.48.69-.23,4.11,1.34,3.87l114.61-31.94c.59-.13,1.06-.78,1.53-.96,3.38-.74,6.81-1.5,10.15-2.38,11.3-3,22.14-6.35,33.51-8.75.42-.09.24-.92.75-1.1,18.01-6.47,38.97-9.93,57.41-16.03,4.17-1.38,6.17-1.81,3.69-6.87l-119.43,34.58Z"/>
        <rect class="cls-2" x="334.65" y="54.97" width="55.43" height="3.51" transform="translate(-2.49 94.21) rotate(-14.76)"/>
        <path class="cls-2" d="M233.43,66.29c.32,1.53-.74,1.05-1.67,1.37-3.27,1.14-9.19,3.14-11.91,4.71-.76.44-.54,1.75-1.04,2.16-.31.26-1.22.18-1.84.65-2,1.54-4.01,4.76-2.77,7.27.94,1.9,2.78,1.31,3.49,1.81.26.18.29.94.71,1.21,1.39.92,4.68,1.71,4.99,3.67-1.24.31-2.89,1.2-4.31,1.54-1.26.29-6.8,1.43-7.59,1.2-1.42-.42-.85-3.42-.9-4.7-.05-1.08.58-2.24-1.12-1.93-.03-3.16-.42-7.96,0-10.87.06-.46.11-.86.55-1.13l23.42-6.94Z"/>
        <rect class="cls-2" x="267.24" y="73.7" width="50.75" height="3.45" transform="translate(-9.54 79.46) rotate(-15.22)"/>
        <path class="cls-2" d="M259.6,86.33l-12.8,2.8c.12-.72-.26-2.27.06-2.73.34-.49,10.7-3.27,11.48-3.31,1.63-.09,1.32,2.2,1.26,3.24Z"/>
        <path class="cls-2" d="M406.12,43.45l.56,3.34c-1.75-.19-9.8,3.01-10.59,2.23.04-.94-.31-2.54.54-3.08.34-.22,6.91-2.23,7.66-2.36.61-.11,1.21-.19,1.83-.12Z"/>
        <path class="cls-2" d="M416.71,12.81c.33,1.68-.81.96-1.79,1.25-1.64.49-3.81,1.41-5.45,1.54-.32-1.53.73-1.06,1.67-1.37,1.94-.66,3.78-.88,5.58-1.41Z"/>
        <path class="cls-2" d="M240.67,64.06c0,.32.13.8-.07,1.03-.18.21-4.77,1.81-5.21,1.77-.51-.05-.79-.57-.86-.57,1.65-.99,4.18-1.85,6.13-2.23Z"/>
        <path class="cls-2" d="M247.91,61.83c.45,1.55-2.98,1.98-4.25,2.18-.65.1-1.37-.05-1.88.05,1.6-.92,4.26-1.95,6.13-2.23Z"/>
        <path class="cls-2" d="M256.83,59.6c.55,1.16-1.57,1.64-2.54,1.63-.52,0-.75-.51-.8-.52l.4-.43c.97-.25,1.98-.41,2.94-.68Z"/>
        <path class="cls-2" d="M408.35,15.6c-1.07,1.87-2.28.59-2.79.56.88-1.51,2.57-.54,2.79-.56Z"/>
        <path class="cls-2" d="M261.38,57.93v1.11s-1.11-.56-1.11-.56c.06-.02.39-.34,1.11-.56Z"/>
        <path class="cls-2" d="M252.38,60.55v1.11s-1.11,0-1.11,0c.32-.25-.87-1.08,1.11-1.11Z"/>
        <path class="cls-2" d="M322,49.58c2.69-.14,6.12-1.04,9.06-1.8,2.21-.57,8.29-3.02,10.1-2.68.41.08.28.87.45,1,.88.7,3.16-.82,2.68,1.26-2.98.37-5.7,1.78-8.36,2.79-.47.18-.94.83-1.53.96l-114.61,31.94c-1.57.24-1.82-3.18-1.34-3.87.17-.24,4.78-1.62,5.63-1.89,20.34-6.46,44.69-13.69,64.09-18.35,2.78-.67,5.66-1.43,8.38-2.11.5-.12.28-1.03.72-1.12,6.95-1.37,19.02-5.82,24.72-6.12Z"/>
        <path class="cls-2" d="M322,49.58l119.43-34.58c2.48,5.07.48,5.49-3.69,6.87-18.44,6.1-39.4,9.55-57.41,16.03-.5.18-.33,1.01-.75,1.1-11.36,2.4-22.21,5.75-33.51,8.75-3.34.89-6.77,1.64-10.15,2.38,2.65-1.01,5.38-2.42,8.36-2.79.48-2.07-1.79-.56-2.68-1.26-.17-.13-.03-.92-.45-1-1.81-.33-7.89,2.11-10.1,2.68-2.94.76-6.37,1.66-9.06,1.8Z"/>
      </g>
      <path class="cls-2" d="M205.02,264.05c.31,1.8-.91.95-1.95,1.09-4.18.56-6.95,1-10.86.58,4.25-.6,8.55-1.2,12.81-1.67Z"/>
      <path class="cls-2" d="M181.62,266.84c-1.84,1.42-4.33.96-6.41,1.1-1.91.13-1.87.17-3.61.01l6.4-1.12c1.21-.03,2.42.01,3.63,0Z"/>
      <path class="cls-2" d="M187.19,266.28l-.38.44c-1.46.78-3.31.12-4.07.12.81-.91,3.18-.65,4.46-.56Z"/>
      <path class="cls-2" d="M191.38,265.72v1.11c-1.12.54-2.64-.54-2.79-.56.7-.78,1.82-.63,2.79-.56Z"/>
      <path class="cls-2" d="M163.79,265.16c-.77-.49-1.05-1.35-1.11-2.23.02.06.52.28.7.69.21.51.31,1.37.42,1.53Z"/>
      <path class="cls-2" d="M162.68,260.71l-.56-.56s.44-.01.56.56Z"/>
      <path class="cls-2" d="M166.58,267.39l-.56-.56c.28.16.48.53.56.56Z"/>
      <path class="cls-2" d="M486.67,192.74c-.04,9.52.92,21.5-.56,30.64-1.41-1.27-2.47.61-3.62.58-.83-2.76-2.65-.13-3.92,0-.93.09-2.07-.63-3.31-.61-1.43.03-3.05.91-4.52,1.1-28.94,3.71-58.07,5.94-86.91,10.02-15.51,2.19-30.68,3.37-46.23,5.02-48.85,5.16-97.58,11.07-146.47,15.64-6.89.65-14.49,3.11-21.14,1.08l-.62,1.2-3.02-.6c-.16.16.41,3.8.56,4.45-1.33-.39-1.07-1.46-1.14-2.48-1.13-17.21-.1-37.39.03-54.9,0-.74,0-1.49,0-2.23,0-.37,0-.74,0-1.11.02-2.34.49-5.1.58-7.49l.25-71.61c1.57-3.12,8.64-4.4,11.96-5.31,99.25-27.33,199.4-51.58,299.01-77.57,4.4-.64,8.47-1.85,9.09,4.03.62,5.89-.45,12.01-.61,17.83-.06,2.26.58,5.01.56,7.2-.25,41.52.21,83.34.03,125.12ZM171.08,196.95c.14,4.49.66,8.84.6,13.1-.03,1.75-1.3,3.32,1.09,4.47.35.17,3.08.08,3.35-.05,1.15-.58.58-2.33,2.21-1.93,1.01,4.45-5.24,2.29-6.73,4.13-.83,1.03-.57,3.64-.52,5.07.11,2.97.66,7.82.54,10.61-.04.83-1,1.24-.97,2.08.06,1.85,1.57,5.81,1.57,6.25,0,.71-.95,1.32-1.13,2.24-.4,2.1.64,4.06.59,6.12-.05,2.3-2.5,5.92.81,6.42.96.14,4.76-.45,6.05-.62,25.42-3.51,50.84-6.03,76.37-8.87,13.01-1.44,25.92-2.94,39.01-4.44,21.89-2.5,43.98-5.21,65.78-7.22,11.51-1.06,22.94-3.27,34.47-4.5,6.73-.72,17.05-.33,23.16-1.91,5.16-1.34,6.32-.99,11.4-1.41,2.06-.17,10.07-1.17,11.44-1.95.81-.46-.03-1.33-.03-1.96l1.11,1.67c1.33.29,2.59-.9,3.7-.97s2.43.95,3.58.16c1.51-1.5-.25-4.2.06-5.48.46-1.9,3.67-5.28.77-7.12-1.74-1.1-4.39-.3-6.44-.53l-.62,4.4-3.28.06c.55-1.57.22-4.85,1.06-5.9,1.16-1.43,6.45-1.14,6.69-1.39,1-1.07-.05-3.75.03-4.68.06-.77.85-1.23,1-1.82.32-1.29.23-2.75.69-4.04-1.29-.17-1.94,1.42-3.13,1.54-.82.08-1.99-.64-2.98-.45.05-.61-.22-1.73.06-2.13.1-.14,2.89-1.6,3.06-1.62.59-.1,1.35.48,2.1.41,1.93-.19,4.21-.84,6.17-1.09,1.58-.21,4.02.47,5.31-.81,1.18-1.17.53-7.84-.01-9.76,3.11.12,5.66-1.73,8.91-1.12-1.41-2.45.34-3.29.57-4.75.03-.22-.04-4.17-.09-4.39-.14-.69-2.71-1.09-1.6-1.99.25-.21,3.34-1.53,3.76-1.59,1.69-.24,3.26,1.02,5.15-.1.64-1.74-2.11-1.12-2.26-2.01-.12-.72-.04-1.89.14-2.61.32-1.3,1.61-1.85,1.56-3.17-3.34-.67-6.67.23-10.02.55-.13-2.1,2.02-1.45,3.32-1.97.33-.13,2.82-1.55,2.85-1.71.17-1.12-.46-2.2-.42-3.19.04-1.04.93-2.4.81-3.36-.08-.66-.82-1.37-.97-2.32-.18-1.15.06-2.43-.01-3.6-4.08.32-1.66-1.05-1.25-2.64.83-3.25.39-5.81.13-9.06,1.73.12,3.66.24,3.37-1.93-.11-.8-.92-1.28-1.01-1.77-.13-.71.67-1.66.4-2.64-.35-1.28-2.48-.69-2.72-.94-.17-.17.04-1.22-.16-1.76-.33-.87-1.22-1.12-.99-2.1,2.4.38,1.33-.54,1.82-1.78,1.77-4.41,5.11-10.59-2.93-8.25-.29-1.6.4-.89,1.23-1.24,1.04-.44,2.04-1.05,3.23-.99-.99-2.58-.87-5.37-2.3-7.74l-4.94.5c-.26-1.62.36-.91,1.31-1.17.85-.23,1.7-.51,2.59-.5-.96-1.39.15-3.19-.07-4.08-.29-1.17-2.83-1.74-2.13-3.96.32-1.02,2.18-.42,1.64-1.99h-1.68s.61-2.47.61-2.47c-.03-.29-2.95-.65-.03-1.72-1.02-.92-.99-4.56-1.18-4.71-.28-.21-1.3.15-1.59-.05-.17-.12.17-2.87-.57-4.06-.45-.72-4.78-3.5-6.17-5.12-.33-.39-.47-1.19-.62-1.3-.55-.4-6.38,1.18-7.16.47-1.08-.98,2.99-1.88,2.22-3.33-1.34.01-1.83-1.52-3.07-1.7-2.37-.34-6.41.91-8.93.61-1.42-.17-2.1-1.25-3.27-1.17s-2.97,1.89-4.12.99c-.15-.12-.06-.72-.2-.82-.83-.63-2.67-.13-2.68,1.21,0,.47,1.4,3.11-.28,2.55-.3-1.45-1.45-.95-2.21-1.68s-.43-1.97-2.25-1.68c-.3.05-.13.93-.67,1.11-1.56.53-8.93,2.6-9.65,3.07-1.22.8-.47,2.66-4.16,1.95-.85-.16-1.29-.89-1.81-1.02-.71-.19-13.02,3.65-13.93,4.24-.99.65-1.16,1.54-1.63,1.83-.9.56-3.52.61-3.97,1.19-.28.36-.29,1.56-.74,2.32-.79,1.38-2.98,2.21-2.74,3.97.06.41,1.75,0,1.14,1.39-1.44.19-2.7,1.08-4.19,1.15-2.59.13-1.96-.2-4.57.44-1.18.29-1.88-1.19-2.89.43-.75,1.2-.22,2.71-2.29,1.62-.84-.44-1.65-2.2-2.61-2.45-1.14-.3-3.38.6-5.38-.16-1.35-.51.23-1.95-3.93-1.53-.6.06-1.24.53-1.67.54-.57.01-.1-1.86-2.22-1.7-1.56.12-2.59,1.35-3.52,1.57-.8.19-2.66-.56-4.27-.42-2.63.23-5.46,1.44-7.99,2.05-7.87,1.91-16.16,3.48-24.25,5.27-4.75,1.05-9.67,1.97-14.33,3.22.1-.1-.02-.76.26-1.12.71-.92,9.14-2.32,10.89-2.78.12-1.72-.64-3.35-2.51-3.31-.95.02-1.58.87-2.3.95-1.94.24-5.98-.66-8.79-.37s-5.08,1.59-7.71,2.32c-11.57,3.23-22.67,5.52-34.27,9.18-1.24.39-2.95.3-4.18.83-2.07.89-3.58,4.48-6.76,4.3-4.48-.26-3.82.73-7.44,2.11-2.15.82-5.81.74-7.35,2.12-.83.74-.86,2.23-2.25,1.92-.06-2.26-2.52-2.04-3.89-.81-1.29,1.16-.98,2.58-3.92,1.93-.09,1.9,1.57,1.78,3.01,1.63,4.33-.47,9.65-3.42,13.54-4.3,4.66-1.06,9.34-1.89,14.04-3.23,1.78-.51,1.09.18,1.16,1.45-8.97,2.52-17.65,5.49-26.58,7.68-1.09.27-2.31.07-3.54.36-1.67.4-3.07,1.99-4.41,2.31-.9.21-1.67-.33-2.81-.1-2.84.55-3.63,4.15-6.37,3.7-.85-.14-1.3-.92-1.82-1.06-1.37-.36-5.07,3.1-6.84,3.6-1.34.37-2.08-.38-3.34-.33v2.24c-1.86.85-4.72-1.09-5.75-1-.43.03-4.46.94-5.01,1.1-.69.21-1.14,1.09-1.89,1.45-.9.42-2.15.42-2.93.97-.86.62-1.6,2.92-1.75,3.02-.39.28-1.48-.85-2.19-.29s-.38,1.83-.82,2.54c-.3.48-1.21.64-1.64,1.15-2.15,2.51-1.97,6.28-2.51,9.08-.1.54-1.12.48-1.43.89-.97,1.31-.23,5.5-.26,6.99-.18,8.98-1.1,17.94-1.17,26.77,0,1.34,1.09,1.86,1.17,2.78.22,2.41-1.23,9.15-1.13,12.52ZM316.99,93.03l12.28-2.48c1.92.09,4.39-2.15,5.36-2.44,1.62-.48,8.81.31,7.98-2.6-.51-1.8-2.25.13-3.06.27-2.56.45-5.76-.65-8.37-.47-1.91.13-5.61,1.25-7.62,1.77-3.63.94-8.25.9-6.57,5.96ZM366.38,84.67c-2.48-.41-2.48,1.52,0,1.11v-1.11Z"/>
      <path class="cls-2" d="M302.51,98.04c-1.35.36-3.47,1.25-5.01,1.67-5.49,1.48-10.74,2.89-16.16,4.46-.19-1.89-.15-1.38,1.22-1.82,3.94-1.27,8.1-2.65,12.03-3.6,1.49-.36,4.16-1.13,5.49-1.25,1.2-.11,2.35.63,2.44.54Z"/>
      <path class="cls-2" d="M166.58,261.26c-.15-.65-.71-4.29-.56-4.45l3.02.6.62-1.2c6.64,2.02,14.24-.44,21.14-1.08,48.88-4.57,97.62-10.48,146.47-15.64,15.56-1.64,30.73-2.82,46.23-5.02,28.84-4.08,57.97-6.31,86.91-10.02,1.47-.19,3.09-1.07,4.52-1.1,1.24-.03,2.38.69,3.31.61,1.27-.12,3.09-2.75,3.92,0,1.14.03,2.21-1.85,3.62-.58-.06.35.07.78,0,1.11l-.56,1.11c-.68,1.93-1.23,3.22-3.13,4.39-.71.43-1.55.43-2.27.82-.18.1-.1.84-.52.92-4.06.82-9.5.67-13.8,1.16-5.02.57-10.03,1.13-15.04,1.67-1.27.14-2.82,1.02-3.95,1-.73-.02-1.49-.59-2.18-.53-.41.04-.22,1.09-.66,1.18-1.46.31-3.1-.84-4.34-.61-.43.08-.24,1.1-.66,1.18-1.29.23-4-1.32-5.13-.44-.16.12-.03.89-.46.97-2.17.45-6.09.54-8.25-.06l-.63,1.2c-11.58-.77-23.92,1.57-35.62,2.76-61.58,6.28-123.42,13.16-184.97,19.48-9.38.96-19.63,2.92-28.95,3.36-1.47.07-5.51.27-6.61-.09-1.02-.33-1.26-1.78-1.47-2.71Z"/>
      <path class="cls-2" d="M165.47,203.89c-.81-.12-.64-1.24-.5-1.88l.5-.34c0,.74,0,1.49,0,2.23Z"/>
      <path class="cls-2" d="M485.23,225.61l.56-1.11c-.15.72-.48.9-.56,1.11Z"/>
      <path class="cls-2" d="M517.04,211.07c.65.76.91,2.96.5,3.96-.39.18-.22,1.55-2.25.89-.45-.15-4.69-3.28-4.99-3.67-.71-.92-.96-2.93.33-3.31,1.53-.45,2.35.81,3.56,1.36.63.28,2.69.73,2.85.77Z"/>
      <circle class="cls-4" cx="517.88" cy="210.17" r=".5"/>
      <path class="cls-2" d="M297.04,99.68c-.34,2.22,1.55.47,2.41.68.55.13,1,1,1.75,1.02.4.01,4.14-2.88,7.23-2.79.73.02,1.4.96,2.71,1.12,2.07.25,3.86-.57,5.85-.59-.06.61.12,1.32.02,1.89-.08.47-2.09.21-.84,1.46,2.76.15,2.72-2.3,3.4-2.84.44-.34,3.19-1.39,3.52-1.07.48,1.74-1.73.5-1.1,2.5.13.43.81.82,1.34.83.58.01,5.24-1.58,5.87-1.94,1.47-.82-.38-1.73-.51-2.29-.37-1.55,3-1.58,4.04-1.34.44.1.25,1.03.7,1.13.73.17,3,.12,3.79-.02.23-.04,2.89-1.04,3-1.16.3-.34-.03-1.58.06-2.17,1.82-.36,1.36,1.71,1.71,2.17.29.39,4.25-.45,5.07-.65,2.77-.66,9.52-3.68,12.06-2.37.56.29,1.22,1.34,2.03,1.87,3.59,2.36,5.42-.23,9.06,1.21l-2.77,3.34c3.18.73,8.59.32,8.33-3.9,2-.8,2.29,1.07,2.54,1.12,2.8.61,2.42-.99,3.57-1.94.69-.58,3.54-1.73,3.76-2.07.38-.59-.25-1.97.6-3.02.15-.19,3.57-2.3,4.09-2.57.92-.48,2.15-.79,3.17-1-1.28-3.16,0-2.67,1.62-4.21,3.08-2.92,2.01-1.6,5.74-2.59,1.44-.38,4.56-1.86,5.76-2.01.84-.1,1.71.92,2.72,1.03,1.63.18,3.89-1.1,5.78-.57-.02.64-.4,1.19-.37,1.84.03.85.13,3.17,1.48,2.61.48-4.5,2.92-2.65,5.84-2.75,2.02-.07,6.13-.8,8.29-1.16,1.11-.19,1.75-1.23,2.9-1.54,1.7-.46,4.09-.38,5.85-.8,2.42-.59,5.21-2.02,7.91-2.14.94-.04,3.72.99,4.64,1.48.71.38,5.71,4.34,5.88,4.67.56,1.1-.02,2.71.36,3.27.23.34,1.5.23,2,1.6.85,2.3-.15,4.15.2,5.89.27,1.31,1.97,2.15,1.58,3.74h-.29s0,1.1,0,1.1c2.61.34,2.1,4.71,2.24,6.87-.15.89-3.92.06-3.34,1.98l3.31-.55c-.3,1.81.5,3.47.58,5.22.1,2.03-.57,3.45-.62,5.01-.05,1.78.68,4.84.6,6.59-.05,1.1-1.27,1.97-1.13,3.32.13,1.25,1.83,2.05,1.69,3.86-.08,1.02-1.03,1.81-1.13,2.83-.11,1.18.65,2.2.49,3.17-.15.9-1.25,1.52-1.03,2.6h1.34s0,.29,0,.29c-1.5,2.72.97,6.55-2.28,7.84.75,2.37,1.55,3.99,1.14,6.62-.22,1.4-1.13,1.9-1.51,2.94-.26.72-.1,1.64-.4,2.38-1.25,3.09-2.01,5.08-5.3,6.4l1.67.83c.04.62.05,1.12-.26,1.69-.11.21-3.36,2.85-3.67,3.01-1.31.71-4.44.57-3.87,3.09-1.03-.14-2.51-.06-3.57.05-9.42.98-19.96,3.1-29.52,4.45-39.23,5.58-78.38,11.75-117.62,17.72-14.26,2.17-28.4,3.73-42.7,6.31-4.01.72-7.93,2.18-12.11,2.09v2.01c.73-.05,1.51.09,2.22,0,.18,5.49-7.69,4.59-11.24,5.14-1.99.31-5.59,2.01-7.37,2.09-1.29.06-2.69-.75-4.42-.58-1.34.13-1.9,1.03-3.27,1.19-5.24.61-9.25-.59-14.42,1.11-4.88,1.6-15.82,2.29-20.42-.04-.67-.34-.03-1.54-1.49-1.1-.02,1.96-1.97,1.92-3.62,1.67-2.92-.44-.3-4-.23-5.87.05-1.37-.46-4.08-2.17-2.96-.21.14-.21,1.29-.95,1.54-3.54,1.17-3.11-5.27-3.7-7.34-.18-.65-1.02-2.43-2.08-2.09-.1-3.37,1.35-10.11,1.12-12.52-.09-.92-1.18-1.44-1.17-2.78.06-8.83.98-17.79,1.16-26.77.03-1.48-.7-5.68.26-6.99.3-.41,1.32-.34,1.42-.89.53-2.8.36-6.57,2.49-9.08.43-.51,1.33-.66,1.63-1.15.44-.71.12-1.99.82-2.54s1.79.57,2.18.29c.15-.11.88-2.41,1.74-3.02.77-.55,2.02-.55,2.91-.97.75-.36,1.19-1.24,1.88-1.45.54-.17,4.55-1.07,4.98-1.1,1.03-.08,3.87,1.85,5.72,1v-2.24c1.25-.05,1.99.7,3.32.33,1.76-.49,5.44-3.96,6.8-3.6.52.14.97.92,1.81,1.06,2.73.45,3.52-3.15,6.34-3.7,1.13-.22,1.9.32,2.79.1,1.34-.32,2.72-1.9,4.39-2.31,1.22-.29,2.43-.1,3.52-.36,8.89-2.18,17.53-5.15,26.45-7.68s18.2-4.09,27.16-6.68c5.39-1.56,10.61-2.97,16.07-4.46ZM413.38,80.22c-2.48-.41-2.48,1.52,0,1.11v-1.11ZM438.89,133.23c0,.07,0,.53,0,.56-.12.76-.4,1.48-.56,2.23,0-.07-.51-.51-.59-1.34-.13-1.35.15-2.85.03-4.23-3.38.21.67,5.3-2.91,6.86s-3.12-1.83-3.84-2.33c-.44-.31-2.42,0-3.28-.07.04-.74-.02-1.49,0-2.23h-1.67c-2.64-12.66-5.26-28.09-9.05-40.25-.33-1.05-1.41-2.77-2.47-3.1-1.93-.58-12.13,1.82-14.24,2.82-4.45,2.11-3.64,5.83-4.48,10-4.42,21.79-8.51,43.61-13.26,65.34.08,2.11.34,3.35,2.59,3.59,1.78.19,6.92-.66,8.61-1.36,3.2-1.33,3.06-4.9,4.45-7.53,0,.58-.39,2.82.83,2.22.46-.94,2.08-2.01,2.51-2.61,1.29-1.8.98-4.12,4.2-4.6,4.44-.67,6.26,1.62,10.28,2.2.25.87,1.81,4.57,2.3,5.22.52.69,1.09,1.16,1.96,1.33,5.05-1.23,13.18.66,11.9-7.11,1.55-1.07,1.87-.8,1.67,1.12,1.76-.08,3.03-1.88,5.01-1.67.14,2.19.49,3.58,3.15,3.74,1.33.08,9.05-1.15,10.38-1.63,1.07-.39,1.61-1.49,1.96-2.5l.14-71.22c-.35-2.27-.35-5.89-3.09-6.38-2.43-.43-12.22,1.68-12.99,4.28.12,14.62-.51,29.31-.13,43.93.04,1.54.53,2.97.58,4.71ZM333.85,98.59c0-.38-.31-.69-.69-.69s-.69.31-.69.69.31.69.69.69.69-.31.69-.69ZM366.16,99.7c0-.38-.31-.69-.69-.69s-.69.31-.69.69.31.69.69.69.69-.31.69-.69ZM334.82,112.24l-3.1.52-.24,5.05c-2.97-.66-2.37.59-3.68,1.6-1.08.84-2.92,1.42-4.27,1.07-3.06-.81-4.26-4.88-8.21-3.78l-.04-1.06-.79-.05-.28.55c-8.8-5.83-19.21-.8-28.56,1.12-3.77,3.79-2.8,10.75-2.66,15.9.04,1.35.58,2.51.61,3.85.31,16.12-.37,32.27.07,48.39.78,2.71,9.58,1.01,11.34-.16,2.44-1.61.91-3.32.8-5.31-.08-1.51-.06-3.23,0-4.74,2.2-.41.39,2.09,1.44,2.83,2.25,1.59,3.61-.97,5.49-.63.44.08.07,1.61,1.14,1.14,2.25-.97-1.41-5.02.28-6.68.81,2.23,2.52,9.89,4.45,10.87,2.21,1.13,7.85-.18,10.04-1.4.56-.31,1.73-1.15,1.95-1.65.08-.18-.19-3.49-.27-3.92l2.23.56c-.41,1.77-1.01,3.11.9,4.39,1.14.77,4.47.25,6.01,0,1.76-.28,4.64-.62,5.6-2.19.69-1.12.55-3.46,1.97-3.88.7-.2,1.58.3,2.55-.51s.76-2.7,1.63-3.94c1.17-1.66,3.69-2.02,5.56-1.68,1.24.23,1.51,1.33,2.32,1.57,1.21.36,2.8-.03,4.08.1.24,1.24.76,4.07,1.68,4.74.4.29.89.17,1.1.28,1.28.68,1.98,1.24,3.65,1.17,1.17-.05.66-1.17,1.14-1.21.62-.05,1.35.47,2.08.42,3.09-.2,6.13-1.32,4.83-4.84,4.23.94,1.8-3.88,2.39-6.31.18-.73,1-1.1,1-2.31,0-4.28-2.3-8.21-2.81-11.74-.31-2.12-.31-9.33-2.27-10.57-.92-.58-2.04.28-1.65-1.38,1.24-.06,1.85-.67,1.71-1.95-.84-2.02-.84-4.52-1.41-6.44-.85-2.87-2.36-6.63-3.34-9.47-.71-2.07-.52-5.75-3.65-5.55-.25-.16,1.15-2.61.3-3.36l-1.97.02c.03-.19-.42-.8-.56-1.11.07-1.2.01-2.64-1.11-3.34-.05-.17.05-.38,0-.56-.19-.68-.39-.76-.56-1.11-.15-.32.1-1-.53-1.39-.52-.32-2.31-.67-2.99-.65-1.72.04-9.83,1.7-11.54,2.3-2.86,1.02-3.3,3.88-3.88,6.43ZM244.65,128.88c-.1,2.23-.28,5.81,0,7.91-2.24-.57-.27,2.97-.03,3.14,1.67,1.18,8.49-1.23,10.76-1.44l.64,53.29c.12.45.41.7.85.84,1.28.42,8.13-.51,9.41-1.18,1.61-.84,1.87-2.41,2.11-4.11v-52.8c2.77-.63,10.62-1.33,12.41-3.13,1.4-1.4,1.39-7.06,1.16-9.06-.24-2.16-2.47-4.18-4.77-3.6-10.44,2.81-20.96,5.4-31.59,7.4-1.27.41-.89,1.68-.94,2.73ZM220.62,139.27c-1.08,1.54-1.94-1.36-3.06-1.11-.35.08-.87.91-.85,1.38-.61,14.68.82,30,.03,44.6-.09,1.61-.34,4.61-.58,6.1-.17,1.03-1.09,1.29-1.12,2.23.69.9,1.7-.61,2.59-.69.75-.06,1.58.79,2.17-.12.68-1.04.13-5.9.23-7.6.05-.84.58-1.26.59-1.34.42,3-1.18,13.89,1.66,15.33,1.31.66,3.79.71,4.31-.82,6.52-1.36,14.62-1.56,20.91-3.5,3.79-1.17,3.57-6.31,3.22-9.63-.44-4.21-3.38-3.91-6.93-3.55-2.42.25-6.43.99-8.13,2.17-.18.12-.6.18-1.11.56-1.83.04-1.62.4-1.67-1.37-.51-16.29.46-32.65-.1-48.94-1.1-3.7-9.63-1.49-11.05.44-1.13,1.54-1.27,4-1.1,5.86ZM203.9,171.67h-3.34c.11,1.07-.12,4.46-2.25,3-1.61-1.1-.57-2.84-.67-3.85-.18-1.67-2.2-4.25-.97-6.15h-1.66c-.22,3.46-.28,7.33-.53,11.14-.05.84-.58,1.26-1.08,1.34v-32.61c.21-4-.65-5.11-4.75-4.66-2.39.26-5.94,1.29-6.76,3.82-.88,2.67-.16,10.31-.24,13.69-.17,7.71-.29,15.58-.57,23.38s.77,15.39,5.68,21.35c2.17-.44,1.97,1.03,2.79,1.38,3.97,1.72,14.75-.51,18.02-3.49.79-.73.55-1.2.8-1.69,3.82-1.47,6.6-8.07,7.19-12.02.45-2.99.02-5.79.05-8.59l.43-.67-.43-.44c.01-2.11,0-4.02,0-6.13.72-.52.73-1.16-.22-1.67v-2.23c.23-9.89.31-19.8.11-29.69-.55-2.54-2.38-2.22-4.57-2.01-2.59.25-6.63,1.12-6.99,4.15-.13,10.67.08,21.35-.03,32.65Z"/>
      <path class="cls-2" d="M427.85,134.81c-.03.6-.25,1.16-.56,1.67-.12-.58-.38-1.39-.56-2.23.35.11.82.53,1.11.56Z"/>
      <path class="cls-2" d="M302.61,98.26c4.66-1.34,9.58-2.33,14.33-3.46,8.09-1.92,16.38-3.62,24.25-5.67,2.53-.66,5.36-1.96,7.99-2.21,1.6-.15,3.46.65,4.27.45.93-.24,1.96-1.57,3.52-1.69,2.12-.17,1.65,1.84,2.22,1.83.43,0,1.07-.51,1.67-.58,4.16-.46,2.59,1.1,3.93,1.64,2,.81,4.24-.16,5.38.17.95.27,1.77,2.16,2.61,2.64,2.06,1.18,1.54-.45,2.29-1.74,1.01-1.74,1.71-.15,2.89-.46,2.61-.68,1.98-.33,4.57-.47,1.48-.08,2.74-1.04,4.19-1.24.61-1.5-1.08-1.05-1.14-1.49-.24-1.9,1.95-2.79,2.74-4.27.44-.82.46-2.11.74-2.5.45-.63,3.08-.69,3.97-1.28.47-.31.63-1.28,1.63-1.97.91-.64,13.22-4.77,13.93-4.56.52.15.96.92,1.81,1.1,3.7.77,2.94-1.24,4.16-2.1.72-.51,8.08-2.73,9.65-3.31.53-.2.37-1.14.67-1.2,1.82-.32,1.51,1.05,2.25,1.81s1.92.24,2.21,1.81c1.68.6.28-2.24.28-2.74,0-1.43,1.85-1.97,2.68-1.3.14.12.05.76.2.89,1.15.96,2.99-.98,4.12-1.07s1.86,1.08,3.27,1.26c2.52.32,6.56-1.03,8.93-.66,1.24.19,1.73,1.84,3.07,1.83.76,1.57-3.31,2.53-2.22,3.58.78.76,6.61-.93,7.16-.51.16.12.29.98.62,1.4,1.4,1.75,5.73,4.74,6.17,5.51.74,1.28.4,4.24.57,4.37.28.21,1.31-.18,1.59.05.2.16.16,4.08,1.18,5.06-2.92,1.15,0,1.54.03,1.85l-.61,2.65h1.57s-1.32,1.22-1.64,2.24c-.7,2.22,1.84,2.79,2.13,3.96.22.89-.89,2.69.07,4.08-.89,0-1.74.28-2.59.5-.95.26-1.57-.45-1.31,1.17l4.94-.5c1.43,2.37,1.31,5.16,2.3,7.74-1.19-.07-2.19.54-3.23.99-.83.35-1.52-.35-1.23,1.24,8.04-2.34,4.7,3.84,2.93,8.25-.5,1.23.57,2.16-1.82,1.78-.23.98.66,1.23.99,2.1.21.54,0,1.59.16,1.76.24.24,2.36-.34,2.72.94.27.98-.53,1.93-.4,2.64.09.49.9.97,1.01,1.77.29,2.17-1.64,2.06-3.37,1.93.26,3.25.7,5.81-.13,9.06-.4,1.58-2.83,2.96,1.25,2.64.08,1.17-.16,2.45.01,3.6.15.95.88,1.66.97,2.32.12.96-.77,2.32-.81,3.36s.6,2.07.42,3.19c-.03.16-2.52,1.58-2.85,1.71-1.3.52-3.45-.13-3.32,1.97,3.36-.32,6.68-1.23,10.02-.55.05,1.32-1.24,1.87-1.56,3.17-.18.72-.26,1.89-.14,2.61.15.9,2.89.27,2.26,2.01-1.89,1.11-3.46-.14-5.15.1-.43.06-3.51,1.38-3.76,1.59-1.11.9,1.45,1.3,1.6,1.99.04.22.12,4.17.09,4.39-.23,1.47-1.99,2.31-.57,4.75-3.25-.61-5.8,1.23-8.91,1.12.54,1.92,1.19,8.58.01,9.76-1.29,1.28-3.74.61-5.31.81-1.97.26-4.24.9-6.17,1.09-.74.07-1.5-.5-2.1-.41-.17.03-2.96,1.48-3.06,1.62-.28.41,0,1.52-.06,2.13.99-.19,2.16.53,2.98.45,1.19-.12,1.84-1.71,3.13-1.54-.46,1.29-.36,2.75-.69,4.04-.15.59-.94,1.05-1,1.82-.08.92.97,3.6-.03,4.68-.24.25-5.53-.04-6.69,1.39-.85,1.05-.51,4.33-1.06,5.9l3.28-.06.62-4.4c2.04.23,4.7-.57,6.44.53,2.9,1.84-.31,5.22-.77,7.12-.31,1.28,1.45,3.98-.06,5.48-1.15.78-2.51-.23-3.58-.16s-2.37,1.25-3.7.97l-1.11-1.67c0,.63.84,1.5.03,1.96-1.37.77-9.38,1.78-11.44,1.95-5.07.42-6.23.07-11.4,1.41-6.11,1.59-16.43,1.2-23.16,1.91-11.53,1.23-22.96,3.44-34.47,4.5-21.8,2.01-43.89,4.71-65.78,7.22-13.1,1.5-26,3-39.01,4.44-25.53,2.83-50.94,5.35-76.37,8.87-1.3.18-5.09.77-6.05.62-3.31-.49-.86-4.11-.81-6.42.04-2.06-1-4.03-.59-6.12.17-.91,1.13-1.52,1.13-2.24,0-.44-1.51-4.41-1.57-6.25-.03-.84.94-1.25.97-2.08.12-2.79-.43-7.63-.54-10.61-.05-1.42-.31-4.03.52-5.07,1.49-1.85,7.74.32,6.73-4.13-1.63-.4-1.06,1.35-2.21,1.93-.27.13-3,.22-3.35.05-2.39-1.15-1.12-2.72-1.09-4.47.06-4.27-.46-8.61-.6-13.1,1.07-.35,1.91,1.44,2.09,2.09.59,2.07.16,8.51,3.72,7.34.75-.24.75-1.4.96-1.54,1.72-1.12,2.23,1.59,2.19,2.96-.06,1.86-2.7,5.42.23,5.87,1.65.25,3.61.28,3.63-1.67,1.47-.45.82.75,1.5,1.1,4.63,2.33,15.62,1.65,20.52.04,5.19-1.69,9.22-.5,14.49-1.11,1.38-.16,1.94-1.06,3.28-1.19,1.74-.17,3.15.65,4.44.58,1.78-.09,5.41-1.78,7.41-2.09,3.57-.55,11.48.36,11.3-5.14,4.17-.5,8.43-1.53,12.59-2.18,56.36-8.77,112.91-17.3,169.44-25.54,6.82-.99,12.6-1.93,19.36-1.88.78,0,1.61-.67,2.5-.48.14,1.89-.21,3.96.04,5.81.07.56,1.03,4.47,1.17,4.67.93,1.34,4.58-.15,6.04.1.44-1.84-1.75-.95-3.03-1.15-.66-.1-1.3-.36-1.92-.58-.13-3.52.16-7.03-.68-10.47-.86.28-1.86-.57-2.17-.61-.57-2.52,2.56-2.38,3.87-3.09.31-.17,3.56-2.81,3.67-3.01.31-.58.3-1.07.26-1.69l-1.67-.83c3.29-1.32,4.05-3.3,5.3-6.4.3-.75.15-1.67.4-2.38.37-1.05,1.29-1.55,1.51-2.94.41-2.63-.39-4.25-1.14-6.62,3.25-1.29.78-5.12,2.04-7.84v-.66h-1.44c-.22-.71.89-1.34,1.04-2.25.16-.98-.61-2.01-.49-3.19.1-1.03,1.05-1.83,1.14-2.85.15-1.82-1.57-2.63-1.7-3.89-.14-1.36,1.09-2.23,1.14-3.34.08-1.77-.65-4.85-.6-6.65.04-1.58.72-3.01.62-5.05-.08-1.77-.89-3.44-.59-5.27l-3.34.55c-.58-1.94,3.22-1.1,3.37-1.99-.14-2.18-2.15-6.92-2.15-6.92v-1.14s1.67,0,1.67,0c.39-1.7-1.32-2.61-1.59-4.02-.36-1.87.65-3.87-.21-6.34-.51-1.47-1.78-1.36-2.01-1.72-.38-.6.2-2.33-.36-3.52-.17-.36-5.19-4.62-5.91-5.03-.93-.53-3.72-1.63-4.67-1.59-2.71.12-5.52,1.67-7.95,2.3-1.77.46-4.17.37-5.88.86-1.16.33-1.8,1.46-2.91,1.66-2.16.39-6.3,1.17-8.33,1.25-2.94.11-5.39-1.88-5.87,2.96-1.35.6-1.46-1.9-1.49-2.81-.02-.71.36-1.3.38-1.98-1.9-.57-4.17.8-5.81.61-1.02-.12-1.89-1.22-2.73-1.11-1.2.16-4.34,1.75-5.79,2.16-3.75,1.07-2.67-.35-5.76,2.79-1.64,1.66-2.91,1.13-1.63,4.53-1.03.23-2.26.56-3.19,1.07-.53.29-3.96,2.57-4.11,2.77-.86,1.12-.22,2.61-.61,3.25-.22.37-3.08,1.61-3.78,2.23-1.15,1.03-.77,2.74-3.58,2.09-.25-.06-.55-2.07-2.55-1.21.26,4.53-5.18,4.98-8.37,4.19l2.78-3.59c-3.65-1.55-5.5,1.24-9.1-1.3-.81-.57-1.48-1.7-2.04-2.01-2.55-1.41-9.34,1.83-12.12,2.55-.83.21-4.81,1.11-5.1.7-.35-.5.11-2.73-1.72-2.34-.09.64.24,1.97-.06,2.33-.11.13-2.78,1.2-3.02,1.25-.8.15-3.08.2-3.81.02-.45-.11-.25-1.11-.7-1.22-1.04-.26-4.43-.23-4.06,1.44.13.6,1.99,1.59.51,2.47-.63.38-5.32,2.09-5.9,2.08-.53-.01-1.21-.43-1.34-.89-.63-2.15,1.59-.82,1.11-2.69-.33-.34-3.09.78-3.54,1.15-.69.57-.65,3.22-3.42,3.05-1.25-1.34.76-1.06.85-1.57.1-.61-.08-1.37-.02-2.03-2.01.01-3.8.91-5.88.63-1.31-.17-1.98-1.18-2.72-1.2-3.11-.11-6.87,3.01-7.27,3-.76-.03-1.21-.96-1.76-1.1-.87-.22-2.76,1.66-2.42-.73,1.54-.45,3.67-1.41,5.01-1.8ZM433.38,188.3c-1.02.08-3.06-.37-3.66.52-1.3,1.95.7,10.19.31,12.85l2.77-.02c-.34-.88.58-2.14.58-2.49v-10.86ZM423.38,189.4c-2.1.03-3.81-.67-3.95,1.94-.12,2.32.56,5.46.63,7.78.11,3.62-.14,7.27-.03,10.89.18.2,3.34-.39,3.34-.56v-20.05ZM410.02,191.07l-5.46,1.23-6.24,20.5c3.98.53,4.56-1.52,5.05-4.97l7.76-1.16,1.15,4.43,3.87-.53c-1.72-6.57-5.11-12.77-6.13-19.5ZM372.38,196.96v18.1l3-.52.02-6.01c.95.35,2.95-.7,3.53-.29.91.65,2.26,4.9,3.33,5.25.64.21,1.73.11,2.45.07.68-.04.93.18.75-.76-.33-1.8-4.21-4.72-2.56-6.57,1.03-1.15,1.69-.31,2-3.01s.24-5.28-2.28-6.68-7.19.96-10.24.43ZM366.38,197.32l-3.28.57c-.79,4.56,2.13,14.29-2.91,16.61-1.81.83-4.8-.31-4.8-2.06v-12.73l-3-.28v14.28c0,.14,1.14,2.09,1.37,2.39,2.65,3.39,7.62,2.48,10.49-.22.63-.59,2.13-3.14,2.13-3.79v-14.77ZM340.25,200.68c-11.1,1.47-11.36,19.19-1.82,19.93,11.7.9,13.63-21.5,1.82-19.93ZM330.36,202.77c-5.42-.26-4.73,5.86-7.52,8.91-.47-.97-2.76-6.9-3.13-7.17-.55-.39-2.91.11-3.83-.07-.57.53,5.11,9.36,5.45,10.98.45,2.1-.08,4.67.12,6.85l3.29-.6c.29-2.17-.29-4.68.16-6.8.37-1.72,6.25-11.3,5.45-12.09ZM434.11,206.39c0-1.42-1.15-2.58-2.58-2.58s-2.58,1.15-2.58,2.58,1.15,2.58,2.58,2.58,2.58-1.15,2.58-2.58ZM305.85,206.73c-.83.15-2.75-.3-3.27.07-.28.2-2.57,5.32-2.98,6.22-.32.7-.36,1.93-.44,2.06-.67,1.06-1-.33-1.23-.72-1.87-3.17-1.83-7.9-6.57-5.96-.45.37,5.18,9.11,5.45,10.42.44,2.11-.07,4.67.11,6.85h2.79c.19-2.17-.34-4.75.11-6.85.69-3.22,4.83-8.68,6.01-12.09ZM285.38,209.46c-.95-.14-4,.84-4,.84v17.57l11-1.16v-3.3s-7,1.08-7,1.08v-15.02ZM276.48,221.55c2.32-2.06,2.97-6.36,1.29-9.05-2.27-3.63-7.1-1.08-10.64-1.13-.32.22-1.11,4.31-1.1,5.05,0,.82.54,1.6.53,2.3-.07,3.77-.58,7.55-.5,11.35l3.32-.57.08-6.05c2.18-.97,5.16-.23,7.02-1.89ZM262.38,212.24c-1.28-.44-2.03-.44-3,0v19.42h3v-19.42ZM249.38,218.65v14.02h3v-14.58c-.01-.07.56-1.28.62-1.32,1.07-.73,4.08,1.19,3.27-3.41-2.73.92-8.74.59-10.8,2.18-.56.44-.48,1.38-.31,1.97.44,1.51,3.39-.67,4.22,1.14ZM239.38,229.41v-12.27c0-1.4-2.86-1.01-3.8-.8l.53,17.43,9.27-1.09v-3.27c-2.18.71-3.82.05-6,0ZM231.38,217.67h-3v11.57c.03.18-.83,1.98-1.08,2.23-1.37,1.36-4.92-.56-4.92-.56v-12.12l-2.68.88c.61,3.9-1.17,11.41,1.08,14.44,2.38,3.21,7.23,2.33,9.25-.86.26-.41,1.34-2.86,1.34-3.04v-12.53ZM215.38,219.5c-1.07.02-2.24-.3-3.07.55-1.25,1.29-3.1,7.7-4.44,8.34-1.09-1.44-2.94-6.1-4.16-6.98-.67-.49-2.37.65-3.34.32v16.58l2.22-.86c-.13-3.57-.13-7.09.51-10.59l3.35,5.64,1.28,1.44c.9.02,3.05-7.09,4.64-7.63v11.22c3.41.42,2.15-2.7,2.43-5.07.06-.56.57-1.07.57-1.23v-11.73ZM177.72,229.67h-1.11c-.41,2.48,1.52,2.48,1.11,0ZM183.38,232.3c-.63-.73-1.07-.09-1.11.83-.1,1.95.29,3.98-.24,5.89-.87,1.3-4.93-.65-4.77,2.19,3.79.57,6.85-.47,10.35-1.07,1.58-.27,3.53.58,4.69-.89.18-1.77-2.7-.31-3.61-.26-1.76.09-3.55-.08-5.3,0v-6.69Z"/>
      <path class="cls-2" d="M254.04,110.85c-.08-1.27.61-1.95-1.16-1.45-4.7,1.34-9.38,2.17-14.04,3.23-3.89.88-9.21,3.84-13.54,4.3-1.43.16-3.1.27-3.01-1.63,2.94.65,2.63-.77,3.92-1.93,1.36-1.23,3.82-1.45,3.89.81,1.38.31,1.42-1.18,2.25-1.92,1.54-1.38,5.2-1.3,7.35-2.12,3.62-1.38,2.96-2.37,7.44-2.11,3.18.18,4.69-3.41,6.76-4.3,1.23-.53,2.93-.44,4.18-.83,11.61-3.66,22.7-5.95,34.27-9.18,2.63-.73,4.88-2.03,7.71-2.32s6.85.61,8.79.37c.72-.09,1.34-.93,2.3-.95,1.87-.04,2.64,1.59,2.51,3.31-1.74.46-10.18,1.86-10.89,2.78-.28.36-.16,1.02-.26,1.12-.09.09-1.23-.64-2.44-.54-1.33.12-4,.89-5.49,1.25-3.92.95-8.09,2.33-12.03,3.6-1.37.44-1.4-.07-1.22,1.82-9,2.6-18.3,4.15-27.3,6.68Z"/>
      <path class="cls-2" d="M316.99,93.03c-1.68-5.06,2.94-5.02,6.57-5.96,2.01-.52,5.7-1.64,7.62-1.77,2.6-.17,5.8.93,8.37.47.82-.14,2.55-2.07,3.06-.27.83,2.9-6.36,2.12-7.98,2.6-.97.29-3.43,2.53-5.36,2.44l-12.28,2.48Z"/>
      <path class="cls-2" d="M366.38,84.67v1.11c-2.48.41-2.48-1.52,0-1.11Z"/>
      <path class="cls-2" d="M312.23,154.86c1.79,3.36,7.09,17.12,7.8,20.61.09.43.35,3.74.27,3.92-.22.5-1.39,1.34-1.95,1.65l-9.4.48c-2.31-3.31-6.84-22.19-8.97-23.62-1.11-.74-4.93,0-5.04,1.68-.71,3.78,1.08,21.64-.25,23.7-.36.55-1.24.73-1.84.95-1.18.43-6.63,1.39-7.36,1.01-.22-.11-1.12-1.06-1.12-1.14v-63.51c0-.35,1.42-2.29,2.08-2.38,8.18-1.01,19.22-6.81,26.61-1.25s7.3,22.28,3.37,29.55c-.93,1.73-4.97,5.46-5.26,6.47-.43,1.48.92,1.6,1.06,1.86ZM287.38,121.72v60.44c7.05-.63,5.23-.56,4.99-5.82-.27-5.92.25-11.92.03-17.85.6-3.48,8.33-5.11,10.51-2.16l7.92,21.89c.86.3,6.65-.1,6.65-.8l-8.78-23.48c-.17-2.5,4.35-6.37,5.54-8.71,3.4-6.7,3.5-20.76-2.95-25.7-4.58-3.51-8.8-1.72-14-.71-1.54.3-9.64,1.9-9.91,2.9Z"/>
      <path class="cls-2" d="M334.82,111.97c-4.81,21.01-7.31,42.98-12.26,64.06l-2.23-.56c-.71-3.49-6.01-17.25-7.8-20.61.12-2.35,2.38-3.39,3.59-5.04,5.36-7.31,5.38-21.57,1.87-29.68-.35-.8-1.16-.78-1.57-1.34-.52-.7-.89-2.12-1.1-2.38-.04-.05-.68-.27-1.11-.56l.28-.55.79.05.04,1.06c3.96-1.1,5.15,2.98,8.21,3.78,1.35.36,3.18-.23,4.27-1.07,1.3-1.01.7-2.26,3.68-1.6l.24-5.05,3.1-.52Z"/>
      <path class="cls-2" d="M245.02,129.24c1.19-.7,2.45-1.14,3.78-1.51,7.66-2.14,21.35-5.92,28.88-6.79,1.91-.22,2.49.54,2.88,2.57s.48,6.03-1.25,7.43c-2.21,1.78-11.23,1.51-11.92,3.68l-.63,54.4c-.35.76-7.1,2.21-7.98,2-1.88-.44-1.43-2.99-1.5-4.39l.46-.36c.21-1.05.21-2.14,0-3.19l-.46-.36c-.08-6.49.02-13.01,0-19.5l.47-.36c.19-.68.19-1.39,0-2.07l-.47-.36c-.01-3.02.38-21.9-.25-22.87-1.63-2.49-11.28,4.88-12.01-.53-.28-2.07-.1-5.6,0-7.8ZM259.38,136.76v50.97l4-1.46v-52.18c1.84-4.71,9.76-4.02,13.4-5.5l.66-4.63-28.98,7.23c-.73.74-1.75,3.94-.3,4.08l8.26-1.48c1.1.18,2.96,1.95,2.95,2.98Z"/>
      <path class="cls-2" d="M449.94,172.13c.31.04,1.32.89,2.17.61.84,3.44.55,6.95.68,10.47.62.22,1.26.48,1.92.58,1.28.2,3.48-.69,3.03,1.15-1.46-.25-5.11,1.24-6.04-.1-.14-.2-1.1-4.12-1.17-4.67-.25-1.86.1-3.93-.04-5.81-.89-.18-1.72.49-2.5.48-6.77-.05-12.55.89-19.36,1.88-56.53,8.24-113.07,16.76-169.44,25.54-4.16.65-8.42,1.67-12.59,2.18-.72.09-1.5-.05-2.23,0v-1.67c4.18.09,8.11-1.37,12.11-2.09,14.3-2.58,28.45-4.14,42.71-6.31,39.25-5.97,78.41-12.15,117.65-17.72,9.56-1.36,20.11-3.47,29.53-4.45,1.06-.11,2.54-.19,3.57-.05Z"/>
      <path class="cls-2" d="M235.67,182.72c.52.94,2.13.61,3.01.5,2.09-.25,8.4-2.23,9.82-1.36,1.82,1.11,1.32,9.11-.25,10.38l-24.02,4.16-1.85-1.23-.05-51.2c-.18-2.18-.5-6.86.07-8.79.68-2.28,6.41-2.65,8.47-2.63,1.04.17.96,4.37.91,5.33-.3,5.57-.31,11.54-.28,17.26.05,9.73.52,19.51.27,29.25,1.95.53,2.03-.56,2.78-1.12.51-.38.93-.43,1.11-.56ZM229.38,135.45l-5,.56v57.78l21.98-4.41.24-5.03c-.56-.57-13.2,3.46-15.73,2.68-.39-.12-1.49-1.12-1.49-1.29v-50.28Z"/>
      <path class="cls-2" d="M215.38,166.62c0,.19,0,.32,0,.5,0,.56,0,1.13,0,1.69s0,1.13,0,1.69c0,2.13.01,4.06,0,6.2,0,.38,0,.75,0,1.13-.03,2.83.41,5.65-.05,8.68-.6,4-3.41,10.67-7.27,12.16,1.39-2.68,3.42-4.68,4.61-7.5,2.26-5.35,1.32-9.27,1.58-14.75.52-11.04,1.28-22.71.6-33.81-.12-1.96-.74-3.94-.84-5.92-.76-1.17-7.24.04-8.08.71-.32.25-.37,1-.54,1.41l-.19,43.75c-.84,4.49-1.68,7.91-6.29,9.55-2.97,1.06-5.84,1.55-6.63-2.17-.87-14.98,1.02-31-.01-45.84-.07-.97-.18-1.85-.55-2.76-.51-1-8.03.12-8.81,1.37-.32.51-.77,2.64-.86,3.39-.06.55.04,1.14,0,1.7-.07,1.12.03,2.27,0,3.4-.04,1.47.08,2.96-.1,4.42-.49,4.08-.36,8.2.04,12.29.08.84.05,1.69.06,2.53.05,8.5-1.8,23.43,4.52,29.72,4.01,3.99,9.69,3.06,14.59,1.56,2.54-.78,4.48-2.03,6.93-2.98-.26.5,0,.98-.82,1.72-3.32,3.03-14.28,5.3-18.31,3.55-.84-.36-.63-1.85-2.84-1.41-4.99-6.06-6.06-14-5.78-21.7s.41-15.92.58-23.76c.08-3.43-.65-11.19.24-13.91.84-2.56,4.45-3.61,6.87-3.88,4.17-.46,5.04.67,5.35,4.74l-.02,33.26c-.02.37.02.76,0,1.13-.03.56.02,1.13,0,1.69-.03.74.01,1.49,0,2.23s-.04,1.47,0,2.21c.02.4-.01.81,0,1.21.03.74-.08,1.52,0,2.26.13,1.21.34,3.34,1.94,3.38,1,.02,4.13-1.14,5.04-1.77,4.59-3.16,3.14-13.4,3.19-18.55.1-10.81-.1-21.63.03-32.45.37-3.07,4.46-3.95,7.09-4.2,2.22-.22,4.07-.53,4.63,2.04.21,10.03.13,20.07.12,30.09Z"/>
      <path class="cls-2" d="M355.98,111.67l1.97-.02c.85.75-.55,3.2-.3,3.36,3.13-.21,2.94,3.48,3.65,5.55.98,2.85,2.49,6.6,3.34,9.47.57,1.92.57,4.42,1.41,6.44.14,1.28-.47,1.89-1.71,1.95-.39,1.67.73.81,1.65,1.38,1.95,1.23,1.96,8.45,2.27,10.57.51,3.52,2.82,7.45,2.81,11.74,0,1.21-.82,1.58-1,2.31-.59,2.42,1.84,7.25-2.39,6.31,1.3,3.52-1.74,4.63-4.83,4.84-.73.05-1.45-.48-2.08-.42-.48.04.02,1.16-1.14,1.21-1.66.07-2.37-.49-3.65-1.17.24-.08.47-.54.56-.56,6.35-1.05,11.26,1.13,9.87-7.37-1.72-10.51-5.01-20.99-6.53-31.62-.75-5.23-4.44-20.17-3.9-23.95Z"/>
      <path class="cls-2" d="M438.38,159.1c-.28-4.29.48-9.28.02-13.43-.16-1.41-1.12-2.48-1.12-3.38,0-1.74.69-3.72.52-6.01.16-.77.45-1.5.57-2.28v-.57c-.05-1.78-.56-3.24-.6-4.82-.39-14.97.26-30.02.13-44.99.78-2.66,10.81-4.82,13.3-4.38,2.8.5,2.81,4.21,3.17,6.53l-.14,72.94c-.36,1.03-.92,2.16-2.01,2.56-1.36.49-9.27,1.75-10.63,1.67-2.72-.16-3.07-1.58-3.22-3.83ZM449.86,81.4c-2.19.22-9.09,1.85-9.48,4.14l-.02,72.4c.13,1.29.52,2.95,2.01,3.13.79.09,7.78-1.1,8.78-1.42s2.11-1.22,2.23-2.3l-.09-73.98c-.64-1.23-2.02-2.11-3.43-1.97Z"/>
      <path class="cls-2" d="M313.91,115.87c.43.29,1.07.51,1.11.56.21.26.58,1.68,1.1,2.38.41.55,1.23.54,1.57,1.34,3.51,8.11,3.49,22.37-1.87,29.68-1.21,1.65-3.47,2.69-3.59,5.04-.14-.27-1.49-.38-1.06-1.86.29-1,4.33-4.74,5.26-6.47,3.94-7.27,3.74-24.2-3.37-29.55s-18.43.24-26.61,1.25c-.66.09-2.08,2.02-2.08,2.38v63.51c0,.08.9,1.03,1.12,1.14.73.38,6.19-.58,7.36-1.01.59-.22,1.48-.4,1.84-.95,1.33-2.07-.46-19.92.25-23.7.11-1.67,3.94-2.42,5.04-1.68,2.12,1.43,6.66,20.31,8.97,23.62l9.4-.48c-2.19,1.22-7.83,2.53-10.04,1.4-1.93-.99-3.64-8.64-4.45-10.87-.54-1.49-1.13-2.95-1.67-4.46-.81-2.27-1.79-4.49-2.32-6.87-.49-1.41-3.85-1.38-4.3-.02-.41,1.25.44,4.07.49,5.78.09,3.25-.43,5.88-.56,8.91-.07,1.51-.09,3.24,0,4.74.11,1.98,1.63,3.7-.8,5.31-1.77,1.16-10.56,2.86-11.34.16-.44-16.12.23-32.27-.07-48.39-.03-1.34-.57-2.5-.61-3.85-.14-5.15-1.1-12.11,2.66-15.9,9.34-1.92,19.75-6.94,28.56-1.12Z"/>
      <path class="cls-2" d="M244.57,129.24c.05-1.04-.33-2.28.93-2.69,10.49-1.97,20.86-4.52,31.16-7.3,2.27-.57,4.47,1.42,4.71,3.55.22,1.97.23,7.56-1.15,8.94-1.77,1.77-11.84,3.08-11.84,3.08v52.13c-.24,1.64-.49,3.17-2.05,3.98-1.24.65-7.89,1.54-9.13,1.14-.42-.14-.7-.38-.82-.82l-.6-51.34c-2.13.2-8.53,2.46-10.09,1.35-.22-.16-2.07-3.48.03-2.94.69,5.15,9.87-1.86,11.42.5.6.92.23,18.87.24,21.74,0,.88,0,1.77,0,2.65.02,6.17-.07,12.37,0,18.54.01,1.23-.06,2.48,0,3.71.06,1.33-.37,3.75,1.42,4.17.83.2,7.25-1.18,7.59-1.9v-53.12s10.26-1.9,12.47-3.68c1.74-1.4,1.65-5.4,1.25-7.43s-.97-2.79-2.88-2.57c-7.53.87-21.22,4.65-28.88,6.79-1.33.37-2.59.82-3.78,1.51Z"/>
      <path class="cls-2" d="M220.62,139.27c-.17-1.86-.03-4.32,1.1-5.86,1.42-1.94,9.95-4.14,11.05-.44.57,16.29-.41,32.66.1,48.94.06,1.77-.16,1.42,1.67,1.37-.75.55-.83,1.64-2.78,1.12.25-9.74-.22-19.52-.27-29.25-.03-5.72-.03-11.69.28-17.26.05-.95.13-5.16-.91-5.33-2.06-.02-7.79.35-8.47,2.63-.57,1.93-.25,6.61,0,8.79v51.2l1.84,1.23,24.02-4.16c1.57-1.26,2.06-9.27.25-10.38-1.43-.87-7.73,1.11-9.82,1.36-.88.11-2.49.44-3.01-.5,1.71-1.18,5.71-1.93,8.13-2.17,3.54-.36,6.48-.66,6.93,3.55.35,3.32.57,8.46-3.22,9.63-6.29,1.94-14.39,2.15-20.91,3.5-.52,1.53-3,1.49-4.31.82-2.84-1.44-1.24-12.33-1.66-15.33.04-.36-.03-.75,0-1.11.08-.92-.05-1.86,0-2.79.99-3.25,0-3.68-.24-5.85v-28.97c.24-1.81.45-2.37.24-4.74Z"/>
      <path class="cls-2" d="M220.38,139.27c.22,2.37,0,2.93,0,4.74v28.97c0,2.17.99,2.6,0,5.85-.16.53-1.13,1.25-.47,2.43l.47.36c-.03.37.04.75,0,1.11,0,.07-.54.5-.59,1.34-.1,1.7.45,6.56-.23,7.6-.6.91-1.43.05-2.17.12-.88.08-1.9,1.59-2.59.69.03-.94.95-1.2,1.12-2.23.25-1.49.5-4.49.58-6.1.79-14.6-.64-29.92-.03-44.6-.02-.47.49-1.3.85-1.38,1.12-.25,1.98,2.65,3.06,1.11Z"/>
      <path class="cls-2" d="M427.85,134.81c.86.08,2.83-.24,3.28.07.71.5.1,3.95,3.84,2.33s-.47-6.65,2.91-6.86c.12,1.38-.16,2.88-.03,4.23.08.82.58,1.26.59,1.34.16,2.24-.51,4.18-.51,5.87,0,.88.94,1.92,1.09,3.3.45,4.05-.3,8.92-.02,13.11-1.98-.21-3.25,1.59-5.01,1.67.19-1.92-.12-2.19-1.67-1.12-.24-1.49-1.26-4.33-1.67-6.13l.49-.38c.05-.83-.86-5.44-1.1-5.71-.16-.18-.74-.03-1.06-.04-.03-.33-.05-.8,0-1.11.01-.08.52-.33.56-.85.09-.98-.64-4.56-1.4-5.27l-.28.55c-.18-1-.34-2.3-.56-3.34.31-.51.53-1.07.56-1.67Z"/>
      <path class="cls-2" d="M426.18,132.67h1.67c-.02.74.04,1.49,0,2.23-.3-.03-.76-.45-1.11-.56-.1-.46-.42-1.03-.56-1.67Z"/>
      <path class="cls-2" d="M353.76,105.28l.56,1.11c.05.17-.05.39,0,.56.42,1.36.52,1.93,1.11,3.34.13.31.58.93.56,1.11-.54,3.78,3.15,18.72,3.9,23.95-1.11-2.58-1.91-6.08-2.52-8.9-.99-4.64-1.52-9.47-2.63-14.08-.32-1.31-1.92-7.35-2.65-7.66-.07-.85-1.61-.85-1.67,0-.08.01-.37.43-.88.51-2.32.36-9.43,1.31-11.04,2.33-1.4.89-2.03,4.31-2.41,5.95-4.33,18.81-7.09,39.1-10.89,58.19-.5,2.53-2.07,5.21-.9,7.61,2.3.05,8.65-.06,10-1.84s1.81-11.4,2.87-14.42c.26-.75.55-.64.99-.94l.56.56c-1,2.2-1.27,4.35-1.67,6.68-.34,2.01-.83,1.33,0,3.9.09.28-.06.77,0,1.11-1.42.42-1.28,2.76-1.97,3.88-.97,1.57-3.84,1.91-5.6,2.19-1.54.24-4.87.76-6.01,0-1.91-1.28-1.32-2.62-.9-4.39,4.94-21.08,7.45-43.05,12.26-64.06.58-2.55,1.02-5.41,3.88-6.43,1.71-.61,9.82-2.26,11.54-2.3.68-.02,2.47.33,2.99.65.63.4.38,1.07.53,1.39Z"/>
      <path class="cls-2" d="M193.61,178.09c0-.08.56-.52.62-1.4.26-4,.33-8.05.56-12.02h1.74c-1.28,2.34.84,5.03,1.02,6.79.11,1.06-.99,2.88.7,4.03,2.23,1.53,2.47-2.02,2.36-3.82h3.5c-.05,5.32,1.45,15.9-3.29,19.17-.94.65-4.18,1.85-5.21,1.82-1.65-.04-1.86-2.23-2-3.49l.52-.36c.14-.68.33-1.84-.52-1.97-.02-.39.01-.78,0-1.17l.52-.36c.14-.68.33-1.84-.52-1.97.02-.78-.03-1.56,0-2.33.89-.07.89-1.68,0-1.75.02-.39-.02-.78,0-1.17Z"/>
      <path class="cls-2" d="M416.15,157.65l-.55.28.55.28c.09.31-.09.8,0,1.11-4.02-.59-5.84-2.87-10.28-2.2-3.22.48-2.91,2.8-4.2,4.6-.43.6-2.05,1.67-2.51,2.61-1.22.6-.83-1.65-.83-2.22,0-1.61.96-9.52,2.07-10.03l13.19-2.19c.96.28,2.19,6.42,2.57,7.77Z"/>
      <path class="cls-2" d="M351.53,160.99c.3,2.15,1.23,4.49,1.67,6.68l-.55.28.55.28c.1.5-.1,1.17,0,1.67-1.28-.13-2.88.27-4.08-.1-.81-.24-1.08-1.35-2.32-1.57-1.87-.34-4.39.02-5.56,1.68-.87,1.24-.67,3.14-1.63,3.94s-1.86.3-2.55.51c-.06-.35.09-.83,0-1.11.28-1.16.82-2.32.48-3.53l-.48-.37c.4-2.34.67-4.48,1.67-6.68l12.81-1.67Z"/>
      <path class="cls-2" d="M296.38,166.01c1.61.52.78,1.41.85,2.21.13,1.47.28,2.98.26,4.47.5.54,3.6-2.53,3.93-3.03.57-.89.33-1.93,1.09-2.54.54,1.51,1.13,2.97,1.67,4.46-1.69,1.66,1.96,5.71-.28,6.68-1.07.46-.7-1.06-1.14-1.14-1.88-.34-3.24,2.23-5.49.63-1.04-.74.76-3.24-1.44-2.83.13-3.03.65-5.66.56-8.91Z"/>
      <path class="cls-2" d="M352.09,159.88c.47.31.68.22.98.94,1.38,3.29,1.41,8.19,2.27,11.7.24.99.14,1.31,1.21,1.84-.09.01-.32.48-.56.56-.21-.11-.7.01-1.1-.28-.93-.67-1.45-3.49-1.68-4.74-.1-.5.1-1.17,0-1.67-.04-.18.04-.38,0-.56-.44-2.19-1.38-4.54-1.67-6.68,0-.06.32-1.05.56-1.11Z"/>
      <path class="cls-2" d="M355.43,110.3c-.6-1.41-.7-1.99-1.11-3.34,1.13.7,1.19,2.14,1.11,3.34Z"/>
      <path class="cls-2" d="M413.38,80.22v1.11c-2.48.41-2.48-1.52,0-1.11Z"/>
      <circle class="cls-6" cx="365.88" cy="100.17" r=".5"/>
      <circle class="cls-5" cx="332.88" cy="98.17" r=".5"/>
      <path class="cls-2" d="M215.38,170.46c0-.56,0-1.11,0-1.67.73.51.72,1.15,0,1.67Z"/>
      <path class="cls-2" d="M354.31,106.4l-.56-1.11c.17.35.37.44.56,1.11Z"/>
      <path class="cls-2" d="M215.6,177.7c0-.37,0-.74,0-1.11l.43.44-.43.67Z"/>
      <path class="cls-2" d="M215.38,167.12c0-.19,0-.37,0-.56v.56Z"/>
      <path class="cls-2" d="M439.38,133.69s0-.49,0-.56v.56Z"/>
      <path class="cls-2" d="M372.38,196.09c3.13.59,8.2-2.09,11.11-.48s2.85,4.54,2.53,7.4c-.34,3-1.07,2.06-2.21,3.34-1.83,2.05,2.46,5.28,2.83,7.28.19,1.05-.08.8-.84.84-.8.05-2.01.15-2.72-.08-1.18-.38-2.68-5.09-3.69-5.82-.63-.45-2.86.71-4.01.33v6.67l-3,.57v-20.05ZM375.34,205.56c4.08-.13,8.5-1.49,6.16-6.44-2.04-.71-4.12-.02-6.12.35l-.04,6.09Z"/>
      <path class="cls-2" d="M410.02,191.07c1.02,6.73,4.4,12.92,6.13,19.5l-3.87.53-1.15-4.43-7.76,1.16c-.49,3.45-1.07,5.5-5.05,4.97l6.24-20.5,5.46-1.23ZM407.79,195.53c-1.36-.1-.95-.13-1.11.83-.45,2.62-1.67,4.96-2.23,7.53l5.57-.56c.32-.25-2.88-6.47-2.23-7.8Z"/>
      <path class="cls-2" d="M340.25,200.68c11.81-1.57,9.88,20.84-1.82,19.93-9.54-.74-9.28-18.46,1.82-19.93ZM339.67,203.97c-5.44,1.07-7.04,13.05-.67,13.33,7.84.34,7.61-14.7.67-13.33Z"/>
      <path class="cls-2" d="M366.38,197.32v14.77c0,.65-1.5,3.2-2.13,3.79-2.88,2.7-7.85,3.61-10.49.22-.24-.3-1.37-2.26-1.37-2.39v-14.28l3,.28v12.73c0,1.75,3,2.89,4.8,2.06,5.04-2.33,2.13-12.05,2.91-16.61l3.28-.57Z"/>
      <path class="cls-2" d="M215.38,219.5v11.73c0,.16-.51.67-.57,1.23-.27,2.38.99,5.49-2.43,5.07v-11.22c-1.59.54-3.74,7.65-4.64,7.63l-1.28-1.44-3.35-5.64c-.65,3.5-.64,7.03-.51,10.59l-2.22.86v-16.58c.97.33,2.66-.81,3.34-.32,1.22.89,3.07,5.55,4.16,6.98,1.34-.65,3.18-7.06,4.44-8.34.83-.85,2-.52,3.07-.55Z"/>
      <path class="cls-2" d="M276.4,221.55c-1.87,1.66-4.84.92-7.02,1.89l-.08,6.05-3.32.57c-.08-3.8.43-7.58.5-11.35.01-.7-.52-1.48-.53-2.3,0-.74.78-4.83,1.1-5.05,3.54.04,8.37-2.5,10.64,1.13,1.68,2.69,1.03,6.99-1.29,9.05ZM275.61,218.25c.37-.78.38-3.59-.37-4.09s-4.85-.49-5.36.28c-.71,1.06,0,4.19-.25,5.61,1.43.07,2.89,0,4.25-.48.21-.07,1.68-1.22,1.73-1.32Z"/>
      <path class="cls-2" d="M231.38,217.67v12.53c0,.19-1.08,2.64-1.34,3.04-2.03,3.19-6.87,4.08-9.25.86-2.25-3.03-.48-10.54-1.08-14.44l2.68-.88v12.12s3.55,1.92,4.92.56c.25-.25,1.11-2.05,1.08-2.23v-11.57h3Z"/>
      <path class="cls-2" d="M330.36,202.77c.8.79-5.09,10.37-5.45,12.09-.45,2.12.13,4.63-.16,6.8l-3.29.6c-.2-2.17.33-4.74-.12-6.85-.35-1.62-6.03-10.45-5.45-10.98.92.18,3.28-.32,3.83.07.38.27,2.67,6.19,3.13,7.17,2.79-3.05,2.11-9.17,7.52-8.91Z"/>
      <path class="cls-2" d="M305.85,206.73c-1.18,3.41-5.33,8.87-6.01,12.09-.45,2.1.08,4.68-.11,6.85h-2.79c-.19-2.18.33-4.74-.11-6.85-.28-1.31-5.91-10.05-5.45-10.42,4.74-1.93,4.7,2.8,6.57,5.96.23.39.56,1.79,1.23.72.08-.13.13-1.36.44-2.06.41-.9,2.69-6.02,2.98-6.22.52-.37,2.44.08,3.27-.07Z"/>
      <polygon class="cls-2" points="285.38 209.46 285.38 224.48 292.38 223.4 292.38 226.7 281.38 227.86 281.38 210.29 285.38 209.46"/>
      <path class="cls-2" d="M249.38,218.65c-.84-1.81-3.79.37-4.22-1.14-.17-.58-.25-1.53.31-1.97,2.06-1.59,8.08-1.27,10.8-2.18.81,4.6-2.19,2.68-3.27,3.41-.06.04-.63,1.25-.62,1.32v14.58h-3v-14.02Z"/>
      <path class="cls-2" d="M239.38,229.41c2.18.05,3.83.71,6,0v3.27s-9.27,1.09-9.27,1.09l-.53-17.44c.94-.21,3.8-.6,3.8.8v12.28Z"/>
      <path class="cls-2" d="M423.38,189.4v20.05c0,.17-3.16.76-3.34.56-.11-3.62.13-7.27.03-10.89-.07-2.32-.75-5.46-.63-7.78.14-2.61,1.85-1.91,3.95-1.94Z"/>
      <path class="cls-2" d="M262.38,212.24v19.42h-3v-19.42c.97-.44,1.72-.44,3,0Z"/>
      <path class="cls-2" d="M433.38,188.32v10.86c0,.35-.92,1.61-.58,2.49l-2.77.02c.39-2.66-1.61-10.9-.31-12.85.59-.89,2.63-.44,3.66-.52Z"/>
      <path class="cls-2" d="M183.38,232.3v6.69c1.76-.07,3.54.1,5.3,0,.91-.05,3.79-1.5,3.61.26-1.16,1.47-3.1.62-4.69.89-3.5.6-6.56,1.64-10.35,1.07-.16-2.84,3.9-.89,4.77-2.19.53-1.91.15-3.94.24-5.89.05-.91.49-1.56,1.11-.83Z"/>
      <circle class="cls-1" cx="431.88" cy="206.17" r="2.5"/>
      <path class="cls-2" d="M177.72,229.67c.41,2.48-1.52,2.48-1.11,0h1.11Z"/>
      <path class="cls-2" d="M287.38,121.72c.28-1,8.38-2.6,9.91-2.9,5.2-1.01,9.42-2.8,14,.71,6.45,4.94,6.35,19,2.95,25.7-1.19,2.34-5.72,6.21-5.54,8.71l8.78,23.48c0,.69-5.78,1.1-6.65.8l-7.92-21.89c-2.18-2.96-9.91-1.32-10.51,2.16.22,5.93-.3,11.93-.03,17.85.24,5.26,2.07,5.19-4.99,5.82v-60.44ZM301.06,123.26c-2.23.26-7.97,1.16-8.68,3.57l-.1,21.62c1.13,3.34,3.47,2.47,6.25,1.8,3.84-.93,8.77-3.11,10.56-6.71,2.49-4.99,2.93-10.34.88-15.58-1.75-4.48-4.27-5.25-8.92-4.71Z"/>
      <path class="cls-2" d="M259.38,136.76c-.24-1.02-2.28-2.79-3.48-2.98l-9.04,1.48c-1.6-.14-.48-3.34.32-4.08l31.73-7.23-.73,4.63c-3.99,1.48-12.66.79-13.8,5.5l-.09,52.18-4.91,1.46v-50.97Z"/>
      <path class="cls-2" d="M256.83,186.62c-.06-1.29.02-2.61,0-3.9l.46.36c.21,1.05.21,2.14,0,3.19l-.46.36Z"/>
      <path class="cls-2" d="M256.83,163.22c0-.93,0-1.86,0-2.79l.47.36c.19.68.19,1.39,0,2.07l-.47.36Z"/>
      <path class="cls-2" d="M229.38,135.45v50.28c0,.17,1.1,1.17,1.49,1.29,2.53.78,15.17-3.25,15.73-2.68l-.24,5.03-21.98,4.41v-57.78l5-.56Z"/>
      <path class="cls-2" d="M428.96,145.39l-.45-.37c-.23-1.7-.35-3.52-.66-5.2l.28-.55c.76.71,1.49,4.29,1.4,5.27-.05.52-.55.77-.56.85Z"/>
      <path class="cls-2" d="M428.96,146.51c.31.01.89-.13,1.06.04.24.27,1.15,4.88,1.1,5.71l-.49.38c-.43-1.87-1.48-4.34-1.67-6.13Z"/>
      <path class="cls-2" d="M416.15,158.21l-.55-.28.55-.28c.05.17-.05.39,0,.56Z"/>
      <path class="cls-2" d="M208.19,198.02c-2.39.92-4.27,2.14-6.75,2.9-4.77,1.47-10.3,2.37-14.21-1.52-6.15-6.13-4.35-20.67-4.4-28.95l.55-.28v-.54l-.55-.28c-.02-4.95-.08-9.94,0-14.89l.47-.35c.18-.67.18-1.38,0-2.05l-.47-.35c.03-1.1-.07-2.22,0-3.31.84-.07.84-1.59,0-1.65.09-.73.52-2.81.83-3.3.77-1.22,8.09-2.31,8.59-1.34.36.88.47,1.74.53,2.69,1.01,14.46-.84,30.07.01,44.65.77,3.62,3.56,3.14,6.46,2.11,4.49-1.6,5.31-4.94,6.13-9.31l.19-42.83c.17-.4.22-1.13.53-1.38.83-.66,7.17-1.84,7.91-.7.1,1.94.7,3.88.82,5.8.67,10.87-.08,22.3-.58,33.1-.25,5.37.66,9.2-1.55,14.44-1.16,2.76-3.15,4.72-4.51,7.34ZM184.89,174.68c.2,1.63-.49,3.1-.57,4.71-.13,2.42.44,4.51.47,6.68.05,3.22.52,1.59.66,2.32.38,1.9-.07,3.45.86,5.74,2.56,6.31,7.07,6.6,13,5.47,2.24-.43,1.8-1.17,2.44-1.52,1.6-.87,4.08-1.6,5.36-2.82,1.44-1.38,3.4-5.63,4.03-7.61,1.83-5.74.67-11.82.65-17.67-.04-10.31.09-20.64.03-30.94l-4.42,1.44.05,42.31c-.36,7.23-6.22,14.27-13.91,12.38-1.12-.28-3.14-2.51-3.14-3.49v-47.07c-1.88-.04-3.86.03-4.94,1.67-.56.84-1.06,1.26,0,2.23,0,6.49.1,13.01,0,19.5l-1.64-.56c0,.74,0,1.49,0,2.23h1.65c-.01.37.01.74,0,1.11-1.8-.04-1.59-.4-1.65,1.37-.04,1.4.03,2.81,0,4.2.56.15.93-1.21,1.1-1.67ZM184.38,149.67v-2h-1v2h1ZM184.38,155.67v-3h-1v3h1ZM184.38,161.67v-4h-1v4h1Z"/>
      <path class="cls-2" d="M182.74,154.31c.01-.93-.02-1.86,0-2.79l.47.36c.19.68.19,1.39,0,2.07l-.47.36Z"/>
      <path class="cls-2" d="M193.88,187.73c-.08-.72.03-1.49,0-2.23.81.12.64,1.24.5,1.88l-.5.34Z"/>
      <path class="cls-2" d="M193.88,184.39c-.02-.74-.02-1.49,0-2.23.81.12.64,1.24.5,1.88l-.5.34Z"/>
      <path class="cls-2" d="M182.74,148.18c.03-.55-.06-1.13,0-1.67.85.07.85,1.61,0,1.67Z"/>
      <path class="cls-2" d="M193.88,179.93c.02-.56-.03-1.12,0-1.67.85.07.85,1.61,0,1.67Z"/>
      <path class="cls-2" d="M182.83,170.46c0-.37,0-.74,0-1.11l.56.28v.55l-.56.28Z"/>
      <path class="cls-2" d="M352.09,104.73c.73.31,2.33,6.35,2.65,7.66,1.11,4.61,1.64,9.44,2.63,14.08.6,2.82,1.41,6.32,2.52,8.9,1.53,10.64,4.81,21.12,6.53,31.62,1.39,8.5-3.53,6.33-9.87,7.37-1.07-.53-.96-.85-1.21-1.84-.86-3.51-.89-8.41-2.27-11.7-.3-.72-.51-.63-.98-.94-.1-.07-.13-.39-.41-.47-1.02-.29-10.6,1.56-12.23,2.05-.65.2-.78.31-1.28.64-.44.29-.73.19-.99.94-1.06,3.02-1.47,12.57-2.87,14.42s-7.7,1.89-10,1.84c-1.17-2.4.39-5.07.9-7.61,3.79-19.09,6.56-39.38,10.89-58.19.38-1.64,1.01-5.06,2.41-5.95,1.61-1.02,8.73-1.97,11.04-2.33.51-.08.8-.5.88-.51.5-.09,1.13.06,1.67,0ZM350.97,108.07l-11.15,2.5-.47.65c-3.13,17.57-6.24,35.17-9.71,52.68-.79,4-1.28,8.63-3.18,12.14l5.55-.58c.45-.48,1.8-11.06,2.39-12.93.66-2.09,2.34-3.3,4.33-4.03,2.48-.91,13-2.68,15.03-1.68,3.11,1.54,3.71,10.98,4.46,14.21l5.57-.56-12.81-62.39Z"/>
      <path class="cls-2" d="M449.93,81.17c1.41-.14,2.8.74,3.45,1.98l.1,74.41c-.12,1.08-1.25,1.99-2.24,2.31s-8.04,1.52-8.83,1.42c-1.5-.18-1.89-1.85-2.02-3.14l.02-72.82c.39-2.3,7.33-3.94,9.53-4.16ZM443.38,86.34v70.19l6.13-.56c.05-5.85-.05-11.72-.03-17.57.03-6.18.01-12.66,0-18.89-.02-11.43.07-22.87.02-34.29l-6.13,1.11Z"/>
      <path class="cls-2" d="M302.51,167.12c-.75.6-.52,1.64-1.09,2.54-.32.51-3.43,3.57-3.93,3.03.02-1.49-.13-3-.26-4.47-.07-.8.75-1.69-.85-2.21-.05-1.71-.9-4.53-.49-5.78.45-1.35,3.81-1.38,4.3.02.53,2.38,1.51,4.6,2.32,6.87Z"/>
      <path class="cls-2" d="M220.62,181.6l-.47-.36c-.65-1.18.31-1.9.47-2.43-.05.92.08,1.87,0,2.79Z"/>
      <path class="cls-2" d="M352.09,159.88c-.24.07-.57,1.05-.56,1.11l-12.81,1.67-.56-.56c.5-.34.63-.45,1.28-.64,1.64-.5,11.21-2.34,12.23-2.05.28.08.31.4.41.47Z"/>
      <path class="cls-2" d="M337.04,173.25c-.83-2.57-.34-1.89,0-3.9l.48.37c.35,1.21-.2,2.37-.48,3.53Z"/>
      <path class="cls-2" d="M352.09,104.73c-.54.06-1.17-.09-1.67,0,.07-.85,1.61-.85,1.67,0Z"/>
      <path class="cls-2" d="M353.2,168.23l-.55-.28.55-.28c.04.18-.04.38,0,.56Z"/>
      <path class="cls-2" d="M375.38,205.56l.04-6.09c2-.38,4.08-1.07,6.12-.35,2.34,4.95-2.08,6.31-6.16,6.44Z"/>
      <path class="cls-2" d="M407.79,195.53c-.65,1.33,2.55,7.55,2.23,7.8l-5.57.56c.56-2.57,1.77-4.91,2.23-7.53.17-.96-.24-.92,1.11-.83Z"/>
      <path class="cls-2" d="M339.67,203.97c6.94-1.37,7.16,13.67-.67,13.33-6.37-.28-4.76-12.26.67-13.33Z"/>
      <path class="cls-2" d="M275.61,218.25c-.05.1-1.52,1.24-1.73,1.32-1.36.49-2.82.54-4.25.48.24-1.41-.46-4.55.25-5.61.51-.77,4.61-.78,5.36-.28s.74,3.31.37,4.09Z"/>
      <path class="cls-2" d="M301.16,123.26c4.64-.54,7.17.23,8.92,4.71,2.04,5.24,1.6,10.59-.88,15.58-1.79,3.59-6.72,5.78-10.56,6.71-2.78.67-5.12,1.55-6.25-1.8l.1-21.62c.71-2.41,6.45-3.31,8.68-3.57ZM295.38,128.4v19.22c5.67-.65,10.43-1.98,12.53-7.81,1.68-4.67,1.19-14.18-5.41-13.8-1.34.08-6.79,1.17-7.12,2.38Z"/>
      <path class="cls-2" d="M185.38,145.95c1.1-1.63,3.1-1.71,5-1.67v47.04c0,.96,2.02,3.16,3.13,3.43,7.67,1.86,13.5-5.07,13.87-12.17l-.05-42.03,4.42-1.42c.07,10.16-.07,20.35-.03,30.52.03,5.77,1.18,11.77-.65,17.43-.63,1.96-2.59,6.14-4.03,7.51-1.27,1.21-3.76,1.93-5.36,2.78-.64.34-.19,1.08-2.44,1.5-5.94,1.11-10.45.83-13.01-5.4-.93-2.26-.47-3.79-.86-5.66-.15-.72-.62.89-.66-2.29-.03-2.14-.61-4.2-.47-6.59.09-1.58.77-3.03.57-4.64.61-1.71.48-2.04.55-3.85.01-.37-.01-.73,0-1.1.02-.55,0-1.1,0-1.65.1-6.4,0-12.83,0-19.23v-2.52Z"/>
      <path class="cls-2" d="M185.52,170.46c-.07,1.84.06,2.17-.56,3.9-.17.46-.54,1.82-1.11,1.67.02-1.39-.05-2.8,0-4.2.05-1.77-.16-1.42,1.67-1.37Z"/>
      <path class="cls-2" d="M185.52,168c0,.56.02,1.11,0,1.67h-1.67c0-.74,0-1.49,0-2.23l1.67.56Z"/>
      <rect class="cls-2" x="183.38" y="157.67" width="1" height="4"/>
      <rect class="cls-2" x="183.38" y="152.67" width="1" height="3"/>
      <path class="cls-2" d="M185.38,148.18c-1.07-.97-.57-1.38,0-2.23v2.23Z"/>
      <rect class="cls-2" x="183.38" y="147.67" width="1" height="2"/>
      <path class="cls-2" d="M350.97,108.07l12.81,62.39-5.57.56c-.75-3.23-1.35-12.67-4.46-14.21-2.04-1-12.55.77-15.03,1.68-1.99.73-3.67,1.94-4.33,4.03-.59,1.87-1.94,12.45-2.39,12.93l-5.55.58c1.9-3.5,2.39-8.13,3.18-12.14,3.46-17.51,6.58-35.11,9.71-52.68l.47-.65,11.15-2.5ZM344.68,115.96c-.94.19-2.15,1.07-2.49,1.99-1.09,6.68-2.89,13.32-3.97,19.98-.45,2.77-2.11,12.1-.66,13.91.38.48.85.68,1.44.78,1.88.32,9.72-1.01,11.56-1.8,4.32-1.85,2.05-8.6,1.38-12.25-1.06-5.78-2.39-13.94-4.01-19.39-.57-1.92-.86-3.72-3.24-3.24Z"/>
      <path class="cls-2" d="M443.38,86.34l6.13-1.11c.05,11.42-.04,22.86-.02,34.29,0,6.23.03,12.7,0,18.89-.03,5.86.08,11.72.03,17.57l-6.13.56v-70.19Z"/>
      <path class="cls-2" d="M295.38,128.4c.33-1.22,5.77-2.31,7.12-2.38,6.6-.39,7.09,9.13,5.41,13.8-2.09,5.83-6.86,7.16-12.53,7.81v-19.22Z"/>
      <path class="cls-2" d="M344.68,115.96c2.38-.49,2.67,1.32,3.24,3.24,1.62,5.45,2.95,13.61,4.01,19.39.67,3.65,2.94,10.4-1.38,12.25-1.84.79-9.68,2.12-11.56,1.8-.59-.1-1.06-.31-1.44-.78-1.44-1.81.21-11.14.66-13.91,1.08-6.67,2.88-13.31,3.97-19.98.34-.92,1.55-1.8,2.49-1.99ZM345.4,119.21c-.69-.84-1.04-.03-1.1.84-.69,10.02-4.05,19.74-4.47,29.8l9.1-1.77.86-.81-4.39-28.07Z"/>
      <path class="cls-2" d="M345.4,119.21l4.39,28.07-.86.81-9.1,1.77c.43-10.06,3.78-19.78,4.47-29.8.06-.87.4-1.68,1.1-.84ZM348.74,147.06c-.93-6.43-2.14-12.83-3.34-19.22-.15-.82,0-1.71-1.11-1.95.95,3-4.21,21.37-3.34,22.28l7.8-1.12Z"/>
      <path class="cls-2" d="M348.74,147.06l-7.8,1.12c-.86-.91,4.3-19.28,3.34-22.28,1.12.24.96,1.12,1.11,1.95,1.19,6.39,2.41,12.79,3.34,19.22Z"/>
      <g>
        <path class="cls-2" d="M426.18,132.58c.13.65.46,1.21.56,1.67.18.84.44,1.64.56,2.23.22,1.04.37,2.34.56,3.34.31,1.68.43,3.5.66,5.2l.45.37c-.05.32-.03.79,0,1.11.19,1.79,1.24,4.26,1.67,6.13s1.43,4.64,1.67,6.13c1.28,7.76-6.85,5.87-11.9,7.11-.86-.17-1.44-.64-1.96-1.33-.49-.65-2.04-4.35-2.3-5.22-.09-.31.09-.8,0-1.11-.05-.17.05-.39,0-.56-.38-1.34-1.61-7.48-2.57-7.77l-13.19,2.19c-1.11.51-2.06,8.43-2.07,10.03-1.39,2.62-1.25,6.2-4.45,7.53-1.69.7-6.83,1.54-8.61,1.36-2.25-.23-2.51-1.48-2.59-3.59,4.74-21.73,8.84-43.55,13.26-65.34.85-4.17.03-7.89,4.48-10,2.11-1,12.32-3.41,14.24-2.82,1.07.32,2.15,2.05,2.47,3.1,3.79,12.17,6.41,27.59,9.05,40.25ZM419.62,163.64c1.14,1.14,8.39.04,10.05-.55,1.07-.38,1.62-1.24,1.56-2.36-2.85-13.48-6.33-26.83-9.37-40.26-1.88-8.28-3.03-17.76-5.41-25.79-.54-1.83-1.15-3.91-3.34-3.92-1.17,0-10.48,2.25-11.75,2.79s-2.2,1.47-2.77,2.8l-14.22,71.59.56,1.15c1.08.71,8.75-.52,9.82-1.38,1.96-1.57,2.79-13.86,4.4-16.77.45-.6,8.63-1.81,10.22-2.05.55-.08,1.1.19,1.49.13,1.43-.23,3.54-2.33,4.87.42,1.48,3.06,2,12.3,3.9,14.2Z"/>
        <path class="cls-2" d="M419.62,163.64c-1.9-1.9-2.42-11.14-3.9-14.2-1.33-2.75-3.44-.64-4.87-.42-.39.06-.94-.21-1.49-.13-1.59.24-9.77,1.45-10.22,2.05-1.61,2.91-2.44,15.2-4.4,16.77-1.07.86-8.75,2.09-9.82,1.38l-.56-1.15,14.22-71.59c.57-1.33,1.45-2.24,2.77-2.8s10.58-2.79,11.75-2.79c2.19.01,2.8,2.09,3.34,3.92,2.38,8.03,3.54,17.51,5.41,25.79,3.04,13.43,6.52,26.78,9.37,40.26.06,1.12-.49,1.98-1.56,2.36-1.66.59-8.9,1.69-10.05.55ZM413.35,94.15c-.35-.46-10.27,1.77-11.3,2.22-.34.15-.49.31-.56.69l-13.76,68.95c1.27-1.03,3.97-.02,4.74-1.1,1.49-2.09,2.22-10.49,3.2-13.51,1.2-3.71,3.37-4.03,6.95-4.75,3.11-.62,8.59-1.57,11.63-1.79,1.7-.12,3.18.49,3.99,2.04,1.76,3.35,1.84,9.28,3.15,13,.68,1.08,5.02.3,6.44.53l-14.49-66.28Z"/>
        <path class="cls-2" d="M413.35,94.15l14.49,66.28c-1.41-.23-5.76.56-6.44-.53-1.31-3.73-1.39-9.66-3.15-13-.81-1.55-2.29-2.16-3.99-2.04-3.04.21-8.52,1.17-11.63,1.79-3.58.71-5.75,1.04-6.95,4.75-.98,3.02-1.71,11.42-3.2,13.51-.77,1.09-3.48.07-4.74,1.1l13.76-68.95c.07-.37.22-.54.56-.69,1.03-.45,10.95-2.68,11.3-2.22ZM408.85,102c-1.75-.22-3.49-.41-4.26,1.47-1.53,3.75-1.02,9.14-2.8,12.8-.34,6.47-3.5,13.74-3.99,20-.23,3,1.1,4.86,4.19,5.19,1.6.17,8.99-1.07,10.41-1.76,4.24-2.07,3.13-6.84,2.48-10.59-1.59-9.08-4.02-18.12-6.04-27.11Z"/>
        <path class="cls-2" d="M408.85,102c2.02,8.98,4.45,18.03,6.04,27.11.65,3.75,1.76,8.52-2.48,10.59-1.42.69-8.82,1.94-10.41,1.76-3.09-.34-4.42-2.19-4.19-5.19.49-6.26,3.65-13.52,3.99-20,1.78-3.66,1.26-9.06,2.8-12.8.77-1.88,2.51-1.68,4.26-1.47ZM407.23,106.4c-1.12.24-.96,1.12-1.11,1.95-1.35,7.14-2.12,14.44-3.48,21.59-.38,2.01-3.06,7.92-.13,8.25.68.08,7.6-1.33,8.39-1.66s1.34-.43,1.35-1.43l-5.02-28.7Z"/>
        <path class="cls-2" d="M407.23,106.4l5.02,28.7c-.01,1-.58,1.11-1.35,1.43s-7.72,1.73-8.39,1.66c-2.93-.33-.25-6.23.13-8.25,1.36-7.15,2.13-14.45,3.48-21.59.16-.82,0-1.71,1.11-1.95ZM411.13,134.8l-2.93-15.71-1.52-4.88c-.95,5.89-2.09,11.76-3.29,17.61-.14.7.05,1.49-.07,2.16-.21,1.13-1.24,1.39-1.1,2.52l8.9-1.68Z"/>
        <path class="cls-2" d="M411.13,134.8l-8.9,1.68c-.14-1.13.89-1.39,1.1-2.52.12-.67-.07-1.46.07-2.16,1.19-5.84,2.34-11.72,3.29-17.61l1.52,4.88,2.93,15.71Z"/>
      </g>
    </g>
    <path class="cls-3" d="M446.22,27.2c2.27-.61,5.1-.62,7.69-1.52,4.46-1.55,2.46-1.96,2.54-5.36.13-5.47-.16-11.55.39-16.83.11-1.01-.07-2.06,0-3.07.47-.5,10.37,4.73,10.56,5.38l.04,23.71c8.22-1.92,16.67-5.69,25.2-5.54.74.01,1.81.57,1.91.56l1.11.55c.03.05.36-.02.55,0l32.25,22.66c.6.22.73,1.56.94,1.68l.55,183.74c-.06.39,2.85,1.41,3.57,2.26.78.91,1.23,2.63,1.84,3.72l12.31,38.59c-.13,2.22,7.31,24.7,8.59,28.97,1.5,5,3.29,9.92,4.45,15.03.79,1.41,7.75,3.24,9.68,3.35v215.59H173.74c-.21-3.59.63-7.74-.89-11.1-.45-1-2.47-2.91-2.47-3.11v-11.42c-1.46-.05-4.86,2.19-5.85,2.2-1.53.02-2.87-.02-4.5.04-1.04.04-5.67-.21-5.88,0-1.02.99,1.37,1.24,1.61,2,.54,1.69-.77,5.36-2.52,5.69-.67.13-3.99-.94-4.43-1.55-.76-1.06,1.09-1.6.86-2.79-1.41-.04-2.06-1.57-3.32-1.99-1.03-.34-5.54-.71-7.02-.81-1.58-.11-3.19.08-4.77,0,.45,1.61-.47,3.4-.48,4.74-.02,3.43,1.23,7.56,1.06,11.17-.06,1.23-.62,2.35-.63,3.33,0,1.42,1.42,2.13,1.16,3.6h-17.91c.97-2.76.03-5.77-.03-8.61-.16-7.77,1.04-17.25,0-24.52-.28-1.99-3.28-6.66-5.38-6.88-2.44-.26-14.12,9.24-17,10.85l.02,29.16H15.95c-.43-1.23,1.02-.97,1.12-1.47.2-1.01.48-3.29.56-4.37.89-13,.07-28.28,0-41.51,0-1.3,0-2.6,0-3.9,0-1.85,0-3.72,0-5.57l-17.23,4.45v-11.7c5.83-.06,11.42-2.38,17.23-2.23.11-4.55-.15-9.13-.03-13.68.07-2.81.13-6.15.61-8.87.18-1-.61-1.66,1.08-1.4-1.23,2.55-.04,4.56.03,6.93.31,10.26-.06,20.67-.03,30.94,0,1.37.56,2.75.56,3.34s-.55,1.97-.56,3.34c0,1.48,0,2.97,0,4.46,0,1.3,0,2.6,0,3.9,0,1.11,0,2.23,0,3.34-.04,7.11.29,14.39.03,21.47-.11,2.89-1.08,6.07-.58,9.16,1.38,1.41,6.07-5.29,6.94-6.13.83-.8,3.45-2.09,3.89-2.79.48-.78.17-1.74,1.08-2.82,1.3-1.53,4.5-3.03,6.15-4.42.97-.82,1.8-2.19,2.51-2.78,9.93-8.29,27.67-18.94,39.27-24.99.97-.51,2.53-.55,2.91-1.56.18-.61.03-1.25.07-1.86.03-.55-.02-1.12,0-1.67.14-4.25-.07-8.56,0-12.81,0-.37,0-.74,0-1.11.01-1.11,0-2.23,0-3.34.03-5.56.3-9.91,0-15.6-.08-1.5-.07-3.24,0-4.75.04-.91.49-1.55,1.11-.82-.24,3.07.21,6.18.28,9.21.01.51-.29,1.02-.28,1.37.07,2.57.57,5.39.56,7.8-.05,6.57-.75,12.06,0,18.94.11,1.01.51,1.42.56,1.67.12.66-.09,1.52,0,2.23,2.28.18,3.84-1.53,5.73-2.34,10.84-4.66,21.73-9.3,32.81-13.35,1.13-.39.85-1.24.93-2.14.03-.36,0-.75,0-1.11-.05-3.83-.05-7.39,0-11.14s-.04-7.81,0-11.7c.96-.13.54,1.28.55,1.94.06,3.06-.06,6.14,0,9.2.09,4.69.1,9.28.56,13.92.25.26,5.81-2.42,6.67-2.78l-.56,1.67c-1.85.72-3.7,1.5-5.56,2.23-23.09,9.06-44.03,18.24-64.33,32.3-2.17,1.5-4.5,2.95-6.83,4.19,1.69,3.42,3.95.6,5.6-.52,20.78-14.06,42.51-24.29,65.55-34.3,7.46-3.24,15.19-5.54,22.79-8.36l1.11,1.67c-.07.03-.33.79-1.11,1.11-2.51,1.03-1.33.89-2.3,1.62-.22.17-1.31-.42-2.16-.28-1.33.21-1.93,1.03-2.77,1.44-1.94.95-3.84,2.03-6.11,2.79-2.78.92-10.74,3.12-12.77,4.78-3.38,2.76-5.47,2.28-9.46,3.86-4.76,1.88-11.54,5.33-16.06,7.86-.65.36-2.95,1.55-3.15,1.86-.51.81-.25,3.31-.81,4.47.35.36,4.83-1.94,5.54-2.55,2.02-1.73.53-.38,2.21-1.05,3.27-1.31,7.3-4.42,10.76-5.98,8.35-3.74,16.61-7.11,24.85-11.03,2.25-1.07,4.85-1.95,7.25-3.07.85-.39,1.99.18,1.65-1.39,1.27-.18,1.63-.25,2.78-.56,10.35-2.72,21.9-9.22,32.1-13.24,2.44-.96,8.04-2.23,9.8-3.44.64-.44.23-.81.35-1.15.22-.65.63-1.03.56-1.91-.09-1.12-.61-1.31-1.12-1.99,1.9-.82.6-1.62.56-3.34-.29-10.36,0-20.83,0-31.2,0-15.78,0-31.58,0-47.35l.03-27.53c-.1-.68-.85-.23-1.17-.35-.23-.08-.48-.4-1.14-.57-.19-.63-.56-.9-1.14-1.14-.17-.07-.43.08-.57,0l-1.14-.57c-.17-.1-.33-.43-.57-.57-2.04-1.22-4.01-2.64-6.29-3.43-.65-.53-1.22-.77-1.71-1.14l.57-17.14c3.64-1.32,5.83-.81,9.44-1.14,7.76-.7,15.65-1.6,23.41-2.3,1.41-.13,2.88.09,4.29,0v-21.31c0-.98-8.47-5-10.08-5.86-9.24-5.01-18.19-7.21-28.39-10.1-5.84-1.65-13.55-1.5-16.4-7.79.26-1.82-.64-3.83-.69-5.41-.04-1.3.6-2.46.61-3.81.11-13.47-.06-26.97-.03-40.44,0-.37,0-.73,0-1.1,0-1.28,0-2.57,0-3.85.12-27.16.37-54.2.55-81.37,0-.37,0-.73,0-1.1s0-.73,0-1.1c0-.92-.01-1.83,0-2.75,0-.55,0-1.1,0-1.65.12-7.18-1.68-11.36,6.05-14.56,25.3-7.32,50.93-13.39,76.38-20.11l.04-4.01c-.63-.03-1.27-.02-1.9.05-6.5.75-14.52,4.98-20.83,5.97-3.51.55-5.68-1.81-9.04-2.15-.1-2.4-.02-4.82-.04-7.22,1.69-.31,1.07.85,1.12,1.93.06,1.28-.52,4.29.9,4.71.8.24,6.35-.9,7.61-1.2,1.43-.33,3.08-1.23,4.32-1.54,39.59-9.78,79.63-21.64,118.98-32.53,34.64-9.59,69.02-20.07,103.68-29.41ZM490.75,196.83c-.08-10.41-.11-20.57.03-30.89.28-21.74-.46-43.7-.61-65.18-.14-20.44.15-40.88.04-61.32-.27-3.83-4.85-5.02-8.12-4.75-85.93,21.41-171.52,44.23-257.05,67.17-13.55,3.63-27.28,6.76-40.8,10.45-4.54,1.24-11.86,2.86-15.86,4.75-.65.31-1.97,1.1-2.41,1.63-.59.7-2.14,4.48-2.25,5.41-.39,3.39-.06,8.7.02,12.3.48,21.23.1,42.74,0,64.33-.08,19.04,1.09,39.21-1.11,57.94h-1.11c-.04.36.04.76,0,1.11-.02.18.02.37,0,.56l-2.78-.56c.24,3.84-1.31,12.7,3.73,13.82,3.79.84,9.33-.66,13.25-1.01,91.78-8.18,183.48-17.64,275.21-26.72,10.39-1.03,20.77-2.52,31.18-3.36,5.79-.47,10.04,1.36,14.22-4.16,3.54-4.68,2.97-9.09,3.32-14.5.07-1.1.55-2.11.6-3.32.07-1.69-.43-2.84-.19-4.59.15-1.09.16-.68-.96-.72-.95,3.3.12,6.46-1.68,9.47-3.22.23-1.21-7.18-3.61-6.68-.88.18-.99,3.86-1.95,4.74.07,1.31-.48,6.8-1.24,7.42-.31.25-.88,0-1,.09.25-1.46.97-2.65,1.12-4.17.88-8.52.06-20.37-.01-29.26ZM406.63,43.39c-.62-.06-1.21.01-1.83.12-.75.13-7.33,2.15-7.66,2.36-.85.55-.49,2.15-.54,3.08.79.78,8.83-2.42,10.59-2.23l-.56-3.34ZM389.23,47.91l-53.6,14.12.89,3.39,53.6-14.12-.89-3.39ZM317.16,67.04l-48.97,13.32.91,3.33,48.97-13.32-.91-3.33ZM260.11,86.27c.06-1.04.37-3.33-1.26-3.24-.78.04-11.14,2.82-11.48,3.31-.31.45.07,2-.06,2.73l12.8-2.8ZM515.26,113.58c.71-2.09.97-5.3,2.11-7.09,1.46-2.3,4.42-1.98,2.9-5.73-1.51,2.03-3.94,2.48-5.56,3.63-1.78,1.28-1.87,7.94.54,9.18ZM521.28,151.46c.33-.64.87-1.16,1.14-1.92,1.8-5.08,2.3-13.24-5.04-12.57-.75-.66,3.64-12.19-.8-15.07-3.02-1.95-7.93.63-6.97,4.19.55,2.02,2.24-1,3.14-1.26,3.07-.9,3.35.26,3.55,2.94s-.48,4.88-.59,7.26c-.05,1.11-.24,7.24,0,7.53.08.09,1.22-.06,1.67,0v-2.79c.96.06,2.45-.34,3.08.55,2.21,3.1.28,7.69.26,11.15-2.39.47-4.11,3.66-6.54,1.52-1.13-1-3.62-5.96-3.93-7.48-.64-3.16.26-4.55.9-7.23.54-2.28-1.47-1.4-2.38-.15-1.44,1.96-.37,2.38-.29,4.15.06,1.29-.12,2.58.04,3.86.33,2.64,2.78,8.69,5.49,9.55,4.09,1.3,5.73-1.14,7.28-4.21ZM513.03,170.4c-.68.03-1.14-.26-1.69.35-.67.75-3.49,5.05-2.76,5.77,1.7.83,3.74-1.9,4.21-3.31.31-.93.3-1.86.24-2.82ZM513.59,186.56c-2.39-.92-6.16,3.21-3.91,4.76.57.4,2.97-.13,3.25-.41.33-.33.9-4.11.66-4.35ZM523.05,199.37c1.11-3.95-.78-10.62-5.56-11.14.07.89-1.07,4-.51,4.41.51.37,2.71.42,3.3,1.99l2.78,4.74ZM509.69,212.74c1.9,3.28,3.32,4,6.28,6.14,1.04.75,1.36,2.23,3.75,1.66.49-2.04.13-3.59,0-5.57-.06-.97,0-2.82-.12-3.48-.75-3.87-5.16-4.1-7.98-6-4.89.54-3.82,3.99-1.93,7.26ZM159.85,213.67h-1.11c-.41,2.48,1.52,2.48,1.11,0ZM158.38,216.64v38.44c1.59.21,2.28-.29,2.26-1.94-.03-2.71-1.03-6.62-1.17-9.46-.15-2.99,1.18-5.85,1.12-7.29-.03-.86-1.16-1.44-1.16-2.77s1.2-1.99,1.2-2.78c0-.72-.96-1.32-1.13-2.24-.54-2.93.16-7.84,0-11.14-.05-.92-.5-1.55-1.11-.83ZM508.85,254.52c3.04.17,6.15-.13,9.19,0,.28-1.7-.47-.86-1.33-1.15-8.95-2.95-17.41-7.38-26.28-10.51-77.23,6.85-154.44,15.38-231.7,22.81-28.55,2.74-57.23,5.01-85.81,7.78-3.21.31-6.48,1.14-9.74,1.13l4.27,1.5c102.48-8.71,204.86-19.8,307.42-28.79,4.83-.42,7.45-1.77,12.53-.29,7.4,2.16,13.61,7.08,21.45,7.52ZM525.29,295.18c2,5.48,3.91,11.04,5.68,16.6,7.47,3.32,15.66,5.01,23.01,8.47l.15-2.38-23.83-74.49c-1.03.69-1.71,2.39-2.32,3.52-1.51,2.79-2.67,5.77-4.35,8.46-4.02,1.2-8.19.55-12.27,1.39-.03.62-.04,1.23.11,1.83,1.19,4.77,4.61,11.5,6.44,16.4,2.02,5.43,4.32,11,6.26,16.3.44,1.21.63,2.57,1.11,3.9ZM504.08,257.9l-13.33,1.07.12,6.29,24.87,33.07c2.01,3.06.09,6.21.68,9.63l6.64,2.27-18.98-52.32ZM448.38,267.33l-22.01,1.67c-1.28.21-2.85,2.25-3.62,3.34l25.62,13.37v-18.38ZM398.83,271.23l-12.85.8c-1.11.74-.11,9.89-1.08,12.01l4.17-2.79c2.3-2.72,5.53-4.59,8.09-6.95.96-.88,1.93-1.59,1.66-3.07ZM360.38,274.02v18.66c2.55,1.33,5.69,4.27,8.34,5.06.61.18,1.08.42,1.68-.02l10.31-9.21c.29-5.42.6-10.77.84-16.16l-21.17,1.67ZM447.86,297.42c-.24-1.67.6-4.66-.56-5.85l-29.25-15.9-32.03,26.2,17.27-1.11c.22-3.66-1.39-6.05,3.1-6.65s9.29-.19,13.89-.59c2.94-.26,4.9-1.59,8.11-.87,1.23.28,7.82,2.79,8.28,3.42.39.54.37,1.83.95,1.92l10.24-.58ZM314.38,301.31c2.11-2.23,17.85-17.37,17.86-18.66,0-.7-.42-.98-.86-1.4-.46-.44-6.41-4.22-6.81-4.33-3.09-.85-7.03.55-10.19.44v23.95ZM490.38,276.8v22.84l18.68,5.56c1.52.32.82-3.13.52-3.87-1.03-2.58-8.92-12.6-11.17-15.57-1.79-2.38-4.41-6.1-6.37-8.12-.53-.55-.76-1.03-1.67-.84ZM303.38,304.1l.32-25.07c-.93-1.37-3.74-.07-5.05.02-4.74.29-9.49.43-14.22,1.11l3.45,14.38c4.55,2.45,9.02,6.71,13.51,9.05.68.36,1.11.72,1.98.52ZM282.4,290.17l-2.21-9.78-10.6.87c-.14,1.09.94,1.9,1.7,2.48,2.3,1.75,6.69,4.4,9.28,5.76.63.33.98.87,1.83.67ZM245.08,305.77l-.84-3.89-7.48-16.47c-1.92-1.97-5.82.46-8.39-.25.34,2.74-1.59,6.22-.03,8.67l14.53,11.65,2.21.3ZM480.16,296.3c.72-.73-3.71-8.94-4.54-10.22-.71-1.09-1.24-1.71-2.7-1.48-1.16,1.19,3.1,9.9,4.48,10.83.42.29,2.55,1.07,2.75.86ZM262.38,286.83v24.51c8.03-1.05,16.15-1.3,24.25-1.67.96-.04.83.22.84-.84,0-1.6-.47-3.37-1.66-4.48-7.18-5.32-13.88-11.55-21.23-16.65-.66-.46-1.32-.99-2.19-.87ZM341.38,287.94l-1.67.83-15.6,16.99,15.88-.55c.46.04,1.39-.55,1.39-.84v-16.43ZM227.38,302.53v11.7c.64.23,1.27-.56,1.39-.56h8.36c.17,0,.39-.37.7-.41.68-.09,4.35-.03,2.91-1.25-.27-.23-1.94-.83-2.74-1.44-2.5-1.91-4.81-4.16-7.33-6.04-.52-.39-2.93-2.41-3.3-2ZM204.55,497.96c6.95,1.97,18.75,1.76,26.45,2.24,69.79,4.32,139.65,8.49,209.47,12.24,4.42.24,9.52,1.02,13.91,1.16,3.42.11,6.41-2.53,6.99-5.87l-.13-172.59c-.38-1.84-2.67-4.12-4.34-4.85-3.12-1.37-6.23-.14-9.18,0-66.86,3.27-133.73,7.61-200.55,12.26-11.82.82-24.54.85-36.16,2.27-7.24.88-8.15,3.18-8.71,10.23.51,46.2-.61,92.8.08,138.74.05,3.07-1.95,3,2.18,4.17ZM518.38,396.02l.46-29.15c-.73-2.52-11.01-3.64-13.53-4.26-.57.38-.71.57-.73,1.26-.28,10.02-.1,20.32-.09,30.44,4.56,1,9.23,1.36,13.89,1.72ZM566.38,375.4c-3.13-.44-5.98-2.23-9.15-2.26-.88.15-.92,5.45-.88,6.45.2,4.77.45,9.62.6,14.46.07,2.36-.65,4.6-.03,6.97l9.46,1.12v-26.74ZM504.38,430.67v33h16v-33h-16ZM539.38,430.67h-15v32h15v-32ZM558.3,461.19c2.52-.3,5.5.22,8.08,0v-28.97c-1.57.5-9.29-.99-9.5.35.35,1.87-.25,3.66-.35,5.4-.33,5.66.27,11.71.39,17.36.04,2.13-.05,4.28,0,6.41.67.23,1.19-.53,1.39-.56ZM181.01,468.99c-3.09,0-4.18,3.16-4.46,5.85-.37,3.65-1.2,11.12-.96,14.41.07.92.91,1.84.9,2.85,0,1.46-1.27,3.09.33,4.76,1.06,1.1,1.74.02,2.72.11,1.05.1,2.32,2.05,3.41-.13.92-1.83-.21-3.26-.2-4.73.01-5.16-.39-10.37-.66-15.61-.06-1.25.54-2.46.45-3.26-.13-1.17-1.89-2.7-1.54-4.25ZM165.24,503.19c.29-.28,1.21-7.1,1.21-8.04,0-1.21-.58-2.25-.62-3.33-.11-3.73.12-7.44-.56-11.14-.28-1.5-3.18-3.7-4.44-4.75,0,1.35-1.45,1.79-1.68,3.06-.52,2.93.12,7.87,0,11.15-.04,1.06-.55,2.09-.59,3.31-.1,3.14.55,6.15.03,9.22h2.79s0,2.23,0,2.23c1.89.18,1.72.12,1.69-1.64.57-.22,1.89.2,2.17-.07ZM17.79,479.02c-.41-.42-10.21,1.83-11.41,2.23-.9.3-1.59.48-1.4,1.66,4.36.09,8.48-1.92,12.81-2.23-.07-.45.11-1.55,0-1.67ZM145.88,507.39c.08-1.03.52-1.99.61-3.02.33-3.91-.06-13.16-1.99-16.41-.31-.52-3.27-4.07-3.59-4.23-1.77-.9-5.54,2.45-6.58,4.02.19,2.04-.59,4.02-.68,6-.15,3.36.21,7.32.59,10.6.12,1.01-.08,2.07-.01,3.07,3.94-.02,7.74.39,11.66-.04ZM518.87,526.65c.53-8.14,0-17.35,0-25.63,0-.08-.62-1.37-.91-1.42-4.22-.69-9.32,1.53-13.57,1.14l.04,27.61c-1.11,2.26-.85,2.93-.03,5.26,4.83-1.22,10.17-1.22,14.23-4.46-.22-.96.2-1.93.24-2.51Z"/>
  </g>
</svg>