<?xml version="1.0" encoding="UTF-8"?><svg id="Layer_2" xmlns="http://www.w3.org/2000/svg" viewBox="0 0 564.25 192.29"><g id="Layer_2-2"><path d="M247.63,93.35c-.9.26-3.03-.5-4.74-1.7-4.44-4.72,5.38,6.24,5.25-15.24,3.14-33.5-16.31-3.8-25.17-4.35,7.89-10.73,36.8-21.47-5.78-17.86-32.68.94-25.2,1.32-18.32,9.58-12.07-4.07-7.42,17.18-7.92,25.42,12.48,1.58,11.58-8.23,21.52-11.06,9.01-1.88-2.44-4.84-4.01-6.56-.43-1.89,9.9,2.88,9.7,1.74.12-.94,6.92.33,2.65,1.82-3.56,1.65-3.28,3.23.43,2.34,3.41-.45-8.61,3.42-8.04,2.81-1,2.61-22.99,12.13-15.9,11.43,2.33-.62,2.32-.46-.02.7-3.99,1.23-1.49,16.59-1.91,21.65,4.18-.27,23.01-2.06,23.36-.67h0c20.99,2.12,35.01,5.04,28.91-20.06ZM200.24,89.1c1.57-.03,1.58,1.07.02,1.08-1.57.03-1.58-1.07-.02-1.08ZM207.68,98.22c-1.41,3.39,1.19,8.18-3.75,9.72,0,6.19-3.19-.13-5.76-1.02-8.09-8.13,8.25-23.77,9.51-8.7ZM212.74,86.59c.71.77.64,1.7-.16,2.07-1.87,1.01-1.59-4.16.16-2.07ZM212.84,94.15c.71.77.64,1.7-.16,2.07-1.87,1.01-1.59-4.16.16-2.07ZM212.62,109.48c-1.57.03-1.58-1.07-.02-1.08,1.57-.03,1.58,1.07.02,1.08ZM237.04,69.23c.73-2.05,2.1-2.28,3.47.08,8.36,1.22-3.71,20.68-3.69,9.44-4.5-1.45-4.42-8.24.23-9.51ZM225.1,79.52c6.95,1.94,10.58,8.92-.81.76-1.33-1-1.06-1.25.81-.76ZM232.04,56.75c1.54.41,2.8.95,2.81,1.21.65,1.99-7.71-2.28-2.81-1.21ZM202.41,56.94h0c.79.34,1.04,1.51.57,2.6-1.28,4.68-6.6-5.31-.57-2.6ZM197.51,67.53c1.57-.03,1.58,1.07.02,1.08-1.57.03-1.58-1.07-.02-1.08ZM192.71,69.74c1.57-.03,1.58,1.07.02,1.08-1.57.03-1.58-1.07-.02-1.08ZM201.32,79.9c-.9.39-1.56-.24-1.96-1.31-2.23.56-4.83-.46-5.71-2.11.49,12.71-2.56,2.07-.76-2.56,1.41-12.25,17.12.36,8.43,5.98ZM208.18,68.95c-.63.29-2.6-.52-4.38-1.81-7.3-4.5,5.75.97,4.38,1.81ZM209.76,66.31c-6.87,0-6.86-10,0-10s6.86,10,0,10ZM217.24,66.57c2.2.99-1.73,2.6-1.6.74-.01-.79.71-1.12,1.6-.74ZM216.9,70.54c-1.57.03-1.58-1.07-.02-1.08,1.57-.03,1.58,1.07.02,1.08ZM220.64,65.27c-13-12.65,19.32-10.93,3.94.28-2.57,2.01-3.7,1.99-3.94-.28ZM217.95,106.47c-1.18,4.67-1.41-12.9-.09-7.56h0c.56,2.23.6,5.64.09,7.56ZM227.1,107.84c-1.18,5.98-3.3,5.97-4.67.5-5.64-2.62-4.59-11.16-4.7-16.25-2.43.46-1.9-1.57.18-.92.28-1.88,1.58-3.66,3.24-4.16,5.42-10.91,11.61,18.18,5.96,20.84ZM232.11,91.6c-.88.41-1.61.09-1.62-.7-.18-1.86,3.79-.34,1.62.7ZM231.77,96.29c-1.57.03-1.58-1.07-.02-1.08,1.57-.03,1.58,1.07.02,1.08ZM235.25,85.99c2.96.79,3.3,1.55.02,1.62-3.03.13-3.28-2.49-.02-1.62ZM240.19,111.85c-1.82-2.62-7.36-23.72,1.19-16.68,1.91,3.29.85,18.14-1.19,16.68Z" fill="#0affed" stroke="#000" stroke-miterlimit="10" stroke-width="1.03"/><path d="M195.98,156.19c1.33-.02,2.52,1.27,2.65,2.86h0c2.65,2.64,21.73-8.94,17.12-15.6-5.05-.29-19.56-17.82-17.54,2.51.63,14.93-4.25,1.25-4.66,7.38,0,1.59,1.09,2.87,2.42,2.86ZM206.86,156.07c-1.57.04-1.59-1.65-.02-1.65,1.57-.04,1.59,1.65.02,1.65ZM203.63,145.87c.13-4.69,6.67-2.7,6.74,2.05h0c-.73,1.82-7.83,4.79-6.74-2.05Z" fill="#0affed" stroke="#000" stroke-miterlimit="10" stroke-width="1.03"/><path d="M260.1,142.63c6.07-15.51-38.56,3.83-26.55,6.69,4.72,3.76,2.04,2.17.16,3.23,1.12.16,1.2,1.23.07,1.45.42,1.15,6.79-.96,4.36,1.85-2.24,2.04,5.59-.13,7.89,3.8h0c13.87,12.79,12.15-4.28,14.06-17.02ZM253.55,153.69l-.72,5.45c-2.67-.63-18.43-15.39-11.84-12.8.71.47,3.87-1.17,7.03-3.64,7.51-6.34,4,1.23.25,1.34-2.35,1.17,7.48,3.29,5.28,9.65Z" fill="#0affed" stroke="#000" stroke-miterlimit="10" stroke-width="1.03"/><path d="M33.27,122.38c27.23.76,31.28,1.43,19.81,3.28-10.29-.75-7,11.5-13.59,15.35-12.19,4.86,18.42,11.2-6.73,12.58,22.16-2.74,5.93,33.63-.63,7.42-1.09-10.01-24.93-19.9-24.79-10.28,27.78.97,11.06,8.65,25.35,20.44,21.65,9.89,10.92-15.89,18.23-21.51,3.38,4.65,2.9-5.9-.14-4.15-3.14,1.72-3.33-9.89-.12-8.25,2.14.87,3.64-4.04,2.47-8.1,14.98.1,67.8-3.18,67.42,10.05q-.19,3.82-2.36-.26c-4.6-7.85,6.68,44.88,12.54,18.67-.97-5.69,5.75-1.03,3.88-3.67-.99-9.09,33.84-4.71,32.38,3.04,1.58,8.23,11.07,11.74,8.96,24.84h0c.76,27.75,6.32-11.65,5.4-27.94-.52-16.99,5.72,2.56,4.64-17.88,7.32-22.25-36.09-10.34-31.62-15.76-7.34-1.45-206.22-4.18-121.1,2.13ZM44.72,144.75c-1.57.04-1.59-1.65-.02-1.65,1.57-.04,1.59,1.65.02,1.65ZM182.89,139.54c.72,1.18.65,2.61-.15,3.16-1.87,1.53-1.62-6.36.15-3.16ZM127.14,160.29c-.82,1.26-4.56,2.97-2.42.03.81-1.26,4.56-2.97,2.42-.03ZM145.91,120.49c1.57-.04,1.59,1.65.02,1.65-1.57.04-1.59-1.65-.02-1.65ZM91.56,123.61c108.97,9.6,81.01-15.4,84.49,24.83h0c-.27,28.07-1.39,10.58-7.36.9-39.92-14.15-46.07,18.58-43.2-15.42.59-10.89-85.86-8.92-33.93-10.31Z" fill="#0affed" stroke="#000" stroke-miterlimit="10" stroke-width="1.03"/><path d="M415.29,147.1c5.63-7.64-11.28-1.91-13.68-3.51-4.73,1.98,13.1,6.11,13.68,3.51Z" fill="#0affed" stroke="#000" stroke-miterlimit="10" stroke-width="1.03"/><path d="M378.08,144.6c9.57,3.08,4.16-19.35,2.62-5.98,1.39,5.05-12.01,6.2-2.62,5.98Z" fill="#0affed" stroke="#000" stroke-miterlimit="10" stroke-width="1.03"/><path d="M440.63,143.72c3.68,2.35,4.43,9.86,4.67,14.07,5.66-16.15-9.85-19.78-4.67-14.07Z" fill="#0affed" stroke="#000" stroke-miterlimit="10" stroke-width="1.03"/><path d="M487.26,148.73c15.26-7.06-14.38,6.18-9.33-5.46-1.04-12.85-7.9,5.29-3.09,6.84h0c2.86,1.02,7.02.56,12.42-1.38Z" fill="#0affed" stroke="#000" stroke-miterlimit="10" stroke-width="1.03"/><path d="M520.92,137.6l-.77-2.76c-7.29-.03-62.58-.66-38.13,3.51,21.29,1.58-10.06-2.3,18.2-1.92,35.99-1.99,2.95,10.38-4.8,5.43-3.05-1.96-10.1-2.83-2.58.93h0c2.29,4.31,28.54.86,28.07-5.19Z" fill="#0affed" stroke="#000" stroke-miterlimit="10" stroke-width="1.03"/><path d="M469.56,68.37c4.27.49-.39-2.37,1.11-3.08-5.97.75-8.13,1.85-1.11,3.08Z" fill="#0affed" stroke="#000" stroke-miterlimit="10" stroke-width="1.03"/><path d="M519.63,90.45c-7.16-26.79-8.11-28.36-46.75-25.4,4.86-1.21,10.26,6.52,4.72,3.03-2.05-1.66-3.45-.57-2.81,1.59,4.34,4.16,8.84,1.75,9.29-3.46.52,4.52-.87,10,5.39,8.23,8.16-.66-2.93,1.07,13.3,6.78,9.92,2.98,10.63,5.77,7.75,6.93,2.06,2.98,1.46,7.71-2.63,8.75,4.78.16-2.77,1.57-.29.05-5.15,1.32-8.8-5.47-5.65-9.04-2.56.51-4.58,2.46-4.28,5.03h0c-1.44,12.37-2.94-2.15-4.27-4.49-1.22-1.64-.52-1.82,6.05-1.54,21.22.34-13.42-13.44-19.11-7.42,0,0-6.17,2.09-6.17,2.09,7.56-3.28,16.49-6.14,3.28-9.32.42.99.51,2.11.29,3.16,4.68-1.69.6,3.11-.02.08-2.9,9.44-16.17-1.02-7.33-5.72-7.86-3.31-4.93,15.31,1.32,12.57,4.61-.21,4.6-.16-.3,1.35-30.87,15.65,29.67,19,39.29,16.36,9.69,2.63,3.1-6.46,8.35-7.35,2.94.77,3.13-2.2.57-2.25ZM502.02,84.83c.04.58-2.44.61-2.42.03-.04-.58,2.44-.61,2.42-.03ZM474.22,84.71c1.57-.03,1.58.89.01.9-1.57.03-1.58-.89-.01-.9ZM479.57,95.04c-.14.41-.26.41-.36.12-1.23.39-3.02.27-4.1-.28-1.79,3.67-5.68-12.25,3.96-9.29,3.84.38,5.31,7.87.5,9.45ZM487.65,81.34c.14-2.46,3.24.56,1.29,1.16-.8.31-1.38-.22-1.29-1.16ZM488.67,88.19c-2.05,1.27-3.51,1.05-3.53-.52-.39-1.66,5.28-.82,3.53.52ZM488.73,85.43c-1.57.03-1.58-.89-.01-.9,1.57-.03,1.58.89.01.9ZM495.93,81.76c9.13,3.26-3.34-.39-.46,2.1h0c.54,5.56-7.98-5.08.46-2.1ZM487.69,67.79c.87-1.76,10.8-2.86,14.35-1.59,1.6,2.59-19.83,8.86-14.35,1.59ZM500.61,70.94c-2.39,1.02-4.89,1.85-5.56,1.86-.51-1.11,15.74-6.45,5.56-1.86ZM508.42,79.63c-.32.48-.57.45-.76.16-1.88.34-3.97-.39-4.91-1.6-8.6-.45-1.1-7.25,3.95-8.33,6.24,0,6.8,8.25,1.71,9.76ZM512.86,82.46c1.57-.03,1.58.89.01.9-1.57.03-1.58-.89-.01-.9ZM512.98,90.53c1.57-.03,1.58.89.01.9-1.57.03-1.58-.89-.01-.9ZM513.1,98.6c-1.57.03-1.58-.89-.01-.9,1.57-.03,1.58.89.01.9Z" fill="#0affed" stroke="#000" stroke-miterlimit="10" stroke-width="1.03"/><path d="M350.96,137.12c26.8-5.98,64.77-3.57,99.89-2.15-.73,18.52,0,70.84,4.84,14.65,21.64-31.54-81.73-14.34-124.56-22.23.86-1.94-45.55.73-41.18-1.33,4.52-1,2.63-1.34-7.58-1.34-19.38-3.63-22.68,12.39-18.17,21.49,3.65,5.32,1.49,25.36,5.22,34.16h0c10.53,36.63-1.85-26.73,6.43-26.05,1.48-.02,1.92-.87.96-1.9-3.72-2.74,11.86.23,9.65-1.76-2.33-1.82,17.44-1.25,15.02-2.73-30.26-5.34-31.04,16.57-30.79-16.64,10.15-.33,85.28-.91,41.06,1.36-24.49.69-17.71,1.81-24.59,8.9-5.09,2.05,5.02.37,6.7-1.75,8.18-6.34,35.79-3.11,46.48-.13,1.84-1.29-2.23-4.4-7.61-5.81-10.47-1.95,38.46-1.64,25.83-.74-11.9.13-17.79,9.02-7.61,4Z" fill="#0affed" stroke="#000" stroke-miterlimit="10" stroke-width="1.03"/><path d="M136.39,55.35c-.29.28-.46.49-.54.65,3.36-.07,4.57-3.21.54-.65Z" fill="#0affed" stroke="#000" stroke-miterlimit="10"/><path d="M148.21,51.83c-4.16,2.02,2.57.24,3.75-.16,1.51-.79-1.55-1.15-3.75.16Z" fill="#0affed" stroke="#000" stroke-miterlimit="10"/><path d="M125.09,58.73c-.07.06-.11.11-.17.17,3.22-.26,3.83-2.47.17-.17Z" fill="#0affed" stroke="#000" stroke-miterlimit="10"/><path d="M116.04,61c-.2.19-.34.35-.44.49,3.19-.18,4.46-2.94.44-.49Z" fill="#0affed" stroke="#000" stroke-miterlimit="10"/><path d="M156.73,49.7c-.37.36-.55.6-.6.77,3.36-.2,4.68-3.34.6-.77Z" fill="#0affed" stroke="#000" stroke-miterlimit="10"/><path d="M420.37,107.81c-2.43.05-5.8.38-7.38.87,2.69,1.79,4.95.57,7.38-.87Z" fill="#0affed" stroke="#000" stroke-miterlimit="10" stroke-width="1.03"/><path d="M563.31,111.86c-3.83-1.25-6.48-4.24-8.36-7.9-.17,2.15-.31,3.42-.4,3.47.26.37-3.88-1.88-7.79-4.29.73.96-5.77.81-6.3-.91-.55-1.93,4.52.15,5.59.47-8.17-4.28-3.05-5.42-9.29-5.94,2.62,3.06-9.25-2.96-1.25-.52-17.07-9.93-9.47-59.85-31.33-42.22,5.08,3.3-37.33,3.05-33.8.88-20.57-8.62-12.73,36.39-21.74,35.82.51-.17.92-.22,1.16-.12h0c-7.31,6.25-19.35,11.96-29.43,17.2,7.53-.25-5.27,1.48,1.26,2.29,2.53.66-12.48-1.11-10.65,2.09-2.01,4.57-2.17-3.75,2-3.51-4.71-1.82-9.37-3.68-13.97-5.6,2.72,1.49-10.31-3.28-15.38-6.38l5.28,2.05c-3.03-1.33-6.03-2.68-9.01-4.06-.51,1.14-4.04-.16-1.32-.61-47.27-22.04-88.71-50.45-125.41-91.44-8.12-2.82-15.41-2.83-15.37,0,1.8,4.04-28.59,5.37-38.57,5,5.5-14.1-23.03-3.26-23.29-.86,12.85,18.73-53.29,49.15-93.72,65.37-2.09.91-10.17,4.49-13.82,4.78-6.54,1.42-16.03,4.85-21.61,5.52-1.05.26-2.11.52-3.17.78.71.71-1.7,1.04-2.08.52-1.55-.35-7.71,4.28-6.39,1.6-2.81-.23-9.06,4.1-9.93,2.58-16.95,4.57-29.42,8.99-22.4,11.88,2.62-.27,3.28,10.99-.37,9.38-1.67-.45-2.32.24-1.78,1.9.84,2.59,14.15,4.57,14.12,2.1-.03-2.19,9.66-2.36,12.22-.22,4.09,4.33,23.17-1.88,29.01,2.86,9.3-8.37,3.94-.78,12.06-1.25,2.73-.03,4.31.45,3.5,1.07-3.31,3.8,33.37-3.83,31.25.86,23.08-.89,54.28,3.58,79.85.59-.1-4.25-1.68-17.77,1.84-18.58,1.93-.6,1.84-.84-.31-.83-3.78,2.56-3.69-20.5-.62-10.55,2.39,5.02-1.62-87.44,3.46-36.45,7.43-3.68,12.01.92,16.35-5.39,16.39-1.27-28.02,11.49,13.74,9.08,43.78.24,7.65-5.82,18.63-5.17,2.82,1.99,12.36.43,12.27-2-1.31-4.13-5.49,7.15-4.5-10.94,1.77-18.09-6.81-16.2-12.64-8.39.1,1.74-10.68,6.11-8.87,9.06,1.28,3.72-6.08.7-7.78,3.76-2.05,2.51-9.68,2.34-3.67-1.03,9.78-7.39-5.92-4.91-3.66-11.59,8.05,5.95,16.22,5.31,22.56-2.2,14.05-8.95-17.62-5.44-24.04-5.55.23,1.93.69,5.82.92,7.75-21.08-24.24-11.54,30.77-16.71,3.69-.17-4.67-1.18-8.23-2.24-7.92-6.26.55-7.17-21.76,5.33-20.02,4.46,12.44,42.06,5.69,52.16-.38,1.41,2.11,7.72-1.15,8.62,3.16.55,2.7,6.48,8.02,4.57,10.64-2.03,1.1,4.94-.41,5.04,1.37,2.04,2.38,1.59,4.76-.48,2.54-20.13-5.14-2.95,6.56-6.63,38.23-1.13,17.61,5.85,9.36,3.69,14.19-4.45,7.62-4.55,8.04-1.82,7.23,9.66,20.97-1.5,44.96,16.63,40.19,53.05,4.14,124.12,3.15,177.27,5.09,11.78,8.53,10.03-36.95,2.91-34.86-4.47,8.64-7.56.84-.15-.64,5.7.52,5.28-43.93,12.37-33.68,3.78,4.41,38.98,1.7,42.75-3.29,2.29-3.03,4.88.47,5.67,7.65,2.57,8.08,2.18,14.17,3.95,19.61,3.55.56,1.74,9.59,5.94,11.61,2.32,2.01,2.72,3.29,1.12,3.56-3.14.52-3.91,31.25-.81,32.64,2.54.61,31.27.34,31.07,2.03,5.2-.85,5.11-14.02-.12-16.75-6.82-4,2.72,2.17,6.83-2.1ZM7.09,103.05c-1.34,3.52-1.45-9.52-.04-5.39h0c.58,1.63.6,4.06.04,5.39ZM19.06,101.18c-.36.17-.7.21-.97.14-19.41,9.33-2.31-22.22.77-1.62.77.24,1.36.93.2,1.48ZM25.78,91.76c-1.57.03-1.58-1.07-.02-1.08,1.57-.03,1.58,1.07.02,1.08ZM30.99,89.9c2.2.98-1.73,2.6-1.6.74-.01-.79.71-1.12,1.6-.74ZM31.16,97.89c-1.42,2.65-1.55-6.38-.05-3.77h0c.62,1.03.65,2.73.05,3.77ZM30.84,107.87c-1.57.03-1.58-1.07-.02-1.08,1.57-.03,1.58,1.07.02,1.08ZM35.93,93.53c-.59,1.04-1.1.2-1.13-1.87.08-5.33,2.56.17,1.13,1.87ZM35.51,95.96c1.57-.03,1.58,1.07.02,1.08-1.57.03-1.58-1.07-.02-1.08ZM35.54,98.11c1.57-.03,1.58,1.07.02,1.08-1.57.03-1.58-1.07-.02-1.08ZM35.59,101.35c-1.57.03-1.58-1.07-.02-1.08,1.57-.03,1.58,1.07.02,1.08ZM40.48,105.6c-1.57.03-1.58-1.07-.02-1.08,1.57-.03,1.58,1.07.02,1.08ZM40.44,102.37c1.57-.03,1.58,1.07.02,1.08-1.57.03-1.58-1.07-.02-1.08ZM44.09,100.47c-9.15.44-5.53-17.81,3.95-15.6,0,0,7.82-2.31,7.82-2.31-.25,10.99-2.58-1.63-6.86,3.77,3.4,3.69,1.28,14.13-4.92,14.14ZM55.2,93.86c-1.52,1.93-1.5-5.81.04-3.24h0c.63,1.04.61,2.5-.04,3.24ZM55.38,106.79c-.19.24-.35.33-.49.31,2.13,13.71-19.32,2.07-5.92-3.27-.05-.66,2.51-.65,2.32.04,1.38.29,2.38,1.05,3.02,2.02-.22-1.57.15-3.94,1.11-2.34h0c.63,1.04.61,2.5-.04,3.24ZM54.88,97.88c-1.57.03-1.58-1.07-.02-1.08,1.57-.03,1.58,1.07.02,1.08ZM64.88,83.5c.57,1.93.6,4.84.07,6.47-1.15,4.34-1.48-11.43-.07-6.47ZM64.56,98.85c-1.57.03-1.58-1.07-.02-1.08,1.57-.03,1.58,1.07.02,1.08ZM69.33,94.48c1.57-.03,1.58,1.07.02,1.08-1.57.03-1.58-1.07-.02-1.08ZM69.55,109.57c-1.57.03-1.58-1.07-.02-1.08,1.57-.03,1.58,1.07.02,1.08ZM82.52,104.6c-6.03,20.91-19.71-13.73-1.42-6.47,2.23,1.6,1.93,4.33,1.42,6.47ZM75.4,96.02c-.04-.69,2.44-.72,2.42-.03.04.69-2.44.72-2.42.03ZM82.92,83.23h0c-2.13,25.84-24.61-2.91.32-8.85l-.32,8.85ZM86.54,92.66c-.82-4.55-2.47-13.73-3.29-18.28,6.12-2.93,2.85,13.92,3.29,18.28ZM86.25,94.28c-1.57.03-1.58-1.07-.02-1.08,1.57-.03,1.58,1.07.02,1.08ZM90.74,69.87c9.02-5.14,43.3-18.92,13.32-5.5l-13.32,5.5ZM93.49,93.12c-1.57.03-1.58-1.07-.02-1.08,1.57-.03,1.58,1.07.02,1.08ZM114.97,62.17c-.27,5.26-.82,15.84-1.09,21.1-3.9,1.15-11.75,3.47-15.65,4.62-1.22-19.97-.17-18.52,16.74-25.71ZM109.13,88.08c.04.69-2.44.72-2.42.03-.04-.69,2.44-.72,2.42-.03ZM115.18,93.81c-1.75,9.56-.16,17.66-10.78,13.98-17.79-1.25,8.23-28.36,10.78-13.98ZM115.15,86.39c-1.57.03-1.58-1.07-.02-1.08,1.57-.03,1.58,1.07.02,1.08ZM174.65,21c1.57-.03,1.58,1.07.02,1.08-1.57.03-1.58-1.07-.02-1.08ZM173.59,31.19c.03,1.89-1.42,2.19-3.51.72-1.79-1.56,3.85-2.73,3.51-.72ZM172.28,24.26c1.57-.03,1.58,1.07.02,1.08-1.57.03-1.58-1.07-.02-1.08ZM169.89,26.45c1.57-.03,1.58,1.07.02,1.08-1.57.03-1.58-1.07-.02-1.08ZM165.1,29.74c.82-.83,4.57-1.96,2.42-.03-.82.83-4.57,1.96-2.42.03ZM160.32,33.03c.82-.83,4.57-1.96,2.42-.03-.82.83-4.57,1.96-2.42.03ZM153.16,38.1c4.79-3.35,7.29-3.88,3.66-.78-1.44,1.64-9.6,5.22-3.66.78ZM148.64,41.79c1.59.51-2.49,2.41-2.96,2.19-1.59-.51,2.49-2.41,2.96-2.19ZM148.94,51.23c-1.38,2.71-1.48-7.64-.01-4.31h0c.6,1.33.6,3.27.01,4.31ZM139.35,46.08c7.96-3.18-2.54,2.46-3.28,2.33-1.99.02-.72-.88,3.28-2.33ZM120.42,76.89c-1.04,7.41-1.42-18.7-.16-11.32.53,3.11.61,8.2.16,11.32ZM122.91,56.11c-2.3-.59,9.6-5.99,9.14-5.5.2,1.07-8.06,5.97-9.14,5.5ZM125.63,58.77c.04.69-2.44.72-2.42.03-.04-.69,2.44-.72,2.42-.03ZM124.45,60.41c1.57-.03,1.58,1.07.02,1.08-1.57.03-1.58-1.07-.02-1.08ZM124.51,64.72c-1.57.03-1.58-1.07-.02-1.08,1.57-.03,1.58,1.07.02,1.08ZM127.17,81.94c1.57-.03,1.58,1.07.02,1.08-1.57.03-1.58-1.07-.02-1.08ZM127.2,84.09c1.57-.03,1.58,1.07.02,1.08-1.57.03-1.58-1.07-.02-1.08ZM127.36,94.87c-1.57.03-1.58-1.07-.02-1.08,1.57-.03,1.58,1.07.02,1.08ZM136.24,105.51c-.61,2.14-1.3,4.2-1.95,6,.15-9.71-9.44-32.45,5.35-30.51,6.23-11.81,11.16,34.03-3.4,24.51ZM135.58,78.06c-.04-.69,2.44-.72,2.42-.03.04.69-2.44.72-2.42.03ZM139.68,110.9c-1.57.03-1.58-1.07-.02-1.08,1.57-.03,1.58,1.07.02,1.08ZM144.91,110.48c-.88.41-1.61.09-1.62-.7-.18-1.85,3.79-.34,1.62.7ZM131.31,77.53c-1.66-14.22-2.12-24.12,11.3-29.74,7.31,13.46,3.56,28.5-11.3,29.74ZM148.62,60.12c1.57-.03,1.58,1.07.02,1.08-1.57.03-1.58-1.07-.02-1.08ZM148.8,73.06c1.57-.03,1.58,1.07.02,1.08-1.57.03-1.58-1.07-.02-1.08ZM148.25,79.53c.08-5.33,2.56.17,1.13,1.87-.59,1.04-1.1.2-1.13-1.87ZM149.8,103c-1.09,7.33-1.45-18.81-.14-10.78h0c.54,3.13.6,7.98.14,10.78ZM150.96,56.85c-1.87-15.8,6.71-16.85,15.96-24.22v28.6s-15.84,8.3-15.84,8.3l-.12-12.67ZM164.43,66.94c.04.69-2.44.72-2.42.03-.04-.69,2.44-.72,2.42-.03ZM157.22,70.26c.04.69-2.44.72-2.42.03-.04-.69,2.44-.72,2.42-.03ZM166.6,87.85c-.27,14.43-1.95,21.87-3.6,21.78,7.4.21-8.02,2.46-7.61.98-.09-.82,4.34-1.1,6.64-1.04-.32-.64-.6-1.97-.86-3.74-1.39.42-2.8.36-4.02-.24-3.52,8.51-10.51-38.03,9.82-37.6l-.38,19.86ZM167.75,65.29c-1.59-.51,2.49-2.41,2.96-2.19,1.59.51-2.49,2.41-2.96,2.19ZM171.91,83.03c.04.69-2.44.72-2.42.03-.04-.69,2.44-.72,2.42-.03ZM170.74,85.73c1.57-.03,1.58,1.07.02,1.08-1.57.03-1.58-1.07-.02-1.08ZM171.55,103.81c-1.15,5.7-1.4-14.9-.11-8.62h0c.55,2.53.6,6.41.11,8.62ZM171.08,109.45c-1.57.03-1.58-1.07-.02-1.08,1.57-.03,1.58,1.07.02,1.08ZM173.08,59.25c-2.37-2.68-1.69-3.39,1.19-1.24,3.41,2.49.77,3.51-1.19,1.24ZM175.99,75.7c-1.15,5.8-1.44-13.86-.12-8.08h0c.55,2.22.61,5.86.12,8.08ZM177.56,27.07c-.88.41-1.61.09-1.62-.7-.18-1.85,3.79-.34,1.62.7ZM177.05,19.89c-1.57.03-1.58-1.07-.02-1.08,1.57-.03,1.58,1.07.02,1.08ZM228.47,37.26c-.88.41-1.61.09-1.62-.7-.18-1.85,3.79-.34,1.62.7ZM237.85,45.05c1.57-.03,1.58,1.07.02,1.08-1.57.03-1.58-1.07-.02-1.08ZM234.3,26.55c2.81-2.14,2.4,17.23,1.26,16.37-4.01.05-5.07-13.62-1.26-16.37ZM230.58,44.06c1.57-.03,1.58,1.07.02,1.08-1.57.03-1.58-1.07-.02-1.08ZM227.99,32.23c1.57-.03,1.58,1.07.02,1.08-1.57.03-1.58-1.07-.02-1.08ZM222.72,39.18c2.59-.94,10.62,7,1.73,2.23-1.69-.88-2.47-1.89-1.73-2.23ZM217.41,41.52c3.87,1.96,16.05,7.7,4.79,8.03-6.11.73-4.65-3.94-4.79-8.03ZM214.09,42.97c.71.77.64,1.7-.16,2.07-1.87,1.01-1.59-4.15.16-2.07ZM214.81,22.81c11.36-4.95,11.99,2.08,1.91,3.97,1.6-1.62-4.73-.53-1.01.18-3.72.39-7.7-1.81-.9-4.15ZM208.91,22.03c2.2.98-1.73,2.6-1.6.74-.01-.79.71-1.12,1.6-.74ZM209.25,46.2c1.65,1.37-1.06,5.11-1.2,1.36-.02-1.48.52-2.09,1.2-1.36ZM208.67,33.54c1.57-.03,1.58,1.07.02,1.08-1.57.03-1.58-1.07-.02-1.08ZM206.29,35.72c1.57-.03,1.58,1.07.02,1.08-1.57.03-1.58-1.07-.02-1.08ZM197.69,26.12c2.76,1.41,3.59,14.51.22,15.63-2.93,2.43-3.67-19.09-.22-15.63ZM189.46,42.39c1.57-.03,1.58,1.07.02,1.08-1.57.03-1.58-1.07-.02-1.08ZM344.09,78.16c2.34.79,4.25,1.61,4.26,1.84,1.04,2.25-13.27-5.26-4.26-1.84ZM337.38,74.06c1.57-.03,1.58,1.07.02,1.08-1.57.03-1.58-1.07-.02-1.08ZM330.91,70.26c1.54.41,2.8.95,2.81,1.21.65,1.99-7.71-2.28-2.81-1.21ZM309.86,58.72c.44-1.05,9.14,4.1,8.47,4.79-2.05.02-9.62-4.26-8.47-4.79ZM314.69,93.2c-.04-.69,2.44-.72,2.42-.03.04.69-2.44.72-2.42.03ZM314.81,101.28c-.01-.79.71-1.12,1.6-.74,2.2.98-1.73,2.6-1.6.74ZM316.6,67.26c1.34.35,1.81,5.4,1.14,12.18-2.53,31.73-5.46-10.83-1.14-12.18ZM311.51,86.95c-.2,1.89-.38,1.71-.52.39-4.05,2.85-8.51-.73-9.13-4.77-.98,11.08-1.48-25.33-.24-14.77h0c.09.76.17,1.6.23,2.48,8.5-18.16,13.84,10.53,9.66,16.68ZM311.12,97.02c-1.57.03-1.58-1.07-.02-1.08,1.57-.03,1.58,1.07.02,1.08ZM280.86,37.35c3.03-.28,24.17,18.23,5.71,5.33-3.71-2.67-6.28-5.07-5.71-5.33ZM263.81,22.42c.2-1.05,16.42,12.62,15.3,13.2-.2,1.05-16.42-12.62-15.3-13.2ZM257.27,22.9c-.88.41-1.61.09-1.62-.7-.18-1.85,3.79-.34,1.62.7ZM257.91,23.79c3.73,1.85,9.19,9.47,9.56,10.13,2.68-.34,7.7,6.39,10.16,6.35,2.39-.6-.45,6.12,1.58,4.46,2.24-2.22,10.35,3.7,9,6.57-1.84,5.79,9.24-11.88,9.24,19.39h0c-1.13,39.3-10.63-2.93-8.5-17.08-.6,7.53-1.8,22.69-2.4,30.22l-2.53-35.55c-.58,8.34-1.74,25.12-2.32,33.45-.37-3.06-1.77-34.99-3.23-28.56-.54,4.85-1.47,6.51-3.05,5.43-3.31-2.32-2.58,14.81-2.94,17.85-.49-1.6-2.68-16.13-3.99-12.89-.76,3.9-3.11,1.05-1.67-1.41-2.07-.57-3.23-2.24-3.48-4.04-3.22,6.64-2.97-29.05-5.43-34.32ZM295.28,88.04c-.04-.69,2.44-.72,2.42-.03.04.69-2.44.72-2.42.03ZM296.53,90.72c-1.57.03-1.58-1.07-.02-1.08,1.57-.03,1.58,1.07.02,1.08ZM286.84,89.75c1.57-.03,1.58,1.07.02,1.08-1.57.03-1.58-1.07-.02-1.08ZM285.59,87.07c-.04-.69,2.44-.72,2.42-.03.04.69-2.44.72-2.42.03ZM281.99,88.73c-1.57.03-1.58-1.07-.02-1.08,1.57-.03,1.58,1.07.02,1.08ZM276.35,66.16c-.05-3.26.39-4.6.96-2.98,1.34,2.31-.64,11.43-.96,2.98ZM268.52,76.49c.04.69-2.44.72-2.42.03-.04-.69,2.44-.72,2.42-.03ZM262.74,67.67c-.66.75-1.22.15-1.24-1.33.04-3.75,2.84-.07,1.24,1.33ZM262.48,77.1c-1.57.03-1.58-1.07-.02-1.08,1.57-.03,1.58,1.07.02,1.08ZM262.64,74.01c-2.04-1.43-.03-3.1,2.44-2.04,2.01,1.28-.46,4.19-2.44,2.04ZM265.11,87.05c-2.39-16.4,10.33-4.45,8.47,11.16-.75,29.47-5.49,14.28-8.47-11.16ZM274.38,80.03c-2.42-1.77,4.43.35,3.87.72.01.9-2.13.5-3.87-.72ZM277.11,85.56c1.57-.03,1.58,1.07.02,1.08-1.57.03-1.58-1.07-.02-1.08ZM277.88,111.06c-.88.41-1.61.09-1.62-.7-.18-1.85,3.79-.34,1.62.7ZM288.07,111.12c.24,2-1.23,5.34-1.43,1-10.8,3.92-7.35-10.97-9.5-16.43,4.53-18.9,16.78,8.13,10.94,15.44ZM292.13,111.45c-3.12-4.26-1.12-20.73,2.37-19.49,4.95-.55,4.8,29.93-2.37,19.49ZM297.3,116.23c-.88.41-1.61.09-1.62-.7-.18-1.85,3.79-.34,1.62.7ZM298.35,51.88c-5.38-4.56.18-2.94,6.85,1.99,9.36,6.59-3.08,1.82-6.85-1.99ZM299.69,58.34c-.18-1.85,3.79-.34,1.62.7-.88.41-1.61.09-1.62-.7ZM301.38,91.74c1.57-.03,1.58,1.07.02,1.08-1.57.03-1.58-1.07-.02-1.08ZM301.61,107.91c1.57-.03,1.58,1.07.02,1.08-1.57.03-1.58-1.07-.02-1.08ZM301.73,116.53c-1.57.03-1.58-1.07-.02-1.08,1.57-.03,1.58,1.07.02,1.08ZM319.96,109.86c-1.7,2.65-3.61,6.22-7.53,5.46-.27,1.54-3.26.85-2.02-.65-.92-.51-1.7-1.45-2.11-2.4-5.92.5-9.93-13.88-6.34-14.34,3.89-3.86,10.77.8,12.55,4.53,4.34-.81,7.71,3.89,5.44,7.39ZM320.34,65.64c-1.57.03-1.58-1.07-.02-1.08,1.57-.03,1.58,1.07.02,1.08ZM322.82,69.92c1.57-.03,1.58,1.07.02,1.08-1.57.03-1.58-1.07-.02-1.08ZM323.28,102.26c-1.57.03-1.58-1.07-.02-1.08,1.57-.03,1.58,1.07.02,1.08ZM323.7,66.68c1.41-.28,6.73,1.64,3.02,2.12-1.41.28-6.73-1.64-3.02-2.12ZM326.92,102.76c-.04-.69,2.44-.72,2.42-.03.04.69-2.44.72-2.42.03ZM329.54,116.74c-3.18,1.55-3.37-12.25-.15-10.78,3.12.72,3.26,9.99.15,10.78ZM326.7,72.95c1.64,1.19,15.05,6.45,9.92,7.56-2.16.62-2.27,1.09-.37,1.59,3.86,1.19,1.4-2.74,5.17-.92,4.51.24.33,36.31-1.8,16.15-1.54.61-3.95.34-5.14-.61,3.9,4.38-3.01,2.15-1,4.62-8.1,3.76-6.52-19.3-6.77-28.39ZM345.17,115.16c-.87,3.72-6.64,4.9-9.11,2-1.34.36-2.55-.81-.68-1.01-.95-1.38-.29-3.01-.68-4.45l.18.4c-.33-.88-.5-1.73-.38-2.66,2.32-8.99,14.24-1.9,10.67,5.71ZM347.56,109.52c-1.57.03-1.58-1.07-.02-1.08,1.57-.03,1.58,1.07.02,1.08ZM349.59,82.54c-1.57.03-1.58-1.07-.02-1.08,1.57-.03,1.58,1.07.02,1.08ZM356.27,84.48c2.34.79,4.25,1.61,4.26,1.84,1.04,2.25-13.27-5.26-4.26-1.84ZM353.9,91.12c.08-5.33,2.56.17,1.13,1.87-.59,1.04-1.1.2-1.13-1.87ZM355.13,98.94c1.53,1.96-1.14,5.88-1.18,1.34.02-1.78.56-2.38,1.18-1.34ZM354.83,110.52c1.57-.03,1.58,1.07.02,1.08-1.57.03-1.58-1.07-.02-1.08ZM360.79,122.22c-6.87,0-6.86-10,0-10s6.86,10,0,10ZM358.82,109.39c.04-3.75,2.84-.07,1.24,1.33-.66.75-1.22.15-1.24-1.33ZM364.47,108.24c-1.57.03-1.58-1.07-.02-1.08,1.57-.03,1.58,1.07.02,1.08ZM364.91,111.11c-.88.41-1.61.09-1.62-.7-.18-1.85,3.79-.34,1.62.7ZM365.36,103.57c-.4,2.64-1.19,4.03-1.93,1.09-6.96,2.47-11.04-10.11-5.62-13.21,6.48-4.03,12.28,7.82,7.56,12.12ZM365.02,88.19c1.54.4,2.8.95,2.81,1.21.65,1.99-7.71-2.28-2.81-1.21ZM371.49,91.99c1.57-.03,1.58,1.07.02,1.08-1.57.03-1.58-1.07-.02-1.08ZM372.25,113.27c-1.42,2.65-1.55-6.38-.05-3.77.62,1.03.65,2.73.05,3.77ZM377.15,114.83c-1.34,3.43-1.51-8.25-.07-4.85.6,1.33.63,3.51.07,4.85ZM376.77,105.61c-1.86.41-.27-10.42.61-3.39,1.57-3.3,7.27-3.16,8.88-.12,3.44-.82,2.9,4.14.47,4.36-1.07,4.81-9.85,4.05-9.96-.84ZM387.04,109.06c2.61-.06,2.66,3.23.05,3.23-2.61.06-2.66-3.23-.05-3.23ZM386.36,117.69c-1.57.03-1.58-1.07-.02-1.08,1.57-.03,1.58,1.07.02,1.08ZM388.73,114.43c-1.57.03-1.58-1.07-.02-1.08,1.57-.03,1.58,1.07.02,1.08ZM393.43,104.67c1.57-.03,1.58,1.07.02,1.08-1.57.03-1.58-1.07-.02-1.08ZM393.93,111.85c-.88.41-1.61.09-1.62-.7-.18-1.85,3.79-.34,1.62.7ZM393.61,117.6c-1.57.03-1.58-1.07-.02-1.08,1.57-.03,1.58,1.07.02,1.08ZM406.03,109.71c.71.77.64,1.7-.16,2.07-1.87,1.01-1.59-4.15.16-2.07ZM401.02,110.76c-1.87,1.01-1.59-4.15.16-2.07.71.77.64,1.7-.16,2.07ZM405.65,114.23c-1.57.03-1.58-1.07-.02-1.08,1.57-.03,1.58,1.07.02,1.08ZM410.53,117.4c-1.57.03-1.58-1.07-.02-1.08,1.57-.03,1.58,1.07.02,1.08ZM415.72,113.75c-.88.41-1.61.09-1.62-.7-.18-1.85,3.79-.34,1.62.7ZM431.88,104.3c2.1-.81,3.02-.12,3.48,2.62,2.99,8.46-8.69-1.5-3.48-2.62ZM430.96,109.08c.04.69-2.44.72-2.42.03-.04-.69,2.44-.72,2.42-.03ZM427.72,117.99c-1.87,1.01-1.59-4.15.16-2.07.71.77.64,1.7-.16,2.07ZM435.87,114.45c.01.83-1.25.6-6.2-1.1-10.11-3.1,6.4.54,6.2,1.1ZM432.29,117.15c-1.57.03-1.58-1.07-.02-1.08,1.57-.03,1.58,1.07.02,1.08ZM434.74,119.27c-1.57.03-1.58-1.07-.02-1.08,1.57-.03,1.58,1.07.02,1.08ZM443.19,118.64h0c-6.07,6.31-1.99-5.87,0,0ZM441.93,114.88c1.57-.03,1.58,1.07.02,1.08-1.57.03-1.58-1.07-.02-1.08ZM454.49,119.76c-.88.41-1.61.09-1.62-.7-.18-1.85,3.79-.34,1.62.7ZM452.34,102.27c.31.49.56,1.16.67,1.84,2.39-.89,2.62,1.55.07.79.03.96-1.07,3.4-1.04,3.56.23,1.77-.33,3.76-2,4.82.32.94-1.33,1.94-1.73.82-2.37.79-15.31-3.16-6.19-2.41-.34-.51-.45-1.01-.49-1.57-11.33-1.85,5.17-19.45,6.08-10.32,1.85-.07,3.7.97,4.62,2.46ZM531.06,93.34c1.57-.03,1.58,1.07.02,1.08-1.57.03-1.58-1.07-.02-1.08ZM531.42,118.13c-1.57.03-1.58-1.07-.02-1.08,1.57-.03,1.58,1.07.02,1.08ZM533.49,115.16c-.5,0-.96-.06-1.39-.16,2.24,1.98-5.4.27-.29-.07-3.61-1.05-4.39-5.47-2.36-7.99-5.08-11.87,4.26-9.69,5.29-1.66,5.59,1.13,5.16,9.88-1.25,9.88ZM538.41,99.72c-1.57.03-1.58-1.07-.02-1.08,1.57-.03,1.58,1.07.02,1.08ZM550.59,106.05c1.57-.03,1.58,1.07.02,1.08-1.57.03-1.58-1.07-.02-1.08ZM549.43,124.76c-10.41-.55-3.17-27.75,2.28-9.56,4.47,1.93,3.71,9.56-2.28,9.56Z" fill="#0affed" stroke="#000" stroke-miterlimit="10" stroke-width="1.03"/><path d="M448.64,90.72c-.88.3-2.07.95-3.17,1.79-5.92,4.28,2.62-.2,3.17-1.79Z" fill="#0affed" stroke="#000" stroke-miterlimit="10" stroke-width="1.03"/><path d="M391.54,99.77l-2.62-1.02c3.34,1.47,6.7,2.91,10.1,4.32-.82-.45-3.08-1.47-7.47-3.3Z" fill="#0affed" stroke="#000" stroke-miterlimit="10" stroke-width="1.03"/><path d="M430.4,102.08c-.66,0-3.16,1.01-5.55,2.22-9.81,5.13,4.65-.03,5.55-2.22Z" fill="#0affed" stroke="#000" stroke-miterlimit="10" stroke-width="1.03"/><path d="M442.4,95.47c-.66,0-3.16,1.01-5.55,2.22-9.45,4.96,4.01.23,5.55-2.22Z" fill="#0affed" stroke="#000" stroke-miterlimit="10" stroke-width="1.03"/></g></svg>