<?xml version="1.0" encoding="UTF-8"?><svg id="Layer_2" xmlns="http://www.w3.org/2000/svg" viewBox="0 0 861.95 360.65"><g id="Layer_2-2"><polygon points="812.21 185.17 .74 250.66 44.65 360.05 731.38 212.71 812.21 185.17" fill="#0a0a0a" stroke="#117f00" stroke-miterlimit="10" stroke-width="1.03"/><path d="M627.33,270.5c-.65-.77-16.6-1.78-9.7-.41,1.13.2,2.29.36,3.4.51,1.89.17,15.72,2.34,6.45-.05l-.15-.05Z" fill="#19df00"/><path d="M731.99,256.9c-2.48.83,1.02,4.22-.99,5.1-1.61.66-4.03,0-5.58.44-.44.28,4.94.87,7.17,1.23,1.1.18.18.18-1.28.2-1.54.09-4.27-.08-5.5.4-.23.21,1.54.61,1.62.68,1.35.43,1.99,1.56,2.02,2.93.05,1.27-.25,2.79-.55,3.89-.14.51-.54.83-1.1.78-4.82.05-20.47-.08-20.52.82,2.28.92,15.93.66,22.18.29,1.11-.09,1.84-.13,2.66-.34.35-.13.37-.37.55-.74.99-2.54,6.77-16.11-.51-15.74l-.17.05Z"/><path d="M702.99,268.95c-.08-.76-.35-3.55-.37-3.78-.6,1.03-1.29,2.47-1.82,3.69-.37,1.12-1.16,2.44-.43,3.31.47.35,1.09.72,1.64.63,1.35-.42,1.02-2.57.98-3.79v-.06Z"/><path d="M640.49,155.49c-5.16-.36-11.65,1.5-11.17,5.23.38.4,2.11.55,4.08.67,2.57.13,6.16.12,8.45-.18.69-.11.96-.24.57-.4-.32-.13-1.31-.35-1.8-.57-2.14-.87-1.12-2.45,1.39-2.94,1.18-.25,2.48-.11,3.68-.09,3.48.08,7.78-2.25,6.79-3.64-.22-.33-.58-.56-1.07-.71-1.96-.55-5.66-.53-7.93-.33-6.37.61-2.19,2.21.95,2.84,2.59.65-3.18.13-3.7.12h-.23ZM635.63,158.48c-.88.34-1.61.08-1.62-.58-.18-1.54,3.79-.29,1.62.58Z" fill="#fffc4a" stroke="#117f00" stroke-miterlimit="10" stroke-width="1.03"/><path d="M656.24,27.13c-1.33-.1-20.86,2.08-12.74,2.39.55.03,1.64.02,1.97.38.23.26-.08.48-.29.57-.88,1.21,56.6,1.79,49.75-3.57-13.1-3.06-25.07-1.29-38.5.21l-.19.02ZM652.7,29.42c-1.57.03-1.58-.89-.01-.9,1.57-.03,1.58.89.01.9ZM679.28,28.19c.87-.83,9.94-1.52,10.84-.2.57.63-2.64.76-3.37.87-.79.05-8.29.64-7.53-.62l.05-.05ZM675.65,28.32c-.36.58-5.06.78-6.74.86-3.25.1-6.48.18-9.68.17-10.2-.08,13.06-2.28,16.39-1.05l.02.02Z" fill="#2aff84"/><path d="M707.69,81.63c2.82-.47,5.25-1.98,3.12-3.3-2.08-1.55-8.19-1.72-11.46-1.05-5.62.85-15.41-1.66-16.36,3.64-.08.4-.16.99.04,1.29.99,1.4,11.85,1.03,11.25-.59-.29-.78,1.77.33,2.21.44,3.45,1.48,11.81,2.05,10.42.75-.65-.59-.47-.95.56-1.13l.22-.05Z" fill="#fffc4a" stroke="#117f00" stroke-miterlimit="10" stroke-width="1.03"/><path d="M520.36,244.39c-3.9.39-11.44,1.19-14.12,2.06-.37.15-1.27.45-1.39.76.06.25,1.78.04,4.07-.35,3.46-.62,8.36-1.61,11.46-2.47h-.02Z" fill="#19df00"/><path d="M484.18,251.62c2.66-.54,5.38-1.13,8.06-1.7,32.38-7.14-33.38,4.93-42.19,6.82-10.02,1.97-20.86,4.24-25.79,5.52-2.48.64-3.93,1.11-3.93,1.36,18.52-2.2,35.02-7.45,63.69-11.97l.16-.03Z" fill="#19df00"/><path d="M269.47,301.23c42.81-15.27,97.1-24.08,141.12-36.67-51.55,11.03-125.38,25.89-172.6,46.8-.49.22-.8.39-.72.43,6.88-.8,24.66-8.35,32.05-10.51l.15-.05Z" fill="#19df00"/><path d="M587.66,232.9c-3.43.02-28.12,4.36-29.79,5.21-.05.03-.05.06.03.09,5.56.96,32.68-4.86,29.83-5.3h-.07Z" fill="#fffc4a" stroke="#117f00" stroke-miterlimit="10" stroke-width="1.03"/><path d="M613.88,229.82c26.24-5.67,53.65-5.71,79.04-12.44-29.75,3.79-65.44,7.88-94.41,13.86-.83.14-3.89.91-3.17,1.27,3.65.23,13.61-1.75,18.35-2.66l.19-.04Z" fill="#fffc4a" stroke="#117f00" stroke-miterlimit="10" stroke-width="1.03"/><path d="M747.3,56.7c-.48-.09-10.59-.1-7.86.79,2.58.46,8.69.47,12.08.3,3.92-.19,7.25-.64,6.93-1.5-.15-.48-.18-1.24-.83-1.73-1.71-1.26-7.23-.68-8.39.35-.04.16.68.24,1.52.24,1.2-.02,2.16.05,3.33.21,3.37.47,1.14,1.28-3.03,1.4-1.27.04-2.44,0-3.6-.06h-.15Z" fill="#fffc4a" stroke="#117f00" stroke-miterlimit="10" stroke-width="1.03"/><path d="M673.4,133.57c8.75,1.46,12.69-5.65,4.28-7.09-6.52-.97-13.2-.11-19.01.25-17.48,1.64-18.19,5.34-3.22,5.79,4.47.34,14.86-.27,17.85,1.02l.11.03ZM676.3,128.99c2.2.81-1.74,2.16-1.6.62,0-.66.71-.94,1.6-.62ZM654.13,129.88c-1.01.7-5.22,1.55-5.96.19-.32-.46.21-.56,1.11-.78.67-.17,5.93-.78,4.92.54l-.07.06ZM660.2,129.78c-4.59-.06.29-1.38,1.6-.62.89.32.17.6-1.6.62ZM671.49,130.25c-.88.34-1.61.08-1.62-.58-.18-1.54,3.79-.29,1.62.58Z" fill="#fffc4a" stroke="#117f00" stroke-miterlimit="10" stroke-width="1.03"/><path d="M671.3,145.16c4.81-4.45-11.58-2.58-13.76-2.08-1.66.34-8.69,1.49-6.03,3.36,3.49,2.62,17.27,1.54,19.7-1.19l.1-.09ZM656.81,145.97c-1.57.03-1.58-.89-.01-.9,1.57-.03,1.58.89.01.9ZM665.18,144.97c-.75.12-5.49-.86-2.8-1.58,1.37-.26,3.25-.23,4.56-.19,4.44.3.18,1.82-1.61,1.77h-.15Z" fill="#fffc4a" stroke="#117f00" stroke-miterlimit="10" stroke-width="1.03"/><path d="M652.4,110.89c-1.82.11-3.45.24-5.28.59-10.55,2.02.08,7.57,10.43,5.17,1.98-.46,4.03-.78,5.79-1.81,1.26-.8,2.23-1.58,1.42-2.47-.75-.64-3.18-.48-3.97-1.01-1.44-.96-5.94-.62-8.19-.48h-.2ZM652.71,114.25c-.11.5-4.67.63-4.83-.39-.12-1.43,4.44-.22,4.84.36v.04ZM656.34,113.69c-1.57.03-1.58-.89-.01-.9,1.57-.03,1.58.89.01.9Z" fill="#fffc4a" stroke="#117f00" stroke-miterlimit="10" stroke-width="1.03"/><path d="M676.64,109.88c-2.54.24-4.93.59-7.13,1.36-7.58,2.7,4.52,7.01,10.15,4.47,1.35-.57,2.25-1.65,2.57-2.98.11-.34.17-.36.34-.02,2.73,5.95,31.78,5.13,32.11-.58.1-1.22-1.52-1.03-3.36-1.32-9.76-.9-25.7.2-34.55-.94h-.13ZM676.84,114.34c-3.99-.15-2.22-2.14.74-1.77,3.02.4,1.36,1.87-.63,1.77h-.1ZM705.02,112.43c1.21.06,3.1-.18,4.16.25.14.11-.85.41-1.26.51-1.31.35-2.86.63-4.27.74-.94.24-6.9-.05-3.97-1.05,1.57-.38,3.55-.41,5.17-.44h.17ZM695.41,112.62c2.2.81-1.74,2.16-1.6.62,0-.66.71-.94,1.6-.62ZM689.02,112.86c.69.16,1.57.36,2.12.69.64.52-.76.56-1.36.62-1,.06-3.25.14-3.12-1.07.41-.59,1.57-.38,2.25-.27l.11.02Z" fill="#fffc4a" stroke="#117f00" stroke-miterlimit="10" stroke-width="1.03"/><path d="M813.64,78.31c-2.03.71-4.38-1.3-6.29-1.07-.33.12-.41.36-.52.48-1.82,1.01-6.07.51-8.33.57-2.62-.07-6.19-.26-8.58-.27-1.52.12-4.28-.39-4.68,1.29-.06.37-.05.96-.02,1.41-.04,3.5,2.88,4.28,8.41,4.12,4.97-.07,9.92-.62,14.98-.67,1.19.04,2.65-.06,2.39.52-.14.19-.6.47-.66.75-.21.95,6.95-.42,8.73.31,1.08.3,3.03.85,4.14.69.95-.32.68-1.19.74-2.23.24-3.53-3.35-2.29-5.65-2.15-.45,0-1.29.1-.94-.4,2.37-2.02-1.31-3.92-3.5-3.38l-.2.04ZM793.38,80.59c-.51-.01-2.24-.02-2.4-.22.93-.56,5.47-.66,5.75-.24.61.47-2.74.45-3.22.46h-.14ZM800.95,83.27c-1.57.03-1.58-.89-.01-.9,1.57-.03,1.58.89.01.9ZM806.94,83.2c-3.99-.15-2.22-2.14.74-1.77,3.02.4,1.36,1.87-.63,1.77h-.1ZM808.16,80.49c-1.57.03-1.58-.89-.01-.9,1.57-.03,1.58.89.01.9ZM813.43,82.82c-.88.34-1.61.08-1.62-.58-.18-1.54,3.79-.29,1.62.58ZM820.29,83.04c1.57-.03,1.58.89.01.9-1.57.03-1.58-.89-.01-.9Z" fill="#fffc4a" stroke="#117f00" stroke-miterlimit="10" stroke-width="1.03"/><path d="M735.23,70.46c3.43.99,21.85.61,26.61-1.1,2.31-1.32-3.49-1.99-4.9-2.18-2.13-.56-30.14-1.82-21.82,3.22l.11.06ZM754.72,68.23c.65.09,1.39.2,2.02.32.67.15,1.27.22,1.68.48.04.56-.92.47-1.52.46-1.16-.08-4.08-.49-4.72-1.14.26-.36,1.8-.13,2.42-.14h.12ZM742.64,67.82c1.51.01,3.46.18,4.81.78,1.09,1.7-8.48.97-8.62.12-.03-.15.2-.3.8-.46.91-.23,1.91-.33,2.86-.43h.15Z" fill="#fffc4a" stroke="#117f00" stroke-miterlimit="10" stroke-width="1.03"/><path d="M758.42,62.65c.09-1.33-7.58-1.34-8.73-1.07-1.02.3,1.34.69,1.72.82.97.27.81.48-.37.66-2.95.39-6.08.45-9.14.63-4.78.25-5.06.31-.26.33,3.66,0,7.22.05,10.88-.05,1.56-.05,5.96-.17,5.88-1.26l.02-.06Z" fill="#fffc4a" stroke="#117f00" stroke-miterlimit="10" stroke-width="1.03"/><path d="M747.12,48.49c-32.48,1.12,11.3,6.77,12.3,1.8-.12-1.93-2.42-1.58-5.01-1.8-2.43-.06-4.61-.04-7.06,0h-.23ZM741.12,49.86c-5.5-1.33,14.53.27,14.45.45.3.09.4.22-.02.28-4.2.29-10.26-.03-14.28-.69l-.14-.03Z" fill="#fffc4a" stroke="#117f00" stroke-miterlimit="10" stroke-width="1.03"/><path d="M687.78,38.45c-.95.15-1.97.28-2.45-.5-1.35-.99-10.14-1.31-11.83.52-.74.76.15,1.76.86,2.33.19.18.5.38.52.65.07,3.39,21.48-4.13,13.12-3.04l-.23.04Z" fill="#2aff84"/><path d="M662.57,41.37c-.38-3.04-18.7-2.33-20.54-.15-.45,4.23,20.55,2.64,20.53.22v-.07ZM652.81,41.8c-1.19-.06-3.08.14-4.06-.2,2.19-.58,6-.45,7.99-.28.79.08,1.1.19.51.28-1.14.15-3,.17-4.29.2h-.14Z" fill="#fffc4a" stroke="#117f00" stroke-miterlimit="10" stroke-width="1.03"/><path d="M663.47,82.75c6.4-7.46-23.59-3.28-17.26.43.86.48,1.67.69,2.75.91,4.04.6,11.25,1.04,14.42-1.23l.09-.11ZM655.47,81.71c.88-.34,2.33-.36,3.22-.04,2.29.77-5.49.86-3.22.04ZM651.06,83.25c1.57-.03,1.58.89.01.9-1.57.03-1.58-.89-.01-.9Z" fill="#fffc4a" stroke="#117f00" stroke-miterlimit="10" stroke-width="1.03"/><path d="M664.35,101.32c18.17,1.03,28.8-.82,44.57-1.61,5.52-.35,13.25.29,18.48-.23,1.01-.14,1.65-.35,1.66-.71-.78-1.41.49-1.67,1.68-2.11.67-.23,2.06-.57,1.81-1.3-.75-1.46-10.16-2.67-17.24-1.69-2.49.36-4.55.94-6.95,1.16-3.69.57-6.39-2.03-10.46-.99-.41.17-.44.44-.22.69.16.29-1.26.48-3.97.66-4.77.29-9.6.32-14.33.4-7.07.11-19.14,1.03-23.94,2.84-5.12,2,4.18,2.76,8.77,2.89h.15ZM718.01,95.6c1.08-.23,2.5.02,3.37.7,1.37,1.45-1.85,1.75-3.95,1.34-3.18-.62-1.45-1.6.45-2.01l.13-.03ZM712.57,96.37c2.19.81-1.74,2.16-1.6.62,0-.66.71-.94,1.6-.62ZM707.35,97.03c1.57-.03,1.58.89.01.9-1.57.03-1.58-.89-.01-.9ZM693.25,97.5c2.19.81-1.74,2.16-1.6.62,0-.66.71-.94,1.6-.62ZM679.63,97.36c1.63-.02,3.2-.02,4.87.03,9.86.41.48,1.42-3.35,1.47-2.55.1-5.26.19-7.82.07-4.65-.23-4.1-1.07,1.61-1.41,1.56-.09,3.03-.13,4.52-.14h.17ZM663.9,98.11c.66-.11,1.74-.21,2.39-.15,1.39.09,1.55.81-.25,1.19-1.21.33-6.11.21-5.69-.16.57-.48,2.54-.69,3.43-.87l.11-.02Z" fill="#fffc4a" stroke="#117f00" stroke-miterlimit="10" stroke-width="1.03"/><path d="M689.62,180.04c.78.17,1.54.22,2.18-.12,1.15-.73.11-1.82-1.01-1.7-3.91.51-8.42-2.18-13.55-1.12-.11,0-.08.14.25.26.76.48-.89.65-1.31.6-.7-.03-.61-.51-1.13-.38-.86.24-2.02.91-2.13,1.79-.44,3.34,15.16,5.84,15.23,1.75-.04-.42-.47-.89-.32-1.09.23-.29,1.21-.09,1.64-.02l.15.03ZM676.66,181.61c-1.57.03-1.58-.89-.01-.9,1.57-.03,1.58.89.01.9ZM680.25,179.32c-.04-.58,2.44-.61,2.42-.03.04.58-2.44.61-2.42.03ZM682.72,182.43c-4.59-.06.29-1.38,1.6-.62.89.32.17.6-1.6.62Z" fill="#fffc4a" stroke="#117f00" stroke-miterlimit="10" stroke-width="1.03"/><path d="M721.12,174.39c-1.91.46-2.21-.9-4.05-1.29-2.81-.24-5.77.74-8.25,2-2.44,1.46-2.76,3.47-.13,3.07.94-.09,2.63-.61,2.99.48.18,1.36,4.87,1.02,7.84-.07.63-.29-1.08-.41-.17-.85.71-.42,1.66.11,2.39-.11,1.67-.69,1.69-3.49-.45-3.24l-.17.02ZM715.27,176.66c-1.57.03-1.58-.89-.01-.9,1.57-.03,1.58.89.01.9Z" fill="#fffc4a" stroke="#117f00" stroke-miterlimit="10" stroke-width="1.03"/><path d="M711.13,129.53c2.15-3.13-20.1-4.93-17.91.75-.02.58-.59.18-.91.01-.99-.75-7.37-1.31-7.83.13,2.45,3.94,26.77,1.3,26.62-.83l.03-.06ZM697.67,130.24c-1.57.03-1.58-.89-.01-.9,1.57-.03,1.58.89.01.9ZM704.86,129.59c-.66.11-1.74.21-2.39.15-1.39-.09-1.55-.81.25-1.19,1.21-.33,6.11-.21,5.69.16-.57.48-2.54.69-3.43.87l-.11.02Z" fill="#fffc4a" stroke="#117f00" stroke-miterlimit="10" stroke-width="1.03"/><path d="M774.75,260.49c1.51,1.07,3.39-.75,4.4-1.74,3.17-2.45,14.72-3.22,20.25-1.24.77.22,2.4.91,2.8-.04.15-.36.14-.75-.07-.97-2.14-1.25-5.94-.8-8.55-1.09-1.11-.15-2.85.03-3.37-.72-.24-1.14,10.64-.11,11.85-1.01.82-.9-3.58-.77-5.97-.79-5.28-.08-10.57.84-15.82.46-3.17-.37,0-1.84-2.31-2.84-.15-.05-.32-.09-.49-.09-1.54-.07-1.91,1.62-1.58,2.76.74,2.28-3.16,5.23-1.26,7.23l.11.09ZM781.67,254.8c1.57-.03,1.58.89.01.9-1.57.03-1.58-.89-.01-.9Z"/><path d="M775.33,245.34c1.43,3.02,2.2-1.4,2.33-3.26.3-3.26-.07-7.1-1.28-6.73-.92.71-.92,2.09-1.19,3.31-.28,1.88-.42,4.94.09,6.54l.06.14Z" fill="#fffc4a" stroke="#117f00" stroke-miterlimit="10" stroke-width="1.03"/><path d="M823.04,201.72c1.68.12,1.48-2.07,1.45-3.22.03-.99-.71-1.58-1.82-1.42-16.54,1.34-29.78,4.66-45.28,5.7-6.69.13,2.61-1.38,14.69-3.09,9.97-1.46,23.04-3.07,31.75-4.57.38-.1.68-.35.55-.7-.03-.1-.04-.08-.11-.3,0-.04-.02-.12-.03-.15-.06-.87.61-1.65.48-2.54-.3-2.08,1.69-7.13-2.06-6.32-77.68,7.53-147.01,10.39-210.8,13.59-2.31-.12-2.94-1.63-4.98-2.29-1.69-.53-4.72-.22-6.41-.58-2.05-.52,2.5-1.32,1.65-1.48-1.01-.13-2.14.03-3.3.22-.52.1-1.03.23-1.48.37-2.73.82-1.95,1.61-4.33,1.91-5.35.35-11.01-.17-16.2.35-5.25.54,36.92.96,24.85,2.93-6.81,0-14.83-.99-21.48-1.17-1.41,0-1.19.12-.41.49,4.4,2.42-19.06,3.66-25.43,3.89-2.12.2-1.04-3.85-1.46-5.42-.36-6.32-1.29-14.73-5.54-14.04-1.69.26-2.14,1.46-2.32,3-.6,5.03,2.69,14.9-6.38,13.16-3.4.23-14.6,2.21-15.85,2.73,3.83.23,12.19-1.37,16.37-1.38,4.45-.25,4.76.28,2.65,1.59-3.11,1.83-11.18,2.31-18.03,2.96-6.13.71-10.79-1.49-16.73-1.13-.91.05-1.2.23-1.31.46-.28.52-1.71.65-2.51.71-1.29.06-3.48.16-4.66-.28-.88-.34.81-1.23.27-1.26-1.36.14-3.15,1.02-4.48,1.53-.62.4-3.03.98-3.26,1.68.05.68,7.1-.38,8.75-.32.38,0,.44.09.2.22-.13.07-.34.16-.61.26-.57.25-1.51.48-1.87,1-.18.3.26.42.52.48,1.63.33,5.35-.18,6.69-.78.67-.28.63-.55.57-1.04.09-.88,6.79-1.48,10.54-.97,1.93.34,3.08.79,5.13.7,3.97.06,13.14-.91,11.23-.04-7.05,1.36-32.23,3.6-38.47,2.11-.81-.13-1.38.05-1.31.46.09.73.52.84-.21.97-10.08,1.59-30.13,2.77-39,2.52-1.04-.02-2.52-.23-3.45,0-.53.25,3.32,1.06,2.54,1.33-13.33-.25-54.26,5.69-75.88,5.25,8.73-1.42,50.28-3.96,23.42-7.08-2.39-.5.52-.63,1.41-.58,1.63-.08,8.37.55,6.94-.07-5.02-1.3-29-2.55-21.23-.53.81.28-.99.32-1.22.3-3.4-.23-8.28-.11-11.09.5-1.91-1.25.76-2.87,2.13-3.24,1.54-.55.82-1.01-.1-1.39-4.85-2.44-4.73-15.88,2-15.53,1.11-.06,1.53-.19.21-.45-3.46-.87-7.17-2.58-10.72-1.81-8.05,2,2.32,19.05-8.22,19.69-.8.19-4.09-.2-4.26.34.61.46,7.46,1.36,10.44,1.83,4.77.6-16.64.48-11.24.96,4.26.4,11.29.91,7.35,1-6.32.34-13.83-1.09-19.76.99-4.18.64-9.25.64-12.96,2.27-5.14,1.22-26.08-1.84-34.62,2.02.44.31,5.36-.24,5.42,1.15.17,1.54-4.45,3.14-1.26,4.01,3,.53,11.4.23,13-1.28,0-1.54,3.63-1.14,4.59-.72.32.18.3.37.12.57-2.18,1.74,11.61-.22,13.06-.19,4.03-.32,34.26-3.59,30.35-1.86-28.7,5-356.74,38.1-220.02,18.82,4.71-.72,11.61-1.57,16.85-2.39-1.8.1-13.63.88-16.06.99,3.68-.88,13.02-2.75,12.28-3.12-7.96.31-39.13,4.71-36.14,2.91,6.25-1.33,16.22-1.48,21.85-3.65.6-.44-.7-.43-1.14-.47-.17-.01-.35-.02-.54-.04-.24-.03-.23-.01-.71-.11-.27-.07-.47-.17-.61-.28-.34-.23-.19-.73-.5-.9-2.18-.83-13.43,1.6-20.43,1.24-1.45,0-2.96.06-4.11.09-3.28.09-4.46.07-3.17-.13,39.49-2.43,67.82-9.24,111.26-7.53.98.09.6.15-1.02.2-.9.03-2.4.07-3.61.1-2.71-.17-14.93.64-11.16,1.71,2.47.36,5.2-.17,7.71.3,2.48.45,3.24,1.82,1.46,2.97-.4.25-.86.55-1.17.78-.3.25.04.32.49.37,10.04-.53,27.11-2.4,37.34-3.09,7.17-.7,9.22-1.13,7.11-2.66-1.15-.75-4.5-.66-5.81-.93-.32-.58,16.95-2.91,22.12-2.79.69.06-.12.39-.46.49-9.22,2.99-15.72,2.01-.25,2.43.18,0,.85.02.94.06-.14.09-1.14.21-1.6.26-12.36,1.58,3.88,1.02,16.35-.1,1.38-.14,5.45-.78,5.37-2.12-.51-1.06-6.49-1.54-9.61-2.42-5.25-2.15-10.83-1.55-16.48-.9-11.92,1.2-26.4,1.82-37.72,3.01-.41.05-.72.09-.79.14-.12.12.63.16.79.19,8.95.78,11.04,1.11,2.52,1.24-1.87.03-3.37.16-5.04-.11-1.48-.25-.95-.81-2.33-1.19-.79-.23-2.18-.35-2.98-.39-1.08-.05-1.1-.08-.5-.19,25.82-2.02,109.07-9.93,115.43-11.66-75.19,5.15-165.57,15.89-236.28,19.91-3.02-1.56-2.28-7.6,1.28-8.27.25-.07.83-.14,1.02-.27.1-.07.05-.16-.12-.27-.13-.07-.09-.06-.46-.23-.32-.15-.67-.33-.94-.55-2.19-1.92-2.83-8.26-2.99-11.66.03-.29.15-.43.43-.49,2.8-.16,6.65-.19,9.58-.3,1.98-.07,4.39-.04,1.99-.24-4.43-.39-13.09-.84-9.61-1.1,3.78-.43,10.1.29,13.28-.86-6.02-1.76-16.12,1.62-16.39-5.85-.39-2,.66-5.25-1.46-6.4-1.32-.55-3.14-.54-4.85-.41-2.78.38-2.87,2.83-3.03,4.99.1,3.55-1.01,7.32-5.4,7.35-5.05.23-12.3.54-15.93,1.56-.19.18.8.29,3.12.28,3.59-.02,7.02-.24,10.56-.32,3.04-.08,3.57-.02,2.49.12-3.33.41-21.78,1.48-28.23,1.22-4.55-.09-18.03-.51-8.18.97.53.12.82.21.61.27-1.08.23-3.79.15-5.11.24-3.62.13-1,.44,3.62.71,5.35.28,12.51.65,17.55.42.87-.06,1.18-.17.65-.34-.42-.15-1.83-.37-2.52-.47-.98-.14-1.99-.25-2.26-.31-.15-.03-.13-.05.05-.06.45.17,34.31-2.72,24.74,1.63-1,.41-2.14.76-3.15.99-.62.15-1.13.27-1.11.36,0,.08.42.12.93.13,6.74-1.6,5.48,11.73,6.18,17.44.02.85-.52,1.13-1.4,1.25-20.59,2.45-53.87,2.07-68.24,6.59,8.68.68,46.39-4.25,62.64-4.87,2.05.04,5.54-.54,7.25.03-9.17,3.99-70.34,6.72-62.98,8.03,2.59.07,6.83.46,9.38-.02,3.68-1.1,9.75-1.48,14.82-1.55,7.69-.1,7.24.63,1.89,1.04-3.12.31-6.06.41-9.22.53-7.19.63-11.17,2.32-18.51,2.67-5.11.63.8.88,2.29,1.6-.1.97-5.46.3-6.46.65-.73.23-.15.71.38.77,2.47.52,9.8.2,13.5,0,.82-.03,1.66-.06,2.03-.04.84.12-2.46.53-3.03.65-1.26.2-2.73.46-3.7.78-.37.17.16.24,1.38.24,15.35-.29,44.7-3.79,59.05-3.54-7.74,3.41-20.26,4.43-29.76,5.48-11.97,1.52-34.34,3.41-39.83,5.25,11.39,1.73,45.79-5.74,67.33-6.78,1.41-.11,1.43.93,1.24,1.86-.71,4.01-.29,4.89-6.03,5.88-10.03,1.55-12.51,1.61-25.99,3.54-6.44.89-47.88,6.64-32.65,6.29,11.08-.29,55.2-11.9,64.86-5.7-.67,2.75-14.05,2.93-19.22,4.06-.3.07-.49.12-.52.16-.05.04.12.06.44.05.13,0,.3-.01.47-.02,5.66-.15,14.57-1.23,20-.85,1.4,15.07.61,43.33,1.21,58.76.12,1.2.02,1.53-1.53,1.93-9.8,3.38-23.44,7.83-33.34,11.96-3.59,1.49-4.51,2.1-2.76,1.73,10.08-2.3,22.24-8.08,32.74-10.33,6.91-1-1.6,6.58,4.57,9.35.59.33,1.55.74,2.17.6,4.85-2.26,30.68-11.08,41.02-14.76,18.43-6.5,32.69-11.75,16.23-7.44-1.34.36-2.64.69-3.82,1.02-.56.15-1.04.28-1.15.28-.06,0-.04-.02.05-.06,1.36-.6,3.09-1.25,5.18-2.02,20.1-7.37,72.39-23.24,77.42-21.87,1.46-.29,2.72-1.16,5.32-1.92,9.18-2.93,22.67-7.23,32.81-8.16,1.77-.5,2.85-1.73,4.77-1.54,2.56-.25,7.26-2.2,10.28-2.53,6.63.26-.57-.63,7.18-2.03,2.4-.53,4.95-.51,7.4-.69.92-.22.21-.94,1.36-1.24,2.49-.92,5.08-1.46,7.74-1.7,1.41-.17.79.45,1.78.3,22.38-6.48,54.09-15.89,78.27-16.37-77,16.53-155.57,36.31-235.89,64.21-2.48,2.58-6.23,4.09-9.89,5.92-4.47,2.39-10.33,4.25-13.62,7.22-1.56.95-3.55,1.5-4.83,2.61-.33.36.12.53.46.49.9-.12,1.53-.6,2.51-.98,19.3-8.15,84.2-39.18,121.84-41.09.38-.04.33-.19.04-.33-.97-.59-3.14-.56-3.71-.73,72.38-23.47,224.79-51.08,313.55-64.72-79.75,17.85-312.99,54.98-355.75,84.79,167.29-57.32,390.38-89.89,574.54-113.44-6.77,1.63-24.65,4.15-33.57,5.77-.54.09-1.17.2-1.85.31-9.01,1.54-15.29,2.74-11.63,2.67,15.45-1.91,81.57-11.6,91.23-12.01-195.56,38.61-400.23,49.04-581.48,129.79-.08.27.06.48.37.4,1.16-.31,3.68-1.35,5.12-1.96,103.28-48.56,247.36-68.07,364.79-91.39,7.37-.94,19.15-3,25.99-3.03.32.03.54.1.92.07.12-.02.29-.06.33-.18.07-.13-.02-.33-.06-.51-.02-.29.16-.39.49-.55,1.57-.74,6.4-1.26,9.46-.88.63.07,1.06.13,1.66.17.42-.01.63.01.67-.28-.37-.8.77-1.02,2.85-1.6,6.28-1.49,18.2-2.66,24.63-3.43.51-.05.68-.18.8-.4.13-.21.36-.46,1.14-.52,1.3-.1,2.73,0,4.05-.08,1.46-.05,2.54-.41,3.71-.9,4.25-1.33,18.17-3.63,24.37-3.41.13.01.27.02.39.03.39,0,.35-.02.48-.06.06-.03.09-.07.09-.13,0-.29-.52-.6-.57-.87.44-.61,1.45-.22,2.64-.25.77.05.73.04,1.08.06.5.02,1.19.04,1.61,0,.65-.07.85-.16,1.21-.47,1.08-1.2,10.91-2.15,15.4-1.96.48-.06.8-.09.76-.47-.23-.42.86-.78,2.63-1.21,6.27-1.51,21.6-3.21,24.14-3.76,5.69-2.3,14.14-2.64,19.53-3.01,8.92-3.07,22.17-4.73,30.11-4.16.7-.03.61-.35.15-.75-1.71-1.59,3.68-.22,4.55-.58.87-.12-.31-.7.29-.97.21-.08.37-.12.62-.14.23-.02.18-.03.77-.04,1.18,0,1.88.07,3.29.19.93.08,1.12.1,1.67.14.47.03.94.06,1.36.06.58,0,.52-.01.76-.03.68-.06.99-.26.97-.5,0-.2-.1-.41.11-.56.6-.37,2.24-.15,3.08-.12h.19ZM821.96,198.72c1.57-.03,1.58.89.01.9-1.57.03-1.58-.89-.01-.9ZM392.68,213.96c1.48-.16,3.55-.46,4.87.18-.3.33-1.26.23-1.99.31-.67.07-6.37.04-3.01-.47l.12-.02ZM391.48,215.79c.88-.34,2.33-.36,3.22-.04,2.29.77-5.49.86-3.22.04ZM383,213.17c1.48-.16,3.55-.46,4.87.18-.3.33-1.26.23-1.99.31-.67.07-6.37.04-3.01-.47l.12-.02ZM382.2,214.7c1.57-.03,1.58.89.01.9-1.57.03-1.58-.89-.01-.9ZM376.99,216.86c.88-.34,2.33-.36,3.22-.04,2.29.77-5.49.86-3.22.04ZM302.55,223.72c-1.57.03-1.58-.89-.01-.9,1.57-.03,1.58.89.01.9ZM307.37,222.77c-1.57.03-1.58-.89-.01-.9,1.57-.03,1.58.89.01.9ZM313.36,218.66c-.04-.58,2.44-.61,2.42-.03.04.58-2.44.61-2.42.03ZM315.81,220.87c-4.59-.06.3-1.38,1.6-.62.89.32.17.6-1.6.62ZM131.05,233.83c1.57-.03,1.58.89.01.9-1.57.03-1.58-.89-.01-.9ZM278.13,225.73c-.51-.01-2.24-.02-2.4-.22.6-.42,3.1-.47,4.11-.5,1.09-.09,3,.48.49.66-.52.05-1.5.07-2.07.07h-.14ZM281.19,223.38c2.29.77-5.49.86-3.22.04.88-.34,2.33-.36,3.22-.04ZM275.53,221.65c.88-.34,2.33-.36,3.22-.04,2.29.77-5.49.86-3.22.04ZM253.05,223.41c3.73-.44,7.88-.85,11.64-.83,3.79.07-.76.61-4.06.92-1.2.16-16.25,1.33-9.75.23.65-.1,1.36-.2,2.01-.29l.16-.02ZM240.17,228.35c2.29.77-5.49.86-3.22.04.88-.34,2.33-.36,3.22-.04ZM234.5,226.62c.88-.34,2.33-.36,3.22-.04,2.29.77-5.49.86-3.22.04ZM220.38,230.8c-1.21.02-6.5-.08-2.04-.46,2.69-.19,5.85-.29,6.95.13-.03.23-.91.18-1.78.26-.97.04-2.02.07-2.98.07h-.14ZM222.27,227.38c1.99.03,4.83-.14,6.6.25-.05,1.32-6.62.77-7.97.74-6.33-.53-1.16-.97,1.21-.99h.16ZM205.35,224.25c2.46-.19,5.68-.43,7.9.11.59.31-12.73.52-8.05-.09l.15-.02ZM82.37,238.3c.88-.34,2.33-.36,3.22-.04,2.29.77-5.49.86-3.22.04ZM84.02,241.57c-4.59-.06.3-1.38,1.6-.62.89.32.17.6-1.6.62ZM71.51,239.3c1.32-.19,3.32-.33,4.55.02.86.26-.09.39-1.4.46-.55.08-6.77.07-3.27-.46l.12-.02ZM68.96,242.04c2.04-.28,4.66-.33,6.62.04.33.1.14.16-.36.23-.35.15-9.4.33-6.39-.25l.13-.02ZM59.44,240.34c1.32-.19,3.32-.33,4.55.02.86.26-.09.39-1.4.46-.55.08-6.77.07-3.27-.46l.12-.02ZM53.86,243.71c.33-.26,13.4-1.54,8.53-.35-1.58.35-2.31.49-4.5.73-1.83.24-10.52.91-4.15-.36l.12-.02ZM35.39,245.49c1.55-.66,7.52-.71,10.55-.49.53.04.72.1.66.16.3.3-13.14,1.39-11.29.35l.08-.03ZM51.44,247.36c-2.77.5-6.88.52-9.41-2.95-.57-.88-2.19-.34-3.27-.46-1.14.03-2.02-.02-1.89.08.2.18,3.34,2.35,4.41,3.12.42.36.74.24,1.24.15,4.27-.78,9.43.33,13.7.12-.86-.04-3.93-.07-4.69-.06h-.1ZM84.25,244.15c-4.83,1.01-20.28,1.73-27.47,2.14-.33.02-.44.01-.27-.01.34-.05,1.08-.14,1.84-.23,2.24-.28,35.34-4.29,26.03-1.92l-.13.03ZM92.34,199.56c1.53,1.63-1.15,4.9-1.19,1.12.03-1.48.56-1.98,1.19-1.12ZM91.04,224.89c-.04-.58,2.44-.61,2.42-.03.04.58-2.44.61-2.42.03ZM91.18,235.2c-.18-1.54,3.79-.29,1.62.58-.88.34-1.61.08-1.62-.58ZM93.11,250.27c-.86,1.84-1.04-1.91-1.02-2.53.17-7.1,2.28.78,1.07,2.43l-.05.1ZM92.9,239.5c.71.64.63,1.41-.17,1.72-1.88.85-1.58-3.45.17-1.72ZM91.48,255.83c-.18-1.54,3.79-.29,1.62.58-.88.34-1.61.08-1.62-.58ZM93.22,264.18c2.19.81-1.74,2.16-1.6.62,0-.66.71-.94,1.6-.62ZM91.66,268.38c-.18-1.54,3.79-.29,1.62.58-.88.34-1.61.08-1.62-.58ZM93.85,297.39c-.93,4.33-1.01-8.05-.86-8.62.05-.52.05-1.99.38-2,1.08,2.97.9,7.33.5,10.47l-.03.15ZM92.22,274.21c.22-3.76,2.69.62,1.14,1.57-.65.62-1.16-.09-1.14-1.57ZM93.86,305.86c.71.64.63,1.41-.17,1.72-1.88.85-1.58-3.45.17-1.72ZM94.08,317.55c-1.11,2.81-1.28-7.02-.44-6.24,1.05,1.63,1.04,4.34.48,6.13l-.04.11ZM93.68,323.96c-1.57.03-1.58-.89-.01-.9,1.57-.03,1.58.89.01.9ZM340.72,216.39c.88-.34,2.33-.36,3.22-.04,2.29.77-5.49.86-3.22.04ZM327.91,221.63c-4.59-.06.29-1.38,1.6-.62.89.32.17.6-1.6.62ZM330.3,219.81c-4.59-.06.3-1.38,1.6-.62.89.32.17.6-1.6.62ZM336.3,219.71c-1.51-1.2,6.5.21,6.11.51-.71.85-4.86.17-6.02-.45l-.09-.06ZM343.58,218.75c-1.57.03-1.58-.89-.01-.9,1.57-.03,1.58.89.01.9ZM351.97,219.41c-.67,0-1.42-.01-2.08-.03-4.82-.29,4.56-.87,5.03-.49,2.66.42-2.12.52-2.81.52h-.14ZM356.86,217.7c-4.59-.06.29-1.38,1.6-.62.89.32.17.6-1.6.62ZM359.25,215.87c-4.59-.06.3-1.38,1.6-.62.89.32.17.6-1.6.62ZM98.49,239.43c-.37-.9,14.73-1.01,14.51-.55-2.19.64-5.06.59-7.56.82-1.93.02-5.97.47-6.95-.24v-.03ZM135.55,238.56c.88-.34,2.33-.36,3.22-.04,2.29.77-5.49.86-3.22.04ZM127.12,239.53c1.32-.19,3.32-.33,4.55.02.86.26-.09.39-1.4.46-.55.08-6.77.07-3.27-.46l.12-.02ZM122.23,240.72c-1.72.68-16.93,1.3-22.16,1.55-.59.03.04-.03.38-.07,1.86-.13,26.94-3.69,21.85-1.51l-.08.03ZM109.37,235.83c2.27-.35,23.95-1.58,12.92-.18-3.3.49-13.44.98-17.9.99-1,0-1.49-.04-1.18-.14,1.1-.25,4.48-.51,5.98-.65l.18-.02ZM99.63,234.21c1.57-.03,1.58.89.01.9-1.57.03-1.58-.89-.01-.9ZM106.01,332.19c-1.41.71-2.97,1.49-4.43,2.15-1.03.37-4.17,2.2-4.03.24.09-.47.47-.63,1.08-1.01,2.96-1.62,11.23-3.95,14.13-4.85.69-.22-5.29,2.68-6.65,3.41l-.11.05ZM115.51,329.09c-1.57.03-1.58-.89-.01-.9,1.57-.03,1.58.89.01.9ZM292.89,268.34c-41.85,8.57-110.68,25.56-143.84,35.4-14.38,4.68-44.12,13.34-44.43,17.9-.12.71.87,1.02.79,1.73-.61,1.83,3.14.59,5.39-.03,11.63-3.5,28.26-8.62,43.05-13.78,11.27-3.87,21.19-7.49,22.45-8.49,1.14-.79-3.98.35-6.13.89-4.52.92-42.19,16.45-40.35,10.64,1.58-1.75,8.84-3.55,13.03-3.14,1.83.16,2.89.17.46-.45-5-1.22,7.7-3.97,10.21-4.67,5.41-1.35,11.47-2.59,16.48-4.01,52.01-15.89,117.01-30.09,174.9-39.93,5.04-.72,5.91-.54,1.19.65-19.48,4.62-31.87,7.18-51.31,12.42-5.61,1.42-11.15,2.64-16.52,3.73-2.87.53-2.69.23-1.63-.5.19-.12.33-.27.49-.43.16-.23-.03-.26-.24-.2-.42.13-.42.17-.72.33-3.33,2.61-10,4.09-15.46,5.45-52.57,12.52-76.6,18.28-119.25,35.26-.79.32-1.71.61-1.99,1.29-.79,2.13-13.31,4.91-17.24,5.66-2.52,1.19-6.35,1.73-9.06,1.62-.79,0-1.18-.26-1.78-.57-.91-.32-4.96-.14-5.83,1.2-.1.91.17,1.41-1.42,1.57-.84.11-1.8.2-2.19.47-.41.24-.32.69-.42,1.06-.28.61-.92.46-1.82.13-4.36-1.61-.02-5.12.47-7.8.14-.8-.71-1.71-1.08-2.55-2.38-5.16,2.66-5.36,10.32-7.62,1.74-.49,3.11-.99,4.84-1.58,5.66-1.97,13.72-2.97,10.72-4.21-2.99-.17-17.47,4.73-23.33,6.63-.39.12-.95.31-1.1-.04-.05-.1-.06-.24-.07-.4-.03-2.84-.26-7.98-.51-13.91-.38-9.2-.76-20.31-.38-27.76.19-3.69.57-6.48,1.24-7.7.35-.61.67-.69,1.08-.72,1.13-.33,14.3-2.26,30.8-4.55,19.51-2.71,52.5-7.2,69.06-8.84,4.18-.36,4.01-.06-2.99,1.23-5.12.9-9.45,1.63-14.02,2.62-11.65,2.46-13.45,3.82-4.34,2.47,36.65-8.11,100.06-11.65,144.4-20.37,10.07-.92,30.46-1.7,37.62-1.44.61.07.79.49.78,1.02-.09,3.86,1.58,16.98-2.05,17.49-37.79,6.02-183.5,36.49-235.47,53.97,1.51-.07,8.9-1.67,19.47-4.22,8.08-1.95,16.29-4.01,25.61-6.45,52.37-14.49,171.83-39.48,190.78-41.08-11.7,6.79-41.21,7.77-68.53,14.6l-.16.03ZM119.76,318.9c1.92,1.3-12.17,5.04-10.41,2.68.87-1.83,10.61-5.38,13.76-4.37.58.03,0-.36-.16-.52-.52-.38-.68-.94.06-1.29,1.25-.64,3.74-.6,4.76.38,1.15,1.42-4.56,3.41-6.96,2.78-.32-.03-1.72-.33-1.13.27l.08.07ZM98.82,261.57c-.04-.58,2.44-.61,2.42-.03.04.58-2.44.61-2.42.03ZM348.35,233.87c-.51-.01-2.24-.02-2.4-.22.6-.42,3.1-.47,4.11-.5,1.09-.09,3,.48.49.66-.52.05-1.5.07-2.07.06h-.14ZM328.74,233.55c-65.36,6.81-127.54,14.09-211.57,25.68-45.69,1.86,27.52-7.49,90.62-14.29,39.41-4.34,94.86-10.09,129.05-13.24,34.06-3.14,3.4.72-7.93,1.83l-.18.02ZM307.57,238.02c-2,.41-5.88.74-8.17.84-1.63.06-2.3-.05-.36-.49,1.58-.35,2.31-.49,4.5-.73,1.83-.24,10.52-.91,4.15.36l-.12.02ZM289.49,240.02c-4.59-.06.29-1.38,1.6-.62.89.32.17.6-1.6.62ZM281.02,241.03c-2,.41-5.88.74-8.17.84-1.63.06-2.3-.05-.36-.49,1.58-.35,2.31-.49,4.5-.73,1.83-.24,10.52-.91,4.15.36l-.12.02ZM262.94,243.03c-4.59-.06.29-1.38,1.6-.62.89.32.17.6-1.6.62ZM253.21,243.9c-.67,0-1.42-.01-2.08-.03-4.82-.29,4.56-.87,5.03-.49,2.66.42-2.12.52-2.81.52h-.14ZM230.18,246.62c-5.59.74-10.05,1.31-14.37,1.82-20.88,2.43,18.1-3.86,27.71-4.21,3.14.08-11.91,2.2-13.13,2.36l-.21.03ZM355.46,232.36c.88-.34,2.33-.36,3.22-.04,2.29.77-5.49.86-3.22.04ZM363.55,258.85c-2.11.85-6.39,1.4-8.89,1.45-2.88-.34,1.98-1.16,2.91-1.3,1.55-.25,3.35-.53,4.9-.54.78-.01,1.17.16,1.09.36v.03ZM360.39,230.14c-.51-.01-2.24-.02-2.4-.22.93-.56,5.47-.66,5.75-.24.61.47-2.74.45-3.22.46h-.14ZM248.29,239.04c-40.06,4.03-71.85,6.65-110.2,11.83-4.15.53-8.77,1.25-12.79,1.74-2.9.17-5.87.47-8.7,1.01-5.18.59-14.49,4.32-17.02.02-.38-.57-.72-2-.19-2.49,47.32-10.61,189.8-18.43,250.15-27.1,6.49-.83,13.86-.87,14.32.19.3.23.41.65.39.78-5.01,3.1-90.53,12.18-115.74,14.01l-.22.02ZM370.58,209.33c-1.02,4.28-1.05-7.69-.77-8.25.21-1.7.62-.31.74.36.46,2.12.5,5.39.07,7.73l-.03.16ZM370.71,217.3c.53,2.14.58,5.16.13,7.08-.15.72-.51,1.63-.74.14-.27-.41-.54-11.09.59-7.33l.03.11ZM368.61,194.69c-.04-.58,2.44-.61,2.42-.03.04.58-2.44.61-2.42.03ZM370.31,228.3c1.57-.03,1.58.89.01.9-1.57.03-1.58-.89-.01-.9ZM369.13,230.55c-.04-.58,2.44-.61,2.42-.03.04.58-2.44.61-2.42.03ZM371.12,247.04c-1.01,4.41-1.06-8.87-.8-9.42.1-.79.22-1.31.46-.67.82,2.99.85,7.08.37,9.94l-.03.14ZM371.1,254.9c-.88.34-1.61.08-1.62-.58-.18-1.54,3.79-.29,1.62.58ZM370.66,252.51c-1.57.03-1.58-.89-.01-.9,1.57-.03,1.58.89.01.9ZM537.49,206.41c1.93-.63,4.46-.89,6.44-.47.48.33-1.46.57-2.23.71-.71.16-7.58.88-4.35-.2l.13-.04ZM542.94,213.24c.04.58-2.44.61-2.42.03-.04-.58,2.44-.61,2.42-.03ZM402.45,221.44c7.44.13,10.1-3.26,18.04-2.4.05,0,.73.08.86.13.18.05.22.11.11.17-1.54.59-4.23.05-5.74.63-.06.18.92.42,1.28.56.69.27-.16.55-2.17.9-6.22.91-13.66,1.75-19.59,1.67-5.49.04-9.96,0-13.2,1.82-.29.16-1.01.6-.27.56,15.16-.29,128.07-11.55,78.55-8.13-4.68.34-8.94.6-13.63,1.02-4.72.71-11.5,1.21-16.57,1.57-2.18.14-3.3.12-1.99-.11.35-.06.9-.13,1.42-.23.41-.1,1.38-.19,1.12-.53-.4-.33-1.97-.54-.45-.73,18.04-2.97,85.95-7.27,107.13-9.04,1.09-.08,2.58-.07,3.43-.01.78.05.91.16.46.3-6.14,1.28-21.15,2.33-30.1,3.01-7.53.49-29.76,1.82-33.8,3.38-.06.72,12.25-.3,15.5-.6,88.59-7.93-60.22,8.17-105,12.14-2.72.21-5.62.53-8.04.33-1.78-.2-1.86-.93-2.57-1.96-3.57-5.17,20.07-4.21,24.98-4.46h.23ZM533.19,212.77c-.67,0-1.42-.01-2.08-.03-4.82-.29,4.56-.87,5.03-.49,2.66.42-2.12.52-2.81.52h-.14ZM523.56,215.57c-.67,0-1.42-.01-2.08-.03-4.82-.29,4.56-.87,5.03-.49,2.66.42-2.12.52-2.81.52h-.14ZM483.53,219.71c-.51-.01-2.24-.02-2.4-.22.93-.56,5.47-.66,5.75-.24.61.47-2.74.45-3.22.46h-.14ZM473.88,220.72c-.51-.01-2.24-.02-2.4-.22.88-.54,5.38-.65,5.66-.29.98.52-2.77.51-3.13.51h-.14ZM453.57,222.83c-2.83.37-6.49.75-9.2.83-4.22.1.94-.83,2.36-1.01,2.69-.42,16.72-1.15,6.99.15l-.15.02ZM408.7,227.77c-.51-.01-2.24-.02-2.4-.22.6-.42,3.1-.47,4.11-.5,1.09-.09,3,.48.49.66-.52.05-1.5.07-2.07.06h-.14ZM396.63,228.81c-.51-.01-2.24-.02-2.4-.22.6-.42,3.1-.47,4.11-.5,1.09-.09,3,.48.49.66-.52.05-1.5.07-2.07.06h-.14ZM380.38,255.98c-1.57.03-1.58-.89-.01-.9,1.57-.03,1.58.89.01.9ZM376.72,252.52c1.04-1.21,17.95-3.63,16.52-2.67-.96.52-3.8,1.12-5.2,1.46-1.67.27-11.07,3.28-11.34,1.26l.02-.04ZM387.67,258.59c-1.57.03-1.58-.89-.01-.9,1.57-.03,1.58.89.01.9ZM397.31,256.68c-1.57.03-1.58-.89-.01-.9,1.57-.03,1.58.89.01.9ZM402.13,255.72c-1.57.03-1.58-.89-.01-.9,1.57-.03,1.58.89.01.9ZM406.96,254.77c-1.57.03-1.58-.89-.01-.9,1.57-.03,1.58.89.01.9ZM411.78,253.82c-1.57.03-1.58-.89-.01-.9,1.57-.03,1.58.89.01.9ZM417.81,252.85c-4.59-.06.3-1.38,1.6-.62.89.32.17.6-1.6.62ZM423.84,251.88c-1.57.03-1.58-.89-.01-.9,1.57-.03,1.58.89.01.9ZM432.91,250.38c-.93.2-4.4.69-1.69-.36,1.1-.47,5.42-1.53,4.82-.47-.65.42-2.1.66-3,.81l-.13.02ZM440.72,248.99c-1.57.03-1.58-.89-.01-.9,1.57-.03,1.58.89.01.9ZM445.54,248.03c-1.57.03-1.58-.89-.01-.9,1.57-.03,1.58.89.01.9ZM452.78,247.05c-1.57.03-1.58-.89-.01-.9,1.57-.03,1.58.89.01.9ZM457.6,246.1c-1.57.03-1.58-.89-.01-.9,1.57-.03,1.58.89.01.9ZM440.8,246.01c-3.31.48-14.98,2.55-21.65,3.72-7.39,1.27-32.06,5.66-32.17,4.82,32.07-8.56,170.31-27.6,53.99-8.57l-.16.03ZM405.41,247.53c3.36-.53,8.34-1.51,11.49-1.54.07.07-.11.11-.2.15-3.63,1.48-27.79,4.6-17.75,2.57,2.14-.43,4.09-.77,6.28-1.16l.17-.03ZM427.1,244.17c2.64-.45,6.17-1.05,8.66-1.29,1.79-.16,1.14.18-2.31.99-.37.09-.82.19-1.2.28-3.55,1-14.13,2.05-8.87.79,1.18-.28,2.3-.49,3.52-.73l.19-.03ZM439.41,242.28c-.04-.58,2.44-.61,2.42-.03.04.58-2.44.61-2.42.03ZM446.65,241.29c-.04-.58,2.44-.61,2.42-.03.04.58-2.44.61-2.42.03ZM452.27,240.18c.88-.34,2.33-.36,3.22-.04,2.29.77-5.49.86-3.22.04ZM458.71,239.36c-.04-.58,2.44-.61,2.42-.03.04.58-2.44.61-2.42.03ZM464.33,238.24c.88-.34,2.33-.36,3.22-.04,2.29.77-5.49.86-3.22.04ZM470.77,237.42c-.04-.58,2.44-.61,2.42-.03.04.58-2.44.61-2.42.03ZM475.59,236.46c-.04-.58,2.44-.61,2.42-.03.04.58-2.44.61-2.42.03ZM482.83,235.48c-.04-.58,2.44-.61,2.42-.03.04.58-2.44.61-2.42.03ZM463.63,245.13c-4.59-.06.29-1.38,1.6-.62.89.32.17.6-1.6.62ZM469.66,244.16c-1.57.03-1.58-.89-.01-.9,1.57-.03,1.58.89.01.9ZM474.48,243.2c-1.57.03-1.58-.89-.01-.9,1.57-.03,1.58.89.01.9ZM479.3,242.25c-1.57.03-1.58-.89-.01-.9,1.57-.03,1.58.89.01.9ZM486.54,241.27c-1.57.03-1.58-.89-.01-.9,1.57-.03,1.58.89.01.9ZM491.36,240.31c-1.57.03-1.58-.89-.01-.9,1.57-.03,1.58.89.01.9ZM488.8,234.92c-2.12-.66,6.94-1.98,7.33-1.8,2.15.69-6.99,1.95-7.26,1.82l-.07-.02ZM498.6,239.33c-1.57.03-1.58-.89-.01-.9,1.57-.03,1.58.89.01.9ZM503.42,238.38c-1.57.03-1.58-.89-.01-.9,1.57-.03,1.58.89.01.9ZM508.24,237.42c-1.57.03-1.58-.89-.01-.9,1.57-.03,1.58.89.01.9ZM510.48,234.3c-3.87.73-9.02,1.68-12.74,2.13-2.85.32-2.09-.11,3.19-1.31.76-.17,1.54-.34,2.19-.49,5.92-1.53,22.85-3.91,13.42-1.63-1.78.42-4.21.92-5.74,1.23l-.32.06ZM499.71,232.59c-.04-.58,2.44-.61,2.42-.03.04.58-2.44.61-2.42.03ZM504.53,231.64c-.04-.58,2.44-.61,2.42-.03.04.58-2.44.61-2.42.03ZM511.77,230.65c-.04-.58,2.44-.61,2.42-.03.04.58-2.44.61-2.42.03ZM519.01,229.67c-.04-.58,2.44-.61,2.42-.03.04.58-2.44.61-2.42.03ZM515.48,236.44c-1.57.03-1.58-.89-.01-.9,1.57-.03,1.58.89.01.9ZM520.3,235.49c-1.57.03-1.58-.89-.01-.9,1.57-.03,1.58.89.01.9ZM510.49,229.02c-46.03,7.46-72.04,11.43-114.21,17.82-9.8,1.55-17.27,2.71-18.65,2.9-.21.04-.48,0-.69-.17-2.3-1.45.22-15.75,3.21-17.68.62-.34,1.44-.42,2.02-.58,1.98-.58-4.64-.42-6.06-.47-.21,0-.38,0-.51-.02-.21-.01-.3-.04-.24-.08.06-.04.26-.09.55-.14,4.34-.83,16.41-2.37,13.47-1.09-.67.28-1.72.58-2.24.83-.24.14,0,.22.74.23,2.96-.02,6.58-.36,9.42-.51,2.19-.15,3.93-.3,6.05-.54,8.27-.94,9.43-2.2,14.38-3.38.49-.12,1.15-.13,1.68-.12.39.03.77.1,1.07.19.98.28.75.72,1.78.86,1.73.2,3.93-.18,5.79-.3.72-.07,2.72-.26,2.82-.42.59-.4-7.34-.87-4.87-1.28,1.85-.26,6.67-.32,9.04-.72.87-.14,1.81-.33,2.73-.31.5,0,.7.15.53.36-.83.78-1.36,1.09.54,1.12,3.97,0,15.78-2.02,19.65-2.26.72-.1,6.14-.1,5.74-1.09-.47-.48-2.86-.92-1.64-1.04,1.34-.09,3.19,0,4.49.1,3.45.49,15.01-.64,20.78-1.2,12.21-1.27,19.93-2.41,3.51-1.63,1.88-.79,33.74-3.95,21.56-1.67-1.16.21-2.16.39-2.69.52-2.6.68,5.29-.03,6.06-.08,1.36-.25,23.16-1.46,16.16-2.76-2.45-.63,1.16-.62,1.85-.62,2.65,0,10.69,2.33,10.07,2.92-.13.14-.87.16-1.68.12-.56.11-6.96-1.11-5.57.45.28.31.46.62-.19.71-2.38.19-5.57-.71-7.8,0-2.17,1.12-5.91.55-8.38.67-1.36.09-6.17.62-5.56,2.21.39.62,2.53.83,2.68,1.74.05.31-.12.53.03.66,1.97.71,5.26.41,7.37.46,2.09-.05,4.83-.16,7.06-.47,1.42-.22,1.68-.61,3.1-.7,10.87-1.32,13.42-.15-.82,2.62-6.89,1.35-14.17,2.44-23.87,3.81l-.25.04ZM540.62,219.55c.04.58-2.44.61-2.42.03-.04-.58,2.44-.61,2.42-.03ZM526.29,231.83c-4.59-.06.3-1.38,1.6-.62.89.32.17.6-1.6.62ZM532.36,233.55c-1.57.03-1.58-.89-.01-.9,1.57-.03,1.58.89.01.9ZM531.11,230.42c-.04-.58,2.44-.61,2.42-.03.04.58-2.44.61-2.42.03ZM539.6,232.57c-1.57.03-1.58-.89-.01-.9,1.57-.03,1.58.89.01.9ZM538.34,229.44c-.04-.58,2.44-.61,2.42-.03.04.58-2.44.61-2.42.03ZM543.01,227.08c-3.46.67-7.03,1.32-10.54,1.58-2.21.15-3.13-.03-3.03-.34.19-.59,4.11-1.68,10.02-1.94,1-.04,8.1-.29,3.87.63l-.32.07ZM544.38,228.92c-1.57.03-1.58-.89-.01-.9,1.57-.03,1.58.89.01.9ZM548.61,186.72c1.57-.03,1.58.89.01.9-1.57.03-1.58-.89-.01-.9ZM549.23,199.1c.71.64.63,1.41-.17,1.72-1.88.85-1.58-3.45.17-1.72ZM548.07,194.8c-.03-1.73.46-2.44,1.08-1.58h0c1.48,1.38-.86,6.02-1.08,1.58ZM547.45,190.32c-.18-1.54,3.79-.29,1.62.58-.88.34-1.61.08-1.62-.58ZM547.64,203.32c-.04-.58,2.44-.61,2.42-.03.04.58-2.44.61-2.42.03ZM549.48,212.49c.51.95.64,2.49.09,3.46-.18.29-.43.72-.73.41-.59-.37-.71-5.97.6-3.94l.04.07ZM548.16,206.9c.03-1.48.56-1.98,1.19-1.12h0c1.53,1.63-1.16,4.9-1.19,1.12ZM549.1,220.79c-1.57.03-1.58-.89-.01-.9,1.57-.03,1.58.89.01.9ZM778.46,200.13c-1.57.03-1.58-.89-.01-.9,1.57-.03,1.58.89.01.9ZM785.7,199.12c-1.97-.03-5.25-.5-7.25-1.11-.56-.19-.58-.4-.06-.53.39-.18,9.46.91,7.38,1.63l-.06.02ZM788.09,197.32c-1.57.03-1.58-.89-.01-.9,1.57-.03,1.58.89.01.9ZM792.94,198.16c-1.57.03-1.58-.89-.01-.9,1.57-.03,1.58.89.01.9ZM795.33,196.34c-1.57.03-1.58-.89-.01-.9,1.57-.03,1.58.89.01.9ZM800.18,197.18c-1.57.03-1.58-.89-.01-.9,1.57-.03,1.58.89.01.9ZM802.57,195.36c-1.57.03-1.58-.89-.01-.9,1.57-.03,1.58.89.01.9ZM807.42,196.2c-1.57.03-1.58-.89-.01-.9,1.57-.03,1.58.89.01.9ZM810.96,190.33c-.04-.58,2.44-.61,2.42-.03.04.58-2.44.61-2.42.03ZM813.37,194.32c-3.95-1.05.23-.92,1.91-.6,1.16.14,1.91.51,2.66,1.19.34.68-3.91-.49-4.44-.56l-.14-.03ZM820.67,192.9c.04.58-2.44.61-2.42.03-.04-.58,2.44-.61,2.42-.03ZM671.63,196.32c.88-.34,2.33-.36,3.22-.04,2.29.77-5.49.86-3.22.04ZM658.37,197.35c1.35-.19,3.18-.32,4.46,0,.12.03.47.14.41.23-.08.13-.81.21-1.72.26-.55.08-6.77.07-3.27-.46l.12-.02ZM660.3,201.79c1.44-.27,2.83-.48,4.42-.65,8.43-.89,15.11.33,7.75,1.04-1.05.1-2,.17-2.98.21-1.11.04-2.32.03-3.43.09-1.16.04-2.58.19-.35.56,1.77.34,4.45.53,6.08.92-.01.02-.17.04-.42.05-7.6.18-22.42-.25-11.22-2.2l.15-.03ZM649.15,202.11c.04.58-2.44.61-2.42.03-.04-.58,2.44-.61,2.42-.03ZM640.14,198.46c2.47-.19,5.64-.43,7.9.11.59.31-12.73.52-8.05-.09l.15-.02ZM624.55,199.54c1.35-.19,3.18-.32,4.46,0,.12.03.47.14.41.23-.08.13-.81.21-1.72.26-.55.08-6.77.07-3.27-.46l.12-.02ZM611.26,200.62c.88-.34,2.33-.36,3.22-.04,2.29.77-5.49.86-3.22.04ZM597.97,197.7c-4.59-1.07,6.81-.84,7.52-.79.88.03,1.63.06,2.09.1.48.05.59.06.45.14-1.44,1.25-7.72,1-9.88.58l-.17-.04ZM594.35,201.72c.88-.34,2.33-.36,3.22-.04,2.29.77-5.49.86-3.22.04ZM587.49,200.61c1.57-.03,1.58.89.01.9-1.57.03-1.58-.89-.01-.9ZM583.5,202.72c1.32-.19,3.32-.33,4.55.02.86.26-.09.39-1.4.46-.55.08-6.77.07-3.27-.46l.12-.02ZM569.01,203.79c1.35-.19,3.18-.32,4.46,0,.12.03.47.14.41.23-.08.13-.81.21-1.72.26-.55.08-6.77.07-3.27-.46l.12-.02ZM576.69,206.18c-.86.68-6.11,1.08-8.21,1.29-3.05.26-6.49.47-9.52.48-1.91,0-3.13-.13-2.81-.43,3.92-1.46,20.44-2.32,20.55-1.37v.03ZM554.52,204.86c1.35-.19,3.18-.32,4.46,0,1.07.33-.26.43-1.32.49-.55.08-6.77.07-3.27-.46l.12-.02ZM552.57,210.44c-.04-.58,2.44-.61,2.42-.03.04.58-2.44.61-2.42.03ZM557.6,223.83c-.04-.58,2.44-.61,2.42-.03.04.58-2.44.61-2.42.03ZM566.81,224.13c.5-.11,7.55-1.59,4.29-1.39-5.21.39-8.88.09-.22-.5,3.2-.23,6.02-.39,9.2-.47,3.19-.08,5.65-.02,5.31.36-4.89,1.81-9.99,1.27-16.44,2.95-8.69,1.95-19.77,3.09-2.33-.9l.18-.04ZM579.35,220.42c.81-.41,10.5-1.77,4.82-.05-.93.31-3.49.73-5.2.87-2.88.24-.89-.47.28-.8l.1-.03ZM584.22,225.31c.04.58-2.44.61-2.42.03-.04-.58,2.44-.61,2.42-.03ZM576.98,226.29c.04.58-2.44.61-2.42.03-.04-.58,2.44-.61,2.42-.03ZM564.92,228.23c.04.58-2.44.61-2.42.03-.04-.58,2.44-.61,2.42-.03ZM645.34,218.54c-20.49,2.72-66.74,11.18-86.95,12.9-.75.06-.54,0-.11-.09,3.04-1.14,106.59-17.4,87.19-12.83l-.13.02ZM586.62,224.38c-.04-.58,2.44-.61,2.42-.03.04.58-2.44.61-2.42.03ZM598.65,220.2c-4.59-.06.3-1.38,1.6-.62.89.32.17.6-1.6.62ZM598.69,222.89c-4.59-.06.29-1.38,1.6-.62.89.32.17.6-1.6.62ZM597.35,218.44c-2,.34-4.37.7-6.36.84-3.29.19-.27-.63,1.06-.98,1.65-.49,12.51-1.29,5.46.11l-.15.03ZM593.86,223.4c.04.58-2.44.61-2.42.03-.04-.58,2.44-.61,2.42-.03ZM589.79,220.61c.88-.34,2.33-.36,3.22-.04,2.29.77-5.49.86-3.22.04ZM605.86,217.43c-4.59-.06.3-1.38,1.6-.62.89.32.17.6-1.6.62ZM605.89,219.22c-4.59-.06.3-1.38,1.6-.62.89.32.17.6-1.6.62ZM604.7,221.03c1.57-.03,1.58.89.01.9-1.57.03-1.58-.89-.01-.9ZM628.75,213.85c-1.2.21-14.2,2.19-10.62,2.79.13.04,1.92.26,1.43.46-10.26.67-7.51-1.59,4.32-3.45,4.49-.68,9.29-1.43,13.8-1.55-1.13.61-6.73,1.34-8.73,1.72l-.2.03ZM638.04,213.76c.88-.34,2.33-.36,3.22-.04,2.29.77-5.49.86-3.22.04ZM637.28,216.61c.04.58-2.44.61-2.42.03-.04-.58,2.44-.61,2.42-.03ZM632.42,215.32c-4.59-.06.29-1.38,1.6-.62.89.32.17.6-1.6.62ZM630.04,217.59c.04.58-2.44.61-2.42.03-.04-.58,2.44-.61,2.42-.03ZM625.18,215.85c-.04-.58,2.44-.61,2.42-.03.04.58-2.44.61-2.42.03ZM625.22,218.54c.04.58-2.44.61-2.42.03-.04-.58,2.44-.61,2.42-.03ZM617.98,219.53c.04.58-2.44.61-2.42.03-.04-.58,2.44-.61,2.42-.03ZM613.16,220.48c.04.58-2.44.61-2.42.03-.04-.58,2.44-.61,2.42-.03ZM611.92,218.25c-1.57.03-1.58-.89-.01-.9,1.57-.03,1.58.89.01.9ZM646.12,215.45c2.29.77-5.49.86-3.22.04.88-.34,2.33-.36,3.22-.04ZM645.28,212.77c.88-.34,2.33-.36,3.22-.04,2.29.77-5.49.86-3.22.04ZM650.55,215.1c-1.57.03-1.58-.89-.01-.9,1.57-.03,1.58.89.01.9ZM648,211.53c-7.59-1.33,5.18-.59,5.91-.13.66.22,1.75.35,2.13.71-.26.32-2.4.06-3.28,0-1.5-.14-3.13-.34-4.61-.56l-.15-.02ZM654.91,209.97c.88-.34,2.33-.36,3.22-.04,2.29.77-5.49.86-3.22.04ZM657.78,213.22c1.57-.03,1.58.89.01.9-1.57.03-1.58-.89-.01-.9ZM668.04,215.12c-.66.03-2.1.18-3.7.38-7.18.96-10.51,1.33-3.83-.23,2.81-.69,5.04-1.32,7.82-1.73,8.47-1.11,5.38,1.02-.17,1.57h-.12ZM661.37,210.94c-.04-.58,2.44-.61,2.42-.03.04.58-2.44.61-2.42.03ZM663.81,212.7c-.04-.58,2.44-.61,2.42-.03.04.58-2.44.61-2.42.03ZM668.61,209.96c-.04-.58,2.44-.61,2.42-.03.04.58-2.44.61-2.42.03ZM671.05,211.72c-.04-.58,2.44-.61,2.42-.03.04.58-2.44.61-2.42.03ZM674.92,206.2c-2.53,3.02-10.5,3.42-12.42,2.94-.73-.18-.48-.49,1.37-.82,2.51-.44,5.07-.6,7.59-.7.73-.05,1.36-.14,1.21-.29-.25-.36-2.24-.44-3.02-.35-29.46,1.82-41.71,5.63-76.59,10.41-5.72.72-11.59,1.54-17.41,2.45-4.5.49-29.97,5.55-15.07-1.82.39-.24,1.44-.8.95-1.24-.76-.42-2.4,1.11-3.97,1.2-.66.04-2,.16-1.98-.49.05-.25.17-.53.21-.81.23-2.02-3.09-4.09-.67-5,.43-.59,11.36-.7,6.63-1.91-7.86-1.96,15.52.8,15.91.29.5-.07.12-.28-1.11-.6-1.22-.32-2.76-.71-3.69-1.03-2.39-.83,8.01.29,8.44.27,1.67.12,14.22,1.36,9.53,2.26-2.14.21-4.74.57-6.9,1.15-14.57,3.89,26.27,3.11,24.47.31.07-1.03-4.37-2.09-5.74-2.39-1.82-.47-3.07-.56-5.12-.62-2.82-.21-5.82-.57-8.68-.98-.85-.15-6.42-.89-5.06-1.3,4.46.03,25.8-2.05,15.7-1.86-56.63,2.73,27.13-4.03,44.47-4.95,1.64-.07,3.54-.19,4.81-.15,1.82.08-9.6,1.16-11.9,1.39-6.5.7-22.75,2.03-26.83,2.99.05.1.69.26.76.31.46.16.73.48.81.7.1.23.23.35.64.36,13.03-.35,37.51-2.72,48.14-1,1.19.2,2.76.15,3.96.05.48-.05.63-.12.52-.2-.54-.43-7.73-1.26-11.82-1.79-1.2-.16-2.52-.34-2.13-.34,7.67.57,27.29.31,24.09,3.5l-.09.09ZM592.9,212.5c2.29.77-5.49.86-3.22.04.88-.34,2.33-.36,3.22-.04ZM639.5,203.13c.04.58-2.44.61-2.42.03-.04-.58,2.44-.61,2.42-.03ZM622.6,204.67c-4.59-.06.29-1.38,1.6-.62.89.32.17.6-1.6.62ZM674.55,203.16c-1.57.03-1.58-.89-.01-.9,1.57-.03,1.58.89.01.9ZM675.87,210.77c-.04-.58,2.44-.61,2.42-.03.04.58-2.44.61-2.42.03ZM678.32,212.98c-4.59-.06.3-1.38,1.6-.62.89.32.17.6-1.6.62ZM679.92,205.62c-.87,1.84-1.04-1.91-1.02-2.53.17-7.1,2.28.78,1.07,2.43l-.05.1ZM679.3,196.82c-1.57.03-1.58-.89-.01-.9,1.57-.03,1.58.89.01.9ZM686.21,212.39c-.67.09-2.44.41-2.81.28-.15-.08.42-.34,1.49-.77.99-.55,4.06-1.03,4.44-.52.08.12-.11.28-.67.47-.72.24-1.54.39-2.32.52l-.13.02ZM683.91,209.62c.88-.34,2.33-.36,3.22-.04,2.29.77-5.49.86-3.22.04ZM690.33,207.46c-4.59-.06.3-1.38,1.6-.62.89.32.17.6-1.6.62ZM693.57,208.61c.88-.34,2.33-.36,3.22-.04,2.29.77-5.49.86-3.22.04ZM696.15,210.9c-.61-.03-2.26.03-2.52-.22,1.4-.61,3.89-.62,5.31-.37,1.99.49-2.17.61-2.64.59h-.14ZM702.42,207.76c-.04-.58,2.44-.61,2.42-.03.04.58-2.44.61-2.42.03ZM704.87,209.97c-4.59-.06.29-1.38,1.6-.62.89.32.17.6-1.6.62ZM709.57,200.5c-.04-.58,2.44-.61,2.42-.03.04.58-2.44.61-2.42.03ZM710.86,206.31c1.57-.03,1.58.89.01.9-1.57.03-1.58-.89-.01-.9ZM710.9,209c-1.57.03-1.58-.89-.01-.9,1.57-.03,1.58.89.01.9ZM716.85,202.21c-.04-.58,2.44-.61,2.42-.03.04.58-2.44.61-2.42.03ZM718.1,205.33c1.57-.03,1.58.89.01.9-1.57.03-1.58-.89-.01-.9ZM718.14,208.02c-1.57.03-1.58-.89-.01-.9,1.57-.03,1.58.89.01.9ZM722.91,203.48c-1.57.03-1.58-.89-.01-.9,1.57-.03,1.58.89.01.9ZM724.14,204.81c-.04-.58,2.44-.61,2.42-.03.04.58-2.44.61-2.42.03ZM726.59,207.02c-4.59-.06.29-1.38,1.6-.62.89.32.17.6-1.6.62ZM726.44,201.63c-1.26-.3-2.86-.91-.3-.82,1.58.05,3.93.32,4.87,1.41.11.14.04.21-.24.21-1.14-.05-2.95-.5-4.19-.77l-.14-.03ZM732.18,203.67c.88-.34,2.33-.36,3.22-.04,2.29.77-5.49.86-3.22.04ZM733.83,206.04c-4.59-.06.29-1.38,1.6-.62.89.32.17.6-1.6.62ZM741.03,202.82c-.04-.58,2.44-.61,2.42-.03.04.58-2.44.61-2.42.03ZM743.48,205.03c-4.59-.06.29-1.38,1.6-.62.89.32.17.6-1.6.62ZM746.98,200.25c-3.73-.58-7.69,1.26-11.77.47-.38-.06-1.24-.18-1.64-.26-.57-.1-1.47-.33-.43-.54.17-.4,18.04-.71,14,.33h-.15ZM749.51,204.06c-1.57.03-1.58-.89-.01-.9,1.57-.03,1.58.89.01.9ZM748.27,201.83c-.04-.58,2.44-.61,2.42-.03.04.58-2.44.61-2.42.03ZM755.54,203.09c-4.59-.06.29-1.38,1.6-.62.89.32.17.6-1.6.62ZM756.72,201.28c-1.57.03-1.58-.89-.01-.9,1.57-.03,1.58.89.01.9ZM765.2,202.08c-4.59-.06.29-1.38,1.6-.62.89.32.17.6-1.6.62ZM766.38,200.27c-1.57.03-1.58-.89-.01-.9,1.57-.03,1.58.89.01.9ZM770.79,198.73c.88-.34,2.33-.36,3.22-.04,2.29.77-5.49.86-3.22.04ZM772.43,201.1c-4.59-.06.29-1.38,1.6-.62.89.32.17.6-1.6.62ZM772.32,195.64c-.74-.65-3.12-.43-3.44.61-.05.23.03.45,0,.64-.11.78-8.87-1.39-8.14-.65,1.14.78,2.98,1.23,4.08,2.01.76.58-3.08-.05-3.46.03-15.59-.78-38.39,3.83-53.92.85-2.81-.26-6.05-.26-8.63.23-4.49.9-3.59,2.25.62,2.59,2.82.49,6.12-.44,8.77.51,1.29.42.66,2.63-.53,2.95-.54.18-15.81-2.16-10.83-.78,10.19,2.75-.06,1.27-5.19,1.31-2.41-.14-4.76.02-6.96-.41-1.41-.4,4.56-1.02,4.67-1.34.05-.09-.53-.15-1.29-.18-4.06.14-12.07-.98-3.68-4.51,1.42-.73,2.73.12,4.18-.16,1.01-.1,1.14-.48-.12-.66-1.12-.13-1.18-.08-.46-.19,18.93-3.09,76.26-5.93,120.27-10.33,3.28-.29,7.18-.57,10.41-.63.84,0,1.4.01,1.64.06.5.1-.29.3-2.58.59-3.7.46-7.38.72-10.98,1.43-2.34.46-5.73,1.31-2.33,2,.5.09,1.61.26,1.74.42.18.18-.37.4-1.42.64-1.26.29-3.29.61-5.63.93-5.34.72-10.33,1.24-15.62,1.81-3.76.41-6.22.65-6.86.79-1.23.1-3.3.32-4.19-.5l-.08-.07ZM704.74,200.56c.04.58-2.44.61-2.42.03-.04-.58,2.44-.61,2.42-.03ZM579.64,242.85c-4.59-.06.3-1.38,1.6-.62.89.32.17.6-1.6.62ZM585.67,241.88c-1.57.03-1.58-.89-.01-.9,1.57-.03,1.58.89.01.9Z" fill="#fffc4a" stroke="#117f00" stroke-miterlimit="10" stroke-width="1.03"/><path d="M821.46,1.99c4.11-.14,8.64-.09,12.71-.45.04-.15-.59-.49-.95-.75-.6-.41-1.2-.87-2.01-.78-5.58.25-10.33.28-14.49.55,1.22.44,3.31,1.02,4.57,1.41l.17.02Z" fill="#2aff84"/><path d="M806.39,57.1c.92-1.98-1.34-2.14-2.03-3.12.61-.5,2.97-.03,3.9-.43,1.32-.51,2.21-1.58,3.59-2.05.9-.35,1.08-.65.51-1.1-4.64-4.1-2.6-11.24-4.52.7-.18.93-.19,2.22-.47,1.62-.85-2.13-2.06-5.32-2.93-7.53-.03-.11-.21-.5-.32-.45-.43.89-.27,2.06-.59,3.16-3.64,16.97-10.03-15.74-8.15-20.84.15-.79.35-1.45.63-1.94.28-.46.55-.73.38-.92-14.81-11.64-141.9-10.25-184.62-3-.29.18-.37.55-.36.91.03,1.77-.1,4.95.32,7.25.31,1.79.99,3,2.26,2.68,3.24-.98,1.33-7.67,4.52-8.38.24-.06.49-.1.76-.12.23-.04,1.71-.02,1.53-.26-.05-.05-.2-.12-.39-.18-.25-.07-.44-.18-.67-.29,22.19-9.01,133.93-3.62,131.16-3.58,8.64.87,20.5,1.26,29.69,2.05,8.04.66,13.74,1.5,11.51,2.7-5.13.98-1.95,18.14-.62,23.73.72,2.88,1.57,5.47,2.52,7.32.17.3.41.5.77.58.9.23,2.39-.28,2.95.41-.18.59-1.87.3-2.32.49-.22.14-.14.16-.13.27,2.25,2.56,7.29,1.2,10.08,1.43.63.02.93-.41,1-.96l.03-.13Z" fill="#fffc4a" stroke="#117f00" stroke-miterlimit="10" stroke-width="1.03"/><path d="M836.91,137.06c.05-.14.53-.33.32-.4-.15-.07-.53-.12-.78-.2-1.63-.4-3.23-1.19-4.54-2.13-.4.09-.16.75-.26,1.13,0,1.35-.25,2.7-.07,4.11.13.13.49-.13.77-.22,1.9-.8,4.03-1.4,6.09-1.82.34-.06-.39.08-.83-.02-.4-.06-.68-.23-.71-.36v-.09Z" fill="#fffc4a" stroke="#117f00" stroke-miterlimit="10" stroke-width="1.03"/><path d="M800.3,229.45c1.98,2.37.64,7.6,2.65,10.13.29.29.71.4,1.02.14,1.98-1.61.28-10.13-2.41-11.52-1.67-.7-2.48-.44-1.34,1.16l.08.1Z" fill="#fffc4a" stroke="#117f00" stroke-miterlimit="10" stroke-width="1.03"/><path d="M477.17,224.34c-.65.02-1.43.07-2.11.21-1.58.31-.87.88-2.25,1.04-2.65.31-6.3-.66-8.72.08-.17.17.21.47-.08.66-4.5,1.74-16.91-1.53-18.85,3.95-1.3,2.39,1.83,2.82,10.5,2.32,6.42-.55,13.16-1.02,19.5-2.38,6.22-1.22,13.64-5.81,2.21-5.88h-.2ZM453.71,228.2c-4.59-.06.29-1.38,1.6-.62.89.32.17.6-1.6.62ZM457.39,231.75c-1.57.03-1.58-.89-.01-.9,1.57-.03,1.58.89.01.9ZM464.6,228.97c-1.57.03-1.58-.89-.01-.9,1.57-.03,1.58.89.01.9ZM467.05,230.74c-1.57.03-1.58-.89-.01-.9,1.57-.03,1.58.89.01.9ZM474.28,229.75c-1.57.03-1.58-.89-.01-.9,1.57-.03,1.58.89.01.9ZM474.26,227.96c-1.57.03-1.58-.89-.01-.9,1.57-.03,1.58.89.01.9Z" fill="#fffc4a" stroke="#117f00" stroke-miterlimit="10" stroke-width="1.03"/><path d="M313.19,246.23c-.82-.08-2.08-.2-2.41-.99-.23-.75-1.46-.83-2.35-.74-1.03.1-2.13.32-3.11.5-3.67.67-13.54.22-16.26,1.1-.41.13-.37.3-.66.43-.62.45-9.12-.67-7.65.54.87.74-1.48.51-1.93.55-1.73-.02-3.39-.22-5.09-.08-.27.04-.43.09-.45.19,0,.15.17.3.24.45.33.66-.59.87-1.28,1.1-.96.27-2.19.44-2.8.38-.28-.02-.41-.1-.4-.24.05-.29.36-.8-.19-.94-.42-.09-.44-.06-.68-.06-3.48.33-8.67,1.44-11.43,2.53-.23.13-.04.18.28.24,1.32.44-3.54,1.29-4.02,1.58-3.36,1.11-1.41,1.86,1.04,2,1.71.21,4.79-.07,6.21.22-.63.39-2.32.54-3.13.75-2.41.45-4.06.73-2.78.7,5.37-.29,11.89-.89,17.74-1.33,2.04-.16,3.67-.29,5.63-.56,2.2-.31,3.62-.63,3.46-.91-.02-.1-.05-.18.09-.25.58-.17,1.55-.09,2.25-.1,1.93-.04,3.77.36,5.53-.11.09-.09-.02-.22-.15-.35-.27-.25-.34-.47.3-.55,1.11-.41,7.25.93,6.92-.44-.08-.26-.01-.5.7-.58,1.64-.18,4.3.34,5.77.22.53-.04.85-.17.8-.38-.1-.41-1.35-1.03-.65-1.19,1.02-.19,2.47.15,3.6.24,3.93.82,15.02-2.97,7.05-3.89l-.2-.02ZM257.05,253.86c-1.57.03-1.58-.89-.01-.9,1.57-.03,1.58.89.01.9ZM264.27,251.08c-1.57.03-1.58-.89-.01-.9,1.57-.03,1.58.89.01.9ZM266.71,252.85c-1.57.03-1.58-.89-.01-.9,1.57-.03,1.58.89.01.9ZM270.36,254.6c-4.59-.06.29-1.38,1.6-.62.89.32.17.6-1.6.62ZM287.78,250.22c-4.67.42-10.82,1.2-15.59,1.51-5.65.34-.64-.48,6.03-1.34,2.57-.37,22.62-2.74,13.8-.92-1.38.27-2.74.53-4.07.74l-.18.02ZM299.29,248.87c-4.59-.06.29-1.38,1.6-.62.89.32.17.6-1.6.62ZM305.32,247.91c-1.57.03-1.58-.89-.01-.9,1.57-.03,1.58.89.01.9ZM312.58,248.72c-1.57.03-1.58-.89-.01-.9,1.57-.03,1.58.89.01.9Z" fill="#19df00"/><path d="M384.45,208.23c3.71-.04,7.79-.52,11.49-.92,3.99-.48,3.24-.68.44-.68-.19-.19-19.85,1.5-12.07,1.6h.15Z" fill="#fffc4a" stroke="#117f00" stroke-miterlimit="10" stroke-width="1.03"/><path d="M424.43,205.05c1.22-.23.78-.37-1.27-.36-3.64.02-8.75.29-12.62.59-2.29.25-6.02.35-7.86,1.09.53,1.29,15.61.02,21.62-1.29l.13-.03Z" fill="#fffc4a" stroke="#117f00" stroke-miterlimit="10" stroke-width="1.03"/><path d="M440.19,204.47c5.33-.37,11.09-.65,16-1.61,3.21-.75-7.47-.02-10.26.21-2.46.15-19.53,1.67-11.48,1.59,1.88-.03,3.64-.1,5.52-.18h.22Z" fill="#fffc4a" stroke="#117f00" stroke-miterlimit="10" stroke-width="1.03"/><path d="M817.93,171.41c-.53-.11-4.46-.51-3.39-1.42,2.47-1.58-2.22-.3-3.3-.03-.94.2-11.6,3.39-7.83,3.91,1.05.12,2.29.49,2.53,1.51.68,1.4,7.7,1.35,11.92-.14.34-.08,2.54-.98,2.11-.45-.22.2-.7.55-.95.78-2.08,2.17,10.17-2.1-.88-4.12l-.21-.04ZM811.93,173.72c-1.57.03-1.58-.89-.01-.9,1.57-.03,1.58.89.01.9Z" fill="#fffc4a" stroke="#117f00" stroke-miterlimit="10" stroke-width="1.03"/><path d="M607.7,104.93c-3.99-.07-8.49-.24-12.38.25-3.32.46-2.64,1.41-1.49,2.51,1.34,1.19,2.63,2.65.47,3.68-.49.28-1.23.65-1.53.99-.88,1.11,3.24,1.67,4.15,1.74,16.27,1.74,30.07-2.12,14.56-3.58-3.06-.29-5.69-.39-8.74-.47-3.82.05-4.47-.37.43-.93,3.7-.35,7.03-.16,10.69-.51,7.37-.64,7.31-2.31-.11-3.21-2.09-.25-3.83-.38-5.86-.46h-.21ZM612.79,111.51c1.57-.03,1.58.89.01.9-1.57.03-1.58-.89-.01-.9ZM603.71,112.87c1.68.63-5.89.56-5.78.29-.04-.04.04-.1.29-.16,1.55-.37,4.66-.47,5.45-.14h.04ZM604.27,107.13c-4.59-.06.29-1.38,1.6-.62.89.32.17.6-1.6.62ZM612.73,107.03c-.82.69-4.58,1.64-2.42.03.82-.69,4.58-1.64,2.42-.03Z" fill="#fffc4a" stroke="#117f00" stroke-miterlimit="10" stroke-width="1.03"/><path d="M455.8,211.16c-9.43,2.4,19.85-1.36,20.82-1.77,9.62-1.67,5.29-2.14.25-2.16-2.44-.14.44-.64,1.04-1.01.54-.49-1.73-.7-2.68-.86-3.01-.42-7.04-.64-9.81-.56-6.72.11-9.55,1.97-20.32,2.22-6.45.44-14.27-.5-20.56.63-.79.24-1.34.58-2.31,1.04-.64.31-1.67.5-2.27.87-1.16.76,1.02,2.04,4.2,2.57,2.09.39,3.82.26,5.89.32,1.31.03,1.85.1.28.42-1.04.22-2.18.4-3.18.62-.68.15-.88.25-.52.29,4.41,0,9.35-.45,13.71-1.01,6.68-.92,7.99-2.1,1.73-2.27-2.47-.04-5.05-.03-7.43.16-.71.08.69.3,1.15.38.54.11,6.44.85,3.51,1.03-3.9.2-15.06-1.18-9.67-1.47,1.18-.07,2.76-.27,3.77-.65,1.74-.63,2.16-1.43,5.09-1.22.32.02.63.05.93.08,4.49.94,9.12,1.2,14.82,1.35,3.14.14,3.87.45,1.76.94l-.18.04ZM463.12,210.15c-4.59-.06.3-1.38,1.6-.62.89.32.17.6-1.6.62ZM476.96,208.55c1.68.63-5.89.56-5.78.29-.04-.04.04-.1.29-.16,1.55-.37,4.66-.47,5.45-.14h.04ZM468.7,205.9c.88-.34,2.33-.36,3.22-.04,2.29.77-5.49.86-3.22.04ZM464.38,207.46c7.59,1.34-5.18.59-5.91.13-.66-.22-1.75-.35-2.13-.71.26-.32,2.4-.06,3.28,0,1.5.14,3.13.34,4.61.56l.15.02ZM446.18,208.56c-4.59-.06.29-1.38,1.6-.62.89.32.17.6-1.6.62ZM454.37,209.29c-.51-.01-2.24-.02-2.4-.22.93-.56,5.47-.66,5.75-.24.61.47-2.74.45-3.22.46h-.14Z" fill="#fffc4a" stroke="#117f00" stroke-miterlimit="10" stroke-width="1.03"/><path d="M593.04,102.38c2.77,2.08,21.44,1.46,22.02-1.3.44-2.01-6.45-1.36-8.54-1.35-3.74.15-7.59.26-11.3.56-2.03.21-4.36.32-2.24,2.05l.06.05ZM612.64,100.75c1.57-.03,1.58.89.01.9-1.57.03-1.58-.89-.01-.9ZM598.95,101.19c1.35-.19,3.18-.32,4.46-.01,1.07.33-.26.43-1.32.49-.55.08-6.77.07-3.27-.46l.12-.02Z" fill="#fffc4a" stroke="#117f00" stroke-miterlimit="10" stroke-width="1.03"/><path d="M516.98,185.3c-.42-.03-2.74,0-2.29-.76.13-.17.32-.3.23-.39-.99-.52-2.68-.41-3.9-.51-1.79-.05-2.85-.04-4.68.03-1.31.03-4.26.33-3.94.69.55,1.95-7.59-1.34-4.07,4.6.09.15.27.44.36.59.22.36.26.24.73.29,1.49.03,16.04.45,15.39-.91-.89-1.21,3.41-.81,4.12-1.15,2.17-.45,2.36-1.7.42-2.22-.67-.19-1.6-.27-2.23-.27h-.16ZM500.29,189.08c-1.57.03-1.58-.89-.01-.9,1.57-.03,1.58.89.01.9ZM508.72,187.19c-4.59-.06.3-1.38,1.6-.62.89.32.17.6-1.6.62Z" fill="#fffc4a" stroke="#117f00" stroke-miterlimit="10" stroke-width="1.03"/><path d="M421.4,186.71c-7.97-.08-16.64-2.59-24.53.66-.71.31.76.49.13.88-.99.48-2.33-.22-3.21.7-.82.65-.8,1.52-.05,2.02,3.09,1.92,21.82,1.41,23.11-.62.15-.43.09-.79.61-1.2,2.4-1.84,9.3-3.02,4.12-2.44h-.18ZM396.37,191.22c-1.57.03-1.58-.89-.01-.9,1.57-.03,1.58.89.01.9ZM407.11,187.36c-.73.02-5.55-.04-2.39-.46,1.93-.2,4.51-.34,6.09.1.5.35-3.1.34-3.56.36h-.14Z" fill="#fffc4a" stroke="#117f00" stroke-miterlimit="10" stroke-width="1.03"/><path d="M311.9,202.02c0,1.04.41,4.55,2.06,3.83,2.16-1.33,1.85-4.98.88-6.92-.86-1.78-1.99-1.63-2.46.09-.29.92-.41,1.98-.48,2.88v.12Z" fill="#fffc4a" stroke="#117f00" stroke-miterlimit="10" stroke-width="1.03"/><path d="M590.5,165.6c-2.72.17-3.18,3.51-.31,3.97,6.16,1.67,16.23-1.97,12.87-4.75-.3-.25-.77-.53-1.29-.77-1.98-.94-7.77-2.23-8.76.06.02.87-1.39,1.47-2.32,1.47l-.2.02ZM591.87,169.16c-1.57.03-1.58-.89-.01-.9,1.57-.03,1.58.89.01.9ZM596.62,163.72c1.57-.03,1.58.89.01.9-1.57.03-1.58-.89-.01-.9Z" fill="#fffc4a" stroke="#117f00" stroke-miterlimit="10" stroke-width="1.03"/><path d="M743.86,152.11c2.53-.04,4.87-.04,7.37-.22,1.36-.17,3.24-.13,3.5-1.54-.32-7.02-31.96.14-18.47,1.46,2.53.28,4.79.29,7.38.3h.22ZM742.89,149.13c1.63-.17,3.34-.37,4.98-.5,1.33-.03,4.53-.62,4.48,1.03.58.89-.38,1.02-1.36,1.18-1.83.66-19.27-.87-8.28-1.7l.18-.02Z" fill="#fffc4a" stroke="#117f00" stroke-miterlimit="10" stroke-width="1.03"/><path d="M764.35,77.28c-4.33.31-15.97.31-8.74,6.29,3.9,2.56,17.25-.88,22.66-2.26.92-.13,1.99.02,2.36-.65.14-.59-1.37-1.51-3.88-2.27-3.75-1.13-8.28-1.5-12.23-1.13h-.17ZM764.59,81.91c-1.21.02-2.76-.03-3.96-.23-7.03-1.43,7.91-3.6,9.96-1.42.38,1.55-4.49,1.65-5.85,1.65h-.14Z" fill="#fffc4a" stroke="#117f00" stroke-miterlimit="10" stroke-width="1.03"/><path d="M752.45,120.23c-.43.95.48,1.26,1.49,1.55,4.65,1.2,17.96.44,18.6-.36.02-.07-.07-.19-.11-.36-.16-.46.41-.81.88-.98,1.11-.45,2.4-.49,3-1.31-.25-1.84-8.43-2.05-11.91-2.08-3.94.21-10.39.09-11.91,3.45l-.04.1ZM762.84,118.7c4.69-.09,4.46,1.82-.03,1.8-3.65.06-4.47-1.04-2.45-1.55.64-.17,1.7-.25,2.37-.25h.11Z" fill="#fffc4a" stroke="#117f00" stroke-miterlimit="10" stroke-width="1.03"/><path d="M782.15,136.96c1.66,1.57,5.02,1.2,7.52.91,1.12-.17,2.32-.2,3.26-.8,2.1-1.43.49-4.2-1.55-4.88-3.57-1.54-11.23,2.39-9.31,4.69l.07.08Z" fill="#fffc4a" stroke="#117f00" stroke-miterlimit="10" stroke-width="1.03"/><path d="M824.85,148.39c.24-2.22-1.89-2.49-4.01-2.53-2.91-.08-5.83.02-8.67.44-12.72,1.83,10.12,9.42,12.65,2.22l.02-.13ZM816.51,149.45c-1.04,0-2.57-.08-3.41-.49-.21-.12-.34-.21-.32-.38.24-1.13,2.98-1.04,4.75-.55,3.09.91.7,1.4-.9,1.42h-.11Z" fill="#fffc4a" stroke="#117f00" stroke-miterlimit="10" stroke-width="1.03"/><path d="M765.95,176.09c-1.04,1.31,13.3.86,12.95-.25-.57-1.68,4.55-.72,5.12-1.58.22-.32-.3-.76-.58-1-3.98-3.3-7.77-1.88-14.66-1.59-1.77.07-3.16.13-4.86.44-5.65,1.02-5.83,2.98-1.4,3.06.61.08,4.25-.18,3.49.87l-.05.05ZM770.43,173.62c.88-.34,2.33-.36,3.22-.04,2.29.77-5.49.86-3.22.04Z" fill="#fffc4a" stroke="#117f00" stroke-miterlimit="10" stroke-width="1.03"/><path d="M824.34,118.02c-.18.1-.36.2-.53.28-1.76.93-1.23-.14-2.99-.76-2.6-.74-5.38-.23-8.04.06-4.91.74-6.01,3.14-.73,3.63,2.06.17,4.91.23,6.74.69,1.44.43,3.23.53,4.74,0,.74-.25,1.37-.63,1.88-1.05,2.21-1.81,1.95-4.49-.87-2.94l-.18.1ZM813.57,119.89c-1.57.03-1.58-.89-.01-.9,1.57-.03,1.58.89.01.9ZM818.4,119.83c-1.57.03-1.58-.89-.01-.9,1.57-.03,1.58.89.01.9Z" fill="#fffc4a" stroke="#117f00" stroke-miterlimit="10" stroke-width="1.03"/><path d="M783.43,120.72c5.08,2.24,15.07.89,14.11-1.86-.42-2.58-8.51-2.01-10.92-1.76-2.51.29-6.55,1.32-3.36,3.53l.17.09Z" fill="#fffc4a" stroke="#117f00" stroke-miterlimit="10" stroke-width="1.03"/><path d="M750.4,183.13c1.69.13,3.26.24,5.04.05,7.7-.71,7.45-5.39,1.28-6.23-1.44-.04-2.65.28-4.2.25-1.54.07-5.08-.18-1.89-1.04,4.46-1.12-3.35-.75-4.27-.69-1.01.08-2.14.27-2.26.49-.11.21.15.4.07.62-.64.92-2.27.83-3.29,1.26-3.22,1.05-3.28,4.59-.39,6.05,1.98,1.22,5.83,1.07,9.53,1.19,5.33-.04.08-.47-1.57-.56-2.24-.14-9.45-.98-2.65-1.34,1.52-.06,2.96-.1,4.41-.07h.18ZM745.54,180.43c1.44-.76,4.73-1.13,6.56-1.01.91.08.98.74-.12.98-1.23.41-6.31.47-6.44.05v-.02Z" fill="#fffc4a" stroke="#117f00" stroke-miterlimit="10" stroke-width="1.03"/><path d="M775.01,151.9c7.86-8.81-26.44-5.57-8.72.34,2.51.51,6.64,1.19,8.6-.22l.12-.11ZM771.14,150.17c-.42.48-1.19.76-1.84.55-.97-.23-2.28-1.6-1.35-2.37,1.01-.58,4.53-.02,3.29,1.71l-.09.11Z" fill="#fffc4a" stroke="#117f00" stroke-miterlimit="10" stroke-width="1.03"/><path d="M777.78,137.85c2.25-5.65-13.35-7.82-10.64-.87.52,2.93,8.86,2.65,10.57.99l.07-.12Z" fill="#fffc4a" stroke="#117f00" stroke-miterlimit="10" stroke-width="1.03"/><path d="M753.81,105.58c-5.66,5.17,24.01,3.48,22.25,1.34.22-2.14,3.02,1.07,4.18.38,1.1-.73.23-2.7-1.22-2.69-.8-.04-1.78.22-2.54,0-.47-.14-.52-.36-.74-.61-1.73-1.49-18.36-.7-21.83,1.5l-.1.08ZM770.25,105.46c2.2.81-1.74,2.16-1.6.62,0-.66.71-.94,1.6-.62ZM762.6,106.15c1.57-.03,1.58.89.01.9-1.57.03-1.58-.89-.01-.9Z" fill="#fffc4a" stroke="#117f00" stroke-miterlimit="10" stroke-width="1.03"/><path d="M782.77,151.48c1.95,1.77,5.4,1.34,7.89.74,1.95-.49,5.17-1.88,3.79-3.91-2.33-3.25-19.94-3.17-11.78,3.08l.1.09Z" fill="#fffc4a" stroke="#117f00" stroke-miterlimit="10" stroke-width="1.03"/><path d="M612.81,148.81c9.97-3.39-5.63-4.17-9.44-3.99-3.01.09-11.12.32-9.65,2.34,5.49,3.34,12.2,3.65,18.91,1.7l.18-.06ZM605.75,146.83c9.86-.45,6.56,1.97-1.39,2.24-1.43-.02-2.98-.15-4.04-.9-1.57-.77-1.77-1.06.13-1.22,1.64-.12,3.43-.11,5.1-.12h.19Z" fill="#fffc4a" stroke="#117f00" stroke-miterlimit="10" stroke-width="1.03"/><path d="M617.53,184.18c-4.4,2.3.3-2.71-8.06-3.49-6.72-.67-16.74,1.58-23.44,1.32-.95,0-6.27-.71-3.94,1.09,1.23.75,3.29.52,4.74.74.73.09,1.28.31,1.21.63-.65,1.1-2.83,1.15-3.3,2.83-.88,3.49-.42,7.28,3.98,3.85.89-.69,1.8-1.81,2.09-2.74.62-1.79,3.39-2.09,5.13-1.79.61.13.9.26.72.69-.31.25,1.9.47,3.03.5,2.15.1,3.76.1,5.87,0,1.08-.12,2.97-.04,3.64-.64.12-.24-1.07-.79-.46-.98.93-.2,1.91.08,2.88.17,3.08.52,7.41-1.46,8.15-2.33.59-.79-1.74-.05-2.04.08l-.18.08ZM598.11,182.54c-4.59-.06.29-1.38,1.6-.62.89.32.17.6-1.6.62Z" fill="#fffc4a" stroke="#117f00" stroke-miterlimit="10" stroke-width="1.03"/><path d="M596.05,136.44c.61.22,3.71.88,1.66,1.39-4.13.71,7.35.5,8.12.52,1.88,0,9.42-.18,5.78-.49-.54-.13-11.35-.4-7.47-1.16,16.03-3.58-20.62-5.09-8.25-.32l.16.05Z" fill="#fffc4a" stroke="#117f00" stroke-miterlimit="10" stroke-width="1.03"/><path d="M611.88,128.87c-.5-1.57-13.97-1.61-15.35.43.27,1.71,4.39,1.92,8.27,1.51,3.89-.44,7.91-1.3,7.11-1.89l-.03-.04ZM604.19,128.93c1.35-.19,3.18-.32,4.46-.01.12.03.47.14.41.23-.08.13-.81.21-1.72.26-.55.08-6.77.07-3.27-.46l.12-.02Z" fill="#fffc4a" stroke="#117f00" stroke-miterlimit="10" stroke-width="1.03"/><path d="M599.68,119.84c4.58.37,11.21.9,15.32-.37,1.49-.51,1.45-1.34.7-2.16-3.44-2.88-36.27.19-16.2,2.51l.18.02ZM608.87,118.11c1.35-.19,3.18-.32,4.46-.01.12.03.47.14.41.23-.08.13-.81.21-1.72.26-.55.08-6.77.07-3.27-.46l.12-.02Z" fill="#fffc4a" stroke="#117f00" stroke-miterlimit="10" stroke-width="1.03"/><path d="M603.77,125.8c2.02-.08,3.76-.14,5.81-.3,4.91-.36,6.47-.94,6.72-2.09.11-.57-.38-.73-1-.86-5.07-.46-10.81.05-15.86.28-4.36.4-5.93.61-6.63,1.83-.42.89.21,1.28,3.69,1.3,2.39.02,4.67-.08,7.06-.15h.21ZM600.49,124.51c.88-.34,2.33-.36,3.22-.04,2.29.77-5.49.86-3.22.04Z" fill="#fffc4a" stroke="#117f00" stroke-miterlimit="10" stroke-width="1.03"/><path d="M575.35,32.11c7.16,1.3,27.43.08,34.05-1.13-.97-.21-14.52-.07-19.84.09-8.11.2-15.5.56-14.28,1.03l.07.02Z" fill="#2aff84"/><path d="M860.7,185.73c.16-.13.47-.3.52-.6.14-2.22-.03-4.53.07-6.72.08-.57.3-1.29,0-1.82-.18-.38-1-.68-1.42-.27-.06,3.34-.12,6.74.06,10.07.12.05.47-.45.65-.57l.11-.09Z" fill="#fffc4a" stroke="#117f00" stroke-miterlimit="10" stroke-width="1.03"/><line x1="613.62" y1="31.85" x2="615.43" y2="207.19" fill="none" stroke="#117f00" stroke-miterlimit="10" stroke-width="5.16"/><line x1="802.26" y1="57.26" x2="804.97" y2="176.69" fill="none" stroke="#117f00" stroke-miterlimit="10" stroke-width="5.16"/></g></svg>