<?xml version="1.0" encoding="UTF-8"?><svg id="Layer_2" xmlns="http://www.w3.org/2000/svg" viewBox="0 0 945.07 498.23"><g id="Layer_2-2"><polygon points="716.88 290.1 .65 371.45 33.6 497.59 636.05 317.63 716.88 290.1" fill="#0a0a0a" stroke="#117f00" stroke-miterlimit="10" stroke-width="1.03"/><path d="M308.63,330.27c3.14-2.11-11.6,1.14-15.82.94-9.54.73-6.2-.42,6.8-2.35,1.57-.23,3.17-1.05,3.55-1.81.48-.95-1.65-1.01-6.82-.19-9.92,1.58-17.39,1.65-11.53.11,3.5-.92,3.34-1.09-1.49-1.66-7.56-.86-3.57,2.11-11.81,1.24-10.21-.3,6.89.24-3.45,1.88-3.28.72-2.02.81,3.76.27,7.46-.7,8.53-.51,7.49,1.28-1.81,2.92,3.19,1.31,1.64,3.36h0c-2.25,2.41,23.8-.49,27.68-3.08Z" fill="#19df00" stroke="#ff634a" stroke-miterlimit="10" stroke-width="1.03"/><path d="M672.5,222.4c-5.21-.73-9.41,2.58-9.38,7.38h0c-1.28,1.27,14.67,1.76,10.1-.05-3.63-1.47-1.2-5.79,2.72-4.83,3.24.79,7.84-3.67,5.89-5.7-1.54-1.6-8.29-1.59-9.79.02-1.64,2.3,9.88,4.47.47,3.19ZM668.38,226.64c-1.73,1.21-1.75-2.9-.01-1.72.73.47.73,1.24.01,1.72Z" fill="#19df00" stroke="#ff634a" stroke-miterlimit="10" stroke-width="1.03"/><path d="M685.63,37.7c-8.57.84-16.09,3.35-9.88,3.3,1.22,0,1.67.57,1,1.28h0c-4.42,1.85,49.3,3.21,40.18-4.91-2.74-1.71-23.86-3.19-22.3-1.57.49.51-3.56,1.36-8.99,1.89ZM682.68,40.95c-1.28.02-1.29-1.29,0-1.29,1.28-.02,1.29,1.29,0,1.29ZM704.44,39.49c.84-1.32,8.48-2.07,8.9-.07.73,1.36-10.34,2.04-8.9.07ZM701.47,39.6c0,.67-3.7,1.24-8.24,1.27-9.76.07-9.45-.57.81-1.68,4.11-.45,7.42-.26,7.42.41Z" fill="#19df00" stroke="#ff634a" stroke-miterlimit="10" stroke-width="1.03"/><path d="M727.36,116.82c7.4-2.26,1.71-8.83-6.59-6.42-2.74.7-5.26.65-6.49-.14-2.69-1.73-8.25,3.52-6.99,6.6-.26,2.78,10.29,2.01,9.35-.43-.62-.8.16-.45,1.73.78,2.97,2.33,10.5,3.15,8.34.91-.68-.71-.38-1.29.65-1.3Z" fill="#19df00" stroke="#ff634a" stroke-miterlimit="10" stroke-width="1.03"/><path d="M573.87,349.1c-3.11.52-9.84,1.67-11.75,2.93-4.75,3.41,9.56-1.79,11.75-2.93Z" fill="#19df00" stroke="#ff634a" stroke-miterlimit="10" stroke-width="1.03"/><path d="M544.07,359.2c52.14-18.38-55.09,14.09-52.13,16.59,16.37-3.65,24.91-9.14,52.13-16.59Z" fill="#19df00" stroke="#ff634a" stroke-miterlimit="10" stroke-width="1.03"/><path d="M368.47,428.24c13.36-8.86,36.88-19.19,54.83-25.76,4.05-1.35,7.37-3.21,7.39-4.14.02-.93.86-1.37,1.87-.97,2.23.88,12.01-1.95,12-3.47,0-.6,1.11-1.13,2.47-1.19,6.26-1.36,21.26-9.93,28.61-12.01,4.61-1.6,8.39-3.31,8.38-3.8,0-1.07-12.96,3.22-17.51,5.81-8.45,4.18-13.98,4.87-24.24,10.5-3.93,2.01-7.92,3.49-8.85,3.3-2.12-.56-15.78,7.12-17.84,6.87-18.37,5.48-61.64,28.55-73.59,39.69,4.85-.54,20.99-12.14,26.47-14.83Z" fill="#19df00" stroke="#ff634a" stroke-miterlimit="10" stroke-width="1.03"/><path d="M628.92,333.31c-2.96,0-24.44,6.4-24.44,7.28,4.21,1.72,27.96-7.19,24.44-7.28Z" fill="#19df00" stroke="#ff634a" stroke-miterlimit="10" stroke-width="1.03"/><path d="M650.47,329.13c10.42-3.06,32.18-8.68,42.03-10.41,2.11.31,6.22-.67,17.67-4.2,4.34-1.34,6.7-2.46,5.23-2.48-17.93,3.7-40.65,8.61-59.08,13.04-4.62,1.08-8.39,2.47-8.39,3.09-1.72,1.89-8.16.95-10.98,3.2h0c-5.18,2.75,2.55,1.48,13.52-2.23Z" fill="#19df00" stroke="#ff634a" stroke-miterlimit="10" stroke-width="1.03"/><path d="M760.1,81.26c-3.81-.25-6.92.06-6.92.67h0c.11,1.34,18.15,2,15.82-1.51.67-6.64-12.31-.79-5.45-1.35,6.55.65,2.75,2.94-3.45,2.19Z" fill="#19df00" stroke="#ff634a" stroke-miterlimit="10" stroke-width="1.03"/><path d="M699.06,191.11c-.61.66.12.92,1.63.59,9.72-2.15,7.57-11.46-2.62-11.34-23.22.28-31.43,8.89-8.89,9.34,6.06.12,10.5.75,9.88,1.41ZM701.74,184.62c.73.47.73,1.24.01,1.72-1.73,1.21-1.75-2.9-.01-1.72ZM683.61,185.62c-1.03,1.25-4.63,2.12-4.95.04-.49-1.37,6.38-2.02,4.95-.04ZM688.56,185.58c-3.72-.08.09-2,1.31-.87.73.47.14.86-1.31.87ZM697.8,186.37c-1.73,1.21-1.75-2.9-.01-1.72.73.47.73,1.24.01,1.72Z" fill="#19df00" stroke="#ff634a" stroke-miterlimit="10" stroke-width="1.03"/><path d="M697.49,207.96c1.66-4.39.71-4.86-7.66-3.77-7.61.99-9.98,2.54-8.28,5.4,2.11,3.54,14.47,2.28,15.94-1.63ZM685.74,208.85c-1.28.02-1.29-1.29,0-1.29,1.28-.02,1.29,1.29,0,1.29ZM692.66,207.51c-.96,0-2.3-.56-2.98-1.27-1.08-2.63,11.95-1.01,2.98,1.27Z" fill="#19df00" stroke="#ff634a" stroke-miterlimit="10" stroke-width="1.03"/><path d="M682.28,158.29c-8.2.57-10.74,4.27-5.32,7.74h0c2.89,1.85,3.87,1.87,10.36.21,4.99-1.28,7.37-6.55,2.94-6.51-3.43-.22,2.43-2.24-7.97-1.44ZM682.48,163.1c-.28.9-4.19.77-3.96-.77-.03-1.85,4.03.12,3.96.77ZM685.44,162.35c-1.28.02-1.29-1.29,0-1.29,1.28-.02,1.29,1.29,0,1.29Z" fill="#19df00" stroke="#ff634a" stroke-miterlimit="10" stroke-width="1.03"/><path d="M702.38,157.06c-6.14.05-10.22,4.48-7.1,7.73,2.59,2.7,10.94,1.49,11.21-1.63l.25-2.91c1.02,4.01,1.52,5.74,8.03,6.12,3.47.26,7.73.55,9.47.65,4.4.26,10.42-4.49,8.91-7.03-1.01-1.69-3.65-1.99-13.92-1.56-6.97.29-12.26.09-11.75-.45s-1.79-.96-5.1-.93ZM702.27,163.52c-2.57.04-2.58-2.59-.02-2.58,2.57-.04,2.58,2.59.02,2.58ZM725.21,161.08c3.64-.03,4.37.29,2.48,1.09h0c-6.68,3.06-11.58-1.06-2.48-1.09ZM717.42,161.25c.73.47.73,1.24.01,1.72-1.73,1.21-1.75-2.9-.01-1.72ZM712.15,161.5c2.28.91,2.84,1.87.01,1.94-2.4.16-2.77-2.98-.01-1.94Z" fill="#19df00" stroke="#ff634a" stroke-miterlimit="10" stroke-width="1.03"/><path d="M814.29,113.11c-1.09.45-2.77.02-3.73-.95-3.68-3.07,2.34,2.48-10.69.68-8.55-.7-8.91-.6-8.89,2.57.04,6.68,1.61,7.5,12.44,6.48,16.03-2.06,3.42,2.94,9.73,1.72,1.63-.42,4.23-.26,5.77.36h0c3.86,1.56,3.79,1.61,3.76-2.67-.02-3.05-.7-3.66-3.31-2.98-2.08.54-2.81.34-1.98-.55,1.81-1.94-.67-5.67-3.11-4.66ZM797.75,116.19c-5.56-.18,1.95-1.68,2.59-.7h0c.66.42-.51.74-2.59.7ZM803.88,120.12c-1.28.02-1.29-1.29,0-1.29,1.28-.02,1.29,1.29,0,1.29ZM808.83,120.08c-2.57.04-2.58-2.59-.02-2.58,2.57-.04,2.58,2.59.02,2.58ZM809.79,116.2c-1.28.02-1.29-1.29,0-1.29,1.28-.02,1.29,1.29,0,1.29ZM814.1,119.61c-1.73,1.21-1.75-2.9-.01-1.72.73.47.73,1.24.01,1.72ZM819.71,120c1.28-.02,1.29,1.29,0,1.29-1.28.02-1.29-1.29,0-1.29Z" fill="#19df00" stroke="#ff634a" stroke-miterlimit="10" stroke-width="1.03"/><path d="M750.24,101.04c1.34,1.39,18.73.59,21.08-.97,7.09-4.91-30.21-7.62-21.08.97ZM766.04,97.95c1.69.41,3.08.97,3.08,1.25-.04,2.18-9.22-2.15-3.08-1.25ZM756.13,97.23c3.05-.15,6.98,2.43,1.24,2.57-4.35.23-5.73-2.3-1.24-2.57Z" fill="#19df00" stroke="#ff634a" stroke-miterlimit="10" stroke-width="1.03"/><path d="M769.06,90.02c1.25-2.19-11.24-2.57-6.05-.67,2.08.84.72,1.32-4.93,1.74-7.62.57-7.58.58,1.6.73,7.18.11,9.4-.31,9.39-1.79Z" fill="#19df00" stroke="#ff634a" stroke-miterlimit="10" stroke-width="1.03"/><path d="M760.03,69.43c-10.92.08-14.05,3.08-4.92,4.72,14.4,3.64,22.83-5.65,4.92-4.72ZM755.09,71.38c-4.61-2.05,12.51.63,11.71.76h0c1.97,1.08-9.02.37-11.71-.76Z" fill="#19df00" stroke="#ff634a" stroke-miterlimit="10" stroke-width="1.03"/><path d="M711.46,54.29c-1.09.45-1.98.2-1.98-.55-2.26-2.56-13.78-2.01-8.66,4.41h0c1.29,6.21,18.06-6.69,10.65-3.85Z" fill="#19df00" stroke="#ff634a" stroke-miterlimit="10" stroke-width="1.03"/><path d="M690.71,58.33c.48-4.87-20.88-3.68-16.1,1.41h0c1.96,3.29,16.12,2.05,16.1-1.41ZM682.8,58.78c-8.4-.16,2.06-1.41,3.5-.62,1.34.34-.23.62-3.5.62Z" fill="#19df00" stroke="#ff634a" stroke-miterlimit="10" stroke-width="1.03"/><path d="M691.25,118.07c5.64-11.24-20.15-5.1-13.56.64,3.23,2.5,12.26,2.08,13.56-.64ZM684.82,116.28c.72-.48,1.91-.49,2.64-.02,1.84,1.12-4.46,1.17-2.64.02ZM681.2,118.46c1.28-.02,1.29,1.29,0,1.29-1.28.02-1.29-1.29,0-1.29Z" fill="#19df00" stroke="#ff634a" stroke-miterlimit="10" stroke-width="1.03"/><path d="M681.72,140.68h0c10.98.8,28.03.28,26.97-.83-.59-.62,3.69-1.06,9.52-.99,8.82.21,11.15-.25,16.18-.25,2.32-.1-2.19-2.53,1.29-3.76,6.68-2.75-5.76-6.78-13.42-4.34-9.1,3.2-5.81.1-11.6-.64-1.61.01-2.37.6-1.69,1.31.78.81-4.13,1.32-13.35,1.39-19.73.15-31.23,6.86-13.91,8.12ZM725.6,133.07c.97-.4,2.28.14,2.91,1.19h0c1.63,3.91-8.76,1.24-2.91-1.19ZM721.2,134.09c.73.47.73,1.24.01,1.72-1.73,1.21-1.75-2.9-.01-1.72ZM716.92,134.99c1.28-.02,1.29,1.29,0,1.29-1.28.02-1.29-1.29,0-1.29ZM705.38,135.5c.73.47.73,1.24.01,1.72-1.73,1.21-1.75-2.9-.01-1.72ZM694.17,135.16c10.26-.09,10.15,1.8,0,2.23-10.25.51-10.18-2.22,0-2.23ZM681.31,136.08c3.99-1.04,3.73,1.83.01,1.76-4.02,0-3.64-.8-.01-1.76Z" fill="#19df00" stroke="#ff634a" stroke-miterlimit="10" stroke-width="1.03"/><path d="M712.43,258.25c2.88,1.51,3.04-3.44.49-2.52-.99.41-2.11.22-2.48-.43-.44-.93-6.28-2.14-8.42-1.31,2.76.83-1.96,2.1-.96.3-3.05,1.42-3.18,5.04,1.03,7.01h0c4.12,1.93,3.61,1.87,7.44.88,4.57-.81-.89-5.25,2.89-3.93ZM701.9,260.4c-1.28.02-1.29-1.29,0-1.29,1.28-.02,1.29,1.29,0,1.29ZM704.85,257.15c-.03-.83,1.99-.85,1.98-.01.03.83-1.99.85-1.98.01ZM706.86,261.65c-3.72-.08.09-2,1.31-.87.73.47.14.86-1.31.87Z" fill="#19df00" stroke="#ff634a" stroke-miterlimit="10" stroke-width="1.03"/><path d="M738.33,250.48c-3.22,1.29-.37-5.01-8.93-.07-3.17,2.11-3.86,6.52-.81,5.27,1.09-.45,1.98-.16,1.98.64h0c.02,2.35,4.15,1.7,6.88-.08-2.37-.3.39-2.23.97-.73,1.87-1,1.88-5.71-.09-5.03ZM733.51,253.7c-1.28.02-1.29-1.29,0-1.29,1.28-.02,1.29,1.29,0,1.29Z" fill="#19df00" stroke="#ff634a" stroke-miterlimit="10" stroke-width="1.03"/><path d="M730.11,185.87c1.6-5.63-16.53-5.95-14.64-.18.47,1.6.31,2.18-.34,1.3-1.24-2.46-10.03-1.85-5.45,1.44h0c4.22,2.71,20.45.67,20.43-2.56ZM719.23,186.64c-1.28.02-1.29-1.29,0-1.29,1.28-.02,1.29,1.29,0,1.29ZM725.16,185.77c-3.99,1.04-3.73-1.83-.01-1.76,4.02,0,3.64.8.01,1.76Z" fill="#19df00" stroke="#ff634a" stroke-miterlimit="10" stroke-width="1.03"/><path d="M347.69,405.18c9.8-3.3,10.54-4.89,0-1.29-9.8,3.3-10.54,4.89,0,1.29Z" fill="#19df00" stroke="#ff634a" stroke-miterlimit="10" stroke-width="1.03"/><path d="M940.57,453.54c-18.98-2.1-21.38-1.29-47.77-2.83.27.65.53,1.32.73,2,45.35,2,58.68,2.2,47.04.83Z" fill="#19df00" stroke="#ff634a" stroke-miterlimit="10" stroke-width="1.03"/><path d="M818.75,291.72c-2.07-2.41,7.36,1.21,8.52-1.99.96-1.13,1.76,11.1,2.22,33.13,3-.08,6.01.81,8.45,2.82-.36-30.83-.52-69.9-.45-102.65-3.68-.7-6.59-2.05-8.75-3.77.27,29.74,1.2,42.35-3.68,41.21-4.04.72-4.02.78.64,1.94,6.85,1.9-.62,1.32,1.16,3.82.85.88-.18,1.13-2.86.69-2.3-.37-4.46-.11-4.82.6-.35.7-6.1,1.4-12.78,1.55-6.68.15-11.79.64-11.36,1.08-20.52,4.13-50.44,6.4-72.14,9.49-12.64,1.59-19.52,1.57-11.01-.02,5.81-1.09-10.54-.22-19.78,1.05-14.12,1.94-31.6,3.19-35.71,2.55-6.49-1.33-3.22,2.21-7.73,1.32-1.6-.39-2.72-1.37-2.49-2.17,1.33-2.15-11.71-1.62-6.34-3.6,2.15-.98,1.89-1.15-1.17-.77-7.2,1.41,1.47,4.33-11.69,3.44-11.26-.5-9.04,1.04,2.82,1.96,4.31.76,15.66,0,12.02,2.43-.11,2.45-24.22-3.52-19.35-.78,4.33,3.43-17.09,5.37-21.82,5.41-.39-5.58.37-32.75-5.82-27.59-.7.46-1.09,5.68-.88,11.58.38,10.44.26,10.75-4.3,11.03-2.58.16-7.28,1.25-10.44,2.42-5.17,1.92-5.25,2.04-.81,1.23,14.28-2.62,16.15-2.43,12.34,1.29-1.87,1.83-17.97,4.58-19.22,3.28.14-.66-10.38-2.84-9.74-1.05,1.49,1.42-7.85,1.55-6.11-.14,2.09-2.24.04-1.41-3.72,1.49q-3.57,2.76,2.05,1.88c8.47-1.23-.17.55.99,2.4,1.69,1.09,7.79-.75,6.6-1.99-1.66-1.73,6.91-2.93,9.83-1.38,1.16,1.86,12.6-.57,12.75.45-2.7,1.96-28.25,4.78-30.84,3.4-2.45-1.3-3.17-.89-2.07,1.17.71,1.32-26.15,4.34-32.13,3.61-9.79-1.35,6.14,3.13-4.44,1.82-2.99-.29-5.44-.15-5.44.31-1.48,1.56-41.08,6.36-54.37,6.8,6.41-1.38,17.92-3.78,23.22-4.51,6.16-.86,7.45-4.6,1.57-4.56-4.36.21-8.9-3.07-.79-1.9,3.89.51,4.7.38,2.64-.44-4.56-1.8-21.55-3.07-17.81-1.33,5.5,2.31-8.7-.3-8.67,1.79-1.85,1.47-1.14-4.84,1.23-4.84,1.77-.48,1.85-.97.27-1.72-4.15-1.98-3.75-22.33.44-22.49,2.79-.1,2.92-.29.61-.84-1.63-.39-3.58-1.31-4.31-2.04-4.21-4.17-7.54,2.29-6.83,13.24.85,13.09.39,14.35-5.22,14.47-7.66-.15,6.09,2.87,7.65,3.55-2.96.15-8.91.45-11.87.61,4.18.87,16.13,2.3,1.47,1.65-6.07-.24-9.94.09-9.28.78,1.47,1.45-10.36,1.2-10.97,3.54-1.56,1.63-2.48,1.82-3.23.67-1.24-1.9-22.23-.65-25.43,1.52-1.33.9-.95,1.09,1.16.6,3.49-.82,4.47,2.53,1.48,5.05-3.67,5.12,13.7,2,11.21.31-1.67-1.63,5.7-1.69,3.99,0-1.63,1.74.43,1.64,15.97-.84,29.07-4.63,25.52-1.41-4.08,3.7-48.41,7.83-27.84,6.16-58.3,9.7-19.3,1.98-49.65,9.42-65.61,9.51-4.02.05-6.3.48-5.08.97,1.22.48-1.27,1.3-5.55,1.82-7.4.82-44.8,6.99-51.75,8.12-6.45,1.68-5.82-5.16.11-4.53,9.98-.31,31.23-6.35,43.82-9.4l-13.84,1.35c4.46-1.57,18.45-6.57,4.43-3.64-11.73,2.48-21.77,3.94-23.95,3.49-1.18-.25,2-1.16,7.07-2.04,8.45-1.45,14.69-4.21,9.44-4.17-1.22,0-1.57-.67-.79-1.51,1.01-1.08.32-1.21-2.36-.45-2.08.59-8.68,1.29-14.66,1.56-9.89.44-9.26.24,6.91-2.21,9.78-1.48,19.35-2.45,21.26-2.16,1.91.3,3.46.15,3.46-.33-.02-2.39,34.75-6.84,45.47-5.83q10.78,1.02,2.48,1.25c-7.54-.24-12.3,2.94-3.82,2.51,4.85-.64,6.58,3.56,2.39,5.83-1.1.6-.23.77,1.98.4,6-1.53,50.13-4.33,31.76-8.96-6.74-.56,13.41-2.78,17.63-2.31-2.46.53-7.42,1.61-9.88,2.14,2.47.11,7.43.33,9.9.44-14.74,2.85,2.89,1.81,13.03.2,3.79-.74,4.18-4.46.47-4.43-6.59-.94-8.69-6.19-17.82-3.57-10.4,1.81-23.47,2.52-33.28,4.33,2.92.76,14.51,2.03,3.36,2.06-9.49.4-1.65-2.28-8.69-2.54,13.36-2.29,94.83-13.98,94.25-15.85-.53-.34-6.09.16-12.35,1.13-29.88,5.55-99.31,13.42-123.22,17.89-3.71,1.35-50.78,6.67-54.7,7.3-4.14.59-4.45.19-4.49-5.75-.8-9.18,6.21-5.35,2.74-7.39-2.67-1.31-2.93-14.29-3.18-18.36l11.15-.39c-3.78-.83-17.71-2.01-3.97-2.11,10.66.04,3.91-2.54.17-1.97-13.27,3.13-3.29-18.21-11.43-17.46-8.88-.7,1,18.45-9.52,17.76-11.75.83-17.18,2.99-5.92,2.35,10.06-.57,10.29-.53,2.97.59-4.35.66-13.25.99-19.78.73-8.41-.34-10.72-.13-7.91.72,3.8,1.14,3.81,1.2.17,1.31-6.61.21-2.51,1.02,8.75,1.74,11.53.72,8.11-.17,2.96-1.56,4.83-.12,8.99-.4,15.14-1.11,7.67-.89,10.46,2.83,3.68,4.89-2.58.79-2.57.91.11.97,4.51-1.99,3.6,21.67,4.18,26.66-7.47.92-30.01,3.67-33.76,4.15-3.71.45-26.25,2.81-23.71,4.78,0,.76,1.5.94,3.46.41-.42-.52,87.95-13.05,37.99-2.16-13.58,2.11-25.33,4.68-36.02,5.51-3.43.14-3.09.37,1.52,1.01,3.27.45,6.38.43,6.92-.05,1.82-1.61,18.42-3.03,16.94-1.45-1.26,1.88-14.47,1.14-15.79,2.68.61,1.42-18.43,2.65-10.02,4.14,3.69.99,1.29,1.94-3.6,1.42-.9-.09-1.1.38-.45,1.06-.79,1.72,20.69-.77,11,1.21-10.17,2.44,9.2,1.42,26.91-1.42,14.23-2.28,25.94-2.59,17.09-.46-1.36.33-2.06,1.03-1.55,1.57.51.53-8.15,2.64-19.25,4.69-29.04,5.35-32.84,6.19-34.09,7.54-1.5,1.6,1.57,1.5,8.37-.28,6.86-1.79,34.43-6.9,48.26-9.05-1.49,8.6,2.25,10.36-12.99,13.02-15.51,3.27-16.01,3.97-31.45,7.26-6.43,1.38-12.09,3.3-12.57,4.26-.7,1.4-.03,1.45,3.39.22,5.92-2.12,37.11-8.97,46.08-10.13,8.58-1.57,8.02.83,6.95,4.52-1.08.14-13.15,3.29-16.3,4.09,4.04-.37,12.17-1.12,16.21-1.49.3,21.67.92,65.29,1.22,86.96l-16.29,10.2h0c-19.16,12-18.93,13.75.32,2.39,15.97-9.42,16.2-9.45,15.12-1.95-1.89,7.21,2.85,13.17,5.01,7.29.08-1.26.57-1.57,1.12-.71.56.89,8.07-3.36,17.63-10,14.04-10.41,23.02-13.31,32.33-20.27,3.99-4.32-9.99,5.56-10.39,3.74-1.36-.87,8.87-7.05,11.72-7.07.97,0,7.94-3.7,15.49-8.21,23.11-14.46,37.79-18.82,42.34-19.02-.01-1.85,24.48-13.43,28.46-13.46,1.71-.01,3.1-.7,3.1-1.53s.51-1.17,1.15-.76c.64.41,2.89-.4,5.01-1.81,4.05-3.3,8.65-.32,6.95-2.19-1.27-1.33,5.8-3.75,9.25-3.17,2.46.16-2.32-1.61,4.47-3.51,8.29-2.98.43,2.89,5.31-.53,10.04-6.54,25.88-12.16,36.13-16.11,6.43-3.55,11.5-2.26,16-4.96,1.29-1.34,12.45-2.64,12.45-1.45,0,.2-7.77,2.89-17.27,5.97-29.28,9.96-54.06,21.66-80.4,34.08-6.39,2.46-25.53,11.63-31.12,12.98.51-3.54-57.1,34.28-65.43,36.93-.77-.5-1.1-.24-.73.58.37.81-3.54,4.73-8.68,8.7-8.99,6.74-7.33,6.77-12.6,11.52-1.95,1.42-2.34,2.38-.98,2.37,3.08.13,12.57-12.07,16.07-10.91,1.84.27,2.01.15.45-.31-5.68-3.62,72.92-50.09,82.33-47.91,0-.66,1.02-.78,2.28-.29,3.62,1.13-1.07-2.61-2.92-1.21-7.51,2.87,4.42-2.64,42.05-19.45,23.33-10.42,48.64-20.92,56.24-23.34,1.71-1.56,200.29-61.77,152.56-43.36-57.91,17.03-179.62,53.6-221.98,77.33-44.18,21.16-75.88,39.86-63.4,37.6,1.94-2.29,34.23-20.69,46.05-26.24,6.13-2.51,25.32-13.12,31.24-13.11,1.06.42,1.36.16.65-.57-1.51-1.57,24.96-14.08,39.12-18.48,8.36-1.9,23.94-10.52,31.03-10.07,1.4.52,1.85.44.99-.16-1.9-1.34,30.28-12.31,71.63-24.42,81.33-24.25,171.01-51.57,250.18-64.74-.09.89-39.85,11.1-39.81,11.95-1.25.79-.54.87,1.98.22,10.28-2.75,103.73-23.81,64.22-13.51-78.07,20.59-159.83,45.29-237.42,68.21-57.79,16.25-102.69,35.75-152.81,58.18-5.05-.26-58.66,36.63-74.87,46.84-1.04,5.35-4.48,7.92,5.41.83,20.23-15.94,48.73-33.12,52.11-33.26-3.63-3.14,81.26-43.38,108.51-48.21,1.71.42,2.65.29,2.11-.28.4-2.98,22.17-9.25,27.41-11.67,3.67-3.07,36.36-10.61,38.52-10.67,6.21-3.77,18.37-5.19,29-9.13,7.81-2.44,15.47-4.12,17.04-3.74,3.35,1.19,15.43-7.72,18.71-6.72,1.43.35,2.05.06,1.38-.64-2.59-2.02,4.29-1.85,10.7-3.9,5.85-1.44,11.53-2.27,12.63-1.83,1.1.43,1.4.16.66-.6-1.61-1.68,5.66-3.46,8.9-2.18,1.34.53,1.77.36,1.03-.42-1.6-1.66,17.72-7.39,21.69-6.43,5.09,1.05-2.72-3.03,5.7-1.55,4.31-2.2,18.34-7.13,23.22-6.08,1.24.49,1.39.14.39-.9-2.94-2.76,5.3.57,4.96-1.26,0-1.44,7.84-3.33,11.85-2.85,1.63.19,2.28-.09,1.44-.64-1.72-1.12,18.41-7.23,20.76-6.31.83.33,1.5.02,1.49-.67,0-1.3,11.58-4.38,14.39-3.83.86.17,2.19-.32,2.96-1.09,2.28-2.26,17.79-5.88,21.43-5,2.46.6,2.92.36,1.71-.9-1.22-1.27-.75-1.5,1.75-.89,6.55,1.26-3.26-2.78,6.02-1.24,3.83.6,5,.42,4-.63ZM833.76,280.6c.09-1.51.55-1.82,1.19-.79,1.44,1.92-1.33,4.23-1.19.79ZM835.33,320.42c-.32,6.57-.64,1.2-.73-11.94-.08-13.14.17-18.52.58-11.95.4,6.57.47,17.32.15,23.9ZM834.64,228.74h0c.51,1.25.49,3-.05,3.88-1.26,2.34-1.21-7,.05-3.88ZM834.63,235.28c.73.47.73,1.24.01,1.72-1.73,1.21-1.75-2.9-.01-1.72ZM834.96,264.28c-.37,4.06-.71.41-.76-8.12-.05-8.52.25-11.85.66-7.38h0c.42,4.46.46,11.44.09,15.5ZM834.88,274.03c.73.47.73,1.24.01,1.72-1.73,1.21-1.75-2.9-.01-1.72ZM469.33,303.91c1.43-.38,3.13-.35,3.79.07,1.89.97-7.73.93-3.79-.07ZM468.4,306.52c.72-.48,1.91-.49,2.64-.02,1.84,1.12-4.46,1.17-2.64.02ZM461.41,302.68c1.43-.38,3.13-.35,3.79.07,1.89.97-7.73.93-3.79-.07ZM460.81,304.86c1.28-.02,1.29,1.29,0,1.29-1.28.02-1.29-1.29,0-1.29ZM456.54,307.9c.72-.48,1.91-.49,2.64-.02,1.84,1.12-4.46,1.17-2.64.02ZM395.6,316.98c-1.28.02-1.29-1.29,0-1.29,1.28-.02,1.29,1.29,0,1.29ZM399.54,315.66c-1.28.02-1.29-1.29,0-1.29,1.28-.02,1.29,1.29,0,1.29ZM404.45,309.81c-.03-.83,1.99-.85,1.98-.01.03.83-1.99.85-1.98.01ZM406.45,313.02c-3.72-.08.09-2,1.31-.87.73.47.14.86-1.31.87ZM255.2,329.67c1.28-.02,1.29,1.29,0,1.29-1.28.02-1.29-1.29,0-1.29ZM375.66,319.61c-5.56-.18,1.95-1.68,2.59-.7h0c.66.42-.51.74-2.59.7ZM378.11,316.25c1.84,1.12-4.46,1.17-2.64.02.72-.48,1.91-.49,2.64-.02ZM373.48,313.7c.72-.48,1.91-.49,2.64-.02,1.84,1.12-4.46,1.17-2.64.02ZM355.03,315.99c2.27-.76,17-2.03,7.91-.06-2.27.76-17,2.03-7.91.06ZM344.52,322.96c1.84,1.12-4.46,1.17-2.64.02.72-.48,1.91-.49,2.64-.02ZM339.89,320.41c.72-.48,1.91-.49,2.64-.02,1.84,1.12-4.46,1.17-2.64.02ZM328.39,326.28c-8.4-.16,2.06-1.41,3.5-.62h0c1.34.34-.23.62-3.5.62ZM329.84,321.37c2.99-.03,5.44.17,5.44.45.1,2.85-16.26-.12-5.44-.45ZM316,316.69c1.92-.34,4.59-.34,5.94,0,3.58.78-10.74.85-5.94,0ZM258.87,336.53c.72-.48,1.91-.49,2.64-.02,1.84,1.12-4.46,1.17-2.64.02ZM251.92,337.85c1.43-.38,3.13-.35,3.79.07h0c1.89.97-7.73.93-3.79-.07ZM247.85,339.52h0c-1.62.96-14.39,1.69-18.29,1.98,2.81-.44,23.32-5.15,18.29-1.98ZM237.41,332.31c10.01-1.43,18.11-1.43,9.89,0h0c-2.85.82-24.66,2-9.89,0ZM229.48,329.86c1.28-.02,1.29,1.29,0,1.29-1.28.02-1.29-1.29,0-1.29ZM234.47,336.29c7.72-.04,7.58.77,0,1.57-7.73.86-7.62-1.59,0-1.57ZM215.34,335.57c.72-.48,1.91-.49,2.64-.02,1.84,1.12-4.47,1.17-2.64.02ZM215.37,339.44c.72-.48,1.91-.49,2.64-.02,1.84,1.12-4.47,1.17-2.64.02ZM206.41,336.91c1.43-.38,3.13-.35,3.79.07h0c1.89.97-7.73.93-3.79-.07ZM204.33,340.83c1.87-.86,9.54.44,2.48.63-2.72.02-3.84-.26-2.48-.63ZM196.52,338.27c1.43-.38,3.13-.35,3.79.07h0c1.89.97-7.73.93-3.79-.07ZM191.98,343.07c1.82-.78,12.31-2.11,5.94-.04-1.82.77-12.31,2.11-5.94.04ZM176.86,345.44c.99-.66,3.91-1,6.49-.75,3.96.38,3.69.56-1.8,1.2-3.93.46-5.78.28-4.68-.45ZM190.03,348.25c-3.58.78-8.09,2.33-11.87,1.94,4.53-2.49,10.61-3.77,15.82-3.54l-3.95,1.6ZM216.71,344.05c-3.24,1.27-17.22,2.33-22.74,2.77,4.06-.86,31.49-6.3,22.74-2.77ZM426.86,306.84c.72-.48,1.91-.49,2.64-.02,1.84,1.12-4.47,1.17-2.64.02ZM416.35,314.24c-3.72-.08.09-2,1.31-.87.73.47.14.86-1.31.87ZM418.31,311.64c-3.72-.08.09-2,1.31-.87.73.47.14.86-1.31.87ZM423.27,311.62c-1.6-1.94,5.61.54,4.94.73,0,1.05-3.77.49-4.94-.73ZM429.19,310.26c-1.28.02-1.29-1.29,0-1.29,1.28-.02,1.29,1.29,0,1.29ZM436.12,311.3c-7.07-.08.59-1.5,2.47-.67,1.36.35.25.65-2.47.67ZM440.06,308.89c-3.72-.08.09-2,1.31-.87.73.47.14.86-1.31.87ZM442.02,306.29c-3.72-.08.09-2,1.31-.87.73.47.14.86-1.31.87ZM229.73,368.62c1.28-.02,1.29,1.29,0,1.29-1.28.02-1.29-1.29,0-1.29ZM223.61,279.88c.51,1.25.49,3-.05,3.88-1.26,2.34-1.21-7,.05-3.88ZM224.08,345.73c.47,1.95.49,5.15.05,7.1-1.04,5.03-1.16-12.12-.05-7.1ZM222.77,338.2c.23-3.6,2.61,1.07,1.05,1.69-.65.43-1.13-.32-1.05-1.69ZM223.89,332.06c-1.73,1.21-1.75-2.9-.01-1.72.73.47.73,1.24.01,1.72ZM224.07,360.05c.73.47.73,1.24.01,1.72-1.73,1.21-1.75-2.9-.01-1.72ZM224.16,372.96c.73.47.73,1.24.01,1.72-1.73,1.21-1.75-2.9-.01-1.72ZM224.19,378.13c.73.47.73,1.24.01,1.72-1.73,1.21-1.75-2.9-.01-1.72ZM224.24,389.67c-1.26,2.34-1.21-7,.05-3.88.51,1.25.49,3-.05,3.88ZM224.6,420.65c-.38,3.73-.72.68-.77-6.78.05-19.45,1.67,1.99.77,6.78ZM224.57,433c.58.93.51,2.04-.14,2.48-1.52,1.21-1.31-4.99.14-2.48ZM224.71,441.98c.46,2.32.47,5.81.03,7.75-1.06,4.89-1.09-13.4-.03-7.75ZM224.38,459.08c-1.28.02-1.29-1.29,0-1.29,1.28-.02,1.29,1.29,0,1.29ZM223.47,316.99c-1.28.02-1.29-1.29,0-1.29,1.28-.02,1.29,1.29,0,1.29ZM234.57,470.95c-6.03,5.26-7.17,5.79-7.01,3.28.23-2.05,9.7-6.63,12.62-8.17l-5.6,4.89ZM242.24,466.69c-1.28.02-1.29-1.29,0-1.29,1.28-.02,1.29,1.29,0,1.29ZM387.62,383.69c-27.61,10.3-155.9,57.78-153.46,76.53-.73,3.21.37,2.91,10.91-2.96,5.15-2.86,9.93-4.93,10.63-4.6.7.33.87.25.37-.19-.5-.44,2.83-2.81,7.39-5.28,22.15-11.99,37.08-22.34,23.98-16.62-7.62,3.76-3.83,3.81-14.23,8.37-5.82,1.67-19.98,13.32-19.45,7.25.58-2.68,7.27-5.71,10.97-4.99,2.26.44,2.4.3.55-.56-6.41-3.08,19.64-10.13,23.18-13.23-.01-1.7,17.85-9.51,19.9-8.7,1.05.42,1.66-.01,1.36-.95-.31-.97,1-1.63,3.04-1.54,1.98.09,3.1-.15,2.5-.54-.99-.63,21.22-10.82,28.44-13.05,3.43-.99,41.05-16.81,45-16.59,2.24-.13,3.76-.57,3.36-.98,5.19-3.66,15.93-5.09,26.35-8.9,16.97-5.27,21.25-5.26,5.31.45-5.96,1.67-18.69,9-23.49,8.77-.69-.44-1.24-.18-1.24.58.4,1.54-31.28,14.47-24.63,9.41,2.14-2.73-2.64.83-2.01,1.68,0,.71-7.98,4.51-17.75,8.43-37.44,14.38-35.85,15.97-56.04,24.2-2.34-.26-3.81,5.13-5.73,5.22-5.93,2.1-14.83,8.43-22.57,12.21-5.16,2.76-8.91,5.51-8.32,6.12,1.44,1.5-9.24,8.49-12.33,8.07-3.76-.25-1.44,2.22-6.41,2.77-2.17.39-3.96.2-3.96-.42-.23-1.6-6.7.23-5.12,2.21,1.44,2.45-4.07.53-3.26,2.78h0c.72,4.32-5.69-.78-1.99-6.88,1.12-2.43,1.4-4.67.62-4.98-1.37-.54-1.32-8.33.06-8.97.49-.2,20.72-10.73,21.22-10.92.61-4.66-17.29,7.13-20.74,8.63.08-12.35-2.41-74.52,1.22-73.15,5.23-2.77,42.91-9.7,49.6-10.95-.95-.61,32.3-8.02,35.82-7.98,1.09.01-2.02,1.24-6.91,2.72-13.44,4.08-18.58,6.09-19.32,7.56,38.37-8.8,40.34-11.59,94.09-20.71,15.79-2.87,26.86-5.47,25.03-5.87-5.54-2.06,27.7-4.22,35.59-3.5-.04,4.94,1.05,25.51-1.32,26.49-28.78,6.85-147.38,50.67-187.84,71.86-15.86,7.95,4.53.48,31.64-11.59,41.41-19.76,142.17-55.38,156.36-57.07-4.21,7.11-30,10.24-56.37,20.35ZM245.78,452.11h0c1.95,1.44-9.62,6.95-8.56,3.89-.02-2.41,8.77-7.67,10.81-6.48.91.53,1.05.29.31-.55-1.69-1.9,1.91-3.55,3.69-1.7,1.72,1.79-2.83,5.36-5.48,4.31-1.14-.45-1.49-.21-.78.52ZM433.12,332.09c-5.56-.18,1.95-1.68,2.59-.7h0c.66.42-.51.74-2.59.7ZM417.07,331.41c-53.81,9.14-105.6,19.14-174.92,35.07h0q-8.37,2.39-10.04,1.3c-12.08-8.81,130.46-27.83,147.79-31.35,43.73-8.24,78.59-12.78,37.18-5.02ZM399.69,337.61c-1.82.78-12.31,2.11-5.94.04,1.82-.78,12.31-2.11,5.94-.04ZM384.86,340.31c-3.72-.08.09-2,1.31-.87.73.47.14.86-1.31.87ZM377.95,341.65c-1.82.78-12.31,2.11-5.94.04,1.82-.78,12.31-2.11,5.94-.04ZM363.13,344.35c-3.72-.08.09-2,1.31-.87.73.47.14.86-1.31.87ZM355.22,345.5c-7.07-.08.59-1.5,2.47-.67,1.36.35.25.65-2.47.67ZM336.45,349.14c-12.99,3-18.53,3.94-16.63,2.81,3.17-1.89,47.72-10.55,16.63-2.81ZM438.88,330c.72-.48,1.91-.49,2.64-.02,1.84,1.12-4.47,1.17-2.64.02ZM445.42,368.23c-.53.56-2.75,1.34-4.94,1.73-9.41,1.23,4.94-3.98,4.94-1.73ZM442.98,326.85c-5.56-.18,1.95-1.68,2.59-.7h0c.66.42-.51.74-2.59.7ZM351.22,338.42c-3.61.23-44.24,7.98-47.86,6.86-4.03-1.14,4.44,3.36-4.23,1.65-7.15-1.5-3.15,2.33-9.19,1.2-2.2-.44-3.96-.2-3.95.53,0,1.13-10.71,3.35-16.79,3.48-5.14,1.02-7.17,2.27-18.77,4.56h0c-12,1.34-22.56,9.26-21.44-2.44.65-2.99,9.17-4.8,55.97-11.85,6.52-.98,18.53-2.98,26.68-4.43,21.27-3.26,34.78-6.45,54.8-8.63,10.84-.75,14.19-1.16,18.33-2.27,16.86-4.71,24.93-4.16,38.78-6.91,16.35-3.86,22.48-4.05,22.5-.69.02,2.76-58.08,14.36-94.85,18.93ZM450.73,275.22c1.28-.02,1.29,1.29,0,1.29-1.28.02-1.29-1.29,0-1.29ZM451.33,296.82c-.39,3.4-.74.95-.79-5.44-.05-6.39.27-9.17.7-6.18h0c.44,2.99.47,8.23.09,11.62ZM451.4,308.51h0c.44,3.03.46,7.68.05,10.33-.96,6.53-1.1-17.71-.05-10.33ZM451.62,362.62c-1.73,1.21-1.75-2.9-.01-1.72.73.47.73,1.24.01,1.72ZM451.27,359.18c-1.28.02-1.29-1.29,0-1.29,1.28-.02,1.29,1.29,0,1.29ZM451.68,351.15c-.38,3.35-.74.29-.77-6.82-.04-7.1.27-9.85.7-6.1h0c.43,3.75.46,9.56.08,12.92ZM451.07,328.18c-1.28.02-1.29-1.29,0-1.29,1.28-.02,1.29,1.29,0,1.29ZM451.05,325.6c-1.28.02-1.29-1.29,0-1.29,1.28-.02,1.29,1.29,0,1.29ZM587.9,294.63c1.14-.76,3.25-1.14,4.68-.84,3.73.71-8.65,2.91-4.68.84ZM592.38,304.5c.03.83-1.99.85-1.98.01-.03-.83,1.99-.85,1.98-.01ZM477.23,314.78c3.55.03,6.01-.42,5.45-1-1.15-1.19,8.71-3.21,10.4-2.13.6.39-.62.72-2.7.75-2.69.03-3.06.35-1.27,1.07,2.82,1.96-19.16,4.32-19.28,3.6.71-1-13.46,2.55-9.9,3.29,11.37-.69,68.66-9.4,77.09-11.01-.01-1.66-17.69-.56-23.58,1.46.75.35-18.51,3.08-15.19,1.92,3.01-.57,3.2-.93.98-1.83-1.99-.81-1.11-1.2,3.17-1.41,8.86-.43,11.56-.73,14.83-1.64,5.65-1.99,123.51-15.64,48.8-4.58-22.94,2.54-27.04,3.27-27.03,4.82,2.22,1.13,32.99-4.59,35.59-3.97,4.88.02-52.53,10.36-92.88,16.73h0c-25.55,4.03-23.4,4.02-24.93.11-1.85-4.71,3.59-6.35,20.47-6.2ZM584.46,303.71c-7.07-.08.59-1.5,2.47-.67,1.36.35.25.65-2.47.67ZM576.57,307.65c-7.07-.08.59-1.5,2.47-.67,1.36.35.25.65-2.47.67ZM543.79,313.17c-5.56-.18,1.95-1.68,2.59-.7h0c.66.42-.51.74-2.59.7ZM535.89,314.52c-2.31-.04-2.78-.35-1.2-.77,2.64-.95,6.6.79,1.2.77ZM519.26,317.33c-6.76,1.47-11.96,1.51-6.92.05,1.79-.92,15.92-1.98,6.92-.05ZM482.53,323.97c-5.56-.18,1.95-1.68,2.59-.7h0c.66.42-.51.74-2.59.7ZM472.65,325.33c-5.56-.18,1.95-1.68,2.59-.7h0c.66.42-.51.74-2.59.7ZM459.21,364.29c-1.28.02-1.29-1.29,0-1.29,1.28-.02,1.29,1.29,0,1.29ZM456.21,359.27c0-.64,2.79-1.82,6.21-2.63,8.84-2.08,9.43-1.83,2.68,1.15h0c-6.49,2.87-8.88,3.26-8.89,1.49ZM465.17,368.12c-1.28.02-1.29-1.29,0-1.29,1.28-.02,1.29,1.29,0,1.29ZM473.07,365.48c-1.28.02-1.29-1.29,0-1.29,1.28-.02,1.29,1.29,0,1.29ZM477.02,364.15c-1.28.02-1.29-1.29,0-1.29,1.28-.02,1.29,1.29,0,1.29ZM480.97,362.83c-1.28.02-1.29-1.29,0-1.29,1.28-.02,1.29,1.29,0,1.29ZM484.92,361.51c-1.28.02-1.29-1.29,0-1.29,1.28-.02,1.29,1.29,0,1.29ZM489.85,360.18c-3.72-.08.09-2,1.31-.87.73.47.14.86-1.31.87ZM494.79,358.85c-1.28.02-1.29-1.29,0-1.29,1.28-.02,1.29,1.29,0,1.29ZM502.28,356.77c-6.01,1.81,1.49-2.74,2.43-1.62h0c.61.39-.48,1.12-2.43,1.62ZM508.62,354.87c-1.28.02-1.29-1.29,0-1.29,1.28-.02,1.29,1.29,0,1.29ZM512.56,353.55c-1.28.02-1.29-1.29,0-1.29,1.28-.02,1.29,1.29,0,1.29ZM518.49,352.21c-1.28.02-1.29-1.29,0-1.29,1.28-.02,1.29,1.29,0,1.29ZM522.44,350.89c-1.28.02-1.29-1.29,0-1.29,1.28-.02,1.29,1.29,0,1.29ZM508.59,350.61c-4.64,1.05-58.64,17.76-41.48,10.05,23.38-8.62,141.48-38.34,41.48-10.05ZM479.7,352.39c4.77-1.42,9.03-2.36,9.47-2.08s-2.82,1.48-7.24,2.67c-11.14,3-12.8,2.56-2.23-.59ZM497.42,347.8c8.41-2.45,10.67-2.44,4.22.02h0c-3.65,1.72-14.17,3.12-4.22-.02ZM507.56,345.19c-.03-.83,1.99-.85,1.98-.01.03.83-1.99.85-1.98.01ZM513.49,343.85c-.03-.83,1.99-.85,1.98-.01.03.83-1.99.85-1.98.01ZM518.1,342.31c.72-.48,1.91-.49,2.64-.02,1.84,1.12-4.47,1.17-2.64.02ZM523.37,341.2c-.03-.83,1.99-.85,1.98-.01.03.83-1.99.85-1.98.01ZM527.97,339.65c.72-.48,1.91-.49,2.64-.02,1.84,1.12-4.47,1.17-2.64.02ZM533.24,338.54c-.03-.83,1.99-.85,1.98-.01.03.83-1.99.85-1.98.01ZM537.19,337.22c-.03-.83,1.99-.85,1.98-.01.03.83-1.99.85-1.98.01ZM543.12,335.88c-.03-.83,1.99-.85,1.98-.01.03.83-1.99.85-1.98.01ZM527.38,349.56c-3.72-.08.09-2,1.31-.87.73.47.14.86-1.31.87ZM532.31,348.23c-1.28.02-1.29-1.29,0-1.29,1.28-.02,1.29,1.29,0,1.29ZM536.26,346.91c-1.28.02-1.29-1.29,0-1.29,1.28-.02,1.29,1.29,0,1.29ZM540.21,345.59c-1.28.02-1.29-1.29,0-1.29,1.28-.02,1.29,1.29,0,1.29ZM546.14,344.25c-1.28.02-1.29-1.29,0-1.29,1.28-.02,1.29,1.29,0,1.29ZM550.09,342.93c-1.28.02-1.29-1.29,0-1.29,1.28-.02,1.29,1.29,0,1.29ZM548.06,335.16c-2.25-.71,5.43-2.79,5.92-2.55,2.25.71-5.43,2.79-5.92,2.55ZM556.01,341.59c-1.28.02-1.29-1.29,0-1.29,1.28-.02,1.29,1.29,0,1.29ZM559.96,340.27c-1.28.02-1.29-1.29,0-1.29,1.28-.02,1.29,1.29,0,1.29ZM563.91,338.95c-1.28.02-1.29-1.29,0-1.29,1.28-.02,1.29,1.29,0,1.29ZM565.86,334.44c-12.8,4.13-16.47,4.13-4.95,0,7.78-3.05,19.97-5.09,4.95,0h0ZM556.94,331.9c-.03-.83,1.99-.85,1.98-.01.03.83-1.99.85-1.98.01ZM560.89,330.58c-.03-.83,1.99-.85,1.98-.01.03.83-1.99.85-1.98.01ZM566.82,329.24c-.03-.83,1.99-.85,1.98-.01.03.83-1.99.85-1.98.01ZM569.84,337.61c-1.28.02-1.29-1.29,0-1.29,1.28-.02,1.29,1.29,0,1.29ZM573.79,336.29c-1.28.02-1.29-1.29,0-1.29,1.29-.02,1.29,1.29,0,1.29ZM573.74,328.54c-1.28.02-1.29-1.29,0-1.29,1.28-.02,1.29,1.29,0,1.29ZM565.75,326.83c-37.56,10.09-50.02,13.64-85.86,22.45h0c-12.32,3.29-22.61,5.98-22.87,5.99-2.63.02,0-25.32,2.71-26.09,5.58-1.35-3.4-1.01-4.71-1.21,3-1.17,16.73-4.22,10.87-1.08-2.19,1.03-.99,1.16,4.67.51,10.32-1.2,17.08-3.03,17.07-4.63-.47-1.39,6.21-2,5.12-.26-.57.61,1.36.8,4.28.41,4.79-.64,4.93-.8,1.41-1.67-7.12-1.48,4.58-1.06,6.14-2.09,2.35-.61,3-.41,2.03.63-1.71,1.83-1.38,1.85,5.93.28,1.64-1.01,20.07-2.11,14.51-4.29-2.11-.95-1.24-1.12,3.28-.65,3.38.35,10.82-.2,16.52-1.23,12.24-2.2,15.45-3.66,5.85-2.66-4.49.47-3.44.04,3.1-1.28,34.56-5.82-9.5,3.78,20.93-.97,16.4-2.1,1.15-3.46,7.92-3.77,2.06-.69,14.59,6.23,5.65,4.17-3.27-.53-4.04-.29-2.9.9,3,2.65-7.42-.72-6.86,1.14,0,.66-2.09.95-4.66.65-4.84-.57-8.83,2.78-5.08,4.26,1.06.42,1.42,1.31.8,1.97-1.22,1.8,13.82,1.21,12.94-.17,0-.7,2.23-1.17,4.96-1.05,9.02.42,4.14,2.42-23.76,9.74ZM590.46,313.56c.03.83-1.99.85-1.98.01-.03-.83,1.99-.85,1.98-.01ZM578.7,331.09c-3.72-.08.09-2,1.31-.87.73.47.14.86-1.31.87ZM581.63,325.38c.9-1.37,15.84-3.34,10.88-.99h0c-6.53,2.43-15.25,3.22-10.88.99ZM583.66,333.63c-1.28.02-1.29-1.29,0-1.29,1.28-.02,1.29,1.29,0,1.29ZM583.64,329.76c-1.28.02-1.29-1.29,0-1.29,1.28-.02,1.29,1.29,0,1.29ZM589.59,332.3c-1.28.02-1.29-1.29,0-1.29,1.28-.02,1.29,1.29,0,1.29ZM589.56,328.42c-1.28.02-1.29-1.29,0-1.29,1.28-.02,1.29,1.29,0,1.29ZM593.51,327.1c-1.28.02-1.29-1.29,0-1.29,1.28-.02,1.29,1.29,0,1.29ZM622.33,347.55c-3.72-.08.09-2,1.31-.87.73.47.14.86-1.31.87ZM627.27,346.22c-1.28.02-1.29-1.29,0-1.29,1.28-.02,1.29,1.29,0,1.29ZM820.79,287.91c-1.28.02-1.29-1.29,0-1.29,1.28-.02,1.29,1.29,0,1.29ZM824.76,290.47c-1.28.02-1.29-1.29,0-1.29,1.28-.02,1.29,1.29,0,1.29ZM825.73,286.59c-3.72-.08.09-2,1.31-.87.73.47.14.86-1.31.87ZM824.71,269.31c1.92-.5,2.88.1,2.89,1.8.02,2.98-.2,3.02-3.37.7-1.89-1.38-1.79-1.91.48-2.5ZM819.74,278.23c.03.83-1.99.85-1.98.01-.03-.83,1.99-.85,1.98-.01ZM697.75,281.53c.72-.48,1.91-.49,2.64-.02,1.84,1.12-4.47,1.17-2.64.02ZM686.84,282.88c1.43-.38,3.13-.35,3.79.07h0c1.89.97-7.73.93-3.79-.07ZM688.41,288.28c9.21-3.05,18.92.13,7.23.99-8.86-.05.15,1.45,2.49,2.29-5.36.35-19.58-.55-9.72-3.28ZM679.34,289.63c.03.83-1.99.85-1.98.01-.03-.83,1.99-.85,1.98-.01ZM671.92,284.27c1.92-.34,4.59-.34,5.94,0h0c3.58.78-10.74.85-5.94,0ZM659.15,285.68c1.43-.38,3.13-.35,3.79.07h0c1.89.97-7.73.93-3.79-.07ZM648.32,287.07c.72-.48,1.91-.49,2.64-.02,1.84,1.12-4.46,1.17-2.64.02ZM637.56,282.75c-5.09-1.81,9.22-1.14,8.09-.75,0,1.25-5.56,1.77-8.09.75ZM634.48,288.47c.72-.48,1.91-.49,2.64-.02,1.84,1.12-4.46,1.17-2.64.02ZM628.87,286.79c1.28-.02,1.29,1.29,0,1.29-1.28.02-1.29-1.29,0-1.29ZM625.55,289.81c1.43-.38,3.13-.35,3.79.07h0c1.89.97-7.73.93-3.79-.07ZM613.68,291.19c1.43-.38,3.13-.35,3.79.07h0c1.89.97-7.73.93-3.79-.07ZM620.01,294.69c-1.88,2.38-7.26.92-12.1,2.12-4.46.58-6.02.43-4.7-.44,2.68-1.78,16.8-3.19,16.81-1.68ZM601.82,292.57c1.43-.38,3.13-.35,3.79.07h0c1.89.97-7.73.93-3.79-.07ZM597.54,280.24c-1.2,3.25-1.27-7.75-.03-4.52h0c.51,1.24.52,3.27.03,4.52ZM597.41,286.68c-1.52,1.22-1.31-4.99.14-2.48.58.93.51,2.04-.14,2.48ZM597.45,272.39c-1.73,1.21-1.75-2.9-.01-1.72.73.47.73,1.24.01,1.72ZM597.23,289.61c1.28-.02,1.29,1.29,0,1.29-1.28.02-1.29-1.29,0-1.29ZM597.73,303.51h0c.48,1.6.48,3.93,0,5.17-.49,1.24-.88-.07-.88-2.91,0-2.84.4-3.86.89-2.25ZM596.66,295.43c.03-2.13.47-2.85.97-1.6h0c1.24,2.12-.9,7.13-.98,1.6ZM597.39,315.44c-1.28.02-1.29-1.29,0-1.29,1.28-.02,1.29,1.29,0,1.29ZM597.09,267.65c-1.28.02-1.29-1.29,0-1.29,1.28-.02,1.29,1.29,0,1.29ZM601.26,301.21c-1.28.02-1.29-1.29,0-1.29,1.28-.02,1.29,1.29,0,1.29ZM676.09,313.28c-16.1,3.45-55.57,15.67-71.67,17.66,9.09-3.89,94.72-25.27,71.67-17.66ZM611.77,320.49c11.18-4.19-1.93-.26-1.05-1.94,2-1.4,17.49-1.95,16.21-.58-3.68,2.08-6.4,1.2-13.14,3.8h0c-13.92,4.8-10.92,1.85-2.01-1.29ZM604.35,319.91c-.03-.83,1.99-.85,1.98-.01.03.83-1.99.85-1.98.01ZM622.12,315.26c1.63-.7,3.85-1.28,4.94-1.29,2.25.71-5.43,2.79-5.92,2.55-1.09,0-.65-.56.98-1.26ZM626.13,322.33c.03.83-1.99.85-1.98.01-.03-.83,1.99-.85,1.98-.01ZM620.2,323.67c.03.83-1.99.85-1.98.01-.03-.83,1.99-.85,1.98-.01ZM610.32,326.33c.03.83-1.99.85-1.98.01-.03-.83,1.99-.85,1.98-.01ZM628.1,321.02c-.03-.83,1.99-.85,1.98-.01.03.83-1.99.85-1.98.01ZM637.95,315.14c-3.72-.08.09-2,1.31-.87.73.47.14.86-1.31.87ZM637.98,319.01c-3.72-.08.09-2,1.31-.87.73.47.14.86-1.31.87ZM636.95,312.56c-5.43,1.57-8.55,1.59-4.95.04,1.36-1.05,11.28-2.05,4.95-.04ZM634.02,319.69c.03.83-1.99.85-1.98.01-.03-.83,1.99-.85,1.98-.01ZM630.7,315.62c.72-.48,1.91-.49,2.64-.02,1.84,1.12-4.46,1.17-2.64.02ZM642.55,312.95c.72-.48,1.91-.49,2.64-.02,1.84,1.12-4.46,1.17-2.64.02ZM642.54,310.37c.72-.48,1.91-.49,2.64-.02,1.84,1.12-4.46,1.17-2.64.02ZM642.91,316.39c1.28-.02,1.29,1.29,0,1.29-1.28.02-1.29-1.29,0-1.29ZM648.82,312.47c-1.28.02-1.29-1.29,0-1.29,1.28-.02,1.29,1.29,0,1.29ZM649.83,315.69c.03.83-1.99.85-1.98.01-.03-.83,1.99-.85,1.98-.01ZM662.67,306.3c-7.33,1.96-10.7,3.43-8.88,3.89h0c1.61.4,2.04.77.95.82-11.74.58-.71-5.06,13.8-7.05,3.26-.45.62.61-5.88,2.34ZM670.21,306.28c.72-.48,1.91-.49,2.64-.02,1.84,1.12-4.46,1.17-2.64.02ZM669.58,310.38c.03.83-1.99.85-1.98.01-.03-.83,1.99-.85,1.98-.01ZM665.61,308.47c-3.72-.08.09-2,1.31-.87.73.47.14.86-1.31.87ZM662.66,311.07c1.28-.02,1.29,1.29,0,1.29-1.28.02-1.29-1.29,0-1.29ZM660.67,309.8c-1.29.02-1.29-1.29,0-1.29,1.28-.02,1.29,1.29,0,1.29ZM659.7,313.03c.03.83-1.99.85-1.98.01-.03-.83,1.99-.85,1.98-.01ZM653.78,314.37c.03.83-1.99.85-1.98.01-.03-.83,1.99-.85,1.98-.01ZM676.82,308.81c1.84,1.12-4.46,1.17-2.64.02.72-.48,1.91-.49,2.64-.02ZM676.14,304.94c.72-.48,1.91-.49,2.64-.02,1.84,1.12-4.47,1.17-2.64.02ZM680.45,308.36c-1.28.02-1.29-1.29,0-1.29,1.28-.02,1.29,1.29,0,1.29ZM678.43,303.2c-6.36-1.92,3.57-1.06,4.95-.04,3.63,1.5.5,1.52-4.95.04ZM685.35,301.86c-3.72-.08.09-2,1.31-.87.73.47.14.86-1.31.87ZM687.36,306.37c.03.83-1.99.85-1.98.01-.03-.83,1.99-.85,1.98-.01ZM694.79,308.58h0c-2.45.37-6.23,1.08-8.4,1.59-2.17.51-.84-.28,2.96-1.74,7.71-2.97,9.87-3.33,9.88-1.65,0,.63-1.99,1.44-4.44,1.81ZM690.3,303.11c-1.28.02-1.29-1.29,0-1.29,1.28-.02,1.29,1.29,0,1.29ZM692.29,304.39c1.28-.02,1.29,1.29,0,1.29-1.28.02-1.29-1.29,0-1.29ZM695.24,301.14c-.03-.83,1.99-.85,1.98-.01.03.83-1.99.85-1.98.01ZM698.23,304.35c-1.28.02-1.29-1.29,0-1.29,1.28-.02,1.29,1.29,0,1.29ZM700.44,295.6c.48,3.29-13.24,6.6-10.16,3.64.67-.72,3.17-1.32,5.55-1.35,3.23-.04,3.64-.33,1.6-1.16-1.72-.7-5.76-.21-10.87,1.29-7.59,2.66-20.62,3.24-26.91,5.98-1.63.9-14.07,4.2-27.65,7.33h0c-13.58,3.13-25.76,5.96-27.05,6.29-3.55.73-2.01-5.17.77-4.82,2.82.48,2.96-5.06,1.22-2.92-.15,1.21-5.18,2.53-4.14.9.62-.41.38-2.44-.55-4.51-4.5-6.48,10.57-3.75,5.63-6.56-3.56-1.44-.25-1.42,8.23.05,6.45,1.12,6.65,1.07,2.95-.75-3.78-1.86-3.68-1.91,1.97-1.09,10.67,1.55,14.9,3.57,8.6,4.11-6.88.58-8.9,3.96-3.17,5.3,3.45.81,15.68-.53,19.03-2.08,2.54-1.18-2.68-5.65-6.55-5.62-2.52.02-7.14-.85-10.27-1.93-4.24-1.47-4.68-1.9-1.72-1.73,4.6.33,24.66-3.66,6.91-2-27.78,1.95-3.11-2.29,40.51-6.96,11.48-1.23-1.39,1.58-15.81,3.44-7.61.99-12.72,2.03-11.35,2.32,1.37.29,1.9,1.16,1.17,1.94-.86.92-.07,1.09,2.26.49,13.82-3.21,29.29-2.97,38.51-1.22,9.83.2-6.73-2.87-8.83-3.69,7.19.89,22.96,1.16,20.11,5.31ZM633.26,303.98c1.84,1.12-4.47,1.17-2.64.02.72-.48,1.91-.49,2.64-.02ZM671.43,290.99c.03.83-1.99.85-1.98.01-.03-.83,1.99-.85,1.98-.01ZM657.59,293.03c-3.72-.08.09-2,1.31-.87.73.47.14.86-1.31.87ZM700.12,291.41c-1.28.02-1.29-1.29,0-1.29,1.28-.02,1.29,1.29,0,1.29ZM701.18,302.39c-.03-.83,1.99-.85,1.98-.01.03.83-1.99.85-1.98.01ZM703.18,305.6c-3.72-.08.09-2,1.31-.87.73.47.14.86-1.31.87ZM704.53,294.93c-1.04,5.03-1.16-12.12-.05-7.1.47,1.95.49,5.15.05,7.1ZM704.02,282.34c-1.28.02-1.29-1.29,0-1.29,1.28-.02,1.29,1.29,0,1.29ZM709.69,304.82c-2.82.72-3.04.58-1.11-.71,2.7-2.05,6.04-.59,1.11.71ZM707.77,300.83c.72-.48,1.91-.49,2.64-.02,1.84,1.12-4.46,1.17-2.64.02ZM713.02,297.77c-3.72-.08.09-2,1.31-.87.73.47.14.86-1.31.87ZM715.67,299.48c.72-.48,1.91-.49,2.64-.02,1.84,1.12-4.47,1.17-2.64.02ZM717.84,302.8c-2.31-.04-2.78-.35-1.2-.77,2.64-.95,6.6.79,1.2.77ZM722.92,298.35c-.03-.83,1.99-.85,1.98-.01.03.83-1.99.85-1.98.01ZM724.92,301.56c-3.72-.08.09-2,1.31-.87.73.47.14.86-1.31.87ZM729.86,300.23c-1.28.02-1.29-1.29,0-1.29,1.28-.02,1.29,1.29,0,1.29ZM729.84,297.65c-1.28.02-1.29-1.29,0-1.29,1.28-.02,1.29,1.29,0,1.29ZM729.78,288.61c-1.28.02-1.29-1.29,0-1.29,1.28-.02,1.29,1.29,0,1.29ZM735.78,298.89c-1.28.02-1.29-1.29,0-1.29,1.28-.02,1.29,1.29,0,1.29ZM735.77,296.31c-1.28.02-1.29-1.29,0-1.29,1.29-.02,1.29,1.29,0,1.29ZM735.73,291.14c-1.28.02-1.29-1.29,0-1.29,1.28-.02,1.29,1.29,0,1.29ZM739.7,292.41c-1.28.02-1.29-1.29,0-1.29,1.28-.02,1.29,1.29,0,1.29ZM740.7,294.34c-.03-.83,1.99-.85,1.98-.01.03.83-1.99.85-1.98.01ZM742.7,297.55c-3.72-.08.09-2,1.31-.87.73.47.14.86-1.31.87ZM742.65,289.8c-4.36-1.98,2.44-1.27,2.97-.02,1.53,1.59.84,1.6-2.97.02ZM748.63,296.21c-3.72-.08.09-2,1.31-.87.73.47.14.86-1.31.87ZM748.61,293.63c-3.72-.08.09-2,1.31-.87.73.47.14.86-1.31.87ZM754.53,291.65c-.03-.83,1.99-.85,1.98-.01.03.83-1.99.85-1.98.01ZM756.53,294.86c-3.72-.08.09-2,1.31-.87.73.47.14.86-1.31.87ZM759.46,288.07h0c-3.12-1.12-5.91,1.83-9.89.42-7.96-1.55,11-2.3,10.29-.86.68.76.5.96-.4.44ZM761.47,293.53c-1.28.02-1.29-1.29,0-1.29,1.28-.02,1.29,1.29,0,1.29ZM761.45,290.95c-1.29.02-1.29-1.29,0-1.29,1.28-.02,1.29,1.29,0,1.29ZM766.41,292.2c-3.72-.08.09-2,1.31-.87.73.47.14.86-1.31.87ZM767.38,289.61c-1.28.02-1.29-1.29,0-1.29,1.28-.02,1.29,1.29,0,1.29ZM774.31,290.85c-3.72-.08.09-2,1.31-.87.73.47.14.86-1.31.87ZM775.29,288.26c-1.28.02-1.29-1.29,0-1.29,1.28-.02,1.29,1.29,0,1.29ZM780.24,289.51c-3.72-.08.09-2,1.31-.87.73.47.14.86-1.31.87ZM780.22,286.93c-3.72-.08.09-2,1.31-.87.73.47.14.86-1.31.87ZM780.19,281.77c-.16-2.01-4.48,0-2.75,1.52.7.73-.85.6-3.43-.27-4.43-1.51-4.53-1.46-1.72.77,2.67,2.12,2.65,2.29-.17,1.62-1.73-.41-4.36-.25-5.83.36-7.07,1.12-9.34-1.92-19.8.91-7.48,1.51-11.57,1.74-14.55.82-8.65-2.65-14.49-2.47-14.21.44-.78,4.78,11.92-.25,10.55,4.51-.38,4.63-1.52,1.93-6.74,1.37-5.2-1.17-5.32-1.13-1.72.66,2.12,1.05,3.01,1.83,1.99,1.72.81-.37-20-.57-11.77-2.34,10.08-2.36-14.82,1.11-.47-8.46-1.37,1.08,4.53.96,2.72-.11-.54-.35-1.32-.43-1.99-.26,20.22-5.16,42.77-5.22,99.48-13.8,9.84-1.34,13.66-.77,4.72.7-8.5,1.39-11.92,3.51-7.32,4.53,2.63.58.32,1.46-8.2,3.1-7.79.82-16.25,4.78-18.78,2.21ZM724.83,288c.03.83-1.99.85-1.98.01-.03-.83,1.99-.85,1.98-.01ZM813.19,278.95c1.3-.02,2.91.54,3.59,1.24h0c1.53,1.59.84,1.6-2.97.02-1.79-.74-2.04-1.25-.62-1.27ZM811.8,274.42c-.03-.83,1.99-.85,1.98-.01.03.83-1.99.85-1.98.01ZM809.87,282.19c.03.83-1.99.85-1.98.01-.03-.83,1.99-.85,1.98-.01ZM805.9,280.92c.03.83-1.99.85-1.98.01-.03-.83,1.99-.85,1.98-.01ZM803.94,283.52c.03.83-1.99.85-1.98.01-.03-.83,1.99-.85,1.98-.01ZM799.98,282.26c.03.83-1.99.85-1.98.01-.03-.83,1.99-.85,1.98-.01ZM798.02,284.86c.03.83-1.99.85-1.98.01-.03-.83,1.99-.85,1.98-.01ZM794.05,283.6c.03.83-1.99.85-1.98.01-.03-.83,1.99-.85,1.98-.01ZM785.15,284.35c.48-.25,8.19,1.71,5.95,2.46-.48.25-8.19-1.71-5.95-2.46ZM786.16,287.53c.03.83-1.99.85-1.98.01-.03-.83,1.99-.85,1.98-.01ZM802.98,287.93c-4.54,1.24-13.72,4.11-18.37,4.12-14.34.18,41.83-10.13,41.07-12.05-.02-2.07-6.46,1.92-2.24-1.54,3.83-3.12,5.38-2.76,5.3,1.25,2.36,5.39-23.14,6.51-25.76,8.23Z" fill="#19df00" stroke="#ff634a" stroke-miterlimit="10" stroke-width="1.03"/><path d="M820.9,3.28c3.49-.13,7.01-.27,10.37-.42-.65-.78-1.28-1.58-1.95-2.34-4.79.26-8.84.45-12.32.6,1.36.7,2.66,1.42,3.9,2.16Z" fill="#19df00" stroke="#ff634a" stroke-miterlimit="10" stroke-width="1.03"/><path d="M838.4,155.37c-1.31.54-2.12-21.7-2.4-65.74-.02-2.92-.04-5.68-.06-8.36-4.37.67-9.08-.67-12.26-4.04-8.58.71-12.4-6.43-12.98-13.36l-1.13,12.93c-.7-3.21-2.1-9.68-2.8-12.9-2.66,38.05-10.26-24.53-6.02-28.68,4.67-4.44-10.49-8.02-47.28-11.15-18.2-5.16-78.36-2.81-103.84,4.56.22,2.75-.74,16.73,2.08,15.78,2.78-.57.78-12.76,4.37-12.32,1.97-.03,1.97-.24,0-1.04-4.02-1.63,15.45-5.65,28.4-5.86,66.37-1.56,65.59.58,105.47,5.76,5.82.64,11.45,3.93,6.78,3.97-3.82.03-1.41,34.96,2.19,45.72,2.65-1.66,4.79,1.54.22.6.58,1.55,1.18,2.48,1.78,2.52,11.01.8,13.92.64,14.67-.77,2.05-2.25-8.55.51-6.86-1.03,1.92-3.6-8.36-5.19,5.48-3.92,13.43,1.35,12.08-.87,12.69,20.91.18,6.57.96,11.94,1.73,11.94.77,0,.97,2.17.46,4.84-1.67,8.59-1.72,37.08-.06,39.4.89,1.24.91,2.25.06,2.26-1.86-.63-3.38,23.7-.21,21.96,1.65-.01,1.63.47-.06,1.82-1.6,1.28-1.66,2.09-.19,2.67,1.16.46,1.5,1.49.76,2.29-.44.47-.76,6.52-.9,15.44,1.53-1.23,3.45-2.26,5.75-3.02-.5.32-1.51.02-1.49-.5.01-1.13,2.89-.59,1.7.43.89-.29,1.84-.52,2.85-.72.18-23.95.54-40.43,1.12-40.44,2.4.13,2.75-3.02,0-1.94ZM830.3,177.61c-1.73,1.21-1.75-2.9-.01-1.72.73.47.73,1.24.01,1.72ZM832.37,88.9c-.02-2.33,3.1-.19,1.32.85-.72.48-1.32.1-1.32-.85ZM833.9,106.65c-1.04,5.03-1.16-12.12-.05-7.1.47,1.95.49,5.15.05,7.1ZM834.39,191.9c-1.2,3.25-1.27-7.75-.03-4.52h0c.51,1.24.52,3.27.03,4.52ZM834.36,180.92c-1.1,4.01-1.19-9.81-.04-5.81.48,1.59.5,4.21.04,5.81ZM834.26,166.71c-1.1,4.01-1.19-9.81-.04-5.81.48,1.6.5,4.21.04,5.81ZM833.74,148.31c-1.28.02-1.29-1.29,0-1.29,1.28-.02,1.29,1.29,0,1.29ZM832.85,139.81c.23-3.6,2.61,1.07,1.05,1.69-.65.43-1.13-.32-1.05-1.69ZM833.66,136.68c-1.28.02-1.29-1.29,0-1.29,1.28-.02,1.29,1.29,0,1.29ZM832.78,128.19c.09-1.51.55-1.81,1.19-.79,1.44,1.92-1.33,4.23-1.19.79ZM833.57,122.47c-1.28.02-1.29-1.29,0-1.29,1.28-.02,1.29,1.29,0,1.29Z" fill="#19df00" stroke="#ff634a" stroke-miterlimit="10" stroke-width="1.03"/><path d="M538.58,319.77c-2.04.02-3.24.52-2.66,1.13,1.56,1.69-10.76-.94-7.92,1.33.7,3.4-13.46-3.46-15.65,5.83h0c-1.63,4.31,3.99,4.72,20.12,1.47,10.68-2.15,15.49-9.83,6.12-9.75ZM519.31,325.08c-3.72-.08.09-2,1.31-.87.73.47.14.86-1.31.87ZM522.31,330.22c-1.28.02-1.29-1.29,0-1.29,1.28-.02,1.29,1.29,0,1.29ZM528.22,326.3c-1.28.02-1.29-1.29,0-1.29,1.28-.02,1.29,1.29,0,1.29ZM530.21,328.87c-1.28.02-1.29-1.29,0-1.29,1.28-.02,1.29,1.29,0,1.29ZM536.14,327.54c-1.28.02-1.29-1.29,0-1.29,1.28-.02,1.29,1.29,0,1.29ZM536.12,324.95c-1.28.02-1.29-1.29,0-1.29,1.28-.02,1.29,1.29,0,1.29Z" fill="#19df00" stroke="#ff634a" stroke-miterlimit="10" stroke-width="1.03"/><path d="M404.21,349.53c-4.34.18,1.05-3.96-5.9-2.03-2.63,1.32-13.15.17-14.32,1.93,1.36,1.48-8.67-1.14-6.3.95,2.39,2.21-8.28-.86-5.94,1.32,2.03,1.38-5,3.52-3.61,1.64.66-.71.48-1.26-.4-1.23-2.59.09-11.66,3.82-9.49,3.89,1.09.04.42.67-1.47,1.41-4.8,1.87-4.3,3.79,1.01,3.85,4.28.05,4.3.11.5,1.31h0c-4.29,1.36-5.14,1.42,13.33-.91,4.07-.51,6.95-1.39,6.41-1.95-1.41-1.55,8.63,1.1,6.26-.99-2.39-2.22,8.32.88,5.93-1.34-2.3-2.41,9.19,1.33,5.6-1.67-1.21-1.26-.72-1.48,1.91-.84,4.68,1.89,13.38-4.53,6.47-5.34ZM358.28,359.89c-1.28.02-1.29-1.29,0-1.29,1.28-.02,1.29,1.29,0,1.29ZM364.19,355.97c-1.28.02-1.29-1.29,0-1.29,1.28-.02,1.29,1.29,0,1.29ZM366.19,358.54c-1.28.02-1.29-1.29,0-1.29,1.28-.02,1.29,1.29,0,1.29ZM369.17,361.1c-3.72-.08.09-2,1.31-.87.73.47.14.86-1.31.87ZM383.47,354.98c-8.19,1.51-25.36,4.18-3.8-.94,8.74-2.06,13.3-.88,3.8.94ZM392.86,353.17c-3.72-.08.09-2,1.31-.87.73.47.14.86-1.31.87ZM397.8,351.84c-1.28.02-1.29-1.29,0-1.29,1.28-.02,1.29,1.29,0,1.29ZM403.74,353.08c-1.28.02-1.29-1.29,0-1.29,1.28-.02,1.29,1.29,0,1.29Z" fill="#19df00" stroke="#ff634a" stroke-miterlimit="10" stroke-width="1.03"/><path d="M462.73,295.54c.91.34,17.11-2.14,9.88-2.14-.91-.34-17.11,2.14-9.88,2.14Z" fill="#19df00" stroke="#ff634a" stroke-miterlimit="10" stroke-width="1.03"/><path d="M495.35,291.42c2.15-.9,1.6-1.03-1.98-.48-3.58,1.11-13.69-.18-15.81,2.22.01,1.53,13.01.26,17.8-1.74Z" fill="#19df00" stroke="#ff634a" stroke-miterlimit="10" stroke-width="1.03"/><path d="M508.2,290.76c5.44-.48,11.22-1.38,12.85-2.02,5.88-2.54-34.47,3.48-12.85,2.02Z" fill="#19df00" stroke="#ff634a" stroke-miterlimit="10" stroke-width="1.03"/><path d="M817.53,247.24c-2.19-.44-3.48-1.34-2.86-2,2.11-2.26-1.24-1.2-6.57,2.08-6.99,4.69-.94,1.79-.4,5.17h0c.02,2.35,6.12,2.51,9.79.25,2.15-1.32,2.35-1.29,1.08.19-2.93,3.94,8.84-2.64-1.04-5.69ZM812.63,250.52c-1.28.02-1.29-1.29,0-1.29,1.28-.02,1.29,1.29,0,1.29Z" fill="#19df00" stroke="#ff634a" stroke-miterlimit="10" stroke-width="1.03"/><path d="M645.79,149.22c-23.82-1.22-4.95,5.56-11.13,9.23-2.05,1.64-1.92,2.27.76,3.52h0c3.58,1.68,16.75,1.05,18.55-.88,2.25-2.41-3.37-4.85-9.29-4.03-8.79,1.17-6.55-2.43,1.21-2.16,12.41-.09,12.33-4.51-.1-5.68ZM649.81,158.75c1.28-.02,1.29,1.29,0,1.29-1.28.02-1.29-1.29,0-1.29ZM642.36,160.61h0c1.89.97-7.73.93-3.79-.07,1.43-.38,3.13-.35,3.79.07ZM642.84,152.34c-3.72-.08.09-2,1.31-.87.73.47.14.86-1.31.87ZM649.76,152.29c-.9,1.18-3.73,2.17-1.98.01.9-1.18,3.73-2.17,1.98-.01Z" fill="#19df00" stroke="#ff634a" stroke-miterlimit="10" stroke-width="1.03"/><path d="M521.13,300.52c-10.92,4.19,34.14-4.33,18.43-5.33-2.73,0-2.98-.27-1-1.1,1.82-.77.15-1.5-5.44-2.38-4.44-.7-7.62-.81-7.07-.23,1.44,1.5-10.18,3.08-22.29,3.03-5.73-.02-9.95.44-9.38,1.04.57.59-.02,1.31-1.31,1.6-3.92.88-.07,4.87,4.76,4.93,4.3.05,4.33.11.56,1.26-2.75.84-1.56.94,3.96.36,11.7-1.25,15.05-4.57,4.31-4.26-4.18.12-4.19.16-.37,1.2,2.5.68,2.87,1.09,1,1.1-4.58.03-11.8-2.11-7.6-2.25,5.78-.38,2.73-4.48,10.3-1.77,2.96.86,7.35,1.55,9.75,1.54,3.54-.01,3.8.23,1.4,1.26ZM527.05,299.19c-3.72-.08.09-2,1.31-.87.73.47.14.86-1.31.87ZM538.37,297.03h0c1.89.97-7.73.93-3.79-.07,1.43-.38,3.13-.35,3.79.07ZM531.63,293.12c.72-.48,1.91-.49,2.64-.02,1.84,1.12-4.46,1.17-2.64.02ZM528.02,295.3c6.36,1.92-3.57,1.06-4.95.04-3.63-1.5-.5-1.52,4.95-.04ZM513.19,296.71c-3.72-.08.09-2,1.31-.87.73.47.14.86-1.31.87ZM519.95,297.85c-5.56-.18,1.95-1.68,2.59-.7h0c.66.42-.51.74-2.59.7Z" fill="#19df00" stroke="#ff634a" stroke-miterlimit="10" stroke-width="1.03"/><path d="M578.09,235.86c.43-1.53-6.22-3.92-4.84-5.63.59-.63-.2-1.14-1.76-1.13-2.69.02-4.08,5.79-1.95,8.09,1.89,2.04,2.83.81,1.5-1.95-1.39-2.87-1.37-2.87,2.83-.47,2.33,1.34,4.23,1.83,4.23,1.09Z" fill="#19df00" stroke="#ff634a" stroke-miterlimit="10" stroke-width="1.03"/><path d="M633.63,145.33c1.97,3.3,18.08,2.01,18.06-1.45-.01-2.27-1.1-2.52-8.92-2.06-10.35.61-10.78.77-9.14,3.51h0ZM649.71,143.25c1.28-.02,1.29,1.29,0,1.29-1.28.02-1.29-1.29,0-1.29ZM638.46,143.74c1.43-.38,3.13-.35,3.79.07h0c1.89.97-7.73.93-3.79-.07Z" fill="#19df00" stroke="#ff634a" stroke-miterlimit="10" stroke-width="1.03"/><path d="M556.41,270.22h0c-.84.27,14.9.78,12.99-1.07-.68-.71.16-1.29,1.85-1.31,4,0,3.98-3.94-.03-3.88-1.7.01-2.54-.56-1.87-1.28.71-.76-1.35-1.28-4.95-1.25M564.43,266.61c-3.72-.08.09-2,1.31-.87.73.47.14.86-1.31.87Z" fill="#19df00" stroke="#ff634a" stroke-miterlimit="10" stroke-width="1.03"/><path d="M578.8,192.87c-1.28.02-1.29-1.29,0-1.29,1.28-.02,1.29,1.29,0,1.29Z" fill="#19df00" stroke="#ff634a" stroke-miterlimit="10" stroke-width="1.03"/><path d="M470.21,270.55h0c1.9,3.19,19.09,2.53,19.07-.73M472.46,271.18c-1.28.02-1.29-1.29,0-1.29,1.28-.02,1.29,1.29,0,1.29Z" fill="#19df00" stroke="#ff634a" stroke-miterlimit="10" stroke-width="1.03"/><path d="M403.3,285.8h0c1.15,15.5,5.15-5.02,1.45-6.35-.82,0-1.47,2.87-1.45,6.35Z" fill="#19df00" stroke="#ff634a" stroke-miterlimit="10" stroke-width="1.03"/><path d="M335.22,448.82c2.88-1.77,4.38-3.56,3.33-3.97-10.43,1.64-43.43,34.38-45.76,35.99,0,2.07,3.93.8,6.17-1.98,3.26-4.06,29.89-26.11,36.26-30.03Z" fill="#19df00" stroke="#ff634a" stroke-miterlimit="10" stroke-width="1.03"/><path d="M362.06,25.3c17.09,3.63,3.99-2.57-3.96-1.08l3.96,1.08h0Z" fill="#19df00" stroke="#ff634a" stroke-miterlimit="10" stroke-width="1.03"/><path d="M299.74,24.78c0,.74,1.9.9,4.45.37,14.85-1.82,49.19.13,46.05-1.37-6.77-2.41-50.52-1.55-50.5,1Z" fill="#19df00" stroke="#ff634a" stroke-miterlimit="10" stroke-width="1.03"/><path d="M351.77,12.88c-1.85,1.23,8.35,9.75,12.25,10.24h0c8.05,1,9.73.54,3.95-1.08-5.04-.57-12.67-8.4-16.2-9.16Z" fill="#19df00" stroke="#ff634a" stroke-miterlimit="10" stroke-width="1.03"/><path d="M298.32,5.12c1.47-.01,6.16,1.66,10.41,3.71,9.87,4.76,13.76,5,5.24.33-7.06-3.87-18.34-7.07-18.33-5.2,0,.65,1.21,1.17,2.68,1.16Z" fill="#19df00" stroke="#ff634a" stroke-miterlimit="10" stroke-width="1.03"/><path d="M191.2,221.65c-1.28.02-1.29-1.29,0-1.29,1.28-.02,1.29,1.29,0,1.29Z" fill="#19df00" stroke="#ff634a" stroke-miterlimit="10" stroke-width="1.03"/><path d="M631.51,236.39c-2.04.02-2.75,4.24-.91,5.42h0c5.07,3.26,14.38-2.47,10.88-6.69-2.56-3.08-8.02-3.55-8-.69,0,1.07-.88,1.94-1.97,1.95ZM632.53,241.55c-1.28.02-1.29-1.29,0-1.29,1.28-.02,1.29,1.29,0,1.29ZM636.44,233.77c1.28-.02,1.29,1.29,0,1.29-1.28.02-1.29-1.29,0-1.29Z" fill="#19df00" stroke="#ff634a" stroke-miterlimit="10" stroke-width="1.03"/><path d="M756.89,218.65c8.38-.06,9.04-.31,9.02-3.37-.03-4.7-16.45-4.21-17.45.53-.56,2.65.18,2.91,8.43,2.84ZM756.12,214.36c6.96-1.27,7.8-1.16,7.81,1h0c.01,2.09-2.69,2.35-8.79.84-3.57-.88-3.5-1.02.98-1.84Z" fill="#19df00" stroke="#ff634a" stroke-miterlimit="10" stroke-width="1.03"/><path d="M774.05,111.1c-9.19.55-11.04,2.7-7.48,8.67,1.62,2.71,12.34,1.58,16.03-1.7,1.35-1.2,2.46-1.69,2.47-1.08s.48.79,1.07.41c4.1-2.72-3.72-6.8-12.08-6.3ZM774.19,117.76c-6.48.06-6.35-3.23-.02-3.58,6.72-.67,6.44,3.77.02,3.58Z" fill="#19df00" stroke="#ff634a" stroke-miterlimit="10" stroke-width="1.03"/><path d="M764.15,172.8c.02,2.88.81,3.15,8.79,3.09,4.91-.04,8.27-.59,7.63-1.26-.63-.66-.24-1.57.86-2.02,9.83-4.34-17.8-7.95-17.28.19ZM772.55,170.73c3.85-.05,3.86,2.58.02,2.58-3.85.05-3.86-2.58-.02-2.58Z" fill="#19df00" stroke="#ff634a" stroke-miterlimit="10" stroke-width="1.03"/><path d="M788.33,197.19c1.16,1.95,3.17,2.24,7.62,1.08,3.56-.92,2.07-8.36-1.67-8.33-3.41.03-7.38,4.86-5.95,7.25Z" fill="#19df00" stroke="#ff634a" stroke-miterlimit="10" stroke-width="1.03"/><path d="M823.28,214.27c-.02-3.43-.7-3.87-5.84-3.83-6.72.05-8.8,1.6-7,5.23,2.26,4.58,12.88,3.42,12.85-1.4ZM816.48,215.61c-3.16.23-4.34-2.22-1.24-2.57,1.91-.14,5.58,2.44,1.24,2.57Z" fill="#19df00" stroke="#ff634a" stroke-miterlimit="10" stroke-width="1.03"/><path d="M775.06,253.38c-1.67,1.87,12.08,1.53,10.38-.4-.7-2.24,4.61-.47,4.44-2.39-.01-1.63-5.12-5.16-6.33-4.36-.46.3-3.68.71-7.15.91-6.59.38-9.59,5-3.21,4.96,1.7-.01,2.54.56,1.87,1.28h0ZM778.67,249.91c.72-.48,1.91-.49,2.64-.02,1.84,1.12-4.46,1.17-2.64.02Z" fill="#19df00" stroke="#ff634a" stroke-miterlimit="10" stroke-width="1.03"/><path d="M823,170.35c-1.4,1.43-1.92,1.5-1.95.25-2-4.39-18.72,2.12-7.24,4.44,2.01.18,4.1.61,4.65.97h0c6.52,3.13,8.46-9.7,4.54-5.66ZM814.11,173c-1.28.02-1.29-1.29,0-1.29,1.28-.02,1.29,1.29,0,1.29ZM818.07,172.97c-1.28.02-1.29-1.29,0-1.29,1.28-.02,1.29,1.29,0,1.29Z" fill="#19df00" stroke="#ff634a" stroke-miterlimit="10" stroke-width="1.03"/><path d="M789.39,173.83h0c4.42,3.42,12.79,1.37,11.53-2.83-.54-4.8-17.57-2.55-11.53,2.83Z" fill="#19df00" stroke="#ff634a" stroke-miterlimit="10" stroke-width="1.03"/><path d="M762.19,263.36c12.85,1.62,9.43-8.97,5.11-8.95-3.64,1.07-7.92.29-5.09-.93,5.98-1.97-6.8-1.51-5.08-.1.61.63-.23,1.49-1.85,1.91-3.54.92-3.9,7.44-.52,9.61h0c.89,1.63,14.95,1.66,6.53.58-7.31-1.09-6.82-2.26.9-2.13ZM758.28,259.46c-.09-.6,6.02-2.46,5.93-.79.29,1.49-5.76,1.52-5.93.79Z" fill="#19df00" stroke="#ff634a" stroke-miterlimit="10" stroke-width="1.03"/><path d="M782.39,218.86c2.67-2.98.59-7.17-4.1-8.26-7.27-1.69-9.79,6.73-2.6,8.67,3.99,1.08,5.45.99,6.7-.41ZM779.35,216.07c-1.88,3.66-5.4-4.78-.38-2.41h0c.66.42.83,1.51.38,2.41Z" fill="#19df00" stroke="#ff634a" stroke-miterlimit="10" stroke-width="1.03"/><path d="M784.74,198.63c1.49-2.58-2.83-8.89-5.65-8.26-2.76.62-4.29,5.4-2.63,8.19h0c1.38,2.31,6.95,2.36,8.28.07Z" fill="#19df00" stroke="#ff634a" stroke-miterlimit="10" stroke-width="1.03"/><path d="M765.37,151.58c-6.18,7.52,19.86,5.08,17.99,2.61.01-1.93.3-1.98,1.95-.34,2.82,3.75,2.49-4.57-.02-3.23-1.09.45-1.98.2-1.98-.55-.02-2.76-15.54-1.45-17.93,1.52ZM778.69,151.74c.73.47.73,1.24.01,1.72-1.73,1.21-1.75-2.9-.01-1.72ZM772.43,152.65c1.28-.02,1.29,1.29,0,1.29-1.28.02-1.29-1.29,0-1.29Z" fill="#19df00" stroke="#ff634a" stroke-miterlimit="10" stroke-width="1.03"/><path d="M788.8,218.08c2.09,4.42,11.43.47,9.65-4.08-1.09-2.77-2.39-3.37-6.77-3.12-5.44.31-5.76,1.12-2.88,7.2Z" fill="#19df00" stroke="#ff634a" stroke-miterlimit="10" stroke-width="1.03"/><path d="M649.66,212.49c4.69-2.37,4.32-4.24-1.02-5.13-25.52-4.76-11.07,11.87,1.02,5.13ZM643.87,209.55c5.56.06,6.31.38,4.19,1.78-3.31,2.19-5.76,2.18-8.64-.06-1.91-1.48-1.14-1.78,4.45-1.72Z" fill="#19df00" stroke="#ff634a" stroke-miterlimit="10" stroke-width="1.03"/><path d="M473.11,15.75c3.78,1.77,13.99-.9,18.84-.48,6.16.32,5.49-2.52,1.73-2,.21.79-21.49.66-20.57,2.48h0Z" fill="#19df00" stroke="#ff634a" stroke-miterlimit="10" stroke-width="1.03"/><path d="M653.45,263.35c-1.65,1.69-1.91,1.66-1.95-.22-.1-5.05-9.92-7.01-16.97-3.38-1.14.59-4.15.73-6.69.31-3.44-.56-4.36-.29-3.6,1.05.56.99,2.02,1.65,3.24,1.46,2.61-.54,2.97,2.11.63,2.26-.88,0-1.61,2.61-1.61,5.77-.89,9.38,4.96,1.75,5.16-1.39.02-1.48,1.34-2.7,2.93-2.71s2.43.47,1.87,1.06c-1.58,1.33,12.91,1.58,9.88-.51-2.65-2.59,7.88,1.96,9.05-4.31-.02-.75-.9-.48-1.94.6ZM637.6,260.89c-3.72-.08.09-2,1.31-.87.73.47.14.86-1.31.87Z" fill="#19df00" stroke="#ff634a" stroke-miterlimit="10" stroke-width="1.03"/><path d="M167.5,166.63c-.46,1.59-.84-.01-.85-3.56,0-3.55.37-4.85.84-2.89h0c.47,1.96.47,4.87.01,6.46ZM167.02,154.66c-1.28.02-1.29-1.29,0-1.29,1.28-.02,1.29,1.29,0,1.29ZM170.96,152.05c1.28-.02,1.29,1.29,0,1.29-1.28.02-1.29-1.29,0-1.29ZM174.05,160.55l-1.95,5.05c.08-1.82,2.72-10.52-.73-8.88-4.45,2.12,7.61-8.05,2.68,3.82ZM177.31,164.49c-1.73,1.21-1.75-2.9-.01-1.72.73.47.73,1.24.01,1.72ZM176.89,150.71c-1.29.02-1.29-1.29,0-1.29,1.28-.02,1.29,1.29,0,1.29ZM620.42,148.39c.58.93.51,2.04-.14,2.48-1.52,1.22-1.31-4.99.14-2.48ZM596.58,188.86c-1.28.02-1.29-1.29,0-1.29,1.28-.02,1.29,1.29,0,1.29ZM596.56,186.28c-1.28.02-1.29-1.29,0-1.29,1.28-.02,1.29,1.29,0,1.29ZM595.55,182.41c-.02-2.33,3.09-.19,1.32.85-.72.48-1.32.1-1.32-.85ZM612.64,192.26c-1.52,1.22-1.31-4.99.14-2.48.58.93.51,2.04-.14,2.48ZM612.32,174.53c1.28-.02,1.29,1.29,0,1.29-1.28.02-1.29-1.29,0-1.29ZM613.23,184.78c-.11,2.98-.28,3.05-1.76.74h0c-1.33-2.08-1.8-1.59-2.48,2.6-.62,3.79-.93,2.93-1.16-3.22-.29-7.64-.06-8.17,2.6-5.91,1.61,1.37,2.87,3.97,2.8,5.79ZM606.68,169.59c2.97,1.69,3.83,1.91.01,1.97-3.17.3-3.92-4.39-.01-1.97ZM602.36,165.57c1.28-.02,1.29,1.29,0,1.29-1.28.02-1.29-1.29,0-1.29ZM599.07,162.24c1.26.5,2.29,1.16,2.29,1.47.36,2.39-6.31-2.85-2.29-1.47ZM596.39,159.15c1.28-.02,1.29,1.29,0,1.29-1.28.02-1.29-1.29,0-1.29ZM596.37,166.18c6.34,5.26.74,18.83-.93,12.68.67-.36-4.59-18.79.93-12.68Z" fill="#19df00" stroke="#ff634a" stroke-miterlimit="10" stroke-width="1.03"/><path d="M635.99,194.44c2.57,1.2,2.76,1.75.81,2.28h0c-2.83.97,21.19.76,9.29-.35-5-.68-5.36-.96-2.26-1.78,4.56-1.21.91-4.8-4.83-4.76-5.19.04-6.96,2.76-3.01,4.61Z" fill="#19df00" stroke="#ff634a" stroke-miterlimit="10" stroke-width="1.03"/><path d="M648.98,183.79c-.02-2.41-11.13-2.27-12.54.17-.8,4.86,14.1,1.81,12.54-.17ZM642.67,183.75c1.43-.38,3.13-.35,3.79.07h0c1.89.97-7.73.93-3.79-.07Z" fill="#19df00" stroke="#ff634a" stroke-miterlimit="10" stroke-width="1.03"/><path d="M639,170.59c9.67,1.68,15.31.22,13.14-3.41-.58-4.27-30.2-.1-13.14,3.41ZM646.53,168.22c1.43-.38,3.13-.35,3.79.07h0c1.89.97-7.73.93-3.79-.07Z" fill="#19df00" stroke="#ff634a" stroke-miterlimit="10" stroke-width="1.03"/><path d="M642.33,179.22c7.35-.36,9.7-1.01,10.21-2.81.58-2.04-.57-2.28-8.88-1.87-7.35.36-9.7,1.01-10.21,2.81-.58,2.04.57,2.28,8.88,1.87ZM639.7,177.34c.72-.48,1.91-.49,2.64-.02,1.84,1.12-4.46,1.17-2.64.02Z" fill="#19df00" stroke="#ff634a" stroke-miterlimit="10" stroke-width="1.03"/><path d="M397.53,8.82c5.81,3.13,13.75-.48,20.21,2.36,3.07,1.06,6.92,1.92,8.55,1.9,1.63-.02-.39-1.16-4.49-2.54-7.65-3-17.3-1.66-24.23-2.89q-3.95-.89-.03,1.16Z" fill="#19df00" stroke="#ff634a" stroke-miterlimit="10" stroke-width="1.03"/><path d="M382.91,4.28h0c2.61.61,6.08.77,7.71.35,1.85-.48.36-1.09-3.95-1.64-8.23-1.04-10.44-.28-3.75,1.29Z" fill="#19df00" stroke="#ff634a" stroke-miterlimit="10" stroke-width="1.03"/><path d="M619.33,43.96c3.87,2.67,17.01-.66,22.43-.1,3.6-.04,6.09-.54,5.53-1.12-1.24-1.44-26.36,1.36-27.68.32-1.03-.41-1.16-.02-.28.9Z" fill="#19df00" stroke="#ff634a" stroke-miterlimit="10" stroke-width="1.03"/><path d="M612.31,267.85c6.15-121.8,1.17-63.55,6.71-222.15-4.24,1.08-8.67-1.71-11.48-8.3" fill="#19df00" stroke="#ff634a" stroke-miterlimit="10" stroke-width="1.03"/><path d="M614.75,60.04c.31-4.62,2.94.22,1.21,1.69-.73.88-1.27.12-1.21-1.69" fill="#19df00" stroke="#ff634a" stroke-miterlimit="10" stroke-width="1.03"/><path d="M615,93.96c-.56,3.71-.81.65-.57-6.8.83-19.42,1.74,2.05.57,6.8Z" fill="#19df00" stroke="#ff634a" stroke-miterlimit="10" stroke-width="1.03"/><path d="M609.62,256.55c-.56,2.35-.88.4-.73-4.34.16-4.74.61-6.67,1.01-4.28h0c.4,2.39.27,6.27-.28,8.62Z" fill="#19df00" stroke="#ff634a" stroke-miterlimit="10" stroke-width="1.03"/><path d="M610.34,235.61c-1.31,7.42-.46-18.57.36-11.09.35,3.06.19,8.05-.36,11.09Z" fill="#19df00" stroke="#ff634a" stroke-miterlimit="10" stroke-width="1.03"/><path d="M611.22,208.51c-1.31,7.42-.46-18.57.36-11.09.35,3.06.19,8.05-.36,11.09Z" fill="#19df00" stroke="#ff634a" stroke-miterlimit="10" stroke-width="1.03"/><path d="M611.98,173.39c-1.23-.02-1.15-2.53.08-2.46,1.23.02,1.15,2.53-.08,2.46Z" fill="#19df00" stroke="#ff634a" stroke-miterlimit="10" stroke-width="1.03"/><path d="M611.72,157.15c.19-2.87.65-3.43,1.2-1.45,1.26,3.36-1.51,8.17-1.2,1.45Z" fill="#19df00" stroke="#ff634a" stroke-miterlimit="10" stroke-width="1.03"/><path d="M612.71,151.22c-1.23-.02-1.15-2.53.08-2.46,1.23.02,1.15,2.53-.08,2.46Z" fill="#19df00" stroke="#ff634a" stroke-miterlimit="10" stroke-width="1.03"/><path d="M612.44,134.98c.19-2.87.65-3.43,1.2-1.45,1.26,3.36-1.51,8.17-1.2,1.45Z" fill="#19df00" stroke="#ff634a" stroke-miterlimit="10" stroke-width="1.03"/><path d="M612.69,122.86c.04-1.6,1.97-1.53,1.9.07-.04,1.6-1.97,1.53-1.9-.07" fill="#19df00" stroke="#ff634a" stroke-miterlimit="10" stroke-width="1.03"/></g></svg>