<?xml version="1.0" encoding="UTF-8"?>
<svg id="svg1" xmlns="http://www.w3.org/2000/svg" xmlns:svg="http://www.w3.org/2000/svg" version="1.1" viewBox="0 0 244.8 163.7">
  <!-- Generator: Adobe Illustrator 29.5.1, SVG Export Plug-In . SVG Version: 2.1.0 Build 141)  -->
  <defs>
    <style>
      .st0 {
        fill: #fff;
      }
    </style>
  </defs>
  <path d="M387.4,183.8c.1,2,.2,2.2,1.3,2.2s1-.2.9-.5c-.2-.3,0-.5.5-.5s.7-.3.5-1.3c-.8-3.3-3.2-3.2-3.1.1ZM389.2,183.6c0,.3-.2.5-.5.5s-.5-.3-.5-.8.2-.6.5-.5c.3.2.5.5.5.8h0Z"/>
  <path d="M386.2,137.5h0c2.9,1.1,4.3-.2,3.4-3.2-.4-1.4-.6-1.6-2.2-1.6s-1.6.2-1.4.5c.2.3,0,.5-.4.5-1.4,0-1,3.3.5,3.8ZM386.4,135.5c.1-.8.5-1.2,1.3-1.3.9-.1,1.1,0,1,1-.1.8-.5,1.2-1.3,1.3-.9.1-1.1,0-1-1Z"/>
  <path d="M384.9,153.9c.2-.1.4,0,.4.3h0c0,.3.7.5,1.6.5,2,0,3.1-1.6,2.3-3.5-.3-.7-.4-1.4-.3-1.5.1-.1-.2-.2-.8-.3s-.8.1-.7.4c.2.3-.5.5-1.5.5-1.7,0-1.8,0-1.6,1.9,0,1.1.3,1.8.5,1.7ZM388.2,152.4c.1.6-.2.9-1.1.9s-1.3-.3-1.3-1c0-1.3,2.1-1.1,2.4.2Z"/>
  <path d="M393.9,218.5c-2.9-1.4-3.6-1.3-.9.2h0c1,.5,2.2,1,2.6,1,.4,0-.4-.5-1.7-1.2Z"/>
  <path d="M-70.9,356.8c0-.3-.2-1.1-.3-1.7-.1-.8-.6-1.1-1.5-1.2-1.5-.2-4.3.8-3.9,1.4.1.2-.2.3-.7.1-.5-.1-1.3.2-1.9.7-.5.5-1.1.9-1.4.8-.3,0-.9.2-1.4.6-.5.4-.6.6-.3.4.4-.2.6-.2.4.2-.2.3-.7.4-1.1.2-1.4-.5-2.2,1.2-1.3,2.6h0c.4.6,1.1,1.2,1.6,1.1.6,0,.6-.1-.2-.5-.7-.3-.5-.4.9-.2,1.3.2,1.8,0,1.8-.3s.1-.5.3-.3c.2.2.6,0,1-.4s.9-.6,1.2-.4c.2.2.4,0,.4-.2s.3-.4.7-.2c.4.1,1.2-.2,1.8-.9.6-.6.9-.9.8-.5-.2.4,0,.5.4.3.4-.2.7-.4.6-.6-.1-.2.4-.3,1.1-.3.8,0,1.3-.2,1.2-.6ZM-84,359.2c-.1,0-.2-.1-.2-.2s.1-.2.2-.2.2.1.2.2-.1.2-.2.2ZM-81.8,360.1c-.9,0-1-.1-.6-.6.5-.5.7-.5,1.2,0s.3.6-.6.6ZM-81.1,357.7c-.1,0-.2-.1-.2-.2s.1-.2.2-.2.2.1.2.2-.1.2-.2.2ZM-80.6,358.7c-.1,0-.2-.1-.2-.2s.1-.2.2-.2.2.1.2.2-.1.2-.2.2ZM-74.2,354.3c.1,0,.2.1.2.2s-.1.2-.2.2-.2-.1-.2-.2.1-.2.2-.2ZM-78.2,355.7c.1,0,.2.1.2.2s-.1.2-.2.2-.2-.1-.2-.2.1-.2.2-.2ZM-79.1,356.2c.1,0,.2.1.2.2s-.1.2-.2.2-.2-.1-.2-.2.1-.2.2-.2ZM-77.1,357.9c-.4-.2-.8-.1-.8.1h0c0,.2-.4.7-1,1-1.3.8-1.3,0,0-1.4,1-1,2-1.1,2.3,0,.1.4-.1.5-.6.3ZM-74.2,356.9c-1.1.5-1.8.6-2,.3-.4-.7,0-1.1,1.5-1.1s1.1-.2,1-.4c-.1-.2,0-.4.2-.4s.6.2.7.4c.1.2-.5.8-1.4,1.2Z"/>
  <path d="M-78.2,219.2h0c.2.3.9.5,1.6.5,1.2,0,1.1-.1-.9-1.2-2.9-1.5-5.3-2.2-2.8-.8,1,.5,1.9,1.2,2.1,1.5Z"/>
  <path d="M-87.4,284c-.8.2-.7.2.2.2,1.7-.1,2.4-1.5,1.4-2.5-1.1-1.1-2.5-1-3.5.2-1,1.1.6,1.9,2.7,1.3.6-.2.8,0,.6.1-.2.2-.9.5-1.4.7Z"/>
  <path d="M-87.6,240.8c-3.5.4-4.3.2-5.7-1.4-1.2-1.4-5.8-1-7.5.6s-.7.3-1.2.3c-3,0-1.3,1.9,2.1,2.4h0c3.9.6,20.5.2,21.1-.4.4-.4,0-.4-1.2-.2-.9.2-1.5.1-1.3,0,.8-.8-3-1.6-6.4-1.2ZM-83.9,242.3h0c-1.8.2-8.9.3-10.1.2-.9-.1-3.1-.3-4.8-.5-3.1-.3-3.1-.3-2-1.1,3.2-2.3,5.8-2.5,7.7-.5s4.8,1.7,8.2.7c.3,0,.7.1.8.5.1.4.2.7.2.7ZM-82.8,242.2c-.4,0-.5-.1-.3-.3.2-.2.5-.2.7,0,.2.2,0,.3-.3.3Z"/>
  <path d="M-74,283.6c0-.4-.5-.7-1.1-.7-.6,0-1.5-.1-2.1-.3-1.2-.3-2.4.4-2,1.2.5.9,5.2.7,5.2-.2ZM-76.2,283.8c-.1,0-.2-.1-.2-.2s.1-.2.2-.2.2.1.2.2-.1.2-.2.2ZM-74.7,283.8c-.1,0-.2-.1-.2-.2s.1-.2.2-.2.2.1.2.2-.1.2-.2.2Z"/>
  <path d="M-76.9,235.8c1.2,0,3-.2,3.9-.5.9-.3,2-.6,2.3-.7,2-.6-.3-.5-4.1.3-3.8.8-4.1.9-2.2.9Z"/>
  <path d="M-80.1,231.8c.5-.2,1.6-.6,2.3-.9s1.3-.7,1.3-.9c0-.4-3.8,1.3-4.4,1.9h0c-.1.1.2,0,.7-.1Z"/>
  <path d="M-84,232.3h2.9s-2.4-.4-2.4-.4c-1.3-.2-3.3-.5-4.4-.7l-2-.3,1.5.7h0c.8.4,2.8.7,4.4.7Z"/>
  <path d="M-72.6,219.6c-1.3-.1-2.2,0-2.1.2.1.2,1.4.4,2.8.4,2.9,0,2.6-.3-.8-.6Z"/>
  <path d="M-91.3,295.2c-.5.2-1.2.3-1.6.3-.9,0-.9.8,0,1.7h0c.7.8,1.8,1,1.8.2s.2-.4.5-.2c.4.2.4,0,0-.6-.3-.5-.4-1.1-.2-1.4.2-.2,0-.2-.5,0Z"/>
  <path d="M-88.5,291.9c-1.5,0-2.4.7-1.7,1.4.6.6,3.9.3,4.2-.4.3-.8,0-.9-2.5-.9ZM-89.2,293.1c-.4,0-.5-.1-.3-.3s.5-.2.7,0c.2.2,0,.3-.3.3Z"/>
  <path d="M-99.2,326.9c3.8,0,4.2,0,3.7.7-.7.9-.6.9,2.2.2,4.3-1.1,2.3-1.9-4-1.7-6.7.3-7.9.7-1.9.7Z"/>
  <path d="M-93.3,329.3c-2.2-.6-4.2-.6-2.9,0,.5.2,1.7.4,2.7.4h1.7s-1.5-.4-1.5-.4Z"/>
  <path d="M-89.6,311.2c0-.2.3-.4.7-.4s.8-.6.9-1.3c.3-1.3,0-1.4-2.9-.4-.8.3-1.1.1-1.1-.5s-.3-.8-1.1-.7c-1.4.2-1.8,1.4-.5,1.7.7.2.9.5.7,1.2-.2.7,0,.9.9,1.1h0c1.4.2,2.4,0,2.4-.6ZM-88.9,308.8c.1,0,.2.1.2.2s-.1.2-.2.2-.2-.1-.2-.2.1-.2.2-.2ZM-90.4,310.2c.1,0,.2.1.2.2s-.1.2-.2.2-.2-.1-.2-.2.1-.2.2-.2ZM-91.4,309.7c.1,0,.2.1.2.2s-.1.2-.2.2-.2-.1-.2-.2.1-.2.2-.2Z"/>
  <path d="M-86.9,305.9c-.9-.2-2.3.7-2.3,1.5h0c0,.3.7.4,1.6.3,1.7-.2,2.3-1.5.7-1.8Z"/>
  <path d="M-76.9,392.4h0c0,1.1.8.4,2.1-1.8l1.4-2.3-1.7,1.8c-1,1-1.7,2.1-1.7,2.3Z"/>
  <path d="M-71.1,384.9c0,.6,1-.1,1.9-1.4l1.1-1.6-1.5,1.4c-.8.8-1.5,1.5-1.5,1.6h0Z"/>
  <path d="M-97.3,311.5c.2-.5,0-.7-.5-.7s-.6-.2-.4-.5c.2-.3,0-.5-.5-.5s-.8.2-.8.4-.5.4-1.1.4c-1.3,0-1.8,1-.6,1.3h0c1.9.5,3.5.3,3.8-.4Z"/>
  <path d="M-94.2,386.1c-.5,0-7.2,5.8-7.2,6.3h0c0,.4,1.8-1.1,5.8-4.7,1-.9,1.6-1.6,1.4-1.6Z"/>
  <path d="M-94.1,352.8c0-.6.3-.6-3.4.7-5.1,1.9-6.4,2.4-6.4,2.8h0c0,.6.9.5,2.1-.3.6-.4,2.6-1.2,4.4-1.8s3.3-1.3,3.3-1.5Z"/>
  <path d="M-100.6,328.6c-1,.3-1,.3,0,.7,1.3.5,1.4.5,2.1,0,.9-.6-.7-1.2-2.1-.7ZM-99.1,329c.2.2,0,.3-.3.3s-.5-.1-.3-.3c.2-.2.5-.2.7,0Z"/>
  <path d="M-78.2,214h0c-.2.3.1.3.9.1,2.6-.8,4.3-1.7,4.3-2.2s-.3-.3-.9.2c-.5.4-1.6.9-2.5,1.1-.9.2-1.7.5-1.9.8Z"/>
  <path d="M-85.7,215.5c0,.4.5,1.1,1.1,1.5,1.6,1.1,1.7.9.4-.4l-1.1-1.2,1.4-.5c.7-.3,1.3-.6,1.1-.8-.5-.5-2.8.7-2.8,1.5Z"/>
  <path d="M-76.2,328.7h1.8l-1.3-.7c-.7-.4-1.5-.7-1.8-.7s-.4.3-.4.7.6.7,1.8.7ZM-77.2,327.8c.1,0,.2.1.2.2s-.1.2-.2.2-.2-.1-.2-.2.1-.2.2-.2Z"/>
  <path d="M-73.8,315.8c.5.2.8,0,.8-.4s.2-.6.5-.4c.3.2.5,0,.5-.5s-.1-.7-.3-.5-.6,0-.9-.5c-.7-1-3.3-.6-4,.4,0,0,0,0,.1,0,.1,0,.2.1.2.2s-.1.2-.2.2-.2-.1-.2-.2,0,0,0,0c0,.2-.1.3,0,.5,0,.5.4,1,.6,1.1s.3.4.2.6c-.2.2.4.4,1.2.4s1.4-.2,1.2-.6c-.2-.4,0-.5.5-.3ZM-74.5,313.6c-.7,0-.9-.1-.6-.2s.9-.1,1.2,0,0,.2-.6.2Z"/>
  <path d="M-92.2,200.1c0,0,.1-.1.1-.4s-1-.5-2.3-.4h-2.3c0,0,2.2.4,2.2.4,1.2.2,2.3.4,2.3.4Z"/>
  <path d="M-88.7,233.6c1.7.2,3.3.5,3.6.8.3.3,1,.5,1.5.5.6,0,1.6.3,2.2.7h0c1.6.9,1.5.8,1.5.4s-2.2-1.5-3.3-1.5-1.1-.3-1.6-.7c-.9-.8-4.7-1.3-6.1-.8-.6.2,0,.4,2.1.6Z"/>
  <path d="M-99.6,228.1c2.1,0,2-.2-.2-.7-.9-.2-1.6,0-1.6.2s.8.5,1.8.5Z"/>
  <path d="M-103.8,231.9c0,.3.3.6.6.7h0c1.2.4,11.4.3,10.7,0-.4-.2-2.8-.4-5.5-.4-2.6,0-5-.2-5.3-.3-.3-.2-.5-.1-.5.2Z"/>
  <path d="M390.4,309.5h0c0,1.3,0,2,.2,1.4.1-.6.1-1.7,0-2.4-.1-.7-.2-.3-.2,1.1Z"/>
  <g>
    <path d="M179.5,125.9c-.9.2-2,.3-2.4.2s-.5,0-.2.2-.5.8-1.8,1.4c-1.3.6-2.4,1.4-2.5,1.8s-.2.9-.3,1.2c0,.2,0,1,0,1.7,0,.7-.1,1.2-.5,1-.3-.1-.6.7-.7,1.9,0,1.2.2,2.1.6,2.1.7,0,.2,2.3-.7,3.8-.3.5-.2.6.5.4.7-.2.9,0,.7.9,0,.7-.1,1.8,0,2.5h0c0,1,.3,1.1,1.1.7.7-.4.8-.7.3-1.1-.4-.3-.5-3.6-.4-7.8l.3-7.3,2.1-1c4.5-2.2,5.3-2.3,7.3-.8,3.7,2.7,5.1,5.7,5.7,12,.2,1.7.5,3.3.8,3.4,1.5.8-.4-10.4-2.1-12.7-2.3-3.1-5.5-5-7.8-4.5Z"/>
    <path d="M173.2,161.3c-.1.7.2,1.4.7,1.6.5.2,1,.4,1,.4,0,0-.3-.7-.7-1.6-.8-1.5-.8-1.5-1-.4Z"/>
    <path d="M183,139.4c-.8-.4-2.1-.6-2.9-.6-1.1,0-.7.2,1,.6h0c3.3.8,3.6.8,1.9,0Z"/>
    <path d="M188.2,153.1c-1.3-.4-13.8-.7-13.1-.3.3.2,2.3.4,4.5.5,6.8.2,9.5.2,8.6-.1Z"/>
    <path d="M214.6,133c-.4,0-.5.6-.2,1.3.4,1.1.2,1.3-.9,1.3-1.3,0-1.3,0,0,.4l1.5.4h-1.5c-1.1,0-1.2.2-.5.4.6.2.9,1,.7,2.1l-.2,1.7h-3.4c-1.9,0-3.3.1-3.1.3h0c.5.4,7.6.5,7.6,0,0-.2.3-1.5.7-3,.7-2.7.4-5-.8-5Z"/>
    <path d="M208.7,120s0,0,0,.1c0,.1-.2.2-.4.2s-.4,0-.4-.2.1-.2.2-.2c-1.4-.1-2.4.3-2.4,1.7s-.4.5-.9.5c-.7,0-.7,0,0,.3.8.2.8.4,0,.9-.8.6-.8.6,0,.4.7-.3.9,0,.6,1.1-.2.8-.5,3.9-.7,6.9h0c-.2,3-.2,5.2,0,4.9.2-.3.6-.5.9-.4.3,0,.5-1.1.5-2.7.2-10.4.3-11.3,1.3-12.1,1.5-1.2,5.1.9,5.8,3.3.2.9.7,1.8,1.1,1.9.3.1.3-.8,0-2.1-.7-2.4-3.5-4.2-5.8-4.6Z"/>
    <path d="M205.8,139.1v-1.9c0,0-.6,1.5-.6,1.5-.3.8-.4,1.7-.2,1.9.6.8.9.2.8-1.5Z"/>
    <path d="M132,167.2c-4.1,0-4.2,0-1.5.4,1.6.2,3.1.3,3.3.4.2,0,.9-.1,1.5-.4.8-.3-.2-.4-3.3-.4Z"/>
    <path d="M177.7,157.6l3.1-.2-2.5-.3c-2.5-.3-3.7-.2-3.7.4h0c0,.2,1.4.2,3.1.1Z"/>
    <path d="M147.3,140.1c-3.4-1.8-3.2-1.8-9.4.6-2.9,1.1-5.8,2.3-6.4,2.5s-2.1.8-3.3,1.3-3.2,1.2-4.5,1.8l-2.4.9v4.7c0,3.2-.3,4.7-.8,4.7s-.6.2-.1.5c1,.8,1.2,6.2.3,5.8-.4-.2-.8,0-.8.2s.3.5.7.5.7,1.4.7,3.3h0c0,2,.3,3.3.8,3.3s.8-1.8.7-5.4c-.2-16-.1-16.8,1.2-17.5,1.8-.9,12.3-5.2,16.5-6.7l3.5-1.2,1.9.9c4.2,1.9,5.5,5.8,4.6,13.7-.4,3.9-.1,8.8.5,8.8s.7-1.8.7-4c0-2.2,0-6.3.1-9.1,0-5.9-.6-7.3-4.6-9.5Z"/>
    <path d="M151.5,167.2c.3,0,.5-.9.4-2-.2-2.4-1-2.2-1,.2s.3,1.7.6,1.7Z"/>
    <path d="M175.2,159c-1.4-.2-2.1-2.2-1.7-4.8.2-1,0-1.9-.4-1.9s-.7.4-.8,1c-.1,1.9.2,5.4.5,5.7.2.2,1.1.3,1.9.3,1.1,0,1.2-.1.4-.2Z"/>
    <path d="M148.7,166c-.6,0-1,.2-.8.6.4.6-.8,1.3-2.8,1.6h0c-1.1.2-.9.2.6.3,1.2,0,2.5-.3,3.1-.7,1.3-1,1.3-1.7-.1-1.7Z"/>
    <path d="M53.4,118.9c.5-.3.2-.4-.7-.2-.8.1-3.1.3-5.1.5-3.5.2-2.3-.2,2.5-.8.6,0,1.2-.3,1.3-.6.2-.3-.6-.3-2.5,0-3.7.5-6.4.5-4.2,0,1.3-.3,1.2-.4-.5-.6-1.1-.1-2,0-2,.2s-1.1.3-2.4.2-1.7,0-.9,0c1.3.2,1.3.3-.4.6-1.2.2-.7.3,1.4.1,2.7-.2,3.1-.2,2.8.5-.2.4-.1.7.3.7s.5.2.3.4h0c-.8.8,8.8-.1,10.2-1Z"/>
    <path d="M187.5,83.3c-1.9-.3-3.5.8-3.5,2.5h0c0,.2,1.1.4,2.4.4,1.7,0,2.1-.1,1.3-.4-1.3-.5-.4-2,1-1.6,1.2.3,2.9-1.2,2.2-1.9-.6-.5-3-.6-3.6,0-.2.2.2.6.9.9,1.1.4.9.4-.7.2ZM186,84.7c-.3.2-.5,0-.5-.3s.2-.5.5-.3c.3.2.3.4,0,.6Z"/>
    <path d="M192.8,20.8c-3.2.3-5.9,1.1-3.6,1.1s.6.2.4.4h0c-.8.8,13.2.5,14.6-.3,1-.6,1-.8.2-1.3-1-.6-8.8-1.1-8.2-.6.2.2-1.3.5-3.3.6ZM191.7,21.9c-.2,0-.4,0-.4-.2s.2-.2.4-.2.4,0,.4.2-.2.2-.4.2ZM199.7,21.4c.2-.2,1.1-.4,1.9-.4s1.4.2,1.4.4-.8.4-1.9.4-1.7-.2-1.4-.4ZM198.6,21.5c0,.2-1.4.4-3,.4-3.6,0-3.5-.2.3-.6,1.5-.1,2.7,0,2.7.2Z"/>
    <path d="M207.9,47.7c.4,0,.9-.3,1.2-.8.7-1.1-1.5-1.9-3.6-1.4-1,.2-1.9.2-2.4,0-1-.6-3,1.2-2.6,2.2.2.6.8.7,2.1.6,1-.1,1.6-.4,1.3-.7-.2-.3,0-.2.6.3,1.1.8,3.9,1.1,3.1.3-.2-.2-.1-.4.2-.4Z"/>
    <path d="M150.9,126l-1.8.3c-1,.2-2.1.5-2.5.7-1.1.6.5.4,2.5-.3l1.8-.7Z"/>
    <path d="M139.9,129.3c3.2-.9,5.6-1.7,5.3-1.8-.4-.2-3.6.6-11.5,2.8-6,1.7-13.1,4.1-13.1,4.5s1.6-.2,3.5-.8c3.9-1.3,7.4-2.4,15.8-4.7Z"/>
    <path d="M75.2,152.3c1.6-.8,3.4-1.8,4.1-2.2,1.7-1,12.8-5.3,16.1-6.3,1.5-.4,2.7-1.1,2.7-1.4,0-.3.3-.5.7-.3.8.3,4.4-.6,4.4-1.1s.4-.4.9-.4,2.4-.7,4.2-1.5c1.8-.8,4.7-1.9,6.4-2.5s3.1-1.1,3.1-1.3c0-.4-4.8,1.1-6.5,1.9-.7.3-1.7.7-2.3.9-1.9.5-3.9,1.3-6.7,2.6-1.5.7-2.9,1.2-3.3,1.1-.3,0-1.8.4-3.2,1.1-1.4.7-2.9,1.2-3.3,1.2s-2.5.8-4.7,1.7c-2.2.9-4.4,1.8-4.8,1.9-2.1.5-17.6,9-17.6,9.7s1.6-.4,3.5-1.5,4.7-2.6,6.3-3.5Z"/>
    <path d="M171.2,120.8c-1.1,0-9,2.1-9,2.4s.9.1,1.9,0c2.3-.3,8.3-2.3,7.1-2.3Z"/>
    <path d="M179.1,119.4c1.5-.5,4.8-1.2,7.3-1.7,2.5-.5,5.2-1.1,6-1.3.8-.2,1.8-.4,2.2-.4.8.1,2.3-.2,6.5-1.4,1.6-.4,2.5-.8,1.9-.8s-2,.3-3.3.6c-1.3.3-3.6.8-5.2,1-1.6.2-4.5.8-6.6,1.2-2,.4-5,1.1-6.7,1.4s-3.1.8-3.1,1-.6.4-1.3.4-2,.3-2.7.7h0c-1.9.9.9.5,5-.7Z"/>
    <path d="M220.1,35.7c-1.4,0-2.5,0-2.5.2h0c0,.2,1.3.4,2.9.4,2.4,0,2.9-.2,2.9-.8,0-1.1-.8-1.4-2.2-.9-.9.3-.8.4.2.4.7,0,1.3.2,1.3.5s-1.1.4-2.5.3Z"/>
    <path d="M197.3,72.8c-.2.2,0,.3.6.2,3.6-.7,2.8-3.9-.9-3.8-8.5,0-11.6,2.9-3.3,3.1,2.2,0,3.9.3,3.6.5ZM198.3,70.6c.3.2.3.4,0,.6-.3.2-.5,0-.5-.3s.2-.5.5-.3ZM191.7,70.9c-.2.2-.8.4-1.1.4s-.7-.2-.7-.4.5-.4,1.1-.4.9.2.7.4ZM193.5,70.9c-.5,0-.8-.1-.5-.3.3-.2.7-.2,1,0,.3.2,0,.3-.5.3ZM196.9,71.2c-.3.2-.5,0-.5-.3s.2-.5.5-.3.3.4,0,.6Z"/>
    <path d="M196.7,78.5c.6-1.5.3-1.6-2.8-1.3-2.8.3-3.7.8-3.1,1.8.8,1.2,5.3.8,5.9-.5ZM192.4,78.8c-.2,0-.4,0-.4-.2s.2-.2.4-.2.4,0,.4.2-.2.2-.4.2ZM194.9,78.3c-.4,0-.8-.2-1.1-.4-.2-.2.2-.4,1.1-.4s1.3.2,1.1.4-.7.4-1.1.4Z"/>
    <path d="M191.2,61.6c-3,.2-4,1.4-2,2.6h0c1.1.6,1.4.6,3.8,0,1.8-.4,2.7-2.2,1.1-2.2s-.6-.2-.4-.3c.2-.2-.9-.3-2.5-.2ZM191.3,63.3c0,.1-.3.2-.7.2s-.7-.2-.7-.5.3-.3.7-.2.7.4.7.5h0ZM192.4,63c-.2,0-.4,0-.4-.2s.2-.2.4-.2.4,0,.4.2-.2.2-.4.2Z"/>
    <path d="M198.6,61.3c-2.3,0-3.8,1.5-2.6,2.6.9.9,4,.5,4.1-.5v-1c0,0,.4,1,.4,1,.2.7.9,1,2.6,1.1h0c1.3,0,2.8.2,3.5.2,1.6,0,3.8-1.5,3.3-2.4-.4-.6-1.3-.7-5.1-.6-2.6,0-4.5,0-4.3-.2s-.7-.3-1.9-.3ZM198.6,63.4c-.4,0-.7-.2-.7-.4s.3-.4.7-.4.7.2.7.4-.3.4-.7.4ZM207,62.7c1.3,0,1.6.1.9.4h0c-1.3.5-2.8.5-2.8,0s.9-.4,1.9-.4ZM204.2,62.7c.3.2.3.4,0,.6-.3.2-.5,0-.5-.3s.2-.5.5-.3ZM202.2,62.8c.4.1.7.4.7.5h0c0,.1-.3.2-.7.2s-.7-.2-.7-.5.3-.3.7-.2Z"/>
    <path d="M239.9,46.6c-.4.1-1,0-1.4-.3-.4-.4-.6-.4-.6,0,0,.4-.9.5-3.3.3-3.1-.3-3.3-.2-3.3.8,0,2.3.6,2.5,4.6,2.2,2.9-.2,3.5-.2,3.1.3-.4.4-.3.5.5.3.6-.1,1.6,0,2.1.1h0c1.4.5,1.4.6,1.4-.9s-.2-1.2-1.2-1c-.8.2-1,.1-.7-.2.7-.7-.2-1.9-1.1-1.6ZM233.8,47.7c-.8,0-1-.1-.4-.3.5-.1,1.2-.1,1.4,0h0c.2.1-.2.2-1,.2ZM236.1,49c-.2,0-.4,0-.4-.2s.2-.2.4-.2.4,0,.4.2-.2.2-.4.2ZM237.9,49c-.4,0-.7-.2-.7-.4s.3-.4.7-.4.7.2.7.4-.3.4-.7.4ZM238.3,47.7c-.2,0-.4,0-.4-.2s.2-.2.4-.2.4,0,.4.2-.2.2-.4.2ZM239.8,48.9c-.3.2-.5,0-.5-.3s.2-.5.5-.3c.3.2.3.4,0,.6ZM241.9,49c.2,0,.4,0,.4.2s-.2.2-.4.2-.4,0-.4-.2.2-.2.4-.2Z"/>
    <path d="M216.4,42.4c.5.5,6.9.2,7.8-.3s-.4-1.3-3.9-1.6c-3.4-.3-5.2.6-3.9,1.9ZM222.2,41.4c.6.1,1.1.3,1.1.4,0,.4-1.4.2-1.8-.3-.3-.2,0-.3.7-.2ZM218.6,41.1c.6,0,1.3.2,1.5.4s-.2.4-1,.4-1.5-.2-1.5-.4.5-.4,1-.4Z"/>
    <path d="M223.3,38.7c0-.4-.7-.7-1.6-.6-1.3,0-1.4,0-.6.4.8.3.3.4-1.8.6-2.8.2-2.8.2.6.3,2.6,0,3.5,0,3.5-.6Z"/>
    <path d="M220.1,31.7c-4,0-5.2,1-1.8,1.6,3.2.6,5.5.3,5.5-.7s-.5-.9-3.6-.9ZM218.2,32.4c-.8-.3-.3-.3,1.5-.1,1.4.2,2.7.4,2.9.4h0c.7.4-3.3.1-4.3-.3Z"/>
    <path d="M202.2,26.5c-.4.1-.7,0-.7-.2s-.8-.5-1.8-.5c-1.8,0-2.2.6-1.4,1.9h0c.6.9,1,.9,3-.2,1.6-.8,2.3-1.6.9-1.1Z"/>
    <path d="M194.6,27.8c0-.7-.6-.9-2.5-1-2.8-.2-4.1.4-3.5,1.5h0c.7,1.1,5.9.7,5.9-.4ZM191.7,27.9c-1.2,0-1.6-.1-.9-.2s1.7-.1,2.2,0c.5.1,0,.2-1.3.2Z"/>
    <path d="M194.6,48c.8-1.5-.3-2.5-2.4-2.1-2.4.4-3.7,1.5-2.6,2.3,1.2.9,4.5.7,5-.2ZM192.3,47.4c.3-.2.7-.2,1,0s0,.3-.5.3-.8-.1-.5-.3ZM190.9,48.1c.2,0,.4,0,.4.2s-.2.2-.4.2-.4,0-.4-.2.2-.2.4-.2Z"/>
    <path d="M191.1,55.7h0c4,.3,10.3.2,9.9-.2-.2-.2,1.4-.4,3.5-.3,2.1,0,4.2,0,4.6,0s1,0,1.3,0c.3,0,.4-.2,0-.4-.3-.3-.1-.6.4-.8,2.5-.9-2.1-2.3-4.9-1.5-1.8.5-2.7.6-2.9.3-.2-.3-.8-.5-1.4-.5s-.9.2-.6.4c.3.3-1.5.4-4.9.4-7.3,0-11.5,2.2-5.1,2.7ZM207.2,53.2c.4-.1.8,0,1.1.4h0c.3.4,0,.7-.7.7-1.2,0-1.4-.7-.4-1.1ZM205.6,53.5c.3.2.3.4,0,.6-.3.2-.5,0-.5-.3s.2-.5.5-.3ZM204,53.8c.2,0,.4,0,.4.2s-.2.2-.4.2-.4,0-.4-.2.2-.2.4-.2ZM199.8,54c.3.2.3.4,0,.6-.3.2-.5,0-.5-.3s.2-.5.5-.3ZM195.7,53.8c1.6,0,2.9.1,2.9.3,0,.2-1.3.4-2.9.4s-2.9,0-2.9-.3,1.3-.4,2.9-.4ZM190.9,54.1c.6-.1,1.1,0,1.1.2s-.5.4-1.1.4-1.1,0-1.1-.2.5-.3,1.1-.4Z"/>
    <path d="M202.1,95.6c.5.2.9,0,.9-.4s-.3-.6-.7-.5c-.4.1-.8,0-.9-.2-.1-.2-1.1-.5-2.1-.5-.4,0-.7,0-1,0,.2,0,.3,0,.3.2s-.2.2-.4.2-.4,0-.4-.2,0,0,0-.1c-1.1.5-1.2,1.7.4,2.4h0c1.5.7,1.3.6,2.7.3.7-.2.9-.5.7-.9-.3-.5-.2-.6.4-.4ZM198.2,96.3c-.2,0-.4,0-.4-.2s.2-.2.4-.2.4,0,.4.2-.2.2-.4.2ZM199.3,95.2c0-.1.2-.2.4-.2s.4,0,.4.2-.2.2-.4.2-.4,0-.4-.2ZM200,96.7c-.5,0-.8-.1-.5-.3.3-.2.7-.2,1,0,.3.2,0,.3-.5.3Z"/>
    <path d="M211.6,93c-.4.1-.7,0-.7-.2,0-.7-1.4-.6-2.6.2s-1.4,2.2-.3,1.8c.4-.1.7,0,.7.2h0c0,.8,1.5.6,2.5,0-.2,0-.3,0-.3-.2s.2-.2.4-.2.3,0,.3.2c.3-.2.5-.5.5-.7,0-.7-.2-1.1-.5-1ZM209.9,94.1c-.2,0-.4,0-.4-.2s.2-.2.4-.2.4,0,.4.2-.2.2-.4.2Z"/>
    <path d="M208.8,71.1c0-1.3-1.4-1.7-3.9-1.3-1.3.2-1.7.5-1.4,1.3.2.5.1.7-.1.4-.2-.3-.9-.5-1.5-.5-1.1,0-1.4.5-.5,1h0c1.5.9,7.5.3,7.5-.8ZM204.8,71.3c-.2,0-.4,0-.4-.2s.2-.2.4-.2.4,0,.4.2-.2.2-.4.2ZM207,71c-.6.1-1.1,0-1.1-.2s.5-.4,1.1-.4,1.1,0,1.1.2-.5.3-1.1.4Z"/>
    <path d="M67.6,144.4c1.6-.5,2.9-1,2.9-1.1s-1.3.2-2.9.7-2.9,1-2.9,1.1,1.3-.2,2.9-.7Z"/>
    <path d="M227.4,135.3h0c.4.3.8.1,1.2-.7.7-1.3,4.5-1.7,6.2-.7s.9.4.9-.2-.6-.7-1.8-.7-1.8-.2-1.8-.4.8-.4,1.8-.2c1,.1,1.8,0,1.8-.3s-1.4-.4-3.7-.3c-3.3.2-3.7.1-3.3-.6.2-.4,0-.8-.4-.8s-.6.5-.5,1.2,0,1.6-.4,2.2c-.3.5-.3,1.2,0,1.5ZM229.5,132.6c.2,0,.4,0,.4.2s-.2.2-.4.2-.4,0-.4-.2.2-.2.4-.2Z"/>
    <path d="M227.6,127.9c.3,1.4.8-.2.8-2.4s-.2-2.6-.4-2.4c-.3.2-.6,3.6-.4,4.8Z"/>
    <path d="M285.6,162.3c-2-.2-4.3-.4-5.1-.5-1.5,0-6.8-.3-12.5-.6,0,.2.2.4.3.7,16.7.8,21.6.9,17.3.4Z"/>
    <path d="M241.1,107.2c-.4-.3,0-.4,1-.2,1,.2,1.7,0,2.2-.4.4-.4.6,3.8.7,11.2,1.1,0,2.2.3,3.1,1,0-10.4,0-23.7,0-34.8-1.4-.2-2.4-.7-3.2-1.3,0,.5,0,1,0,1.5,0,12.1,0,12.2-1.5,12.5-1.5.2-1.5.3.2.7,1,.2,1.4.5.9.6-.5.1-.7.4-.4.7.3.3,0,.4-1.1.2-.8-.1-1.6,0-1.8.2s-2.2.5-4.7.5c-2.5,0-4.3.2-4.2.3.2.2-1.3.4-3.2.6-1.9.2-5.9.6-8.9.9-3,.4-6.6.8-8,.9-1.4.1-4.3.4-6.5.7-4.7.5-7.2.5-4.1,0,2.1-.4-3.9-.1-7.3.3-5.2.6-11.6,1-13.1.8-1.1-.2-1.8,0-1.8.2s-.5.4-1.1.2c-.6-.1-1-.5-.9-.7,0-.3-.6-.6-1.6-.7-1.4-.1-1.5-.2-.7-.6.8-.3.7-.4-.4-.3-.8,0-1.4.4-1.2.7.2.4-.7.5-3.1.4-4.1-.2-3.3.3,1,.7,1.8.1,3.7.3,4.2.3.6,0,.7.2.2.5-.5.3-1.7.3-3.6,0-3.2-.6-4.2-.6-3.6-.2.9.6-1.5,1.4-4.7,1.6l-3.3.2v-4.4c-.2-4.1-.9-5.7-2.1-5-.3.2-.4,1.9-.4,3.9.1,3.5,0,3.6-1.6,3.7-1,0-2.7.4-3.8.8-1.9.6-1.9.7-.3.4,5.3-.9,5.9-.8,4.5.5-.7.6-6.6,1.5-7.1,1.1-.2-.2-1.2-.4-2.2-.5-1-.1-1.6,0-1.4.2.2.2-.3.4-1.2.4s-1.3-.2-1.1-.4c.8-.8,0-.5-1.4.5-1.3.9-1.3.9.7.6,1.5-.2,1.8-.2,1,.1-.6.2-.9.5-.7.7.6.4,2.9-.2,2.4-.7-.6-.6,2.5-1,3.6-.4.6.3,1.8.4,3.1.2,1.1-.2,1.9-.2,1.6,0-1,.7-10.4,1.5-11.4,1.1-.9-.4-1.2-.3-.8.4.3.4-9.6,1.4-11.8,1.1-1.5-.2-1.6-.1-.7.3.9.4.7.5-.9.3-1.1-.1-2,0-2,0,0,.3-11.1,1.7-16.4,2l-3.6.2,3.3-.6c1.8-.3,4.2-.7,5.3-.9,2.3-.3,2.8-1.5.6-1.5s-1.6-.2-1.9-.5c-.3-.3.3-.4,1.6-.2,1.4.2,1.7.1,1-.1-1.7-.6-7.9-1.1-6.6-.5.9.4.7.4-.9.3-1.1-.1-2.1,0-2.3.3-.2.3-.4,0-.4-.5,0-.5.4-1,.9-1.2.7-.2.7-.3.1-.6-1.5-.7-1.3-7.6.2-7.6,1,0,1.1,0,.2-.3-.6-.1-1.3-.5-1.6-.7-1.5-1.4-2.8.8-2.5,4.5.3,4.4.1,4.9-2,4.9-1.3,0-1.2.1.6.6l2.2.6h-2.2c0,0-2.2.2-2.2.2l2.2.4c1.7.3,1.3.3-1.6.2-2.2,0-3.7,0-3.4.2.2.2-.4.4-1.4.4s-2.2.3-2.6.8c-.6.5-.9.6-1.2.2-.5-.6-8.2-.3-9.4.4-.5.3-.4.4.4.2,1.3-.3,1.6.9.5,1.7-.4.3-.4.6.1.8,1.1.4,4.5-.2,4-.7-.2-.2,0-.4.7-.4s1,.2.7.4c-.6.6.2.6,5.9-.2,10.7-1.5,9.4-.4-1.5,1.2-13.2,2-11.8,1.8-14.9,2.4-1.4.3-4.3.6-6.6.8-2.2.2-5.3.5-6.9.9-4.6.9-14.3,2.2-17.2,2.2-1.5,0-2.3.1-1.9.3.4.2-.5.4-2,.6-1.6.2-6.1.8-10.1,1.3-4,.6-8,1.1-8.9,1.3-1.3.2-1.6,0-1.6-.7s.5-.9,1.7-.9,7.1-.9,10.3-1.8c.8-.2,2.4-.6,3.6-.8l2.2-.5-5.1.4,2-.7c2.7-.9,2.5-1.1-.4-.6-4.3.8-8,1.3-8.8,1.1-.4,0,.7-.4,2.6-.7,3.1-.5,5.4-1.4,3.5-1.4s-.6-.2-.3-.5c.4-.4.1-.4-.9-.2-.8.2-3.2.4-5.4.5-3.6.1-3.4,0,2.5-.7,3.6-.5,7.1-.8,7.8-.7.7.1,1.3,0,1.3-.1,0-.8,12.8-2.2,16.7-1.9q4,.4.9.4c-1.7,0-3.1.3-3.1.5s.7.4,1.7.3c1.8-.2,2.4,1.2.9,2-.4.2,0,.3.7.1.8-.1,3.4-.4,5.8-.7,7.2-.8,7.4-.8,7.4-1.5s-.7-.7-1.5-.7c-2,0,2.1-.7,4.7-.7h1.8s-1.8.3-1.8.3l-1.8.4h1.8c0,0,1.8.2,1.8.2l-1.8.4c-1.9.4,4.2.1,6.6-.3,1.4-.2,1.5-1.5.2-1.5s-1.6-.4-2.4-.8c-1.2-.7-1.8-.8-4.2-.4-1.5.2-4.1.5-5.7.6-1.6.1-3.7.3-4.7.5l-1.8.3,1.8.3c1.7.3,1.7.3-.6.4-1.4,0-2.2-.1-2-.4.2-.2-.3-.5-1.2-.5s1-.3,4.3-.6c7.1-.7,31-4.2,30.5-4.5-.2-.1-2.2,0-4.5.3-2.3.3-7.5,1-11.5,1.6-7.4,1-12.1,1.6-19.3,2.3-9.2,1-13.5,1.5-14.6,1.9-.6.2-5.1.7-9.8,1.2-4.8.5-9.4,1-10.3,1.1-1.5.2-1.6,0-1.6-2s.3-2.2.9-2.2c.6,0,.7-.1.1-.3-.4-.2-.9-1.7-1-3.3l-.2-3h4.1c0-.1-2.2-.4-2.2-.4-2.1-.3-2.1-.3.7-.4,2,0,2.6-.2,1.9-.4-.6-.2-1.4-.3-1.8-.2-2,.4-2.9-.7-2.9-3.3,0-2.3-.1-2.6-1.3-2.6s-1.5.4-1.7,4.6c0,1.1-.4,1.3-1.9,1.4-4.3.3-6.3,1-2.2.8,3.7-.2,3.8-.2,1.1.2-1.6.2-4.9.3-7.3.2-3.1-.1-3.9,0-2.9.2,1.4.4,1.4.4,0,.4-2.4,0-.9.3,3.2.6,2.6.2,3.5.1,2.5-.1l-1.5-.4h1.5c.8,0,2.7-.2,4.1-.3,2.8-.3,3.8,1,1.3,1.7-1,.3-.9.3,0,.3.9,0,1.2.8,1.3,4.5l.2,4.5-5.7.6c-3.1.3-6.2.7-6.8.7s-2.2.2-3.6.4c-3.9.4-5.1.7-5.1,1.2s.6.3,1.3.1c1.2-.3,14.5-1.9,18.2-2.2,3.8-.3.8.8-4.2,1.5-3,.4-6.8,1-8.5,1.3-1.7.3-3.8.5-4.7.5-1.3,0-1.1.1.6.3,1.2.2,2.3.2,2.5,0,.7-.5,6.8-1,6.2-.4-.3.3-1.6.5-3,.5s-2.6.2-2.9.4c-.2.2-1.5.5-2.8.7-2.1.3-2.2.4-.9.7,1.4.3.5.7-1.3.5-.3,0-.4.1-.2.4.2.2,1.7.3,3.1.2,2.3-.2,2.4-.1.9.2-3.7.8,3.4.5,9.9-.4,5.2-.7,9.5-.8,6.3-.1-.5.1-.8.3-.6.5.2.2-3,.9-7.1,1.5-10.7,1.7-12.1,2-12.6,2.5-.6.5.6.5,3.1,0,2-.5,10.4-1.9,15.4-2.6l2.4-.3-.2,1.8c-.2,1.8-.3,1.8-4.6,2.6-2.4.5-5,1-5.8,1.2-.8.2-3.4.7-5.8,1.2-2.4.5-4.5,1.1-4.6,1.4-.3.5,0,.5,1.2,0,2.2-.7,13.7-2.9,17-3.3,2.5-.3,2.7-.2,2.7.6s0,.9-.2.9c-.1,0-1.5.3-3.1.7l-2.9.7,3-.2,3-.2v14.7c.1,0,.2,14.7.2,14.7l-6,3.4h0c-7.1,4-7,4.6.1.8,5.9-3.2,6-3.2,5.6-.6-.3,2.1,0,3.2,1.1,3.2s.7-.3.7-.8c0-.4.2-.5.4-.2.2.3,3-1.1,6.5-3.3,3.4-2.1,7.3-4.3,8.6-4.9,1.3-.6,2.8-1.4,3.3-1.9.7-.7.3-.6-1.2.3-1.2.7-2.3,1.1-2.6.9-.5-.3,3.3-2.4,4.3-2.4s2.9-1.2,5.7-2.7c7.9-4.3,14.1-6.8,15.2-6.1.3.2.5,0,.5-.2,0-.6,9-4.5,10.5-4.5s1.1-.2,1.1-.5.2-.4.4-.3c.2.1,1.1-.1,1.8-.6.8-.5,1.8-.7,2.2-.6.5.2.6.1.3-.2-.5-.5,2.1-1.3,3.4-1.1.3,0,.4,0,.2-.3-.2-.2.4-.6,1.4-.9,1.5-.4,1.7-.4,1.4,0-.3.3,0,.2.6-.2,1.1-.8,9.3-4.3,10.1-4.3.3,0,1.7-.5,3.2-1.1,1.5-.6,3.3-1.1,4-1.1s1.6-.2,1.9-.5c.5-.5,4.6-.9,4.6-.5s-2.9,1-6.4,2c-3.5,1-8.3,2.6-10.6,3.6-2.3,1-6.2,2.5-8.5,3.3s-5,1.9-5.9,2.4c-.9.5-3,1.4-4.6,2s-4.7,1.8-6.9,2.7-4.3,1.6-4.6,1.6c-1,0-8.9,4-16.3,8.3-4.1,2.4-7.6,4.2-7.9,4-.3-.2-.4,0-.3.2.1.3-1.3,1.6-3.2,2.9-1.9,1.3-3.5,2.6-3.5,2.7s-.5.7-1.2,1.1c-.7.5-.9.8-.4.8s1.7-.9,2.8-1.9c1.2-1.1,2.4-1.8,3.1-1.8.7,0,.7,0,.2-.1-2.5-.7,25.6-16.1,28.8-15.8.9.1,1.6,0,1.6-.2s.4-.3.8,0c.5.2.6.1.3-.2-.3-.3-.9-.4-1.4-.2-2.8,1,1.6-.9,15.5-6.5,8.6-3.5,17.9-7,20.7-7.8,2.8-.8,8.1-2.4,11.9-3.5,3.7-1.1,7.2-2.1,7.6-2.1.5,0,5.5-1.4,11.1-2.9,5.7-1.6,14.2-3.8,18.9-4.9,4.8-1.1,8.9-2.2,9.2-2.3.3-.1.5,0,.5.2s-1.4.7-3.1,1.2c-1.7.4-5.7,1.5-8.9,2.4-3.2.9-8.3,2.3-11.3,3-7,1.8-7.5,1.9-22.6,6.4-19.2,5.7-29.7,9.3-31.9,10.9-.5.4-1.3.7-1.6.7s-2.8,1-5.6,2.2c-16.5,7.3-25.4,11.9-24.5,12.8.3.3.7.2,1.1-.2.7-.8,12.6-6.9,17-8.8,1.6-.7,4.7-2,6.9-2.9,2.2-.9,4.3-1.6,4.7-1.4.4.1.5,0,.2-.2-.6-.5,9.2-4.7,14.4-6.2,2-.6,5.2-1.6,7.1-2.3,2-.8,3.8-1.2,4.4-1,.5.2.7.2.4,0-.7-.5,11.2-4.1,26.4-8.1,6.2-1.6,14.4-3.8,18.2-4.9,3.8-1.1,8.4-2.3,10.2-2.7,1.8-.4,5.4-1.3,8-2,2.6-.7,6.4-1.5,8.4-1.9,4.4-.9,16-3.6,17.7-4.2,2.9-1,29.2-5.9,29.7-5.6.1,0-2.9.9-6.8,1.8-3.9.9-7.4,1.9-7.8,2.1-.5.3-.2.3.7,0,4.8-1.1,26.9-5.5,27.6-5.5.4,0-1.3.5-3.9,1-2.6.6-11.4,2.7-19.7,4.8-8.2,2.1-16.9,4.3-19.3,4.8s-6,1.4-8,1.9c-2,.5-4.3,1.1-5.1,1.3-.8.2-5.3,1.5-10,2.8-4.7,1.3-8.8,2.4-9.1,2.4s-2,.5-3.8,1c-1.8.6-7.4,2-12.5,3.3-8.6,2.1-16.5,4.4-20.9,6.2-1,.4-3.1,1.1-4.7,1.6-7.2,2.2-19.4,6.7-25.7,9.5-2.5,1.1-4.7,2-5,2-1.3,0-15.5,8-22.6,12.8-2.1,1.4-4.1,2.4-4.4,2.3-.3-.1-.6.1-.6.5,0,.4-.3,1.1-.6,1.6-.3.5.9-.1,2.6-1.3,6.9-4.8,17.8-11.2,18.7-11,.5.1.8,0,.6-.2-1-1,18.4-9.4,31.3-13.6,3.2-1,6.2-2.1,6.7-2.3.5-.2,1.4-.3,2-.2s1,.1.8,0c-.4-.4,6.4-3,8.3-3.2.6,0,1.4-.4,1.8-.7,1-.7,12.8-3.7,13.6-3.4.3.1.6,0,.6-.1s1.2-.6,2.7-1c1.5-.3,5.1-1.2,8-2.1,2.9-.8,5.7-1.4,6.3-1.2.6.1,2.1-.4,3.5-1.1,1.3-.7,2.9-1.2,3.4-1.1.5.1.8,0,.5-.2-.2-.2-.3-.4-.2-.4s2-.4,4.2-.9c2.2-.5,4.2-.7,4.7-.6.4.1.5,0,.2-.2-.6-.6,2.1-1.2,3.3-.7.5.2.7.1.4-.1-.6-.6,6.5-2.5,8-2.1.6.1.9,0,.6-.2-.4-.4.5-.6,1.5-.3.2,0,.6,0,.9-.3.8-.7,6.8-2,7.6-1.7.5.2.5,0,.1-.3-.4-.4-.3-.5.6-.3.7.2,1.2.1,1.2-.1,0-.5,2.9-1.1,4.4-.9.6,0,.8,0,.5-.2-.6-.4,6.8-2.4,7.7-2.1.3.1.6,0,.6-.2,0-.4,4.3-1.5,5.3-1.3.3,0,.8-.1,1.1-.4.8-.8,6.6-1.9,7.9-1.6.9.2,1.1.1.6-.3-.4-.4-.3-.5.6-.3.8.2,1.1.1.7-.2-.4-.3,0-.4,1.5-.2,1.4.2,1.8.2,1.5-.2ZM246.7,103.5c0-.5.2-.6.4-.3.2.3.2.7,0,.8-.2.1-.4-.1-.4-.6ZM247.2,117c-.1,2.2-.2.4-.2-4s.1-6.3.2-4,.1,5.9,0,8.1ZM247.1,85.9h0c.2.4.2,1,0,1.3-.2.3-.4,0-.3-.8s.2-1,.4-.5ZM247.1,88.1c.3.2.3.4,0,.6-.3.2-.5,0-.5-.3s.2-.5.5-.3ZM247.2,97.9c-.1,1.4-.3.1-.3-2.8,0-2.9.1-4,.3-2.5h0c.1,1.5.1,3.9,0,5.3ZM247.1,101.2c.3.2.3.4,0,.6-.3.2-.5,0-.5-.3s.2-.5.5-.3ZM112.6,110.4c.5-.1,1.2-.1,1.4,0,.2.1-.2.2-1,.2-.8,0-1-.1-.4-.3ZM112.2,111.3c.3-.2.7-.2,1,0,.3.2,0,.3-.5.3s-.8-.1-.5-.3ZM109.6,110c.5-.1,1.2-.1,1.4,0,.2.1-.2.2-1,.2-.8,0-1-.1-.4-.3ZM109.4,110.7c.2,0,.4,0,.4.2s-.2.2-.4.2-.4,0-.4-.2.2-.2.4-.2ZM107.8,111.7c.3-.2.7-.2,1,0,.3.2,0,.3-.5.3s-.8-.1-.5-.3ZM85.4,114.7c-.2,0-.4,0-.4-.2s.2-.2.4-.2.4,0,.4.2-.2.2-.4.2ZM86.8,114.2c-.2,0-.4,0-.4-.2s.2-.2.4-.2.4,0,.4.2-.2.2-.4.2ZM88.7,112.2c0-.1.2-.2.4-.2s.4,0,.4.2-.2.2-.4.2-.4,0-.4-.2ZM89.4,113.3c-.5,0-.8-.1-.5-.3.3-.2.7-.2,1,0,.3.2,0,.3-.5.3ZM33.7,118.6c.2,0,.4,0,.4.2s-.2.2-.4.2-.4,0-.4-.2.2-.2.4-.2ZM78.1,115.5c-.8,0-1-.1-.4-.3.5-.1,1.2-.1,1.4,0h0c.2.1-.2.2-1,.2ZM79,114.4c.3.2,0,.3-.5.3s-.8-.1-.5-.3c.3-.2.7-.2,1,0ZM77.3,113.5c.3-.2.7-.2,1,0,.3.2,0,.3-.5.3s-.8-.1-.5-.3ZM70.5,114.2c1-.2,2.5-.4,3.3-.4,1.2,0,1.1,0-.4.4-1,.2-2.5.4-3.3.4-1.2,0-1.1,0,.4-.4ZM66.6,116.6c.3.2,0,.3-.5.3s-.8-.1-.5-.3c.3-.2.7-.2,1,0ZM64.9,115.7c.3-.2.7-.2,1,0,.3.2,0,.3-.5.3s-.8-.1-.5-.3ZM60.6,117.6c-1.2,0-1.6-.1-.9-.2.7-.1,1.7-.1,2.2,0h0c.5.1,0,.2-1.3.2ZM61.2,116c1.1,0,2,0,2,.2,0,.4-2.1.6-3,.2-.7-.3-.5-.4,1-.4ZM56.1,114.4c.7-.1,1.7-.1,2.2,0,.5.1,0,.2-1.3.2-1.2,0-1.6-.1-.9-.2ZM35,120.9c.3-.2.7-.2,1,0,.3.2,0,.3-.5.3s-.8-.1-.5-.3ZM32.5,121.4c.5-.1,1.2-.1,1.4,0h0c.2.1-.2.2-1,.2-.8,0-1-.1-.4-.3ZM31,121.9h0c-.2.1-1.8.3-3.6.4l-3.2.2,3.3-.6c3.2-.6,4.3-.6,3.5,0ZM27.2,119.4c3.7-.5,6.7-.4,3.6,0h0c-1.2.2-3.2.3-4.4.3-1.8,0-1.7,0,.7-.4ZM24.3,118.6c.2,0,.4,0,.4.2s-.2.2-.4.2-.4,0-.4-.2.2-.2.4-.2ZM26.1,120.8c1.2,0,2.2,0,2.2.2s-1,.3-2.2.4c-1.2.1-2.2,0-2.2-.2s1-.4,2.2-.4ZM19,120.5c.3-.2.7-.2,1,0,.3.2,0,.3-.5.3s-.8-.1-.5-.3ZM19,121.8c.3-.2.7-.2,1,0,.3.2,0,.3-.5.3s-.8-.1-.5-.3ZM15.7,120.9c.5-.1,1.2-.1,1.4,0h0c.2.1-.2.2-1,.2-.8,0-1-.1-.4-.3ZM15,122.2c.5-.1,1.3-.1,1.8,0,.5.1,0,.2-.9.2s-1.4,0-.9-.2ZM12.1,121.4c.5-.1,1.2-.1,1.4,0h0c.2.1-.2.2-1,.2-.8,0-1-.1-.4-.3ZM10.4,123c.8-.2,1.9-.4,2.5-.4s.6.1-.4.4c-.8.2-1.9.4-2.5.4s-.6-.1.4-.4ZM4.9,123.7c.4-.2,1.4-.3,2.4-.2,1.5.1,1.4.2-.7.4-1.4.1-2.1,0-1.7-.2ZM9.7,124.7c-.8.2-2.1.4-2.9.4h-1.5l1.5-.4c.8-.2,2.1-.4,2.9-.4h1.5l-1.5.4ZM19.5,123.4c-.6.2-2.7.5-4.7.6l-3.6.3,3.6-.6c4.2-.7,6.5-.9,4.7-.3ZM96.9,111.3c.3-.2.7-.2,1,0,.3.2,0,.3-.5.3s-.8-.1-.5-.3ZM93,113.8c-.5,0-.8-.1-.5-.3.3-.2.7-.2,1,0,.3.2,0,.3-.5.3ZM93.8,112.9c-.5,0-.8-.1-.5-.3.3-.2.7-.2,1,0,.3.2,0,.3-.5.3ZM95.6,112.9c-.3-.2,0-.3.7-.2.6.1,1.1.3,1.1.4,0,.4-1.4.2-1.8-.3ZM97.8,112.5c-.2,0-.4,0-.4-.2s.2-.2.4-.2.4,0,.4.2-.2.2-.4.2ZM100.3,112.8c-1,0-1.4,0-.9-.2.5-.1,1.3-.1,1.8,0,.5.1,0,.2-.9.2ZM101.8,112c-.5,0-.8-.1-.5-.3.3-.2.7-.2,1,0,.3.2,0,.3-.5.3ZM102.5,111.2c-.5,0-.8-.1-.5-.3.3-.2.7-.2,1,0,.3.2,0,.3-.5.3ZM24.3,131.7c.2,0,.4,0,.4.2s-.2.2-.4.2-.4,0-.4-.2.2-.2.4-.2ZM22.2,101.6c.2.4.2,1,0,1.3s-.4,0-.3-.8c0-.7.2-1,.4-.5ZM22.2,124c.2.7.2,1.7,0,2.4-.2.7-.3.1-.3-1.2s.1-1.9.3-1.2ZM21.8,121.4c0-.5.2-.6.4-.3.2.3.2.7,0,.8s-.4-.1-.4-.6ZM22.2,119.3c-.3.2-.5,0-.5-.3s.2-.5.5-.3c.3.2.3.4,0,.6ZM22.2,128.8c.3.2.3.4,0,.6-.3.2-.5,0-.5-.3s.2-.5.5-.3ZM22.2,133.2c.3.2.3.4,0,.6-.3.2-.5,0-.5-.3s.2-.5.5-.3ZM22.2,134.9c.3.2.3.4,0,.6-.3.2-.5,0-.5-.3s.2-.5.5-.3ZM22.2,138.8c-.2.3-.4,0-.3-.8,0-.7.2-1,.4-.5.2.4.2,1,0,1.3ZM22.2,149.3c-.1,1.3-.3.2-.3-2.3s.1-3.6.3-2.3c.1,1.3.1,3.3,0,4.6ZM22.2,153.5c.2.3.2.7,0,.8-.2.1-.4-.1-.4-.6,0-.5.2-.6.4-.3ZM22.2,156.6c.2.8.2,2,0,2.6-.2.7-.3,0-.3-1.4,0-1.4.1-2,.3-1.2ZM22.1,162.4c-.2,0-.4,0-.4-.2s.2-.2.4-.2.4,0,.4.2-.2.2-.4.2ZM22.1,114.2c-.2,0-.4,0-.4-.2s.2-.2.4-.2.4,0,.4.2-.2.2-.4.2ZM25.8,166.4c-2.2,1.8-2.7,1.9-2.6,1.1,0-.3,1.1-1,2.4-1.6l2.3-1.1-2.1,1.6ZM28.6,165c-.2,0-.4,0-.4-.2s.2-.2.4-.2.4,0,.4.2-.2.2-.4.2ZM82.3,136.9c-8,2.4-31.9,11.2-37.1,13.7-1.5.7-4.2,1.9-5.9,2.5-4,1.6-14.9,8-14.1,8.3.3.1.5.6.4,1-.3,1.1.1,1,4-1,1.9-1,3.7-1.6,3.9-1.5.3.1.3,0,.1,0-.2-.1,1-.9,2.7-1.8,8.2-4,13.7-7.5,8.9-5.6-1,.4-1.8.8-1.8,1s-1.6,1-3.5,1.8c-1.9.8-4,1.8-4.8,2.3-1.6,1-2.6,1-2.4.1.2-.9,2.7-1.9,4-1.7.8.2.9.1.2-.2-1.2-.5,1.1-1.8,5.5-3.1,1.7-.5,3.1-1.1,3.1-1.3,0-.6,6.6-3.2,7.3-2.9.4.1.6,0,.5-.3-.1-.3.4-.6,1.1-.5.7,0,1.1,0,.9-.2-.4-.2,7.8-3.6,10.5-4.3.6-.2,4.2-1.5,8.1-2.9,3.9-1.4,7.7-2.6,8.5-2.6.8,0,1.4-.2,1.2-.3-.1-.1.8-.5,2.1-.9,1.3-.3,4.7-1.3,7.7-2.1,5.9-1.7,7.6-1.7,2.8-.1-1.7.6-4.4,1.6-6.1,2.2-1.7.7-3.2,1.1-3.5.9-.3-.2-.5,0-.5.2s-1.9,1.1-4.2,1.9c-5.3,1.9-5.6,1.9-4.9,1.2.3-.4.3-.5,0-.2-.4.2-.7.6-.7.8s-2.9,1.5-6.6,2.8c-11.2,4.1-12.9,4.7-16.5,6.4-1.9.9-3.8,1.6-4.2,1.6s-.9.4-1.2.9-.7.9-1,.9c-.3,0-1.5.5-2.7,1.2s-3.7,2-5.6,2.9c-1.9.9-3.3,1.8-3.1,2.1.5.5-3.4,2.9-4.6,2.7-.5,0-.9,0-.9.3s-.7.5-1.5.6-1.5,0-1.5-.2-.5-.3-1.1-.1c-.6.1-1,.5-.8.9s0,.5-.5.5c-.5,0-.8.1-.7.4h0c.3.8-.5.7-1-.1-.2-.4-.1-1.4.3-2.2.4-.8.5-1.6.2-1.7-.5-.2-.5-2.8,0-3,.1,0,1.9-.9,3.9-1.8,2-.9,3.8-1.8,3.9-1.8.2,0,0-.2-.2-.4-.3-.2-2,.5-4,1.5l-3.5,1.8v-12.2c-.2-9.2,0-12.3.6-12.6,1.2-.6,14.7-3.2,16.9-3.3.9,0,1.6-.2,1.4-.3-.3-.2,11.9-2.6,13.2-2.6.4,0-.7.4-2.5.9-5,1.3-6.9,2-7.1,2.5-.1.2,1,0,2.5-.4,3.1-.9,5.2-1.4,9-2.2,1.4-.3,3.2-.7,4-.9,2.2-.5,7.6-1.5,19.2-3.3,5.8-.9,9.9-1.8,9.2-1.9-1.7-.4,5-1.2,9.5-1.1h3.6s0,4.5,0,4.5c0,2.5-.2,4.5-.6,4.5-1.5,0-29.1,8.6-40.9,12.7-5.6,1.9-23.9,9.2-28.3,11.2-5.9,2.7,1.7.2,11.7-3.8,6.8-2.7,14.9-5.8,18.1-7,15.3-5.3,38.8-12.4,39.5-12,.5.3-2.6,1.9-3.6,2-.6,0-9.4,2.5-17.1,4.8ZM30,160.1h0c.3.3-.3.8-1.3,1.2-1.4.6-1.8.6-1.8.1,0-.8,3.2-2.6,4-2.2.3.2.4,0,.1-.2-.6-.6.7-1.2,1.4-.6.6.6-1.1,1.8-2,1.4-.4-.2-.5,0-.3.2ZM99.2,119.9c-.8,0-1-.1-.4-.3.5-.1,1.2-.1,1.4,0h0c.2.1-.2.2-1,.2ZM93.3,119.6c-4.3.7-9.7,1.5-11.9,1.9-2.2.4-6.1,1-8.7,1.3-4.7.6-9.2,1.5-28.6,5.3-5.5,1.1-10.6,2-11.3,2.1-.7,0-2.5.5-4,.9h0q-3.1.8-3.7.4c-2.1-1.3,2.8-2.5,22.8-5.6,7-1.1,14.4-2.3,16.4-2.6,2-.3,4.9-.7,6.6-.8,1.6-.1,5.5-.6,8.7-1.2,13.1-2.1,20.2-3.1,20.9-3,.4,0-2.8.7-7.2,1.3ZM86.8,121.7c-.8.2-1.9.4-2.5.4s-.6-.1.4-.4c.8-.2,1.9-.4,2.5-.4s.6.1-.4.4ZM81.4,122.5c-.5,0-.8-.1-.5-.3.3-.2.7-.2,1,0,.3.2,0,.3-.5.3ZM78.8,123c-.8.2-1.9.4-2.5.4s-.6-.1.4-.4c.8-.2,1.9-.4,2.5-.4s.6.1-.4.4ZM73.4,123.8c-.5,0-.8-.1-.5-.3.3-.2.7-.2,1,0,.3.2,0,.3-.5.3ZM70.5,124.2c-1,0-1.4,0-.9-.2s1.3-.1,1.8,0,0,.2-.9.2ZM63.6,125.4c-4.8,1-6.8,1.3-6.1.9.7-.4,9.2-2,10.2-2,.6,0-1.2.5-4.1,1.1ZM101.3,119.2c.3-.2.7-.2,1,0,.3.2,0,.3-.5.3s-.8-.1-.5-.3ZM103.6,132.2c-.2.2-1,.4-1.8.6-.8.1-1.3,0-1.1-.1.2-.2,1-.4,1.8-.6.8-.1,1.3,0,1.1.1ZM102.8,118.1c-.8,0-1-.1-.4-.3.5-.1,1.2-.1,1.4,0h0c.2.1-.2.2-1,.2ZM69,121.8c-1,.1-5.2.7-9.3,1.3-4.1.6-7.9,1-8.3.9-.5-.2-.6,0-.2.3.4.4.1.5-1.3.3-1.2-.2-1.9-.1-1.9.2s-.6.4-1.5.2c-.8-.2-1.5,0-1.5.2,0,.4-3.9,1.1-6.2,1.1-.4,0-.9.1-1.1.2-.2.1-2.8.7-5.8,1.3h0c-3,.6-5.9,1.1-6.4,1.2-1.1.3-1.8-.8-1.5-2.1.2-1,3.4-1.6,20.6-3.9,2.4-.3,6.8-1,9.8-1.4,3-.5,6.9-1,8.7-1.3s4.3-.6,5.6-.9,3.9-.6,5.8-.7c4-.2,5.2-.4,6.8-.7,3.3-.8,8.5-1.6,9.9-1.6s2.9-.3,4.4-.6c6-1.3,8.3-1.3,8.3-.2s-21.4,4.7-34.9,6.2ZM105.8,100.6c.2,0,.4,0,.4.2s-.2.2-.4.2-.4,0-.4-.2.2-.2.4-.2ZM105.9,108c-.2,1.2-.3.3-.3-1.8,0-2.2.1-3.1.3-2.1h0c.2,1,.2,2.8,0,3.9ZM105.9,111.9h0c.2,1,.2,2.6,0,3.5-.2.9-.3,0-.3-1.9,0-1.9.1-2.7.3-1.6ZM105.9,130.3c-.3.2-.5,0-.5-.3s.2-.5.5-.3c.3.2.3.4,0,.6ZM105.8,129.1c-.2,0-.4,0-.4-.2s.2-.2.4-.2.4,0,.4.2-.2.2-.4.2ZM105.9,126.4c-.1,1.1-.3,0-.3-2.3,0-2.4.1-3.3.3-2.1h0c.1,1.3.1,3.2,0,4.4ZM105.8,118.6c-.2,0-.4,0-.4-.2s.2-.2.4-.2.4,0,.4.2-.2.2-.4.2ZM105.8,117.7c-.2,0-.4,0-.4-.2s.2-.2.4-.2.4,0,.4.2-.2.2-.4.2ZM156.2,107.6c.4-.3,1.2-.4,1.7-.3.5.1.2.3-.8.5-1.2.2-1.5.1-1-.2ZM157.8,110.9c0,.1-.2.2-.4.2s-.4,0-.4-.2.2-.2.4-.2.4,0,.4.2ZM115.4,114.1c1.3,0,2.2-.1,2-.3-.4-.4,3.2-1.1,3.8-.7.2.1-.2.2-1,.2-1,0-1.1.1-.5.4.6.2-.4.5-2.8.9-2,.3-4,.4-4.3.3-.3-.1-1.5,0-2.7.4-1.1.4-1.6.7-1,.7,2,0,23.6-2.7,25.2-3.2.9-.2,1.9-.3,2.4-.2s.8,0,.8-.2c0-.6-6.5-.2-8.7.4-.6.2-2.5.5-4.1.6s-2.3.1-1.5,0c1.1-.2,1.2-.3.4-.6-.7-.3-.4-.4,1.2-.5,3.3-.1,4.3-.2,5.5-.5,1.3-.3,24.6-2.9,26.2-2.9,3.3,0-1.4.8-8.2,1.5-8.4.8-10,1-10,1.6s2.5,0,5.6-.5c3.1-.4,6.5-.8,7.5-.8,1.8,0-19.4,3.4-34.2,5.4h0c-9.4,1.3-8.6,1.3-9.2,0-.7-1.6,1.3-2.1,7.5-2ZM154.9,110.6c-1,0-1.4,0-.9-.2.5-.1,1.3-.1,1.8,0,.5.1,0,.2-.9.2ZM152,112c-1,0-1.4,0-.9-.2s1.3-.1,1.8,0,0,.2-.9.2ZM139.9,113.7c-.8,0-1-.1-.4-.3.5-.1,1.2-.1,1.4,0h0c.2.1-.2.2-1,.2ZM137,114.2c-.8,0-1-.1-.4-.3.5-.1,1.2-.1,1.4,0,.2.1-.2.2-1,.2ZM130.9,115.1c-2.5.5-4.4.5-2.5,0,.8-.2,2.1-.4,2.9-.4,1.2,0,1.1,0-.4.4ZM117.4,117.2c-.8,0-1-.1-.4-.3.5-.1,1.2-.1,1.4,0h0c.2.1-.2.2-1,.2ZM113.7,117.7c-.8,0-1-.1-.4-.3.5-.1,1.2-.1,1.4,0h0c.2.1-.2.2-1,.2ZM108.7,130.9c-.2,0-.4,0-.4-.2s.2-.2.4-.2.4,0,.4.2-.2.2-.4.2ZM107.6,129.1c0-.2,1-.6,2.3-.9,3.3-.7,3.5-.6,1,.4h0c-2.4,1-3.3,1.1-3.3.5ZM110.9,132.2c-.2,0-.4,0-.4-.2s.2-.2.4-.2.4,0,.4.2-.2.2-.4.2ZM113.8,131.3c-.2,0-.4,0-.4-.2s.2-.2.4-.2.4,0,.4.2-.2.2-.4.2ZM115.2,130.9c-.2,0-.4,0-.4-.2s.2-.2.4-.2.4,0,.4.2-.2.2-.4.2ZM116.7,130.4c-.2,0-.4,0-.4-.2s.2-.2.4-.2.4,0,.4.2-.2.2-.4.2ZM118.1,130c-.2,0-.4,0-.4-.2s.2-.2.4-.2.4,0,.4.2-.2.2-.4.2ZM120,129.5c-.5,0-.8-.1-.5-.3.3-.2.7-.2,1,0,.3.2,0,.3-.5.3ZM121.8,129.1c-.2,0-.4,0-.4-.2s.2-.2.4-.2.4,0,.4.2-.2.2-.4.2ZM124.6,128.4c-1,.2-1.1.2-.4-.2.5-.3,1.1-.4,1.3-.3h0c.2.1-.2.4-.9.5ZM126.9,127.8c-.2,0-.4,0-.4-.2s.2-.2.4-.2.4,0,.4.2-.2.2-.4.2ZM128.3,127.3c-.2,0-.4,0-.4-.2s.2-.2.4-.2.4,0,.4.2-.2.2-.4.2ZM130.5,126.9c-.2,0-.4,0-.4-.2s.2-.2.4-.2.4,0,.4.2-.2.2-.4.2ZM132,126.5c-.2,0-.4,0-.4-.2s.2-.2.4-.2.4,0,.4.2-.2.2-.4.2ZM126.9,126.3c-2.4.6-5.4,1.3-6.6,1.7-1.2.3-3.8,1-5.7,1.5-4.2,1.1-6.1,1.2-3,.1,2.9-1,14.6-4,17.7-4.5,1.3-.2,4.6-1,7.2-1.7s5.1-1.2,5.5-1.2c.6.1-5,1.7-15.1,4.1ZM116.3,126.9c1.8-.5,3.3-.8,3.5-.7s-1,.5-2.7.9c-4.1,1-4.7.8-.8-.2ZM122.8,125.4c3.1-.8,3.9-.8,1.6,0h0c-1,.3-2.3.6-2.9.6-.6,0,0-.3,1.4-.6ZM126.5,124.5c0-.1.2-.2.4-.2s.4,0,.4.2-.2.2-.4.2-.4,0-.4-.2ZM128.7,124.1c0-.1.2-.2.4-.2s.4,0,.4.2-.2.2-.4.2-.4,0-.4-.2ZM130.4,123.6c.3-.2.7-.2,1,0,.3.2,0,.3-.5.3s-.8-.1-.5-.3ZM132.3,123.2c0-.1.2-.2.4-.2s.4,0,.4.2-.2.2-.4.2-.4,0-.4-.2ZM134,122.7c.3-.2.7-.2,1,0,.3.2,0,.3-.5.3s-.8-.1-.5-.3ZM136,122.3c0-.1.2-.2.4-.2s.4,0,.4.2-.2.2-.4.2-.4,0-.4-.2ZM137.4,121.9c0-.1.2-.2.4-.2s.4,0,.4.2-.2.2-.4.2-.4,0-.4-.2ZM139.6,121.4c0-.1.2-.2.4-.2s.4,0,.4.2-.2.2-.4.2-.4,0-.4-.2ZM133.8,126c-.5,0-.8-.1-.5-.3.3-.2.7-.2,1,0,.3.2,0,.3-.5.3ZM135.6,125.6c-.2,0-.4,0-.4-.2s.2-.2.4-.2.4,0,.4.2-.2.2-.4.2ZM137.1,125.2c-.2,0-.4,0-.4-.2s.2-.2.4-.2.4,0,.4.2-.2.2-.4.2ZM138.5,124.7c-.2,0-.4,0-.4-.2s.2-.2.4-.2.4,0,.4.2-.2.2-.4.2ZM140.7,124.3c-.2,0-.4,0-.4-.2s.2-.2.4-.2.4,0,.4.2-.2.2-.4.2ZM142.2,123.8c-.2,0-.4,0-.4-.2s.2-.2.4-.2.4,0,.4.2-.2.2-.4.2ZM141.4,121.2c-.4,0-.2-.2.4-.4.6-.2,1.4-.4,1.8-.4s.2.2-.4.4c-.6.2-1.4.4-1.8.4ZM144.4,123.4c-.2,0-.4,0-.4-.2s.2-.2.4-.2.4,0,.4.2-.2.2-.4.2ZM145.8,123c-.2,0-.4,0-.4-.2s.2-.2.4-.2.4,0,.4.2-.2.2-.4.2ZM147.3,122.5c-.2,0-.4,0-.4-.2s.2-.2.4-.2.4,0,.4.2-.2.2-.4.2ZM148,121c-4.7,1.4-6.1,1.4-1.8,0,1.8-.6,3.8-1.1,4.4-1,.6,0-.5.5-2.5,1.1h0ZM144.7,120.1c0-.1.2-.2.4-.2s.4,0,.4.2-.2.2-.4.2-.4,0-.4-.2ZM146.2,119.7c0-.1.2-.2.4-.2s.4,0,.4.2-.2.2-.4.2-.4,0-.4-.2ZM148.4,119.3c0-.1.2-.2.4-.2s.4,0,.4.2-.2.2-.4.2-.4,0-.4-.2ZM149.4,122.1c-.2,0-.4,0-.4-.2s.2-.2.4-.2.4,0,.4.2-.2.2-.4.2ZM150.9,121.7c-.2,0-.4,0-.4-.2s.2-.2.4-.2.4,0,.4.2-.2.2-.4.2ZM150.9,119c-.2,0-.4,0-.4-.2s.2-.2.4-.2.4,0,.4.2-.2.2-.4.2ZM148,118.4c-5.6,1.3-12.8,3.1-16.1,3.9-3.3.8-6.2,1.5-6.6,1.5s-4.4.9-8.9,2h0c-4.5,1.1-8.3,2-8.4,2-1,0,0-8.6,1.1-8.8,1-.2.9-.3-.3-.4h-1.5c0,0,1.5-.4,1.5-.4,2.3-.6,4-.6,2.5,0-.8.3-.4.4,1.7.2,3.8-.4,6.3-1,6.3-1.5s.5-.4,1.1-.4,1,.2.7.4c-.2.2.5.3,1.6.1,1.8-.2,1.8-.3.5-.6-1.1-.3-1.2-.3-.2-.4.7,0,1.8-.2,2.5-.3.9-.2,1.1-.1.7.2-.6.6-.5.6,2.2.1,1.2-.2,3.1-.5,4.3-.7,1.7-.2,1.9-.4,1.1-.7-.8-.3-.5-.4,1.2-.2,1.2.1,4,0,6.1-.4,4.5-.7,5.7-1.2,2.2-.9-1.7.1-1.3,0,1.1-.4,4-.7,6.8-.9,4.4-.2-2.1.5-1,.5,3.3,0,2.6-.3,3.5-.6,2.8-.9-.8-.3-.8-.4.2-.4.6,0,1.7.4,2.4.8,1.2.8,1.2.8-.4.6-1.2-.2-1.5-.1-1.1.3.4.4.2.5-1,.3-.9-.2-1.5-.1-1.5.1s-.8.3-1.7.2c-1.8-.2-3.3.9-1.9,1.4.4.1.5.4.3.7-.2.2.7.4,2.2.4s2.6-.2,2.6-.4.8-.4,1.8-.3c3.3.2,1.5.8-8.8,3.2ZM157.1,114c0,.1-.2.2-.4.2s-.4,0-.4-.2.2-.2.4-.2.4,0,.4.2ZM152.7,119.9c-.5,0-.8-.1-.5-.3.3-.2.7-.2,1,0,.3.2,0,.3-.5.3ZM153.8,118c.8-.4,2.3-.7,3.3-.7,1.4,0,1.5,0,.7.4h0c-2.4.8-5.6,1.1-4,.3ZM154.5,120.8c-.2,0-.4,0-.4-.2s.2-.2.4-.2.4,0,.4.2-.2.2-.4.2ZM154.5,119.5c-.2,0-.4,0-.4-.2s.2-.2.4-.2.4,0,.4.2-.2.2-.4.2ZM156.7,120.3c-.2,0-.4,0-.4-.2s.2-.2.4-.2.4,0,.4.2-.2.2-.4.2ZM156.7,119c-.2,0-.4,0-.4-.2s.2-.2.4-.2.4,0,.4.2-.2.2-.4.2ZM158.2,118.6c-.2,0-.4,0-.4-.2s.2-.2.4-.2.4,0,.4.2-.2.2-.4.2ZM168.7,125.6c-.5,0-.8-.1-.5-.3.3-.2.7-.2,1,0,.3.2,0,.3-.5.3ZM170.6,125.2c-.2,0-.4,0-.4-.2s.2-.2.4-.2.4,0,.4.2-.2.2-.4.2ZM241.9,105.9c-.2,0-.4,0-.4-.2s.2-.2.4-.2.4,0,.4.2-.2.2-.4.2ZM243.3,106.8c-.2,0-.4,0-.4-.2s.2-.2.4-.2.4,0,.4.2-.2.2-.4.2ZM243.7,105.5c-.5,0-.8-.1-.5-.3.3-.2.7-.2,1,0,.3.2,0,.3-.5.3ZM243.4,99.6c.7-.2,1.1,0,1.1.6,0,1,0,1-1.2.2-.7-.5-.7-.7.2-.8ZM241.5,102.6c0,.1-.2.2-.4.2s-.4,0-.4-.2.2-.2.4-.2.4,0,.4.2ZM196.6,103.4c.3-.2.7-.2,1,0,.3.2,0,.3-.5.3s-.8-.1-.5-.3ZM192.6,103.9c.5-.1,1.2-.1,1.4,0h0c.2.1-.2.2-1,.2-.8,0-1-.1-.4-.3ZM193.2,105.1c2.4-.6,4.7-.6,4.7,0s-.9.4-2,.4c-1.8,0-1.8,0-.5.4l1.5.4h-1.5c-3.3,0-4.4-.6-2.1-1.1ZM189.8,106.1c0,.1-.2.2-.4.2s-.4,0-.4-.2.2-.2.4-.2.4,0,.4.2ZM187.1,104.3c.7-.1,1.7-.1,2.2,0h0c.5.1,0,.2-1.3.2-1.2,0-1.6-.1-.9-.2ZM182.4,104.7c.5-.1,1.2-.1,1.4,0h0c.2.1-.2.2-1,.2-.8,0-1-.1-.4-.3ZM178.4,105.2c.3-.2.7-.2,1,0,.3.2,0,.3-.5.3s-.8-.1-.5-.3ZM174.5,103.7c-.7-.3-.5-.4,1-.4,1.1,0,2,0,2,.2,0,.4-2.1.6-3,.2ZM173.3,105.6c.3-.2.7-.2,1,0,.3.2,0,.3-.5.3s-.8-.1-.5-.3ZM171.3,105c.2,0,.4,0,.4.2s-.2.2-.4.2-.4,0-.4-.2.2-.2.4-.2ZM170.1,106c.5-.1,1.2-.1,1.4,0h0c.2.1-.2.2-1,.2-.8,0-1-.1-.4-.3ZM165.7,106.5c.5-.1,1.2-.1,1.4,0h0c.2.1-.2.2-1,.2-.8,0-1-.1-.4-.3ZM168,107.7c0,.2-.5.4-1,.4s-2.1.1-3.5.3c-1.6.2-2.2.1-1.7-.2,1-.6,6.2-1,6.2-.5ZM161.3,106.9c.5-.1,1.2-.1,1.4,0h0c.2.1-.2.2-1,.2-.8,0-1-.1-.4-.3ZM159.8,102.7c-.2.4-.3,0-.3-.8s.1-1.2.3-.8h0c.2.4.2,1.1,0,1.5ZM159.7,104.9c-.2.1-.4-.1-.4-.6,0-.5.2-.6.4-.3.2.3.2.7,0,.8ZM159.8,100.1c-.3.2-.5,0-.5-.3s.2-.5.5-.3c.3.2.3.4,0,.6ZM159.6,105.9c.2,0,.4,0,.4.2s-.2.2-.4.2-.4,0-.4-.2.2-.2.4-.2ZM159.8,110.6h0c.2.5.2,1.3,0,1.8s-.3,0-.3-1c0-1,.2-1.3.3-.8ZM159.4,107.9c0-.7.2-1,.4-.5h0c.2.4.2,1,0,1.3-.2.3-.4,0-.3-.8ZM159.6,114.7c-.2,0-.4,0-.4-.2s.2-.2.4-.2.4,0,.4.2-.2.2-.4.2ZM159.6,98.5c-.2,0-.4,0-.4-.2s.2-.2.4-.2.4,0,.4.2-.2.2-.4.2ZM161.1,109.8c-.2,0-.4,0-.4-.2s.2-.2.4-.2.4,0,.4.2-.2.2-.4.2ZM188.6,114.1c-1.1.3-4.6,1.1-7.8,1.8-3.2.7-8.7,2-12.2,2.8s-6.4,1.4-6.4,1.2.9-.5,2-.7,3-.6,4.2-.9c6.7-1.8,21.6-5.1,22-4.9.1,0-.7.4-1.8.6ZM164.9,116.4c1.8-.6,2.1-.8.9-.6-1,.2-1.6.1-1.3,0,.7-.5,6.4-.6,6-.2-.2.2-.7.4-1.1.4s-2.1.4-3.7.9h0c-3.2.9-3.5,1-3.5.7s1.2-.6,2.7-1.1ZM162.2,116.2c0-.1.2-.2.4-.2s.4,0,.4.2-.2.2-.4.2-.4,0-.4-.2ZM168.7,114.7c.6-.2,1.4-.4,1.8-.4s.2.2-.4.4c-.6.2-1.4.4-1.8.4s-.2-.2.4-.4ZM170.2,117.1c0,.1-.2.2-.4.2s-.4,0-.4-.2.2-.2.4-.2.4,0,.4.2ZM168,117.5c0,.1-.2.2-.4.2s-.4,0-.4-.2.2-.2.4-.2.4,0,.4.2ZM164.4,118.4c0,.1-.2.2-.4.2s-.4,0-.4-.2.2-.2.4-.2.4,0,.4.2ZM170.9,116.6c0-.1.2-.2.4-.2s.4,0,.4.2-.2.2-.4.2-.4,0-.4-.2ZM174.6,114.7c-.5,0-.8-.1-.5-.3.3-.2.7-.2,1,0,.3.2,0,.3-.5.3ZM174.6,116c-.5,0-.8-.1-.5-.3.3-.2.7-.2,1,0,.3.2,0,.3-.5.3ZM174.2,113.8c-2,.5-3.2.5-1.8,0,.6-.2,1.6-.4,2.2-.4.7,0,.6.2-.4.4ZM173.1,116.2c0,.1-.2.2-.4.2s-.4,0-.4-.2.2-.2.4-.2.4,0,.4.2ZM171.9,114.8c.3-.2.7-.2,1,0,.3.2,0,.3-.5.3s-.8-.1-.5-.3ZM176.3,113.9c.3-.2.7-.2,1,0,.3.2,0,.3-.5.3s-.8-.1-.5-.3ZM176.3,113.1c.3-.2.7-.2,1,0,.3.2,0,.3-.5.3s-.8-.1-.5-.3ZM176.4,115.1c.2,0,.4,0,.4.2s-.2.2-.4.2-.4,0-.4-.2.2-.2.4-.2ZM178.6,113.8c-.2,0-.4,0-.4-.2s.2-.2.4-.2.4,0,.4.2-.2.2-.4.2ZM178.9,114.9c0,.1-.2.2-.4.2s-.4,0-.4-.2.2-.2.4-.2.4,0,.4.2ZM183.7,111.7c-2.7.6-3.9,1.1-3.3,1.3h0c.6.1.7.3.3.3-4.3.2-.3-1.7,5.1-2.4,1.2-.1.2.2-2.2.8ZM186.5,111.7c.3-.2.7-.2,1,0,.3.2,0,.3-.5.3s-.8-.1-.5-.3ZM186.2,113.1c0,.1-.2.2-.4.2s-.4,0-.4-.2.2-.2.4-.2.4,0,.4.2ZM184.8,112.5c-.5,0-.8-.1-.5-.3.3-.2.7-.2,1,0,.3.2,0,.3-.5.3ZM183.7,113.3c.2,0,.4,0,.4.2s-.2.2-.4.2-.4,0-.4-.2.2-.2.4-.2ZM182.9,112.9c-.2,0-.4,0-.4-.2s.2-.2.4-.2.4,0,.4.2-.2.2-.4.2ZM182.6,114c0,.1-.2.2-.4.2s-.4,0-.4-.2.2-.2.4-.2.4,0,.4.2ZM180.4,114.4c0,.1-.2.2-.4.2s-.4,0-.4-.2.2-.2.4-.2.4,0,.4.2ZM188.9,112.6c.3.2,0,.3-.5.3s-.8-.1-.5-.3c.3-.2.7-.2,1,0ZM188.6,111.3c.3-.2.7-.2,1,0,.3.2,0,.3-.5.3s-.8-.1-.5-.3ZM190.2,112.5c-.2,0-.4,0-.4-.2s.2-.2.4-.2.4,0,.4.2-.2.2-.4.2ZM189.5,110.7c-1-.2-1.1-.4-.4-.4.6,0,1.6.2,2.2.4,1.3.5.2.5-1.8,0ZM192,110.3c-.5,0-.8-.1-.5-.3.3-.2.7-.2,1,0,.3.2,0,.3-.5.3ZM192.8,111.8c0,.1-.2.2-.4.2s-.4,0-.4-.2.2-.2.4-.2.4,0,.4.2ZM195.5,112.6h0c-.9.1-2.3.3-3.1.5-.8.2-.3,0,1.1-.6,2.8-1,3.6-1.1,3.6-.5s-.7.5-1.6.6ZM193.9,110.7c-.2,0-.4,0-.4-.2s.2-.2.4-.2.4,0,.4.2-.2.2-.4.2ZM194.6,111.2c.2,0,.4,0,.4.2s-.2.2-.4.2-.4,0-.4-.2.2-.2.4-.2ZM195.7,110.1c0-.1.2-.2.4-.2s.4,0,.4.2-.2.2-.4.2-.4,0-.4-.2ZM196.8,111.2c-.2,0-.4,0-.4-.2s.2-.2.4-.2.4,0,.4.2-.2.2-.4.2ZM197.6,108.2c-.1.5-.9,1.1-1.6,1.3-2,.5-2.6.5-2.1,0,.2-.2,1.2-.4,2-.4,1.2,0,1.3-.1.6-.4-.6-.2-2.1,0-4,.4-1.7.4-4.3.9-5.9,1.1s-3.4.6-4,.9-5.2,1.4-10.2,2.4h0c-5,1-9.5,2-10,2.1-.5.1-.8-.2-.8-.7,0-.5.5-.9,1.1-.9s.9-.3.9-.8c0-.5-.2-.5-.4-.2-.2.3-.7.5-1.2.5s-.6-.1-.4-.3c.2-.1.1-.8-.2-1.5-.5-1.1-.4-1.3,1.2-1.6,1.4-.2,1.6-.4.9-.7-1.3-.5,0-.5,3,0,2.4.4,2.4.4,1.1-.2-1.4-.6-1.3-.7.7-.4,3.9.6,5.5,1.2,3.2,1.4-2.5.2-3.3,1.3-1.2,1.8,1.3.3,5.8-.1,7-.7.9-.4-1-1.9-2.4-1.9s-2.6-.3-3.8-.7c-1.6-.5-1.7-.7-.6-.6.8,0,1.9,0,2.5-.2.6-.1,1.7-.4,2.5-.5.8-.1-.3-.1-2.5,0-10.2.6-1.1-.8,14.9-2.3,4.2-.4-.5.5-5.8,1.1-2.8.3-4.7.7-4.2.8.5.1.7.4.4.7-.3.3,0,.4.8.2,2.7-.6,10.9-1.1,11.6-.7.4.2,1.5.4,2.6.4,1.7,0,1.6,0-.7-.7l-2.5-.6,2.5.2c4.5.4,5.1.6,4.8,1.6ZM172.9,110.9c.3.2,0,.3-.5.3s-.8-.1-.5-.3c.3-.2.7-.2,1,0ZM186.9,106.6c0,.1-.2.2-.4.2s-.4,0-.4-.2.2-.2.4-.2.4,0,.4.2ZM181.8,107.2c-.5,0-.8-.1-.5-.3.3-.2.7-.2,1,0,.3.2,0,.3-.5.3ZM197.5,106.8c-.2,0-.4,0-.4-.2s.2-.2.4-.2.4,0,.4.2-.2.2-.4.2ZM197.9,110.5c0-.1.2-.2.4-.2s.4,0,.4.2-.2.2-.4.2-.4,0-.4-.2ZM198.6,111.6c-.5,0-.8-.1-.5-.3.3-.2.7-.2,1,0,.3.2,0,.3-.5.3ZM199.1,108c-.2.7-.3.1-.3-1.2s.1-1.9.3-1.2c.2.7.2,1.7,0,2.4ZM198.9,103.7c-.2,0-.4,0-.4-.2s.2-.2.4-.2.4,0,.4.2-.2.2-.4.2ZM201,111.3c-1,.2-1.1.2-.4-.2.5-.3,1.1-.4,1.3-.3.2.1-.2.4-.9.5ZM200.3,110c.3-.2.7-.2,1,0,.3.2,0,.3-.5.3s-.8-.1-.5-.3ZM202.2,109c-.5,0-.8-.1-.5-.3.3-.2.7-.2,1,0,.3.2,0,.3-.5.3ZM203.2,109.5c.3-.2.7-.2,1,0,.3.2,0,.3-.5.3s-.8-.1-.5-.3ZM204,110.7c-.8,0-1-.1-.4-.3.5-.1,1.2-.1,1.4,0,.2.1-.2.2-1,.2ZM205.9,109.2c0-.1.2-.2.4-.2s.4,0,.4.2-.2.2-.4.2-.4,0-.4-.2ZM206.6,110.3c-.5,0-.8-.1-.5-.3.3-.2.7-.2,1,0,.3.2,0,.3-.5.3ZM208.4,109.8c-.2,0-.4,0-.4-.2s.2-.2.4-.2.4,0,.4.2-.2.2-.4.2ZM208.4,109c-.2,0-.4,0-.4-.2s.2-.2.4-.2.4,0,.4.2-.2.2-.4.2ZM208.4,105.9c-.2,0-.4,0-.4-.2s.2-.2.4-.2.4,0,.4.2-.2.2-.4.2ZM210.6,109.4c-.2,0-.4,0-.4-.2s.2-.2.4-.2.4,0,.4.2-.2.2-.4.2ZM210.6,108.5c-.2,0-.4,0-.4-.2s.2-.2.4-.2.4,0,.4.2-.2.2-.4.2ZM210.6,106.8c-.2,0-.4,0-.4-.2s.2-.2.4-.2.4,0,.4.2-.2.2-.4.2ZM212,107.2c-.2,0-.4,0-.4-.2s.2-.2.4-.2.4,0,.4.2-.2.2-.4.2ZM212.4,107.9c0-.1.2-.2.4-.2s.4,0,.4.2-.2.2-.4.2-.4,0-.4-.2ZM213.1,109c-.5,0-.8-.1-.5-.3.3-.2.7-.2,1,0,.3.2,0,.3-.5.3ZM213.1,106.3c-.7-.3-.7-.4-.2-.4.5,0,1.1.2,1.3.4.6.5.3.5-1.1,0ZM215.3,108.5c-.5,0-.8-.1-.5-.3.3-.2.7-.2,1,0,.3.2,0,.3-.5.3ZM215.3,107.7c-.5,0-.8-.1-.5-.3.3-.2.7-.2,1,0,.3.2,0,.3-.5.3ZM217.5,107c0-.1.2-.2.4-.2s.4,0,.4.2-.2.2-.4.2-.4,0-.4-.2ZM218.2,108.1c-.5,0-.8-.1-.5-.3.3-.2.7-.2,1,0,.3.2,0,.3-.5.3ZM219.3,105.8h0c-.3-.2-1-.2-1.4,0-.4.2-1.4.2-2.2,0-1.2-.3-1.1-.4.9-.5,1.3-.1,2.6,0,2.8.3.2.3.2.3-.1.1ZM220.1,107.7c-.2,0-.4,0-.4-.2s.2-.2.4-.2.4,0,.4.2-.2.2-.4.2ZM220.1,106.8c-.2,0-.4,0-.4-.2s.2-.2.4-.2.4,0,.4.2-.2.2-.4.2ZM221.9,107.2c-.5,0-.8-.1-.5-.3.3-.2.7-.2,1,0,.3.2,0,.3-.5.3ZM222.2,106.3c-.2,0-.4,0-.4-.2s.2-.2.4-.2.4,0,.4.2-.2.2-.4.2ZM224.8,106.8c-.5,0-.8-.1-.5-.3.3-.2.7-.2,1,0,.3.2,0,.3-.5.3ZM225.2,105.9c-.2,0-.4,0-.4-.2s.2-.2.4-.2.4,0,.4.2-.2.2-.4.2ZM227,106.3c-.5,0-.8-.1-.5-.3.3-.2.7-.2,1,0,.3.2,0,.3-.5.3ZM227,105.5c-.5,0-.8-.1-.5-.3.3-.2.7-.2,1,0,.3.2,0,.3-.5.3ZM227,103.7c0-.3-.3-.4-.7-.2-.4.2-.5.5-.3.7.3.2-.3.2-1.3-.1-1.6-.5-1.7-.5-.6.3,1,.7,1,.8,0,.5-.6-.1-1.6,0-2.1.1s-1.5.2-2.2,0c-.8-.3-2.6-.2-5.1.3-2.8.5-4.3.6-5.4.2-3.2-.9-5.3-.9-5.2.1,0,.7.5.9,2,.8,1.6,0,1.9,0,1.8.8,0,.5-.2.9-.3.9s-1.1-.2-2.2-.4c-1.9-.4-2-.4-.6.2h0c.8.4,1.1.6.7.6-.4,0-1.8-.2-3.2-.3-2.1-.2-2.3-.3-1.1-.6,1.2-.3,1.3-.4.2-.4-2.8,0-2.4-1.5-.3-2.5-.2.1,0,.3.5.3s.8-.1.5-.3c-.2-.1-.5-.1-.7,0,.8-.3,1.8-.6,3-.7,3.5-.3,15.9-1.6,33.7-3.7,3.6-.4,5-.2,1.7.2-3.1.5-4.4,1.2-2.7,1.5,1,.2.1.5-3,1-2.4.4-4.9.8-5.6,1-.7.1-1.3,0-1.3-.3ZM206.6,105.7c0,.1-.2.2-.4.2s-.4,0-.4-.2.2-.2.4-.2.4,0,.4.2ZM239.1,102.8c.5,0,1.1.2,1.3.4h0c.6.5.3.5-1.1,0-.7-.3-.7-.4-.2-.4ZM238.6,101.3c0-.1.2-.2.4-.2s.4,0,.4.2-.2.2-.4.2-.4,0-.4-.2ZM237.9,103.9c0,.1-.2.2-.4.2s-.4,0-.4-.2.2-.2.4-.2.4,0,.4.2ZM236.4,103.5c0,.1-.2.2-.4.2s-.4,0-.4-.2.2-.2.4-.2.4,0,.4.2ZM235.7,104.4c0,.1-.2.2-.4.2s-.4,0-.4-.2.2-.2.4-.2.4,0,.4.2ZM234.2,103.9c0,.1-.2.2-.4.2s-.4,0-.4-.2.2-.2.4-.2.4,0,.4.2ZM233.5,104.8c0,.1-.2.2-.4.2s-.4,0-.4-.2.2-.2.4-.2.4,0,.4.2ZM232.1,104.4c0,.1-.2.2-.4.2s-.4,0-.4-.2.2-.2.4-.2.4,0,.4.2ZM228.8,104.6c.4,0,1.2.2,1.8.4.6.2.8.4.4.4s-1.2-.2-1.8-.4c-.6-.2-.8-.4-.4-.4ZM229.2,105.7c0,.1-.2.2-.4.2s-.4,0-.4-.2.2-.2.4-.2.4,0,.4.2ZM235.3,105.9c-.8.2-2.4.6-3.5.9-1.1.3-2.6.5-3.3.5-2.3,0,.6-.8,8-2.2,3.9-.7,7.1-1.5,7.1-1.8s-.4-.3-.9-.1c-.6.2-.6,0,0-.4,1.4-1,2-.9,1.9.4,0,1.1-.4,1.2-4,1.8-2.2.3-4.7.8-5.5,1Z"/>
    <path d="M242.6,9.5c1.3,0,2.6,0,3.8-.1-.2-.3-.5-.5-.7-.8-1.8,0-3.3.1-4.5.2.5.2,1,.5,1.4.7Z"/>
    <path d="M248.8,61c-.5.2-.7-7.4-.7-22.3s0-1.9,0-2.8c-1.6.2-3.3-.3-4.5-1.4-1.8.2-3.9-1-4.3-2.6l-.4-1.9-.4,4.4-.5-2.2-.5-2.2v2.1c-.2,1.5-.5,2.1-1.1,1.9-1.1-.2-2-12.9-1-13.8,1.7-1.5-3.8-2.7-17.4-3.9-1.6-.1-3.3-.5-3.9-.7-1.8-.9-26,0-31.1,1.3l-3.2.7v2.8c0,1.8.3,2.7.7,2.5.4-.1.7-1.1.7-2.2s.3-1.9.9-2c.7,0,.7,0,0-.4-1.5-.6,5.7-1.9,10.5-1.9,19.4-.2,21.9,0,29,.9,4,.6,8.4,1.1,9.8,1.3,2.1.2,4.2,1.4,2.5,1.4-1.4,0-.6,11.8.7,15.5,0,0,0,0,0,0,.3-.2.7-.2,1,0,.3.2,0,.3-.5.3s-.3,0-.4,0c.2.5.4.8.7.9,4,.3,5.1.3,5.4-.2.2-.3-.3-.4-1.4-.3-.9.1-1.4,0-1.1-.1.3-.2.1-.6-.3-1-.8-.6-.4-.6,2.4-.3,4.9.5,4.4-.3,4.6,7.1,0,2.2.3,4,.6,4,.3,0,.4.7.2,1.6-.6,2.9-.7,12.6-.1,13.4.3.4.3.8,0,.8-.3,0-.7,1.7-.8,3.7-.1,2.6,0,3.7.6,3.7s.6.2,0,.6c-.6.4-.6.7,0,.9.4.2.5.5.3.8-.2.2-.3,2.2-.4,5.2.6-.4,1.3-.8,2.1-1,0,0-.1,0-.2,0-.2,0-.4,0-.4-.2s.2-.2.4-.2.4,0,.4.2,0,.1-.1.1c.3,0,.7-.2,1-.2.1-8.1.3-13.7.5-13.7.4,0,.7-.2.7-.5s-.3-.3-.7-.2ZM245.7,68.5c-.3.2-.5,0-.5-.3s.2-.5.5-.3c.3.2.3.4,0,.6ZM246.6,38.5c0-.3.2-.5.5-.3.3.2.3.4,0,.6-.3.2-.5,0-.5-.3ZM247.1,44.5c-.2.7-.3.1-.3-1.2s.1-1.9.3-1.2c.2.7.2,1.7,0,2.4ZM247.1,73.4c-.2.4-.3,0-.3-.8s.1-1.2.3-.8h0c.2.4.2,1.1,0,1.5ZM247.1,69.7c-.2.5-.3,0-.3-1s.1-1.5.3-1h0c.2.5.2,1.4,0,2ZM247.1,64.9c-.2.5-.3,0-.3-1s.1-1.5.3-1h0c.2.5.2,1.4,0,2ZM247,58.6c-.2,0-.4,0-.4-.2s.2-.2.4-.2.4,0,.4.2-.2.2-.4.2ZM246.7,55.7c0-.5.2-.6.4-.3.2.3.2.7,0,.8-.2.1-.4-.1-.4-.6ZM247,54.7c-.2,0-.4,0-.4-.2s.2-.2.4-.2.4,0,.4.2-.2.2-.4.2ZM246.7,51.8c0-.5.2-.6.4-.3.2.3.2.7,0,.8-.2.1-.4-.1-.4-.6ZM247,49.9c-.2,0-.4,0-.4-.2s.2-.2.4-.2.4,0,.4.2-.2.2-.4.2Z"/>
    <path d="M235.2,120.3c.2.6.5,2.1.5,3.2,0,1.2.2,2,.5,1.9.8-.5.2-5.3-.6-5.8-.5-.3-.6-.1-.3.7Z"/>
    <path d="M138,116c-.8,0-1.2.2-1,.4s-.5.3-1.5.2c-1.3-.1-1.7,0-1.4.3.3.3-.1.4-1.5.3-2.5-.3-3.6.1-4.2,1.7h0c-.6,1.5,1.5,1.6,7.4.5,3.9-.7,5.7-3.3,2.3-3.3ZM130.9,117.7c-.5,0-.8-.1-.5-.3.3-.2.7-.2,1,0s0,.3-.5.3ZM132,119.5c-.2,0-.4,0-.4-.2s.2-.2.4-.2.4,0,.4.2-.2.2-.4.2ZM134.2,118.2c-.2,0-.4,0-.4-.2s.2-.2.4-.2.4,0,.4.2-.2.2-.4.2ZM134.9,119c-.2,0-.4,0-.4-.2s.2-.2.4-.2.4,0,.4.2-.2.2-.4.2ZM137.1,118.6c-.2,0-.4,0-.4-.2s.2-.2.4-.2.4,0,.4.2-.2.2-.4.2ZM137.1,117.7c-.2,0-.4,0-.4-.2s.2-.2.4-.2.4,0,.4.2-.2.2-.4.2Z"/>
    <path d="M88.5,125.7c-.5,0-.8-.2-.7-.5.1-.4-.2-.5-1.5-.2-.9.2-2.5.3-3.6.3s-1.8.1-1.6.3c.2.2-.4.2-1.2,0-1-.2-1.4,0-1.1.2.3.3,0,.4-1.1.2-1-.2-1.4,0-1.1.2.3.3,0,.6-.7.7-.6.1-.9,0-.7-.2.2-.2.2-.4-.1-.4-1,0-4.3,1.3-3.5,1.3.4,0,.2.2-.5.5-1.8.6-1.6,1.3.4,1.3,1.6,0,1.6,0,.2.4h0c-1.6.4-1.9.5,4.9-.3,1.5-.2,2.6-.5,2.4-.6-.2-.2.3-.2,1.2-.1,1,.2,1.4,0,1.1-.2-.3-.3,0-.4,1.1-.2,1,.2,1.4,0,1.1-.2-.3-.3,0-.4,1.1-.2,1.2.2,1.4.1,1-.3-.4-.4-.3-.5.7-.3,1.5.3,3.3-.4,3.3-1.3s-.4-.6-.9-.5ZM71.6,129.1c-.2,0-.4,0-.4-.2s.2-.2.4-.2.4,0,.4.2-.2.2-.4.2ZM73.7,127.8c-.2,0-.4,0-.4-.2s.2-.2.4-.2.4,0,.4.2-.2.2-.4.2ZM74.5,128.7c-.2,0-.4,0-.4-.2s.2-.2.4-.2.4,0,.4.2-.2.2-.4.2ZM75.6,129.5c-.5,0-.8-.1-.5-.3.3-.2.7-.2,1,0,.3.2,0,.3-.5.3ZM80.8,127.5c-1.1.1-2.8.4-3.8.6-3.2.5-1.1-.2,2.4-.9,1.9-.3,3.4-.5,3.4-.3s-.9.5-2,.6ZM84.3,126.9c-.5,0-.8-.1-.5-.3s.7-.2,1,0c.3.2,0,.3-.5.3ZM86.1,126.5c-.2,0-.4,0-.4-.2s.2-.2.4-.2.4,0,.4.2-.2.2-.4.2ZM88.3,126.9c-.2,0-.4,0-.4-.2s.2-.2.4-.2.4,0,.4.2-.2.2-.4.2Z"/>
    <path d="M110.1,107.6c.8,0,2.3-.2,3.3-.4,1.4-.3,1.5-.4.4-.4s-2.3.2-3.3.4c-1.4.3-1.5.4-.4.4Z"/>
    <path d="M73.8,94.1c1.7,0,1.2-1.3-.6-1.7-.9-.2-4.8-.4-8.7-.4-7.4,0-8.5.3-8.5,2.3s.3.7.7.7.7-.1.6-.3c-.5-1.8-.2-1.9,8.2-1.9s8,0,7.7.7c-.3.4,0,.7.7.7Z"/>
    <path d="M152.7,52.5c0-3-.8-3.3-3.9-1.4-2.3,1.4-2.3,1.5-.8,2.9h0c2.4,2.2,4.6,1.5,4.6-1.5ZM149.8,51.6l1.5-1v1.8c0,1.9-.5,2.2-2,1.3-1.2-.7-1.1-.9.6-2.1Z"/>
    <path d="M139.6,52.3h0c0,2,.2,2.4,1.3,2.4,1.8,0,4-1.5,3.5-2.4-.3-.4,0-.6.7-.4,1.2.3,4.7-1.7,4.7-2.7s-5.9-1.2-7.2-.5c-.9.5-.9.8.4,1.6l1.4,1-1.5-.8c-2.6-1.3-3.2-1-3.2,1.6ZM145.9,49.4c2.6,0,2.6,0,1.3.9-.7.5-1.4.9-1.4.9s-.7-.4-1.3-.9c-1.2-.9-1.2-.9,1.4-.9ZM142.4,53.2c-1.4.8-2,.3-1.4-1.1.4-1,.5-1,1.5-.3h0c.9.6.9.8-.1,1.4Z"/>
    <path d="M122.2,106.3c.8-.3.6-.3-.7-.2-1,.1-2.7.2-3.8.2-1.1,0-2,.2-2,.5,0,.5,4.8.1,6.6-.5Z"/>
    <path d="M124.4,90.7c.6-2.1.5-2.2-1.6-1.9-1.1.2-2.2.2-2.5,0-.7-.4,0,.9.7,1.5h0c.8.6,3.2.8,3.4.3Z"/>
    <path d="M113.2,89.3c1.5,0,1.6-.2,1.6-2.7s-.6-3.3-.8-.2c-.1,1.3-.6,2.2-1.3,2.5-.9.3-.8.4.5.4Z"/>
    <path d="M129.8,84.3c.6.7,1.1,2.5,1.2,4l.2,2.8.2-3.4c.2-2.2,0-3.7-.6-4-1.5-1.1-2.1-.7-1,.6Z"/>
    <path d="M126.9,106.1c2-.1,4.1-.4,4.7-.7,1.3-.5-4.8,0-6.9.6-.9.2,0,.3,2.2,0Z"/>
    <path d="M240.8,92.1c-.8-.2-1.3-.5-1-.7.8-.8-.5-.4-2.4.7-1.1.6-1.6,1.1-1.1,1.1s.9.3.9.7h0c0,.8,2.2.9,3.6.1.8-.4.9-.4.4,0-.4.4-.3.5.3.3,1.4-.5,1-1.9-.6-2.2ZM239,93.2c-.2,0-.4,0-.4-.2s.2-.2.4-.2.4,0,.4.2-.2.2-.4.2Z"/>
    <path d="M73.4,90.1c0-.6-8-5.6-8.9-5.6s-2.2.7-4,1.6-3.5,1.6-3.5,1.7c-.7.1-.7,2.4,0,2.6h0c1.9.5,16.5.3,16.5-.2ZM59.9,87.6c0,0,1-.4,2.2-1.1l2.2-1.2,1.3.9c.7.5,1.3.8,1.3.6s.8.3,1.8,1c1,.7,1.8,1.4,1.8,1.6s-2.9.3-6.6.3c-5.9,0-6.6,0-6.6-.8s2.5-1.9,2.6-1.3Z"/>
    <path d="M58.9,48.8c-1.9-.7-3,1.2-3,5.3v4.1h2.2c1.2,0,2.1-.1,2-.3-.4-.7,1.8-3.2,2.8-3.2s1.3-1.6,0-1.9c-.6-.1-1.1-.5-1.1-.8s.6-.2,1.5.3c.8.4,1.5.7,1.5.5s.4-.2.8,0c.6.2.6.4,0,.8-1.1.6-1,1.3.1,1,.5-.2.3,0-.5.4-.8.4-1.6.7-1.9.7s-.9.6-1.3,1.3-1.4,1.5-2.2,1.7-1.6.8-1.9,1.2c-.3.5-.1.6.5.4.7-.2.7-.2,0,.3-.6.4-.9,2-.9,4.7v4.1l3.6-.3c2.2-.2,3.6-.1,3.6.1h0c0,.2,2,.4,4.4.4,4.2,0,4.4,0,4.4-1.1,0-.6.1-2.6.3-4.3s0-3.1-.2-3c-.3.1-.9-.2-1.4-.7-.5-.5-.6-.8-.1-.6,1.2.4,1.4-.4,1.8-5.5.5-7.1-.8-8.4-4.3-4.3-1.6,1.9-3.3,3.2-3.3,2.4s1.3-1.8,3-3.6c3.6-4,3.7-3.9-4.6-3.7-7.9.1-8.5.4-6.4,2.5.9.9,1.3,1.5.9,1.3ZM59.2,59.1c.2,0,.4,0,.4.2s-.2.2-.4.2-.4,0-.4-.2.2-.2.4-.2ZM60,67.8c-1.4,0-1.8-6.3-.5-6.8.5-.2.7,1,.7,3.3s-.1,3.5-.2,3.5ZM63,58.1c.2.3.2.7,0,.8s-.4-.1-.4-.6c0-.5.2-.6.4-.3ZM63,61.2c.2.3.2.7,0,.8s-.4-.1-.4-.6c0-.5.2-.6.4-.3ZM62.8,67.4c-.2,0-.4,0-.4-.2s.2-.2.4-.2.4,0,.4.2-.2.2-.4.2ZM64.4,66.2c-.2.8-.3,0-.3-1.7,0-1.7.1-2.3.3-1.4h0c.2.9.2,2.3,0,3.1ZM64.3,60.4c-.2,0-.4,0-.4-.2s.2-.2.4-.2.4,0,.4.2-.2.2-.4.2ZM68.9,46.1c.5.2.8.4.8.5,0,.4-.6.2-1.2-.3-.3-.3-.2-.4.3-.2ZM71.1,68.5c-.2-.2-.5-1.3-.5-2.3s-.3-2.4-.4-3.1c-.5-1.6.8-2.9,1.4-1.4.6,1.3.2,7.4-.4,6.8ZM71.6,51.7h0c.3.9.2,2.4-.2,3.5-.8,2.3-.9,2.3-1.1-1.2-.2-3.1.6-4.6,1.4-2.2ZM69.7,58c.4.1.7.4.7.5h0c0,.1-.3.2-.7.2s-.7-.2-.7-.5.3-.3.7-.2ZM68.7,62.1c-.2,0-.4,0-.4-.2s.2-.2.4-.2.4,0,.4.2-.2.2-.4.2ZM68.8,60.2c-.3.2-.5,0-.5-.3s.2-.5.5-.3c.3.2.3.4,0,.6ZM66.7,55.3c.5.2,1.2.7,1.6,1.2,1.4,1.5-.3.8-1.8-.9-.4-.4-.3-.5.2-.3ZM66.5,57.5c.9.7,1.1,1.9,1,5.8h0c-.2,7.5-1.9,6.8-2-.9,0-5.3,0-5.7,1.1-4.9ZM65.5,48.1c.1-1.4.5-2.2,1-2.2,1.4,0,1.8,1.8.6,3.1-1.5,1.8-1.9,1.6-1.7-.9ZM64.3,51.6c-.2,0-.4,0-.4-.2s.2-.2.4-.2.4,0,.4.2-.2.2-.4.2ZM64.4,50c.3.2.3.4,0,.6-.3.2-.5,0-.5-.3s.2-.5.5-.3ZM63,46.9c.2.7.2,1.7,0,2.4s-.3.1-.3-1.2.1-1.9.3-1.2ZM57.2,56.1c-.2.8-.3.1-.3-1.4s.1-2.2.3-1.4.2,2.1,0,2.8ZM57,51.6c-.2,0-.4,0-.4-.2s.2-.2.4-.2.4,0,.4.2-.2.2-.4.2ZM58.5,50.7c-.2,0-.4,0-.4-.2s.2-.2.4-.2.4,0,.4.2-.2.2-.4.2ZM61.7,50.9c-.2.1-.8-.2-1.3-.8-.9-.9-.9-.9.3-.2.7.4,1.2.8,1,1ZM60,46h0c.2.1.3.6.2,1.1-.3.8-.3.8-.8,0-.5-.8-.1-1.5.6-1ZM59.6,51.8c.4.1.7.9.7,1.8s-.3,1.6-.7,1.8c-.4.2-.7-.5-.7-1.8s.3-1.9.7-1.8Z"/>
    <path d="M69.7,79.3c2.9-1,3-2.3.2-2.3-1.8,0-1.8,0-.5-.4,1-.3-.1-.4-3.6-.4-5.6,0-7.2.4-7.4,1.7,0,.5,0,.8.3.7s1.9.6,3.7,1.6h0c2.8,1.5,3.4,1.7,3.6,1.1.2-.5.7-.7,1.3-.5.6.1.9,0,.6-.2-.2-.2.6-.8,1.8-1.2ZM67.3,79c-2.5,1.3-2.4,1.3-3.1.5-.3-.3-.9-.7-1.3-.7-3.3-.5-2.4-1.3,1.1-1.1,2.2.1,4.3.3,4.7.3s-.2.5-1.4,1.1Z"/>
    <path d="M55.9,85.3c.4,0,.8.3.8.8h0c0,.5.2.5.4.2.2-.3.8-.5,1.3-.5,1.1,0,3.6-2.1,3.7-3.2,0-.4,0-.7-.3-.6s-1.2-.4-2.2-1.1c-2.4-1.7-3.1-1.3-3.1,1.7,0,1.8-.2,2.3-.7,1.8-.6-.6-.7-.5-.7.1,0,.4.3.8.7.8ZM59.2,85.3c-.2,0-.4,0-.4-.2s.2-.2.4-.2.4,0,.4.2-.2.2-.4.2ZM58.3,82.6c0-1.2,2-.7,2,.6h0c0,.2-.5.4-1,.5-.8.2-1-.1-1-1.1Z"/>
    <path d="M75.3,81.9c.6-1.9-2-2.4-4.7-.9-1.1.6-2.6,1.2-3.3,1.4-1.3.3-1.3.3,0,1.2.7.5,1,.8.6.8-.3,0-.5,0-.6.1.1,0,.3,0,.3.2s-.1.2-.3.2c.2.1.5.2.9.1.6,0,.8,0,.5.4-.3.3-.2.4.2.2.4-.2,1.4.2,2.1.8h0c2.3,1.9,3.9,1.5,3.9-1s.2-2.7.4-3.5ZM73.3,84.8l-.2,1.4-1.8-1.1c-1.4-.9-3.1-3.1-1.7-2.3s1.2-.3,2.1-.9c1.1-.7,1.6-.9,1.3-.4-.2.4-.8.8-1.2.8s-.2.3.5.6c.9.4,1.2,1,1,2Z"/>
    <path d="M56.1,65.2c0,1.6.1,2.2.3,1.4s.2-2.1,0-2.8-.3-.1-.3,1.4Z"/>
    <path d="M177.8,58.5c-3.8-.4-5.5.2-4.1,1.5.8.7.8,1.1,0,1.6-.8.5-.7.8.3,1.2h0c1.3.6,6.2.4,6.8-.2.8-.8-1.2-1.7-3.4-1.4-1.3.2-2.1,0-2.1-.2s1.2-.5,2.6-.5c4.6,0,4.5-1.5,0-1.9ZM179.3,61.7c.2,0,.4,0,.4.2s-.2.2-.4.2-.4,0-.4-.2.2-.2.4-.2ZM176.5,62.3h0c.2.1-.2.2-1,.2-.8,0-1-.1-.4-.3.5-.1,1.2-.1,1.4,0ZM176.7,59.5c-.5,0-.8-.1-.5-.3.3-.2.7-.2,1,0,.3.2,0,.3-.5.3ZM179.3,59.5c-.2.2-.6.4-.8.4s-.2-.2,0-.4c.2-.2.6-.4.8-.4s.2.2,0,.4Z"/>
    <path d="M131.6,109.4c-1.5.6-.4.5,4-.2,3.6-.6,5.4-1.6,2.8-1.6-1,0-1.1,0-.4-.4.7-.3,0-.5-2-.8-1.6-.2-2.8-.3-2.6,0,.5.5-3.8,1-8.2,1-2.1,0-3.7.1-3.5.3.2.2,0,.4-.5.5-1.4.3,0,1.7,1.7,1.7,1.6,0,1.6,0,.2.4-1,.3-.6.3,1.5.1,4.3-.4,5.5-1.5,1.6-1.4-1.5,0-1.5,0-.1.4.9.2,1.1.4.4.4-1.7,0-4.3-.7-2.8-.8.7,0,1.3-.3,1.5-.6.2-.4.7-.4,2.3,0,1.1.3,2.7.5,3.6.5,1.3,0,1.4,0,.5.4ZM133.8,109c-.5,0-.8-.1-.5-.3.3-.2.7-.2,1,0,.3.2,0,.3-.5.3ZM138,108.3h0c.2.1-.2.2-1,.2-.8,0-1-.1-.4-.3.5-.1,1.2-.1,1.4,0ZM135.5,106.9c.3-.2.7-.2,1,0,.3.2,0,.3-.5.3s-.8-.1-.5-.3ZM134.2,107.7c1,.2,1.1.4.4.4-.6,0-1.6-.2-2.2-.4-1.3-.5-.2-.5,1.8,0ZM128.7,108.1c-.5,0-.8-.1-.5-.3s.7-.2,1,0c.3.2,0,.3-.5.3ZM131.2,108.5c-.8,0-1-.1-.4-.3.5-.1,1.2-.1,1.4,0h0c.2.1-.2.2-1,.2Z"/>
    <path d="M143.9,87.1c2.1-1.2,2-1.5,0-.7-2.5,1.1-2.7.9-2.8-2.1,0-1.9-.2-2.5-.7-2.1-.8.7-1,5-.2,5.4h0c.9.5,2.1.3,3.7-.6Z"/>
    <path d="M154,81.2l-.2-1.3h-6.3c-6.8-.3-9,.4-5.2,1.5,2,.6,3.3.2,1.6-.4-.7-.3.5-.4,3.8-.4,5.7,0,6.6.8,2.8,2.5-2.6,1.2-3.1,1.2-4.2,0-.5-.5-1.2-.9-1.7-.9s0,.6.9,1.3h0c2,1.6,2.1,1.6,5.8.1,2.5-1,2.9-1.4,2.7-2.5Z"/>
    <path d="M152.7,87.6c0-.2-.5-.7-1.1-1-.6-.3-.9-.7-.7-.9.2-.2,0-.4-.6-.4-1,0-1.5,2-.7,2.7.7.7,1,.3.6-.7-.5-1-.5-1,1-.2.9.5,1.6.6,1.6.4Z"/>
    <path d="M98.9,83c0-.2-1.7-.3-3.8-.3-3.4,0-3.5,0-1.3.3h0c3.5.4,5.1.4,5.1,0Z"/>
    <path d="M173.4,57.1c.7,1.1,6.6.7,6.6-.4s-.4-.9-3.3-.7c-3.8.2-4,.2-3.4,1.2h0ZM179.3,56.4c.2,0,.4,0,.4.2s-.2.2-.4.2-.4,0-.4-.2.2-.2.4-.2ZM175.2,56.6c.5-.1,1.2-.1,1.4,0h0c.2.1-.2.2-1,.2-.8,0-1-.1-.4-.3Z"/>
    <path d="M150.1,97.1c-.6,0-.9-.2-.7-.4.3-.3-.5-.4-1.8-.4s-2.1.2-1.8.4c.3.2,0,.3-.6.2-.9-.2-1.2.9-.5,2.3h0c0,0,1.2.1,2.6.1s2.4-.2,2.1-.4c-.2-.2,0-.4.7-.4s1.1-.3,1.1-.7-.5-.7-1.1-.7ZM145.1,98.9c-.2,0-.4,0-.4-.2s.2-.2.4-.2.4,0,.4.2-.2.2-.4.2ZM147.6,98c-.5,0-.8-.1-.5-.3.3-.2.7-.2,1,0,.3.2,0,.3-.5.3Z"/>
    <path d="M155.1,69.1c-.3,0-.6-1.7-.7-3.8-.2-4.4-1-6.9-2.2-6.8-.4,0-.6-.3-.4-.7.5-1.2-1.6-1.7-7.4-1.6-4.9,0-7.5,1.2-4.2,1.9s.7-.2.5-.7c-.4-1-.2-1,1.5-.6.6.1,1.1.7,1.1,1.2,0,.9,0,.9-.7,0-.6-.8-1.1-.3-.8.7,0,.2-.6.2-1.4,0-1.4-.2-1.5,0-1.2,3,.2,2.9.4,3.2,1.7,3.2,1.4,0,1.4,0,0,.7-5.1,2.4-2.3,8.5,3.8,8.1,2.7-.2,4,0,4,.3h0c0,.3.5.5,1.1.5s1.1-.2,1.1-.4.8-.3,1.8-.2c1.7.3,1.8.2,1.8-1.8s.3-1.9.7-1.8c.4.1.7,0,.7-.4s-.2-.7-.5-.7ZM152.5,60.5c.3.2.3.4,0,.6-.3.2-.5,0-.5-.3s.2-.5.5-.3ZM151.8,62.2c.2.4.2,1.1,0,1.5-.2.4-.3,0-.3-.8s.1-1.2.3-.8ZM151.5,59.9c-.4.4-.9,1.3-1,2.1-.2,1.4-.3,1.4-1.2.5-.9-.9-.8-1.1,1-2.1,1.1-.6,1.7-.8,1.2-.5ZM149.4,59.5c-.7.5-1.5.9-1.7.9s.2-.4,1-.9c.7-.5,1.5-.9,1.7-.9s-.2.4-1,.9ZM145.6,57.9c.3-.9,3.3-1.3,4.3-.7s-.2.9-1.5,1.6c-2.3,1.3-3.4.9-2.8-.9ZM141.2,63.2c-.3.1-.6-.5-.6-1.5s.3-1.6.6-1.5.6.8.6,1.5-.3,1.4-.6,1.5ZM141.6,71.4c-.2.8-.3,0-.3-1.7,0-1.7.1-2.3.3-1.4h0c.2.9.2,2.3,0,3.1ZM141.4,66.5c-.2,0-.4,0-.4-.2s.2-.2.4-.2.4,0,.4.2-.2.2-.4.2ZM143.1,70.8c-.2,1.2-.3.3-.3-1.8,0-2.2.1-3.1.3-2.1h0c.2,1,.2,2.8,0,3.9ZM145.8,67.9c-.6.6-1.1.5-1.1-.3s.3-.6.7-.4.6.5.3.7ZM145.8,66.5c-.2,0-.4,0-.4-.2s.2-.2.4-.2.4,0,.4.2-.2.2-.4.2ZM145.5,64.5c0-.5.2-.6.4-.3.2.3.2.7,0,.8s-.4-.1-.4-.6ZM147.8,65.8h0c.3.4.1.7-.2.7s-.7-.5-.7-1.1c0-1,.2-1.1,1.1-.6,1.3.6,1.5,1.1.2.6-.6-.2-.7,0-.4.4ZM150.3,71.6c-.2.1-.4-.1-.4-.6,0-.5.2-.6.4-.3.2.3.2.7,0,.8ZM150.3,69.4c-.3.2-.5,0-.5-.3s.2-.5.5-.3c.3.2.3.4,0,.6ZM151.6,72.6c-.2,0-.4,0-.4-.2s.2-.2.4-.2.4,0,.4.2-.2.2-.4.2ZM151.4,70.4c0-.8.1-1.2.3-.8.2.4.2,1.1,0,1.5-.2.4-.3,0-.3-.8ZM151.2,68.2c-1.2-1.2-2.9,0-2.7,2h0c0,1.1,0,2.1-.4,2.3s-.5-.6-.5-1.6c0-1.1-.2-2.3-.4-2.8-.4-.8-.1-.9,1.8-.7,3.1.3,3-1-.4-3.1-3-1.9-3-1.9-5.4-.7l-1.9,1,1.6-1.1c.9-.6,1.6-1.3,1.6-1.6s-.7-.9-1.6-1.4c-1.1-.6-1.3-.8-.4-.6,1,.2,1.3,0,1.5-1.2l.3-1.5v1.5c.1,2.7.2,2.7,1.6,2.5,1-.2,1.3,0,1,.5-.2.4,1,1.6,2.9,2.9,2.9,1.9,3.2,2.2,2.5,3.2-.5.7-1,.9-1.3.5ZM149.1,66.3c0-.1.2-.2.4-.2s.4,0,.4.2-.2.2-.4.2-.4,0-.4-.2ZM142.5,61.7c0-.3.2-.5.5-.3.3.2.3.4,0,.6-.3.2-.5,0-.5-.3ZM153.1,73.1c-.2,0-.4,0-.4-.2s.2-.2.4-.2.4,0,.4.2-.2.2-.4.2ZM153.1,69.6c-.2,0-.4,0-.4-.2s.2-.2.4-.2.4,0,.4.2-.2.2-.4.2ZM153.1,65.6c-.2,0-.4,0-.4-.2s.2-.2.4-.2.4,0,.4.2-.2.2-.4.2Z"/>
    <path d="M85,72.5c-1.5.2-2.1,1.9-.7,1.9s.6.2.3.4h0c-.3.2.3.4,1.3.4,1.9,0,2.9-.9,2.2-1.9-.2-.4-.9-.5-1.6-.4-.7.2-1,0-.7-.2.3-.3,0-.4-1-.2ZM85.4,73.9c-.2,0-.4,0-.4-.2s.2-.2.4-.2.4,0,.4.2-.2.2-.4.2Z"/>
    <path d="M100.7,74.8c.6-1.2,0-1.8-2.1-1.8s-2.8.9-2.1,2h0c.6,1,3.7.8,4.3-.2Z"/>
    <path d="M124.1,75.5c.4-.8-3.4-1.6-4.6-.9-.6.3-.8.8-.6,1.1h0c.6.6,4.9.4,5.2-.2Z"/>
    <path d="M105.5,80.1c.1-.2,3.2-.5,6.8-.7,7-.3,6.8-.3,16.7.1l6.6.3v6.3c-.3,6.8.6,5.5,1.4-2.4.6-5.5,3.4-4.8-25-5.6-6.6-.2-12.2-.5-12.4-.7-.2-.2-3.5-.3-7.3-.3-4,0-6.2,0-5.1-.2,1.4-.3.8-.3-2.3-.4-2.6,0-4.4.2-4.9.6-1,.7-1.5,5.1-.6,5.1s.6,1.3.6,3c0,1.6.3,4.4.9,6.1h0c1.3,4.4,1.9,4,1.1-.6-.5-2.8-.4-4,.2-4.6.5-.5.7-1,.4-1.2-.2-.2,0-.4.4-.4s.6-.2.3-.5c-.4-.3,0-.4,1.4-.3,1,.1,1.7,0,1.5-.2-.2-.2.8-.4,2.3-.4s2.5-.1,2.2-.3c-.7-.4-6.2-.2-7.9.3-1.2.4-1.3.2-1.3-2.2v-2.6h8.5c8.7,0,11.1.3,3.9.5-5.4.1-6.5.4-6.5,1.3s-.4.9-.9,1c-.6.2-.7.2,0,.3.5,0,1.4-.3,2.1-.7,1.8-1.1,8.3-1.3,11.3-.4,1.3.4,2.5.6,2.7.5.6-.3-.7-1.2-2.3-1.6-1-.3.5-.4,4.6-.3,3.4,0,4.8.1,3.2.2-2.5.1-5.4,1.4-3.2,1.4s.8-.2.9-.4Z"/>
    <path d="M121.3,97.3c-.7.1-1.5,0-1.9-.2-1.4-.8-4.2-.3-5.6.5,0,0,0,0,0,0,.2,0,.4,0,.4.2s-.2.2-.4.2-.3,0-.4-.2c-.5.4-.8.9-.5,1.3h0c.7,1.1,7,.9,7-.2s.6-1.1,1.3-1.3c1-.4,1.1-.5,0-.3ZM113.8,99.3c-.2,0-.4,0-.4-.2s.2-.2.4-.2.4,0,.4.2-.2.2-.4.2ZM117.1,97.5c-1,0-1.4,0-.9-.2.5-.1,1.3-.1,1.8,0h0c.5.1,0,.2-.9.2Z"/>
    <path d="M88.3,104.1h0c0,1.2.2,2.1.5,1.9.7-.3.7-4.1,0-4.1-.3,0-.5,1-.5,2.1Z"/>
    <path d="M62.9,159.2c1.1-.6,1.6-1.2,1.2-1.3s-1.4.2-2.2.7c-2.7,1.8-14.7,11-14.7,11.4,0,.7,1.4.3,2.3-.7,1.2-1.4,11.1-8.8,13.4-10.1Z"/>
    <path d="M73.7,15.7c2.2.6,4,.6,2.5,0-.6-.2-1.7-.4-2.5-.4h-1.5s1.5.4,1.5.4h0Z"/>
    <path d="M50.8,15.4h0c0,.3.7.3,1.6.1.9-.2,2-.3,2.4-.3,6.9.2,15.3.2,14.6,0-2.5-.8-18.6-.7-18.6.2Z"/>
    <path d="M70,11.5c-.7.4,3,3.3,4.5,3.5h0c3,.4,3.6.2,1.5-.4-1.2-.3-2.9-1.2-3.9-2s-1.9-1.3-2.1-1.2Z"/>
    <path d="M50.3,8.7c.5,0,2.3.6,3.8,1.3,3.6,1.6,5,1.7,1.9.1-2.6-1.3-6.7-2.4-6.7-1.8s.4.4,1,.4Z"/>
    <path d="M7.1,75.9c8.2.3,9.4.5,6,.9-1.9.3-2.3.5-2.7,2-.3,1-.9,1.9-1.5,2-1.3.3-1.3,1.4.1,1.7,1.7.4,1.3,1.5-.5,1.5h-1.6c0,0,1.6.2,1.6.2,1.4.2,1.6.5,1.6,2.2,0,3-3.2,2.7-3.5-.4-.3-2.7-7.4-5.4-7.4-2.8s.6.5,1.8.4c2.7-.3,4,.6,4,2.7s.3,1.9,1.7,2.4c3.5,1.1,4.4.6,4.7-3,.1-2.2.4-3.1.9-2.6.5.5.7.4.7-.4,0-.6-.3-.9-.7-.7-.4.2-.7-.3-.7-1.1s.3-1.3.7-1.1c.6.2,1.1-1.1.8-2.1,0-.2,1.4-.3,3.3-.1,1.9.2,5.2.3,7.5.3,3,0,3.8.1,3,.5-.8.3-.3.4,1.6.2,3.1-.3,5,.5,4.9,2.1q0,1-.7,0c-.5-.9-.6-.8-.2.4.2.8.6,2.7.8,4,.4,2.7,3.2,3.1,3.2.5s.3-1,.8-.8c.5.2.6.1.3-.2-.6-.6,1.7-1.4,3.9-1.4s5.8,1.2,5.8,2.3c0,.5.6,1.6,1.4,2.3,1.1,1,1.3,2,1.2,4.3h0c0,1.6,0,2.8.4,2.6.6-.4,1.4-5.9,1.4-10,0-1.9.2-2.4.7-2,.5.5.7-.3.7-2.8,0-2.2-.3-3.3-.7-3.1-.4.1-.7,0-.7-.2s-2-.5-4.9-.5c-3.8,0-4.5-.1-3.1-.4,1.2-.2-1-.3-6.2-.2-5.3.1-7.6,0-6.9-.2.7-.3-1.9-.3-7.7-.2-6.2.2-8.3.1-7.3-.2,1-.3-1.1-.4-7.3-.2-8.1.2-9.8.4-9.1.8.2,0,3.7.3,7.9.4ZM10.4,81.8c-.2,0-.4,0-.4-.2s.2-.2.4-.2.4,0,.4.2-.2.2-.4.2ZM52,80.9c.2.3.2.7,0,.8s-.4-.1-.4-.6c0-.5.2-.6.4-.3ZM35.2,86.2c-.2.2-.6.4-.8.4s-.2-.2,0-.4c.2-.2.6-.4.8-.4s.2.2,0,.4ZM41,75.7c.2,0,.4,0,.4.2s-.2.2-.4.2-.4,0-.4-.2.2-.2.4-.2ZM24.6,76.4c27.1.8,26,.7,25.5,2.1,0,.2-.2,2.3-.2,4.7h0c0,2.4-.1,4.3-.2,4.3-.4,0-1.2-2-1.3-3.1,0-.6-.3-1.1-.7-.9s-1.5-.1-2.5-.5c-2.4-1-8.1-.7-9.5.5-.9.7-1,.7-1.1,0,0-.5-.2-1.1-.2-1.5s.1-1.1.5-1.6c.3-.6.3-1-.1-1s-.7-.4-.7-.8c0-.7-.8-.9-5.6-1.1-9.2-.5-11.9-1.1-3.8-.9Z"/>
    <path d="M172.4,88c-.8,0-1,1.4-.3,1.8h0c1.9,1.1,5.3-.8,4-2.2-.9-1.1-2.9-1.2-2.9-.3s-.3.7-.7.7ZM172.7,89.7c-.2,0-.4,0-.4-.2s.2-.2.4-.2.4,0,.4.2-.2.2-.4.2ZM174.2,87.1c.2,0,.4,0,.4.2s-.2.2-.4.2-.4,0-.4-.2.2-.2.4-.2Z"/>
    <path d="M218.5,82.3c3.1,0,3.3,0,3.3-1.1,0-1.6-6-1.5-6.4.1-.2.9,0,1,3.1,1ZM218.3,80.8c2.6-.4,2.9-.4,2.9.4h0c0,.7-1,.8-3.2.3-1.3-.3-1.3-.4.4-.6Z"/>
    <path d="M225.1,45.9c-3.4.2-4.1.9-2.8,2.9.6.9,4.5.6,5.9-.5.5-.4.9-.6.9-.4s.2.3.4.1c1.5-.9-1.4-2.3-4.4-2.2ZM225.2,48.1c-1,0-1.8-.3-1.8-.6s.8-.6,1.8-.7c1.2,0,1.8.1,1.8.6s-.7.7-1.8.7Z"/>
    <path d="M221.3,66.7c0,1,.3,1.1,3.2,1.1s3-.2,2.8-.4c-.2-.2,0-.5.3-.7,2.3-.9-1.4-2.1-4.4-1.5-1.4.3-1.9.7-1.9,1.5h0ZM224.4,66.1c.6,0,1.1.2,1.1.4s-.5.4-1.1.4-1.1-.2-1.1-.4.5-.4,1.1-.4Z"/>
    <path d="M230.2,75.1c.4.7,1.2.8,2.8.4,1.3-.3.8-2.8-.6-2.8s-2.7,1.6-2.2,2.4Z"/>
    <path d="M243,81c0-1.2-.2-1.3-2.1-1.3s-3.2.5-2.6,1.8c.8,1.6,4.7,1.2,4.7-.4ZM240.5,81.4c-.6,0-1.1-.2-1.1-.4s.3-.4.7-.4.9.2,1.1.4,0,.4-.7.4Z"/>
    <path d="M225.2,94.1c-.3.3.5.4,1.8.4s2.2-.2,2-.5c-.1-.3.2-.5.7-.4.5,0,.9-.1.9-.4,0-.6-1.9-1.8-2.3-1.5-.2.1-1.4.2-2.6.3-2.4.1-3.5,1.7-1.2,1.7s.9.2.7.4h0ZM226.5,92.9c.3-.2.7-.2,1,0s0,.3-.5.3-.8-.1-.5-.3Z"/>
    <path d="M243,66.1c-.5.5-.7.5-.7,0,0-.4-.7-.5-2-.4-2.3.2-2.9,1.7-.7,1.9.7,0,1.5.2,1.7.3h0c.9.5,2.4-.4,2.4-1.4,0-.9-.2-1-.7-.5ZM239.7,66.9c-.2,0-.4,0-.4-.2s.2-.2.4-.2.4,0,.4.2-.2.2-.4.2ZM241.2,66.9c-.2,0-.4,0-.4-.2s.2-.2.4-.2.4,0,.4.2-.2.2-.4.2Z"/>
    <path d="M230.6,67.2h0c1.6,1.2,4.7.5,4.2-.9-.3-1-3-1.3-4.2-.4-.7.5-.8.8,0,1.3Z"/>
    <path d="M220.4,97.4c2.3,0,2.9-.1,3.2-.8.4-.9-.5-2.4-1.3-2.2-1.3.4-2.9,0-1.9-.3.9-.3.8-.4-.6-.4-.9,0-1.5.2-1.3.4s0,.5-.7.6c-1.3.3-1.5,2.5-.2,3.3h0c.5.3,1.5.5,2.4.5,1.5,0,1.5,0,0-.3-2.7-.4-2.5-.8.3-.7ZM219,96.1c0,0,.5-.3,1.1-.4s1.1,0,1.1.2-.5.4-1.1.4-1.1,0-1.1-.2Z"/>
    <path d="M227.9,82.4c1-1,.2-2.4-1.5-2.8-2.7-.6-3.6,2.3-1,2.9,1.5.4,2,.3,2.5-.1ZM226.8,81.4c-.2.4-.4.4-.9,0-.6-.6,0-1.3.7-.8h0c.2.1.3.5.1.8Z"/>
    <path d="M228.8,75.6c.6-.9-1-3-2.1-2.8-1,.2-1.6,1.8-1,2.8h0c.5.8,2.6.8,3,0Z"/>
    <path d="M221.8,59.6c-.6.7-.6,1,.2,1.3,1.9.7,6.4.5,6.5-.4,0-.7.1-.7.7-.1.6.5.7.5.7-.4,0-.6-.3-.9-.7-.7-.4.1-.7,0-.7-.2,0-.9-5.7-.5-6.6.5ZM226.7,59.6c.3.2.3.4,0,.6-.3.2-.5,0-.5-.3s.2-.5.5-.3ZM224.4,59.9c.2,0,.4,0,.4.2s-.2.2-.4.2-.4,0-.4-.2.2-.2.4-.2Z"/>
    <path d="M230.3,82.2c.8,1.5,4.2.2,3.6-1.4-.4-.9-.9-1.1-2.5-1.1-2,0-2.1.4-1.1,2.4Z"/>
    <path d="M179.1,79.9c1.7-.8,1.6-1.4-.4-1.7-4.4-.7-6.7,0-4.5,1.5,1.5,1,3.1,1.1,4.9.2ZM177,78.9c2,0,2.3.1,1.5.6-1.2.7-2.1.7-3.2,0-.7-.5-.4-.6,1.6-.6Z"/>
    <path d="M132.7,28.9c.3-.3-.9-.4-3.1-.4-3.1,0-3.3,0-1.3.4,3.2.5,3.9.5,4.4,0Z"/>
    <path d="M114.6,12.8c.2.2,1.4.3,2.6.2,1.2-.1,3.1-.3,4.3-.3s1.9-.2,1.7-.4c-.3-.2-.7-.3-1-.2s-2.2.3-4.3.3c-2.1,0-3.5.3-3.3.5h0Z"/>
    <path d="M106.9,26.7c-.7.3,0,.4,2.5.4,3.5,0,3.5,0,1.1-.4-1.4-.2-3-.2-3.6,0Z"/>
    <path d="M180.4,97.1c-.6.6-.7.6-.7,0,0-1.7-3.6-2.4-6.2-1.2-.4.2-1.5.2-2.5,0-1.3-.2-1.6-.1-1.3.3.2.3.7.6,1.2.5.5,0,.8,0,.8.3s-.3.4-.6.4-.6.9-.6,2h0c0,1.7.1,1.9.9,1.2.5-.4,1-1.2,1-1.7,0-.5.5-.9,1.1-.9s.9.2.7.4c-.2.2.6.4,1.9.4s2.1-.2,1.7-.5c-.3-.3-.1-.4.6-.3,1.2.3,2.8-.4,2.7-1.2,0-.3-.3-.2-.7.2ZM174.6,96.3c-.5,0-.8-.1-.5-.3.3-.2.7-.2,1,0s0,.3-.5.3Z"/>
    <path d="M75.8,23.2c-2.4-1.2-4.6-1.2-4.6,0s-3.3,1.8-8.1,1.8h-3.5v-1.5c0-1.9-.5-1.9-4.9-.2-2.2.8-3,1.3-2.1,1.3,1.1,0,1.3.2.9,1.4-.3.8-.6,1.8-.7,2.3-.9,4.5-17.9,17.1-29.2,21.8-5.9,2.4-19.5,7.1-23,7.9-1.2.3-1.7,2.4-.5,2.4s.6.9.6,2-.3,1.9-.8,1.7c-.5-.2-.7,0-.5.7.2,1,4.2,1.9,4.2.9s2.9-.9,3.7,0c.7.7,1.3.8,4.4.6,2.5-.2,3.6-.1,3.6.2s.3.5.8.5.6-.1.4-.3c-.2-.2.1-.6.7-.9.8-.5,1-.4,1,.1s.6.7,1.5.7,1.3.2,1,.4c-.6.6,3.3.6,5.8,0,2-.5,4.3-.2,3.6.5-.5.5,2.4.5,4.4,0,1.5-.4,4.2-.1,3.7.3-.2.2,1.2.2,3,.1s4.1,0,5,.4c1.2.4,2.6.4,4.8.2l3.1-.4v-3.5c-.2-2.2.1-3.6.6-3.8.6-.2.6-.3,0-.3-.6,0-.9-.9-.8-3,0-2.7.2-2.8.7-1.2.3,1,.4-3.5.3-9.8-.2-7.1,0-11,.4-10.1.3.8.5,2.6.4,3.9s0,2,.1,1.6c.2-.5.8-.7,1.4-.6,1.3.3,3.3-.1,2.9-.6-.2-.2.1-.6.7-.9,1.7-.8,1.4.5-.4,1.8-2.2,1.6-1.5,1.9,4.5,1.9,5.9,0,8.2-.4,6.2-1.1-.7-.2-1.2-.6-1.2-.9,0-.4.2-.3.6,0,.8.8,3.7.2,3.7-.7,0-.6-.1-.6-.8,0-.5.5-.7-.8-.6-4.3.2-5.4-.5-6.7-2.6-4.9-.6.6-1.2,1.2-1.2,1.5s-.7,1-1.5,1.5c-.9.6-1.4,1.4-1.2,2,.2.6,0,.9-.6.7-.5-.1-1.3.2-1.7.7-.5.5-1.2.8-1.6.6-.5-.2-.3-.6.5-1.1,1.3-.9,1.2-2.9-.2-2.7-.5,0-.9-.3-.9-.9v-1s1.4,1,1.4,1c1.3,1,1.5,1,3.1.3.9-.4,1.5-.7,1.3-.8s.3-.6,1-1.3c2.1-1.9,1.1-2.6-3.4-2.4h-3.8c0,.1.1,1.7.1,1.7v1.5c.1,0-.9-1.2-.9-1.2-2.1-2.4-3.2-1.5-3.2,2.6s-.2,3.7-.4,3.6-.4-1.7-.4-3.6c0-1.8-.3-3.3-.6-3.1-.9.3-1.2-.6-1.1-4.2,0-2.6.3-3.3,1.1-3.3s1.4-.2,1.7-.4c.3-.3.5,0,.3.5-.2.5-.1,1.1.1,1.4.6.5,9.6,1.1,9.6.6s1-.5,2.2-.6c1.4-.2,2.5-.6,2.9-1.3.4-.5.7-.8.7-.5,0,.3.5.4,1.1.3.7-.2,1.2.1,1.5,1,.2.7.7,1.8,1.1,2.5.4.7.5,1.5.2,1.7-.2.2-.1.3.3.2.4-.2,1,0,1.2.4.6.9.5,1.9-.2,1-.4-.5-.9-.6-2.2-.3-1.4.3-1.5.5-.9,1.3.8.9,1,4.1.9,14.1,0,3.6.2,5.1.7,4.9.5-.2.6,0,.3.8-1.4,3-1.4,3.2-.6,2.8.6-.2.9.5.9,2.5q.4,13.5,3.9,13.5c1.4,0,2.6.2,2.9.4.2.2,1.1.3,2,.1,1-.2,1.4,0,1.1.2-.3.3,1.4.4,5,.3,3.2-.1,5.4,0,5.4.2s3.9.4,9.3.5c5.1,0,10.6.1,12.2.3s5,.4,7.6.5,5,.5,5.3.7c.4.3.5.3.5,0,0-.4.6-.5,2.1-.3,2.6.3,2.7,0,2.4-8.2-.2-5.6-.3-6-1.5-5.5-1.1.5-1.1.5,0-.3.9-.7,1.3-2.3,1.7-6.8.5-5.9,1.2-7.9,2.2-6.4,1.1,1.8,11.7.9,12.9-1.1.7-1.2,1.5.2,1.7,3,.1,1.6.4,3.3.7,3.8s.3,1.6.1,2.5c-.2,1-.1,1.6.3,1.5.4-.1.7.6.7,1.6s.5,2.4,1.1,3.1c.7.8.8,1.3.3,1.4-1,.2-1.3,12.3-.4,12.9.4.2,2.4.3,4.5.2,2.6-.1,3.9,0,3.9.4h0c0,.3.4.4.9.3,1.6-.3,1.6-5.5,0-6.6-1.1-.8-1.1-.8,0-.4,1.6.7,2.8-.5,2.7-2.6v-1.5c0,0-.7,1.3-.7,1.3l-.6,1.3.3-1.3c.1-.7.5-1.8.8-2.4.4-.8.3-.9-.3-.4-.6.5-.8.4-.8-.5,0-.7.3-1.2.7-1.2s.7-1.5.7-3.7-.3-3.6-.7-3.5c-.8.3-1-.4-.2-.8s.5-1.4.5-2.8v-2.5s3.7,0,3.7,0c6.6-.1,8.5-.5,8-1.7-.2-.6-.1-1,.2-1,.7,0,.5-5.6-.2-8.2-.2-.8,0-1.4.3-1.4.7,0,.2-9.6-.5-10-.2-.1-1.6-.1-3.1,0-1.7,0-3.6-.2-4.7-.6-1-.4-2.3-.6-2.8-.5-1.5.3,3.8,1.6,6.9,1.7h2.8c0,.1-.2,5.7-.2,5.7-.1,3.1-.5,5.6-.8,5.6s-.4-.2-.2-.4c.2-.2,0-.4-.6-.4-1.1,0-2.1,1.1-1.4,1.5.2.1,1,.3,1.7.3,1.2,0,1.3.4.9,4-.4,4.8.1,4.4-6.1,4.7-6.5.4-5.9-.6-6.4,10.1-.2,5.1-.5,9.4-.6,9.5,0,0-1.2-.8-2.5-1.9s-2.1-2-1.8-2c.3,0,.2-.2-.2-.3-2.7-1.1-3.8-3.1-4.6-8.4-1.2-7.5-1.5-8.9-2.2-9.6-.9-.8-3.7-.2-3.7.8s-.5.8-5.1.8-5.1-.1-5.1-.7c0-.8-2.6-.9-3.3-.2-.3.3-.8,3.3-1.1,6.7-.7,6.9-1.3,7.8-8.8,12.7l-3.3,2.2-4.3-2.4c-8.2-4.6-11.4-6.6-10.7-6.6.4,0,0-.2-.7-.5-3.8-1.3-19.7-15.8-25.5-23.2-5-6.4-5.5-7.2-5.5-8.4s-.8-1.5-1.9-2ZM1.8,63.1c-.2.5-.3,0-.3-1.2,0-1.2.1-1.6.3-1h0c.2.7.2,1.7,0,2.2ZM1.7,59.1c-.2,0-.4,0-.4-.2s.2-.2.4-.2.4,0,.4.2-.2.2-.4.2ZM3.1,58.2c.2,0,.4,0,.4.2s-.2.2-.4.2-.4,0-.4-.2.2-.2.4-.2ZM4.3,61.1l-.7,1.7.3-1.7c.2-1.2,0-1.6-.6-1.4-.6.2-.6.1,0-.3.5-.3,1.1-.5,1.3-.3s0,1-.3,1.9ZM5.4,62.4c-.3.2-.5,0-.5-.3s.2-.5.5-.3c.3.2.3.4,0,.6ZM5.3,57.8c-.2,0-.4,0-.4-.2s.2-.2.4-.2.4,0,.4.2-.2.2-.4.2ZM16.2,53.8c.2,0,.4,0,.4.2s-.2.2-.4.2-.4,0-.4-.2.2-.2.4-.2ZM14.1,54.7c.2-.2.6-.4.8-.4s.2.2,0,.4c-.2.2-.6.4-.8.4s-.2-.2,0-.4ZM12.6,55.1c.2,0,.4,0,.4.2s-.2.2-.4.2-.4,0-.4-.2.2-.2.4-.2ZM7.5,58.6c-.2,0-.4,0-.4-.2s.2-.2.4-.2.4,0,.4.2-.2.2-.4.2ZM8.2,56.9c-.2.2-.6.4-.8.4s-.2-.2,0-.4c.2-.2.6-.4.8-.4s.2.2,0,.4ZM9.1,57.9c.3.2.3.4,0,.6-.3.2-.5,0-.5-.3s.2-.5.5-.3ZM9.1,61.1c-.2.4-.3,0-.3-.8s.1-1.2.3-.8h0c.2.4.2,1.1,0,1.5ZM9,65.2c-.2,0-.4,0-.4-.2s.2-.2.4-.2.4,0,.4.2-.2.2-.4.2ZM10.4,62.6c-.2,0-.4,0-.4-.2s.2-.2.4-.2.4,0,.4.2-.2.2-.4.2ZM10.4,61.7c-.2,0-.4,0-.4-.2s.2-.2.4-.2.4,0,.4.2-.2.2-.4.2ZM10.4,60.8c-.2,0-.4,0-.4-.2s.2-.2.4-.2.4,0,.4.2-.2.2-.4.2ZM10.2,58.6c0-.8.1-1.2.3-.8s.2,1.1,0,1.5-.3,0-.3-.8ZM11.1,56c-.2.2-.6.4-.8.4s-.2-.2,0-.4c.2-.2.6-.4.8-.4s.2.2,0,.4ZM11.9,64.3c-.2,0-.4,0-.4-.2s.2-.2.4-.2.4,0,.4.2-.2.2-.4.2ZM11.9,63.4c-.2,0-.4,0-.4-.2s.2-.2.4-.2.4,0,.4.2-.2.2-.4.2ZM14.8,63.9c-.2,0-.4,0-.4-.2s.2-.2.4-.2.4,0,.4.2-.2.2-.4.2ZM14.4,58.4c0,.2,0,1.1-.3,2h0c-.9,3.1-2.6,2.5-2.4-.7.2-2.7.4-2.9,2.6-3.8l2.4-.9v1.2c-.1.7-.3.9-.5.5-.7-1.7-2.3-.2-1.7,1.6ZM16.4,59.6c-.2.3-.4,0-.3-.8s.2-1,.4-.5h0c.2.4.2,1,0,1.3ZM16.4,64.9c-.2.3-.4,0-.3-.8s.2-1,.4-.5h0c.2.4.2,1,0,1.3ZM16.2,61.3c-.2,0-.4,0-.4-.2s.2-.2.4-.2.4,0,.4.2-.2.2-.4.2ZM19.3,58.1c-.2.7-.3,0-.3-1.4,0-1.4.1-2,.3-1.2.2.8.2,2,0,2.6ZM18.3,53.6c-1,.2-1.1.2-.4-.2.5-.3,1.1-.4,1.3-.3.2.1-.2.4-.9.5ZM19.2,61.7c-.2,0-.4,0-.4-.2s.2-.2.4-.2.4,0,.4.2-.2.2-.4.2ZM24.3,50.7c.2,0,.4,0,.4.2s-.2.2-.4.2-.4,0-.4-.2.2-.2.4-.2ZM20.6,52.5c.2-.2.6-.4.8-.4s.2.2,0,.4c-.2.2-.6.4-.8.4s-.2-.2,0-.4ZM20.6,59.9c.2,0,.4,0,.4.2s-.2.2-.4.2-.4,0-.4-.2.2-.2.4-.2ZM20.6,66.1c-.2,0-.4,0-.4-.2s.2-.2.4-.2.4,0,.4.2-.2.2-.4.2ZM22.8,66.1c-.6,0-1.1-.2-1.1-.4s.5-.4,1.1-.4,1.1.2,1.1.4-.5.4-1.1.4ZM23.6,61.4c1.2,0,1.2,0,.2.2-.9.2-1.1.5-.6,1,.4.4.7,1,.7,1.4,0,.4-.5.8-1.1.8-1.8,0-1.1-3.2.8-3.4ZM22.4,60.6c0-.1.2-.2.4-.2s.4,0,.4.2-.2.2-.4.2-.4,0-.4-.2ZM24.3,62.6c-.2,0-.4,0-.4-.2s.2-.2.4-.2.4,0,.4.2-.2.2-.4.2ZM24.7,55.4c-.1,3-.3,3.7-1.5,4-2.5.8-2.5-5.4,0-6.8.7-.4,1.3-.7,1.7-.8v3.6c-.1,0-.1,0-.1,0ZM24.9,51.8c1.1-.3,1.2.5,1,3.6v3.8c-.1,0-.6-3.7-.6-3.7l-.5-3.7ZM25.7,59.9c-.2,0-.4,0-.4-.2s.2-.2.4-.2.4,0,.4.2-.2.2-.4.2ZM27.9,59.5c-.2,0-.4,0-.4-.2s.2-.2.4-.2.4,0,.4.2-.2.2-.4.2ZM34.4,59.9c-.1.4-.3,1.7-.3,2.9,0,1.3-.5,2.6-1.2,3.1-.9.6-1.1.7-.8.1.3-.5,0-.7-1-.5-2.5.4-2.1-5.7.5-6.7,2-.8,3.3-.3,2.8,1.1ZM31.9,57.5c0-.1.2-.2.4-.2s.4,0,.4.2-.2.2-.4.2-.4,0-.4-.2ZM34.4,56.9c-.2,0-.4,0-.4-.2s.2-.2.4-.2.4,0,.4.2-.2.2-.4.2ZM34.7,51.3l-.2,4.3-2.4.9-2.4.9v-3.7c0-3.6,0-3.7,2.6-5.2l2.6-1.5-.2,4.3ZM31.2,47.9l-4,2.2,3.8-2.4c2.1-1.3,3.9-2.3,4-2.2s-1.6,1.2-3.8,2.4ZM36.1,53c-.1,1.3-.3.2-.3-2.3s.1-3.6.3-2.3c.1,1.3.1,3.3,0,4.6ZM52.6,30.6c.2,0,.4,0,.4.2s-.2.2-.4.2-.4,0-.4-.2.2-.2.4-.2ZM51.2,35c-.2-.2,0-.5.3-.7.4-.2.7,0,.7.4,0,.8-.4.9-1.1.3ZM51.5,55.8c0,.1-.2.2-.4.2s-.4,0-.4-.2.2-.2.4-.2.4,0,.4.2ZM51.9,31.9c.2,0,.4,0,.4.2s-.2.2-.4.2-.4,0-.4-.2.2-.2.4-.2ZM51.2,32.8c.2,0,.4,0,.4.2s-.2.2-.4.2-.4,0-.4-.2.2-.2.4-.2ZM49.7,34.1c.2-.2.6-.4.8-.4s.2.2,0,.4c-.2.2-.6.4-.8.4s-.2-.2,0-.4ZM48.3,35.4c.2-.2.6-.4.8-.4s.2.2,0,.4c-.2.2-.6.4-.8.4s-.2-.2,0-.4ZM41.9,40.6c1.2-.5,1.2-.5.3.2-.5.4-1.1.8-1.3.8-.6,0-.2-.4,1-.9ZM37.4,48.1c-.2,0-.4,0-.4-.2s.2-.2.4-.2.4,0,.4.2-.2.2-.4.2ZM37.4,46.4c.2,0,.4,0,.4.2s-.2.2-.4.2-.4,0-.4-.2.2-.2.4-.2ZM37,45.7c0-.1.2-.2.4-.2s.4,0,.4.2-.2.2-.4.2-.4,0-.4-.2ZM38.1,60.4c-.2,0-.4,0-.4-.2s.2-.2.4-.2.4,0,.4.2-.2.2-.4.2ZM38.1,56.4c-.2,0-.4,0-.4-.2s.2-.2.4-.2.4,0,.4.2-.2.2-.4.2ZM38.1,55.6c-.2,0-.4,0-.4-.2s.2-.2.4-.2.4,0,.4.2-.2.2-.4.2ZM36.9,44.6c-.4,0,0-.5.9-1.1s1.7-1.1,1.8-1.1-.3.5-.9,1.1c-.7.6-1.5,1.1-1.8,1.1ZM41.3,42.9l2.2-1.5v5h0c0,5,0,5-2.1,6l-2.1,1v-4.5c-.2-4.4-.2-4.5,2-6ZM41.4,53.6c0,.1-.2.2-.4.2s-.4,0-.4-.2.2-.2.4-.2.4,0,.4.2ZM41.3,60.6c0,1.2-.3,3.1-.6,4.3l-.6,2.2v-1.8c-.2-1-.4-3.5-.7-5.6-.4-3.8.3-5.5,2.1-4.8.4.2.5,0,.3-.2-.3-.3,0-.6.6-.7.9-.2,1.1.5,1,4.9,0,3.8-.2,4.5-.5,2.6-.5-3.2-1.5-3.8-1.6-1h0ZM41.7,66.9c-.2,0-.4,0-.4-.2s.2-.2.4-.2.4,0,.4.2-.2.2-.4.2ZM43.3,66.8c-.3.2-.5,0-.5-.3s.2-.5.5-.3.3.4,0,.6ZM43.8,39.8c-.2,0-.2-.2,0-.4s.6-.4.8-.4.2.2,0,.4c-.2.2-.6.4-.8.4ZM44.8,42.8c-.2.4-.3,0-.3-1,0-1,.2-1.3.3-.8h0c.2.5.2,1.3,0,1.8ZM44.8,63.8c-.1,1.1-.3,0-.3-2.3,0-2.4.1-3.3.3-2.1h0c.1,1.3.1,3.2,0,4.4ZM44.4,54.3c0-.8.1-1.2.3-.8s.2,1.1,0,1.5-.3,0-.3-.8ZM44.6,52.1c-.2,0-.4,0-.4-.2s.2-.2.4-.2.4,0,.4.2-.2.2-.4.2ZM44.6,46.8c-.2,0-.4,0-.4-.2s.2-.2.4-.2.4,0,.4.2-.2.2-.4.2ZM46.1,37.5c1.5-1.3,2.2-1.5,1.1-.3-.4.5-1.1,1-1.6,1.1-.4.2-.2-.2.5-.9ZM45.7,45c0-4.8,0-5,2.4-7.2l2.3-2.2v11.1c-.1,0-4.7,3.2-4.7,3.2v-4.9ZM49.4,49.2c0,.1-.2.2-.4.2s-.4,0-.4-.2.2-.2.4-.2.4,0,.4.2ZM47.2,50.5c0,.1-.2.2-.4.2s-.4,0-.4-.2.2-.2.4-.2.4,0,.4.2ZM46.1,61.5c0-2.5.2-4.6.5-4.6.3,0,.5,2.1.5,4.6s-.2,4.6-.5,4.6-.5-2.1-.5-4.6ZM49.9,57.7h0c-.1,5.9-.7,8.9-1.2,8.8.4,0,.6,0,.6.1,0,0-.7.3-1.5.4-.8.1-1.5,0-1.5-.2s.7-.4,1.5-.4.6,0,.8,0c-.4-.1-.8-2.7-.9-7.8,0-4.4-.3-6.6-.6-5.5-.7,2.5-1.5,2.9-1.1.5.2-1.3.9-2.2,2.2-3l1.9-1.1-.2,8.1ZM50.4,48.6c-.2,0-.2-.2,0-.4.2-.2.6-.4.8-.4s.2.2,0,.4c-.2.2-.6.4-.8.4ZM51.2,56.9c.2,0,.4,0,.4.2s-.2.2-.4.2-.4,0-.4-.2.2-.2.4-.2ZM51.3,64.2c-.2.9-.3,0-.3-1.9,0-1.9.1-2.7.3-1.6h0c.2,1,.2,2.6,0,3.5ZM51.2,66.5c-.2,0-.4,0-.4-.2s.2-.2.4-.2.4,0,.4.2-.2.2-.4.2ZM52,46.1c-.7-1.1-.5-1.4.4-.5.4.4.6.9.4,1-.2.1-.5-.1-.8-.5ZM52.8,52.8c-.2.9-.3.2-.3-1.6s.1-2.5.3-1.6h0c.2.9.2,2.4,0,3.3ZM53.5,33.1c-.3.2-.5,0-.5-.3s.2-.5.5-.3c.3.2.3.4,0,.6ZM53.4,30.2c-.2,0-.4,0-.4-.2s.2-.2.4-.2.4,0,.4.2-.2.2-.4.2ZM71.6,40.7c.2,0,.4,0,.4.2s-.2.2-.4.2-.4,0-.4-.2.2-.2.4-.2ZM70.6,33.2c.3-.3.6,1,.6,3,0,2-.1,3.6-.3,3.6-1.2,0-1.5-5.6-.3-6.7ZM69.4,40.2c.2,0,.4,0,.4.2s-.2.2-.4.2-.4,0-.4-.2.2-.2.4-.2ZM68.7,35.4c.2,0,.4,0,.4.2s-.2.2-.4.2-.4,0-.4-.2.2-.2.4-.2ZM68.8,37.5c-.3.2-.5,0-.5-.3s.2-.5.5-.3.3.4,0,.6ZM67,38.2c.2-.1.8.2,1.2.7,1,1.1.6,1.2-.7.2-.5-.4-.7-.8-.5-.9ZM65.4,39.1l1.4,1c.8.6,1.4,1.3,1.4,1.6s-.7.6-1.5.6c-1.2,0-1.5-.3-1.4-1.6v-1.6ZM64.4,39.7c.2.3.2.7,0,.8s-.4-.1-.4-.6c0-.5.2-.6.4-.3ZM62.9,41c.2.3.2.8,0,1.1-.2.3-.4,0-.4-.5s.2-.8.4-.5ZM64.7,31.5c1.5-.8,2.9-.9,2.8-.1,0,.7-1.2,1.5-2.3,1.8,0,0,0,0,0-.1,0-.1-.2-.2-.4-.2s-.4,0-.4.2.1.2.3.2c-.4,0-.7,0-1-.1-.7-.5-.6-.8.7-1.6ZM63,31.2c.3.2.3.4,0,.6-.3.2-.5,0-.5-.3s.2-.5.5-.3ZM62.8,35.9c.2,0,.4,0,.4.2s-.2.2-.4.2-.4,0-.4-.2.2-.2.4-.2ZM62.1,36.7c.2,0,.4,0,.4.2s-.2.2-.4.2-.4,0-.4-.2.2-.2.4-.2ZM59.6,32.8c.4.4.7,1.9.7,3.4,0,1.5-.3,2.8-.7,3-.5.2-.7-1.1-.7-3.4,0-2.5.2-3.4.7-3ZM57,39.4c.2,0,.4,0,.4.2s-.2.2-.4.2-.4,0-.4-.2.2-.2.4-.2ZM168.5,58.1c.2.3.2.7,0,.8s-.4-.1-.4-.6c0-.5.2-.6.4-.3ZM159.6,71.8c-.2,0-.4,0-.4-.2s.2-.2.4-.2.4,0,.4.2-.2.2-.4.2ZM159.6,70.9c-.2,0-.4,0-.4-.2s.2-.2.4-.2.4,0,.4.2-.2.2-.4.2ZM159.3,69.6c0-.3.2-.5.5-.3s.3.4,0,.6c-.3.2-.5,0-.5-.3ZM165.5,73c-.2.1-.4-.1-.4-.6,0-.5.2-.6.4-.3.2.3.2.7,0,.8ZM165.5,66.9c.2,0,.4,0,.4.2s-.2.2-.4.2-.4,0-.4-.2.2-.2.4-.2ZM165.8,70.4c0,1-.1,1-.6.2h0c-.5-.7-.7-.5-.9.9-.2,1.3-.3,1-.4-1.1,0-2.6,0-2.8,1-2,.6.5,1,1.4,1,2ZM163.4,65.3c.5.3,1,.5,1,.6s-.4,0-1,0-1-.3-1-.6.2-.5,1,0ZM161.8,63.9c.2,0,.4,0,.4.2s-.2.2-.4.2-.4,0-.4-.2.2-.2.4-.2ZM160.6,62.7c.5.2.8.4.8.5,0,.4-.6.2-1.2-.3-.3-.3-.2-.4.3-.2ZM159.6,61.7c.2,0,.4,0,.4.2s-.2.2-.4.2-.4,0-.4-.2.2-.2.4-.2ZM159.6,64.1c.6.5,1.1,1.7,1.1,2.7,0,1.5-1.4,2.9-1.5,1.6,0-.2-.2-1.4-.4-2.7-.3-2.2-.3-2.3.8-1.6ZM116.2,67.4c.3,0,.6.3.6.7s-.3.7-.6.7-.6-.3-.6-.7.3-.7.6-.7ZM115.6,65.5c0-.7.3-1.1.7-.9s.6.5.5.9c-.3,1.2-1.2,1.3-1.2,0ZM116,70.9c-.2,0-.4,0-.4-.2s.2-.2.4-.2.4,0,.4.2-.2.2-.4.2ZM116.7,69.6c-.2,0-.4,0-.4-.2s.2-.2.4-.2.4,0,.4.2-.2.2-.4.2ZM118.1,66.1c-.2,0-.4,0-.4-.2s.2-.2.4-.2.4,0,.4.2-.2.2-.4.2ZM118.3,68.5c-.3.2-.5,0-.5-.3s.2-.5.5-.3c.3.2.3.4,0,.6ZM118.1,70.9c-.2,0-.4,0-.4-.2s.2-.2.4-.2.4,0,.4.2-.2.2-.4.2ZM124.8,69.4c-.3.2-.5,0-.5-.3s.2-.5.5-.3c.3.2.3.4,0,.6ZM128.4,71.2c-.2.1-.4-.1-.4-.6,0-.5.2-.6.4-.3.2.3.2.7,0,.8ZM129.8,70.9c-.2,0-.4,0-.4-.2s.2-.2.4-.2.4,0,.4.2-.2.2-.4.2ZM130.5,71.8c-.2,0-.4,0-.4-.2s.2-.2.4-.2.4,0,.4.2-.2.2-.4.2ZM129,69.3c-1.4-.7-1.3-.7.2-.2.9.3,1.6.6,1.6.7,0,.3-.4.2-1.9-.5ZM128.7,67.6c0-.1.2-.2.4-.2s.4,0,.4.2-.2.2-.4.2-.4,0-.4-.2ZM133.1,71.5c0,.4-.3.7-.7.7s-.5-.3-.3-.7c.2-.4.5-.7.7-.7s.3.3.3.7h0ZM132.7,70.4c-.2,0-.4,0-.4-.2s.2-.2.4-.2.4,0,.4.2-.2.2-.4.2ZM132.3,69.1c-.9-.4-.9-.4.2-.4.7,0,1.3.2,1.3.4,0,.5,0,.5-1.5,0ZM135,69.9c-.2.1-.4-.1-.4-.6,0-.5.2-.6.4-.3.2.3.2.7,0,.8ZM136.5,72.1c-.3.2-.5,0-.5-.3s.2-.5.5-.3c.3.2.3.4,0,.6ZM136.3,66.1c-.2,0-.4,0-.4-.2s.2-.2.4-.2.4,0,.4.2-.2.2-.4.2ZM135.5,61.1c1-1.3,1.6-1.2.9.2-.3.5-.8.9-1.1.9s-.2-.5.2-1.1ZM133.9,60.9c.5-.5,1.1-.9,1.3-.8h0c.2.1-.2.5-1,1-1.3.7-1.3.7-.3-.2ZM134.5,64.3c0,.9-.3,1.8-.7,2s-.5.6-.3,1c.2.5,0,.8-.8.8-1.8,0-1.6-3.8.3-4.8,1.4-.7,1.5-.7,1.5,1ZM131.3,63c.7-.5,1.5-.9,1.7-.9s-.2.4-1,.9c-.7.5-1.5.9-1.7.9s.2-.4,1-.9ZM130.8,66.7c.2,1.8,0,1.9-1.1.4-.6-.8-.6-1.2,0-1.5.6-.3.9,0,1,1.1ZM127.6,65.6c.7-.5,1.5-.9,1.7-.9s-.2.4-1,.9c-.7.5-1.5.9-1.7.9s.2-.4,1-.9ZM125.8,67.1c1.3,0,1.5,0,.8.3-.8.3-.8.4,0,.6.5.1.1.1-1,0-1.6-.2-2,0-2.3.8-.3.8-.3.9-.4.1-.1-1.2.7-1.7,2.8-1.9ZM123.2,70.4c.2,0,.4,0,.4.2s-.2.2-.4.2-.4,0-.4-.2.2-.2.4-.2ZM121.9,67.7c.2.3.2.7,0,.8s-.4-.1-.4-.6c0-.5.2-.6.4-.3ZM121.8,69.1c.2,0,.4,0,.4.2s-.2.2-.4.2-.4,0-.4-.2.2-.2.4-.2ZM120.5,67.3c.2.3.2.7,0,.8s-.4-.1-.4-.6c0-.5.2-.6.4-.3ZM117.6,63.6c1.3.7,2.4,1.3,2.4,1.4,0,.3-.6,0-2.6-1.3l-2.1-1.4,2.4,1.3ZM114.6,66.4c-.3.2-.5,0-.5-.3s.2-.5.5-.3c.3.2.3.4,0,.6ZM114.6,63.6c.3.2.3.4,0,.6s-.5,0-.5-.3.2-.5.5-.3ZM113.8,61.3c.2,0,.4,0,.4.2s-.2.2-.4.2-.4,0-.4-.2.2-.2.4-.2ZM113.2,69.7c-.2.5-.3,0-.3-1s.1-1.5.3-1h0c.2.5.2,1.4,0,2ZM113.2,63.8h0c.2.5.2,1.4,0,2s-.3,0-.3-1,.1-1.5.3-1ZM77.5,31.8c-.3.2-.5,0-.5-.3s.2-.5.5-.3c.3.2.3.4,0,.6ZM78.8,53.8c-.2,0-.4,0-.4-.2s.2-.2.4-.2.4,0,.4.2-.2.2-.4.2ZM78.9,52.6c-.6-.6,0-1.3.7-.8h0c.2.1.3.5.1.8-.2.4-.4.4-.9,0ZM78.6,49.4c0-.6.2-.8.4-.5.2.3.2.8,0,1.1-.2.3-.4,0-.4-.5ZM82.1,62.4c0,3.7-.3,6.3-.7,6.5-.4.2-.7-.3-.8-1,0-1.2-.3-3.8-1-10.1-.4-3.3-.1-3.7,1.5-2.4.7.6,1,2.5,1,7h0ZM79.9,53.6c0-.1.2-.2.4-.2s.4,0,.4.2-.2.2-.4.2-.4,0-.4-.2ZM83.3,67.7c-.3.2-.5,0-.5-.3s.2-.5.5-.3c.3.2.3.4,0,.6ZM83.2,57.8c-.2,0-.4,0-.4-.2s.2-.2.4-.2.4,0,.4.2-.2.2-.4.2ZM82.4,55.1c-.3-.3-.2-.4.3-.2.5.2.8.4.8.5,0,.4-.6.2-1.2-.3ZM83.1,49.4c0-1.3.1-1.9.3-1.2.2.7.2,1.7,0,2.4-.2.7-.3.1-.3-1.2ZM84.8,67.2c-.3.2-.5,0-.5-.3s.2-.5.5-.3c.3.2.3.4,0,.6ZM84.5,62.3c0-1.7.1-2.3.3-1.4h0c.2.9.2,2.3,0,3.1s-.3,0-.3-1.7ZM84.7,58.6c-.2,0-.4,0-.4-.2s.2-.2.4-.2.4,0,.4.2-.2.2-.4.2ZM86.3,68.8c-.2.5-.3,0-.3-1s.1-1.5.3-1h0c.2.5.2,1.4,0,2ZM86.1,65.6c-.2,0-.4,0-.4-.2s.2-.2.4-.2.4,0,.4.2-.2.2-.4.2ZM86.1,59.1c.2,0,.4,0,.4.2s-.2.2-.4.2-.4,0-.4-.2.2-.2.4-.2ZM85.8,58c0-.1.2-.2.4-.2s.4,0,.4.2-.2.2-.4.2-.4,0-.4-.2ZM89.2,69.9c-.3.2-.5,0-.5-.3s.2-.5.5-.3.3.4,0,.6ZM87.6,67.9c-.9-1.7-.2-8.4.8-7.9.7.3,1,1.7,1,4.6s-.8,5.2-1.8,3.3ZM89,59.1c.2,0,.4,0,.4.2s-.2.2-.4.2-.4,0-.4-.2.2-.2.4-.2ZM88.7,58.4c0-.1.2-.2.4-.2s.4,0,.4.2-.2.2-.4.2-.4,0-.4-.2ZM90.6,46.7c-.3.2-.5,0-.5-.3s.2-.5.5-.3.3.4,0,.6ZM90.7,56.3c-.1,1.6-.3.2-.3-3.2,0-3.4.1-4.7.3-2.9h0c.1,1.8.1,4.5,0,6.1ZM90.5,59.9c.2,0,.4,0,.4.2s-.2.2-.4.2-.4,0-.4-.2.2-.2.4-.2ZM90.6,64.4c-.2.5-.3,0-.3-1s.1-1.5.3-1h0c.2.5.2,1.4,0,2ZM90.5,70c-.2,0-.4,0-.4-.2s.2-.2.4-.2.4,0,.4.2-.2.2-.4.2ZM90.5,66.9c-.2,0-.4,0-.4-.2s.2-.2.4-.2.4,0,.4.2-.2.2-.4.2ZM92.1,66.8c-.2.9-.3.2-.3-1.6s.1-2.5.3-1.6h0c.2.9.2,2.4,0,3.3ZM91.9,53.8c0-3.5.1-4.9.3-3.2.1,1.7.1,4.6,0,6.3-.1,1.7-.3.3-.3-3.2ZM93.5,69.9c-.3.2-.5,0-.5-.3s.2-.5.5-.3.3.4,0,.6ZM93.3,65.6c0-1.8.1-2.5.3-1.6h0c.2.9.2,2.4,0,3.3-.2.9-.3.2-.3-1.6ZM95,63.6c.3.2.3.4,0,.6-.3.2-.5,0-.5-.3s.2-.5.5-.3ZM94.5,60.6c0-.1.2-.2.4-.2s.4,0,.4.2-.2.2-.4.2-.4,0-.4-.2ZM94.9,67.4c-.2,0-.4,0-.4-.2s.2-.2.4-.2.4,0,.4.2-.2.2-.4.2ZM95.5,55c-.5,6.3-1,6.2-1,0s.3-5,.7-4.9c.4.1.5,2.2.3,5ZM97,64.3c-.2,0-.4,0-.4-.2s.2-.2.4-.2.4,0,.4.2-.2.2-.4.2ZM98.1,64.5c0-.1.2-.2.4-.2s.4,0,.4.2-.2.2-.4.2-.4,0-.4-.2ZM98.9,70.2c-.5.2-.7-.7-.7-2.2s.3-2.4.7-2.2c.4.1.7,1.1.7,2.2s-.3,2-.7,2.2ZM100.7,70.4c-.2,0-.4,0-.4-.2s.2-.2.4-.2.4,0,.4.2-.2.2-.4.2ZM100.3,67.2c0-.1.2-.2.4-.2s.4,0,.4.2-.2.2-.4.2-.4,0-.4-.2ZM102.5,70c-.5,0-.8-.1-.5-.3.3-.2.7-.2,1,0,.3.2,0,.3-.5.3ZM102,68.8c.3-.2.7-.2,1,0,.3.2,0,.3-.5.3s-.8-.1-.5-.3ZM102.1,67.8c.2-.2.6-.4.8-.4s.2.2,0,.4c-.2.2-.6.4-.8.4s-.2-.2,0-.4ZM102.9,66.9c-.2,0-.4,0-.4-.2s.2-.2.4-.2.4,0,.4.2-.2.2-.4.2ZM104.3,67.4c-.2,0-.4,0-.4-.2s.2-.2.4-.2.4,0,.4.2-.2.2-.4.2ZM106.5,68.3c-.2,0-.4,0-.4-.2s.2-.2.4-.2.4,0,.4.2-.2.2-.4.2ZM106.6,63.1c.2.4.2,1,0,1.3-.2.3-.4,0-.3-.8,0-.7.2-1,.4-.5ZM106.3,59.9c0-.8.1-1.2.3-.8.2.4.2,1.1,0,1.5-.2.4-.3,0-.3-.8ZM108,70.9c-.2,0-.4,0-.4-.2s.2-.2.4-.2.4,0,.4.2-.2.2-.4.2ZM108.1,69.3c.3.2.3.4,0,.6-.3.2-.5,0-.5-.3s.2-.5.5-.3ZM107.7,67.4c0-.6.2-.8.4-.5.2.3.2.8,0,1.1-.2.3-.4,0-.4-.5ZM109.5,68.1c-.3.2-.5,0-.5-.3s.2-.5.5-.3c.3.2.3.4,0,.6ZM109.4,66.9c-.2,0-.4,0-.4-.2s.2-.2.4-.2.4,0,.4.2-.2.2-.4.2ZM111.7,69c-.2.4-.3,0-.3-.8s.1-1.2.3-.8.2,1.1,0,1.5ZM111.6,60.4c.2,0,.4,0,.4.2s-.2.2-.4.2-.4,0-.4-.2.2-.2.4-.2ZM109.7,58.8c.5.2.8.4.8.5,0,.4-.6.2-1.2-.3-.3-.3-.2-.4.3-.2ZM108.9,61.1c.6-.2.9.4.9,2.3,0,3.1-.7,3.6-.8.6v-2.1c-.1,0-.6,1.8-.6,1.8-.5,1.5-.5,1.4-.6-1.2,0-1.8.2-2.9.6-2.7.4.1.5.6.2,1-.3.5-.2.6.4.4ZM107,57.3c.7.3,1.3.7,1.3.8,0,.4-.6.1-1.5-.6-.9-.7-.9-.7.3-.2ZM105,56c.2,0,.4,0,.4.2s-.2.2-.4.2-.4,0-.4-.2.2-.2.4-.2ZM103.4,54.6c.7.3,1.3.7,1.3.8,0,.4-.6.1-1.5-.6-.9-.7-.9-.7.3-.2ZM102.5,55.8h0c.5.3.7,2.3.5,5.2-.1,3.4-.4,4.4-.8,3.6-.3-.7-.5-2.3-.3-3.6.2-1.9,0-2.4-.7-2.4s-.9.3-.7.6c.2.3,0,.8-.4,1.1s-.5.8-.2,1.3c.9,1.3,1,1.9.2,1.9s-.5.2-.2.5c.4.4.2.4-.7,0-1-.5-1.2-1.5-1.2-6.1v-5.5l1.9,1.4c1.5,1,1.7,1.5,1,1.7-.7.2-.7.4-.1.6.4.2.8,0,.8-.3s.2-.4.8,0ZM101.4,52.9c.2,0,.4,0,.4.2s-.2.2-.4.2-.4,0-.4-.2.2-.2.4-.2ZM99.5,51.4c.5.2.8.4.8.5,0,.4-.6.2-1.2-.3-.3-.3-.2-.4.3-.2ZM97.3,49.9c.4,0,.9.2,1.2.4.2.2.1.4-.3.4s-.9-.2-1.2-.4c-.2-.2-.1-.4.3-.4ZM97,51.2c.2,0,.4,0,.4.2s-.2.2-.4.2-.4,0-.4-.2.2-.2.4-.2ZM96.3,49c.2,0,.4,0,.4.2s-.2.2-.4.2-.4,0-.4-.2.2-.2.4-.2ZM93.2,46.6c.2-.1.9.3,1.6.9.7.6,1.1,1.1.9,1.1-.6,0-2.9-1.8-2.5-2ZM93.6,57.9c-.1,1.7-.3.3-.3-3.2s.1-4.9.3-3.2c.1,1.7.1,4.6,0,6.3ZM93.4,61.7c.2,0,.4,0,.4.2s-.2.2-.4.2-.4,0-.4-.2.2-.2.4-.2ZM91.8,44.6c.7.7,1.2,1.3,1.1,1.3-.8,0-2-.9-3.1-2.2-1.6-1.9,0-1.2,2.1.8ZM84.5,37.8c.2-.1,1.2.7,2.2,1.9,2.5,2.7,2.1,2.9-.5.3-1.1-1.1-1.9-2.1-1.7-2.2ZM79.5,31.6c.1,0,1.3,1.1,2.5,2.6,1.3,1.5,2.2,2.8,2,2.9s-1.3-1.1-2.5-2.6c-1.3-1.5-2.2-2.8-2-2.9ZM80.2,35.9c-.2.2,0,.4.3.4s1.1.6,1.6,1.3c.5.7,1.1,1.3,1.4,1.3s.4.5.3,1.2c-.1.7,0,.9.2.6.7-.9,3.1,1.6,2.7,2.7-.3.7-.2.8.4.3,1.6-1.3,2.3,1.2,2.3,7.6h0c0,5.4-.2,6.4-1.1,6.4s-1.1-1.1-1.2-6.7l-.2-6.7-.4,6.1-.4,6.1-.6-14.4-.4,6.8-.4,6.8-.3-7.2c-.2-4-.4-5.9-.6-4.4-.2,2-.5,2.6-.9,2.2-.5-.4-.7.7-.8,3.3v3.9c-.1,0-.6-3.3-.6-3.3-.3-1.8-.6-2.7-.7-2-.1.8-.3,1-.5.6-.2-.4,0-1.4.4-2.3.4-.9.4-1.5,0-1.3-.4.1-.7-.1-.8-.5s-.3.2-.6,1.4c-.4,1.8-.5,1.4-.6-2.2,0-2.4-.3-6.1-.5-8.1l-.4-3.7,1.5,1.7c.8.9,1.3,1.9,1.1,2.1Z"/>
    <path d="M174.1,73.8c.9.4,1,.6.3.8h0c-.5.1.5.2,2.3.2,2.8,0,3,0,1.1-.3-1.8-.2-2-.3-.8-.6,1.7-.4.3-1.6-1.8-1.6s-2.6.9-1.1,1.6Z"/>
    <path d="M178.9,70.2c0-.8-4.1-.8-4.6,0-.2.4.1.7.8.8,1.9.2,3.8-.1,3.8-.8ZM176.6,70.1c.5-.1,1.2-.1,1.4,0h0c.2.1-.2.2-1,.2-.8,0-1-.1-.4-.3Z"/>
    <path d="M175.3,65.7c3.6.6,5.6.1,4.8-1.1-.4-.6-1.2-.7-3.6-.6-3.5.2-4.3,1.2-1.3,1.7ZM178.1,64.9c.5-.1,1.2-.1,1.4,0h0c.2.1-.2.2-1,.2-.8,0-1-.1-.4-.3Z"/>
    <path d="M176.5,68.6c2.7-.1,3.6-.3,3.8-.9.2-.7-.2-.8-3.3-.7-2.7.1-3.6.3-3.8.9-.2.7.2.8,3.3.7ZM175.5,68c.3-.2.7-.2,1,0,.3.2,0,.3-.5.3s-.8-.1-.5-.3Z"/>
    <path d="M86.8,10.2c.9.5,2.1.6,3.4.4,1.2-.2,2.8,0,4,.4h0c1.1.4,2.5.7,3.1.7.6,0-.1-.4-1.6-.9-1.5-.5-3.8-.8-5.1-.8-1.3,0-3,0-3.8-.2q-1.4-.3,0,.4Z"/>
    <path d="M100.3,26.7c2.6.5,3.1.5,2.5,0-.2-.2-1.3-.4-2.4-.4h-2s1.8.4,1.8.4h0Z"/>
    <path d="M81.5,8.7h0c1,.2,2.2.3,2.8.1.7-.2.1-.4-1.5-.6-3-.4-3.8-.1-1.4.4Z"/>
    <path d="M168.4,22.7c.4.4,1.5.5,3.2.3,1.5-.1,3.7-.3,5-.3s2.2-.2,2-.4c-.2-.2-2.4-.2-4.9,0-2.5.2-4.9.2-5.2,0-.4-.1-.4,0-.1.3h0Z"/>
    <path d="M122.2,44.4c8.4-.6,9.5-.8,9.2-1.2-.2-.3-2.1-.5-4.3-.5-2.2,0-4.6-.2-5.2-.3-1.9-.4-1.3,0,.8.8,2.3.7,1.7.8-3.8.8-2.5,0-2.7,0-1.1.4h0c1,.2,3,.3,4.4.2ZM126.3,43c.9-.1,2.2-.1,2.9,0h0c.7.1,0,.2-1.6.2-1.6,0-2.2,0-1.3-.2Z"/>
    <path d="M121.8,20.6c-2.6-1.3-.8.4,2.7,2.5h0c2.1,1.3,3.9,2.3,4.1,2.3.4,0-5.4-4.1-6.8-4.8Z"/>
    <path d="M148,29.3h-1.5s1.5.4,1.5.4h0c2.2.6,4,.6,2.5,0-.6-.2-1.7-.4-2.5-.4Z"/>
    <path d="M136.4,25.3c1.3.5,2.5,1.1,2.8,1.3s.7.5,1,.5c.9,0-4.2-2.6-5.1-2.6-.5,0,.1.4,1.4.8Z"/>
  </g>
  <path class="st0" d="M227.5-8.4c.5,5.1.6,10.2,1.1,15.2l7.5-4.3c-2.3-1.6-4.8-2.7-7.3-4-3.7-1.8-8.7,1.2-7.3,5.6s6.3,8.7,11.7,11.2,8.9,8.2,9,15.7,10.1,6.4,10,0-1.7-14.9-7.3-20.1c-3.5-3.3-12.3-4.7-13.8-9.5l-7.3,5.6c2.5,1.2,5,2.4,7.3,4s7.9-.6,7.5-4.3-.6-10.2-1.1-15.2-10.6-6.4-10,0h0Z"/>
</svg>