<?xml version="1.0" encoding="UTF-8"?>
<svg id="Layer_2" data-name="Layer 2" xmlns="http://www.w3.org/2000/svg" viewBox="0 0 215.59 257.63">
  <defs>
    <style>
      .cls-1 {
        stroke-width: .26px;
      }

      .cls-1, .cls-2, .cls-3, .cls-4, .cls-5, .cls-6, .cls-7, .cls-8, .cls-9, .cls-10, .cls-11, .cls-12, .cls-13, .cls-14, .cls-15, .cls-16, .cls-17, .cls-18, .cls-19, .cls-20, .cls-21, .cls-22, .cls-23, .cls-24, .cls-25, .cls-26, .cls-27 {
        fill: none;
        stroke-linecap: round;
        stroke-linejoin: round;
      }

      .cls-1, .cls-2, .cls-3, .cls-4, .cls-5, .cls-6, .cls-7, .cls-8, .cls-9, .cls-10, .cls-11, .cls-12, .cls-13, .cls-14, .cls-15, .cls-16, .cls-17, .cls-18, .cls-19, .cls-20, .cls-21, .cls-22, .cls-23, .cls-24, .cls-25, .cls-26, .cls-27, .cls-28 {
        stroke: #000;
      }

      .cls-3 {
        stroke-width: .43px;
      }

      .cls-29 {
        font-family: PTSerif-Italic, 'PT Serif';
        font-size: 13.96px;
        font-style: italic;
      }

      .cls-4 {
        stroke-width: 1.08px;
      }

      .cls-5 {
        stroke-width: 1.07px;
      }

      .cls-6 {
        stroke-width: 1.15px;
      }

      .cls-7 {
        stroke-width: 1.12px;
      }

      .cls-8 {
        stroke-width: 1.14px;
      }

      .cls-9 {
        stroke-width: 1.16px;
      }

      .cls-10 {
        stroke-width: .98px;
      }

      .cls-11 {
        stroke-width: .98px;
      }

      .cls-12 {
        stroke-width: .94px;
      }

      .cls-13 {
        stroke-width: .94px;
      }

      .cls-14 {
        stroke-width: .9px;
      }

      .cls-15 {
        stroke-width: 1px;
      }

      .cls-16 {
        stroke-width: .61px;
      }

      .cls-17 {
        stroke-width: .84px;
      }

      .cls-18 {
        stroke-width: .86px;
      }

      .cls-19 {
        stroke-width: .84px;
      }

      .cls-20 {
        stroke-width: .81px;
      }

      .cls-21 {
        stroke-width: .82px;
      }

      .cls-22 {
        stroke-width: .83px;
      }

      .cls-23 {
        stroke-width: .82px;
      }

      .cls-24 {
        stroke-width: .81px;
      }

      .cls-25 {
        stroke-width: 1.44px;
      }

      .cls-26 {
        stroke-width: 1.35px;
      }

      .cls-27 {
        stroke-width: 1.46px;
      }

      .cls-28 {
        fill: #020c11;
        stroke-miterlimit: 10;
      }
    </style>
  </defs>
  <g id="Layer_1-2" data-name="Layer 1">
    <path class="cls-2" d="M136.34,142.01c-43.3,2.79-76.6,4.27-119.89,7.15"/>
    <path class="cls-2" d="M39.2,67.64c.16-4.14-.22-8.04-.87-12.23-2.19.43-4.31.85-6.39,1.27-.22,6.92.21,13.46.72,20.27.21,5.16.16,12.19-6.59,13.13-1.64.16-2.82-.46-3.1-2.02-1.83-9.62,1.17-19.66-1.38-29.19-2.71.7-7.39-.59-6.95,3.46-.37,7.53,0,15.09.44,22.61-.35,11.72,10.4,13.77,18.96,8.58,8.15-5.44,4.82-17.32,5.4-25.7"/>
    <path class="cls-2" d="M11.29,231.85c.21,2.29.55,4.55.42,5.64.84,2.3-10.54,3.74-11.2,6.44,187.26,15.49,145.09,16.12,190.26,8.16l24.34-6.24c-.15-31.72.15-58.64-.85-90.64"/>
    <path class="cls-2" d="M20.44,224.98c-.16-.08-.34-.14-.52-.21"/>
    <path class="cls-2" d="M152.77,12.47c-.56-5.87-7.37-5.66-7.73-7.46-.58-2.89-2.5-3.35-4.73-4.29-.15.16-.39.41-.51.54,0,3.37,0,6.62,0,10.14-36.59,10.66-85.23,21.53-121.9,31.13"/>
    <path class="cls-2" d="M148.06,246.45c-39.55-3.94-97.2-8.01-137.11-11.08"/>
    <path class="cls-5" d="M140.35.53C99.26,11.13,58.29,22.08,17.22,32.7c-1.46.37-1.78.47-1.72,2.01.22,2.83-1.36,6.83,2.58,8.16"/>
    <path class="cls-2" d="M103.65,80.69c1.04-.04,2.09-.03,3.12-.16,1.48-1.89,1.6-4.93,2.5-7.21,1.27-3.19,10.17-3.55,13.28-3.19,1.03,2.41,2.11,4.93,3.2,7.48,1.27-.16,2.52-.32,3.88-.49-3.33-11.16-6.65-22.24-9.96-33.31-2.82.68-5.49,1.33-8.15,1.98-2.57,11.7-5.69,23.2-7.99,34.91"/>
    <path class="cls-2" d="M152.1,108.05c-.82-.21-10.1,1.74-16.78,2.33-2.11.19-4.06.21-5.98.5l-5.32.5c-32.91,4.53-64.47,5.84-97.46,10.04-4.33.46-8.66.87-12.99,1.26-5.21.71-2.78-2.88-3.17-7.19"/>
    <path class="cls-2" d="M121.81,72.03c.77,2.79,1.64,4.42,2.78,7.21,2.25-.47,4.54-.95,6.95-1.45-3.83-12-7.61-23.87-11.39-35.72-3.38,1.1-9.35-.15-10.55,3.88-2.31,12.28-5.47,24.45-7.57,36.72,1.72-.26,3.3-.5,4.87-.72,1.76-.25,1.75-.24,2.26-2,.09-.31.32-.59.49-.88"/>
    <path class="cls-2" d="M152,17.39c3.39-.31,3.59,4.39,3.76,6.58,0,24.28-.03,48.56.13,72.84-.01,3.93,1.3,10.4-4.01,11.32"/>
    <path class="cls-2" d="M10.4,115.04c-1.15-17.7-6.05-60.66-3.52-61.78,7.62-3.39,1.57-.94,10.45-3.39,8.19-2.26,24.06-5.57,38.29-8.38l96.19-24.09"/>
    <path class="cls-2" d="M48.15,65.25c-1.13-.44-1.85-.23-2.85-.23-.5,8,.01,9.87-.03,17.7.07,2.29.36,1.62.49,6.13,3.98-.49,6.75-1.01,10.7-1.68l1.05-2.22c-4.32.52-5.42.41-8.57,1.31-2.06.59-1.51-19.45-.85-20.8"/>
    <path class="cls-2" d="M99.41,80.12c-1.98-3.8-3.35-5.65-5.34-9.47,10.49-6.07,6.59-17.35-4.15-16.13-3.7.42-7.83.96-11.17,2.47.23,9,.47,18.16.71,27.29,1.13.44,5.31-.19,6.59-1.15-1.15-3.19-.31-6.09-.82-9.38l3.46-.69c5.59-.89-1.71,12.4,9.22,8-1.58-2.76-2.85-5.65-4.52-8.28-.88-1.01-.88-2.08-.12-2.97,2.81-3,6.02-6.71,3.76-10.45-3.25-5.38-10.06-2.72-16.82-1.64.92,6,1.1,13.58.37,25.56,1.31-.4,2.44-.74,3.58-1.09"/>
    <path class="cls-2" d="M145.22,15.13c3.52-2.65,18.64-2.68,23.34-1.51s3.62,7.38,3.76,10.73c1.13,26.92,1.67,54.79,1.41,81.33-.01.73.18,6.42.95,6.03"/>
    <path class="cls-2" d="M139.01,38.34c.69,12.67,2.04,25.17,2,37.89-.98.14-2.23.32-3.56.51-.79-12.7-1.57-25.23-2.36-37.85,1.37-.24,2.58-.46,3.8-.68"/>
    <path class="cls-11" d="M129.13,7.43c-18.98,4.76-37.55,10.13-56.62,14.55l-16.55,4.64c-12.66,3.48-21.01,4.95-36.16,9.6l.05,1.43c3.8.25,6.54-.92,11.03-1.9,6.49-1.41,12.27-3.06,17.48-4.48,16.68-4.56,60.89-15.93,77.39-19.8"/>
    <path class="cls-2" d="M31.52,143.62c-5.63.48-11.02.94-16.52,1.4-.22,7.85-1.1,7.01,5.57,11.24.51,12.97-1.08,40.52-1.52,69.19"/>
    <path class="cls-2" d="M145.41,15.13c-30.37,8.56-57.96,14.61-89.93,22.87l-2.49.69c-9.58,2.06-32,6.94-47.51,10.87-4.11,1.04-4.16.63-3.77,6.91,1.26,20.09,1.99,44.9,3.09,64.72.09,1.57,1.28,9.99,2.46,10.7,6.63,3.97,1.88,9.41,8.66,14.31"/>
    <path class="cls-14" d="M124.62,122.52c3.88,1.81,9.92,6.43,13.93,7.91"/>
    <path class="cls-3" d="M140.88,135.92c-.29-1.19.08-1.98,0-3.17"/>
    <path class="cls-2" d="M11.64,230.22c7.47.17,135.3,10.39,142.69,10.79"/>
    <path class="cls-2" d="M61.86,65.72c-.74,5.95,1.07,11.21,1.04,17.32,0,0,.02.16.02.16l.64,4.27c2.74.43,5.22.2,5.32-3.29-1-7-1.79-10.84-2.29-17.34,2-1.5,7.2-1.38,8.7-2.88,6.66-8.9-19.64-3.47-21.8-1.53"/>
    <path class="cls-12" d="M164.12,120.42c-1.37-1.89-146.68,12.2-151.33,11.77"/>
    <path class="cls-14" d="M63.47,128.88c-6.49,2.4.64,4.47,6.64,8.33"/>
    <path class="cls-14" d="M70.67,137.2c0-4.66.72-7.3.19-9.74"/>
    <path class="cls-2" d="M57.88,88.68c-4.07.84-8.57,1.34-13.07,1.84-.5,0-.5-.5-1.22-.96l-.53-18.99c-.28-5.64-1.41-7.55,5.5-7.5.69.07.99.44,1,1.13.31,6.81.13,13.64.65,20.43,1.59-.34,7.77-1.06,9.39-1.25l-1.72,5.31Z"/>
    <path class="cls-2" d="M173.2,113.87c-5.34-1.96-16.13-4.1-21.6-5.65"/>
    <path class="cls-14" d="M96.79,125.35c-8.33.71-13.59,1.22-21.21,1.74.15,3.46.46,6.7.39,10.09"/>
    <path class="cls-14" d="M108.36,138.05c3.89-4.22,9.48-7.92,13.88-11.83,4.31,2.34,8.67,4.7,13.1,7.1.07.8.14,1.63.21,2.48"/>
    <path class="cls-2" d="M116.07,51.23c0,.83-.18-.48-.18.35-.05-.03-.09-.06-.14-.1-.94,4.71-2.24,9.5-2.61,14.34"/>
    <path class="cls-2" d="M121.27,71.82c-3.48.57-6.91,1.15-10.41,1.67-.32,1.28-.38,2.36-.57,3.7-.14.96-.61,1.14-.39,1.5"/>
    <path class="cls-2" d="M154.76,106.06c4.18,2.84,14.14,3.6,18.77,5.48"/>
    <path class="cls-2" d="M169.31,19.9c-3.6-1.23-7.72-3.52-12.87-.87"/>
    <path class="cls-14" d="M81.04,126.8c.73,1,3.41,2.13,2,3.5-2.58,2.29-4.79,4.96-7.37,7.25"/>
    <path class="cls-14" d="M45.67,142.58c1.13-2.54,5.52-6.44,6.93-9.05"/>
    <path class="cls-14" d="M52.74,133.39c3.22,2.52,8.88,4.81,11.9,8.37"/>
    <path class="cls-14" d="M107.85,124.55c-.15,1.74-.3,3.49-.45,5.24"/>
    <path class="cls-14" d="M107.65,129.54c2.18-1.35,4.1-3.01,5.94-4.79-.07-.16-.14-.31-.2-.47"/>
    <path class="cls-2" d="M115.98,49.91c1.19,3.33,1.84,11.42,3.19,14.89-2.31.47-4.42.9-6.52,1.33"/>
    <path class="cls-2" d="M90.38,83.42c1.6.47,9.67-.06,9.41-2.64"/>
    <path class="cls-14" d="M163.99,135.46c-22.8-.13-54.91,3.79-133.64,8.22"/>
    <g>
      <path class="cls-14" d="M81.18,139.88c.5-.16.86-1.07,1.26-1.47,2.3-2.58,5.42-6.25,5.86-7.33"/>
      <path class="cls-14" d="M88.56,130.63l10.06,8.27"/>
    </g>
    <path class="cls-16" d="M61.58,65.82c-1.96.16-6.26,1.83-7.32.59"/>
    <path class="cls-2" d="M13.1,55.06c92.83-21.25,75.37-19.12,105.83-25.69,23-6.22,34.17-9.41,33.39-5.64-3.97,19.1-.33,52.38-.21,78.68-1.48,1.68-1.47,1.85-6.54,2.7-.95.16-1.6.29-2.71.51l-22.78,2.34c-25.14,1.75-50.18,4.74-75.22,7.59-9.9,1.11-19.82,2.05-29.74,3"/>
    <path class="cls-2" d="M8.83,240.99h-2.5"/>
    <path class="cls-8" d="M174.55,111.81c-.81,3.04-.62,2.34-.81,2.75"/>
    <path class="cls-9" d="M166.32,154.49c-1.17,4.77-.01,10.05-.33,15.11,2.18.21,4.69.46,7.3.71.55-4.3.04-8.63.3-12.95-.09-2.83-4.87-1.97-7.11-2.88"/>
    <path class="cls-2" d="M88.28,58.2c-8.43.51-4.69,4.02-5.26,10.25.01,1.01.53,1.36,1.39,1.37,7.92,1.26,14.62-10.99,4-11.61"/>
    <path class="cls-2" d="M37.11,56.88c-.88.22-2.82.94-3.79.68-.19,9.21,1.52,18.43.61,27.63-.81,4.57-6.34,7.28-10.6,6.13-1.52-.55-1.97-1.17-2-2.75-.24-9.4-.39-18.58-.83-28.02-1.52.09-3.77-.01-3.78,2.03-.04,5.28-.23,10.59-.12,15.87.47,5.35-.26,15.44,6.6,16,5.31.65,12.16-1.78,14-8.5,2.06-9.5.61-19.63.11-29.06"/>
    <path class="cls-2" d="M115.02,48.21c-2.62,4.72-3.98,12.57-4.5,17.99-.34,3.88,9.91.91,11.41-.87-1.72-5.75-3.39-11.32-5.07-16.93-.63-.07-1.17-.13-1.72-.19"/>
    <path class="cls-2" d="M138.38,36.34c-1.84.99-5.68.78-5.39,3.62.95,12.84,1.77,25.73,2.78,38.55,1.93.5,7.62.07,7.7-2.56-.39-6.71-.97-13.41-1.47-20.12-.4-5.88-.98-11.74-1.35-17.62-.09-1.84-.4-1.93-2.15-1.87"/>
    <path class="cls-27" d="M180.94,158.42c-1.8,4.25.17,8.79-.37,13.19,2.88.17,5.54.32,8.33.49-.04-4.33-.08-8.57-.12-12.92-2.58-.26-5.09-.5-7.59-.75"/>
    <path class="cls-24" d="M55.18,64.97l8.56-.71c-.38,1.19-.3,3.51,1.4,20.85.02.24,1.9.33,1.9,0-.07-6.45-1.72-13.85-1.79-20.45,0-.44.3-.83.73-.93,2.72-.66,7.57-1.09,7.76-2.76.22-1.94-19.73,3.1-18.66,1.83"/>
    <path class="cls-28" d="M24.57,129.76c-.31-.15-.34-.22-.54-.34.03.03.28.03.4.1"/>
    <path class="cls-25" d="M27.33,225.13c.51-16.49-.79-41.88-.42-67.07.01-.87.7-3.25,1.57-3.29l120.42-6.27-.63,82.67c.77,1.72-9.26.05-10.63.08-36.84-2.37-73.81-3.69-110.57-6.75"/>
    <path class="cls-13" d="M11.38,235.2c-1.05-10.31,3.15-7.79,9-9.89-.8-22.35,1.26-48.98-.63-69.46"/>
    <path class="cls-14" d="M164.51,135.31c.78,12.68-2.98,9.24-10.69,13.43-1.83,28.08-1.45,65.05-.61,92.43"/>
    <path class="cls-10" d="M165.47,253.59c.61-8.7-4.21-10.55-10.24-13.42"/>
    <path class="cls-2" d="M88.87,74.57c.07-1.62,1.13,8.28,1.22,9.04"/>
    <path class="cls-17" d="M197.05,163.32c-.85,3.44,0,7.24-.24,10.89,1.57.15,3.38.33,5.26.51.39-3.1.03-6.22.21-9.33-.07-2.04-3.51-1.42-5.12-2.08"/>
    <path class="cls-9" d="M166.32,182.04c-1.17,4.77-.01,10.05-.33,15.11,2.18.21,4.69.46,7.3.71.55-4.3.04-8.63.3-12.95-.09-2.83-4.87-1.97-7.11-2.88"/>
    <path class="cls-6" d="M183.02,185.98c-1.09,4.24.14,8.79-.18,13.18,1.78.18,3.41.34,5.14.52-.04-4.33-.08-8.57-.12-12.92-1.59-.27-3.14-.52-4.68-.78"/>
    <path class="cls-17" d="M196.99,188.87c-.85,3.44,0,7.24-.24,10.89,1.57.15,3.38.33,5.26.51.39-3.1.03-6.22.21-9.33-.07-2.04-3.51-1.42-5.12-2.08"/>
    <path class="cls-9" d="M167.17,209.91c-1.17,4.77-.01,10.05-.33,15.11,2.18.21,4.69.46,7.3.71.55-4.3.04-8.63.3-12.95-.09-2.83-4.87-1.97-7.11-2.88"/>
    <path class="cls-26" d="M181.51,213.01c-1.53,4.24.16,8.79-.3,13.18,2.46.17,4.73.33,7.12.5l-.12-12.92c-2.2-.26-4.34-.51-6.48-.76"/>
    <path class="cls-17" d="M196.3,215.09c-.85,3.44,0,7.24-.24,10.89,1.57.15,3.38.33,5.26.51.39-3.1.03-6.22.21-9.33-.07-2.04-3.51-1.42-5.12-2.08"/>
    <text class="cls-29" transform="translate(17.43 112.49) rotate(-8.12) scale(.79 1)"><tspan x="0" y="0">M</tspan></text>
    <text class="cls-29" transform="translate(26.84 111.15) rotate(-8.12) scale(.79 1)"><tspan x="0" y="0">u</tspan></text>
    <text class="cls-29" transform="translate(32.8 110.29) rotate(-8.12) scale(.79 1)"><tspan x="0" y="0">l</tspan></text>
    <text class="cls-29" transform="translate(35.83 109.86) rotate(-8.12) scale(.79 1)"><tspan x="0" y="0">t</tspan></text>
    <text class="cls-29" transform="translate(39.52 109.34) rotate(-8.12) scale(.79 1)"><tspan x="0" y="0">i</tspan></text>
    <text class="cls-29" transform="translate(42.57 108.9) rotate(-8.12) scale(.79 1)"><tspan x="0" y="0">p</tspan></text>
    <text class="cls-29" transform="translate(48.49 108.06) rotate(-8.12) scale(.79 1)"><tspan x="0" y="0">l</tspan></text>
    <text class="cls-29" transform="translate(51.53 107.62) rotate(-8.12) scale(.79 1)"><tspan x="0" y="0">y</tspan></text>
    <text class="cls-29" transform="translate(56.53 106.91) rotate(-8.12) scale(.79 1)"><tspan x="0" y="0"> </tspan></text>
    <text class="cls-29" transform="translate(59.19 106.53) rotate(-8.12) scale(.79 1)"><tspan x="0" y="0">y</tspan></text>
    <text class="cls-29" transform="translate(64.2 105.81) rotate(-8.12) scale(.79 1)"><tspan x="0" y="0">o</tspan></text>
    <text class="cls-29" transform="translate(69.76 105.02) rotate(-8.12) scale(.79 1)"><tspan x="0" y="0">u</tspan></text>
    <text class="cls-29" transform="translate(75.71 104.17) rotate(-8.12) scale(.79 1)"><tspan x="0" y="0">r</tspan></text>
    <text class="cls-29" transform="translate(79.94 103.57) rotate(-8.12) scale(.79 1)"><tspan x="0" y="0"> </tspan></text>
    <text class="cls-29" transform="translate(82.61 103.19) rotate(-8.12) scale(.79 1)"><tspan x="0" y="0">i</tspan></text>
    <text class="cls-29" transform="translate(85.65 102.75) rotate(-8.12) scale(.79 1)"><tspan x="0" y="0">n</tspan></text>
    <text class="cls-29" transform="translate(91.69 101.89) rotate(-8.12) scale(.79 1)"><tspan x="0" y="0">t</tspan></text>
    <text class="cls-29" transform="translate(95.38 101.37) rotate(-8.12) scale(.79 1)"><tspan x="0" y="0">e</tspan></text>
    <text class="cls-29" transform="translate(100.38 100.65) rotate(-8.12) scale(.79 1)"><tspan x="0" y="0">l</tspan></text>
    <text class="cls-29" transform="translate(103.41 100.22) rotate(-8.12) scale(.79 1)"><tspan x="0" y="0">l</tspan></text>
    <text class="cls-29" transform="translate(106.45 99.79) rotate(-8.12) scale(.79 1)"><tspan x="0" y="0">i</tspan></text>
    <text class="cls-29" transform="translate(109.49 99.35) rotate(-8.12) scale(.79 1)"><tspan x="0" y="0">g</tspan></text>
    <text class="cls-29" transform="translate(114.86 98.59) rotate(-8.12) scale(.79 1)"><tspan x="0" y="0">e</tspan></text>
    <text class="cls-29" transform="translate(119.83 97.88) rotate(-8.12) scale(.79 1)"><tspan x="0" y="0">n</tspan></text>
    <text class="cls-29" transform="translate(125.9 97.01) rotate(-8.12) scale(.79 1)"><tspan x="0" y="0">c</tspan></text>
    <text class="cls-29" transform="translate(130.59 96.34) rotate(-8.12) scale(.79 1)"><tspan x="0" y="0">e</tspan></text>
    <text class="cls-29" transform="translate(135.56 95.63) rotate(-8.12) scale(.79 1)"><tspan x="0" y="0">!</tspan></text>
    <text class="cls-29" transform="translate(139.14 95.12) rotate(-8.12) scale(.79 1)"><tspan x="0" y="0">!</tspan></text>
    <line class="cls-14" x1="164.55" y1="135.18" x2="212.91" y2="154.88"/>
    <path class="cls-21" d="M164.62,119.56l9.62-4.85-9.62,4.85Z"/>
    <path class="cls-1" d="M165.83,117.92c1.45.95-1.64,1.62-2.5,2.76"/>
    <path class="cls-14" d="M13.07,132.76c1.46,2.38,1.69,5.79,2.26,6.42"/>
    <path class="cls-14" d="M15.73,138.95c1.87-1.76,13.62-7.33,6-7.32"/>
    <line class="cls-14" x1="164.72" y1="117.29" x2="6.98" y2="130.84"/>
    <g>
      <path class="cls-14" d="M92.83,128.45c1.3.65,6.03,6.84,7.54,7.6"/>
      <path class="cls-14" d="M105.26,129.86c.28-2.11.05-3.66.24-5.23"/>
      <line class="cls-14" x1="92.83" y1="128.17" x2="95.38" y2="125.63"/>
      <line class="cls-14" x1="100.32" y1="135.79" x2="104.98" y2="130"/>
    </g>
    <g>
      <path class="cls-22" d="M47.75,134.13c-1.15.66-5.25,6.62-6.59,7.39"/>
      <path class="cls-22" d="M36.62,135.86c-.31-1.98-.14-3.44-.34-4.91"/>
      <line class="cls-22" x1="47.74" y1="133.87" x2="42.5" y2="130.15"/>
      <line class="cls-22" x1="41.21" y1="141.28" x2="36.88" y2="135.98"/>
    </g>
    <path class="cls-23" d="M36.81,142.66c-3.27-2.7-7.73-4.17-11.32-6.59-2.85,2.19-3.25,2.22-6.18,4.47.12.47-2.37,2.74-2.33,3.38"/>
    <path class="cls-19" d="M33.15,135.33c-.28-1.86-.05-3.22-.24-4.6"/>
    <line class="cls-14" x1="173.66" y1="113.3" x2="199.16" y2="148.12"/>
    <line class="cls-14" x1="168.18" y1="117.34" x2="193.33" y2="146.19"/>
    <line class="cls-14" x1="174.58" y1="43.18" x2="201.42" y2="149.06"/>
    <line class="cls-14" x1="172.53" y1="23.56" x2="204.7" y2="150.95"/>
    <line class="cls-14" x1="179.23" y1="130.65" x2="179.48" y2="139.93"/>
    <line class="cls-20" x1="173.45" y1="51.84" x2="179.46" y2="120.82"/>
    <line class="cls-14" x1="182.37" y1="134.66" x2="183.14" y2="141.71"/>
    <line class="cls-20" x1="173.45" y1="28.87" x2="182.87" y2="125.62"/>
    <line class="cls-14" x1="168.56" y1="117.34" x2="168.76" y2="136.97"/>
    <line class="cls-14" x1="164.76" y1="118.38" x2="164.42" y2="128.26"/>
    <path class="cls-7" d="M138.59,130.03c8.06-6.57,10.6-9.34,10.5-9.2"/>
    <g>
      <path class="cls-15" d="M140.96,133.52c.66-.15,1.12-.99,1.64-1.35,3.01-2.38,7.1-5.76,7.67-6.75"/>
      <path class="cls-15" d="M150.62,125l13.16,7.61"/>
    </g>
    <line class="cls-14" x1="32.6" y1="135.72" x2="32.6" y2="135.86"/>
    <line class="cls-14" x1="32.55" y1="135.96" x2="26.48" y2="131.36"/>
    <path class="cls-4" d="M164.9,118.76c-.84,1.2.31,11.24-1.69,9.98-3.43-2.39-7.3-5.14-10.73-7.53"/>
    <path class="cls-18" d="M84.61,68.02c8.31-.41,10.75-9.52-.38-8.28"/>
  </g>
</svg>