<?xml version="1.0" encoding="UTF-8"?>
<svg id="svg1" xmlns="http://www.w3.org/2000/svg" viewBox="0 0 241.37 156.32">
  <path d="M178.96,113.47c-.94.19-2.03.29-2.43.22s-.49.02-.19.2-.52.79-1.82,1.37c-1.3.58-2.4,1.38-2.46,1.79s-.17.94-.26,1.18c-.08.24-.09,1-.01,1.69.08.69-.13,1.15-.47,1.03-.34-.12-.64.74-.67,1.92-.03,1.18.25,2.15.63,2.15.66,0,.22,2.34-.73,3.82-.31.48-.17.59.46.36.66-.24.86,0,.74.91-.09.69-.12,1.8-.06,2.47h0c.09,1.02.28,1.13,1.13.66.66-.36.78-.74.34-1.06-.39-.29-.55-3.64-.38-7.82l.3-7.32,2.09-1.02c4.5-2.19,5.34-2.29,7.32-.84,3.71,2.7,5.11,5.67,5.67,12.04.15,1.73.51,3.27.79,3.42,1.45.8-.44-10.37-2.15-12.66-2.33-3.14-5.53-4.99-7.84-4.51Z"/>
  <path d="M172.65,148.91c-.13.66.19,1.36.73,1.56.53.2,1,.37,1.04.38.04,0-.29-.7-.73-1.56-.78-1.52-.81-1.53-1.04-.38Z"/>
  <path d="M182.39,126.99c-.78-.35-2.09-.63-2.91-.61-1.06.02-.75.21,1.05.62h0c3.3.77,3.57.76,1.86-.01Z"/>
  <path d="M187.64,140.74c-1.25-.42-13.78-.73-13.1-.32.3.18,2.34.38,4.54.46,6.81.23,9.52.19,8.56-.13Z"/>
  <path d="M213.98,120.65c-.36,0-.46.59-.22,1.31.36,1.08.19,1.32-.93,1.34-1.27.03-1.27.06.09.41l1.46.38-1.46.04c-1.07.03-1.2.13-.5.4.6.23.87,1,.73,2.07l-.23,1.71-3.41-.03c-1.88-.01-3.25.13-3.05.33h0c.46.45,7.56.47,7.56.03,0-.18.33-1.51.73-2.95.75-2.69.38-5.03-.78-5.03Z"/>
  <path d="M208.11,107.62s.08.07.08.12c0,.12-.16.22-.36.22s-.36-.1-.36-.22c0-.09.11-.15.24-.19-1.37-.14-2.42.34-2.42,1.7,0,.25-.41.47-.91.49-.7.03-.69.09.03.26.77.19.77.35,0,.92-.77.57-.77.64.02.35.74-.27.87-.01.57,1.12-.21.81-.54,3.93-.74,6.94h0c-.19,3.01-.18,5.22.03,4.92.21-.3.61-.47.87-.37.27.1.51-1.13.55-2.73.24-10.39.34-11.31,1.34-12.13,1.49-1.22,5.15.88,5.8,3.32.25.93.73,1.8,1.07,1.92.34.13.32-.8-.05-2.05-.7-2.36-3.53-4.2-5.75-4.59Z"/>
  <path d="M205.19,126.67l-.1-1.86-.49,1.53c-.27.84-.37,1.68-.23,1.86.61.76.9.21.81-1.53Z"/>
  <path d="M131.4,154.86c-4.1.05-4.19.07-1.46.37,1.6.17,3.08.34,3.28.37.2.03.86-.14,1.46-.37.76-.3-.22-.41-3.28-.37Z"/>
  <path d="M177.07,145.21l3.09-.19-2.53-.33c-2.51-.33-3.66-.2-3.66.4h0c0,.17,1.39.23,3.09.12Z"/>
  <path d="M146.77,127.76c-3.4-1.79-3.21-1.81-9.42.65-2.87,1.14-5.75,2.27-6.4,2.52s-2.12.83-3.28,1.29-3.16,1.25-4.46,1.75l-2.36.91v4.71c0,3.19-.27,4.71-.83,4.71s-.58.19-.14.55c1,.8,1.25,6.18.27,5.82-.43-.16-.78-.08-.78.17s.33.46.73.46c.42,0,.73,1.39.73,3.28h0c0,2.03.3,3.28.77,3.28.51,0,.75-1.84.71-5.36-.2-15.96-.14-16.76,1.23-17.49,1.78-.94,12.3-5.21,16.52-6.69l3.45-1.22,1.9.85c4.24,1.9,5.54,5.75,4.64,13.71-.44,3.89-.14,8.75.54,8.75.35,0,.65-1.82.68-4.05.03-2.23.09-6.34.14-9.15.1-5.88-.62-7.34-4.64-9.46Z"/>
  <path d="M150.9,154.79c.32,0,.5-.88.41-1.96-.2-2.36-.99-2.17-.99.25,0,.94.26,1.71.58,1.71Z"/>
  <path d="M174.6,146.62c-1.42-.23-2.11-2.23-1.69-4.85.17-1.04-.01-1.86-.41-1.86s-.74.44-.77.98c-.13,1.93.2,5.35.53,5.68.19.18,1.06.31,1.94.28,1.11-.04,1.23-.11.39-.24Z"/>
  <path d="M148.11,153.63c-.62,0-.96.25-.77.55.41.64-.76,1.31-2.84,1.61h0c-1.06.16-.89.23.65.27,1.23.03,2.51-.27,3.07-.72,1.3-1.03,1.26-1.71-.11-1.71Z"/>
  <path d="M52.79,106.55c.49-.29.25-.36-.73-.2-.8.13-3.09.35-5.1.47-3.51.22-2.28-.16,2.51-.78.58-.07,1.17-.35,1.31-.6.18-.32-.61-.35-2.51-.08-3.65.51-6.4.52-4.24,0,1.29-.3,1.23-.36-.55-.57-1.09-.13-1.98-.05-1.98.17s-1.06.32-2.37.22-1.71-.08-.91.05c1.33.21,1.3.25-.36.58-1.21.24-.75.27,1.38.1,2.75-.22,3.14-.15,2.75.45-.25.39-.11.71.3.71s.55.2.3.44h0c-.83.81,8.76-.1,10.19-.97Z"/>
  <path d="M186.91,70.93c-1.91-.26-3.47.85-3.47,2.48h0c0,.23,1.06.41,2.37.4,1.65,0,2.06-.12,1.35-.39-1.33-.51-.43-1.96,1.01-1.63,1.19.27,2.89-1.22,2.18-1.92-.56-.55-3.05-.56-3.6-.02-.23.23.16.62.87.88,1.06.39.93.42-.7.2ZM185.38,72.36c-.27.16-.49.03-.49-.29s.22-.45.49-.29c.27.16.27.42,0,.58Z"/>
  <path d="M192.18,8.38c-3.16.26-5.93,1.09-3.64,1.09.45,0,.61.2.36.44h0c-.84.82,13.18.55,14.56-.28.99-.59,1.03-.82.23-1.28-1-.59-8.77-1.14-8.2-.59.18.17-1.31.45-3.31.62ZM191.09,9.47c-.2,0-.36-.1-.36-.22s.16-.22.36-.22.36.1.36.22-.16.22-.36.22ZM199.09,9.04c.25-.24,1.09-.44,1.86-.44s1.41.2,1.41.44-.84.44-1.86.44-1.67-.19-1.41-.44ZM198,9.06c0,.23-1.36.41-3.03.41-3.59,0-3.48-.22.3-.57,1.51-.14,2.73-.07,2.73.16Z"/>
  <path d="M207.34,35.3c.38,0,.91-.34,1.17-.75.68-1.06-1.46-1.92-3.58-1.44-1.01.23-1.94.21-2.39-.06-.99-.59-3.04,1.17-2.59,2.22.24.56.84.72,2.09.58,1-.11,1.58-.42,1.35-.7-.23-.27.06-.15.63.27,1.09.8,3.85,1.09,3.07.33-.25-.24-.14-.44.24-.44Z"/>
  <path d="M150.32,113.61l-1.82.29c-1,.16-2.13.46-2.51.67-1.11.62.48.43,2.51-.3l1.82-.66Z"/>
  <path d="M139.34,116.96c3.16-.86,5.57-1.68,5.35-1.81-.36-.22-3.62.58-11.46,2.81-5.96,1.7-13.1,4.14-13.1,4.49,0,.2,1.56-.17,3.46-.82,3.87-1.34,7.36-2.37,15.76-4.66Z"/>
  <path d="M74.57,139.9c1.57-.84,3.42-1.85,4.11-2.24,1.72-.99,12.8-5.35,16.12-6.35,1.49-.45,2.72-1.07,2.73-1.38,0-.32.32-.46.69-.32.82.3,4.42-.63,4.42-1.14,0-.2.41-.38.91-.4s2.38-.71,4.19-1.53c1.8-.83,4.67-1.94,6.37-2.47s3.09-1.1,3.09-1.27c0-.36-4.78,1.06-6.46,1.92-.65.34-1.68.75-2.28.91-1.86.52-3.92,1.31-6.67,2.58-1.45.67-2.92,1.16-3.26,1.1-.34-.07-1.8.42-3.24,1.08-1.44.66-2.94,1.2-3.34,1.2s-2.53.76-4.74,1.69c-2.21.93-4.36,1.77-4.79,1.86-2.09.45-17.64,9.01-17.64,9.71,0,.24,1.56-.44,3.46-1.5s4.74-2.62,6.32-3.45Z"/>
  <path d="M170.61,108.4c-1.09,0-9.01,2.11-9.01,2.4,0,.13.87.1,1.94-.06,2.26-.34,8.28-2.34,7.07-2.35Z"/>
  <path d="M178.55,107.04c1.51-.46,4.79-1.24,7.28-1.73s5.2-1.09,6.02-1.34c.82-.25,1.81-.41,2.18-.35.78.11,2.29-.21,6.51-1.38,1.6-.44,2.47-.82,1.93-.83s-2.01.25-3.28.59c-1.26.34-3.6.81-5.21,1.05s-4.55.78-6.55,1.21c-2,.43-5.03,1.07-6.73,1.42s-3.09.82-3.09,1.02-.59.38-1.32.38-1.95.31-2.73.68h0c-1.91.92.93.51,4.98-.72Z"/>
  <path d="M219.48,23.33c-1.4-.09-2.55,0-2.55.21h0c0,.21,1.31.38,2.91.38,2.4,0,2.91-.15,2.91-.85,0-1.06-.85-1.4-2.22-.88-.88.33-.84.4.22.41.7,0,1.27.21,1.27.45s-1.11.37-2.55.28Z"/>
  <path d="M196.76,60.4c-.23.22.04.31.6.2,3.58-.7,2.81-3.86-.94-3.85-8.54.03-11.58,2.93-3.29,3.14,2.23.06,3.86.28,3.63.5ZM197.76,58.21c.27.16.27.42,0,.58-.27.16-.49.03-.49-.29s.22-.45.49-.29ZM191.09,58.5c-.25.24-.76.44-1.13.44s-.68-.2-.68-.44.51-.44,1.13-.44.93.2.68.44ZM192.91,58.5c-.53,0-.75-.13-.49-.29.27-.16.7-.16.97,0,.27.16.05.29-.49.29ZM196.3,58.79c-.27.16-.49.03-.49-.29s.22-.45.49-.29.27.42,0,.58Z"/>
  <path d="M196.14,66.11c.62-1.48.27-1.64-2.81-1.3-2.8.32-3.68.83-3.06,1.81.77,1.2,5.32.81,5.87-.51ZM191.81,66.38c-.2,0-.36-.1-.36-.22s.16-.22.36-.22.36.1.36.22-.16.22-.36.22ZM194.36,65.94c-.35,0-.84-.2-1.09-.44-.25-.24.24-.44,1.09-.44s1.34.2,1.09.44-.74.44-1.09.44Z"/>
  <path d="M190.66,49.23c-3.02.17-3.96,1.42-1.98,2.61h0c1.06.64,1.42.65,3.81.1,1.84-.42,2.73-2.2,1.1-2.2-.42,0-.62-.15-.43-.34.19-.19-.94-.26-2.5-.17ZM190.72,50.86c0,.11-.33.19-.73.19s-.73-.21-.73-.46.33-.34.73-.19.73.36.73.46h0ZM191.81,50.62c-.2,0-.36-.1-.36-.22s.16-.22.36-.22.36.1.36.22-.16.22-.36.22Z"/>
  <path d="M198.06,48.87c-2.26,0-3.77,1.49-2.63,2.6.95.92,4.02.53,4.13-.52l.1-.98.31.96c.23.7.94,1.01,2.63,1.13h0c1.28.1,2.84.21,3.48.24,1.62.1,3.84-1.5,3.29-2.36-.37-.58-1.34-.68-5.12-.56-2.56.08-4.51,0-4.32-.18s-.66-.33-1.87-.33ZM198,51.06c-.4,0-.73-.2-.73-.44s.33-.44.73-.44.73.2.73.44-.33.44-.73.44ZM206.45,50.29c1.34,0,1.61.11.91.38h0c-1.29.49-2.81.49-2.81,0,0-.21.85-.38,1.9-.38ZM203.58,50.33c.27.16.27.42,0,.58-.27.16-.49.03-.49-.29s.22-.45.49-.29ZM201.64,50.4c.4.15.73.36.73.46h0c0,.11-.33.19-.73.19s-.73-.21-.73-.46.33-.34.73-.19Z"/>
  <path d="M239.33,34.26c-.4.15-1.02,0-1.37-.33-.45-.42-.64-.44-.65-.06,0,.39-.94.46-3.29.27-3.14-.26-3.28-.23-3.28.85,0,2.27.57,2.55,4.56,2.23,2.94-.23,3.55-.18,3.07.28-.42.41-.27.5.5.32.6-.14,1.56-.08,2.12.14h0c1.42.54,1.39.56,1.39-.9,0-1.03-.25-1.24-1.21-1.02-.77.18-1.03.11-.73-.19.67-.65-.23-1.92-1.13-1.59ZM233.24,35.26c-.85-.02-1.02-.12-.44-.26.53-.13,1.15-.11,1.4.03h0c.24.15-.19.25-.96.23ZM235.49,36.61c-.2,0-.36-.1-.36-.22s.16-.22.36-.22.36.1.36.22-.16.22-.36.22ZM237.31,36.61c-.4,0-.73-.2-.73-.44s.33-.44.73-.44.73.2.73.44-.33.44-.73.44ZM237.67,35.3c-.2,0-.36-.1-.36-.22s.16-.22.36-.22.36.1.36.22-.16.22-.36.22ZM239.25,36.47c-.27.16-.49.03-.49-.29s.22-.45.49-.29c.27.16.27.42,0,.58ZM241.31,36.61c.2,0,.36.1.36.22s-.16.22-.36.22-.36-.1-.36-.22.16-.22.36-.22Z"/>
  <path d="M215.8,30.01c.49.48,6.89.25,7.76-.27,1.11-.67-.45-1.31-3.86-1.58-3.43-.28-5.22.58-3.9,1.85ZM221.62,29c.62.14,1.13.34,1.13.43,0,.35-1.39.16-1.81-.26-.26-.25.04-.32.68-.17ZM217.98,28.73c.58,0,1.25.2,1.5.44s-.22.44-1.05.44-1.5-.2-1.5-.44.47-.44,1.05-.44Z"/>
  <path d="M222.75,26.33c0-.39-.66-.65-1.64-.65-1.27,0-1.4.1-.59.41.76.29.26.45-1.82.58-2.8.17-2.79.18.59.25,2.64.06,3.46-.08,3.46-.58Z"/>
  <path d="M219.47,19.32c-4.02,0-5.18,1.01-1.82,1.59,3.2.55,5.46.26,5.46-.71,0-.76-.49-.88-3.64-.88ZM217.66,19.97c-.77-.3-.34-.35,1.46-.15,1.4.15,2.68.35,2.85.44h0c.72.37-3.32.1-4.31-.29Z"/>
  <path d="M201.64,14.07c-.4.15-.73.06-.73-.19s-.82-.46-1.82-.46c-1.83,0-2.24.58-1.38,1.93h0c.56.88,1,.86,3.02-.16,1.63-.82,2.29-1.63.91-1.12Z"/>
  <path d="M194,15.38c0-.67-.56-.91-2.46-1.02-2.79-.16-4.14.4-3.47,1.45h0c.71,1.12,5.93.74,5.93-.43ZM191.09,15.52c-1.2,0-1.6-.11-.9-.22s1.69-.1,2.18.02c.49.12-.09.21-1.29.2Z"/>
  <path d="M194.06,35.63c.79-1.5-.3-2.46-2.39-2.12-2.45.39-3.7,1.51-2.6,2.31,1.18.86,4.51.73,4.99-.18ZM191.69,35.01c.27-.16.7-.16.97,0s.05.29-.49.29-.75-.13-.49-.29ZM190.36,35.74c.2,0,.36.1.36.22s-.16.22-.36.22-.36-.1-.36-.22.16-.22.36-.22Z"/>
  <path d="M190.5,43.27h0c4.04.3,10.31.17,9.93-.21-.22-.21,1.36-.35,3.51-.31,2.14.04,4.23.03,4.63-.02s1-.06,1.33-.03c.33.03.37-.16.09-.43-.28-.27-.1-.65.4-.83,2.46-.92-2.1-2.31-4.93-1.51-1.84.52-2.72.6-2.92.25-.15-.28-.76-.5-1.35-.5s-.87.2-.62.44c.28.28-1.52.44-4.91.44-7.26,0-11.51,2.24-5.14,2.71ZM206.66,40.8c.36-.13.84.05,1.07.41h0c.25.4,0,.65-.65.65-1.18,0-1.45-.68-.42-1.07ZM205.04,41.14c.27.16.27.42,0,.58-.27.16-.49.03-.49-.29s.22-.45.49-.29ZM203.46,41.43c.2,0,.36.1.36.22s-.16.22-.36.22-.36-.1-.36-.22.16-.22.36-.22ZM199.21,41.57c.27.16.27.42,0,.58-.27.16-.49.03-.49-.29s.22-.45.49-.29ZM195.09,41.43c1.6,0,2.91.15,2.91.33,0,.18-1.31.37-2.91.43s-2.91-.09-2.91-.33,1.31-.43,2.91-.43ZM190.36,41.71c.6-.14,1.09-.06,1.09.17s-.49.42-1.09.42-1.09-.08-1.09-.17.49-.29,1.09-.42Z"/>
  <path d="M201.52,83.18c.52.19.85.04.85-.39,0-.39-.3-.6-.67-.46-.37.14-.78.07-.91-.15-.13-.22-1.06-.47-2.06-.55-.4-.03-.73.01-1.03.08.17.02.3.1.3.2,0,.12-.16.22-.36.22s-.36-.1-.36-.22c0-.04.04-.07.07-.1-1.13.47-1.18,1.7.36,2.38h0c1.51.66,1.32.64,2.74.32.65-.15.92-.54.66-.95-.29-.46-.15-.59.41-.38ZM197.64,83.89c-.2,0-.36-.1-.36-.22s.16-.22.36-.22.36.1.36.22-.16.22-.36.22ZM198.73,82.79c0-.12.16-.22.36-.22s.36.1.36.22-.16.22-.36.22-.36-.1-.36-.22ZM199.46,84.32c-.53,0-.75-.13-.49-.29.27-.16.7-.16.97,0,.27.16.05.29-.49.29Z"/>
  <path d="M211.06,80.62c-.38.14-.69.05-.69-.21,0-.66-1.38-.57-2.6.16s-1.43,2.2-.31,1.78c.4-.15.73-.05.73.22h0c0,.8,1.52.59,2.53,0-.19,0-.35-.1-.35-.21s.16-.22.36-.22c.18,0,.32.08.34.19.27-.22.48-.48.51-.75.08-.67-.16-1.1-.53-.96ZM209.28,81.7c-.2,0-.36-.1-.36-.22s.16-.22.36-.22.36.1.36.22-.16.22-.36.22Z"/>
  <path d="M208.19,58.7c0-1.26-1.38-1.73-3.94-1.35-1.34.2-1.68.5-1.45,1.25.17.54.11.74-.13.44-.24-.3-.9-.55-1.46-.55-1.08,0-1.37.53-.55,1.02h0c1.55.93,7.52.28,7.52-.82ZM204.19,58.94c-.2,0-.36-.1-.36-.22s.16-.22.36-.22.36.1.36.22-.16.22-.36.22ZM206.37,58.66c-.6.14-1.09.06-1.09-.17s.49-.42,1.09-.42,1.09.08,1.09.17-.49.29-1.09.42Z"/>
  <path d="M66.98,132.03c1.6-.49,2.91-.99,2.91-1.11s-1.31.18-2.91.67-2.91.99-2.91,1.11,1.31-.18,2.91-.67Z"/>
  <path d="M226.84,122.93h0c.36.35.77.13,1.2-.65.72-1.3,4.48-1.7,6.21-.66.68.41.87.36.87-.22,0-.5-.59-.74-1.82-.74-1,0-1.82-.2-1.82-.45s.82-.36,1.82-.25c1.01.11,1.82,0,1.82-.27,0-.29-1.35-.39-3.7-.25-3.33.19-3.66.13-3.34-.6.19-.45.03-.81-.36-.81s-.63.54-.53,1.2-.06,1.65-.36,2.18c-.3.54-.3,1.22,0,1.51ZM228.94,120.22c.2,0,.36.1.36.22s-.16.22-.36.22-.36-.1-.36-.22.16-.22.36-.22Z"/>
  <path d="M227.06,115.51c.27,1.39.79-.19.79-2.37,0-1.48-.19-2.58-.42-2.44-.35.21-.6,3.57-.37,4.81Z"/>
  <path d="M240.55,94.8c-.35-.34-.05-.41.98-.22,1,.19,1.72.05,2.16-.43.35-.38.62,3.77.74,11.23,1.1-.02,2.21.29,3.1.98-.06-10.45-.03-23.69.08-34.79-1.35-.25-2.42-.71-3.21-1.3,0,.49,0,.99,0,1.49.08,12.08.06,12.23-1.46,12.46-1.49.23-1.48.25.23.66,1.05.25,1.4.5.85.62-.5.11-.7.42-.43.68.31.3-.07.38-1.05.23-.84-.13-1.64-.05-1.77.19s-2.25.46-4.7.49c-2.46.03-4.34.19-4.18.34.16.15-1.26.4-3.16.56-1.89.15-5.9.57-8.9.93-3,.36-6.61.75-8.01.88-1.4.13-4.33.43-6.5.66-4.65.51-7.18.48-4.05-.04,2.14-.35-3.88-.1-7.28.3-5.2.62-11.63,1-13.14.77-1.06-.16-1.78-.08-1.78.2,0,.26-.48.36-1.07.22-.59-.14-1-.47-.91-.74.09-.27-.63-.57-1.6-.65-1.38-.13-1.54-.25-.73-.58.79-.33.7-.39-.43-.26-.8.09-1.36.41-1.25.73.15.41-.67.52-3.06.41-4.14-.2-3.33.33,1.03.67,1.8.14,3.7.29,4.21.34.62.05.69.23.21.52-.49.29-1.67.27-3.57-.07-3.17-.57-4.22-.64-3.55-.24.94.56-1.51,1.38-4.71,1.58l-3.33.2-.13-4.42c-.12-4.06-.75-5.67-1.95-4.95-.26.16-.42,1.92-.35,3.92.12,3.54.07,3.64-1.61,3.73-.95.05-2.68.4-3.85.79-1.91.64-1.94.68-.3.41,5.26-.85,5.95-.78,4.54.47-.69.62-6.62,1.51-7.08,1.06-.19-.19-1.16-.43-2.16-.55-.99-.11-1.64-.04-1.42.17.21.21-.31.37-1.16.37s-1.34-.2-1.09-.44c.77-.75.02-.48-1.37.5-1.32.93-1.31.93.75.64,1.47-.21,1.77-.17,1.01.14-.59.23-.88.54-.65.68.62.37,2.87-.23,2.43-.66-.61-.59,2.55-.97,3.62-.44.58.29,1.85.37,3.06.19,1.14-.16,1.87-.17,1.63,0-1,.66-10.4,1.55-11.35,1.07-.9-.45-1.16-.31-.76.39.26.45-9.63,1.4-11.83,1.14-1.49-.18-1.62-.13-.73.29.89.41.72.47-.91.31-1.1-.11-2-.06-2,.09,0,.33-11.13,1.67-16.38,1.96l-3.64.2,3.28-.61c1.8-.34,4.18-.72,5.28-.86,2.27-.28,2.75-1.54.59-1.54-.78,0-1.62-.2-1.88-.46-.3-.3.26-.36,1.59-.19,1.43.18,1.73.14.97-.14-1.67-.62-7.92-1.1-6.55-.5.87.38.68.44-.88.29-1.09-.1-2.13.03-2.31.29-.18.27-.36.06-.39-.46-.03-.52.35-1.05.85-1.17.65-.16.68-.32.1-.58-1.52-.68-1.33-7.58.21-7.62,1.03-.03,1.08-.09.23-.28-.6-.14-1.31-.45-1.58-.7-1.54-1.42-2.78.76-2.54,4.47.28,4.44.11,4.86-1.96,4.89-1.31.02-1.21.12.62.62l2.18.6-2.18.09-2.18.09,2.18.36c1.7.28,1.33.33-1.65.2-2.23-.1-3.66,0-3.41.24.23.22-.41.41-1.41.41s-2.19.34-2.63.77c-.58.55-.92.61-1.19.22-.45-.65-8.18-.28-9.36.45-.49.3-.35.37.42.2,1.29-.27,1.64.87.53,1.72-.41.32-.36.62.14.81,1.12.42,4.52-.15,3.98-.67-.24-.23.09-.42.74-.42s.98.2.73.44c-.6.59.16.56,5.88-.24,10.7-1.49,9.39-.41-1.51,1.24-13.18,2-11.83,1.79-14.92,2.38-1.4.27-4.35.61-6.55.76-2.2.15-5.31.54-6.92.87-4.56.94-14.28,2.17-17.24,2.18-1.48,0-2.32.15-1.87.31.45.17-.47.44-2.04.6-1.57.16-6.14.77-10.14,1.34-4,.57-8.02,1.15-8.92,1.28-1.28.18-1.64.04-1.64-.65,0-.63.48-.88,1.69-.88,1.6,0,7.12-.94,10.32-1.75.8-.2,2.44-.58,3.64-.84l2.18-.47-5.1.42,2-.66c2.67-.88,2.53-1.11-.36-.56-4.32.81-8.02,1.28-8.82,1.12-.43-.09.74-.39,2.61-.67,3.11-.47,5.41-1.39,3.48-1.39-.45,0-.58-.23-.29-.51.37-.36.12-.41-.87-.16-.77.2-3.19.42-5.4.49-3.64.12-3.41.06,2.55-.73,3.6-.48,7.12-.78,7.82-.68.7.11,1.27.06,1.27-.1,0-.81,12.8-2.23,16.74-1.86q3.96.37.91.43c-1.74.03-3.09.27-3.09.54s.74.4,1.68.3c1.79-.21,2.41,1.22.87,1.98-.41.2-.08.26.73.14.8-.12,3.42-.44,5.82-.7,7.19-.8,7.4-.84,7.4-1.53,0-.37-.68-.69-1.52-.72-2.02-.07,2.14-.72,4.67-.73h1.82s-1.82.34-1.82.34l-1.82.35,1.82.09,1.82.09-1.82.38c-1.88.4,4.2.14,6.61-.28,1.4-.24,1.55-1.5.18-1.5-.53,0-1.6-.38-2.36-.84-1.18-.71-1.82-.77-4.19-.42-1.54.23-4.1.52-5.7.65-1.6.13-3.73.34-4.73.48l-1.82.25,1.82.33c1.69.31,1.65.33-.59.37-1.44.03-2.23-.13-1.96-.39.25-.24-.31-.46-1.23-.49s.99-.3,4.26-.61c7.05-.66,30.97-4.21,30.46-4.52-.2-.12-2.24.04-4.55.35-2.3.31-7.47,1.01-11.47,1.55-7.41,1.01-12.14,1.58-19.29,2.34-9.18.97-13.53,1.53-14.62,1.86-.63.19-5.05.75-9.83,1.24-4.77.49-9.41.98-10.31,1.09-1.52.19-1.64.05-1.64-1.96,0-1.44.31-2.17.91-2.17.62,0,.66-.11.12-.33-.44-.18-.87-1.65-.96-3.28l-.17-2.95,4.1-.1-2.18-.33c-2.11-.32-2.09-.34.73-.39,2.01-.04,2.6-.18,1.89-.45-.56-.21-1.38-.31-1.82-.22-1.98.43-2.94-.66-2.87-3.3.06-2.31-.11-2.65-1.29-2.65-1.38,0-1.53.44-1.68,4.59-.04,1.06-.38,1.32-1.87,1.41-4.33.25-6.33.97-2.18.78,3.7-.17,3.79-.15,1.09.21-1.6.21-4.88.3-7.28.2-3.09-.14-3.94-.07-2.91.22,1.39.4,1.4.42.06.45-2.43.05-.93.34,3.21.61,2.61.17,3.5.13,2.55-.13l-1.46-.39,1.46-.04c.8-.02,2.65-.15,4.12-.3,2.82-.28,3.84.98,1.34,1.67-.95.26-.95.3.04.33.93.03,1.16.82,1.3,4.54l.17,4.51-5.67.6c-3.12.33-6.16.65-6.76.72s-2.24.24-3.64.39c-3.94.41-5.1.68-5.1,1.17,0,.26.55.32,1.27.15,1.19-.29,14.55-1.87,18.23-2.16,3.82-.3.77.8-4.24,1.53-2.99.44-6.83,1-8.53,1.26-1.71.26-3.84.49-4.73.52-1.26.04-1.14.12.56.35,1.2.16,2.35.16,2.55,0,.67-.54,6.78-.98,6.24-.45-.27.27-1.61.49-2.96.49s-2.64.17-2.85.38c-.22.21-1.46.52-2.77.69-2.1.28-2.21.36-.93.68,1.36.34.47.66-1.33.47-.33-.03-.41.13-.17.36.24.23,1.65.34,3.15.24,2.26-.15,2.41-.12.9.2-3.75.8,3.38.5,9.9-.41,5.24-.73,9.55-.81,6.29-.11-.5.11-.76.34-.57.53.19.18-3.01.87-7.09,1.54-10.7,1.74-12.09,2.01-12.56,2.47-.55.54.57.51,3.08-.07,1.98-.46,10.44-1.89,15.37-2.6l2.4-.34-.22,1.78c-.22,1.76-.26,1.79-4.59,2.6-2.4.45-5.02.99-5.82,1.19-.8.2-3.4.74-5.77,1.19-2.37.45-4.46,1.09-4.63,1.41-.26.47-.01.49,1.25.08,2.18-.7,13.68-2.95,16.98-3.31,2.45-.27,2.73-.21,2.73.62,0,.51-.08.93-.18.93-.1,0-1.49.31-3.09.68l-2.91.67,2.98-.23,2.98-.23.12,14.74.12,14.74-6.02,3.41h0c-7.08,4.02-7,4.61.11.81,5.9-3.15,5.98-3.16,5.57-.62-.35,2.12.04,3.25,1.12,3.25.36,0,.68-.34.71-.77.03-.43.22-.53.41-.24.21.3,2.98-1.12,6.51-3.34,3.38-2.13,7.25-4.32,8.59-4.88,1.34-.55,2.85-1.41,3.35-1.91.66-.66.33-.57-1.23.3-1.18.67-2.35,1.09-2.6.94-.5-.3,3.28-2.36,4.33-2.36.36,0,2.93-1.23,5.72-2.74,7.86-4.25,14.1-6.78,15.16-6.14.25.15.46.06.46-.2,0-.63,9.04-4.49,10.5-4.49.63,0,1.14-.23,1.14-.51s.19-.4.42-.26c.23.14,1.06-.13,1.85-.6.78-.47,1.79-.72,2.24-.55.48.18.61.11.33-.17-.47-.45,2.14-1.26,3.41-1.05.33.05.42-.08.2-.29-.22-.21.43-.61,1.45-.89,1.45-.4,1.75-.39,1.38.05-.26.3,0,.21.58-.21,1.13-.83,9.3-4.27,10.14-4.27.28,0,1.72-.49,3.2-1.1,1.47-.6,3.27-1.09,4-1.09s1.58-.25,1.9-.55c.48-.45,4.59-.86,4.59-.46,0,.07-2.87.96-6.37,1.98-3.5,1.02-8.29,2.65-10.63,3.62-2.35.97-6.18,2.46-8.52,3.31s-5.01,1.94-5.93,2.43c-.92.49-2.98,1.38-4.58,1.99s-4.72,1.83-6.92,2.71-4.26,1.6-4.56,1.6c-1.03,0-8.89,4.03-16.27,8.34-4.06,2.37-7.6,4.17-7.89,4-.28-.17-.4-.08-.27.19.13.28-1.31,1.59-3.21,2.93-1.9,1.33-3.46,2.57-3.46,2.75s-.54.68-1.2,1.12c-.72.48-.87.8-.37.8.46,0,1.74-.86,2.84-1.91,1.2-1.14,2.44-1.84,3.09-1.75.68.1.74.06.17-.1-2.49-.7,25.64-16.15,28.77-15.8.9.1,1.64,0,1.64-.22s.38-.26.84-.09c.52.2.64.12.31-.2-.29-.28-.91-.38-1.39-.22-2.77.95,1.63-.88,15.52-6.48,8.61-3.47,17.94-6.96,20.75-7.76,2.8-.8,8.15-2.36,11.88-3.46,3.73-1.1,7.17-2.05,7.64-2.1.47-.05,5.49-1.37,11.15-2.93,5.66-1.56,14.17-3.76,18.93-4.9,4.75-1.14,8.89-2.16,9.19-2.26.3-.11.55-.02.55.19s-1.39.74-3.09,1.17c-1.7.44-5.71,1.54-8.92,2.45-3.2.91-8.28,2.27-11.28,3.03-7.03,1.77-7.48,1.89-22.56,6.37-19.16,5.69-29.75,9.3-31.95,10.89-.54.39-1.26.72-1.59.72s-2.83.98-5.55,2.18c-16.47,7.26-25.41,11.92-24.52,12.79.3.3.7.22,1.1-.21.72-.77,12.64-6.92,17-8.77,1.6-.68,4.69-2,6.86-2.93,2.17-.93,4.27-1.58,4.66-1.43.39.14.5.06.24-.19-.55-.54,9.22-4.71,14.44-6.16,2-.56,5.18-1.61,7.07-2.34,2.01-.77,3.82-1.19,4.37-1,.51.18.68.15.36-.05-.7-.46,11.17-4.09,26.41-8.09,6.21-1.63,14.39-3.83,18.2-4.9,3.8-1.07,8.39-2.3,10.19-2.73,1.8-.43,5.4-1.33,8.01-2.01,2.6-.67,6.37-1.55,8.37-1.94,4.38-.86,15.96-3.59,17.69-4.16,2.89-.96,29.21-5.87,29.74-5.55.14.08-2.94.91-6.85,1.84-3.91.93-7.43,1.88-7.83,2.1-.46.26-.2.29.73.08,4.82-1.11,26.95-5.48,27.6-5.45.43.02-1.34.48-3.95,1.04-2.6.55-11.45,2.73-19.65,4.84-8.21,2.11-16.89,4.29-19.29,4.84s-6.01,1.42-8.01,1.94c-2,.52-4.29,1.1-5.1,1.31-.8.2-5.32,1.47-10.03,2.82-4.72,1.35-8.82,2.45-9.1,2.45s-2,.47-3.8,1.04c-1.8.57-7.44,2.05-12.53,3.27-8.57,2.06-16.53,4.41-20.95,6.18-1,.4-3.13,1.13-4.73,1.62-7.21,2.21-19.36,6.71-25.72,9.53-2.47,1.09-4.71,1.99-4.96,1.99-1.28,0-15.47,8.04-22.64,12.83-2.09,1.4-4.07,2.45-4.39,2.33-.32-.12-.6.11-.63.52-.03.4-.3,1.13-.6,1.61-.3.48.86-.11,2.59-1.31,6.94-4.83,17.76-11.17,18.69-10.96.54.12.79.04.56-.18-1-.98,18.38-9.39,31.27-13.58,3.2-1.04,6.23-2.08,6.72-2.32.5-.23,1.41-.31,2.04-.16s.98.1.78-.09c-.38-.37,6.36-2.98,8.29-3.22.6-.07,1.42-.37,1.82-.66,1.01-.73,12.81-3.66,13.58-3.37.34.13.62.06.62-.14s1.23-.64,2.73-.96c1.5-.32,5.08-1.25,7.96-2.05,2.88-.81,5.7-1.36,6.28-1.23.58.13,2.14-.36,3.5-1.1,1.35-.74,2.88-1.25,3.41-1.12.53.12.76.03.51-.21-.24-.24-.34-.43-.21-.43s2-.39,4.15-.86c2.16-.47,4.25-.74,4.65-.59.4.15.51.06.25-.2-.59-.57,2.09-1.16,3.28-.72.49.18.65.12.38-.14-.58-.57,6.54-2.46,7.99-2.12.59.14.86.05.61-.19-.4-.39.52-.59,1.49-.32.21.06.62-.09.91-.34.77-.67,6.79-1.97,7.65-1.66.46.17.51.05.14-.3-.43-.42-.26-.5.62-.3.67.15,1.21.1,1.21-.11,0-.49,2.89-1.11,4.37-.94.6.07.84-.03.53-.21-.63-.38,6.79-2.4,7.65-2.08.3.11.55.01.55-.22,0-.44,4.27-1.45,5.3-1.26.31.06.81-.1,1.09-.36.84-.76,6.56-1.95,7.9-1.64.91.21,1.07.13.63-.3-.44-.43-.27-.51.65-.3.83.19,1.08.12.74-.21-.36-.35.08-.41,1.48-.2,1.41.21,1.84.15,1.47-.2ZM246.1,91.07c.03-.51.21-.61.44-.26.21.32.18.69-.06.84-.24.15-.41-.11-.38-.57ZM246.59,104.57c-.13,2.23-.24.4-.24-4.05s.11-6.28.24-4.05.13,5.87,0,8.1ZM246.55,73.5h0c.18.43.17,1.02-.03,1.31-.2.3-.35-.05-.34-.77s.18-.96.36-.54ZM246.53,75.71c.27.16.27.42,0,.58-.27.16-.49.03-.49-.29s.22-.45.49-.29ZM246.58,85.54c-.14,1.37-.26.14-.26-2.75,0-2.89.12-4.01.26-2.5h0c.14,1.51.14,3.88,0,5.25ZM246.53,88.85c.27.16.27.42,0,.58-.27.16-.49.03-.49-.29s.22-.45.49-.29ZM111.97,98.03c.53-.13,1.15-.11,1.4.03.24.15-.19.25-.96.23-.85-.02-1.02-.12-.44-.26ZM111.62,98.91c.27-.16.7-.16.97,0,.27.16.05.29-.49.29s-.75-.13-.49-.29ZM109.06,97.59c.53-.13,1.15-.11,1.4.03.24.15-.19.25-.96.23-.85-.02-1.02-.12-.44-.26ZM108.83,98.33c.2,0,.36.1.36.22s-.16.22-.36.22-.36-.1-.36-.22.16-.22.36-.22ZM107.26,99.35c.27-.16.7-.16.97,0,.27.16.05.29-.49.29s-.75-.13-.49-.29ZM84.81,102.27c-.2,0-.36-.1-.36-.22s.16-.22.36-.22.36.1.36.22-.16.22-.36.22ZM86.27,101.83c-.2,0-.36-.1-.36-.22s.16-.22.36-.22.36.1.36.22-.16.22-.36.22ZM88.09,99.86c0-.12.16-.22.36-.22s.36.1.36.22-.16.22-.36.22-.36-.1-.36-.22ZM88.82,100.96c-.53,0-.75-.13-.49-.29.27-.16.7-.16.97,0,.27.16.05.29-.49.29ZM33.13,106.21c.2,0,.36.1.36.22s-.16.22-.36.22-.36-.1-.36-.22.16-.22.36-.22ZM77.47,103.11c-.85-.02-1.02-.12-.44-.26.53-.13,1.15-.11,1.4.03h0c.24.15-.19.25-.96.23ZM78.38,101.98c.27.16.05.29-.49.29s-.75-.13-.49-.29c.27-.16.7-.16.97,0ZM76.69,101.1c.27-.16.7-.16.97,0,.27.16.05.29-.49.29s-.75-.13-.49-.29ZM69.89,101.83c1-.19,2.47-.35,3.28-.35,1.15,0,1.08.07-.36.35-1,.19-2.47.35-3.28.35-1.15,0-1.08-.07.36-.35ZM66.01,104.17c.27.16.05.29-.49.29s-.75-.13-.49-.29c.27-.16.7-.16.97,0ZM64.31,103.29c.27-.16.7-.16.97,0,.27.16.05.29-.49.29s-.75-.13-.49-.29ZM60.06,105.25c-1.2,0-1.6-.11-.9-.22.71-.11,1.69-.1,2.18.02h0c.49.12-.09.21-1.29.2ZM60.61,103.59c1.1,0,2,.07,2,.17,0,.42-2.05.58-2.98.23-.75-.28-.48-.39.98-.4ZM55.53,101.97c.71-.11,1.69-.1,2.18.02.49.12-.09.21-1.29.2-1.2,0-1.6-.11-.9-.22ZM34.47,108.54c.27-.16.7-.16.97,0,.27.16.05.29-.49.29s-.75-.13-.49-.29ZM31.9,108.97c.53-.13,1.15-.11,1.4.03h0c.24.15-.19.25-.96.23-.85-.02-1.02-.12-.44-.26ZM30.4,109.53h0c-.23.14-1.84.34-3.58.44l-3.15.18,3.28-.57c3.19-.55,4.32-.57,3.46-.05ZM26.58,107.06c3.69-.46,6.67-.44,3.64.03h0c-1.2.18-3.17.33-4.37.34-1.84,0-1.72-.06.73-.36ZM23.67,106.21c.2,0,.36.1.36.22s-.16.22-.36.22-.36-.1-.36-.22.16-.22.36-.22ZM25.49,108.4c1.2,0,2.18.08,2.18.17s-.98.26-2.18.36c-1.2.11-2.18.03-2.18-.17s.98-.36,2.18-.36ZM18.45,108.11c.27-.16.7-.16.97,0,.27.16.05.29-.49.29s-.75-.13-.49-.29ZM18.45,109.42c.27-.16.7-.16.97,0,.27.16.05.29-.49.29s-.75-.13-.49-.29ZM15.16,108.54c.53-.13,1.15-.11,1.4.03h0c.24.15-.19.25-.96.23-.85-.02-1.02-.12-.44-.26ZM14.39,109.86c.5-.12,1.32-.12,1.82,0,.5.12.09.22-.91.22s-1.41-.1-.91-.22ZM11.52,108.97c.53-.13,1.15-.11,1.4.03h0c.24.15-.19.25-.96.23-.85-.02-1.02-.12-.44-.26ZM9.84,110.59c.8-.21,1.95-.38,2.55-.38.69,0,.55.14-.36.38-.8.21-1.95.38-2.55.38-.69,0-.55-.14.36-.38ZM4.27,111.35c.37-.22,1.44-.33,2.39-.24,1.46.14,1.35.2-.67.4-1.45.14-2.13.08-1.72-.16ZM9.11,112.34c-.8.21-2.11.38-2.91.38h-1.46l1.46-.38c.8-.21,2.11-.38,2.91-.38h1.46l-1.46.38ZM18.94,110.98c-.6.2-2.73.49-4.73.63l-3.64.26,3.64-.63c4.23-.73,6.51-.85,4.73-.25ZM96.34,98.91c.27-.16.7-.16.97,0,.27.16.05.29-.49.29s-.75-.13-.49-.29ZM92.46,101.39c-.53,0-.75-.13-.49-.29.27-.16.7-.16.97,0,.27.16.05.29-.49.29ZM93.18,100.52c-.53,0-.75-.13-.49-.29.27-.16.7-.16.97,0,.27.16.05.29-.49.29ZM95.01,100.52c-.26-.25.04-.32.68-.17.62.14,1.13.34,1.13.43,0,.35-1.39.16-1.81-.26ZM97.19,100.08c-.2,0-.36-.1-.36-.22s.16-.22.36-.22.36.1.36.22-.16.22-.36.22ZM99.74,100.45c-1,0-1.41-.1-.91-.22.5-.12,1.32-.12,1.82,0,.5.12.09.22-.91.22ZM101.19,99.64c-.53,0-.75-.13-.49-.29.27-.16.7-.16.97,0,.27.16.05.29-.49.29ZM101.92,98.77c-.53,0-.75-.13-.49-.29.27-.16.7-.16.97,0,.27.16.05.29-.49.29ZM23.67,119.34c.2,0,.36.1.36.22s-.16.22-.36.22-.36-.1-.36-.22.16-.22.36-.22ZM21.63,89.26c.18.43.17,1.02-.03,1.31s-.35-.05-.34-.77c.01-.72.18-.96.36-.54ZM21.64,111.57c.17.66.17,1.75,0,2.41-.17.66-.3.12-.3-1.2s.14-1.87.3-1.2ZM21.18,109.02c.03-.51.21-.61.44-.26.21.32.18.69-.06.84s-.41-.11-.38-.57ZM21.61,106.94c-.27.16-.49.03-.49-.29s.22-.45.49-.29c.27.16.27.42,0,.58ZM21.61,116.42c.27.16.27.42,0,.58-.27.16-.49.03-.49-.29s.22-.45.49-.29ZM21.61,120.8c.27.16.27.42,0,.58-.27.16-.49.03-.49-.29s.22-.45.49-.29ZM21.61,122.55c.27.16.27.42,0,.58-.27.16-.49.03-.49-.29s.22-.45.49-.29ZM21.6,126.46c-.2.3-.35-.05-.34-.77.01-.72.18-.96.36-.54.18.43.17,1.02-.03,1.31ZM21.66,136.96c-.15,1.26-.27.23-.27-2.3s.12-3.56.27-2.3c.15,1.26.15,3.33,0,4.6ZM21.62,141.14c.21.32.18.69-.06.84-.24.15-.41-.11-.38-.57.03-.51.21-.61.44-.26ZM21.65,144.19c.16.79.16,1.97,0,2.63-.17.66-.3.01-.29-1.43,0-1.44.14-1.98.3-1.2ZM21.49,149.98c-.2,0-.36-.1-.36-.22s.16-.22.36-.22.36.1.36.22-.16.22-.36.22ZM21.49,101.83c-.2,0-.36-.1-.36-.22s.16-.22.36-.22.36.1.36.22-.16.22-.36.22ZM25.21,154.03c-2.23,1.77-2.65,1.94-2.59,1.09.02-.3,1.08-1.04,2.35-1.64l2.31-1.09-2.07,1.64ZM28.04,152.61c-.2,0-.36-.1-.36-.22s.16-.22.36-.22.36.1.36.22-.16.22-.36.22ZM81.73,124.55c-7.96,2.37-31.93,11.2-37.11,13.66-1.51.72-4.16,1.85-5.88,2.52-4.01,1.55-14.92,8.01-14.08,8.34.35.14.55.59.44,1.01-.28,1.08.13.98,4.02-.97,1.9-.96,3.67-1.65,3.92-1.53.26.11.32.09.14-.06-.18-.15,1.05-.95,2.73-1.77,8.18-4.01,13.7-7.48,8.86-5.57-.99.39-1.8.85-1.8,1.02s-1.56.97-3.46,1.78c-1.9.81-4.04,1.82-4.76,2.26-1.58.97-2.63,1.03-2.41.14.22-.91,2.69-1.92,4.05-1.66.83.16.88.11.2-.19-1.18-.51,1.12-1.83,5.47-3.15,1.7-.51,3.09-1.09,3.09-1.28,0-.58,6.59-3.18,7.34-2.9.39.14.61,0,.5-.32-.11-.33.37-.55,1.12-.51.73.04,1.14-.04.92-.18-.36-.22,7.83-3.61,10.49-4.35.6-.17,4.24-1.46,8.09-2.87,3.85-1.41,7.68-2.6,8.5-2.64.83-.04,1.38-.18,1.24-.32-.14-.14.78-.52,2.05-.86,1.27-.33,4.72-1.27,7.66-2.09,5.92-1.65,7.65-1.73,2.83-.12-1.7.56-4.44,1.58-6.09,2.25-1.65.67-3.21,1.1-3.46.95-.25-.15-.46-.06-.46.19s-1.88,1.13-4.19,1.93c-5.29,1.85-5.61,1.93-4.9,1.19.34-.36.31-.45-.08-.24-.36.2-.66.56-.66.8s-2.95,1.51-6.55,2.81c-11.22,4.06-12.93,4.73-16.5,6.42-1.91.9-3.79,1.64-4.17,1.64s-.91.39-1.16.88-.69.88-.96.88c-.27,0-1.48.54-2.68,1.2s-3.74,1.96-5.65,2.88c-1.9.92-3.29,1.84-3.08,2.05.53.51-3.42,2.85-4.55,2.7-.5-.07-.91.06-.91.29s-.66.51-1.46.63-1.46.06-1.46-.15-.51-.27-1.13-.12c-.62.14-.96.53-.75.86s-.02.55-.5.49c-.49-.06-.8.14-.7.44h0c.26.79-.51.68-1.04-.15-.24-.38-.1-1.37.32-2.19.42-.82.53-1.58.24-1.69-.5-.19-.47-2.82.04-3.04.14-.06,1.89-.87,3.89-1.81,2-.94,3.78-1.76,3.94-1.83.17-.07.1-.25-.15-.4-.25-.15-2.04.52-3.98,1.5l-3.52,1.77-.14-12.17c-.11-9.23.08-12.28.76-12.61,1.2-.59,14.71-3.24,16.89-3.32.95-.03,1.57-.15,1.38-.27-.35-.21,11.9-2.63,13.2-2.61.4,0-.75.41-2.55.9-4.96,1.35-6.85,2.01-7.13,2.51-.14.25,1,.08,2.53-.37,3.08-.91,5.17-1.42,8.97-2.21,1.4-.29,3.2-.69,4-.88,2.19-.53,7.62-1.48,19.17-3.32,5.82-.93,9.9-1.78,9.22-1.92-1.75-.37,5.04-1.18,9.46-1.13l3.64.04.05,4.49c.03,2.47-.24,4.49-.6,4.49-1.46,0-29.07,8.56-40.94,12.69-5.58,1.94-23.89,9.16-28.34,11.18-5.85,2.65,1.67.18,11.67-3.85,6.77-2.72,14.92-5.85,18.12-6.95,15.29-5.27,38.83-12.41,39.54-11.98.46.28-2.63,1.95-3.65,1.97-.58.01-9.35,2.46-17.14,4.78ZM29.37,147.68h0c.26.25-.35.78-1.34,1.17-1.42.56-1.81.59-1.81.12,0-.82,3.24-2.58,3.99-2.17.33.18.39.1.12-.18-.62-.65.71-1.2,1.36-.57.63.61-1.05,1.81-2.03,1.45-.42-.15-.55-.08-.29.18ZM98.58,107.49c-.85-.02-1.02-.12-.44-.26.53-.13,1.15-.11,1.4.03h0c.24.15-.19.25-.96.23ZM92.68,107.21c-4.33.66-9.67,1.52-11.87,1.89-2.2.38-6.12.97-8.71,1.31-4.66.62-9.16,1.45-28.56,5.26-5.49,1.08-10.56,2.03-11.28,2.12-.72.09-2.52.47-4.01.85h0q-3.08.79-3.7.42c-2.1-1.26,2.82-2.48,22.78-5.62,7.01-1.1,14.38-2.29,16.38-2.63,2-.34,4.95-.72,6.55-.84,1.6-.12,5.53-.64,8.73-1.15,13.08-2.08,20.18-3.09,20.85-2.96.39.08-2.84.68-7.16,1.35ZM86.27,109.27c-.8.21-1.95.38-2.55.38-.69,0-.55-.14.36-.38.8-.21,1.95-.38,2.55-.38.69,0,.55.14-.36.38ZM80.81,110.15c-.53,0-.75-.13-.49-.29.27-.16.7-.16.97,0,.27.16.05.29-.49.29ZM78.26,110.59c-.8.21-1.95.38-2.55.38-.69,0-.55-.14.36-.38.8-.21,1.95-.38,2.55-.38.69,0,.55.14-.36.38ZM72.8,111.46c-.53,0-.75-.13-.49-.29.27-.16.7-.16.97,0,.27.16.05.29-.49.29ZM69.89,111.83c-1,0-1.41-.1-.91-.22s1.32-.12,1.82,0,.09.22-.91.22ZM62.98,113.01c-4.78.98-6.83,1.29-6.13.91.66-.35,9.2-2.02,10.18-1.99.57.02-1.25.51-4.05,1.08ZM100.71,106.79c.27-.16.7-.16.97,0,.27.16.05.29-.49.29s-.75-.13-.49-.29ZM103.02,119.77c-.19.19-1.01.45-1.82.57-.81.13-1.31.08-1.11-.11.19-.19,1.01-.45,1.82-.57.81-.13,1.31-.08,1.11.11ZM102.22,105.74c-.85-.02-1.02-.12-.44-.26.53-.13,1.15-.11,1.4.03h0c.24.15-.19.25-.96.23ZM68.44,109.42c-1,.11-5.2.71-9.32,1.35-4.13.63-7.86,1.02-8.3.85-.51-.19-.59-.09-.22.27.45.44.13.5-1.34.28-1.2-.18-1.93-.11-1.93.18,0,.28-.61.36-1.46.2-.81-.15-1.46-.08-1.46.17,0,.38-3.95,1.11-6.19,1.14-.4,0-.89.11-1.09.23-.2.12-2.82.69-5.82,1.26h0c-3,.57-5.87,1.13-6.36,1.24-1.1.25-1.84-.78-1.52-2.12.24-1.01,3.39-1.6,20.62-3.87,2.4-.32,6.82-.96,9.83-1.43,3-.47,6.93-1.04,8.73-1.26s4.33-.61,5.62-.86,3.91-.55,5.82-.66c3.99-.23,5.22-.36,6.75-.72,3.28-.78,8.47-1.65,9.86-1.65.88,0,2.87-.27,4.42-.59,6.02-1.27,8.28-1.31,8.28-.18,0,.94-21.4,4.72-34.94,6.17ZM105.19,88.26c.2,0,.36.1.36.22s-.16.22-.36.22-.36-.1-.36-.22.16-.22.36-.22ZM105.37,95.58c-.15,1.15-.28.32-.28-1.85,0-2.17.12-3.11.27-2.09h0c.15,1.02.15,2.79,0,3.94ZM105.36,99.54h0c.15,1.03.15,2.61,0,3.5-.16.9-.28.05-.28-1.87,0-1.93.13-2.66.28-1.63ZM105.32,117.88c-.27.16-.49.03-.49-.29s.22-.45.49-.29c.27.16.27.42,0,.58ZM105.19,116.71c-.2,0-.36-.1-.36-.22s.16-.22.36-.22.36.1.36.22-.16.22-.36.22ZM105.36,113.99c-.15,1.14-.27.09-.27-2.31,0-2.41.12-3.34.27-2.06h0c.15,1.27.15,3.24,0,4.38ZM105.19,106.21c-.2,0-.36-.1-.36-.22s.16-.22.36-.22.36.1.36.22-.16.22-.36.22ZM105.19,105.33c-.2,0-.36-.1-.36-.22s.16-.22.36-.22.36.1.36.22-.16.22-.36.22ZM155.61,95.19c.42-.25,1.2-.38,1.72-.27.55.11.22.31-.77.46-1.21.19-1.49.13-.95-.19ZM157.24,98.55c0,.12-.16.22-.36.22s-.36-.1-.36-.22.16-.22.36-.22.36.1.36.22ZM114.85,101.73c1.31.02,2.21-.13,2.01-.32-.42-.41,3.21-1.07,3.83-.69.22.13-.23.24-1,.25-.99,0-1.13.11-.47.36.6.23-.4.54-2.8.87-2.05.28-3.99.42-4.31.3-.32-.12-1.52.08-2.66.43-1.14.36-1.59.65-.99.66,1.98,0,23.62-2.7,25.23-3.16.86-.25,1.93-.31,2.37-.15s.8.06.8-.22c0-.56-6.51-.24-8.68.44-.63.2-2.46.47-4.06.6s-2.29.14-1.53.01c1.11-.19,1.18-.31.36-.62-.73-.28-.41-.41,1.17-.47,3.26-.12,4.26-.22,5.46-.52,1.26-.31,24.58-2.91,26.17-2.92,3.28,0-1.38.84-8.2,1.49-8.45.8-9.96,1.04-9.96,1.56,0,.18,2.54-.03,5.64-.47,3.1-.44,6.46-.8,7.46-.79,1.8.02-19.35,3.37-34.21,5.43h0c-9.41,1.3-8.62,1.3-9.17-.03-.67-1.6,1.33-2.14,7.55-2.05ZM154.33,98.26c-1,0-1.41-.1-.91-.22.5-.12,1.32-.12,1.82,0,.5.12.09.22-.91.22ZM151.42,99.57c-1,0-1.41-.1-.91-.22s1.32-.12,1.82,0,.09.22-.91.22ZM139.35,101.36c-.85-.02-1.02-.12-.44-.26.53-.13,1.15-.11,1.4.03h0c.24.15-.19.25-.96.23ZM136.43,101.8c-.85-.02-1.02-.12-.44-.26.53-.13,1.15-.11,1.4.03.24.15-.19.25-.96.23ZM130.31,102.71c-2.49.48-4.4.48-2.55,0,.8-.21,2.11-.37,2.91-.36,1.17.01,1.1.08-.36.36ZM116.78,104.86c-.85-.02-1.02-.12-.44-.26.53-.13,1.15-.11,1.4.03h0c.24.15-.19.25-.96.23ZM113.14,105.3c-.85-.02-1.02-.12-.44-.26.53-.13,1.15-.11,1.4.03h0c.24.15-.19.25-.96.23ZM108.11,118.46c-.2,0-.36-.1-.36-.22s.16-.22.36-.22.36.1.36.22-.16.22-.36.22ZM107.01,116.76c0-.22,1.03-.61,2.29-.88,3.26-.68,3.47-.6.98.39h0c-2.4.95-3.28,1.08-3.28.48ZM110.29,119.78c-.2,0-.36-.1-.36-.22s.16-.22.36-.22.36.1.36.22-.16.22-.36.22ZM113.2,118.9c-.2,0-.36-.1-.36-.22s.16-.22.36-.22.36.1.36.22-.16.22-.36.22ZM114.66,118.46c-.2,0-.36-.1-.36-.22s.16-.22.36-.22.36.1.36.22-.16.22-.36.22ZM116.11,118.03c-.2,0-.36-.1-.36-.22s.16-.22.36-.22.36.1.36.22-.16.22-.36.22ZM117.57,117.59c-.2,0-.36-.1-.36-.22s.16-.22.36-.22.36.1.36.22-.16.22-.36.22ZM119.39,117.15c-.53,0-.75-.13-.49-.29.27-.16.7-.16.97,0,.27.16.05.29-.49.29ZM121.21,116.71c-.2,0-.36-.1-.36-.22s.16-.22.36-.22.36.1.36.22-.16.22-.36.22ZM123.97,116.03c-1.04.24-1.12.19-.41-.24.49-.3,1.08-.43,1.31-.3h0c.22.13-.18.38-.9.54ZM126.3,115.4c-.2,0-.36-.1-.36-.22s.16-.22.36-.22.36.1.36.22-.16.22-.36.22ZM127.76,114.96c-.2,0-.36-.1-.36-.22s.16-.22.36-.22.36.1.36.22-.16.22-.36.22ZM129.94,114.52c-.2,0-.36-.1-.36-.22s.16-.22.36-.22.36.1.36.22-.16.22-.36.22ZM131.4,114.09c-.2,0-.36-.1-.36-.22s.16-.22.36-.22.36.1.36.22-.16.22-.36.22ZM126.3,113.96c-2.4.59-5.35,1.34-6.55,1.66-1.2.33-3.77,1-5.7,1.5-4.21,1.08-6.1,1.17-3.03.14,2.88-.97,14.65-3.99,17.67-4.54,1.31-.24,4.56-1.02,7.21-1.73s5.13-1.24,5.49-1.17c.62.12-4.98,1.66-15.09,4.14ZM115.67,114.48c1.76-.47,3.33-.78,3.49-.68s-1.04.49-2.67.88c-4.11.99-4.72.84-.82-.2ZM122.2,112.98c3.1-.81,3.93-.8,1.55.02h0c-1,.34-2.31.62-2.91.62-.6,0,.01-.29,1.36-.64ZM125.94,112.12c0-.12.16-.22.36-.22s.36.1.36.22-.16.22-.36.22-.36-.1-.36-.22ZM128.12,111.68c0-.12.16-.22.36-.22s.36.1.36.22-.16.22-.36.22-.36-.1-.36-.22ZM129.82,111.17c.27-.16.7-.16.97,0,.27.16.05.29-.49.29s-.75-.13-.49-.29ZM131.76,110.8c0-.12.16-.22.36-.22s.36.1.36.22-.16.22-.36.22-.36-.1-.36-.22ZM133.46,110.29c.27-.16.7-.16.97,0,.27.16.05.29-.49.29s-.75-.13-.49-.29ZM135.4,109.93c0-.12.16-.22.36-.22s.36.1.36.22-.16.22-.36.22-.36-.1-.36-.22ZM136.86,109.49c0-.12.16-.22.36-.22s.36.1.36.22-.16.22-.36.22-.36-.1-.36-.22ZM139.04,109.05c0-.12.16-.22.36-.22s.36.1.36.22-.16.22-.36.22-.36-.1-.36-.22ZM133.22,113.65c-.53,0-.75-.13-.49-.29.27-.16.7-.16.97,0,.27.16.05.29-.49.29ZM135.04,113.21c-.2,0-.36-.1-.36-.22s.16-.22.36-.22.36.1.36.22-.16.22-.36.22ZM136.49,112.77c-.2,0-.36-.1-.36-.22s.16-.22.36-.22.36.1.36.22-.16.22-.36.22ZM137.95,112.34c-.2,0-.36-.1-.36-.22s.16-.22.36-.22.36.1.36.22-.16.22-.36.22ZM140.13,111.9c-.2,0-.36-.1-.36-.22s.16-.22.36-.22.36.1.36.22-.16.22-.36.22ZM141.59,111.46c-.2,0-.36-.1-.36-.22s.16-.22.36-.22.36.1.36.22-.16.22-.36.22ZM140.86,108.82c-.4,0-.24-.19.36-.42.6-.23,1.42-.42,1.82-.42s.24.19-.36.42c-.6.23-1.42.42-1.82.42ZM143.77,111.02c-.2,0-.36-.1-.36-.22s.16-.22.36-.22.36.1.36.22-.16.22-.36.22ZM145.23,110.59c-.2,0-.36-.1-.36-.22s.16-.22.36-.22.36.1.36.22-.16.22-.36.22ZM146.68,110.15c-.2,0-.36-.1-.36-.22s.16-.22.36-.22.36.1.36.22-.16.22-.36.22ZM147.41,108.63c-4.72,1.37-6.07,1.36-1.82,0,1.8-.58,3.77-1.05,4.37-1.05.6,0-.55.48-2.55,1.06h0ZM144.14,107.74c0-.12.16-.22.36-.22s.36.1.36.22-.16.22-.36.22-.36-.1-.36-.22ZM145.59,107.3c0-.12.16-.22.36-.22s.36.1.36.22-.16.22-.36.22-.36-.1-.36-.22ZM147.78,106.86c0-.12.16-.22.36-.22s.36.1.36.22-.16.22-.36.22-.36-.1-.36-.22ZM148.87,109.71c-.2,0-.36-.1-.36-.22s.16-.22.36-.22.36.1.36.22-.16.22-.36.22ZM150.32,109.27c-.2,0-.36-.1-.36-.22s.16-.22.36-.22.36.1.36.22-.16.22-.36.22ZM150.32,106.65c-.2,0-.36-.1-.36-.22s.16-.22.36-.22.36.1.36.22-.16.22-.36.22ZM147.39,106.05c-5.59,1.31-12.84,3.06-16.12,3.9-3.27.83-6.25,1.52-6.61,1.52s-4.37.89-8.91,1.97h0c-4.54,1.08-8.33,1.97-8.43,1.97-.97,0,.06-8.58,1.06-8.83.98-.25.93-.31-.28-.36l-1.46-.06,1.46-.38c2.26-.58,3.95-.56,2.55.04-.81.34-.37.39,1.72.18,3.8-.38,6.29-.98,6.29-1.53,0-.25.51-.45,1.13-.45s.96.17.75.37c-.21.21.5.27,1.57.15,1.76-.2,1.82-.26.52-.56-1.14-.27-1.19-.34-.22-.37.67-.02,1.79-.16,2.49-.32.87-.2,1.1-.13.74.22-.63.62-.51.62,2.18.11,1.16-.22,3.08-.53,4.26-.69,1.71-.23,1.93-.38,1.09-.73-.77-.33-.45-.38,1.21-.21,1.24.13,3.98-.04,6.08-.37,4.51-.72,5.69-1.2,2.16-.89-1.65.15-1.27,0,1.14-.42,3.99-.71,6.8-.85,4.37-.23-2.05.53-1.04.52,3.33-.05,2.63-.34,3.47-.6,2.77-.87-.82-.31-.79-.38.16-.39.64,0,1.73.37,2.43.84,1.22.81,1.21.84-.36.59-1.2-.19-1.49-.11-1.07.3.42.41.16.48-.98.26-.85-.16-1.55-.11-1.55.11s-.77.32-1.72.21c-1.78-.2-3.25.92-1.88,1.43.39.14.52.45.29.67-.23.22.75.41,2.17.41s2.59-.19,2.59-.43.82-.39,1.83-.34c3.32.17,1.52.83-8.77,3.24ZM156.51,101.61c0,.12-.16.22-.36.22s-.36-.1-.36-.22.16-.22.36-.22.36.1.36.22ZM152.14,107.52c-.53,0-.75-.13-.49-.29.27-.16.7-.16.97,0,.27.16.05.29-.49.29ZM153.24,105.59c.8-.37,2.27-.67,3.28-.67,1.36,0,1.54.09.73.36h0c-2.41.81-5.62,1.05-4,.31ZM153.96,108.4c-.2,0-.36-.1-.36-.22s.16-.22.36-.22.36.1.36.22-.16.22-.36.22ZM153.96,107.08c-.2,0-.36-.1-.36-.22s.16-.22.36-.22.36.1.36.22-.16.22-.36.22ZM156.15,107.96c-.2,0-.36-.1-.36-.22s.16-.22.36-.22.36.1.36.22-.16.22-.36.22ZM156.15,106.65c-.2,0-.36-.1-.36-.22s.16-.22.36-.22.36.1.36.22-.16.22-.36.22ZM157.6,106.21c-.2,0-.36-.1-.36-.22s.16-.22.36-.22.36.1.36.22-.16.22-.36.22ZM168.16,113.21c-.53,0-.75-.13-.49-.29.27-.16.7-.16.97,0,.27.16.05.29-.49.29ZM169.98,112.77c-.2,0-.36-.1-.36-.22s.16-.22.36-.22.36.1.36.22-.16.22-.36.22ZM241.31,93.51c-.2,0-.36-.1-.36-.22s.16-.22.36-.22.36.1.36.22-.16.22-.36.22ZM242.77,94.39c-.2,0-.36-.1-.36-.22s.16-.22.36-.22.36.1.36.22-.16.22-.36.22ZM243.13,93.08c-.53,0-.75-.13-.49-.29.27-.16.7-.16.97,0,.27.16.05.29-.49.29ZM242.8,87.22c.71-.16,1.06.04,1.06.62,0,1.01-.08,1.02-1.24.23-.69-.47-.65-.65.18-.85ZM240.95,90.23c0,.12-.16.22-.36.22s-.36-.1-.36-.22.16-.22.36-.22.36.1.36.22ZM196.06,91.03c.27-.16.7-.16.97,0,.27.16.05.29-.49.29s-.75-.13-.49-.29ZM192.04,91.47c.53-.13,1.15-.11,1.4.03h0c.24.15-.19.25-.96.23-.85-.02-1.02-.12-.44-.26ZM192.61,92.76c2.43-.55,4.66-.58,4.66-.04,0,.2-.9.38-2,.4-1.77.03-1.84.07-.55.41l1.46.38h-1.46c-3.26,0-4.4-.61-2.11-1.14ZM189.27,93.73c0,.12-.16.22-.36.22s-.36-.1-.36-.22.16-.22.36-.22.36.1.36.22ZM186.55,91.9c.71-.11,1.69-.1,2.18.02h0c.49.12-.09.21-1.29.2-1.2,0-1.6-.11-.9-.22ZM181.85,92.34c.53-.13,1.15-.11,1.4.03h0c.24.15-.19.25-.96.23-.85-.02-1.02-.12-.44-.26ZM177.86,92.79c.27-.16.7-.16.97,0,.27.16.05.29-.49.29s-.75-.13-.49-.29ZM173.92,91.29c-.75-.28-.48-.39.98-.4,1.1,0,2,.07,2,.17,0,.42-2.05.58-2.98.23ZM172.77,93.22c.27-.16.7-.16.97,0,.27.16.05.29-.49.29s-.75-.13-.49-.29ZM170.71,92.64c.2,0,.36.1.36.22s-.16.22-.36.22-.36-.1-.36-.22.16-.22.36-.22ZM169.48,93.65c.53-.13,1.15-.11,1.4.03h0c.24.15-.19.25-.96.23-.85-.02-1.02-.12-.44-.26ZM165.11,94.09c.53-.13,1.15-.11,1.4.03h0c.24.15-.19.25-.96.23-.85-.02-1.02-.12-.44-.26ZM167.43,95.29c0,.23-.45.41-1,.41s-2.11.12-3.46.28c-1.64.18-2.21.13-1.73-.16.99-.6,6.19-1.04,6.19-.53ZM160.74,94.53c.53-.13,1.15-.11,1.4.03h0c.24.15-.19.25-.96.23-.85-.02-1.02-.12-.44-.26ZM159.2,90.34c-.18.42-.33.08-.33-.77s.15-1.19.33-.77h0c.18.42.18,1.11,0,1.53ZM159.13,92.52c-.24.15-.41-.11-.38-.57.03-.51.21-.61.44-.26.21.32.18.69-.06.84ZM159.18,87.68c-.27.16-.49.03-.49-.29s.22-.45.49-.29c.27.16.27.42,0,.58ZM159.06,93.51c.2,0,.36.1.36.22s-.16.22-.36.22-.36-.1-.36-.22.16-.22.36-.22ZM159.21,98.23h0c.17.54.17,1.33-.01,1.75s-.32-.03-.32-.99c0-.96.16-1.31.33-.76ZM158.84,95.48c.01-.72.18-.96.36-.54h0c.18.43.17,1.02-.03,1.31-.2.3-.35-.05-.34-.77ZM159.06,102.27c-.2,0-.36-.1-.36-.22s.16-.22.36-.22.36.1.36.22-.16.22-.36.22ZM159.06,86.07c-.2,0-.36-.1-.36-.22s.16-.22.36-.22.36.1.36.22-.16.22-.36.22ZM160.51,97.45c-.2,0-.36-.1-.36-.22s.16-.22.36-.22.36.1.36.22-.16.22-.36.22ZM188.02,101.74c-1.11.25-4.65,1.06-7.85,1.79-3.2.73-8.69,2.01-12.19,2.85s-6.37,1.36-6.37,1.16.9-.5,2-.66,2.98-.57,4.19-.9c6.67-1.82,21.58-5.11,22-4.86.14.08-.66.36-1.77.61ZM164.34,104.02c1.84-.61,2.14-.81.91-.61-1,.16-1.58.14-1.29-.05.74-.47,6.44-.62,5.96-.15-.21.21-.71.38-1.11.38s-2.08.39-3.73.88h0c-3.24.94-3.47.99-3.47.67,0-.11,1.23-.61,2.73-1.11ZM161.61,103.8c0-.12.16-.22.36-.22s.36.1.36.22-.16.22-.36.22-.36-.1-.36-.22ZM168.16,102.27c.6-.23,1.42-.42,1.82-.42s.24.19-.36.42c-.6.23-1.42.42-1.82.42s-.24-.19.36-.42ZM169.61,104.68c0,.12-.16.22-.36.22s-.36-.1-.36-.22.16-.22.36-.22.36.1.36.22ZM167.43,105.11c0,.12-.16.22-.36.22s-.36-.1-.36-.22.16-.22.36-.22.36.1.36.22ZM163.79,105.99c0,.12-.16.22-.36.22s-.36-.1-.36-.22.16-.22.36-.22.36.1.36.22ZM170.34,104.24c0-.12.16-.22.36-.22s.36.1.36.22-.16.22-.36.22-.36-.1-.36-.22ZM173.98,102.27c-.53,0-.75-.13-.49-.29.27-.16.7-.16.97,0,.27.16.05.29-.49.29ZM173.98,103.58c-.53,0-.75-.13-.49-.29.27-.16.7-.16.97,0,.27.16.05.29-.49.29ZM173.62,101.39c-2,.52-3.15.52-1.82,0,.6-.23,1.58-.41,2.18-.4.72.02.6.15-.36.4ZM172.53,103.8c0,.12-.16.22-.36.22s-.36-.1-.36-.22.16-.22.36-.22.36.1.36.22ZM171.31,102.41c.27-.16.7-.16.97,0,.27.16.05.29-.49.29s-.75-.13-.49-.29ZM175.68,101.54c.27-.16.7-.16.97,0,.27.16.05.29-.49.29s-.75-.13-.49-.29ZM175.68,100.66c.27-.16.7-.16.97,0,.27.16.05.29-.49.29s-.75-.13-.49-.29ZM175.8,102.71c.2,0,.36.1.36.22s-.16.22-.36.22-.36-.1-.36-.22.16-.22.36-.22ZM177.98,101.39c-.2,0-.36-.1-.36-.22s.16-.22.36-.22.36.1.36.22-.16.22-.36.22ZM178.35,102.49c0,.12-.16.22-.36.22s-.36-.1-.36-.22.16-.22.36-.22.36.1.36.22ZM183.1,99.34c-2.7.65-3.94,1.14-3.28,1.29h0c.59.14.75.27.35.28-4.32.17-.25-1.72,5.1-2.35,1.2-.14.23.21-2.17.78ZM185.87,99.35c.27-.16.7-.16.97,0,.27.16.05.29-.49.29s-.75-.13-.49-.29ZM185.63,100.74c0,.12-.16.22-.36.22s-.36-.1-.36-.22.16-.22.36-.22.36.1.36.22ZM184.17,100.08c-.53,0-.75-.13-.49-.29.27-.16.7-.16.97,0,.27.16.05.29-.49.29ZM183.08,100.96c.2,0,.36.1.36.22s-.16.22-.36.22-.36-.1-.36-.22.16-.22.36-.22ZM182.35,100.52c-.2,0-.36-.1-.36-.22s.16-.22.36-.22.36.1.36.22-.16.22-.36.22ZM181.99,101.61c0,.12-.16.22-.36.22s-.36-.1-.36-.22.16-.22.36-.22.36.1.36.22ZM179.8,102.05c0,.12-.16.22-.36.22s-.36-.1-.36-.22.16-.22.36-.22.36.1.36.22ZM188.3,100.23c.27.16.05.29-.49.29s-.75-.13-.49-.29c.27-.16.7-.16.97,0ZM188.05,98.91c.27-.16.7-.16.97,0,.27.16.05.29-.49.29s-.75-.13-.49-.29ZM189.63,100.08c-.2,0-.36-.1-.36-.22s.16-.22.36-.22.36.1.36.22-.16.22-.36.22ZM188.9,98.33c-.96-.25-1.08-.38-.36-.4.6-.01,1.58.17,2.18.4,1.33.52.18.52-1.82,0ZM191.45,97.89c-.53,0-.75-.13-.49-.29.27-.16.7-.16.97,0,.27.16.05.29-.49.29ZM192.18,99.42c0,.12-.16.22-.36.22s-.36-.1-.36-.22.16-.22.36-.22.36.1.36.22ZM194.91,100.19h0c-.9.12-2.29.35-3.09.52-.8.17-.31-.1,1.09-.58,2.84-.99,3.64-1.1,3.64-.53,0,.21-.74.48-1.64.6ZM193.27,98.33c-.2,0-.36-.1-.36-.22s.16-.22.36-.22.36.1.36.22-.16.22-.36.22ZM194,98.77c.2,0,.36.1.36.22s-.16.22-.36.22-.36-.1-.36-.22.16-.22.36-.22ZM195.09,97.67c0-.12.16-.22.36-.22s.36.1.36.22-.16.22-.36.22-.36-.1-.36-.22ZM196.18,98.77c-.2,0-.36-.1-.36-.22s.16-.22.36-.22.36.1.36.22-.16.22-.36.22ZM197.02,95.81c-.13.51-.86,1.07-1.63,1.26-1.99.47-2.64.45-2.12-.05.25-.24,1.17-.44,2.04-.44,1.19,0,1.34-.1.59-.39-.63-.24-2.12-.09-4,.41-1.65.44-4.31.93-5.91,1.1s-3.4.56-4,.86-5.19,1.39-10.19,2.41h0c-5,1.03-9.49,1.95-9.97,2.06-.52.12-.82-.17-.75-.72.06-.5.54-.91,1.05-.91s.91-.34.88-.77c-.03-.46-.21-.55-.42-.22-.2.3-.72.55-1.16.55s-.6-.11-.37-.25c.23-.14.14-.83-.19-1.53-.54-1.14-.41-1.31,1.23-1.56,1.36-.21,1.58-.37.86-.65-1.3-.5-.09-.48,3.03.04,2.37.39,2.44.38,1.09-.25-1.38-.64-1.35-.66.73-.36,3.92.55,5.47,1.25,3.16,1.41-2.53.18-3.28,1.32-1.18,1.79,1.27.28,5.77-.14,7.01-.65.94-.39-.97-1.92-2.4-1.92-.93,0-2.63-.31-3.77-.68-1.56-.51-1.72-.66-.63-.59.8.05,1.95-.03,2.55-.17.6-.14,1.75-.36,2.55-.49.8-.13-.35-.13-2.55,0-10.23.59-1.14-.78,14.92-2.25,4.23-.39-.52.53-5.82,1.13-2.8.31-4.68.66-4.18.76.5.1.69.4.43.66-.32.31-.03.37.83.17,2.72-.63,10.92-1.12,11.62-.7.38.23,1.53.4,2.55.39,1.7-.03,1.64-.09-.69-.65l-2.55-.62,2.55.25c4.52.44,5.08.63,4.84,1.6ZM172.28,98.48c.27.16.05.29-.49.29s-.75-.13-.49-.29c.27-.16.7-.16.97,0ZM186.36,94.17c0,.12-.16.22-.36.22s-.36-.1-.36-.22.16-.22.36-.22.36.1.36.22ZM181.26,94.83c-.53,0-.75-.13-.49-.29.27-.16.7-.16.97,0,.27.16.05.29-.49.29ZM196.91,94.39c-.2,0-.36-.1-.36-.22s.16-.22.36-.22.36.1.36.22-.16.22-.36.22ZM197.27,98.11c0-.12.16-.22.36-.22s.36.1.36.22-.16.22-.36.22-.36-.1-.36-.22ZM198,99.2c-.53,0-.75-.13-.49-.29.27-.16.7-.16.97,0,.27.16.05.29-.49.29ZM198.52,95.59c-.17.66-.3.12-.3-1.2s.14-1.87.3-1.2c.17.66.17,1.75,0,2.41ZM198.37,91.33c-.2,0-.36-.1-.36-.22s.16-.22.36-.22.36.1.36.22-.16.22-.36.22ZM200.4,98.96c-1.04.24-1.12.19-.41-.25.49-.3,1.08-.43,1.31-.3.22.13-.18.38-.9.54ZM199.7,97.6c.27-.16.7-.16.97,0,.27.16.05.29-.49.29s-.75-.13-.49-.29ZM201.64,96.58c-.53,0-.75-.13-.49-.29.27-.16.7-.16.97,0,.27.16.05.29-.49.29ZM202.61,97.16c.27-.16.7-.16.97,0,.27.16.05.29-.49.29s-.75-.13-.49-.29ZM203.4,98.3c-.85-.02-1.02-.12-.44-.26.53-.13,1.15-.11,1.4.03.24.15-.19.25-.96.23ZM205.28,96.8c0-.12.16-.22.36-.22s.36.1.36.22-.16.22-.36.22-.36-.1-.36-.22ZM206.01,97.89c-.53,0-.75-.13-.49-.29.27-.16.7-.16.97,0,.27.16.05.29-.49.29ZM207.83,97.45c-.2,0-.36-.1-.36-.22s.16-.22.36-.22.36.1.36.22-.16.22-.36.22ZM207.83,96.58c-.2,0-.36-.1-.36-.22s.16-.22.36-.22.36.1.36.22-.16.22-.36.22ZM207.83,93.51c-.2,0-.36-.1-.36-.22s.16-.22.36-.22.36.1.36.22-.16.22-.36.22ZM210.01,97.02c-.2,0-.36-.1-.36-.22s.16-.22.36-.22.36.1.36.22-.16.22-.36.22ZM210.01,96.14c-.2,0-.36-.1-.36-.22s.16-.22.36-.22.36.1.36.22-.16.22-.36.22ZM210.01,94.39c-.2,0-.36-.1-.36-.22s.16-.22.36-.22.36.1.36.22-.16.22-.36.22ZM211.47,94.83c-.2,0-.36-.1-.36-.22s.16-.22.36-.22.36.1.36.22-.16.22-.36.22ZM211.83,95.48c0-.12.16-.22.36-.22s.36.1.36.22-.16.22-.36.22-.36-.1-.36-.22ZM212.56,96.58c-.53,0-.75-.13-.49-.29.27-.16.7-.16.97,0,.27.16.05.29-.49.29ZM212.56,93.95c-.66-.25-.75-.43-.22-.43.48,0,1.07.19,1.32.43.56.54.31.54-1.09,0ZM214.74,96.14c-.53,0-.75-.13-.49-.29.27-.16.7-.16.97,0,.27.16.05.29-.49.29ZM214.74,95.27c-.53,0-.75-.13-.49-.29.27-.16.7-.16.97,0,.27.16.05.29-.49.29ZM216.93,94.61c0-.12.16-.22.36-.22s.36.1.36.22-.16.22-.36.22-.36-.1-.36-.22ZM217.66,95.7c-.53,0-.75-.13-.49-.29.27-.16.7-.16.97,0,.27.16.05.29-.49.29ZM218.75,93.41h0c-.33-.18-.95-.15-1.39.06-.44.21-1.45.24-2.25.06-1.22-.27-1.06-.35.94-.53,1.33-.12,2.6,0,2.84.26.25.26.18.33-.15.15ZM219.47,95.27c-.2,0-.36-.1-.36-.22s.16-.22.36-.22.36.1.36.22-.16.22-.36.22ZM219.47,94.39c-.2,0-.36-.1-.36-.22s.16-.22.36-.22.36.1.36.22-.16.22-.36.22ZM221.29,94.83c-.53,0-.75-.13-.49-.29.27-.16.7-.16.97,0,.27.16.05.29-.49.29ZM221.66,93.95c-.2,0-.36-.1-.36-.22s.16-.22.36-.22.36.1.36.22-.16.22-.36.22ZM224.21,94.39c-.53,0-.75-.13-.49-.29.27-.16.7-.16.97,0,.27.16.05.29-.49.29ZM224.57,93.51c-.2,0-.36-.1-.36-.22s.16-.22.36-.22.36.1.36.22-.16.22-.36.22ZM226.39,93.95c-.53,0-.75-.13-.49-.29.27-.16.7-.16.97,0,.27.16.05.29-.49.29ZM226.39,93.08c-.53,0-.75-.13-.49-.29.27-.16.7-.16.97,0,.27.16.05.29-.49.29ZM226.39,91.33c0-.27-.33-.37-.74-.22-.41.15-.53.48-.28.73.26.25-.31.2-1.26-.1-1.63-.52-1.66-.51-.63.26.98.73.97.78-.07.55-.64-.14-1.6-.1-2.14.11s-1.54.19-2.22-.03c-.8-.26-2.58-.16-5.07.29-2.76.49-4.26.56-5.36.24-3.17-.92-5.32-.87-5.23.11.07.72.5.89,2.03.79,1.57-.1,1.92.05,1.84.77-.06.49-.18.89-.27.89s-1.08-.2-2.21-.44c-1.91-.41-1.95-.4-.64.22h0c.78.36,1.1.63.73.59-.38-.04-1.83-.16-3.23-.27-2.15-.17-2.32-.25-1.09-.56,1.24-.3,1.27-.36.18-.39-2.8-.07-2.35-1.52-.33-2.48-.19.15.02.26.51.26.53,0,.75-.13.49-.29-.2-.12-.49-.15-.73-.09.81-.35,1.83-.61,2.98-.7,3.47-.25,15.9-1.63,33.66-3.73,3.62-.43,5.03-.23,1.73.25-3.13.45-4.39,1.16-2.7,1.52.97.2.11.5-3.02,1.03-2.4.41-4.94.85-5.64.97-.7.12-1.27,0-1.27-.27ZM206.01,93.3c0,.12-.16.22-.36.22s-.36-.1-.36-.22.16-.22.36-.22.36.1.36.22ZM238.54,90.46c.48,0,1.07.19,1.32.43h0c.56.54.31.54-1.09,0-.66-.25-.75-.43-.22-.43ZM238.04,88.92c0-.12.16-.22.36-.22s.36.1.36.22-.16.22-.36.22-.36-.1-.36-.22ZM237.31,91.55c0,.12-.16.22-.36.22s-.36-.1-.36-.22.16-.22.36-.22.36.1.36.22ZM235.85,91.11c0,.12-.16.22-.36.22s-.36-.1-.36-.22.16-.22.36-.22.36.1.36.22ZM235.12,91.98c0,.12-.16.22-.36.22s-.36-.1-.36-.22.16-.22.36-.22.36.1.36.22ZM233.67,91.55c0,.12-.16.22-.36.22s-.36-.1-.36-.22.16-.22.36-.22.36.1.36.22ZM232.94,92.42c0,.12-.16.22-.36.22s-.36-.1-.36-.22.16-.22.36-.22.36.1.36.22ZM231.49,91.98c0,.12-.16.22-.36.22s-.36-.1-.36-.22.16-.22.36-.22.36.1.36.22ZM228.21,92.22c.4,0,1.22.19,1.82.42.6.23.76.42.36.42s-1.22-.19-1.82-.42c-.6-.23-.76-.42-.36-.42ZM228.57,93.3c0,.12-.16.22-.36.22s-.36-.1-.36-.22.16-.22.36-.22.36.1.36.22ZM234.76,93.47c-.8.2-2.37.59-3.49.86-1.12.27-2.59.49-3.28.49-2.3-.01.59-.8,8.04-2.2,3.9-.73,7.1-1.53,7.1-1.78s-.41-.3-.91-.12c-.62.22-.59.09.09-.41,1.41-1.05,1.99-.92,1.95.44-.03,1.06-.44,1.24-4.04,1.76-2.2.32-4.66.75-5.46.96Z"/>
  <path d="M248.23,48.65c-.48.18-.73-7.36-.73-22.28,0-19.4-.19-22.82,2.05-23.38-.06-.13-.11-.25-.17-.38-.3.03-.6.07-.93.11-1.23.15-1.66.57-1.89,1.83-.27,1.51-.29,1.49-.25-.27.04-2-1.73-3.38-3.74-2.92-.53.12-.78.04-.55-.19.03-.03.05-.06.06-.1-.17.02-.33.05-.51.06-1,.02-2.04.07-3.11.11.8.32,1.57.7,1.92.99.29.25.86.47,1.27.5.41.03,1.1.08,1.53.11.42.03.57.25.32.49-.25.24-.1.44.32.44.85,0,.88,17.85.04,18.17-1.96.73-4.74-.59-5.16-2.44l-.44-1.94-.45,4.38-.5-2.19-.5-2.19-.11,2.12c-.08,1.48-.39,2.06-1.02,1.93-1.09-.22-2.02-12.91-1.01-13.78,1.73-1.49-3.84-2.74-17.37-3.9-1.6-.14-3.35-.46-3.88-.72-1.84-.9-25.98.08-31.13,1.26l-3.2.74v2.81c0,1.76.27,2.71.73,2.54.4-.15.73-1.15.73-2.21,0-1.26.32-1.95.91-1.95.72,0,.72-.08,0-.35-1.47-.56,5.7-1.88,10.46-1.91,19.39-.16,21.86-.08,29.02.93,4,.56,8.4,1.15,9.77,1.29,2.14.23,4.2,1.36,2.49,1.36-1.41,0-.6,11.84.7,15.5.01-.01.01-.02.03-.03.27-.16.7-.16.97,0,.27.16.05.29-.49.29-.2,0-.34-.02-.44-.05.21.53.43.84.65.86,4.05.3,5.12.25,5.4-.22.2-.34-.28-.43-1.38-.26-.92.14-1.44.09-1.14-.1.3-.19.14-.64-.35-1-.77-.56-.45-.6,2.37-.32,4.94.49,4.45-.26,4.62,7.12.05,2.23.33,4.05.61,4.05.28,0,.35.74.16,1.64-.64,2.91-.72,12.56-.11,13.35.32.42.33.77.01.77-.31,0-.66,1.67-.76,3.72-.13,2.56.07,3.72.64,3.72.61,0,.6.16-.02.62-.59.43-.62.71-.08.91.43.16.55.51.27.78-.16.16-.3,2.21-.37,5.23.57-.41,1.28-.76,2.12-1.01-.06.02-.11.05-.18.05-.2,0-.36-.1-.36-.22s.16-.22.36-.22.36.1.36.22c0,.06-.04.11-.1.15.33-.09.68-.17,1.05-.24.12-8.12.3-13.7.51-13.7.4,0,.73-.21.73-.46s-.33-.34-.73-.19ZM245.07,56.16c-.27.16-.49.03-.49-.29s.22-.45.49-.29c.27.16.27.42,0,.58ZM244.95,2.47c-.2,0-.36-.1-.36-.22s.16-.22.36-.22.36.1.36.22-.16.22-.36.22ZM246.41,9.04c.2,0,.36.1.36.22s-.16.22-.36.22-.36-.1-.36-.22.16-.22.36-.22ZM246.52,11.78c-.2.3-.35-.05-.34-.77s.18-.96.36-.54h0c.18.43.17,1.02-.03,1.31ZM246.04,26.11c0-.32.22-.45.49-.29.27.16.27.42,0,.58-.27.16-.49.03-.49-.29ZM246.56,32.13c-.17.66-.3.12-.3-1.2s.14-1.87.3-1.2c.17.66.17,1.75,0,2.41ZM246.55,61.01c-.18.42-.33.08-.33-.77s.15-1.19.33-.77h0c.18.42.18,1.11,0,1.53ZM246.56,57.29c-.17.54-.32.1-.32-.98s.14-1.53.32-.98h0c.17.54.17,1.43,0,1.97ZM246.56,52.48c-.17.54-.32.1-.32-.98s.14-1.53.32-.98h0c.17.54.17,1.43,0,1.97ZM246.41,46.24c-.2,0-.36-.1-.36-.22s.16-.22.36-.22.36.1.36.22-.16.22-.36.22ZM246.1,43.36c.03-.51.21-.61.44-.26.21.32.18.69-.06.84-.24.15-.41-.11-.38-.57ZM246.41,42.3c-.2,0-.36-.1-.36-.22s.16-.22.36-.22.36.1.36.22-.16.22-.36.22ZM246.1,39.42c.03-.51.21-.61.44-.26.21.32.18.69-.06.84-.24.15-.41-.11-.38-.57ZM246.41,37.49c-.2,0-.36-.1-.36-.22s.16-.22.36-.22.36.1.36.22-.16.22-.36.22Z"/>
  <path d="M234.65,107.96c.25.6.46,2.06.46,3.25,0,1.18.23,2.02.51,1.85.77-.46.22-5.26-.65-5.76-.54-.31-.64-.11-.32.66Z"/>
  <path d="M137.41,103.58c-.75,0-1.19.17-.98.37s-.47.28-1.52.16c-1.3-.15-1.74-.06-1.4.28.35.34-.13.42-1.53.27-2.55-.28-3.6.13-4.24,1.66h0c-.61,1.46,1.46,1.61,7.4.55,3.93-.7,5.72-3.29,2.27-3.29ZM130.31,105.33c-.53,0-.75-.13-.49-.29.27-.16.7-.16.97,0s.05.29-.49.29ZM131.4,107.08c-.2,0-.36-.1-.36-.22s.16-.22.36-.22.36.1.36.22-.16.22-.36.22ZM133.58,105.77c-.2,0-.36-.1-.36-.22s.16-.22.36-.22.36.1.36.22-.16.22-.36.22ZM134.31,106.65c-.2,0-.36-.1-.36-.22s.16-.22.36-.22.36.1.36.22-.16.22-.36.22ZM136.49,106.21c-.2,0-.36-.1-.36-.22s.16-.22.36-.22.36.1.36.22-.16.22-.36.22ZM136.49,105.33c-.2,0-.36-.1-.36-.22s.16-.22.36-.22.36.1.36.22-.16.22-.36.22Z"/>
  <path d="M87.91,113.32c-.5.06-.82-.15-.71-.47.15-.42-.25-.49-1.46-.23-.91.19-2.55.33-3.64.32s-1.83.12-1.64.3c.19.18-.36.22-1.23.09-1.01-.16-1.4-.08-1.09.22.31.3-.09.38-1.09.22-1-.16-1.4-.08-1.1.21.26.25-.03.58-.65.72-.64.15-.94.07-.68-.17.24-.24.18-.43-.14-.42-.95.03-4.3,1.26-3.5,1.3.4.02.15.23-.55.47-1.77.62-1.59,1.27.36,1.31,1.57.03,1.58.05.18.44h0c-1.58.45-1.9.47,4.91-.27,1.5-.16,2.56-.45,2.36-.65-.2-.19.35-.24,1.21-.1,1.01.16,1.4.08,1.09-.22-.31-.3.09-.38,1.09-.22,1.01.16,1.4.08,1.09-.22-.31-.3.09-.38,1.09-.22,1.18.19,1.42.1.97-.33-.44-.43-.26-.5.71-.28,1.47.34,3.3-.38,3.3-1.3,0-.33-.41-.55-.91-.49ZM70.98,116.71c-.2,0-.36-.1-.36-.22s.16-.22.36-.22.36.1.36.22-.16.22-.36.22ZM73.17,115.4c-.2,0-.36-.1-.36-.22s.16-.22.36-.22.36.1.36.22-.16.22-.36.22ZM73.89,116.28c-.2,0-.36-.1-.36-.22s.16-.22.36-.22.36.1.36.22-.16.22-.36.22ZM74.99,117.15c-.53,0-.75-.13-.49-.29.27-.16.7-.16.97,0,.27.16.05.29-.49.29ZM80.26,115.12c-1.1.14-2.82.4-3.82.56-3.2.52-1.11-.25,2.42-.89,1.87-.34,3.4-.46,3.4-.28s-.9.46-2,.6ZM83.72,114.52c-.53,0-.75-.13-.49-.29s.7-.16.97,0c.27.16.05.29-.49.29ZM85.54,114.09c-.2,0-.36-.1-.36-.22s.16-.22.36-.22.36.1.36.22-.16.22-.36.22ZM87.72,114.52c-.2,0-.36-.1-.36-.22s.16-.22.36-.22.36.1.36.22-.16.22-.36.22Z"/>
  <path d="M109.56,95.18c.8,0,2.27-.16,3.28-.35,1.44-.28,1.52-.35.36-.35-.8,0-2.27.16-3.28.35-1.44.28-1.52.35-.36.35Z"/>
  <path d="M73.19,81.7c1.68,0,1.25-1.29-.57-1.71-.9-.21-4.84-.38-8.74-.39-7.44-.02-8.54.28-8.54,2.29,0,.38.33.69.73.69s.69-.15.64-.33c-.47-1.79-.17-1.86,8.17-1.86,6.89,0,8.02.1,7.67.66-.26.4,0,.66.65.66Z"/>
  <path d="M152.14,40.11c0-3.02-.81-3.32-3.87-1.4-2.29,1.44-2.32,1.53-.78,2.95h0c2.41,2.21,4.65,1.46,4.65-1.55ZM149.23,39.24l1.46-1.01v1.82c0,1.87-.52,2.2-2.04,1.29-1.17-.71-1.11-.92.58-2.1Z"/>
  <path d="M139.04,39.89h0c0,2.05.2,2.41,1.34,2.41,1.76,0,4.04-1.54,3.51-2.37-.28-.44-.07-.57.66-.4,1.18.27,4.67-1.72,4.67-2.66,0-.87-5.92-1.24-7.23-.46-.9.54-.86.75.36,1.62l1.41,1-1.51-.77c-2.56-1.3-3.22-.96-3.22,1.64ZM145.35,37.05c2.61,0,2.63.02,1.34.88-.72.48-1.36.88-1.41.88s-.65-.39-1.34-.88c-1.21-.85-1.18-.88,1.41-.88ZM141.8,40.83c-1.36.81-1.96.32-1.35-1.11.41-.96.53-.98,1.46-.31h0c.87.63.86.83-.11,1.41Z"/>
  <path d="M121.57,93.87c.79-.3.59-.34-.73-.17-1,.13-2.72.25-3.82.25-1.1,0-2,.21-2,.46,0,.52,4.79.12,6.55-.54Z"/>
  <path d="M123.85,78.3c.58-2.06.46-2.21-1.6-1.85-1.11.19-2.24.22-2.51.06-.74-.44-.09.92.73,1.54h0c.79.6,3.22.78,3.37.25Z"/>
  <path d="M112.66,76.87c1.52.01,1.64-.17,1.64-2.69,0-3.14-.56-3.28-.82-.22-.12,1.34-.59,2.24-1.32,2.49-.93.33-.83.4.5.41Z"/>
  <path d="M129.25,71.96c.57.66,1.11,2.48,1.2,4.05l.15,2.85.25-3.43c.16-2.18-.06-3.66-.6-4.05-1.45-1.05-2.09-.67-1,.59Z"/>
  <path d="M126.3,93.67c2-.15,4.13-.44,4.73-.65,1.34-.47-4.82.02-6.92.55-.89.22-.04.26,2.18.1Z"/>
  <path d="M240.21,79.72c-.81-.15-1.28-.46-1.05-.69.78-.76-.45-.41-2.42.69-1.08.6-1.56,1.09-1.06,1.09s.9.3.9.66h0c0,.8,2.25.86,3.6.11.79-.44.87-.43.4.07-.39.41-.31.51.26.3,1.36-.51.96-1.93-.63-2.23ZM238.4,80.82c-.2,0-.36-.1-.36-.22s.16-.22.36-.22.36.1.36.22-.16.22-.36.22Z"/>
  <path d="M72.8,77.71c0-.58-8.01-5.64-8.93-5.64-.36,0-2.18.73-4.05,1.63s-3.46,1.64-3.54,1.65c-.66.12-.65,2.41.01,2.57h0c1.88.46,16.5.28,16.5-.21ZM59.35,75.21c0,.08.99-.41,2.18-1.08l2.17-1.22,1.27.94c.7.51,1.27.8,1.27.63s.82.28,1.82,1c1,.72,1.82,1.42,1.82,1.57s-2.95.27-6.55.27c-5.94,0-6.55-.08-6.55-.83,0-.64,2.49-1.88,2.57-1.28Z"/>
  <path d="M58.31,36.42c-1.91-.71-2.97,1.17-2.97,5.26v4.13h2.18c1.2,0,2.11-.15,2.01-.33-.36-.68,1.85-3.17,2.81-3.17,1.36,0,1.28-1.59-.09-1.91-.6-.14-1.09-.49-1.09-.77,0-.31.59-.2,1.46.27.8.44,1.46.65,1.46.48s.36-.18.79-.02c.57.21.57.43,0,.77-1.08.65-1,1.29.12.95.5-.15.27.03-.5.41-.78.38-1.65.69-1.93.69s-.85.58-1.26,1.28-1.38,1.49-2.17,1.74-1.63.77-1.87,1.15c-.3.47-.15.59.46.39.7-.24.7-.18,0,.28-.59.38-.91,2.01-.91,4.68v4.09l3.64-.29c2.18-.17,3.64-.12,3.64.13h0c0,.23,1.97.42,4.37.42,4.2,0,4.37-.04,4.39-1.13.01-.62.14-2.56.27-4.3s.03-3.08-.24-2.98c-.27.1-.91-.22-1.42-.71-.52-.5-.58-.77-.14-.6,1.17.43,1.43-.39,1.79-5.55.48-7.06-.83-8.38-4.26-4.31-1.64,1.94-3.3,3.17-3.3,2.43,0-.15,1.34-1.76,2.98-3.56,3.59-3.95,3.71-3.85-4.64-3.7-7.94.14-8.5.36-6.44,2.46.86.87,1.25,1.47.89,1.34ZM58.61,46.68c.2,0,.36.1.36.22s-.16.22-.36.22-.36-.1-.36-.22.16-.22.36-.22ZM59.46,55.43c-1.35,0-1.8-6.29-.49-6.78.46-.17.73,1.02.73,3.26,0,1.94-.11,3.53-.24,3.53ZM62.38,45.72c.21.32.18.69-.06.84s-.41-.11-.38-.57c.03-.51.21-.61.44-.26ZM62.38,48.79c.21.32.18.69-.06.84s-.41-.11-.38-.57c.03-.51.21-.61.44-.26ZM62.25,55c-.2,0-.36-.1-.36-.22s.16-.22.36-.22.36.1.36.22-.16.22-.36.22ZM63.87,53.8c-.16.78-.29.03-.29-1.65,0-1.69.13-2.32.29-1.41h0c.16.91.15,2.29,0,3.06ZM63.7,47.99c-.2,0-.36-.1-.36-.22s.16-.22.36-.22.36.1.36.22-.16.22-.36.22ZM68.32,33.73c.46.17.84.4.84.51,0,.37-.64.19-1.16-.31-.32-.31-.2-.39.32-.19ZM70.54,56.09c-.24-.24-.49-1.29-.54-2.32s-.25-2.41-.44-3.06c-.48-1.63.79-2.86,1.42-1.37.56,1.34.18,7.35-.43,6.75ZM70.99,39.32h0c.27.85.16,2.42-.23,3.47-.84,2.27-.86,2.26-1.12-1.25-.24-3.15.62-4.57,1.35-2.23ZM69.16,45.59c.4.15.73.36.73.46h0c0,.11-.33.19-.73.19s-.73-.21-.73-.46.33-.34.73-.19ZM68.07,49.74c-.2,0-.36-.1-.36-.22s.16-.22.36-.22.36.1.36.22-.16.22-.36.22ZM68.19,47.85c-.27.16-.49.03-.49-.29s.22-.45.49-.29c.27.16.27.42,0,.58ZM66.14,42.92c.46.17,1.18.69,1.59,1.16,1.37,1.54-.28.77-1.84-.86-.4-.41-.31-.51.25-.3ZM65.93,45.15c.89.69,1.09,1.92.97,5.8h0c-.24,7.54-1.93,6.81-2.02-.88-.06-5.31.03-5.73,1.06-4.92ZM64.89,35.74c.1-1.36.5-2.19,1.04-2.19,1.42,0,1.78,1.79.63,3.13-1.51,1.76-1.86,1.56-1.67-.94ZM63.7,39.24c-.2,0-.36-.1-.36-.22s.16-.22.36-.22.36.1.36.22-.16.22-.36.22ZM63.83,37.63c.27.16.27.42,0,.58-.27.16-.49.03-.49-.29s.22-.45.49-.29ZM62.41,34.53c.17.66.17,1.75,0,2.41s-.3.12-.3-1.2.14-1.87.3-1.2ZM56.59,43.72c-.16.78-.29.14-.29-1.42s.13-2.2.29-1.42.16,2.06,0,2.85ZM56.42,39.24c-.2,0-.36-.1-.36-.22s.16-.22.36-.22.36.1.36.22-.16.22-.36.22ZM57.88,38.36c-.2,0-.36-.1-.36-.22s.16-.22.36-.22.36.1.36.22-.16.22-.36.22ZM61.09,38.55c-.19.12-.78-.22-1.31-.76-.92-.92-.91-.93.35-.21.72.42,1.16.85.96.96ZM59.4,33.66h0c.24.14.31.62.16,1.06-.25.76-.29.76-.81-.03-.55-.84-.13-1.5.65-1.03ZM58.97,39.46c.4.15.73.94.73,1.75s-.33,1.6-.73,1.75c-.45.17-.73-.51-.73-1.75s.28-1.92.73-1.75Z"/>
  <path d="M69.11,66.92c2.86-.98,2.99-2.28.23-2.32-1.77-.03-1.84-.07-.55-.41,1-.26-.13-.38-3.64-.4-5.62-.03-7.24.35-7.36,1.71-.05.5.09.8.29.68s1.88.61,3.71,1.62h0c2.78,1.54,3.38,1.72,3.59,1.06.16-.49.66-.7,1.32-.55.6.14.87.06.62-.19-.25-.24.55-.78,1.78-1.2ZM66.68,66.6c-2.48,1.28-2.38,1.27-3.13.47-.32-.34-.91-.67-1.31-.73-3.31-.5-2.45-1.33,1.15-1.11,2.17.13,4.27.25,4.67.26s-.22.51-1.39,1.11Z"/>
  <path d="M55.33,72.94c.4,0,.75.34.79.77h0c.03.46.21.55.42.22.2-.3.79-.55,1.31-.55,1.15,0,3.61-2.1,3.74-3.19.05-.43-.07-.69-.26-.57s-1.16-.37-2.15-1.08c-2.39-1.71-3.13-1.31-3.14,1.69,0,1.77-.22,2.3-.72,1.83-.6-.56-.71-.55-.72.11,0,.42.32.77.72.77ZM58.61,72.94c-.2,0-.36-.1-.36-.22s.16-.22.36-.22.36.1.36.22-.16.22-.36.22ZM57.68,70.23c.06-1.24,2.02-.7,2.02.56h0c0,.17-.47.42-1.04.55-.77.18-1.03-.11-.98-1.11Z"/>
  <path d="M74.7,69.54c.63-1.9-1.97-2.37-4.69-.86-1.06.59-2.55,1.2-3.31,1.36-1.34.28-1.34.31-.02,1.19.74.49,1.03.83.65.76-.26-.05-.48,0-.61.1.15.03.27.1.27.19s-.11.16-.25.19c.17.11.48.16.85.11.63-.09.8.06.45.4-.34.33-.25.42.25.24.44-.16,1.39.19,2.11.79h0c2.28,1.88,3.87,1.46,3.87-1.02,0-1.17.2-2.73.44-3.46ZM72.68,72.46l-.24,1.44-1.78-1.14c-1.44-.92-3.08-3.1-1.73-2.29.21.13,1.17-.3,2.13-.94,1.09-.73,1.58-.89,1.3-.41-.24.42-.8.77-1.23.77s-.21.25.5.57c.89.39,1.21,1.01,1.05,2.01Z"/>
  <path d="M55.57,52.81c0,1.56.13,2.2.29,1.42s.16-2.06,0-2.85-.29-.14-.29,1.42Z"/>
  <path d="M177.26,46.07c-3.83-.36-5.46.23-4.14,1.51.77.75.78,1.05.03,1.59-.76.55-.71.76.27,1.19h0c1.31.58,6.16.4,6.83-.25.83-.81-1.23-1.65-3.41-1.39-1.34.16-2.12.07-2.12-.24,0-.27,1.15-.49,2.57-.49,4.57,0,4.55-1.5-.02-1.92ZM178.71,49.31c.2,0,.36.1.36.22s-.16.22-.36.22-.36-.1-.36-.22.16-.22.36-.22ZM175.97,49.92h0c.24.15-.19.25-.96.23-.85-.02-1.02-.12-.44-.26.53-.13,1.15-.11,1.4.03ZM176.16,47.12c-.53,0-.75-.13-.49-.29.27-.16.7-.16.97,0,.27.16.05.29-.49.29ZM178.71,47.12c-.25.24-.61.44-.81.44s-.16-.2.09-.44c.25-.24.61-.44.81-.44s.16.2-.09.44Z"/>
  <path d="M131.04,97.02c-1.45.56-.39.52,3.97-.17,3.58-.57,5.38-1.57,2.83-1.59-1.01,0-1.1-.1-.37-.38.67-.26.06-.51-2-.82-1.63-.25-2.8-.29-2.6-.1.53.51-3.75,1.02-8.21.97-2.11-.02-3.66.13-3.45.33.21.2-.01.44-.49.54-1.45.29-.04,1.65,1.74,1.68,1.58.03,1.59.05.2.43-1.02.28-.57.32,1.46.13,4.31-.39,5.55-1.51,1.59-1.43-1.54.03-1.54.04-.14.41.92.24,1.05.38.36.38-1.68,0-4.34-.74-2.79-.78.67-.02,1.35-.27,1.51-.57.24-.43.71-.43,2.28,0,1.09.3,2.7.55,3.58.55,1.3,0,1.4.09.51.43ZM133.22,96.58c-.53,0-.75-.13-.49-.29.27-.16.7-.16.97,0,.27.16.05.29-.49.29ZM137.39,95.88h0c.24.15-.19.25-.96.23-.85-.02-1.02-.12-.44-.26.53-.13,1.15-.11,1.4.03ZM134.92,94.54c.27-.16.7-.16.97,0,.27.16.05.29-.49.29s-.75-.13-.49-.29ZM133.58,95.27c.96.25,1.08.38.36.4-.6.01-1.58-.17-2.18-.4-1.33-.52-.18-.52,1.82,0ZM128.12,95.7c-.53,0-.75-.13-.49-.29s.7-.16.97,0c.27.16.05.29-.49.29ZM130.61,96.11c-.85-.02-1.02-.12-.44-.26.53-.13,1.15-.11,1.4.03h0c.24.15-.19.25-.96.23Z"/>
  <path d="M143.27,74.68c2.06-1.16,2.05-1.54-.02-.66-2.51,1.06-2.75.87-2.76-2.05,0-1.93-.22-2.54-.72-2.08-.8.74-.99,4.95-.24,5.4h0c.86.52,2.11.31,3.74-.6Z"/>
  <path d="M153.45,68.82l-.22-1.35-6.28-.13c-6.77-.14-9.05.57-5.21,1.62,2.05.56,3.35.23,1.65-.42-.72-.27.53-.41,3.84-.41,5.69,0,6.6.83,2.76,2.54-2.65,1.18-3.08,1.19-4.23.08-.5-.48-1.24-.88-1.65-.88s-.02.59.87,1.31h0c1.97,1.6,2.1,1.6,5.76.15,2.51-1,2.9-1.36,2.71-2.52Z"/>
  <path d="M152.14,75.25c0-.25-.49-.7-1.08-.99-.6-.3-.9-.72-.68-.93.22-.21-.07-.39-.64-.39-.99,0-1.51,1.95-.74,2.74.69.7,1.04.28.56-.66-.51-.98-.5-.98,1.04-.15.85.46,1.55.63,1.55.38Z"/>
  <path d="M98.28,70.66c0-.19-1.72-.32-3.82-.29-3.39.05-3.54.09-1.27.33h0c3.49.38,5.1.36,5.1-.05Z"/>
  <path d="M172.79,44.72c.72,1.12,6.65.73,6.65-.44,0-.77-.4-.86-3.28-.72-3.81.18-3.97.23-3.37,1.17h0ZM178.71,44.05c.2,0,.36.1.36.22s-.16.22-.36.22-.36-.1-.36-.22.16-.22.36-.22ZM174.57,44.19c.53-.13,1.15-.11,1.4.03h0c.24.15-.19.25-.96.23-.85-.02-1.02-.12-.44-.26Z"/>
  <path d="M149.55,84.76c-.62,0-.93-.2-.68-.44.26-.26-.49-.44-1.82-.44s-2.08.18-1.82.43c.25.24-.03.32-.64.18-.94-.22-1.17.87-.49,2.34h0c.03.06,1.22.11,2.64.11,1.54,0,2.41-.18,2.14-.44-.25-.24.06-.44.68-.44s1.13-.3,1.13-.66-.51-.66-1.13-.66ZM144.5,86.51c-.2,0-.36-.1-.36-.22s.16-.22.36-.22.36.1.36.22-.16.22-.36.22ZM147.05,85.64c-.53,0-.75-.13-.49-.29.27-.16.7-.16.97,0,.27.16.05.29-.49.29Z"/>
  <path d="M154.51,56.75c-.3,0-.64-1.72-.74-3.83-.23-4.39-1.03-6.94-2.15-6.8-.43.05-.61-.28-.42-.73.53-1.21-1.59-1.67-7.42-1.61-4.87.05-7.53,1.24-4.24,1.9.54.11.71-.16.46-.73-.42-.97-.24-1.04,1.54-.63.63.15,1.13.69,1.1,1.2-.05.91-.07.91-.68.06-.56-.79-1.07-.35-.84.72.03.16-.6.18-1.4.05-1.38-.22-1.45-.05-1.25,3,.19,2.91.36,3.22,1.66,3.15,1.39-.07,1.38-.05-.1.66-5.07,2.42-2.26,8.46,3.76,8.08,2.75-.17,4-.09,4,.25h0c0,.27.49.5,1.09.5s1.09-.2,1.09-.45.77-.33,1.82-.17c1.75.26,1.82.19,1.82-1.77,0-1.25.28-1.94.73-1.77.4.15.73-.04.73-.41s-.25-.68-.55-.68ZM151.9,48.14c.27.16.27.42,0,.58-.27.16-.49.03-.49-.29s.22-.45.49-.29ZM151.19,49.85c.18.42.18,1.11,0,1.53-.18.42-.33.08-.33-.77s.15-1.19.33-.77ZM150.89,47.56c-.44.36-.91,1.31-1.05,2.1-.23,1.4-.27,1.41-1.22.49-.88-.85-.77-1.07,1.05-2.1,1.11-.63,1.66-.85,1.22-.49ZM148.87,47.12c-.72.48-1.48.88-1.68.88s.23-.39.95-.88c.72-.48,1.48-.88,1.68-.88s-.23.39-.95.88ZM144.99,45.5c.27-.85,3.26-1.33,4.33-.69.38.23-.25.91-1.52,1.64-2.28,1.31-3.41.93-2.81-.94ZM140.66,50.78c-.31.11-.56-.55-.56-1.47s.25-1.59.56-1.47.56.78.56,1.47-.25,1.36-.56,1.47ZM141.02,59.05c-.16.78-.29.03-.29-1.65,0-1.69.13-2.32.29-1.41h0c.16.91.15,2.29,0,3.06ZM140.86,54.12c-.2,0-.36-.1-.36-.22s.16-.22.36-.22.36.1.36.22-.16.22-.36.22ZM142.49,58.37c-.15,1.15-.27.32-.28-1.85,0-2.17.12-3.11.27-2.09h0c.15,1.02.15,2.79,0,3.94ZM145.2,55.46c-.62.61-1.06.49-1.06-.27,0-.38.33-.56.74-.41s.55.46.32.68ZM145.23,54.12c-.2,0-.36-.1-.36-.22s.16-.22.36-.22.36.1.36.22-.16.22-.36.22ZM144.92,52.11c.03-.51.21-.61.44-.26.21.32.18.69-.06.84s-.41-.11-.38-.57ZM147.27,53.39h0c.26.4.15.73-.24.73s-.71-.52-.71-1.15c0-.97.17-1.06,1.09-.6,1.29.65,1.46,1.06.24.61-.57-.21-.7-.08-.39.41ZM149.67,59.25c-.24.15-.41-.11-.38-.57.03-.51.21-.61.44-.26.21.32.18.69-.06.84ZM149.72,57.04c-.27.16-.49.03-.49-.29s.22-.45.49-.29c.27.16.27.42,0,.58ZM151.05,60.25c-.2,0-.36-.1-.36-.22s.16-.22.36-.22.36.1.36.22-.16.22-.36.22ZM150.86,58.06c0-.84.15-1.19.33-.77.18.42.18,1.11,0,1.53-.18.42-.33.08-.33-.77ZM150.64,55.82c-1.23-1.2-2.87,0-2.75,2.01h0c.07,1.09-.09,2.11-.36,2.27s-.49-.58-.49-1.64c0-1.06-.19-2.34-.42-2.85-.36-.81-.15-.89,1.83-.72,3.12.28,2.98-.96-.36-3.08-3.04-1.93-2.96-1.92-5.36-.66l-1.87.98,1.64-1.12c.9-.62,1.64-1.35,1.64-1.62s-.74-.92-1.64-1.42c-1.13-.63-1.26-.83-.41-.64.97.22,1.29-.02,1.53-1.18l.3-1.46.04,1.53c.07,2.66.12,2.74,1.55,2.51,1.01-.16,1.28-.02,1.04.52-.19.44.97,1.58,2.93,2.87,2.87,1.88,3.16,2.25,2.47,3.16-.52.68-.96.86-1.31.52ZM148.5,53.9c0-.12.16-.22.36-.22s.36.1.36.22-.16.22-.36.22-.36-.1-.36-.22ZM141.95,49.31c0-.32.22-.45.49-.29.27.16.27.42,0,.58-.27.16-.49.03-.49-.29ZM152.51,60.69c-.2,0-.36-.1-.36-.22s.16-.22.36-.22.36.1.36.22-.16.22-.36.22ZM152.51,57.18c-.2,0-.36-.1-.36-.22s.16-.22.36-.22.36.1.36.22-.16.22-.36.22ZM152.51,53.25c-.2,0-.36-.1-.36-.22s.16-.22.36-.22.36.1.36.22-.16.22-.36.22Z"/>
  <path d="M84.45,60.12c-1.49.23-2.09,1.88-.69,1.88.42,0,.57.2.32.44h0c-.25.25.33.44,1.33.44,1.88,0,2.9-.89,2.22-1.94-.23-.36-.89-.52-1.55-.36-.72.17-.97.09-.67-.21.31-.3-.05-.39-.97-.24ZM84.81,61.56c-.2,0-.36-.1-.36-.22s.16-.22.36-.22.36.1.36.22-.16.22-.36.22Z"/>
  <path d="M100.1,62.44c.62-1.17-.1-1.75-2.15-1.75-1.82,0-2.8.9-2.12,1.97h0c.62.98,3.72.82,4.26-.21Z"/>
  <path d="M123.51,63.09c.45-.85-3.43-1.57-4.62-.86-.58.35-.84.84-.58,1.1h0c.58.57,4.87.37,5.19-.24Z"/>
  <path d="M104.95,67.73c.13-.22,3.19-.53,6.79-.69,7.01-.32,6.84-.32,16.74.13l6.55.3-.13,6.35c-.14,6.83.68,5.52,1.52-2.44.58-5.47,3.43-4.83-25.03-5.6-6.6-.18-12.16-.49-12.37-.68-.21-.2-3.49-.31-7.3-.25-4.02.06-6.15-.03-5.1-.23,1.36-.25.8-.35-2.28-.38-2.65-.03-4.39.17-4.92.55-.99.72-1.54,5.09-.64,5.09.35,0,.61,1.33.57,2.95-.03,1.63.35,4.38.85,6.13h0c1.25,4.36,1.89,3.99,1.06-.62-.49-2.77-.44-4.01.18-4.61.47-.45.66-1.01.42-1.24-.24-.23-.07-.42.38-.42s.58-.23.3-.5c-.35-.35.08-.43,1.39-.28,1.05.12,1.73.05,1.52-.16-.21-.21.84-.37,2.33-.37s2.48-.14,2.21-.3c-.7-.42-6.23-.18-7.86.34-1.23.4-1.34.22-1.34-2.21v-2.64h8.49c8.67,0,11.06.3,3.86.49-5.42.14-6.53.36-6.53,1.28,0,.43-.41.89-.91,1.01-.64.16-.66.23-.05.26.47.02,1.41-.3,2.08-.7,1.77-1.06,8.34-1.3,11.31-.41,1.3.39,2.51.62,2.68.52.56-.34-.65-1.17-2.27-1.57-1.04-.25.49-.36,4.62-.33,3.4.03,4.82.12,3.16.21-2.52.14-5.4,1.43-3.19,1.43.35,0,.75-.18.89-.39Z"/>
  <path d="M120.75,84.91c-.65.12-1.53.01-1.95-.24-1.36-.82-4.16-.34-5.62.53,0,0,.01,0,.02,0,.2,0,.36.1.36.22s-.16.22-.36.22-.34-.09-.36-.21c-.52.4-.76.85-.47,1.3h0c.69,1.08,7.02.91,7.02-.2,0-.47.57-1.08,1.27-1.35,1.04-.4,1.05-.45.09-.27ZM113.2,86.95c-.2,0-.36-.1-.36-.22s.16-.22.36-.22.36.1.36.22-.16.22-.36.22ZM116.48,85.13c-1,0-1.41-.1-.91-.22.5-.12,1.32-.12,1.82,0h0c.5.12.09.22-.91.22Z"/>
  <path d="M87.72,91.72h0c0,1.18.24,2.05.55,1.94.71-.27.72-4.09,0-4.09-.3,0-.55.97-.55,2.15Z"/>
  <path d="M62.29,146.79c1.06-.59,1.62-1.2,1.24-1.34s-1.37.18-2.19.71c-2.71,1.76-14.72,11.03-14.73,11.37,0,.7,1.44.28,2.27-.66,1.21-1.37,11.06-8.77,13.41-10.08Z"/>
  <path d="M58.36,2.27c-4.24.06-8.12.31-8.12.74h0c0,.25.7.31,1.64.14.9-.17,1.97-.29,2.37-.28,1.38.04,2.83.08,4.25.1-.06-.23-.1-.46-.13-.7Z"/>
  <path d="M6.49,63.47c8.19.28,9.41.47,5.95.93-1.93.25-2.3.54-2.7,2.05-.26.96-.91,1.86-1.46,1.98-1.33.31-1.26,1.41.1,1.73,1.68.39,1.29,1.46-.55,1.53l-1.64.06,1.64.19c1.41.16,1.64.46,1.64,2.16,0,3.04-3.17,2.69-3.5-.38-.28-2.66-7.42-5.36-7.42-2.8,0,.4.6.53,1.82.39,2.68-.31,4,.59,4,2.72,0,1.49.33,1.95,1.72,2.4,3.55,1.14,4.44.56,4.68-3.03.15-2.24.43-3.07.9-2.62.54.51.68.44.69-.36,0-.56-.31-.89-.72-.74-.43.16-.73-.3-.73-1.09s.3-1.25.73-1.09c.64.24,1.11-1.06.78-2.14-.07-.22,1.4-.26,3.29-.11,1.88.15,5.25.28,7.5.29,3.01,0,3.8.12,2.99.45-.79.32-.34.37,1.61.17,3.14-.33,4.98.46,4.87,2.08q-.07,1.01-.71-.08c-.51-.88-.56-.8-.23.44.22.84.57,2.66.77,4.04.39,2.69,3.15,3.14,3.15.51,0-.72.29-1,.84-.79.51.19.64.12.34-.17-.59-.57,1.72-1.4,3.9-1.4,2.68,0,5.83,1.25,5.84,2.31,0,.54.62,1.59,1.38,2.34,1.06,1.04,1.34,2.05,1.21,4.28h0c-.1,1.61.07,2.77.38,2.58.62-.38,1.38-5.94,1.36-9.98,0-1.91.19-2.45.73-1.97.53.47.74-.31.75-2.76,0-2.17-.25-3.32-.72-3.15-.4.15-.73.06-.73-.19,0-.28-1.99-.48-4.91-.51-3.8-.03-4.5-.13-3.09-.43,1.17-.25-1.04-.32-6.18-.19-5.34.13-7.64.05-6.92-.23.72-.28-1.85-.35-7.65-.19-6.22.17-8.32.1-7.28-.22,1.03-.32-1.06-.38-7.25-.21-8.09.23-9.84.38-9.07.81.17.09,3.71.28,7.87.43ZM9.84,69.44c-.2,0-.36-.1-.36-.22s.16-.22.36-.22.36.1.36.22-.16.22-.36.22ZM51.46,68.48c.21.32.18.69-.06.84s-.41-.11-.38-.57c.03-.51.21-.61.44-.26ZM34.59,73.82c-.25.24-.61.44-.81.44s-.16-.2.09-.44c.25-.24.61-.44.81-.44s.16.2-.09.44ZM40.41,63.31c.2,0,.36.1.36.22s-.16.22-.36.22-.36-.1-.36-.22.16-.22.36-.22ZM24.03,63.97c27.13.8,25.98.7,25.52,2.14-.07.22-.15,2.34-.19,4.71h0c-.04,2.37-.14,4.31-.24,4.31-.39,0-1.24-2.05-1.3-3.14-.04-.65-.34-1.07-.68-.95s-1.46-.11-2.5-.52c-2.41-.95-8.07-.66-9.47.49-.91.75-.96.74-1.07-.06-.06-.47-.16-1.15-.23-1.51s.14-1.1.46-1.64c.34-.58.28-.98-.14-.98-.39,0-.71-.37-.71-.82,0-.7-.79-.86-5.64-1.12-9.2-.49-11.95-1.14-3.82-.9Z"/>
  <path d="M171.8,75.57c-.75,0-1.02,1.43-.35,1.83h0c1.86,1.12,5.3-.8,4.02-2.24-.93-1.05-2.94-1.22-2.94-.25,0,.36-.33.66-.73.66ZM172.16,77.32c-.2,0-.36-.1-.36-.22s.16-.22.36-.22.36.1.36.22-.16.22-.36.22ZM173.62,74.69c.2,0,.36.1.36.22s-.16.22-.36.22-.36-.1-.36-.22.16-.22.36-.22Z"/>
  <path d="M217.97,69.88c3.08,0,3.33-.08,3.33-1.12,0-1.59-6.04-1.47-6.42.13-.21.9.06.98,3.09.98ZM217.69,68.43c2.56-.41,2.87-.37,2.87.36h0c0,.71-1,.79-3.24.26-1.31-.31-1.29-.35.36-.62Z"/>
  <path d="M224.54,33.48c-3.38.16-4.07.89-2.77,2.92.59.92,4.54.57,5.9-.53.5-.4.91-.57.91-.36s.18.27.39.14c1.52-.91-1.35-2.31-4.43-2.17ZM224.57,35.74c-1,0-1.82-.25-1.82-.56s.82-.6,1.82-.65c1.19-.06,1.82.13,1.82.56,0,.4-.69.65-1.82.65Z"/>
  <path d="M220.75,54.36c0,.97.29,1.07,3.23,1.07,1.81,0,3.04-.18,2.81-.41-.23-.22-.09-.53.32-.68,2.35-.87-1.38-2.09-4.44-1.45-1.36.29-1.91.71-1.91,1.47h0ZM223.84,53.68c.6,0,1.09.2,1.09.44s-.49.44-1.09.44-1.09-.2-1.09-.44.49-.44,1.09-.44Z"/>
  <path d="M229.59,62.69c.42.66,1.16.77,2.8.39,1.31-.3.78-2.83-.6-2.83-1.26,0-2.73,1.63-2.21,2.44Z"/>
  <path d="M242.4,68.57c0-1.16-.25-1.31-2.14-1.31-2.47,0-3.24.52-2.59,1.75.82,1.56,4.73,1.19,4.73-.44ZM239.9,69c-.62,0-1.13-.2-1.13-.44s.31-.44.68-.44.89.2,1.13.44-.06.44-.68.44Z"/>
  <path d="M224.57,81.7c-.26.26.48.44,1.78.44,1.39,0,2.16-.2,2.04-.55-.1-.3.23-.5.73-.44.5.06.91-.1.91-.36,0-.55-1.87-1.76-2.32-1.49-.17.1-1.35.23-2.63.29-2.43.11-3.54,1.67-1.19,1.67.62,0,.93.2.68.44h0ZM225.91,80.53c.27-.16.7-.16.97,0s.05.29-.49.29-.75-.13-.49-.29Z"/>
  <path d="M242.4,53.68c-.52.48-.71.5-.72.08,0-.37-.73-.53-2.01-.44-2.34.16-2.87,1.73-.66,1.92.74.07,1.51.22,1.71.34h0c.89.54,2.41-.35,2.4-1.41,0-.91-.16-1.02-.72-.5ZM239.13,54.56c-.2,0-.36-.1-.36-.22s.16-.22.36-.22.36.1.36.22-.16.22-.36.22ZM240.58,54.56c-.2,0-.36-.1-.36-.22s.16-.22.36-.22.36.1.36.22-.16.22-.36.22Z"/>
  <path d="M230.03,54.78h0c1.62,1.17,4.7.5,4.25-.93-.33-1.04-2.99-1.3-4.22-.41-.75.54-.75.81-.03,1.33Z"/>
  <path d="M219.81,85.04c2.28.05,2.89-.11,3.2-.84.39-.9-.5-2.39-1.3-2.18-1.34.35-2.91.08-1.87-.33.88-.34.76-.43-.59-.43-.92,0-1.5.17-1.28.39s-.09.5-.68.64c-1.31.3-1.45,2.51-.21,3.25h0c.48.29,1.54.5,2.37.47,1.46-.05,1.46-.06.04-.26-2.69-.39-2.5-.78.33-.72ZM218.38,83.71c0-.09.49-.29,1.09-.42s1.09-.06,1.09.17-.49.42-1.09.42-1.09-.08-1.09-.17Z"/>
  <path d="M227.35,70.02c.99-1,.23-2.43-1.49-2.81-2.67-.59-3.62,2.25-.98,2.93,1.46.38,2,.35,2.47-.12ZM226.24,69.06c-.25.44-.42.44-.88,0-.61-.59,0-1.26.74-.82h0c.24.15.3.51.13.82Z"/>
  <path d="M228.26,63.17c.55-.87-1.02-3.02-2.06-2.81-1.02.2-1.59,1.82-.99,2.77h0c.5.79,2.55.82,3.04.04Z"/>
  <path d="M221.25,47.17c-.65.73-.61,1.01.16,1.31,1.91.73,6.44.46,6.46-.38,0-.65.11-.67.72-.11.57.53.71.46.72-.35,0-.56-.31-.89-.72-.74-.4.15-.73.06-.73-.19,0-.94-5.71-.53-6.6.47ZM226.15,47.26c.27.16.27.42,0,.58-.27.16-.49.03-.49-.29s.22-.45.49-.29ZM223.84,47.56c.2,0,.36.1.36.22s-.16.22-.36.22-.36-.1-.36-.22.16-.22.36-.22Z"/>
  <path d="M229.71,69.77c.76,1.5,4.21.19,3.56-1.36-.39-.94-.87-1.15-2.48-1.07-2,.09-2.12.36-1.08,2.43Z"/>
  <path d="M178.53,67.52c1.73-.79,1.6-1.42-.36-1.74-4.43-.71-6.71.04-4.51,1.5,1.48.98,3.07,1.06,4.87.24ZM176.41,66.5c2.05.03,2.32.14,1.54.61-1.22.73-2.12.72-3.18-.04-.7-.51-.41-.61,1.64-.57Z"/>
  <path d="M132.13,16.48c.28-.27-.88-.42-3.05-.39-3.11.05-3.26.09-1.32.39,3.19.49,3.87.49,4.37,0Z"/>
  <path d="M106.3,14.31c-.74.26.08.38,2.53.36,3.51-.03,3.55-.04,1.11-.39-1.41-.2-3.03-.18-3.64.03Z"/>
  <path d="M179.8,84.76c-.61.57-.71.56-.72-.08-.03-1.71-3.63-2.4-6.24-1.19-.42.2-1.53.24-2.46.09-1.26-.2-1.6-.11-1.33.35.2.34.74.56,1.19.5.45-.06.82.09.82.33s-.27.44-.59.44-.6.88-.6,1.95h0c-.01,1.69.11,1.85.93,1.2.52-.41.96-1.16.97-1.66.01-.5.5-.91,1.08-.91s.89.16.68.36c-.21.2.65.36,1.89.36,1.55,0,2.1-.16,1.74-.51-.35-.34-.14-.42.6-.25,1.18.27,2.76-.41,2.74-1.18,0-.25-.33-.16-.72.2ZM173.98,83.89c-.53,0-.75-.13-.49-.29.27-.16.7-.16.97,0s.05.29-.49.29Z"/>
  <path d="M75.25,10.82c-2.44-1.15-4.63-1.19-4.63-.07,0,1.05-3.35,1.79-8.12,1.79h-3.53v-1.53c0-1.87-.51-1.89-4.92-.23-2.21.83-2.97,1.31-2.1,1.31,1.14,0,1.28.23.88,1.43-.26.78-.56,1.82-.66,2.3-.94,4.49-17.86,17.13-29.24,21.83-5.92,2.45-19.49,7.12-23.02,7.93-1.21.28-1.69,2.41-.55,2.41.35,0,.64.9.64,2,0,1.32-.27,1.9-.79,1.7-.5-.19-.7.08-.55.74.24,1.03,4.25,1.87,4.25.89,0-.87,2.92-.89,3.69-.03.65.73,1.25.81,4.36.56,2.47-.2,3.6-.13,3.6.21,0,.27.35.49.77.49s.62-.15.44-.33c-.18-.18.13-.58.68-.89.84-.46,1.02-.44,1.02.11,0,.39.63.67,1.5.67s1.3.2,1.05.44c-.58.56,3.32.57,5.77.01,2.01-.46,4.3-.16,3.65.47-.48.47,2.38.47,4.4,0,1.55-.36,4.19-.12,3.71.34-.16.15,1.19.21,3,.12s4.06.09,5,.39c1.22.39,2.61.44,4.83.16l3.12-.4-.09-3.5c-.06-2.18.22-3.62.73-3.82.58-.23.56-.32-.09-.33-.65,0-.88-.86-.81-2.96.09-2.69.15-2.8.67-1.2.31.96.45-3.47.3-9.85-.16-7.13-.02-11.01.37-10.07.35.84.53,2.62.41,3.94s-.07,2.05.12,1.61c.2-.47.76-.7,1.37-.56,1.28.29,3.33-.14,2.85-.61-.19-.19.14-.59.73-.88,1.7-.85,1.4.53-.39,1.77-2.25,1.56-1.48,1.88,4.49,1.88,5.93,0,8.22-.41,6.17-1.1-.65-.22-1.18-.64-1.17-.92,0-.36.21-.34.64.07.84.8,3.72.23,3.71-.73,0-.64-.11-.65-.75-.08-.52.46-.69-.81-.56-4.26.2-5.35-.5-6.67-2.6-4.87-.65.56-1.18,1.23-1.18,1.5s-.68.96-1.51,1.54c-.87.61-1.38,1.45-1.21,2,.2.64,0,.88-.62.74-.51-.12-1.29.2-1.74.71-.45.51-1.15.8-1.56.65-.46-.17-.28-.58.46-1.07,1.34-.89,1.18-2.9-.21-2.73-.5.06-.88-.32-.87-.88l.02-.98,1.41,1.02c1.33.96,1.51.98,3.07.32.91-.38,1.52-.74,1.34-.8s.27-.64.99-1.3c2.07-1.9,1.11-2.59-3.39-2.43l-3.83.13.12,1.53.12,1.53-1.06-1.2c-2.11-2.41-3.19-1.54-3.19,2.59,0,2.09-.17,3.69-.37,3.57s-.4-1.73-.43-3.58c-.03-1.84-.32-3.25-.64-3.13-.93.34-1.2-.64-1.15-4.16.04-2.61.27-3.28,1.14-3.28.6,0,1.37-.2,1.7-.44.35-.25.46-.04.27.5-.19.52-.13,1.13.12,1.36.59.54,9.56,1.1,9.56.6,0-.21.99-.5,2.2-.64,1.35-.16,2.46-.65,2.87-1.26.37-.55.68-.75.71-.46.03.29.52.42,1.11.29.73-.17,1.19.14,1.48,1,.23.68.72,1.81,1.1,2.51.38.7.48,1.47.23,1.71-.25.24-.11.31.31.16.42-.16.96.03,1.2.41.61.95.46,1.89-.16,1-.37-.54-.9-.62-2.16-.34-1.41.32-1.55.51-.88,1.26.78.87.98,4.06.88,14.13-.03,3.6.19,5.06.74,4.86.53-.2.63.05.31.76-1.37,2.99-1.41,3.15-.58,2.84.59-.22.86.5.91,2.45q.35,13.47,3.93,13.49c1.35,0,2.65.18,2.87.4.22.22,1.11.29,1.98.15.96-.15,1.39-.08,1.11.2-.3.29,1.41.38,4.98.26,3.19-.11,5.44-.02,5.44.23s3.91.43,9.28.45c5.1.02,10.59.15,12.19.29s5.04.37,7.64.51c2.6.14,4.97.47,5.27.74.37.34.54.31.55-.09,0-.41.62-.5,2.11-.31,2.63.35,2.72.03,2.4-8.22-.22-5.57-.33-6-1.46-5.48-1.13.53-1.13.51-.02-.3.92-.66,1.32-2.27,1.72-6.83.52-5.92,1.22-7.95,2.21-6.39,1.12,1.76,11.74.85,12.9-1.1.7-1.18,1.47.21,1.68,3.04.12,1.63.44,3.32.72,3.75s.33,1.57.12,2.52c-.22.98-.1,1.62.27,1.49.36-.13.66.56.66,1.55s.49,2.36,1.08,3.06c.69.8.81,1.31.32,1.41-.95.19-1.31,12.31-.39,12.87.36.22,2.41.33,4.55.24,2.64-.1,3.9.02,3.9.36h0c0,.28.41.43.91.33,1.57-.31,1.6-5.51.04-6.61-1.07-.76-1.09-.82-.09-.36,1.57.73,2.82-.49,2.69-2.63l-.09-1.45-.61,1.31-.61,1.31.26-1.31c.15-.72.49-1.81.76-2.41.38-.85.32-.95-.28-.44-.63.53-.78.43-.79-.55,0-.66.32-1.2.72-1.2.43,0,.73-1.54.73-3.75,0-2.39-.26-3.65-.73-3.48-.83.31-.99-.35-.2-.83.29-.17.54-1.44.55-2.81l.02-2.49,3.64-.07c6.63-.13,8.54-.54,8.05-1.73-.24-.57-.14-1.04.22-1.04.66,0,.52-5.56-.21-8.21-.22-.78-.08-1.42.3-1.42.67,0,.23-9.62-.46-10.05-.18-.11-1.59-.15-3.15-.08-1.72.07-3.55-.16-4.68-.61-1.02-.4-2.27-.64-2.78-.54-1.45.29,3.84,1.61,6.94,1.72l2.77.1-.18,5.6c-.1,3.08-.47,5.6-.81,5.6s-.43-.2-.18-.44c.25-.24-.03-.44-.61-.44-1.13,0-2.13,1.06-1.41,1.49.24.14,1.02.26,1.74.26,1.18,0,1.27.37.95,4.03-.42,4.8.15,4.35-6.08,4.7-6.48.36-5.86-.64-6.36,10.15-.24,5.15-.5,9.41-.58,9.47-.08.06-1.21-.78-2.5-1.86s-2.09-1.97-1.76-1.98c.33,0,.25-.15-.17-.33-2.71-1.14-3.77-3.08-4.61-8.42-1.18-7.53-1.49-8.88-2.2-9.57-.88-.85-3.71-.21-3.71.84,0,.76-.54.85-5.1.85-4.04,0-5.1-.14-5.1-.66,0-.77-2.59-.89-3.34-.16-.28.28-.8,3.28-1.14,6.67-.7,6.9-1.32,7.8-8.79,12.75l-3.3,2.19-4.27-2.4c-8.18-4.61-11.37-6.57-10.73-6.58.35,0,.05-.22-.68-.48-3.79-1.33-19.69-15.81-25.52-23.25-5.04-6.43-5.54-7.19-5.54-8.36,0-.67-.75-1.46-1.92-2.01ZM1.25,50.73c-.17.54-.31,0-.3-1.21,0-1.2.15-1.64.31-.98h0c.17.67.16,1.65-.01,2.19ZM1.1,46.68c-.2,0-.36-.1-.36-.22s.16-.22.36-.22.36.1.36.22-.16.22-.36.22ZM2.56,45.8c.2,0,.36.1.36.22s-.16.22-.36.22-.36-.1-.36-.22.16-.22.36-.22ZM3.68,48.69l-.73,1.71.31-1.65c.22-1.19.07-1.57-.56-1.36-.62.21-.61.13.03-.29.49-.32,1.07-.48,1.29-.35s.06,1-.34,1.94ZM4.87,50.04c-.27.16-.49.03-.49-.29s.22-.45.49-.29c.27.16.27.42,0,.58ZM4.74,45.37c-.2,0-.36-.1-.36-.22s.16-.22.36-.22.36.1.36.22-.16.22-.36.22ZM15.66,41.43c.2,0,.36.1.36.22s-.16.22-.36.22-.36-.1-.36-.22.16-.22.36-.22ZM13.48,42.3c.25-.24.61-.44.81-.44s.16.2-.09.44c-.25.24-.61.44-.81.44s-.16-.2.09-.44ZM12.02,42.74c.2,0,.36.1.36.22s-.16.22-.36.22-.36-.1-.36-.22.16-.22.36-.22ZM6.93,46.24c-.2,0-.36-.1-.36-.22s.16-.22.36-.22.36.1.36.22-.16.22-.36.22ZM7.66,44.49c-.25.24-.61.44-.81.44s-.16-.2.09-.44c.25-.24.61-.44.81-.44s.16.2-.09.44ZM8.5,45.51c.27.16.27.42,0,.58-.27.16-.49.03-.49-.29s.22-.45.49-.29ZM8.52,48.76c-.18.42-.33.08-.33-.77s.15-1.19.33-.77h0c.18.42.18,1.11,0,1.53ZM8.38,52.81c-.2,0-.36-.1-.36-.22s.16-.22.36-.22.36.1.36.22-.16.22-.36.22ZM9.84,50.18c-.2,0-.36-.1-.36-.22s.16-.22.36-.22.36.1.36.22-.16.22-.36.22ZM9.84,49.31c-.2,0-.36-.1-.36-.22s.16-.22.36-.22.36.1.36.22-.16.22-.36.22ZM9.84,48.43c-.2,0-.36-.1-.36-.22s.16-.22.36-.22.36.1.36.22-.16.22-.36.22ZM9.64,46.24c0-.84.15-1.19.33-.77s.18,1.11,0,1.53-.33.08-.33-.77ZM10.57,43.62c-.25.24-.61.44-.81.44s-.16-.2.09-.44c.25-.24.61-.44.81-.44s.16.2-.09.44ZM11.3,51.93c-.2,0-.36-.1-.36-.22s.16-.22.36-.22.36.1.36.22-.16.22-.36.22ZM11.3,51.06c-.2,0-.36-.1-.36-.22s.16-.22.36-.22.36.1.36.22-.16.22-.36.22ZM14.21,51.49c-.2,0-.36-.1-.36-.22s.16-.22.36-.22.36.1.36.22-.16.22-.36.22ZM13.8,45.99c.07.22-.08,1.14-.33,2.04h0c-.86,3.07-2.63,2.53-2.39-.72.2-2.69.35-2.91,2.58-3.76l2.37-.9-.08,1.25c-.05.74-.22.94-.42.48-.73-1.69-2.31-.22-1.73,1.61ZM15.78,47.23c-.2.3-.35-.05-.34-.77s.18-.96.36-.54h0c.18.43.17,1.02-.03,1.31ZM15.78,52.49c-.2.3-.35-.05-.34-.77s.18-.96.36-.54h0c.18.43.17,1.02-.03,1.31ZM15.66,48.87c-.2,0-.36-.1-.36-.22s.16-.22.36-.22.36.1.36.22-.16.22-.36.22ZM18.73,45.7c-.17.66-.3.01-.29-1.43,0-1.44.14-1.98.3-1.2.16.79.16,1.97,0,2.63ZM17.7,41.18c-1.04.24-1.12.19-.41-.25.49-.3,1.08-.43,1.31-.3.22.13-.18.38-.9.54ZM18.57,49.31c-.2,0-.36-.1-.36-.22s.16-.22.36-.22.36.1.36.22-.16.22-.36.22ZM23.67,38.36c.2,0,.36.1.36.22s-.16.22-.36.22-.36-.1-.36-.22.16-.22.36-.22ZM20.03,40.11c.25-.24.61-.44.81-.44s.16.2-.09.44c-.25.24-.61.44-.81.44s-.16-.2.09-.44ZM20.03,47.55c.2,0,.36.1.36.22s-.16.22-.36.22-.36-.1-.36-.22.16-.22.36-.22ZM20.03,53.68c-.2,0-.36-.1-.36-.22s.16-.22.36-.22.36.1.36.22-.16.22-.36.22ZM22.21,53.68c-.6,0-1.09-.2-1.09-.44s.49-.44,1.09-.44,1.09.2,1.09.44-.49.44-1.09.44ZM22.98,48.98c1.22-.09,1.24-.06.17.22-.9.23-1.05.51-.56.98.38.36.7,1,.7,1.42,0,.42-.5.77-1.13.77-1.83,0-1.06-3.25.81-3.39ZM21.85,48.21c0-.12.16-.22.36-.22s.36.1.36.22-.16.22-.36.22-.36-.1-.36-.22ZM23.67,50.18c-.2,0-.36-.1-.36-.22s.16-.22.36-.22.36.1.36.22-.16.22-.36.22ZM24.17,43.05c-.11,3.05-.35,3.66-1.53,4.05-2.51.81-2.52-5.35-.02-6.79.74-.42,1.28-.72,1.69-.85l-.14,3.59h0ZM24.31,39.46c1.1-.35,1.16.55,1.05,3.61l-.14,3.83-.46-3.72-.46-3.72ZM25.13,47.55c-.2,0-.36-.1-.36-.22s.16-.22.36-.22.36.1.36.22-.16.22-.36.22ZM27.31,47.12c-.2,0-.36-.1-.36-.22s.16-.22.36-.22.36.1.36.22-.16.22-.36.22ZM33.84,47.5c-.13.39-.25,1.7-.29,2.92-.03,1.32-.52,2.56-1.21,3.06-.88.65-1.06.68-.78.13.28-.53.01-.66-1.03-.5-2.5.39-2.06-5.73.48-6.73,2.05-.81,3.29-.32,2.83,1.11ZM31.31,45.15c0-.12.16-.22.36-.22s.36.1.36.22-.16.22-.36.22-.36-.1-.36-.22ZM33.86,44.49c-.2,0-.36-.1-.36-.22s.16-.22.36-.22.36.1.36.22-.16.22-.36.22ZM34.07,38.94l-.21,4.28-2.37.9-2.37.9v-3.68c0-3.64.03-3.69,2.58-5.18l2.58-1.5-.21,4.28ZM30.62,35.5l-4.04,2.17,3.8-2.37c2.09-1.3,3.9-2.28,4.04-2.17s-1.58,1.17-3.8,2.37ZM35.49,40.66c-.15,1.26-.27.23-.27-2.3s.12-3.56.27-2.3c.15,1.26.15,3.33,0,4.6ZM52.06,18.23c.2,0,.36.1.36.22s-.16.22-.36.22-.36-.1-.36-.22.16-.22.36-.22ZM50.63,22.64c-.23-.22-.09-.53.32-.68.41-.15.74.03.74.41,0,.77-.44.88-1.06.27ZM50.97,43.4c0,.12-.16.22-.36.22s-.36-.1-.36-.22.16-.22.36-.22.36.1.36.22ZM51.33,19.54c.2,0,.36.1.36.22s-.16.22-.36.22-.36-.1-.36-.22.16-.22.36-.22ZM50.6,20.42c.2,0,.36.1.36.22s-.16.22-.36.22-.36-.1-.36-.22.16-.22.36-.22ZM49.15,21.73c.25-.24.61-.44.81-.44s.16.2-.09.44c-.25.24-.61.44-.81.44s-.16-.2.09-.44ZM47.69,23.04c.25-.24.61-.44.81-.44s.16.2-.09.44c-.25.24-.61.44-.81.44s-.16-.2.09-.44ZM41.32,28.24c1.15-.54,1.18-.53.27.17-.55.42-1.12.77-1.27.77-.6,0-.21-.36,1-.93ZM36.77,35.74c-.2,0-.36-.1-.36-.22s.16-.22.36-.22.36.1.36.22-.16.22-.36.22ZM36.77,33.99c.2,0,.36.1.36.22s-.16.22-.36.22-.36-.1-.36-.22.16-.22.36-.22ZM36.41,33.33c0-.12.16-.22.36-.22s.36.1.36.22-.16.22-.36.22-.36-.1-.36-.22ZM37.5,47.99c-.2,0-.36-.1-.36-.22s.16-.22.36-.22.36.1.36.22-.16.22-.36.22ZM37.5,44.05c-.2,0-.36-.1-.36-.22s.16-.22.36-.22.36.1.36.22-.16.22-.36.22ZM37.5,43.18c-.2,0-.36-.1-.36-.22s.16-.22.36-.22.36.1.36.22-.16.22-.36.22ZM36.33,32.23c-.35,0,.07-.49.94-1.09s1.69-1.09,1.83-1.09-.29.49-.94,1.09c-.66.6-1.48,1.09-1.83,1.09ZM40.72,30.48l2.18-1.53v5.03h-.01c-.01,5-.02,5.04-2.07,6.01l-2.06.97-.12-4.48c-.11-4.39-.07-4.51,2.07-6.01ZM40.78,41.21c0,.12-.16.22-.36.22s-.36-.1-.36-.22.16-.22.36-.22.36.1.36.22ZM40.71,48.25c-.04,1.18-.32,3.14-.63,4.34l-.57,2.19-.13-1.75c-.07-.96-.31-3.48-.54-5.58-.42-3.84.32-5.52,2.13-4.85.42.15.55.07.29-.18-.26-.25,0-.57.59-.71.9-.21,1.05.54.96,4.88-.08,3.81-.21,4.49-.53,2.64-.55-3.18-1.49-3.77-1.57-.98h0ZM41.14,54.56c-.2,0-.36-.1-.36-.22s.16-.22.36-.22.36.1.36.22-.16.22-.36.22ZM42.72,54.41c-.27.16-.49.03-.49-.29s.22-.45.49-.29.27.42,0,.58ZM43.24,27.42c-.2,0-.16-.2.09-.44s.61-.44.81-.44.16.2-.09.44c-.25.24-.61.44-.81.44ZM44.19,30.38c-.18.42-.32-.03-.32-.99,0-.96.16-1.31.33-.76h0c.17.54.17,1.33-.01,1.75ZM44.22,51.4c-.15,1.14-.27.09-.27-2.31,0-2.41.12-3.34.27-2.06h0c.15,1.27.15,3.24,0,4.38ZM43.86,41.86c0-.84.15-1.19.33-.77s.18,1.11,0,1.53-.33.08-.33-.77ZM44.05,39.68c-.2,0-.36-.1-.36-.22s.16-.22.36-.22.36.1.36.22-.16.22-.36.22ZM44.05,34.42c-.2,0-.36-.1-.36-.22s.16-.22.36-.22.36.1.36.22-.16.22-.36.22ZM45.51,25.07c1.46-1.34,2.21-1.54,1.11-.3-.42.47-1.12.98-1.56,1.15-.44.16-.24-.22.45-.85ZM45.16,32.58c.02-4.81.08-5,2.37-7.15l2.35-2.21-.12,11.14-4.61,3.16.02-4.94ZM48.78,36.83c0,.12-.16.22-.36.22s-.36-.1-.36-.22.16-.22.36-.22.36.1.36.22ZM46.6,38.14c0,.12-.16.22-.36.22s-.36-.1-.36-.22.16-.22.36-.22.36.1.36.22ZM45.51,49.09c0-2.53.25-4.6.55-4.6.3,0,.55,2.07.55,4.6s-.25,4.6-.55,4.6-.55-2.07-.55-4.6ZM49.35,45.33h0c-.14,5.86-.68,8.87-1.18,8.82.36.03.62.08.62.13,0,.09-.66.27-1.46.4-.8.13-1.46.05-1.46-.17s.66-.4,1.46-.4c.31,0,.58.01.82.03-.44-.13-.84-2.66-.91-7.77-.05-4.39-.29-6.62-.59-5.52-.68,2.49-1.49,2.87-1.13.53.19-1.28.89-2.24,2.16-3l1.87-1.13-.2,8.06ZM49.79,36.17c-.2,0-.16-.2.09-.44.25-.24.61-.44.81-.44s.16.2-.09.44c-.25.24-.61.44-.81.44ZM50.6,44.49c.2,0,.36.1.36.22s-.16.22-.36.22-.36-.1-.36-.22.16-.22.36-.22ZM50.77,51.83c-.16.9-.28.05-.28-1.87,0-1.93.13-2.66.28-1.63h0c.15,1.03.15,2.61,0,3.5ZM50.6,54.12c-.2,0-.36-.1-.36-.22s.16-.22.36-.22.36.1.36.22-.16.22-.36.22ZM51.42,33.75c-.7-1.1-.5-1.38.36-.5.42.44.62.89.43,1-.19.11-.55-.12-.79-.51ZM52.22,40.44c-.16.9-.29.16-.29-1.64s.13-2.54.29-1.64h0c.16.9.16,2.38,0,3.28ZM52.91,20.71c-.27.16-.49.03-.49-.29s.22-.45.49-.29c.27.16.27.42,0,.58ZM52.79,17.79c-.2,0-.36-.1-.36-.22s.16-.22.36-.22.36.1.36.22-.16.22-.36.22ZM70.98,28.3c.2,0,.36.1.36.22s-.16.22-.36.22-.36-.1-.36-.22.16-.22.36-.22ZM69.99,20.77c.35-.33.61.96.61,3.04,0,1.99-.13,3.61-.3,3.61-1.21,0-1.47-5.55-.31-6.65ZM68.8,27.86c.2,0,.36.1.36.22s-.16.22-.36.22-.36-.1-.36-.22.16-.22.36-.22ZM68.07,23.04c.2,0,.36.1.36.22s-.16.22-.36.22-.36-.1-.36-.22.16-.22.36-.22ZM68.19,25.09c-.27.16-.49.03-.49-.29s.22-.45.49-.29.27.42,0,.58ZM66.45,25.84c.22-.14.77.17,1.22.67.95,1.07.6,1.19-.71.25-.51-.37-.74-.78-.51-.91ZM64.84,26.76l1.43,1.03c.79.57,1.43,1.31,1.43,1.64s-.66.61-1.46.61c-1.2,0-1.45-.29-1.43-1.64l.02-1.64ZM63.84,27.34c.21.32.18.69-.06.84s-.41-.11-.38-.57c.03-.51.21-.61.44-.26ZM62.37,28.62c.2.3.2.79,0,1.09-.2.3-.37.05-.37-.55s.17-.85.37-.55ZM64.14,19.16c1.46-.82,2.86-.89,2.82-.14-.04.71-1.23,1.5-2.26,1.76.06-.04.1-.09.1-.14,0-.12-.16-.22-.36-.22s-.36.1-.36.22c0,.11.15.2.33.21-.39.06-.73.03-.95-.14-.74-.53-.61-.82.7-1.55ZM62.37,18.81c.27.16.27.42,0,.58-.27.16-.49.03-.49-.29s.22-.45.49-.29ZM62.25,23.48c.2,0,.36.1.36.22s-.16.22-.36.22-.36-.1-.36-.22.16-.22.36-.22ZM61.52,24.36c.2,0,.36.1.36.22s-.16.22-.36.22-.36-.1-.36-.22.16-.22.36-.22ZM58.97,20.42c.39.36.71,1.88.72,3.37,0,1.49-.32,2.83-.72,2.98-.46.17-.72-1.05-.72-3.37,0-2.51.23-3.43.72-2.98ZM56.43,26.98c.2,0,.36.1.36.22s-.16.22-.36.22-.36-.1-.36-.22.16-.22.36-.22ZM167.93,45.72c.21.32.18.69-.06.84s-.41-.11-.38-.57c.03-.51.21-.61.44-.26ZM159.06,59.37c-.2,0-.36-.1-.36-.22s.16-.22.36-.22.36.1.36.22-.16.22-.36.22ZM159.06,58.5c-.2,0-.36-.1-.36-.22s.16-.22.36-.22.36.1.36.22-.16.22-.36.22ZM158.7,57.18c0-.32.22-.45.49-.29s.27.42,0,.58c-.27.16-.49.03-.49-.29ZM164.96,60.57c-.24.15-.41-.11-.38-.57.03-.51.21-.61.44-.26.21.32.18.69-.06.84ZM164.88,54.56c.2,0,.36.1.36.22s-.16.22-.36.22-.36-.1-.36-.22.16-.22.36-.22ZM165.2,58.03c-.05,1.01-.11,1.03-.65.24h0c-.48-.71-.66-.54-.92.88-.24,1.28-.35.99-.42-1.09-.09-2.59,0-2.77.97-2,.59.47,1.05,1.35,1.02,1.97ZM162.82,52.87c.53.27.97.53.97.58s-.44.09-.97.09-.97-.26-.97-.58c0-.43.25-.45.97-.09ZM161.24,51.49c.2,0,.36.1.36.22s-.16.22-.36.22-.36-.1-.36-.22.16-.22.36-.22ZM160.04,50.36c.46.17.84.4.84.51,0,.37-.64.19-1.16-.31-.32-.31-.2-.39.32-.19ZM159.06,49.31c.2,0,.36.1.36.22s-.16.22-.36.22-.36-.1-.36-.22.16-.22.36-.22ZM159.04,51.69c.61.47,1.12,1.7,1.12,2.74,0,1.48-1.35,2.9-1.49,1.56-.02-.18-.19-1.41-.39-2.74-.33-2.22-.27-2.34.76-1.56ZM115.63,55c.33,0,.61.3.61.66s-.27.66-.61.66-.61-.3-.61-.66.27-.66.61-.66ZM115.02,53.07c0-.66.3-1.08.66-.95s.59.54.51.89c-.3,1.21-1.17,1.25-1.17.06ZM115.39,58.5c-.2,0-.36-.1-.36-.22s.16-.22.36-.22.36.1.36.22-.16.22-.36.22ZM116.11,57.18c-.2,0-.36-.1-.36-.22s.16-.22.36-.22.36.1.36.22-.16.22-.36.22ZM117.57,53.68c-.2,0-.36-.1-.36-.22s.16-.22.36-.22.36.1.36.22-.16.22-.36.22ZM117.69,56.16c-.27.16-.49.03-.49-.29s.22-.45.49-.29c.27.16.27.42,0,.58ZM117.57,58.5c-.2,0-.36-.1-.36-.22s.16-.22.36-.22.36.1.36.22-.16.22-.36.22ZM124.24,57.04c-.27.16-.49.03-.49-.29s.22-.45.49-.29c.27.16.27.42,0,.58ZM127.84,58.82c-.24.15-.41-.11-.38-.57.03-.51.21-.61.44-.26.21.32.18.69-.06.84ZM129.22,58.5c-.2,0-.36-.1-.36-.22s.16-.22.36-.22.36.1.36.22-.16.22-.36.22ZM129.94,59.37c-.2,0-.36-.1-.36-.22s.16-.22.36-.22.36.1.36.22-.16.22-.36.22ZM128.44,56.94c-1.36-.65-1.35-.66.22-.2.9.26,1.64.57,1.64.68,0,.33-.38.24-1.86-.48ZM128.12,55.21c0-.12.16-.22.36-.22s.36.1.36.22-.16.22-.36.22-.36-.1-.36-.22ZM132.49,59.15c0,.36-.32.66-.71.66s-.52-.3-.29-.66c.23-.36.55-.66.71-.66s.29.3.29.66h0ZM132.13,58.06c-.2,0-.36-.1-.36-.22s.16-.22.36-.22.36.1.36.22-.16.22-.36.22ZM131.76,56.75c-.93-.36-.91-.43.18-.43.7,0,1.27.19,1.27.43,0,.53-.08.53-1.46,0ZM134.39,57.5c-.24.15-.41-.11-.38-.57.03-.51.21-.61.44-.26.21.32.18.69-.06.84ZM135.89,59.67c-.27.16-.49.03-.49-.29s.22-.45.49-.29c.27.16.27.42,0,.58ZM135.77,53.68c-.2,0-.36-.1-.36-.22s.16-.22.36-.22.36.1.36.22-.16.22-.36.22ZM134.92,48.68c.98-1.25,1.55-1.15.87.15-.26.5-.75.91-1.09.91s-.24-.48.22-1.06ZM133.29,48.56c.53-.53,1.12-.87,1.31-.76h0c.19.12-.24.55-.96.96-1.25.72-1.27.71-.35-.21ZM133.95,51.91c0,.95-.3,1.83-.66,1.97s-.5.61-.31,1.05c.23.53-.04.8-.8.8-1.82,0-1.57-3.82.31-4.79,1.42-.73,1.46-.71,1.46.97ZM130.67,50.62c.72-.48,1.48-.88,1.68-.88s-.23.39-.95.88c-.72.48-1.48.88-1.68.88s.23-.39.95-.88ZM130.18,54.36c.2,1.79.03,1.86-1.07.43-.63-.82-.62-1.18.04-1.51.64-.32.91-.03,1.04,1.08ZM127.03,53.25c.72-.48,1.48-.88,1.68-.88s-.23.39-.95.88c-.72.48-1.48.88-1.68.88s.23-.39.95-.88ZM125.21,54.67c1.27-.08,1.52,0,.83.28-.84.33-.84.43,0,.64.55.14.12.15-.95.01-1.61-.2-2-.07-2.27.78-.27.84-.34.87-.41.15-.12-1.21.67-1.73,2.8-1.86ZM122.66,58.06c.2,0,.36.1.36.22s-.16.22-.36.22-.36-.1-.36-.22.16-.22.36-.22ZM121.34,55.35c.21.32.18.69-.06.84s-.41-.11-.38-.57c.03-.51.21-.61.44-.26ZM121.21,56.75c.2,0,.36.1.36.22s-.16.22-.36.22-.36-.1-.36-.22.16-.22.36-.22ZM119.89,54.91c.21.32.18.69-.06.84s-.41-.11-.38-.57c.03-.51.21-.61.44-.26ZM117.02,51.25c1.3.71,2.37,1.35,2.37,1.42,0,.34-.6.04-2.59-1.29l-2.14-1.42,2.37,1.29ZM114.05,53.97c-.27.16-.49.03-.49-.29s.22-.45.49-.29c.27.16.27.42,0,.58ZM114.05,51.2c.27.16.27.42,0,.58s-.49.03-.49-.29.22-.45.49-.29ZM113.2,48.87c.2,0,.36.1.36.22s-.16.22-.36.22-.36-.1-.36-.22.16-.22.36-.22ZM112.62,57.29c-.17.54-.32.1-.32-.98s.14-1.53.32-.98h0c.17.54.17,1.43,0,1.97ZM112.62,51.38h0c.17.54.17,1.43,0,1.97s-.32.1-.32-.98.14-1.53.32-.98ZM76.93,19.4c-.27.16-.49.03-.49-.29s.22-.45.49-.29c.27.16.27.42,0,.58ZM78.26,41.43c-.2,0-.36-.1-.36-.22s.16-.22.36-.22.36.1.36.22-.16.22-.36.22ZM78.32,40.17c-.61-.59,0-1.26.74-.82h0c.24.15.3.51.13.82-.25.44-.42.44-.88,0ZM78.01,37.05c0-.6.17-.85.37-.55.2.3.2.79,0,1.09-.2.3-.37.05-.37-.55ZM81.51,50.05c.01,3.68-.27,6.32-.7,6.48-.42.15-.75-.26-.77-.96-.04-1.21-.31-3.8-1.03-10.09-.38-3.29-.12-3.7,1.51-2.41.7.55.97,2.51.99,6.98h0ZM79.35,41.21c0-.12.16-.22.36-.22s.36.1.36.22-.16.22-.36.22-.36-.1-.36-.22ZM82.75,55.29c-.27.16-.49.03-.49-.29s.22-.45.49-.29c.27.16.27.42,0,.58ZM82.63,45.37c-.2,0-.36-.1-.36-.22s.16-.22.36-.22.36.1.36.22-.16.22-.36.22ZM81.83,42.67c-.32-.31-.2-.39.32-.19.46.17.84.4.84.51,0,.37-.64.19-1.16-.31ZM82.48,37.05c0-1.32.14-1.87.3-1.2.17.66.17,1.75,0,2.41-.17.66-.3.12-.3-1.2ZM84.21,54.85c-.27.16-.49.03-.49-.29s.22-.45.49-.29c.27.16.27.42,0,.58ZM83.96,49.96c0-1.69.13-2.32.29-1.41h0c.16.91.15,2.29,0,3.06s-.29.03-.29-1.65ZM84.09,46.24c-.2,0-.36-.1-.36-.22s.16-.22.36-.22.36.1.36.22-.16.22-.36.22ZM85.69,56.42c-.17.54-.32.1-.32-.98s.14-1.53.32-.98h0c.17.54.17,1.43,0,1.97ZM85.54,53.25c-.2,0-.36-.1-.36-.22s.16-.22.36-.22.36.1.36.22-.16.22-.36.22ZM85.54,46.68c.2,0,.36.1.36.22s-.16.22-.36.22-.36-.1-.36-.22.16-.22.36-.22ZM85.18,45.59c0-.12.16-.22.36-.22s.36.1.36.22-.16.22-.36.22-.36-.1-.36-.22ZM88.57,57.48c-.27.16-.49.03-.49-.29s.22-.45.49-.29.27.42,0,.58ZM87.04,55.51c-.92-1.74-.25-8.42.8-7.9.7.35.98,1.68.98,4.59,0,3.8-.77,5.22-1.78,3.31ZM88.45,46.68c.2,0,.36.1.36.22s-.16.22-.36.22-.36-.1-.36-.22.16-.22.36-.22ZM88.09,46.02c0-.12.16-.22.36-.22s.36.1.36.22-.16.22-.36.22-.36-.1-.36-.22ZM90.03,34.28c-.27.16-.49.03-.49-.29s.22-.45.49-.29.27.42,0,.58ZM90.08,43.96c-.14,1.61-.25.18-.25-3.19,0-3.37.12-4.69.25-2.94h0c.14,1.76.14,4.51,0,6.13ZM89.91,47.55c.2,0,.36.1.36.22s-.16.22-.36.22-.36-.1-.36-.22.16-.22.36-.22ZM90.06,52.04c-.17.54-.32.1-.32-.98s.14-1.53.32-.98h0c.17.54.17,1.43,0,1.97ZM89.91,57.62c-.2,0-.36-.1-.36-.22s.16-.22.36-.22.36.1.36.22-.16.22-.36.22ZM89.91,54.56c-.2,0-.36-.1-.36-.22s.16-.22.36-.22.36.1.36.22-.16.22-.36.22ZM91.53,54.45c-.16.9-.29.16-.29-1.64s.13-2.54.29-1.64h0c.16.9.16,2.38,0,3.28ZM91.29,41.43c0-3.49.11-4.92.25-3.17.14,1.75.14,4.6,0,6.35-.14,1.75-.25.32-.25-3.17ZM92.94,57.48c-.27.16-.49.03-.49-.29s.22-.45.49-.29.27.42,0,.58ZM92.7,53.25c0-1.81.13-2.54.29-1.64h0c.16.9.16,2.38,0,3.28-.16.9-.29.16-.29-1.64ZM94.4,51.2c.27.16.27.42,0,.58-.27.16-.49.03-.49-.29s.22-.45.49-.29ZM93.91,48.21c0-.12.16-.22.36-.22s.36.1.36.22-.16.22-.36.22-.36-.1-.36-.22ZM94.28,55c-.2,0-.36-.1-.36-.22s.16-.22.36-.22.36.1.36.22-.16.22-.36.22ZM94.89,42.64c-.53,6.27-.98,6.24-.98-.07,0-3.1.27-5.03.69-4.88.4.15.52,2.2.29,4.95ZM96.46,51.93c-.2,0-.36-.1-.36-.22s.16-.22.36-.22.36.1.36.22-.16.22-.36.22ZM97.55,52.15c0-.12.16-.22.36-.22s.36.1.36.22-.16.22-.36.22-.36-.1-.36-.22ZM98.28,57.84c-.45.17-.73-.66-.73-2.19s.28-2.36.73-2.19c.4.15.73,1.13.73,2.19s-.33,2.04-.73,2.19ZM100.1,58.06c-.2,0-.36-.1-.36-.22s.16-.22.36-.22.36.1.36.22-.16.22-.36.22ZM99.74,54.78c0-.12.16-.22.36-.22s.36.1.36.22-.16.22-.36.22-.36-.1-.36-.22ZM101.92,57.62c-.53,0-.75-.13-.49-.29.27-.16.7-.16.97,0,.27.16.05.29-.49.29ZM101.43,56.46c.27-.16.7-.16.97,0,.27.16.05.29-.49.29s-.75-.13-.49-.29ZM101.56,55.43c.25-.24.61-.44.81-.44s.16.2-.09.44c-.25.24-.61.44-.81.44s-.16-.2.09-.44ZM102.28,54.56c-.2,0-.36-.1-.36-.22s.16-.22.36-.22.36.1.36.22-.16.22-.36.22ZM103.74,55c-.2,0-.36-.1-.36-.22s.16-.22.36-.22.36.1.36.22-.16.22-.36.22ZM105.92,55.87c-.2,0-.36-.1-.36-.22s.16-.22.36-.22.36.1.36.22-.16.22-.36.22ZM106.06,50.74c.18.43.17,1.02-.03,1.31-.2.3-.35-.05-.34-.77.01-.72.18-.96.36-.54ZM105.73,47.55c0-.84.15-1.19.33-.77.18.42.18,1.11,0,1.53-.18.42-.33.08-.33-.77ZM107.38,58.5c-.2,0-.36-.1-.36-.22s.16-.22.36-.22.36.1.36.22-.16.22-.36.22ZM107.5,56.89c.27.16.27.42,0,.58-.27.16-.49.03-.49-.29s.22-.45.49-.29ZM107.13,55c0-.6.17-.85.37-.55.2.3.2.79,0,1.09-.2.3-.37.05-.37-.55ZM108.96,55.73c-.27.16-.49.03-.49-.29s.22-.45.49-.29c.27.16.27.42,0,.58ZM108.83,54.56c-.2,0-.36-.1-.36-.22s.16-.22.36-.22.36.1.36.22-.16.22-.36.22ZM111.16,56.64c-.18.42-.33.08-.33-.77s.15-1.19.33-.77.18,1.11,0,1.53ZM111.02,47.99c.2,0,.36.1.36.22s-.16.22-.36.22-.36-.1-.36-.22.16-.22.36-.22ZM109.09,46.42c.46.17.84.4.84.51,0,.37-.64.19-1.16-.31-.32-.31-.2-.39.32-.19ZM108.35,48.7c.61-.23.85.42.85,2.34,0,3.12-.68,3.59-.83.57l-.1-2.08-.52,1.75c-.46,1.55-.53,1.41-.62-1.23-.06-1.8.17-2.88.59-2.72.38.14.49.58.24.97-.3.48-.17.61.4.4ZM106.47,44.87c.7.33,1.27.68,1.27.77,0,.36-.6.13-1.55-.6-.91-.69-.88-.71.27-.17ZM104.47,43.62c.2,0,.36.1.36.22s-.16.22-.36.22-.36-.1-.36-.22.16-.22.36-.22ZM102.83,42.25c.7.33,1.27.68,1.27.77,0,.36-.6.13-1.55-.6-.91-.69-.88-.71.27-.17ZM101.94,43.46h0c.45.27.67,2.35.55,5.23-.15,3.44-.38,4.44-.83,3.58-.34-.66-.48-2.28-.32-3.61.24-1.88.08-2.41-.73-2.41-.58,0-.87.26-.65.6.21.33.04.81-.38,1.06s-.52.8-.2,1.26c.92,1.28,1,1.89.24,1.89-.39,0-.46.25-.16.55.37.37.15.35-.68-.05-1.04-.51-1.23-1.46-1.23-6.05v-5.45l1.94,1.39c1.46,1.04,1.71,1.47,1.01,1.73-.65.24-.69.43-.12.64.44.16.81.05.81-.25,0-.38.23-.41.75-.1ZM100.83,40.55c.2,0,.36.1.36.22s-.16.22-.36.22-.36-.1-.36-.22.16-.22.36-.22ZM98.89,38.98c.46.17.84.4.84.51,0,.37-.64.19-1.16-.31-.32-.31-.2-.39.32-.19ZM96.74,37.49c.4,0,.93.2,1.18.44.25.24.12.44-.28.44s-.93-.2-1.18-.44c-.25-.24-.12-.44.28-.44ZM96.46,38.8c.2,0,.36.1.36.22s-.16.22-.36.22-.36-.1-.36-.22.16-.22.36-.22ZM95.73,36.61c.2,0,.36.1.36.22s-.16.22-.36.22-.36-.1-.36-.22.16-.22.36-.22ZM92.6,34.19c.21-.13.93.27,1.59.88.66.61,1.09,1.11.94,1.11-.62,0-2.88-1.78-2.53-1.99ZM93,45.48c-.14,1.75-.25.32-.25-3.17s.11-4.92.25-3.17c.14,1.75.14,4.6,0,6.35ZM92.82,49.31c.2,0,.36.1.36.22s-.16.22-.36.22-.36-.1-.36-.22.16-.22.36-.22ZM91.22,32.2c.72.74,1.21,1.34,1.09,1.34-.81-.02-2.02-.86-3.15-2.18-1.6-1.88.07-1.19,2.05.84ZM83.97,25.38c.17-.1,1.18.74,2.23,1.87,2.48,2.67,2.08,2.92-.53.32-1.11-1.1-1.87-2.09-1.7-2.19ZM78.9,19.23c.14-.08,1.27,1.07,2.52,2.57,1.25,1.49,2.16,2.78,2.03,2.87s-1.27-1.07-2.52-2.57c-1.25-1.49-2.16-2.78-2.03-2.87ZM79.66,23.54c-.21.21-.08.38.29.38s1.09.59,1.59,1.31c.5.72,1.15,1.31,1.44,1.31s.42.54.27,1.2c-.15.66-.06.94.19.61.68-.89,3.1,1.55,2.68,2.71-.26.71-.16.79.37.34,1.55-1.32,2.33,1.19,2.33,7.58h0c0,5.38-.17,6.38-1.09,6.38s-1.12-1.07-1.24-6.68l-.15-6.68-.43,6.13-.43,6.13-.61-14.44-.42,6.78-.42,6.78-.29-7.22c-.16-3.97-.41-5.95-.56-4.39-.18,1.97-.47,2.64-.94,2.19-.45-.43-.73.66-.82,3.29l-.14,3.94-.47-3.28c-.26-1.81-.56-2.69-.68-1.97-.13.78-.35,1.01-.54.57-.18-.41,0-1.44.39-2.3.42-.91.44-1.46.05-1.31-.37.14-.72-.11-.79-.54s-.34.19-.61,1.4c-.41,1.82-.52,1.44-.63-2.19-.07-2.41-.3-6.05-.51-8.1l-.38-3.72,1.47,1.7c.81.93,1.29,1.87,1.08,2.08Z"/>
  <path d="M173.54,61.36c.94.41,1.01.6.29.77h0c-.52.13.53.22,2.33.21,2.81-.01,2.97-.06,1.09-.31-1.84-.24-1.97-.34-.83-.61,1.68-.4.35-1.62-1.77-1.62-1.91,0-2.57.92-1.12,1.55Z"/>
  <path d="M178.35,57.79c0-.82-4.09-.8-4.61.02-.24.37.11.69.83.79,1.93.25,3.78-.15,3.78-.81ZM176.03,57.76c.53-.13,1.15-.11,1.4.03h0c.24.15-.19.25-.96.23-.85-.02-1.02-.12-.44-.26Z"/>
  <path d="M174.71,53.29c3.55.59,5.63.11,4.84-1.12-.35-.55-1.21-.69-3.56-.59-3.52.15-4.31,1.21-1.28,1.71ZM177.48,52.51c.53-.13,1.15-.11,1.4.03h0c.24.15-.19.25-.96.23-.85-.02-1.02-.12-.44-.26Z"/>
  <path d="M175.91,56.23c2.7-.1,3.57-.32,3.76-.93.22-.69-.2-.77-3.26-.66-2.7.1-3.57.32-3.76.93-.22.69.2.77,3.26.66ZM174.95,55.58c.27-.16.7-.16.97,0,.27.16.05.29-.49.29s-.75-.13-.49-.29Z"/>
  <path d="M99.74,14.29c2.58.5,3.06.5,2.55,0-.25-.24-1.33-.42-2.41-.39l-1.96.04,1.82.35h0Z"/>
  <path d="M167.77,10.33c.38.37,1.45.47,3.21.29,1.45-.14,3.72-.26,5.05-.27s2.24-.17,2.04-.36c-.2-.2-2.43-.21-4.94-.04-2.51.18-4.87.21-5.24.07-.38-.14-.43,0-.11.3h0Z"/>
  <path d="M121.57,31.99c8.45-.64,9.5-.78,9.25-1.24-.15-.27-2.06-.51-4.33-.54-2.23-.03-4.58-.17-5.21-.31-1.87-.43-1.33.06.85.77,2.25.73,1.69.85-3.82.77-2.55-.04-2.68,0-1.09.35h0c1,.22,2.97.31,4.37.2ZM125.77,30.61c.91-.1,2.22-.1,2.91,0h0c.7.11-.04.19-1.65.19-1.6,0-2.17-.09-1.27-.2Z"/>
  <path d="M121.23,8.17c-2.6-1.3-.81.36,2.68,2.49h0c2.09,1.27,3.92,2.31,4.07,2.31.4,0-5.43-4.14-6.75-4.8Z"/>
  <path d="M147.41,16.95l-1.46.02,1.46.38h0c2.18.56,3.99.56,2.55,0-.6-.23-1.75-.41-2.55-.4Z"/>
  <path d="M135.87,12.94c1.26.46,2.51,1.05,2.77,1.31s.71.47.99.46c.89-.02-4.22-2.61-5.15-2.61-.49,0,.13.38,1.39.84Z"/>
</svg>