<?xml version="1.0" encoding="UTF-8"?>
<svg id="Layer_2" data-name="Layer 2" xmlns="http://www.w3.org/2000/svg" viewBox="0 0 196.45 243.35">
  <defs>
    <style>
      .cls-1, .cls-2 {
        fill: none;
        stroke: #000;
        stroke-linecap: round;
        stroke-linejoin: round;
      }

      .cls-3 {
        fill: #382b1c;
      }

      .cls-2 {
        stroke-width: .81px;
      }

      .cls-4 {
        fill: #104352;
      }

      .cls-5 {
        fill: #020c11;
      }
    </style>
  </defs>
  <g id="Layer_1-2" data-name="Layer 1">
    <g>
      <path class="cls-1" d="M151.8,242.49c-.56-34.75-.55-69.55-1.57-104.27-43.3,2.79-86.57,5.87-129.87,8.76"/>
      <path class="cls-1" d="M43.48,64.39c.48.32,1.47-.23,1.51,1.06h-1.87c.16-4.14-.22-8.04-.87-12.23-2.19.43-4.31.85-6.39,1.27-.22,6.92.21,13.46.72,20.27.21,5.16.16,12.19-6.59,13.13-1.64.16-2.82-.46-3.1-2.02-1.83-9.62,1.17-19.66-1.38-29.19-2.71.7-7.39-.59-6.95,3.46-.37,7.53,0,15.09.44,22.61-.35,11.72,10.4,13.77,18.96,8.58,8.15-5.44,4.82-17.32,5.4-25.7"/>
      <path class="cls-1" d="M180.66,110.74c.78.44.77,1.28,1,2,2.16,7.26,4.71,14.38,6.85,21.62,1.01,2.88,1.86,5.82,2.77,8.74.51,1.99,2.57,1.92,4.25,2.5.73,32.28.32,64.65.17,96.95-20.22-.13-40.34.44-60.52-.5"/>
      <path class="cls-1" d="M23.99,226.43c-2.3-1.06-5.18.44-7.26,1.61-2.01,1.82-.82,4.87-1.11,7.26.84,2.3,2.1,4.27,1.44,6.97,39.23.53,78.75,1,117.87-.1"/>
      <path class="cls-1" d="M150.18,13.41c-1.16-2.68-.46-5.76-.63-8.62.24-2.94-2.5-3.35-4.73-4.29-.15.16-.39.41-.51.54v10.14c-36.56,10.64-73.54,20.6-110.32,30.28"/>
      <path class="cls-1" d="M134.93,241.92c-39.55-3.94-80.16-5.68-120.07-8.75"/>
      <path class="cls-1" d="M144.06,1.17c-36.14,10.54-72.19,21.43-108.32,31.99-1.28.37-1.57.46-1.52,1.99.19,2.81-1.2,6.79,2.27,8.12"/>
      <path class="cls-1" d="M146.43,104.99c-1.8-.06-1.82,2.76-4.02,1.82-.82-.21-1.93.05-2.71.47-1.86,1.01-3.86.53-5.77.82-.23.03-.63-.08-.73-.25-.87-1.52-1.57-.42-2.58.09-1.6-1.39-3.5-.77-5.31-.68-25.14,1.75-50.18,4.74-75.22,7.59-9.9,1.11-19.82,2.05-29.74,3-4.4.63-6.92.66-5.72-4.75-.98-2.02-1.11-4.25-.59-6.35,1.12-17,.89-33.99.94-51.11,46.38-15.45,94.38-25.29,141.59-37.75,1.8,1.22.93,3.4.97,5.14-.04,26.28,0,52.42.12,78.72-1.71,1.73-4.2,2.33-6.87,2.66-.95.12-2.16-.46-2.71.51-.47.15-1.9,0-1.42.44"/>
      <path class="cls-1" d="M30.99,222.31c36.76,3.06,73.74,4.38,110.57,6.75,1.37-.03,3.11.71,4-.75"/>
      <path class="cls-1" d="M112.57,78.5c1.04-.04,2.09-.03,3.12-.16,1.48-1.89,1.6-4.93,2.5-7.21,1.27-3.19,10.17-3.55,13.28-3.19,1.03,2.41,2.11,4.93,3.2,7.48,1.27-.16,2.52-.32,3.88-.49-3.33-11.16-6.65-22.24-9.96-33.31-2.82.68-5.49,1.33-8.15,1.98-2.57,11.7-5.69,23.2-7.99,34.91"/>
      <path class="cls-1" d="M161.55,135.85c.3,35.45-1.13,70.97-1.12,106.45"/>
      <path class="cls-1" d="M53.6,42.52c27.21-7.98,55-14.06,82.33-21.75,7-1.82,13.92-4.6,21.24-4.56,3.39-.31,2.33,3.37,2.5,5.56,0,24.28-.03,48.56.13,72.84-.01,3.93,1.3,10.4-4.01,11.32-3.66.18-7.73,1.75-11.24.68"/>
      <path class="cls-1" d="M129.69,108.49c-32.91,4.53-66.22,6.54-99.2,10.73-4.33.46-8.66.87-12.99,1.26-5.21.71-5.1-5.22-3.87-8.49"/>
      <path class="cls-1" d="M130.44,69.13c.77,2.79,1.93,5.13,3.07,7.92,2.25-.47,4.54-.95,6.95-1.45-3.83-12-7.61-23.87-11.39-35.72-3.38,1.1-9.35-.15-10.55,3.88-2.31,12.28-5.47,24.45-7.57,36.72,1.72-.26,3.3-.5,4.87-.72,1.76-.25,1.75-.24,2.26-2,.09-.31.32-.59.49-.88"/>
      <path class="cls-1" d="M108.95,79.88c-1.98-3.8-3.97-7.6-5.96-11.41,6.82-4.24,5-17.31-4.15-16.13-3.67.64-7.83.96-11.17,2.47.23,9,.47,18.16.71,27.29,1.13.44,4.05-.25,5.32-1.22-1.15-3.19.26-6.34-.25-9.62"/>
      <path class="cls-1" d="M47.66,40.65c-10.7,3.83-22.44,6.29-33.55,9.48-5.08,1.11-3.31,6.63-3.62,10.51-.32,20.03.19,39.99-.17,59.97-.16,1.57.58,2.34,1.79,3.01,7.1,3.27,15.09,3.78,21.88,7.97,2.29.95,1.41,4.9-1.4,4.15-1.37-1.72-3.25-1.44-5.23-1.26-.5-1.26-1.56-1.51-2.87-1.41-.72.05-1.62-.76-2.36-.57"/>
      <path class="cls-1" d="M53.1,42.77c-11.61,3.41-23.49,6.09-35.23,9.12-6.66,1.14-3.92,9.2-4.5,13.99.04,13.37-.69,26.96.25,40.23"/>
      <path class="cls-1" d="M65.51,83.71c-2.78-1.37-5.28.63-8.28.13-.5-.5-1-1-1-1.5,0-6.5,0-13.5-.37-20.06-.51.14.15,5.4,0,0-1.13-.44-1.63.56-2.63.56-.5,8,.5,16,.45,23.83,3.98-.49-.13-4.51,0,0,3.98-.49,7.92-1.14,11.87-1.81"/>
      <path class="cls-1" d="M72.96,85.36c2.74.43,5.17-.04,5.26-3.52-1-7,0-13.5-.5-20,2-1.5,5-.5,6.5-2,6.66-8.9-17.6-2.38-19.76-.45"/>
      <path class="cls-1" d="M195.53,85.88c.54,19.53.41,39.78,0,59.47"/>
      <path class="cls-1" d="M92.96,71.32c8.02-4.83,3.16,10.56,13.61,7.2-1.58-2.76-2.85-5.61-4.52-8.24-.88-1.01-.62-1.77.14-2.66,2.81-3,4.57-6.94,2.62-10.85-2.89-5.76-11.18-2.11-16-1.07.23,8.32.46,16.69.69,25.4,1.31-.4,2.44-.74,3.58-1.09"/>
      <path class="cls-1" d="M149.8,14.04c3.52-2.65,11.61-4.09,15.15-.78,2.69,3.06,12.41,7.32,12.72,10.65-.18,26.54.25,53.05-.01,79.59-.01.73.09,1.27.86,1.66,1.67,1.13,1.64,3.59,2.32,5.34-.08.11-.16.21-.24.32l-2.69-.58"/>
      <path class="cls-1" d="M195.53,10.66c.47,24.81.47,49.9,0,74.71"/>
      <path class="cls-1" d="M178.29,110.49c2.38,11.3,7.3,22.03,9.91,33.31-4.12-2.17-9.95-1.44-11.23-6.55-2.02-7.51-5.73-14.18-7.9-21.67,1.88-.25,3.68-.48,5.53-.73.44-.81.89-1.65,1.43-2.66.23.25.44.46.64.67"/>
      <path class="cls-1" d="M146.05,184.2c-.08,14.58-.17,29.15-.25,43.73"/>
      <path class="cls-1" d="M138.56,7.66l-.85-1.41c.02-.12.04-.25.06-.37-10.06,1.44-19.62,5.35-29.44,7.91-2.34,1.18-13.18,2.63-12.99,5"/>
      <path class="cls-1" d="M148.93,38.15c.69,12.67,2.04,25.17,2,37.89-.98.14-2.23.32-3.56.51-.79-12.7-1.57-25.23-2.36-37.85,1.37-.24,2.58-.46,3.8-.68"/>
      <path class="cls-1" d="M109.45,18.78c-14.87,6.17-30.03,8.09-45.23,12.49-4.78,1.32-9.58,2.56-14.36,3.89-3.84.84-7.52,3.16-11.56,2.34v-1.63c11.07-2.81,21.67-7.57,32.92-9.62-.69-2.69,12.55-5.32,14.5-4.97"/>
      <path class="cls-1" d="M34.86,135.6c.12,1.91.25,3.82.37,5.78-5.62.57-11,1.12-16.49,1.68-.09,7.85-.99,7.03,5.76,11.14.75,13.5.63,27.11.24,40.49"/>
      <path class="cls-1" d="M39.23,98.49c-1.96.09-.65,4.11-.85,5.49.28,2.33,2.44,2.56,3.98,1.5,2.46-1.64.96-5.02,1.37-7.56h-1.25c-.31,2.47,1.36,8.35-3.12,5.83v-5.26"/>
      <path class="cls-1" d="M189.66,207.07h3.81v-12.81h-4.19c.05,4.38-.14,8.69.12,13.06"/>
      <path class="cls-1" d="M137.81,7.04c-17.27,4.73-34.32,10.15-51.66,14.49"/>
      <path class="cls-1" d="M149.55,14.28c-30.43,8.61-61.16,16.21-91.7,24.51-.83.25-1.09-.1-1.26-.77"/>
      <path class="cls-1" d="M109.82,18.53c-.65-.62-.66-.63-1.12-.5-9.8,2.96-20.05,5.14-29.49,8.99"/>
      <path class="cls-1" d="M141.06,128.85c-.29-2.76-.05-5.59-.12-8.35-3.77-.51-10.41.51-11.73,1.99,3.88,1.81,7.53,4.26,11.54,5.74"/>
      <path class="cls-1" d="M62.97,81.75c-1.62.19-3.24.35-4.84.69-.53-6.79-.34-13.62-.65-20.43-.02-.69-.32-1.06-1-1.13-6.91-.05-5.78,1.85-5.5,7.5"/>
      <path class="cls-1" d="M114.69,23.41c-.07-.38-.14-.75-.26-1.41-8.07,1.99-16.03,4.18-24.09,6.31.19.59.34,1.07.49,1.54"/>
      <path class="cls-1" d="M59.97,103.37c.42-.05.83-.1,1.29-.16-.1-.84-.18-1.59-.28-2.48,3.11.06,6.29-3.23,2.73-5.87-1.32.15-2.66.31-3.98.47.06,2.72-.15,5.38.12,8.04"/>
      <path class="cls-1" d="M138.93,11.16c-1.1-.66-2.23-.84-3.37-.12-8.64,1.87-17.3,4.09-25.62,7.24"/>
      <path class="cls-1" d="M17.74,229.06c7.47.17,15.27.91,22.66,1.31.52-.61.93-1.09,1.33-1.56"/>
      <path class="cls-1" d="M24.86,205.32c-.28,6.83,0,13.67-.15,20.49,0,3.25-4.26.64-5.72,2.88"/>
      <path class="cls-1" d="M128.69,94.62c.47-.09.93-.19,1.44-.29v-8.98c-.62.06-1.16.11-1.69.16.07,3.14-.16,6.09.12,9.11"/>
      <path class="cls-1" d="M71.47,62.89c-.74,5.95.26,11.45.22,17.55"/>
      <path class="cls-1" d="M133.81,90.62c1.01-1.9.88-3.87.42-6.12-.62.23-1.11.42-1.54.58.09,1.5.28,2.84.21,4.16-.35,2.11,3.05,3.07.91,4.87-1.7-.68-1.84-1.36-.5-2.5"/>
      <path class="cls-1" d="M66.59,130.85c-1.24-1.89-3.99-2.8-5.9-4.07-6.12-.74-12.22,2.38-18.49,1.69.05.31.1.59.15.87"/>
      <path class="cls-1" d="M119.32,95.5c1.31.6,1.23-1.11,1.64-1.89,1.02-.17,2.06-.35,3.21-.54.26.65.52,1.29.79,1.97.49-.08.99-.17,1.65-.28-.95-2.84-1.88-5.63-2.79-8.38h-2.15c-.98,3.2-1.64,6.59-2.84,9.75"/>
      <path class="cls-1" d="M75.09,136.35c.65-3.67.82-7.35.82-11.08-2.87.25-5.66.49-8.64.75,1.33,7.4,1.95,6.72,7.95,10.58"/>
      <path class="cls-1" d="M159.92,124.61c3.68,3.54,6.51,7.68,8.97,12.08-.08.13-.16.26-.24.39-3.28-.31-6.13-1.95-9.48-1.35-5.56-.2-11.24-1.43-16.74-1"/>
      <path class="cls-1" d="M106.76,88.75v8.39c.57-.05,1.14-.09,1.69-.14,0-1.05,0-1.96,0-2.88.5-.1.99-.19,1.55-.3,1.52,3.29,4.84,4.01,1.93-.29,4.1-4.13-1.09-7.46-4.98-4.77"/>
      <path class="cls-1" d="M136.43,134.35c-3.48-4.44-9.32-2.39-14.12-2.11-1.97.05-1.65,1.29-1.63,2.86"/>
      <path class="cls-1" d="M87.96,91.62c-.98,2.75-2.89,5.26-2.2,8.37h-1.53c.53-2.85-1.08-5.04-2.39-7.43.5-.18.93-.33,1.45-.52.57,1.25,1.99,1.98,1.91,3.58"/>
      <path class="cls-1" d="M52.72,104.87c1.04-2.17.67-4.66.75-6.99.46-.12.92-.24,1.44-.37v-1.42c-1.66.25-3.24.49-4.95.75.05.51.09.96.15,1.5h1.41c.48,1.75-.7,5.61,1.08,6.28"/>
      <path class="cls-1" d="M24.49,227.18c5.38,1.27,11,1.51,16.49,2.12"/>
      <path class="cls-1" d="M65.8,86.49c-4.07.84-8.57,1.34-13.07,1.84-.5,0-.5-.5-1.22-.96"/>
      <path class="cls-1" d="M63.47,81.5c.81-.05,1.61-.11,2.42-.16"/>
      <path class="cls-1" d="M.5,242.42c5.4.2,10.85.24,16.24,0"/>
      <path class="cls-1" d="M175.66,112.49c-5.34-1.96-10.78-3.7-16.24-5.25"/>
      <path class="cls-1" d="M101.95,123.98c-7.15-.57-14.18.25-21.36.77.14,3.51.43,6.79.37,10.22"/>
      <path class="cls-1" d="M68.09,100.87c-.05-2.24-.14-4.26-.12-6.54-.6.12-1.05.2-1.5.29v7.76c1.57-.23,5.27.98,4.75-1.74-1,.08-2,.16-3,.24"/>
      <path class="cls-1" d="M133.06,12.04c-.46.37-.86.95-1.38,1.09-4.96.96-9.99,3.58-14.98,3.4"/>
      <path class="cls-1" d="M114.07,135.35c3.89-4.22,8.83-7.41,13.22-11.32,4.31,2.34,8.67,4.7,13.1,7.1.07.8.14,1.63.21,2.48-1.32.21-2.61.41-3.91.61"/>
      <path class="cls-1" d="M135.93,134.48c-7.32.68-14.65.87-21.99,1.01-2.81-.32-11.11,1.98-12.49-.14"/>
      <path class="cls-1" d="M124.81,46.89v2.5s-.09-.06-.14-.1c-.94,4.71-2.24,9.5-2.61,14.34"/>
      <path class="cls-1" d="M130.19,69.63c-3.48.57-6.91,1.15-10.41,1.67-.32,1.28-.98,2.41-.57,3.7.14.59.29,1.14-.39,1.5"/>
      <path class="cls-1" d="M110.32,127.73c.21-1.66.42-3.33.65-5.14-3.12.14-6.09.19-9.02,1.48.33,2.57-.99,4.97-.36,7.66,1.3.65,2.76,1.39,4.28,2.16,1.3-1.73,6.03-3.48,4.45-6.03"/>
      <path class="cls-1" d="M163.17,104.49c4.18,2.84,9.11,4.11,13.74,6"/>
      <path class="cls-1" d="M172.67,19.78c-4.26.8-8.62-.75-12.87-.87"/>
      <path class="cls-1" d="M35.48,100.87c-.66,1.86-.08,3.75-.28,5.68h1.22v-7.37h-1.23c-.65,1-1.34,2.06-2.02,3.12"/>
      <path class="cls-1" d="M145.8,163.34c-.45,4.03-.45,8.46,0,12.49"/>
      <path class="cls-1" d="M146.3,163.34c.45,4.03.45,8.46,0,12.49"/>
      <path class="cls-1" d="M45.54,97.74v7.49c1.39,0,2.86.3,4.19-.57v-1.3h-2.75v-6.16c-.55.24-.9.39-1.25.54"/>
      <path class="cls-1" d="M33.11,103.12c0-1.37-1.42-2.23-1.87-3.5-.5.08-1,.17-1.44.24v7.44h1.05c.13-1.4.26-2.73.39-4.06"/>
      <path class="cls-1" d="M86.08,124.61c.73,1,3.41,2.13,2,3.5-2.58,2.29-4.79,4.96-7.37,7.25"/>
      <path class="cls-1" d="M68.84,138.22c-2.32,1.48-6.32.82-9.12,1.25-2.09.19-2.02.48-2-1.75.02-2.67.04-5.33.06-8"/>
      <path class="cls-1" d="M57.47,129.1c4.22,2.19,8.16,5.18,11.18,8.75,5.33.17,10.51-.35,15.8-.41.52-.06,1.09-.46,1.49-.85,2.3-2.58,5.34-4.69,7.01-7.73"/>
      <path class="cls-1" d="M146.18,152.09c-.04,3.62-.08,7.25-.12,10.87"/>
      <path class="cls-1" d="M154.93,132.85c-.39-1.85-1.13-3.5-2.77-4.83-.58,1.74.45,2.81,1.16,3.94.32.52.44,1.49,1.48,1.01"/>
      <path class="cls-1" d="M112.7,127.36c2.18-1.35,4.1-3.01,5.94-4.79-.07-.16-.14-.31-.2-.47-1.83.09-3.66.18-5.54.27-.15,1.74-.3,3.49-.45,5.24"/>
      <path class="cls-1" d="M160.05,125.11c.3,3.29-1.02,7.31.5,10.25"/>
      <path class="cls-1" d="M125.06,49.64c.69,3.17,2.35,6.35,2,9.62"/>
      <path class="cls-1" d="M76.96,93.12c-1.18,2.8-2.8,5.24-2.25,8.43h-1.4c.52-2.84-1.3-5.01-2.5-7.48.54-.19.96-.35,1.62-.58.48,1.22.94,2.42,1.41,3.62"/>
      <path class="cls-1" d="M41.85,129.98c.05,3.45,5.27,6.23,8.12,7.5"/>
      <path class="cls-1" d="M101.7,135.98c-1.05.87-2.34.5-3.5.59-4.15.2-8.35.76-12.49.54"/>
      <path class="cls-1" d="M124.44,53.02c1.19,3.33,2.29,6.13,3.65,9.6-2.31.47-4.42.9-6.52,1.33"/>
      <path class="cls-1" d="M46.23,128.6c.94,2.86,2.65,5.63,3.12,8.56"/>
      <path class="cls-1" d="M101.08,78.5c.23,1.64.79,2.2,2.37,1.97,1.7-.24,3.53-.03,5-1.22"/>
      <path class="cls-1" d="M66.09,129.98c-.07-1.21-.14-2.42-.22-3.81-1.66.2-3.16.38-4.65.56"/>
      <path class="cls-1" d="M169.54,230.31h-1.56v2.8c.62-.1,1.16-.18,1.85-.29.01-1.05-.53-2.19.34-3.01"/>
      <path class="cls-1" d="M102.2,127.11c2.67.34,5.32,1.44,8,.62"/>
      <path class="cls-1" d="M57.47,139.1c-2.5.33-5,.67-7.5,1"/>
      <path class="cls-1" d="M111.2,90.62c-.65-.98-1.5-.93-2.44-.42v1.79c1.73.1,2.14-.11,2.44-1.25"/>
      <path class="cls-1" d="M20.87,158.59c.28,2.56-1.63,7.58,2.75,6.62"/>
      <path class="cls-1" d="M186.91,127.98h2.56v-2.12h-1.99c-.16.27-.31.51-.45.75"/>
      <path class="cls-1" d="M98.08,71.76c1.96-.21,4.09,4.81,3.37,6.37"/>
      <path class="cls-1" d="M167.79,170.21c.1.63.21,1.26.31,1.87h1.56v-2.37c-.72.14-1.3.26-1.87.37"/>
      <path class="cls-1" d="M79.71,56.01c-2.51.97-5.3,1.19-7.75,2.25"/>
      <path class="cls-1" d="M58.72,38.4c-.14-.42-.29-.85-.44-1.3-2.27.65-4.49,1.24-6.67,1.95-1.19.38-1.17.52-.38,1.6"/>
      <path class="cls-1" d="M42.1,136.6c.12,1.22-1.36,4.54.76,4.4,1.7-.24,3.56.37,5.12-.65"/>
      <path class="cls-1" d="M92.46,130.23c.35,2.11.25,4.24.25,6.37"/>
      <path class="cls-1" d="M169.67,17.53c-2.11.32-4.23.51-6.25,1.25"/>
      <path class="cls-1" d="M43.98,140.1c-2.87-.02-5.76-.4-8.62-.12"/>
      <path class="cls-1" d="M70.97,63.51c-2.46-.65-5.11,1.03-7.37-.12"/>
      <path class="cls-1" d="M56.85,38.9c-2.32.77-4.7,1.37-6.75,2.75"/>
      <path class="cls-1" d="M41.85,135.6c1.47,1.91,4.08,3.02,5.87,4.75"/>
      <path class="cls-1" d="M85.71,21.78c-3.7,1.57-8.01,2.22-11.86,3.64-1.32,1.23-3.58-1.16-4.13.86"/>
      <path class="cls-1" d="M122.32,21.28c-.03-.38-.07-.75-.12-1.35-1.42.36-2.78.7-4.44,1.12.11.47.21.91.31,1.35"/>
      <path class="cls-1" d="M43.73,128.73c-1.76,1.34-3.98,1.52-5.97,2.31-.44.19-1.09-.59-1.27.32"/>
      <path class="cls-1" d="M77.21,92.87c-2.02-.08-2.24,2.32-3.25,3.62"/>
      <path class="cls-1" d="M10,142.35c1.01,1.01,2.69.31,4,.5"/>
      <path class="cls-1" d="M158.05,11.91c-.03,1.19-1.11,1.06-1.76,1.2-2.08.51-3.84,1.96-5.36,3.42"/>
      <path class="cls-1" d="M146.05,176.21v4.25"/>
      <path class="cls-1" d="M88.46,91.25c-.54.15-1.07.29-1.63.44-.52.9-1.07,1.85-1.62,2.81"/>
      <path class="cls-1" d="M92.83,71.51c-.94.73-1.17,2.29-.5,3.5"/>
      <path class="cls-1" d="M188.03,112.49c-.09-.6-.36-.99-.98-.6-.64.76.53,1.65,1.11.72"/>
      <path class="cls-1" d="M24.49,194.82c1.76,1.03-.15,6.44-.12,8.37"/>
      <path class="cls-1" d="M160.05,11.54c1.17,1.17-.99,2.31-1.87,1.25"/>
      <path class="cls-1" d="M50.35,42.02c1.37.23,3.2-.28,3.62,1.5"/>
      <path class="cls-1" d="M25.24,139.85c-.54,1.36-1.73.96-2.75,1"/>
      <path class="cls-1" d="M121.69,91.62h1.86c.15-1.28-.16-2.22-1.07-3.21-.4,1.28-.78,2.5-1.17,3.71"/>
      <path class="cls-1" d="M169.92,90.44c.17.98.33,1.96.5,2.94"/>
      <path class="cls-1" d="M24.36,195.07c-.15,1.75-.3,3.5-.45,5.24.17.11.37.25.57.38"/>
      <path class="cls-1" d="M145.8,180.83v3"/>
      <path class="cls-1" d="M146.3,180.83v3"/>
      <path class="cls-1" d="M62.84,96.62c1.95.33.86,2.41-1.34,1.85-.04-.56-.08-1.17-.13-1.92.53.08.94.14,1.35.2"/>
      <path class="cls-1" d="M140.68,105.74c-1.14-1.25-2.04.43-3.46.17l-.05-.31c-.23.3-.47.61-.72.95-1.28-.32-2.5-.31-3.5.69"/>
      <path class="cls-1" d="M12.74,238.8h-2.5"/>
      <path class="cls-1" d="M46.6,41.4c-.22,1.19.75,1.68,1.37,2.37"/>
      <path class="cls-1" d="M144.93,105.24c-1.44-.73-2.66-.41-3.37.87"/>
      <path class="cls-1" d="M64.84,61.39l.37,2.25"/>
      <path class="cls-1" d="M34.86,102.99c-.55.66-1.11,1.31-1.73,2.05-.91-1.14-2.3-1.96-2.4-3.67"/>
      <path class="cls-1" d="M47.85,41.27c.72.12,1.44.24,2.29.38-.09.55-.19,1.21-.29,1.87"/>
      <path class="cls-1" d="M97.95,78.88v2"/>
      <path class="cls-1" d="M66.22,59.76c-.67-.1-1.33-.2-1.95-.29-.63.58-.67,1.22-.42,1.92"/>
      <path class="cls-1" d="M175.17,130.98c.33-.04.67-.08,1.08-.14.4.72.63,1.38-.46,1.76"/>
      <path class="cls-1" d="M145.43,149.72l.37,1.87"/>
      <path class="cls-1" d="M22.49,162.84c-.04.58-.08,1.17-.12,1.75"/>
      <path class="cls-1" d="M22.36,160.09v1.75"/>
      <path class="cls-1" d="M154.55,97.62c-.21.92-.42,1.83-.62,2.75"/>
      <path class="cls-1" d="M177.66,108.86c.03.38.07.75.1,1.15-.89.46-1.27,1.32-1.6,2.22"/>
      <path class="cls-1" d="M62.72,96.87c.08.46.17.92.25,1.37"/>
      <path class="cls-1" d="M64.72,59.76c.04.46.08.92.12,1.37"/>
      <path class="cls-1" d="M23.74,183.08v.75h-.75"/>
      <path class="cls-1" d="M23.49,200.19c-.42.04-.83.08-1.25.12"/>
      <path class="cls-1" d="M24.86,198.32c-.47-.12-.94-.23-1.64-.41.05,0-.45.13-.6.22.02.02.04.04.06.06"/>
      <path class="cls-1" d="M108.45,85.38c-.5.08-1,.17-1.5.25"/>
      <path class="cls-1" d="M83.96,21.28c.04.37.08.75.12,1.12"/>
      <path class="cls-1" d="M151.93,13.29c.71.12,1.42.25,2.12.37"/>
      <path class="cls-1" d="M66.22,83.75v-1.06c-.44.11-.85.21-1.25.31"/>
      <path class="cls-1" d="M19.74,167.09c-.33.04-.67.08-1,.12"/>
      <path class="cls-1" d="M24.61,168.34l-1.5.75"/>
      <path class="cls-1" d="M83.08,21.53c.04.33.08.67.12,1"/>
      <path class="cls-1" d="M24.86,165.09c-.37.04-.75.08-1.12.12"/>
      <path class="cls-1" d="M20.49,191.07v1"/>
      <path class="cls-1" d="M20.49,187.08v1"/>
      <path class="cls-1" d="M22.99,172.08c-.29.04-.58.08-.87.12"/>
      <path class="cls-1" d="M20.99,156.22c-.58-.04-1.17-.08-1.75-.12"/>
      <path class="cls-1" d="M22.49,191.07c.08.25.17.5.25.75"/>
      <path class="cls-1" d="M20.24,167.84c.37.42.75.83,1.12,1.25"/>
      <path class="cls-1" d="M23.99,167.34c-.17.42-.33.83-.5,1.25"/>
      <path class="cls-1" d="M20.99,183.33c-.25.17-.5.33-.75.5"/>
      <path class="cls-1" d="M21.61,172.33c-.21-.17-.42-.33-.62-.5"/>
      <path class="cls-1" d="M131.56,73.76c-.29.21-.58.42-.87.62"/>
      <path class="cls-1" d="M13.49,238.05c-.08.17-.17.33-.25.5"/>
      <path class="cls-1" d="M22.49,173.33c-.12-.04-.25-.08-.37-.12"/>
      <path class="cls-1" d="M22.11,164.71c-.08.12-.17.25-.25.37"/>
      <path class="cls-1" d="M166.54,193.32c-.84,4.63-.36,9.95-.22,14.68h6.15v-14.68h-5.81"/>
      <path class="cls-1" d="M190.91,109.99c-1.1.37-.5,1.11-.46,1.81h1.53v-1.68c-.35-.05-.65-.09-.94-.13"/>
      <path class="cls-1" d="M164.3,116.11c-1.46.16-2.92.31-4.24.46-1.21,8.04,12.79,12.77,11.59,21.85.77.23,1.54.45,2.65.78-2.87-7.85-5.63-15.4-8.44-23.08h-1.43"/>
      <path class="cls-1" d="M190.53,197.32c-.11,1.16-.22,2.33-.33,3.46.7.14,1.2.23,1.83.36-.25-1.35.82-4.16-1.37-3.82"/>
      <path class="cls-1" d="M190.66,118.73c-.96.24-.58.92-.48,1.66.55-.08,1.09-.16,1.67-.24v-1.33c-.31-.03-.69-.06-1.06-.09"/>
      <path class="cls-1" d="M166.79,163.09c-.97,4.44-.08,9.38-.37,14.1,1.74.22,3.74.47,5.82.73.47-4.01.1-8.05.33-12.08-.05-2.65-3.87-1.88-5.65-2.75"/>
      <path class="cls-1" d="M179.41,122.23c-1.12.37-.49,1.21-.5,1.89.41.04.82.09,1.31.14v-1.88c-.27-.06-.48-.1-.69-.15"/>
      <path class="cls-1" d="M104.07,88.87c-.34.11-.68.23-1.12.38-.15,2.26.97,9.42-3.2,6.78-.13-2.12-.25-4.2-.39-6.48-.54.2-.99.37-1.41.53-.16,3.64-.56,10.93,5.11,7.4,2.34-1.63,1.33-6.09,1.14-8.6"/>
      <path class="cls-1" d="M92.08,90.37c-3.96,1.49-4.91,7.78-.5,8.89,5.28,1.11,7.21-9.68.63-8.89"/>
      <path class="cls-1" d="M183.04,137.6c-.17.48-.34.97-.54,1.56h2.11v-1.56h-1.44"/>
      <path class="cls-1" d="M96.33,57.64c-1.58.19-3.37-.1-3.01,2,.2,2.26-.09,4.54.37,6.78,8.26.16,10.37-9.71,2.77-8.78"/>
      <path class="cls-1" d="M179.54,129.1c-.2.1-.4.2-.64.32.07.48.15,1.02.24,1.62h1.32c.09-.62.17-1.2.27-1.94h-1.07"/>
      <path class="cls-1" d="M92.33,91.87c-3.47,1.32-2.25,8.17,1.37,5.25,1.64-1.52,1.5-5.36-1.25-5.25"/>
      <path class="cls-1" d="M97.2,56.01c-8.43.51-4.69,4.02-5.26,10.25.01,1.01.53,1.36,1.39,1.37,7.92,1.26,14.62-10.99,4-11.61"/>
      <path class="cls-1" d="M40.11,54.64c-.88.22-1.76.45-2.87.73-.19,9.21,1.52,18.43.61,27.63-.81,4.57-6.34,7.28-10.6,6.13-1.52-.55-1.97-1.17-2-2.75-.24-9.4-.39-18.58-.83-28.02-1.52.09-3.77-.01-3.78,2.03-.04,5.28-.23,10.59-.12,15.87.47,5.35-.26,15.44,6.6,16,5.31.65,12.16-1.78,14-8.5,2.06-9.5-.38-19.68-.88-29.11"/>
      <path class="cls-1" d="M123.94,46.02c-3.92,3.99-3.98,12.57-4.5,17.99-.34,3.88,9.91.91,11.41-.87-1.72-5.75-3.39-11.32-5.07-16.93-.63-.07-1.17-.13-1.72-.19"/>
      <path class="cls-1" d="M167.92,196.2c-.98.96-.33,2.4-.5,3.78.62.04,1.24.08,2.08.13.11-1.35.21-2.56.31-3.78-.68-.05-1.22-.09-1.76-.13"/>
      <path class="cls-1" d="M56.6,95.87c-.96,2.23-.09,5.34-.37,7.93h1.44v-7.93h-.94"/>
      <path class="cls-1" d="M148.3,36.15c-1.84.99-5.68.78-5.39,3.62.95,12.84,1.77,25.73,2.78,38.55,1.93.5,7.62.07,7.7-2.56-.39-6.71-.97-13.41-1.47-20.12-.4-5.88-.98-11.74-1.35-17.62-.09-1.84-.4-1.93-2.15-1.87"/>
      <path class="cls-1" d="M189.53,167.84c-.92,3.95.05,8.21-.25,12.3,1.45.18,2.78.35,4.19.53v-12.06c-1.3-.26-2.55-.52-3.81-.77"/>
      <path class="cls-2" d="M72.95,83.05c-.12,2.27,2.7.74,3.93.63.23-.07.54-.63.53-.96-.07-6.69-.21-12.99-.16-19.77,2.46-.8,6.64-.86,5.4-4.78-.55-1.88-6.23-.09-7.88.18-1.98,1.16-6.04.85-7.14,2.71"/>
      <path class="cls-1" d="M73.77,63.24c-.89,6.82.54,13.94.25,20.86"/>
      <path class="cls-1" d="M65.44,85.45c-4.02-.06-7.32-.46-11.21-.11-1-7-.5-14.5-1-21.49-.51.14.17,5.85,0,0-1-.51-2.5.49-2.5.99,0,8-.5,15.5.33,23.39,2.34-.29-.13-4.51,0,0,2.05-.6,12.48-.79,12.54-2.66"/>
      <path class="cls-5" d="M29.62,127.57c-.31-.15-.34-.22-.54-.34.03.03.28.03.4.1"/>
      <path class="cls-5" d="M49.66,126.77c-2.75.51-5.63.86-8.37,1.18.19,0,.41.1.61.12-.07.71-1.02.62-1.59.52l.18-.54c.25.1.65-.1.79-.09-.66.08-1.24.09-2.01.2.2.03.41.08.61.12l-.28.39c-1.23-.16-2.66.58-3.77.12"/>
      <path class="cls-5" d="M50.7,128.13c-2.49-.02-5.03.57-7.52.42.1-.23.08-.58.34-.7,2.39.02,4.82-.8,7.17-.78"/>
      <path class="cls-5" d="M37.06,129.58c4.52-.64,9.05-.7,13.49-1.24"/>
      <path class="cls-3" d="M50.69,127.07c-2.35-.02-4.78.8-7.17.78-.19.07-.23.33-.28.48,2.64-.18,5.28-.62,7.91-.89"/>
      <path class="cls-3" d="M41.29,127.95c.19,0,.41.1.61.12-.07.71-1.02.62-1.59.52l.18-.54c.25.1.65-.1.79-.09Z"/>
      <path class="cls-4" d="M29.09,126.76c-.53-.11-.51-.64-.64-1.02-.18-.56-.38-1.17-.42-1.79.09-.06.77.6.84.64.01.32-.26.15-.31.18-.16.11.23.55.28.72.06.19-.05.39-.02.52.08.34.27.15.27.74Z"/>
    </g>
  </g>
</svg>