<svg viewBox="0 0 1000 800" xmlns="http://www.w3.org/2000/svg">
    <!-- Title -->
    <text x="500" y="40" text-anchor="middle" font-size="24" font-weight="bold">TriLLMOrchestrator Deployment Architecture</text>

    <!-- Client Layer -->
    <rect x="50" y="80" width="900" height="100" fill="#f8f9fa" stroke="#333"/>
    <text x="100" y="110" font-size="16" font-weight="bold">Client Layer</text>

    <!-- API Clients -->
    <rect x="150" y="120" width="120" height="40" fill="white" stroke="#333"/>
    <text x="210" y="145" text-anchor="middle" font-size="12">REST API Client</text>

    <rect x="300" y="120" width="120" height="40" fill="white" stroke="#333"/>
    <text x="360" y="145" text-anchor="middle" font-size="12">gRPC Client</text>

    <rect x="450" y="120" width="120" height="40" fill="white" stroke="#333"/>
    <text x="510" y="145" text-anchor="middle" font-size="12">WebSocket Client</text>

    <!-- Load Balancer Layer -->
    <rect x="50" y="200" width="900" height="80" fill="#e9ecef" stroke="#333"/>
    <text x="100" y="230" font-size="16" font-weight="bold">Load Balancer Layer</text>

    <path d="M210 160 L210 280" stroke="#333" stroke-width="1" stroke-dasharray="5,5"/>
    <path d="M360 160 L360 280" stroke="#333" stroke-width="1" stroke-dasharray="5,5"/>
    <path d="M510 160 L510 280" stroke="#333" stroke-width="1" stroke-dasharray="5,5"/>

    <rect x="150" y="240" width="600" height="30" fill="white" stroke="#333"/>
    <text x="450" y="260" text-anchor="middle" font-size="12">Load Balancer (HAProxy/Nginx)</text>

    <!-- Orchestrator Layer -->
    <rect x="50" y="300" width="900" height="200" fill="#f0f8ff" stroke="#333"/>
    <text x="100" y="330" font-size="16" font-weight="bold">Orchestrator Layer</text>

    <!-- Orchestrator Instances -->
    <rect x="150" y="350" width="160" height="120" fill="white" stroke="#333"/>
    <text x="230" y="370" text-anchor="middle" font-size="12">Orchestrator Instance 1</text>
    <rect x="170" y="380" width="120" height="20" fill="#f8f9fa" stroke="#333"/>
    <text x="230" y="395" text-anchor="middle" font-size="10">Model Manager</text>
    <rect x="170" y="410" width="120" height="20" fill="#f8f9fa" stroke="#333"/>
    <text x="230" y="425" text-anchor="middle" font-size="10">Analysis Pipeline</text>
    <rect x="170" y="440" width="120" height="20" fill="#f8f9fa" stroke="#333"/>
    <text x="230" y="455" text-anchor="middle" font-size="10">Resource Manager</text>

    <rect x="370" y="350" width="160" height="120" fill="white" stroke="#333"/>
    <text x="450" y="370" text-anchor="middle" font-size="12">Orchestrator Instance 2</text>
    <rect x="390" y="380" width="120" height="20" fill="#f8f9fa" stroke="#333"/>
    <text x="450" y="395" text-anchor="middle" font-size="10">Model Manager</text>
    <rect x="390" y="410" width="120" height="20" fill="#f8f9fa" stroke="#333"/>
    <text x="450" y="425" text-anchor="middle" font-size="10">Analysis Pipeline</text>
    <rect x="390" y="440" width="120" height="20" fill="#f8f9fa" stroke="#333"/>
    <text x="450" y="455" text-anchor="middle" font-size="10">Resource Manager</text>

    <rect x="590" y="350" width="160" height="120" fill="white" stroke="#333"/>
    <text x="670" y="370" text-anchor="middle" font-size="12">Orchestrator Instance N</text>
    <rect x="610" y="380" width="120" height="20" fill="#f8f9fa" stroke="#333"/>
    <text x="670" y="395" text-anchor="middle" font-size="10">Model Manager</text>
    <rect x="610" y="410" width="120" height="20" fill="#f8f9fa" stroke="#333"/>
    <text x="670" y="425" text-anchor="middle" font-size="10">Analysis Pipeline</text>
    <rect x="610" y="440" width="120" height="20" fill="#f8f9fa" stroke="#333"/>
    <text x="670" y="455" text-anchor="middle" font-size="10">Resource Manager</text>

    <!-- Shared Services Layer -->
    <rect x="50" y="520" width="900" height="160" fill="#fff0f0" stroke="#333"/>
    <text x="100" y="550" font-size="16" font-weight="bold">Shared Services Layer</text>

    <!-- Shared Services -->
    <rect x="150" y="570" width="140" height="80" fill="white" stroke="#333"/>
    <text x="220" y="590" text-anchor="middle" font-size="12">State Store</text>
    <text x="220" y="610" text-anchor="middle" font-size="10">(Redis/Etcd)</text>

    <rect x="320" y="570" width="140" height="80" fill="white" stroke="#333"/>
    <text x="390" y="590" text-anchor="middle" font-size="12">Message Queue</text>
    <text x="390" y="610" text-anchor="middle" font-size="10">(Kafka/RabbitMQ)</text>

    <rect x="490" y="570" width="140" height="80" fill="white" stroke="#333"/>
    <text x="560" y="590" text-anchor="middle" font-size="12">Metrics Store</text>
    <text x="560" y="610" text-anchor="middle" font-size="10">(Prometheus)</text>

    <rect x="660" y="570" width="140" height="80" fill="white" stroke="#333"/>
    <text x="730" y="590" text-anchor="middle" font-size="12">Log Aggregator</text>
    <text x="730" y="610" text-anchor="middle" font-size="10">(ELK Stack)</text>

    <!-- Model Layer -->
    <rect x="50" y="700" width="900" height="80" fill="#f0fff0" stroke="#333"/>
    <text x="100" y="730" font-size="16" font-weight="bold">Model Layer</text>

    <!-- Model Services -->
    <rect x="150" y="720" width="120" height="40" fill="white" stroke="#333"/>
    <text x="210" y="745" text-anchor="middle" font-size="12">Llama Service</text>

    <rect x="300" y="720" width="120" height="40" fill="white" stroke="#333"/>
    <text x="360" y="745" text-anchor="middle" font-size="12">ChatGPT Service</text>

    <rect x="450" y="720" width="120" height="40" fill="white" stroke="#333"/>
    <text x="510" y="745" text-anchor="middle" font-size="12">Gemini Service</text>

    <!-- Connections -->
    <path d="M450 270 L450 350" stroke="#333" stroke-width="1"/>
    <path d="M230 470 L230 570" stroke="#333" stroke-width="1"/>
    <path d="M450 470 L450 570" stroke="#333" stroke-width="1"/>
    <path d="M670 470 L670 570" stroke="#333" stroke-width="1"/>
    <path d="M230 650 L230 720" stroke="#333" stroke-width="1"/>
    <path d="M450 650 L450 720" stroke="#333" stroke-width="1"/>
    <path d="M670 650 L670 720" stroke="#333" stroke-width="1"/>
</svg>
